<?xml version="1.0" encoding="utf-8" standalone="no"?>
<!DOCTYPE svg PUBLIC "-//W3C//DTD SVG 1.1//EN"
  "http://www.w3.org/Graphics/SVG/1.1/DTD/svg11.dtd">
<svg xmlns:xlink="http://www.w3.org/1999/xlink" width="460.8pt" height="345.6pt" viewBox="0 0 460.8 345.6" xmlns="http://www.w3.org/2000/svg" version="1.1">
 <metadata>
  <rdf:RDF xmlns:dc="http://purl.org/dc/elements/1.1/" xmlns:cc="http://creativecommons.org/ns#" xmlns:rdf="http://www.w3.org/1999/02/22-rdf-syntax-ns#">
   <cc:Work>
    <dc:type rdf:resource="http://purl.org/dc/dcmitype/StillImage"/>
    <dc:date>2024-09-09T16:38:48.089108</dc:date>
    <dc:format>image/svg+xml</dc:format>
    <dc:creator>
     <cc:Agent>
      <dc:title>Matplotlib v3.8.4, https://matplotlib.org/</dc:title>
     </cc:Agent>
    </dc:creator>
   </cc:Work>
  </rdf:RDF>
 </metadata>
 <defs>
  <style type="text/css">*{stroke-linejoin: round; stroke-linecap: butt}</style>
 </defs>
 <g id="figure_1">
  <g id="patch_1">
   <path d="M 0 345.6 
L 460.8 345.6 
L 460.8 0 
L 0 0 
z
" style="fill: #ffffff"/>
  </g>
  <g id="axes_1">
   <g id="patch_2">
    <path d="M 57.6 307.584 
L 414.72 307.584 
L 414.72 41.472 
L 57.6 41.472 
z
" style="fill: #e5e5e5"/>
   </g>
   <g id="matplotlib.axis_1">
    <g id="xtick_1">
     <g id="line2d_1">
      <path d="M 73.832727 307.584 
L 73.832727 41.472 
" clip-path="url(#pbbd76c37e8)" style="fill: none; stroke: #ffffff; stroke-width: 0.8; stroke-linecap: square"/>
     </g>
     <g id="line2d_2">
      <defs>
       <path id="maf989ecd15" d="M 0 0 
L 0 3.5 
" style="stroke: #555555; stroke-width: 0.8"/>
      </defs>
      <g>
       <use xlink:href="#maf989ecd15" x="73.832727" y="307.584" style="fill: #555555; stroke: #555555; stroke-width: 0.8"/>
      </g>
     </g>
     <g id="text_1">
      <!-- 0 -->
      <g style="fill: #555555" transform="translate(70.651477 322.182437) scale(0.1 -0.1)">
       <defs>
        <path id="DejaVuSans-30" d="M 2034 4250 
Q 1547 4250 1301 3770 
Q 1056 3291 1056 2328 
Q 1056 1369 1301 889 
Q 1547 409 2034 409 
Q 2525 409 2770 889 
Q 3016 1369 3016 2328 
Q 3016 3291 2770 3770 
Q 2525 4250 2034 4250 
z
M 2034 4750 
Q 2819 4750 3233 4129 
Q 3647 3509 3647 2328 
Q 3647 1150 3233 529 
Q 2819 -91 2034 -91 
Q 1250 -91 836 529 
Q 422 1150 422 2328 
Q 422 3509 836 4129 
Q 1250 4750 2034 4750 
z
" transform="scale(0.015625)"/>
       </defs>
       <use xlink:href="#DejaVuSans-30"/>
      </g>
     </g>
    </g>
    <g id="xtick_2">
     <g id="line2d_3">
      <path d="M 132.871561 307.584 
L 132.871561 41.472 
" clip-path="url(#pbbd76c37e8)" style="fill: none; stroke: #ffffff; stroke-width: 0.8; stroke-linecap: square"/>
     </g>
     <g id="line2d_4">
      <g>
       <use xlink:href="#maf989ecd15" x="132.871561" y="307.584" style="fill: #555555; stroke: #555555; stroke-width: 0.8"/>
      </g>
     </g>
     <g id="text_2">
      <!-- 2000 -->
      <g style="fill: #555555" transform="translate(120.146561 322.182437) scale(0.1 -0.1)">
       <defs>
        <path id="DejaVuSans-32" d="M 1228 531 
L 3431 531 
L 3431 0 
L 469 0 
L 469 531 
Q 828 903 1448 1529 
Q 2069 2156 2228 2338 
Q 2531 2678 2651 2914 
Q 2772 3150 2772 3378 
Q 2772 3750 2511 3984 
Q 2250 4219 1831 4219 
Q 1534 4219 1204 4116 
Q 875 4013 500 3803 
L 500 4441 
Q 881 4594 1212 4672 
Q 1544 4750 1819 4750 
Q 2544 4750 2975 4387 
Q 3406 4025 3406 3419 
Q 3406 3131 3298 2873 
Q 3191 2616 2906 2266 
Q 2828 2175 2409 1742 
Q 1991 1309 1228 531 
z
" transform="scale(0.015625)"/>
       </defs>
       <use xlink:href="#DejaVuSans-32"/>
       <use xlink:href="#DejaVuSans-30" x="63.623047"/>
       <use xlink:href="#DejaVuSans-30" x="127.246094"/>
       <use xlink:href="#DejaVuSans-30" x="190.869141"/>
      </g>
     </g>
    </g>
    <g id="xtick_3">
     <g id="line2d_5">
      <path d="M 191.910394 307.584 
L 191.910394 41.472 
" clip-path="url(#pbbd76c37e8)" style="fill: none; stroke: #ffffff; stroke-width: 0.8; stroke-linecap: square"/>
     </g>
     <g id="line2d_6">
      <g>
       <use xlink:href="#maf989ecd15" x="191.910394" y="307.584" style="fill: #555555; stroke: #555555; stroke-width: 0.8"/>
      </g>
     </g>
     <g id="text_3">
      <!-- 4000 -->
      <g style="fill: #555555" transform="translate(179.185394 322.182437) scale(0.1 -0.1)">
       <defs>
        <path id="DejaVuSans-34" d="M 2419 4116 
L 825 1625 
L 2419 1625 
L 2419 4116 
z
M 2253 4666 
L 3047 4666 
L 3047 1625 
L 3713 1625 
L 3713 1100 
L 3047 1100 
L 3047 0 
L 2419 0 
L 2419 1100 
L 313 1100 
L 313 1709 
L 2253 4666 
z
" transform="scale(0.015625)"/>
       </defs>
       <use xlink:href="#DejaVuSans-34"/>
       <use xlink:href="#DejaVuSans-30" x="63.623047"/>
       <use xlink:href="#DejaVuSans-30" x="127.246094"/>
       <use xlink:href="#DejaVuSans-30" x="190.869141"/>
      </g>
     </g>
    </g>
    <g id="xtick_4">
     <g id="line2d_7">
      <path d="M 250.949228 307.584 
L 250.949228 41.472 
" clip-path="url(#pbbd76c37e8)" style="fill: none; stroke: #ffffff; stroke-width: 0.8; stroke-linecap: square"/>
     </g>
     <g id="line2d_8">
      <g>
       <use xlink:href="#maf989ecd15" x="250.949228" y="307.584" style="fill: #555555; stroke: #555555; stroke-width: 0.8"/>
      </g>
     </g>
     <g id="text_4">
      <!-- 6000 -->
      <g style="fill: #555555" transform="translate(238.224228 322.182437) scale(0.1 -0.1)">
       <defs>
        <path id="DejaVuSans-36" d="M 2113 2584 
Q 1688 2584 1439 2293 
Q 1191 2003 1191 1497 
Q 1191 994 1439 701 
Q 1688 409 2113 409 
Q 2538 409 2786 701 
Q 3034 994 3034 1497 
Q 3034 2003 2786 2293 
Q 2538 2584 2113 2584 
z
M 3366 4563 
L 3366 3988 
Q 3128 4100 2886 4159 
Q 2644 4219 2406 4219 
Q 1781 4219 1451 3797 
Q 1122 3375 1075 2522 
Q 1259 2794 1537 2939 
Q 1816 3084 2150 3084 
Q 2853 3084 3261 2657 
Q 3669 2231 3669 1497 
Q 3669 778 3244 343 
Q 2819 -91 2113 -91 
Q 1303 -91 875 529 
Q 447 1150 447 2328 
Q 447 3434 972 4092 
Q 1497 4750 2381 4750 
Q 2619 4750 2861 4703 
Q 3103 4656 3366 4563 
z
" transform="scale(0.015625)"/>
       </defs>
       <use xlink:href="#DejaVuSans-36"/>
       <use xlink:href="#DejaVuSans-30" x="63.623047"/>
       <use xlink:href="#DejaVuSans-30" x="127.246094"/>
       <use xlink:href="#DejaVuSans-30" x="190.869141"/>
      </g>
     </g>
    </g>
    <g id="xtick_5">
     <g id="line2d_9">
      <path d="M 309.988061 307.584 
L 309.988061 41.472 
" clip-path="url(#pbbd76c37e8)" style="fill: none; stroke: #ffffff; stroke-width: 0.8; stroke-linecap: square"/>
     </g>
     <g id="line2d_10">
      <g>
       <use xlink:href="#maf989ecd15" x="309.988061" y="307.584" style="fill: #555555; stroke: #555555; stroke-width: 0.8"/>
      </g>
     </g>
     <g id="text_5">
      <!-- 8000 -->
      <g style="fill: #555555" transform="translate(297.263061 322.182437) scale(0.1 -0.1)">
       <defs>
        <path id="DejaVuSans-38" d="M 2034 2216 
Q 1584 2216 1326 1975 
Q 1069 1734 1069 1313 
Q 1069 891 1326 650 
Q 1584 409 2034 409 
Q 2484 409 2743 651 
Q 3003 894 3003 1313 
Q 3003 1734 2745 1975 
Q 2488 2216 2034 2216 
z
M 1403 2484 
Q 997 2584 770 2862 
Q 544 3141 544 3541 
Q 544 4100 942 4425 
Q 1341 4750 2034 4750 
Q 2731 4750 3128 4425 
Q 3525 4100 3525 3541 
Q 3525 3141 3298 2862 
Q 3072 2584 2669 2484 
Q 3125 2378 3379 2068 
Q 3634 1759 3634 1313 
Q 3634 634 3220 271 
Q 2806 -91 2034 -91 
Q 1263 -91 848 271 
Q 434 634 434 1313 
Q 434 1759 690 2068 
Q 947 2378 1403 2484 
z
M 1172 3481 
Q 1172 3119 1398 2916 
Q 1625 2713 2034 2713 
Q 2441 2713 2670 2916 
Q 2900 3119 2900 3481 
Q 2900 3844 2670 4047 
Q 2441 4250 2034 4250 
Q 1625 4250 1398 4047 
Q 1172 3844 1172 3481 
z
" transform="scale(0.015625)"/>
       </defs>
       <use xlink:href="#DejaVuSans-38"/>
       <use xlink:href="#DejaVuSans-30" x="63.623047"/>
       <use xlink:href="#DejaVuSans-30" x="127.246094"/>
       <use xlink:href="#DejaVuSans-30" x="190.869141"/>
      </g>
     </g>
    </g>
    <g id="xtick_6">
     <g id="line2d_11">
      <path d="M 369.026895 307.584 
L 369.026895 41.472 
" clip-path="url(#pbbd76c37e8)" style="fill: none; stroke: #ffffff; stroke-width: 0.8; stroke-linecap: square"/>
     </g>
     <g id="line2d_12">
      <g>
       <use xlink:href="#maf989ecd15" x="369.026895" y="307.584" style="fill: #555555; stroke: #555555; stroke-width: 0.8"/>
      </g>
     </g>
     <g id="text_6">
      <!-- 10000 -->
      <g style="fill: #555555" transform="translate(353.120645 322.182437) scale(0.1 -0.1)">
       <defs>
        <path id="DejaVuSans-31" d="M 794 531 
L 1825 531 
L 1825 4091 
L 703 3866 
L 703 4441 
L 1819 4666 
L 2450 4666 
L 2450 531 
L 3481 531 
L 3481 0 
L 794 0 
L 794 531 
z
" transform="scale(0.015625)"/>
       </defs>
       <use xlink:href="#DejaVuSans-31"/>
       <use xlink:href="#DejaVuSans-30" x="63.623047"/>
       <use xlink:href="#DejaVuSans-30" x="127.246094"/>
       <use xlink:href="#DejaVuSans-30" x="190.869141"/>
       <use xlink:href="#DejaVuSans-30" x="254.492188"/>
      </g>
     </g>
    </g>
    <g id="text_7">
     <!-- Number of Games -->
     <g style="fill: #555555" transform="translate(181.471875 337.38025) scale(0.12 -0.12)">
      <defs>
       <path id="DejaVuSans-4e" d="M 628 4666 
L 1478 4666 
L 3547 763 
L 3547 4666 
L 4159 4666 
L 4159 0 
L 3309 0 
L 1241 3903 
L 1241 0 
L 628 0 
L 628 4666 
z
" transform="scale(0.015625)"/>
       <path id="DejaVuSans-75" d="M 544 1381 
L 544 3500 
L 1119 3500 
L 1119 1403 
Q 1119 906 1312 657 
Q 1506 409 1894 409 
Q 2359 409 2629 706 
Q 2900 1003 2900 1516 
L 2900 3500 
L 3475 3500 
L 3475 0 
L 2900 0 
L 2900 538 
Q 2691 219 2414 64 
Q 2138 -91 1772 -91 
Q 1169 -91 856 284 
Q 544 659 544 1381 
z
M 1991 3584 
L 1991 3584 
z
" transform="scale(0.015625)"/>
       <path id="DejaVuSans-6d" d="M 3328 2828 
Q 3544 3216 3844 3400 
Q 4144 3584 4550 3584 
Q 5097 3584 5394 3201 
Q 5691 2819 5691 2113 
L 5691 0 
L 5113 0 
L 5113 2094 
Q 5113 2597 4934 2840 
Q 4756 3084 4391 3084 
Q 3944 3084 3684 2787 
Q 3425 2491 3425 1978 
L 3425 0 
L 2847 0 
L 2847 2094 
Q 2847 2600 2669 2842 
Q 2491 3084 2119 3084 
Q 1678 3084 1418 2786 
Q 1159 2488 1159 1978 
L 1159 0 
L 581 0 
L 581 3500 
L 1159 3500 
L 1159 2956 
Q 1356 3278 1631 3431 
Q 1906 3584 2284 3584 
Q 2666 3584 2933 3390 
Q 3200 3197 3328 2828 
z
" transform="scale(0.015625)"/>
       <path id="DejaVuSans-62" d="M 3116 1747 
Q 3116 2381 2855 2742 
Q 2594 3103 2138 3103 
Q 1681 3103 1420 2742 
Q 1159 2381 1159 1747 
Q 1159 1113 1420 752 
Q 1681 391 2138 391 
Q 2594 391 2855 752 
Q 3116 1113 3116 1747 
z
M 1159 2969 
Q 1341 3281 1617 3432 
Q 1894 3584 2278 3584 
Q 2916 3584 3314 3078 
Q 3713 2572 3713 1747 
Q 3713 922 3314 415 
Q 2916 -91 2278 -91 
Q 1894 -91 1617 61 
Q 1341 213 1159 525 
L 1159 0 
L 581 0 
L 581 4863 
L 1159 4863 
L 1159 2969 
z
" transform="scale(0.015625)"/>
       <path id="DejaVuSans-65" d="M 3597 1894 
L 3597 1613 
L 953 1613 
Q 991 1019 1311 708 
Q 1631 397 2203 397 
Q 2534 397 2845 478 
Q 3156 559 3463 722 
L 3463 178 
Q 3153 47 2828 -22 
Q 2503 -91 2169 -91 
Q 1331 -91 842 396 
Q 353 884 353 1716 
Q 353 2575 817 3079 
Q 1281 3584 2069 3584 
Q 2775 3584 3186 3129 
Q 3597 2675 3597 1894 
z
M 3022 2063 
Q 3016 2534 2758 2815 
Q 2500 3097 2075 3097 
Q 1594 3097 1305 2825 
Q 1016 2553 972 2059 
L 3022 2063 
z
" transform="scale(0.015625)"/>
       <path id="DejaVuSans-72" d="M 2631 2963 
Q 2534 3019 2420 3045 
Q 2306 3072 2169 3072 
Q 1681 3072 1420 2755 
Q 1159 2438 1159 1844 
L 1159 0 
L 581 0 
L 581 3500 
L 1159 3500 
L 1159 2956 
Q 1341 3275 1631 3429 
Q 1922 3584 2338 3584 
Q 2397 3584 2469 3576 
Q 2541 3569 2628 3553 
L 2631 2963 
z
" transform="scale(0.015625)"/>
       <path id="DejaVuSans-20" transform="scale(0.015625)"/>
       <path id="DejaVuSans-6f" d="M 1959 3097 
Q 1497 3097 1228 2736 
Q 959 2375 959 1747 
Q 959 1119 1226 758 
Q 1494 397 1959 397 
Q 2419 397 2687 759 
Q 2956 1122 2956 1747 
Q 2956 2369 2687 2733 
Q 2419 3097 1959 3097 
z
M 1959 3584 
Q 2709 3584 3137 3096 
Q 3566 2609 3566 1747 
Q 3566 888 3137 398 
Q 2709 -91 1959 -91 
Q 1206 -91 779 398 
Q 353 888 353 1747 
Q 353 2609 779 3096 
Q 1206 3584 1959 3584 
z
" transform="scale(0.015625)"/>
       <path id="DejaVuSans-66" d="M 2375 4863 
L 2375 4384 
L 1825 4384 
Q 1516 4384 1395 4259 
Q 1275 4134 1275 3809 
L 1275 3500 
L 2222 3500 
L 2222 3053 
L 1275 3053 
L 1275 0 
L 697 0 
L 697 3053 
L 147 3053 
L 147 3500 
L 697 3500 
L 697 3744 
Q 697 4328 969 4595 
Q 1241 4863 1831 4863 
L 2375 4863 
z
" transform="scale(0.015625)"/>
       <path id="DejaVuSans-47" d="M 3809 666 
L 3809 1919 
L 2778 1919 
L 2778 2438 
L 4434 2438 
L 4434 434 
Q 4069 175 3628 42 
Q 3188 -91 2688 -91 
Q 1594 -91 976 548 
Q 359 1188 359 2328 
Q 359 3472 976 4111 
Q 1594 4750 2688 4750 
Q 3144 4750 3555 4637 
Q 3966 4525 4313 4306 
L 4313 3634 
Q 3963 3931 3569 4081 
Q 3175 4231 2741 4231 
Q 1884 4231 1454 3753 
Q 1025 3275 1025 2328 
Q 1025 1384 1454 906 
Q 1884 428 2741 428 
Q 3075 428 3337 486 
Q 3600 544 3809 666 
z
" transform="scale(0.015625)"/>
       <path id="DejaVuSans-61" d="M 2194 1759 
Q 1497 1759 1228 1600 
Q 959 1441 959 1056 
Q 959 750 1161 570 
Q 1363 391 1709 391 
Q 2188 391 2477 730 
Q 2766 1069 2766 1631 
L 2766 1759 
L 2194 1759 
z
M 3341 1997 
L 3341 0 
L 2766 0 
L 2766 531 
Q 2569 213 2275 61 
Q 1981 -91 1556 -91 
Q 1019 -91 701 211 
Q 384 513 384 1019 
Q 384 1609 779 1909 
Q 1175 2209 1959 2209 
L 2766 2209 
L 2766 2266 
Q 2766 2663 2505 2880 
Q 2244 3097 1772 3097 
Q 1472 3097 1187 3025 
Q 903 2953 641 2809 
L 641 3341 
Q 956 3463 1253 3523 
Q 1550 3584 1831 3584 
Q 2591 3584 2966 3190 
Q 3341 2797 3341 1997 
z
" transform="scale(0.015625)"/>
       <path id="DejaVuSans-73" d="M 2834 3397 
L 2834 2853 
Q 2591 2978 2328 3040 
Q 2066 3103 1784 3103 
Q 1356 3103 1142 2972 
Q 928 2841 928 2578 
Q 928 2378 1081 2264 
Q 1234 2150 1697 2047 
L 1894 2003 
Q 2506 1872 2764 1633 
Q 3022 1394 3022 966 
Q 3022 478 2636 193 
Q 2250 -91 1575 -91 
Q 1294 -91 989 -36 
Q 684 19 347 128 
L 347 722 
Q 666 556 975 473 
Q 1284 391 1588 391 
Q 1994 391 2212 530 
Q 2431 669 2431 922 
Q 2431 1156 2273 1281 
Q 2116 1406 1581 1522 
L 1381 1569 
Q 847 1681 609 1914 
Q 372 2147 372 2553 
Q 372 3047 722 3315 
Q 1072 3584 1716 3584 
Q 2034 3584 2315 3537 
Q 2597 3491 2834 3397 
z
" transform="scale(0.015625)"/>
      </defs>
      <use xlink:href="#DejaVuSans-4e"/>
      <use xlink:href="#DejaVuSans-75" x="74.804688"/>
      <use xlink:href="#DejaVuSans-6d" x="138.183594"/>
      <use xlink:href="#DejaVuSans-62" x="235.595703"/>
      <use xlink:href="#DejaVuSans-65" x="299.072266"/>
      <use xlink:href="#DejaVuSans-72" x="360.595703"/>
      <use xlink:href="#DejaVuSans-20" x="401.708984"/>
      <use xlink:href="#DejaVuSans-6f" x="433.496094"/>
      <use xlink:href="#DejaVuSans-66" x="494.677734"/>
      <use xlink:href="#DejaVuSans-20" x="529.882812"/>
      <use xlink:href="#DejaVuSans-47" x="561.669922"/>
      <use xlink:href="#DejaVuSans-61" x="639.160156"/>
      <use xlink:href="#DejaVuSans-6d" x="700.439453"/>
      <use xlink:href="#DejaVuSans-65" x="797.851562"/>
      <use xlink:href="#DejaVuSans-73" x="859.375"/>
     </g>
    </g>
   </g>
   <g id="matplotlib.axis_2">
    <g id="ytick_1">
     <g id="line2d_13">
      <path d="M 57.6 307.584 
L 414.72 307.584 
" clip-path="url(#pbbd76c37e8)" style="fill: none; stroke: #ffffff; stroke-width: 0.8; stroke-linecap: square"/>
     </g>
     <g id="line2d_14">
      <defs>
       <path id="m4802c1b863" d="M 0 0 
L -3.5 0 
" style="stroke: #555555; stroke-width: 0.8"/>
      </defs>
      <g>
       <use xlink:href="#m4802c1b863" x="57.6" y="307.584" style="fill: #555555; stroke: #555555; stroke-width: 0.8"/>
      </g>
     </g>
     <g id="text_8">
      <!-- 0 -->
      <g style="fill: #555555" transform="translate(44.2375 311.383219) scale(0.1 -0.1)">
       <use xlink:href="#DejaVuSans-30"/>
      </g>
     </g>
    </g>
    <g id="ytick_2">
     <g id="line2d_15">
      <path d="M 57.6 268.080798 
L 414.72 268.080798 
" clip-path="url(#pbbd76c37e8)" style="fill: none; stroke: #ffffff; stroke-width: 0.8; stroke-linecap: square"/>
     </g>
     <g id="line2d_16">
      <g>
       <use xlink:href="#m4802c1b863" x="57.6" y="268.080798" style="fill: #555555; stroke: #555555; stroke-width: 0.8"/>
      </g>
     </g>
     <g id="text_9">
      <!-- 500 -->
      <g style="fill: #555555" transform="translate(31.5125 271.880017) scale(0.1 -0.1)">
       <defs>
        <path id="DejaVuSans-35" d="M 691 4666 
L 3169 4666 
L 3169 4134 
L 1269 4134 
L 1269 2991 
Q 1406 3038 1543 3061 
Q 1681 3084 1819 3084 
Q 2600 3084 3056 2656 
Q 3513 2228 3513 1497 
Q 3513 744 3044 326 
Q 2575 -91 1722 -91 
Q 1428 -91 1123 -41 
Q 819 9 494 109 
L 494 744 
Q 775 591 1075 516 
Q 1375 441 1709 441 
Q 2250 441 2565 725 
Q 2881 1009 2881 1497 
Q 2881 1984 2565 2268 
Q 2250 2553 1709 2553 
Q 1456 2553 1204 2497 
Q 953 2441 691 2322 
L 691 4666 
z
" transform="scale(0.015625)"/>
       </defs>
       <use xlink:href="#DejaVuSans-35"/>
       <use xlink:href="#DejaVuSans-30" x="63.623047"/>
       <use xlink:href="#DejaVuSans-30" x="127.246094"/>
      </g>
     </g>
    </g>
    <g id="ytick_3">
     <g id="line2d_17">
      <path d="M 57.6 228.577596 
L 414.72 228.577596 
" clip-path="url(#pbbd76c37e8)" style="fill: none; stroke: #ffffff; stroke-width: 0.8; stroke-linecap: square"/>
     </g>
     <g id="line2d_18">
      <g>
       <use xlink:href="#m4802c1b863" x="57.6" y="228.577596" style="fill: #555555; stroke: #555555; stroke-width: 0.8"/>
      </g>
     </g>
     <g id="text_10">
      <!-- 1000 -->
      <g style="fill: #555555" transform="translate(25.15 232.376815) scale(0.1 -0.1)">
       <use xlink:href="#DejaVuSans-31"/>
       <use xlink:href="#DejaVuSans-30" x="63.623047"/>
       <use xlink:href="#DejaVuSans-30" x="127.246094"/>
       <use xlink:href="#DejaVuSans-30" x="190.869141"/>
      </g>
     </g>
    </g>
    <g id="ytick_4">
     <g id="line2d_19">
      <path d="M 57.6 189.074394 
L 414.72 189.074394 
" clip-path="url(#pbbd76c37e8)" style="fill: none; stroke: #ffffff; stroke-width: 0.8; stroke-linecap: square"/>
     </g>
     <g id="line2d_20">
      <g>
       <use xlink:href="#m4802c1b863" x="57.6" y="189.074394" style="fill: #555555; stroke: #555555; stroke-width: 0.8"/>
      </g>
     </g>
     <g id="text_11">
      <!-- 1500 -->
      <g style="fill: #555555" transform="translate(25.15 192.873613) scale(0.1 -0.1)">
       <use xlink:href="#DejaVuSans-31"/>
       <use xlink:href="#DejaVuSans-35" x="63.623047"/>
       <use xlink:href="#DejaVuSans-30" x="127.246094"/>
       <use xlink:href="#DejaVuSans-30" x="190.869141"/>
      </g>
     </g>
    </g>
    <g id="ytick_5">
     <g id="line2d_21">
      <path d="M 57.6 149.571192 
L 414.72 149.571192 
" clip-path="url(#pbbd76c37e8)" style="fill: none; stroke: #ffffff; stroke-width: 0.8; stroke-linecap: square"/>
     </g>
     <g id="line2d_22">
      <g>
       <use xlink:href="#m4802c1b863" x="57.6" y="149.571192" style="fill: #555555; stroke: #555555; stroke-width: 0.8"/>
      </g>
     </g>
     <g id="text_12">
      <!-- 2000 -->
      <g style="fill: #555555" transform="translate(25.15 153.370411) scale(0.1 -0.1)">
       <use xlink:href="#DejaVuSans-32"/>
       <use xlink:href="#DejaVuSans-30" x="63.623047"/>
       <use xlink:href="#DejaVuSans-30" x="127.246094"/>
       <use xlink:href="#DejaVuSans-30" x="190.869141"/>
      </g>
     </g>
    </g>
    <g id="ytick_6">
     <g id="line2d_23">
      <path d="M 57.6 110.06799 
L 414.72 110.06799 
" clip-path="url(#pbbd76c37e8)" style="fill: none; stroke: #ffffff; stroke-width: 0.8; stroke-linecap: square"/>
     </g>
     <g id="line2d_24">
      <g>
       <use xlink:href="#m4802c1b863" x="57.6" y="110.06799" style="fill: #555555; stroke: #555555; stroke-width: 0.8"/>
      </g>
     </g>
     <g id="text_13">
      <!-- 2500 -->
      <g style="fill: #555555" transform="translate(25.15 113.867208) scale(0.1 -0.1)">
       <use xlink:href="#DejaVuSans-32"/>
       <use xlink:href="#DejaVuSans-35" x="63.623047"/>
       <use xlink:href="#DejaVuSans-30" x="127.246094"/>
       <use xlink:href="#DejaVuSans-30" x="190.869141"/>
      </g>
     </g>
    </g>
    <g id="ytick_7">
     <g id="line2d_25">
      <path d="M 57.6 70.564788 
L 414.72 70.564788 
" clip-path="url(#pbbd76c37e8)" style="fill: none; stroke: #ffffff; stroke-width: 0.8; stroke-linecap: square"/>
     </g>
     <g id="line2d_26">
      <g>
       <use xlink:href="#m4802c1b863" x="57.6" y="70.564788" style="fill: #555555; stroke: #555555; stroke-width: 0.8"/>
      </g>
     </g>
     <g id="text_14">
      <!-- 3000 -->
      <g style="fill: #555555" transform="translate(25.15 74.364006) scale(0.1 -0.1)">
       <defs>
        <path id="DejaVuSans-33" d="M 2597 2516 
Q 3050 2419 3304 2112 
Q 3559 1806 3559 1356 
Q 3559 666 3084 287 
Q 2609 -91 1734 -91 
Q 1441 -91 1130 -33 
Q 819 25 488 141 
L 488 750 
Q 750 597 1062 519 
Q 1375 441 1716 441 
Q 2309 441 2620 675 
Q 2931 909 2931 1356 
Q 2931 1769 2642 2001 
Q 2353 2234 1838 2234 
L 1294 2234 
L 1294 2753 
L 1863 2753 
Q 2328 2753 2575 2939 
Q 2822 3125 2822 3475 
Q 2822 3834 2567 4026 
Q 2313 4219 1838 4219 
Q 1578 4219 1281 4162 
Q 984 4106 628 3988 
L 628 4550 
Q 988 4650 1302 4700 
Q 1616 4750 1894 4750 
Q 2613 4750 3031 4423 
Q 3450 4097 3450 3541 
Q 3450 3153 3228 2886 
Q 3006 2619 2597 2516 
z
" transform="scale(0.015625)"/>
       </defs>
       <use xlink:href="#DejaVuSans-33"/>
       <use xlink:href="#DejaVuSans-30" x="63.623047"/>
       <use xlink:href="#DejaVuSans-30" x="127.246094"/>
       <use xlink:href="#DejaVuSans-30" x="190.869141"/>
      </g>
     </g>
    </g>
    <g id="text_15">
     <!-- Median reward -->
     <g style="fill: #555555" transform="translate(18.654375 219.03675) rotate(-90) scale(0.12 -0.12)">
      <defs>
       <path id="DejaVuSans-4d" d="M 628 4666 
L 1569 4666 
L 2759 1491 
L 3956 4666 
L 4897 4666 
L 4897 0 
L 4281 0 
L 4281 4097 
L 3078 897 
L 2444 897 
L 1241 4097 
L 1241 0 
L 628 0 
L 628 4666 
z
" transform="scale(0.015625)"/>
       <path id="DejaVuSans-64" d="M 2906 2969 
L 2906 4863 
L 3481 4863 
L 3481 0 
L 2906 0 
L 2906 525 
Q 2725 213 2448 61 
Q 2172 -91 1784 -91 
Q 1150 -91 751 415 
Q 353 922 353 1747 
Q 353 2572 751 3078 
Q 1150 3584 1784 3584 
Q 2172 3584 2448 3432 
Q 2725 3281 2906 2969 
z
M 947 1747 
Q 947 1113 1208 752 
Q 1469 391 1925 391 
Q 2381 391 2643 752 
Q 2906 1113 2906 1747 
Q 2906 2381 2643 2742 
Q 2381 3103 1925 3103 
Q 1469 3103 1208 2742 
Q 947 2381 947 1747 
z
" transform="scale(0.015625)"/>
       <path id="DejaVuSans-69" d="M 603 3500 
L 1178 3500 
L 1178 0 
L 603 0 
L 603 3500 
z
M 603 4863 
L 1178 4863 
L 1178 4134 
L 603 4134 
L 603 4863 
z
" transform="scale(0.015625)"/>
       <path id="DejaVuSans-6e" d="M 3513 2113 
L 3513 0 
L 2938 0 
L 2938 2094 
Q 2938 2591 2744 2837 
Q 2550 3084 2163 3084 
Q 1697 3084 1428 2787 
Q 1159 2491 1159 1978 
L 1159 0 
L 581 0 
L 581 3500 
L 1159 3500 
L 1159 2956 
Q 1366 3272 1645 3428 
Q 1925 3584 2291 3584 
Q 2894 3584 3203 3211 
Q 3513 2838 3513 2113 
z
" transform="scale(0.015625)"/>
       <path id="DejaVuSans-77" d="M 269 3500 
L 844 3500 
L 1563 769 
L 2278 3500 
L 2956 3500 
L 3675 769 
L 4391 3500 
L 4966 3500 
L 4050 0 
L 3372 0 
L 2619 2869 
L 1863 0 
L 1184 0 
L 269 3500 
z
" transform="scale(0.015625)"/>
      </defs>
      <use xlink:href="#DejaVuSans-4d"/>
      <use xlink:href="#DejaVuSans-65" x="86.279297"/>
      <use xlink:href="#DejaVuSans-64" x="147.802734"/>
      <use xlink:href="#DejaVuSans-69" x="211.279297"/>
      <use xlink:href="#DejaVuSans-61" x="239.0625"/>
      <use xlink:href="#DejaVuSans-6e" x="300.341797"/>
      <use xlink:href="#DejaVuSans-20" x="363.720703"/>
      <use xlink:href="#DejaVuSans-72" x="395.507812"/>
      <use xlink:href="#DejaVuSans-65" x="434.371094"/>
      <use xlink:href="#DejaVuSans-77" x="495.894531"/>
      <use xlink:href="#DejaVuSans-61" x="577.681641"/>
      <use xlink:href="#DejaVuSans-72" x="638.960938"/>
      <use xlink:href="#DejaVuSans-64" x="678.324219"/>
     </g>
    </g>
   </g>
   <g id="line2d_27">
    <path d="M 73.832727 306.635923 
L 73.862247 306.675426 
L 73.891766 306.583252 
L 73.950805 306.430506 
L 74.068883 306.346233 
L 74.511674 306.293562 
L 75.102062 306.328876 
L 77.109383 306.326246 
L 79.500455 306.31826 
L 81.891528 306.308364 
L 88.238203 306.243153 
L 100.400202 305.999049 
L 102.200887 305.960016 
L 108.459003 305.806894 
L 119.056474 305.345588 
L 121.034275 305.163589 
L 121.506585 305.123801 
L 122.480726 304.983257 
L 123.248231 304.887028 
L 124.547085 304.628131 
L 126.082095 304.205551 
L 126.790561 304.094338 
L 127.056236 304.004143 
L 127.882779 303.789364 
L 129.38827 303.137194 
L 129.919619 302.988537 
L 131.39559 302.229018 
L 131.572706 301.94132 
L 131.720304 301.867029 
L 131.89742 301.765427 
L 132.222134 301.679519 
L 132.605886 301.453825 
L 133.284833 301.243765 
L 133.40291 299.754814 
L 133.550507 299.114623 
L 134.170415 299.01986 
L 134.288493 298.736439 
L 134.40657 298.443579 
L 134.583687 298.410739 
L 134.701765 297.927526 
L 134.849362 297.178918 
L 135.115036 297.178815 
L 135.410231 295.613905 
L 135.705425 295.620652 
L 136.118697 293.702526 
L 136.620527 293.664282 
L 137.063318 293.542059 
L 137.240434 293.47928 
L 137.712745 293.089117 
L 137.97842 292.891098 
L 138.244095 292.191975 
L 138.303133 292.086885 
L 138.48025 291.564271 
L 138.893522 290.259992 
L 139.070638 289.635968 
L 139.129677 289.557366 
L 139.424871 288.829308 
L 139.601988 288.409192 
L 140.694206 284.266233 
L 140.871323 284.270017 
L 141.225556 282.471067 
L 141.373153 279.876533 
L 141.550269 279.902222 
L 141.934022 279.9346 
L 141.963541 279.887653 
L 142.258735 277.752388 
L 142.317774 277.610039 
L 142.376813 277.626765 
L 142.642488 277.650499 
L 143.380473 276.281777 
L 143.675667 276.092388 
L 144.088939 275.232089 
L 144.236536 274.318463 
L 144.885963 270.858063 
L 145.004041 270.189764 
L 145.03356 270.198287 
L 145.06308 270.170213 
L 145.240196 268.952774 
L 145.358274 268.832858 
L 145.535391 267.713922 
L 145.682988 267.533009 
L 145.771546 267.556659 
L 145.948662 266.673262 
L 146.125779 265.730567 
L 146.509531 264.29728 
L 146.863764 263.227155 
L 147.011361 262.736142 
L 147.188478 262.483197 
L 147.454153 262.533092 
L 147.955983 260.546317 
L 148.044541 260.529796 
L 148.57589 258.236906 
L 148.753007 256.377644 
L 148.782526 256.378581 
L 148.930123 254.607707 
L 149.60907 252.809088 
L 149.727148 252.145249 
L 149.874745 250.570287 
L 150.228978 250.425293 
L 150.347055 250.439792 
L 150.878405 248.606098 
L 151.14408 247.485125 
L 151.203119 247.468533 
L 151.321196 246.884788 
L 151.468793 245.568267 
L 151.64591 245.259662 
L 151.823026 243.113997 
L 151.941104 243.016218 
L 152.059182 242.654654 
L 152.088701 242.670795 
L 152.177259 242.434367 
L 152.442934 241.189586 
L 152.531492 240.849717 
L 152.64957 240.006164 
L 152.679089 240.023619 
L 152.915245 239.417953 
L 153.269478 239.548187 
L 153.298997 239.527743 
L 153.446594 239.19485 
L 153.65323 239.104841 
L 153.977944 239.226123 
L 154.361696 237.569069 
L 154.627371 235.365481 
L 154.65689 235.387348 
L 154.834007 233.946808 
L 154.981604 233.310769 
L 155.217759 232.370763 
L 155.247279 232.394559 
L 155.424395 232.460482 
L 155.867186 232.57711 
L 156.014784 232.020233 
L 156.132861 230.993283 
L 156.162381 230.997571 
L 156.221419 230.902654 
L 156.369017 230.418753 
L 156.546133 228.234737 
L 156.575652 228.259739 
L 156.782288 227.823227 
L 156.929885 227.813849 
L 157.107002 227.367779 
L 157.284118 226.135912 
L 157.313638 226.109379 
L 157.785949 222.159416 
L 157.874507 222.108974 
L 158.022104 221.216791 
L 158.169701 221.281307 
L 158.494415 220.550474 
L 158.523934 220.570696 
L 158.671531 219.492546 
L 158.966725 218.451357 
L 159.114322 217.814518 
L 160.619813 213.258547 
L 160.649332 213.26985 
L 160.855968 212.340132 
L 160.885487 212.356858 
L 160.915007 212.300269 
L 161.062604 212.064536 
L 161.121643 212.06702 
L 161.416837 211.346933 
L 161.446356 211.360959 
L 161.623473 210.420543 
L 161.712031 210.372165 
L 161.889147 209.205247 
L 161.918667 209.203982 
L 162.125303 208.371233 
L 162.2729 208.319716 
L 162.479536 208.394142 
L 162.715691 207.362225 
L 162.981366 206.379019 
L 163.158482 204.572021 
L 163.424157 203.656722 
L 163.571754 202.840812 
L 163.896468 202.937351 
L 164.132623 202.564789 
L 164.368778 201.351057 
L 164.900128 200.195812 
L 165.047725 199.803213 
L 165.106764 199.854975 
L 165.165803 199.771274 
L 165.549555 199.277125 
L 165.726672 197.732318 
L 165.756191 197.76454 
L 165.874269 197.056447 
L 165.992346 195.602655 
L 166.021866 195.605801 
L 166.110424 195.294626 
L 166.228502 194.746403 
L 166.258021 194.764444 
L 166.553215 194.975986 
L 166.641774 195.037129 
L 166.671293 194.969211 
L 166.966487 194.104694 
L 167.114084 193.694031 
L 167.202642 193.606125 
L 167.379759 192.866851 
L 167.409278 192.867548 
L 167.556875 192.647792 
L 167.85207 192.693487 
L 168.176783 191.5401 
L 168.235822 191.404132 
L 168.412939 190.944442 
L 169.209963 185.777979 
L 169.269002 185.797265 
L 169.505157 185.901758 
L 169.741312 185.813812 
L 169.770832 185.733548 
L 169.918429 184.953273 
L 170.066026 184.922039 
L 170.331701 184.041565 
L 170.390739 184.089215 
L 170.420259 184.11886 
L 170.449778 183.999089 
L 170.685934 183.926701 
L 171.040167 182.788923 
L 171.069686 182.813034 
L 171.423919 181.615229 
L 171.571516 181.542832 
L 171.955269 180.365369 
L 172.220943 178.256322 
L 172.545657 178.398751 
L 172.634215 178.322491 
L 172.722773 178.096559 
L 172.781812 178.145096 
L 172.811332 178.176245 
L 172.929409 177.284606 
L 173.047487 176.875659 
L 173.106526 176.7722 
L 173.283642 175.61897 
L 173.313162 175.615743 
L 173.431239 175.187901 
L 173.637875 175.140907 
L 174.169225 174.380248 
L 174.228264 174.329922 
L 174.40538 174.07085 
L 174.464419 173.944853 
L 174.671055 173.014914 
L 174.789133 173.02159 
L 174.93673 173.104792 
L 175.261443 170.824742 
L 175.527118 169.553117 
L 175.556637 169.583512 
L 175.586157 169.488459 
L 175.645196 169.272 
L 175.763273 168.809251 
L 175.792793 168.818958 
L 175.91087 168.816549 
L 176.087987 168.417491 
L 176.117506 168.453745 
L 176.147026 168.483096 
L 176.206065 168.402524 
L 176.4127 167.845787 
L 176.44222 167.831169 
L 176.589817 167.431041 
L 176.619336 167.45885 
L 176.94405 167.75128 
L 177.563958 166.725112 
L 177.622997 166.753613 
L 177.652516 166.674102 
L 178.006749 166.385433 
L 178.154346 165.666707 
L 178.213385 165.67313 
L 178.360982 164.67549 
L 178.597137 164.015432 
L 178.744734 163.935445 
L 178.833293 163.008365 
L 178.892331 163.038388 
L 178.921851 163.061341 
L 179.217045 162.191729 
L 179.364642 162.060567 
L 179.571278 161.870392 
L 179.600798 161.905582 
L 179.630317 161.941082 
L 179.659836 161.873057 
L 180.250225 160.82382 
L 180.279744 160.860937 
L 180.309264 160.860283 
L 180.368302 160.561223 
L 180.427341 160.62323 
L 180.574938 160.646963 
L 180.604458 160.547339 
L 180.693016 160.596589 
L 180.811094 160.525468 
L 180.958691 159.712066 
L 181.165327 159.514985 
L 181.342443 158.857773 
L 181.51956 158.717509 
L 181.755715 158.470679 
L 181.932831 157.925186 
L 182.198506 157.496791 
L 182.287064 157.524267 
L 182.434662 157.571943 
L 182.877453 155.001786 
L 182.906972 155.011411 
L 182.936492 154.905802 
L 183.054569 154.962007 
L 183.143128 154.957897 
L 183.349763 153.76313 
L 183.438322 153.703286 
L 183.497361 153.592758 
L 183.556399 153.270362 
L 183.615438 153.281498 
L 183.703996 153.254635 
L 183.822074 152.464327 
L 183.851594 152.499896 
L 184.412462 151.787019 
L 184.441982 151.815265 
L 184.707657 149.893463 
L 184.796215 149.957546 
L 185.03237 150.193074 
L 185.06189 150.161444 
L 185.091409 150.136811 
L 185.298045 149.492185 
L 185.357084 149.370278 
L 185.5342 148.56876 
L 185.56372 148.471258 
L 185.622759 148.531615 
L 185.947472 148.733067 
L 186.03603 148.742684 
L 186.213147 148.314268 
L 186.449302 148.30299 
L 186.478822 148.228662 
L 186.53786 148.291532 
L 186.626419 148.269612 
L 187.06921 147.057133 
L 187.275846 145.444916 
L 187.482482 144.878732 
L 187.659598 143.798194 
L 188.190948 142.756905 
L 188.368064 141.49778 
L 188.427103 141.40757 
L 188.633739 139.723805 
L 188.840375 138.795079 
L 188.899414 138.856939 
L 188.928933 138.761049 
L 189.07653 138.601562 
L 189.194608 138.046625 
L 189.224127 138.083277 
L 189.401244 138.017574 
L 189.460283 137.681535 
L 189.519322 137.723133 
L 189.637399 137.759291 
L 189.932593 137.110733 
L 190.198268 136.701744 
L 190.227788 136.721133 
L 190.463943 136.968931 
L 190.522982 136.864628 
L 190.670579 136.686862 
L 190.847695 136.685935 
L 190.965773 136.68425 
L 191.762797 137.16082 
L 191.939914 136.708645 
L 191.998953 136.399123 
L 192.057991 136.432107 
L 192.087511 136.431522 
L 192.353186 135.40652 
L 192.382705 135.428219 
L 192.677899 134.807608 
L 192.766457 134.666565 
L 192.914054 133.309481 
L 193.002613 133.207455 
L 193.091171 133.116862 
L 193.12069 133.151796 
L 193.268287 133.187505 
L 193.386365 132.912191 
L 193.415885 132.921509 
L 193.445404 132.928268 
L 193.62252 132.417128 
L 193.65204 132.428729 
L 193.681559 132.334022 
L 194.006273 131.102339 
L 194.360506 130.643528 
L 194.449064 130.571882 
L 194.714739 130.311182 
L 194.744258 130.342823 
L 194.832817 130.370593 
L 194.891855 130.114025 
L 194.980414 130.188428 
L 195.216569 130.34607 
L 195.364166 130.387408 
L 195.452724 130.47622 
L 195.482244 130.343655 
L 195.570802 130.38317 
L 195.718399 130.355476 
L 195.865996 130.153309 
L 195.925035 130.174881 
L 196.072632 129.792066 
L 196.16119 129.751582 
L 196.456384 129.15337 
L 196.515423 129.186019 
L 196.633501 129.174457 
L 197.19437 128.486254 
L 197.460045 128.357737 
L 197.666681 127.885515 
L 197.755239 127.779517 
L 197.932355 127.465331 
L 198.109472 127.23435 
L 198.138991 127.260023 
L 198.345627 127.352097 
L 198.434185 127.239307 
L 198.463705 127.263267 
L 198.493224 127.286635 
L 198.640821 126.845595 
L 198.69986 126.711134 
L 198.758899 126.594849 
L 198.876977 125.859649 
L 198.906496 125.875721 
L 198.936015 125.907982 
L 198.965535 125.825892 
L 199.054093 125.625492 
L 199.083613 125.664587 
L 199.378807 125.940811 
L 199.408326 125.884552 
L 199.526404 125.59337 
L 199.644481 125.344266 
L 199.851117 125.409239 
L 199.969195 125.282324 
L 200.028234 125.325002 
L 200.175831 125.023361 
L 200.293909 125.0264 
L 200.411986 124.579876 
L 200.441506 124.594947 
L 200.589103 124.445628 
L 200.825258 124.088459 
L 200.972855 124.124839 
L 201.061413 123.867024 
L 201.179491 123.394969 
L 201.23853 123.346776 
L 201.327088 123.144043 
L 201.386127 123.178611 
L 201.504205 123.107736 
L 201.769879 123.203356 
L 202.094593 122.433128 
L 202.24219 121.857158 
L 202.566904 120.848307 
L 202.714501 120.962443 
L 202.862098 121.031972 
L 202.891617 120.974306 
L 203.039214 120.159858 
L 203.068734 120.173178 
L 203.334409 120.005836 
L 203.363928 120.035703 
L 203.422967 119.945715 
L 203.482006 119.802018 
L 203.541044 119.672292 
L 203.600083 119.719816 
L 204.160952 119.62628 
L 204.308549 119.366012 
L 204.426627 119.403797 
L 204.574224 119.387749 
L 204.721821 119.466527 
L 204.898938 119.561816 
L 205.017015 119.411914 
L 205.105574 119.387655 
L 205.135093 119.4239 
L 205.194132 119.492951 
L 205.371248 119.085675 
L 205.636923 119.197776 
L 205.666442 119.147571 
L 205.695962 118.961851 
L 205.78452 119.016724 
L 205.991156 118.669331 
L 206.020675 118.703183 
L 206.050195 118.717233 
L 206.492986 117.160357 
L 206.522506 117.184523 
L 206.611064 116.950275 
L 206.758661 116.30504 
L 206.965297 116.242504 
L 207.230972 116.39906 
L 207.79184 116.672796 
L 207.880399 116.661354 
L 207.909918 116.697919 
L 208.175593 116.652684 
L 208.884059 115.487214 
L 208.913578 115.516514 
L 209.061175 115.532898 
L 209.120214 115.412194 
L 209.82868 114.443484 
L 209.917239 114.542758 
L 210.064836 114.599613 
L 210.271472 113.758783 
L 210.33051 113.771195 
L 210.419069 113.601017 
L 210.448588 113.635737 
L 210.625705 113.80945 
L 210.684743 113.699166 
L 210.83234 113.570329 
L 210.86186 113.601735 
L 210.920899 113.649574 
L 210.950418 113.509802 
L 211.038976 113.591872 
L 211.216093 113.610498 
L 211.334171 112.69611 
L 211.36369 112.72018 
L 211.540806 112.344461 
L 211.570326 112.354435 
L 211.895039 112.375862 
L 212.013117 112.349253 
L 212.072156 112.313583 
L 212.160714 112.232448 
L 212.190234 112.247862 
L 212.278792 112.332885 
L 212.426389 112.018957 
L 212.544467 112.027617 
L 212.721583 111.454362 
L 212.928219 110.915033 
L 213.046297 110.929707 
L 213.075816 110.805623 
L 213.164374 110.881885 
L 213.311971 110.85476 
L 213.90236 109.562605 
L 214.138515 109.689693 
L 214.37467 109.279369 
L 214.463229 109.279517 
L 214.669865 109.022744 
L 214.994578 108.818192 
L 215.142175 108.721779 
L 215.614486 107.901283 
L 215.644005 107.93189 
L 215.90968 106.933681 
L 215.9392 106.966098 
L 216.145835 107.137019 
L 216.293433 107.138337 
L 216.44103 107.063833 
L 216.529588 107.001169 
L 216.559107 107.031308 
L 216.824782 106.824846 
L 216.883821 106.841751 
L 216.94286 106.743301 
L 217.001899 106.796072 
L 217.503729 106.32739 
L 217.680845 105.617274 
L 218.182675 105.752214 
L 218.212195 105.733087 
L 218.330272 105.304723 
L 218.359792 105.339335 
L 218.477869 105.333683 
L 218.714025 105.22111 
L 218.832102 105.099785 
L 218.979699 105.068578 
L 219.038738 104.81962 
L 219.097777 104.860999 
L 219.392971 104.69738 
L 219.835763 105.044783 
L 219.98336 104.667921 
L 220.012879 104.649503 
L 220.160476 104.363386 
L 220.514709 103.94485 
L 220.662306 103.998075 
L 220.721345 103.938636 
L 220.780384 103.99251 
L 221.193656 103.759741 
L 221.311733 103.569084 
L 221.665966 103.722604 
L 221.843083 103.312682 
L 222.315394 102.810393 
L 222.522029 102.455869 
L 222.699146 102.444999 
L 222.935301 102.343159 
L 223.141937 102.260099 
L 223.289534 102.246059 
L 223.49617 102.358454 
L 223.614248 102.219034 
L 223.820884 102.341577 
L 223.850403 102.282105 
L 224.057039 101.57269 
L 224.116078 101.622171 
L 224.322714 101.724579 
L 224.647427 101.617196 
L 224.706466 101.354489 
L 224.795025 101.397149 
L 224.942622 101.320299 
L 225.178777 101.428528 
L 225.444452 100.834576 
L 225.975801 100.810064 
L 226.152918 100.324147 
L 226.418592 99.952251 
L 226.477631 99.804703 
L 226.53667 99.851121 
L 226.890903 99.779561 
L 227.097539 99.230055 
L 227.333694 99.151723 
L 227.510811 99.14092 
L 227.56985 99.071509 
L 227.628889 99.122047 
L 227.776486 99.126633 
L 227.924083 99.072949 
L 228.07168 99.038493 
L 228.101199 99.067735 
L 228.130719 98.950936 
L 228.248796 98.719502 
L 228.307835 98.749213 
L 228.484952 98.604221 
L 228.514471 98.636392 
L 228.662068 98.662091 
L 228.868704 98.53868 
L 228.986782 98.600639 
L 229.193418 97.567012 
L 229.429573 97.551769 
L 229.518131 97.030046 
L 229.665728 97.124362 
L 230.049481 97.226919 
L 230.167558 96.98231 
L 230.197078 96.990357 
L 230.285636 97.01071 
L 230.433233 96.705142 
L 230.462753 96.726328 
L 230.58083 96.29874 
L 230.61035 96.321976 
L 230.728427 96.254992 
L 230.816986 95.784437 
L 230.876024 95.820586 
L 231.11218 95.704169 
L 231.348335 95.798015 
L 231.554971 95.658798 
L 231.761607 95.729796 
L 231.879685 95.682229 
L 232.233918 95.600632 
L 232.263437 95.523732 
L 232.322476 95.584159 
L 232.470073 95.621739 
L 232.558631 95.470418 
L 232.61767 95.508123 
L 232.824306 95.522437 
L 232.942384 95.403721 
L 233.444214 94.86288 
L 233.680369 94.863196 
L 233.946044 95.128104 
L 233.975563 95.064854 
L 234.15268 94.12055 
L 234.241238 93.703706 
L 234.270757 93.728634 
L 234.65451 94.03662 
L 234.802107 94.092443 
L 234.861146 94.139192 
L 234.890665 94.085285 
L 234.979223 93.946559 
L 235.008743 93.957121 
L 235.067782 93.954429 
L 235.333456 92.553012 
L 235.451534 92.302961 
L 235.599131 92.032994 
L 235.65817 92.02012 
L 235.805767 91.601783 
L 235.835286 91.607364 
L 235.923845 91.681019 
L 236.100961 91.747701 
L 236.219039 91.658406 
L 236.337117 91.629766 
L 236.396155 91.690409 
L 236.425675 91.564988 
L 236.573272 91.338185 
L 236.632311 91.338072 
L 236.750388 90.854577 
L 236.779908 90.866586 
L 236.897985 90.867532 
L 237.222699 91.108451 
L 237.370296 91.192118 
L 237.901646 91.661473 
L 238.344437 91.343897 
L 238.551073 91.479826 
L 238.580592 91.432556 
L 238.69867 91.38586 
L 239.170981 91.237091 
L 239.436655 91.485503 
L 239.466175 91.421479 
L 239.554733 91.415119 
L 239.584252 91.452654 
L 239.613772 91.462875 
L 239.70233 91.284344 
L 239.731849 91.31768 
L 239.820408 91.280635 
L 240.056563 90.868914 
L 240.145121 90.755221 
L 240.20416 90.814772 
L 240.381277 90.815671 
L 240.70599 90.079677 
L 240.73551 90.108401 
L 240.765029 90.105798 
L 241.030704 89.386888 
L 241.178301 89.243769 
L 241.20782 89.271208 
L 241.266859 89.297898 
L 241.414456 89.031261 
L 241.621092 89.020156 
L 241.827728 88.91154 
L 242.004845 88.820924 
L 242.034364 88.618285 
L 242.122922 88.660205 
L 242.270519 88.279181 
L 242.418116 87.968092 
L 242.683791 87.898276 
L 242.978985 87.973534 
L 243.126582 87.909696 
L 243.156102 87.930704 
L 243.274179 87.694012 
L 243.303699 87.718809 
L 243.982645 87.776864 
L 244.041684 87.626541 
L 244.071204 87.511374 
L 244.159762 87.586677 
L 244.27784 87.62686 
L 244.425437 87.7055 
L 244.573034 87.638283 
L 244.632073 87.543273 
L 244.77967 87.187997 
L 244.809189 87.205312 
L 245.015825 87.2846 
L 245.222461 87.371968 
L 245.399577 87.142922 
L 245.635733 86.664246 
L 245.694772 86.687589 
L 246.019485 86.92212 
L 246.255641 87.008912 
L 246.28516 87.005813 
L 246.462276 86.481235 
L 246.668912 86.423421 
L 246.757471 86.427936 
L 246.78699 86.457883 
L 246.816509 86.474798 
L 246.846029 86.387768 
L 247.052665 86.206965 
L 247.200262 86.184599 
L 247.347859 86.243359 
L 247.406898 86.236093 
L 247.436417 86.188982 
L 247.554495 86.041519 
L 247.79065 86.13791 
L 247.849689 85.943901 
L 247.908728 85.975872 
L 248.262961 86.161481 
L 248.499116 85.866358 
L 248.617194 85.578099 
L 248.853349 85.673237 
L 248.882869 85.612504 
L 248.941907 85.666716 
L 249.030466 85.646905 
L 249.178063 85.491439 
L 249.29614 85.487018 
L 249.473257 85.483642 
L 249.650373 85.534293 
L 249.738932 85.451172 
L 249.768451 85.484831 
L 250.093165 85.526566 
L 250.270281 85.045242 
L 250.565475 85.107574 
L 250.772111 84.925753 
L 250.978747 84.978652 
L 251.126344 84.887622 
L 251.155864 84.902596 
L 251.185383 84.838493 
L 251.480577 84.652329 
L 251.923369 84.758758 
L 252.041446 84.657748 
L 252.070966 84.676347 
L 252.927029 84.28788 
L 253.104145 84.382454 
L 253.133665 84.349318 
L 253.222223 84.343931 
L 253.428859 84.146878 
L 253.724053 84.141186 
L 253.901169 84.028432 
L 254.019247 84.016492 
L 254.196364 83.996639 
L 254.37348 83.758082 
L 254.963868 83.437141 
L 255.111466 83.330213 
L 255.200024 83.293471 
L 255.37714 82.949873 
L 255.495218 82.997649 
L 255.524737 82.925645 
L 255.642815 82.86738 
L 255.731373 82.666971 
L 255.760893 82.691899 
L 255.997048 82.782439 
L 256.026567 82.725067 
L 256.115126 82.782726 
L 256.735033 82.287964 
L 257.089266 82.480007 
L 257.177825 82.366274 
L 257.207344 82.376938 
L 257.295902 82.307229 
L 257.473019 82.391038 
L 258.004368 82.591196 
L 258.181485 82.327584 
L 258.358601 82.292361 
L 258.653796 82.377292 
L 258.860431 82.372143 
L 259.037548 82.240851 
L 259.185145 82.198896 
L 259.362262 82.075503 
L 259.480339 81.917769 
L 259.805053 82.191581 
L 259.834572 82.075264 
L 260.041208 82.091508 
L 260.188805 81.925793 
L 260.306883 81.788549 
L 260.336402 81.814242 
L 260.867752 82.198939 
L 261.340062 81.887464 
L 261.517179 81.950109 
L 261.930451 81.945181 
L 262.078048 81.826458 
L 262.166606 81.829162 
L 262.4618 81.466176 
L 262.49132 81.49961 
L 262.520839 81.528066 
L 262.609397 81.344666 
L 262.668436 81.362758 
L 262.845553 81.379819 
L 262.99315 81.015292 
L 263.140747 80.905955 
L 263.258825 80.777332 
L 263.554019 80.980322 
L 263.701616 80.717473 
L 263.849213 80.655739 
L 264.144407 80.100645 
L 264.321524 79.886246 
L 264.823354 80.229367 
L 265.059509 79.507913 
L 265.089028 79.518018 
L 265.384223 79.705512 
L 265.53182 79.336481 
L 265.561339 79.360575 
L 265.590859 79.375832 
L 265.649897 79.108396 
L 265.738456 79.156521 
L 265.915572 78.958077 
L 266.03365 78.860181 
L 266.063169 78.892824 
L 266.50596 79.235474 
L 266.683077 79.068641 
L 266.889713 79.15344 
L 267.096349 79.272239 
L 267.214426 79.227517 
L 267.362024 79.190089 
L 267.509621 78.827651 
L 267.53914 78.844534 
L 267.568659 78.755889 
L 267.893373 78.45507 
L 268.129528 78.459799 
L 268.395203 78.226923 
L 268.867514 78.340068 
L 268.985591 78.366204 
L 269.221747 78.491851 
L 269.398863 78.405345 
L 269.989252 78.651092 
L 270.04829 78.50076 
L 270.136849 78.57033 
L 270.195888 78.504201 
L 270.254926 78.548483 
L 270.609159 78.821769 
L 270.638679 78.755387 
L 270.786276 78.687873 
L 270.933873 78.70996 
L 271.140509 78.717717 
L 271.908014 78.594668 
L 271.967053 78.548707 
L 272.173688 78.344438 
L 272.203208 78.331337 
L 272.232727 78.143714 
L 272.321286 78.172546 
L 272.380324 78.076116 
L 272.468883 78.012039 
L 272.498402 78.033622 
L 272.823116 77.940426 
L 273.059271 77.713896 
L 273.265907 77.81198 
L 273.354465 77.689552 
L 273.413504 77.718618 
L 273.531582 77.706822 
L 273.797256 77.550995 
L 274.328606 77.722642 
L 274.505722 77.042616 
L 274.564761 77.091047 
L 274.978033 77.351351 
L 275.007552 77.301927 
L 275.243708 77.338661 
L 275.332266 77.241135 
L 275.361785 77.264364 
L 276.011213 77.058964 
L 276.099771 77.035289 
L 276.12929 77.068557 
L 276.335926 77.170246 
L 276.719679 77.220554 
L 276.926315 77.085084 
L 277.103431 76.808531 
L 277.339586 77.037503 
L 277.575742 77.137679 
L 277.959494 76.379104 
L 277.989014 76.403072 
L 278.225169 76.368262 
L 278.254688 76.274523 
L 278.343247 76.306976 
L 278.638441 76.323294 
L 278.815557 76.251679 
L 279.081232 76.265882 
L 279.258348 76.188579 
L 279.287868 76.20769 
L 279.317387 76.134387 
L 279.435465 75.984688 
L 279.464984 75.993255 
L 279.524023 76.034051 
L 279.553543 75.941338 
L 279.789698 75.837667 
L 279.937295 75.614522 
L 280.232489 75.593653 
L 280.409606 75.210294 
L 280.439125 75.234676 
L 280.468645 75.119308 
L 280.498164 75.150499 
L 280.645761 75.153766 
L 281.177111 75.399923 
L 281.20663 75.26387 
L 281.295188 75.290256 
L 281.413266 75.235029 
L 281.590382 74.999899 
L 281.944615 75.127427 
L 281.974135 74.847939 
L 282.062693 74.88781 
L 282.180771 74.832712 
L 282.298848 74.663434 
L 282.594043 74.590752 
L 282.830198 74.7671 
L 283.066353 74.239026 
L 283.095873 74.254743 
L 283.184431 73.935709 
L 283.272989 73.89006 
L 283.302509 73.915908 
L 283.804339 73.880724 
L 284.040494 73.531233 
L 284.394727 73.721522 
L 285.103193 74.010959 
L 285.132712 73.945851 
L 285.309829 73.783243 
L 285.545984 73.529494 
L 285.575504 73.427421 
L 285.664062 73.47553 
L 285.78214 73.508621 
L 285.841178 73.48588 
L 285.870698 73.220443 
L 285.959256 73.24342 
L 286.047814 73.183614 
L 286.224931 72.985012 
L 286.608683 72.988999 
L 286.815319 73.005972 
L 286.962916 72.929323 
L 287.464746 72.716593 
L 287.553305 72.271025 
L 287.612343 72.321407 
L 287.818979 72.357296 
L 287.937057 72.272051 
L 288.084654 71.901203 
L 288.143693 71.955501 
L 288.556965 72.213106 
L 288.763601 72.041075 
L 288.881678 71.992943 
L 288.999756 72.016891 
L 289.472067 72.186636 
L 289.678703 72.217235 
L 289.737741 72.025882 
L 289.8263 72.091615 
L 290.091974 71.796649 
L 290.32813 71.806766 
L 291.036596 71.055263 
L 291.243232 71.147253 
L 291.538426 70.82716 
L 291.715542 70.844425 
L 292.187853 71.089244 
L 292.483047 70.983677 
L 293.043916 71.284547 
L 293.161994 71.096654 
L 293.280071 71.111489 
L 293.516227 71.220797 
L 293.545746 71.088741 
L 293.634304 71.139305 
L 293.811421 71.137518 
L 293.959018 71.131201 
L 294.106615 71.086317 
L 294.313251 71.074469 
L 294.460848 70.9899 
L 294.667484 70.95227 
L 294.756042 70.987601 
L 294.903639 70.79879 
L 295.789222 71.059397 
L 295.848261 70.951427 
L 295.9073 70.983477 
L 296.025377 71.006512 
L 296.232013 71.061422 
L 296.763363 70.774966 
L 296.851921 70.446466 
L 297.029037 69.689354 
L 297.38327 69.30589 
L 297.648945 69.401998 
L 298.062217 69.687387 
L 298.209814 69.578465 
L 298.682125 69.827647 
L 298.888761 69.556013 
L 298.91828 69.573468 
L 299.479149 69.392331 
L 299.597227 69.411412 
L 299.892421 69.55259 
L 299.95146 69.444466 
L 300.010498 69.48303 
L 300.187615 69.478004 
L 300.807523 69.187549 
L 300.95512 68.865652 
L 301.014159 68.862398 
L 301.132236 68.606196 
L 301.486469 68.624434 
L 301.781663 68.834248 
L 301.988299 68.59991 
L 303.49379 68.245263 
L 303.611867 68.070702 
L 303.641387 68.090637 
L 303.788984 68.008381 
L 304.96976 67.93527 
L 305.146877 67.959744 
L 305.264955 67.958523 
L 305.442071 67.8962 
L 305.648707 67.88199 
L 306.150537 68.013456 
L 306.268615 67.869089 
L 306.298134 67.881509 
L 307.03612 67.844321 
L 307.065639 67.857374 
L 307.183717 67.723605 
L 307.390353 67.69942 
L 307.449391 67.616257 
L 307.656027 67.16819 
L 307.833144 67.270256 
L 308.128338 67.435525 
L 308.364493 67.080025 
L 308.895843 67.012654 
L 309.191037 67.235194 
L 309.220556 67.133918 
L 309.456712 67.13034 
L 309.692867 66.854611 
L 309.722387 66.857487 
L 309.869984 66.463439 
L 310.194697 66.571097 
L 310.401333 66.176113 
L 310.489891 66.069089 
L 310.667008 65.985537 
L 311.345954 66.248831 
L 311.375474 66.140989 
L 311.464032 66.183568 
L 311.58211 66.220936 
L 311.877304 66.188773 
L 312.024901 66.09652 
L 312.113459 66.007812 
L 312.172498 66.058155 
L 312.497212 66.059703 
L 313.117119 65.790294 
L 313.205678 65.828173 
L 313.412314 65.378329 
L 313.441833 65.401654 
L 313.559911 65.165709 
L 313.707508 64.871738 
L 313.796066 64.920339 
L 313.825585 64.847827 
L 314.002702 64.681359 
L 314.386454 64.880175 
L 314.652129 64.909618 
L 314.976843 64.86008 
L 315.272037 64.542848 
L 315.449153 64.26713 
L 315.478673 64.279643 
L 315.62627 64.244025 
L 315.714828 64.302978 
L 315.803386 64.169066 
L 315.832906 64.179232 
L 316.570891 64.271684 
L 316.688969 63.977768 
L 316.718488 63.982265 
L 316.836566 63.879107 
L 316.925124 63.807112 
L 316.954644 63.827067 
L 316.984163 63.832681 
L 317.16128 63.596603 
L 317.485993 63.784593 
L 317.751668 63.499718 
L 317.928784 63.469487 
L 318.105901 63.267893 
L 318.371576 63.334162 
L 318.578212 63.313673 
L 318.843886 63.481803 
L 318.991483 63.14551 
L 319.375236 63.246538 
L 319.522833 63.174566 
L 319.67043 62.430989 
L 319.699949 62.441895 
L 319.729469 62.432107 
L 319.906585 62.004405 
L 320.083702 62.125639 
L 320.260818 62.223049 
L 320.408415 62.10122 
L 320.939765 61.995018 
L 321.057843 61.959126 
L 321.353037 61.9189 
L 321.736789 61.609023 
L 322.031983 61.763743 
L 322.297658 61.477934 
L 322.533813 61.378076 
L 322.740449 61.481525 
L 322.888046 61.549743 
L 322.917566 61.505312 
L 323.094682 61.323854 
L 323.301318 61.086982 
L 323.360357 61.115532 
L 323.419396 61.053626 
L 323.803148 61.280364 
L 324.068823 61.467645 
L 324.098343 61.412233 
L 324.21642 61.418616 
L 324.275459 61.449497 
L 324.304978 61.239732 
L 324.393537 61.285923 
L 324.541134 61.284019 
L 324.71825 61.213794 
L 324.954406 61.283476 
L 325.131522 61.283957 
L 325.279119 61.208497 
L 325.485755 61.104155 
L 325.574313 60.98543 
L 325.633352 61.019219 
L 326.105663 61.081422 
L 326.25326 60.914126 
L 326.459896 60.74367 
L 326.489415 60.768317 
L 326.607493 60.741443 
L 326.784609 60.720156 
L 327.168362 60.675686 
L 327.315959 60.594949 
L 327.463556 60.525044 
L 327.581634 60.458245 
L 328.231061 60.579172 
L 328.437697 60.360917 
L 328.585294 60.35837 
L 328.673852 60.276258 
L 328.703372 60.295922 
L 328.79193 60.220793 
L 328.969046 60.118741 
L 329.175682 60.194126 
L 329.323279 59.776005 
L 329.500396 59.686211 
L 329.884148 59.863896 
L 330.149823 60.048402 
L 330.179342 59.995486 
L 331.212522 60.099665 
L 331.478197 60.170608 
L 331.625794 59.942994 
L 331.655313 59.968532 
L 331.920988 59.957853 
L 332.363779 59.54504 
L 332.511376 59.634661 
L 332.540896 59.549663 
L 332.570415 59.447985 
L 332.658973 59.475691 
L 332.777051 59.441068 
L 332.865609 59.256006 
L 332.924648 59.299229 
L 333.013206 59.2633 
L 333.160803 59.234383 
L 333.692153 59.494486 
L 334.607255 59.467379 
L 334.784371 59.443651 
L 334.931968 59.202629 
L 335.168124 59.196378 
L 335.433799 59.138722 
L 335.522357 59.081894 
L 335.551876 59.102729 
L 335.817551 59.245251 
L 335.87659 59.179812 
L 335.935629 59.216692 
L 336.083226 59.27411 
L 336.260342 59.156835 
L 336.496498 59.217616 
L 336.555536 59.251898 
L 336.585056 59.160903 
L 336.732653 59.045287 
L 336.88025 58.945421 
L 337.057366 58.754039 
L 337.175444 58.667346 
L 337.293522 58.59561 
L 337.323041 58.618341 
L 338.061027 58.625872 
L 338.356221 58.485721 
L 338.533337 58.541393 
L 338.946609 58.298001 
L 339.035167 58.267689 
L 339.182764 58.201841 
L 339.300842 58.190517 
L 341.691915 58.379737 
L 341.869031 58.382089 
L 342.046148 58.388038 
L 342.164226 58.398497 
L 342.370861 58.342728 
L 342.547978 58.15377 
L 342.577497 57.934315 
L 342.666056 57.97469 
L 342.93173 58.106205 
L 342.990769 58.038473 
L 343.049808 58.079844 
L 344.230585 57.728606 
L 344.289624 57.604944 
L 344.348662 57.641926 
L 344.791454 57.653661 
L 344.880012 57.527406 
L 344.909531 57.549463 
L 345.145687 57.603345 
L 345.234245 57.523808 
L 345.263764 57.549307 
L 345.49992 57.611325 
L 345.588478 57.663798 
L 345.706556 57.402798 
L 345.736075 57.416345 
L 346.237905 57.571457 
L 346.385502 57.399304 
L 346.533099 57.374994 
L 346.798774 57.414997 
L 347.034929 57.495194 
L 348.156667 57.108239 
L 348.5109 57.141764 
L 348.658497 56.833694 
L 348.747055 56.889546 
L 348.835614 56.661034 
L 348.894653 56.701296 
L 349.248886 56.873133 
L 349.337444 56.837886 
L 349.366963 56.858154 
L 350.104949 56.895363 
L 350.400143 57.003849 
L 350.54774 57.065235 
L 350.872454 57.204507 
L 351.492361 57.154931 
L 351.817075 57.221933 
L 352.55506 57.117869 
L 352.732177 57.136617 
L 353.322565 56.838791 
L 353.647279 56.977695 
L 354.031031 56.713017 
L 354.296706 56.698748 
L 354.503342 56.60789 
L 355.152769 56.749443 
L 355.566041 56.878221 
L 355.802196 56.844817 
L 355.949793 56.63502 
L 356.008832 56.664842 
L 356.244987 56.641172 
L 356.59922 56.753685 
L 356.776337 56.73565 
L 356.894415 56.593168 
L 356.923934 56.610252 
L 357.278167 56.498464 
L 357.514322 56.291501 
L 357.839036 56.221545 
L 357.957114 56.057148 
L 357.986633 56.079607 
L 358.075191 56.113638 
L 358.222788 55.88812 
L 358.340866 55.922849 
L 358.458944 55.864017 
L 358.606541 55.847323 
L 358.783657 55.80492 
L 358.901735 55.798648 
L 359.374046 55.952972 
L 359.492123 55.873972 
L 359.66924 55.713232 
L 360.554822 55.962291 
L 360.790978 55.713079 
L 360.997613 55.711673 
L 361.263288 55.781909 
L 361.410885 55.847759 
L 361.647041 55.808877 
L 361.912715 55.147076 
L 362.20791 55.29065 
L 362.473584 55.422478 
L 362.650701 55.32155 
L 363.152531 55.436166 
L 363.300128 55.41934 
L 363.477244 55.457858 
L 363.949555 55.648661 
L 364.421866 55.593487 
L 364.598982 55.585419 
L 365.159851 55.63032 
L 365.248409 55.534261 
L 365.484565 55.319486 
L 365.897837 55.508419 
L 366.133992 55.549063 
L 366.340628 55.500682 
L 366.547264 55.152205 
L 366.694861 55.172458 
L 366.990055 55.257742 
L 367.137652 55.073927 
L 367.22621 55.030269 
L 367.314769 54.952127 
L 367.344288 54.970295 
L 367.462366 54.971038 
L 367.609963 54.971068 
L 367.905157 54.83245 
L 368.436506 54.888139 
L 368.554584 54.669712 
L 368.584104 54.676763 
L 369.056414 54.76451 
L 369.528725 55.00342 
L 369.676322 55.002875 
L 370.178152 55.266331 
L 370.29623 55.23012 
L 370.502866 55.271118 
L 371.093254 55.363292 
L 371.978836 55.64007 
L 372.126434 55.63744 
L 372.480667 55.698434 
L 372.628264 55.457371 
L 372.775861 55.439547 
L 372.923458 55.280795 
L 373.248171 54.88676 
L 373.277691 54.910344 
L 373.425288 54.971547 
L 373.83856 55.191116 
L 374.458467 55.004087 
L 375.019336 55.290861 
L 375.225972 55.229305 
L 375.373569 55.246694 
L 375.550686 55.243404 
L 375.757322 55.114328 
L 375.875399 54.994388 
L 376.082035 55.018588 
L 376.436268 55.075024 
L 376.583865 55.081189 
L 376.967618 55.172794 
L 377.764642 54.998032 
L 378.030317 54.982112 
L 378.38455 54.992831 
L 378.502628 54.983978 
L 378.679744 54.992792 
L 378.797822 54.984116 
L 379.506288 55.011466 
L 379.624365 54.909417 
L 379.712924 54.867481 
L 379.860521 54.787701 
L 380.008118 54.719811 
L 380.155715 54.605448 
L 380.185234 54.628087 
L 380.480429 54.496624 
L 380.92322 54.690629 
L 381.336492 54.720576 
L 381.749763 54.863272 
L 381.985919 54.909427 
L 382.103996 54.895633 
L 382.281113 54.908395 
L 382.42871 54.809739 
L 382.605827 54.80352 
L 382.723904 54.828433 
L 383.107657 55.01115 
L 383.314293 54.819116 
L 383.491409 54.632568 
L 383.579967 54.677024 
L 383.609487 54.581126 
L 383.904681 54.623123 
L 384.288433 54.587647 
L 384.672186 54.765262 
L 384.908341 54.593754 
L 385.203535 54.68101 
L 385.616807 54.493929 
L 385.734885 54.413298 
L 385.97104 54.30583 
L 386.207195 54.373163 
L 386.561428 54.359042 
L 386.738545 54.184005 
L 386.945181 54.12266 
L 387.210856 54.233218 
L 387.240375 54.156695 
L 388.982021 54.220133 
L 389.218176 54.277157 
L 390.074239 54.40508 
L 390.221836 54.267261 
L 390.251355 54.287169 
L 390.398953 54.26672 
L 390.753186 54.39481 
L 391.136938 54.545471 
L 391.845404 54.709213 
L 392.642428 54.847165 
L 392.790025 54.765671 
L 392.967142 54.657792 
L 393.262336 54.67636 
L 393.528011 54.718872 
L 393.616569 54.660049 
L 393.764166 54.530723 
L 394.177438 54.692341 
L 394.443113 54.337045 
L 394.472632 54.353412 
L 394.944943 54.396827 
L 395.210617 54.398581 
L 395.830525 54.525495 
L 395.978122 54.549949 
L 396.59803 54.566529 
L 396.863705 54.51794 
L 396.922744 54.52682 
L 396.981782 54.404341 
L 397.040821 54.429631 
L 397.336015 54.579053 
L 397.483613 54.454715 
L 397.572171 54.395084 
L 397.719768 54.345687 
L 397.926404 54.228947 
L 398.044481 54.159695 
L 398.310156 54.243946 
L 398.487273 54.193898 
L 398.487273 54.193898 
" clip-path="url(#pbbd76c37e8)" style="fill: none; stroke: #d62728; stroke-width: 1.5; stroke-linecap: square"/>
   </g>
   <g id="patch_3">
    <path d="M 57.6 307.584 
L 57.6 41.472 
" style="fill: none; stroke: #ffffff; stroke-linejoin: miter; stroke-linecap: square"/>
   </g>
   <g id="patch_4">
    <path d="M 414.72 307.584 
L 414.72 41.472 
" style="fill: none; stroke: #ffffff; stroke-linejoin: miter; stroke-linecap: square"/>
   </g>
   <g id="patch_5">
    <path d="M 57.6 307.584 
L 414.72 307.584 
" style="fill: none; stroke: #ffffff; stroke-linejoin: miter; stroke-linecap: square"/>
   </g>
   <g id="patch_6">
    <path d="M 57.6 41.472 
L 414.72 41.472 
" style="fill: none; stroke: #ffffff; stroke-linejoin: miter; stroke-linecap: square"/>
   </g>
   <g id="text_16">
    <!-- 3207.2096554232203 -->
    <g transform="translate(398.487273 54.193898) scale(0.1 -0.1)">
     <defs>
      <path id="DejaVuSans-37" d="M 525 4666 
L 3525 4666 
L 3525 4397 
L 1831 0 
L 1172 0 
L 2766 4134 
L 525 4134 
L 525 4666 
z
" transform="scale(0.015625)"/>
      <path id="DejaVuSans-2e" d="M 684 794 
L 1344 794 
L 1344 0 
L 684 0 
L 684 794 
z
" transform="scale(0.015625)"/>
      <path id="DejaVuSans-39" d="M 703 97 
L 703 672 
Q 941 559 1184 500 
Q 1428 441 1663 441 
Q 2288 441 2617 861 
Q 2947 1281 2994 2138 
Q 2813 1869 2534 1725 
Q 2256 1581 1919 1581 
Q 1219 1581 811 2004 
Q 403 2428 403 3163 
Q 403 3881 828 4315 
Q 1253 4750 1959 4750 
Q 2769 4750 3195 4129 
Q 3622 3509 3622 2328 
Q 3622 1225 3098 567 
Q 2575 -91 1691 -91 
Q 1453 -91 1209 -44 
Q 966 3 703 97 
z
M 1959 2075 
Q 2384 2075 2632 2365 
Q 2881 2656 2881 3163 
Q 2881 3666 2632 3958 
Q 2384 4250 1959 4250 
Q 1534 4250 1286 3958 
Q 1038 3666 1038 3163 
Q 1038 2656 1286 2365 
Q 1534 2075 1959 2075 
z
" transform="scale(0.015625)"/>
     </defs>
     <use xlink:href="#DejaVuSans-33"/>
     <use xlink:href="#DejaVuSans-32" x="63.623047"/>
     <use xlink:href="#DejaVuSans-30" x="127.246094"/>
     <use xlink:href="#DejaVuSans-37" x="190.869141"/>
     <use xlink:href="#DejaVuSans-2e" x="254.492188"/>
     <use xlink:href="#DejaVuSans-32" x="286.279297"/>
     <use xlink:href="#DejaVuSans-30" x="349.902344"/>
     <use xlink:href="#DejaVuSans-39" x="413.525391"/>
     <use xlink:href="#DejaVuSans-36" x="477.148438"/>
     <use xlink:href="#DejaVuSans-35" x="540.771484"/>
     <use xlink:href="#DejaVuSans-35" x="604.394531"/>
     <use xlink:href="#DejaVuSans-34" x="668.017578"/>
     <use xlink:href="#DejaVuSans-32" x="731.640625"/>
     <use xlink:href="#DejaVuSans-33" x="795.263672"/>
     <use xlink:href="#DejaVuSans-32" x="858.886719"/>
     <use xlink:href="#DejaVuSans-32" x="922.509766"/>
     <use xlink:href="#DejaVuSans-30" x="986.132812"/>
     <use xlink:href="#DejaVuSans-33" x="1049.755859"/>
    </g>
   </g>
   <g id="text_17">
    <!-- Epoch: 11000 -->
    <g transform="translate(186.4935 35.472) scale(0.144 -0.144)">
     <defs>
      <path id="DejaVuSans-45" d="M 628 4666 
L 3578 4666 
L 3578 4134 
L 1259 4134 
L 1259 2753 
L 3481 2753 
L 3481 2222 
L 1259 2222 
L 1259 531 
L 3634 531 
L 3634 0 
L 628 0 
L 628 4666 
z
" transform="scale(0.015625)"/>
      <path id="DejaVuSans-70" d="M 1159 525 
L 1159 -1331 
L 581 -1331 
L 581 3500 
L 1159 3500 
L 1159 2969 
Q 1341 3281 1617 3432 
Q 1894 3584 2278 3584 
Q 2916 3584 3314 3078 
Q 3713 2572 3713 1747 
Q 3713 922 3314 415 
Q 2916 -91 2278 -91 
Q 1894 -91 1617 61 
Q 1341 213 1159 525 
z
M 3116 1747 
Q 3116 2381 2855 2742 
Q 2594 3103 2138 3103 
Q 1681 3103 1420 2742 
Q 1159 2381 1159 1747 
Q 1159 1113 1420 752 
Q 1681 391 2138 391 
Q 2594 391 2855 752 
Q 3116 1113 3116 1747 
z
" transform="scale(0.015625)"/>
      <path id="DejaVuSans-63" d="M 3122 3366 
L 3122 2828 
Q 2878 2963 2633 3030 
Q 2388 3097 2138 3097 
Q 1578 3097 1268 2742 
Q 959 2388 959 1747 
Q 959 1106 1268 751 
Q 1578 397 2138 397 
Q 2388 397 2633 464 
Q 2878 531 3122 666 
L 3122 134 
Q 2881 22 2623 -34 
Q 2366 -91 2075 -91 
Q 1284 -91 818 406 
Q 353 903 353 1747 
Q 353 2603 823 3093 
Q 1294 3584 2113 3584 
Q 2378 3584 2631 3529 
Q 2884 3475 3122 3366 
z
" transform="scale(0.015625)"/>
      <path id="DejaVuSans-68" d="M 3513 2113 
L 3513 0 
L 2938 0 
L 2938 2094 
Q 2938 2591 2744 2837 
Q 2550 3084 2163 3084 
Q 1697 3084 1428 2787 
Q 1159 2491 1159 1978 
L 1159 0 
L 581 0 
L 581 4863 
L 1159 4863 
L 1159 2956 
Q 1366 3272 1645 3428 
Q 1925 3584 2291 3584 
Q 2894 3584 3203 3211 
Q 3513 2838 3513 2113 
z
" transform="scale(0.015625)"/>
      <path id="DejaVuSans-3a" d="M 750 794 
L 1409 794 
L 1409 0 
L 750 0 
L 750 794 
z
M 750 3309 
L 1409 3309 
L 1409 2516 
L 750 2516 
L 750 3309 
z
" transform="scale(0.015625)"/>
     </defs>
     <use xlink:href="#DejaVuSans-45"/>
     <use xlink:href="#DejaVuSans-70" x="63.183594"/>
     <use xlink:href="#DejaVuSans-6f" x="126.660156"/>
     <use xlink:href="#DejaVuSans-63" x="187.841797"/>
     <use xlink:href="#DejaVuSans-68" x="242.822266"/>
     <use xlink:href="#DejaVuSans-3a" x="306.201172"/>
     <use xlink:href="#DejaVuSans-20" x="339.892578"/>
     <use xlink:href="#DejaVuSans-31" x="371.679688"/>
     <use xlink:href="#DejaVuSans-31" x="435.302734"/>
     <use xlink:href="#DejaVuSans-30" x="498.925781"/>
     <use xlink:href="#DejaVuSans-30" x="562.548828"/>
     <use xlink:href="#DejaVuSans-30" x="626.171875"/>
    </g>
   </g>
  </g>
 </g>
 <defs>
  <clipPath id="pbbd76c37e8">
   <rect x="57.6" y="41.472" width="357.12" height="266.112"/>
  </clipPath>
 </defs>
</svg>
