<?xml version="1.0" encoding="utf-8" standalone="no"?>
<!DOCTYPE svg PUBLIC "-//W3C//DTD SVG 1.1//EN"
  "http://www.w3.org/Graphics/SVG/1.1/DTD/svg11.dtd">
<svg xmlns:xlink="http://www.w3.org/1999/xlink" width="460.8pt" height="345.6pt" viewBox="0 0 460.8 345.6" xmlns="http://www.w3.org/2000/svg" version="1.1">
 <metadata>
  <rdf:RDF xmlns:dc="http://purl.org/dc/elements/1.1/" xmlns:cc="http://creativecommons.org/ns#" xmlns:rdf="http://www.w3.org/1999/02/22-rdf-syntax-ns#">
   <cc:Work>
    <dc:type rdf:resource="http://purl.org/dc/dcmitype/StillImage"/>
    <dc:date>2024-09-09T11:43:37.644447</dc:date>
    <dc:format>image/svg+xml</dc:format>
    <dc:creator>
     <cc:Agent>
      <dc:title>Matplotlib v3.8.4, https://matplotlib.org/</dc:title>
     </cc:Agent>
    </dc:creator>
   </cc:Work>
  </rdf:RDF>
 </metadata>
 <defs>
  <style type="text/css">*{stroke-linejoin: round; stroke-linecap: butt}</style>
 </defs>
 <g id="figure_1">
  <g id="patch_1">
   <path d="M 0 345.6 
L 460.8 345.6 
L 460.8 0 
L 0 0 
z
" style="fill: #ffffff"/>
  </g>
  <g id="axes_1">
   <g id="patch_2">
    <path d="M 57.6 307.584 
L 414.72 307.584 
L 414.72 41.472 
L 57.6 41.472 
z
" style="fill: #e5e5e5"/>
   </g>
   <g id="matplotlib.axis_1">
    <g id="xtick_1">
     <g id="line2d_1">
      <path d="M 73.832727 307.584 
L 73.832727 41.472 
" clip-path="url(#p94bfa2db9c)" style="fill: none; stroke: #ffffff; stroke-width: 0.8; stroke-linecap: square"/>
     </g>
     <g id="line2d_2">
      <defs>
       <path id="me3885cc408" d="M 0 0 
L 0 3.5 
" style="stroke: #555555; stroke-width: 0.8"/>
      </defs>
      <g>
       <use xlink:href="#me3885cc408" x="73.832727" y="307.584" style="fill: #555555; stroke: #555555; stroke-width: 0.8"/>
      </g>
     </g>
     <g id="text_1">
      <!-- 0 -->
      <g style="fill: #555555" transform="translate(70.651477 322.182437) scale(0.1 -0.1)">
       <defs>
        <path id="DejaVuSans-30" d="M 2034 4250 
Q 1547 4250 1301 3770 
Q 1056 3291 1056 2328 
Q 1056 1369 1301 889 
Q 1547 409 2034 409 
Q 2525 409 2770 889 
Q 3016 1369 3016 2328 
Q 3016 3291 2770 3770 
Q 2525 4250 2034 4250 
z
M 2034 4750 
Q 2819 4750 3233 4129 
Q 3647 3509 3647 2328 
Q 3647 1150 3233 529 
Q 2819 -91 2034 -91 
Q 1250 -91 836 529 
Q 422 1150 422 2328 
Q 422 3509 836 4129 
Q 1250 4750 2034 4750 
z
" transform="scale(0.015625)"/>
       </defs>
       <use xlink:href="#DejaVuSans-30"/>
      </g>
     </g>
    </g>
    <g id="xtick_2">
     <g id="line2d_3">
      <path d="M 138.893758 307.584 
L 138.893758 41.472 
" clip-path="url(#p94bfa2db9c)" style="fill: none; stroke: #ffffff; stroke-width: 0.8; stroke-linecap: square"/>
     </g>
     <g id="line2d_4">
      <g>
       <use xlink:href="#me3885cc408" x="138.893758" y="307.584" style="fill: #555555; stroke: #555555; stroke-width: 0.8"/>
      </g>
     </g>
     <g id="text_2">
      <!-- 200 -->
      <g style="fill: #555555" transform="translate(129.350008 322.182437) scale(0.1 -0.1)">
       <defs>
        <path id="DejaVuSans-32" d="M 1228 531 
L 3431 531 
L 3431 0 
L 469 0 
L 469 531 
Q 828 903 1448 1529 
Q 2069 2156 2228 2338 
Q 2531 2678 2651 2914 
Q 2772 3150 2772 3378 
Q 2772 3750 2511 3984 
Q 2250 4219 1831 4219 
Q 1534 4219 1204 4116 
Q 875 4013 500 3803 
L 500 4441 
Q 881 4594 1212 4672 
Q 1544 4750 1819 4750 
Q 2544 4750 2975 4387 
Q 3406 4025 3406 3419 
Q 3406 3131 3298 2873 
Q 3191 2616 2906 2266 
Q 2828 2175 2409 1742 
Q 1991 1309 1228 531 
z
" transform="scale(0.015625)"/>
       </defs>
       <use xlink:href="#DejaVuSans-32"/>
       <use xlink:href="#DejaVuSans-30" x="63.623047"/>
       <use xlink:href="#DejaVuSans-30" x="127.246094"/>
      </g>
     </g>
    </g>
    <g id="xtick_3">
     <g id="line2d_5">
      <path d="M 203.95479 307.584 
L 203.95479 41.472 
" clip-path="url(#p94bfa2db9c)" style="fill: none; stroke: #ffffff; stroke-width: 0.8; stroke-linecap: square"/>
     </g>
     <g id="line2d_6">
      <g>
       <use xlink:href="#me3885cc408" x="203.95479" y="307.584" style="fill: #555555; stroke: #555555; stroke-width: 0.8"/>
      </g>
     </g>
     <g id="text_3">
      <!-- 400 -->
      <g style="fill: #555555" transform="translate(194.41104 322.182437) scale(0.1 -0.1)">
       <defs>
        <path id="DejaVuSans-34" d="M 2419 4116 
L 825 1625 
L 2419 1625 
L 2419 4116 
z
M 2253 4666 
L 3047 4666 
L 3047 1625 
L 3713 1625 
L 3713 1100 
L 3047 1100 
L 3047 0 
L 2419 0 
L 2419 1100 
L 313 1100 
L 313 1709 
L 2253 4666 
z
" transform="scale(0.015625)"/>
       </defs>
       <use xlink:href="#DejaVuSans-34"/>
       <use xlink:href="#DejaVuSans-30" x="63.623047"/>
       <use xlink:href="#DejaVuSans-30" x="127.246094"/>
      </g>
     </g>
    </g>
    <g id="xtick_4">
     <g id="line2d_7">
      <path d="M 269.015821 307.584 
L 269.015821 41.472 
" clip-path="url(#p94bfa2db9c)" style="fill: none; stroke: #ffffff; stroke-width: 0.8; stroke-linecap: square"/>
     </g>
     <g id="line2d_8">
      <g>
       <use xlink:href="#me3885cc408" x="269.015821" y="307.584" style="fill: #555555; stroke: #555555; stroke-width: 0.8"/>
      </g>
     </g>
     <g id="text_4">
      <!-- 600 -->
      <g style="fill: #555555" transform="translate(259.472071 322.182437) scale(0.1 -0.1)">
       <defs>
        <path id="DejaVuSans-36" d="M 2113 2584 
Q 1688 2584 1439 2293 
Q 1191 2003 1191 1497 
Q 1191 994 1439 701 
Q 1688 409 2113 409 
Q 2538 409 2786 701 
Q 3034 994 3034 1497 
Q 3034 2003 2786 2293 
Q 2538 2584 2113 2584 
z
M 3366 4563 
L 3366 3988 
Q 3128 4100 2886 4159 
Q 2644 4219 2406 4219 
Q 1781 4219 1451 3797 
Q 1122 3375 1075 2522 
Q 1259 2794 1537 2939 
Q 1816 3084 2150 3084 
Q 2853 3084 3261 2657 
Q 3669 2231 3669 1497 
Q 3669 778 3244 343 
Q 2819 -91 2113 -91 
Q 1303 -91 875 529 
Q 447 1150 447 2328 
Q 447 3434 972 4092 
Q 1497 4750 2381 4750 
Q 2619 4750 2861 4703 
Q 3103 4656 3366 4563 
z
" transform="scale(0.015625)"/>
       </defs>
       <use xlink:href="#DejaVuSans-36"/>
       <use xlink:href="#DejaVuSans-30" x="63.623047"/>
       <use xlink:href="#DejaVuSans-30" x="127.246094"/>
      </g>
     </g>
    </g>
    <g id="xtick_5">
     <g id="line2d_9">
      <path d="M 334.076852 307.584 
L 334.076852 41.472 
" clip-path="url(#p94bfa2db9c)" style="fill: none; stroke: #ffffff; stroke-width: 0.8; stroke-linecap: square"/>
     </g>
     <g id="line2d_10">
      <g>
       <use xlink:href="#me3885cc408" x="334.076852" y="307.584" style="fill: #555555; stroke: #555555; stroke-width: 0.8"/>
      </g>
     </g>
     <g id="text_5">
      <!-- 800 -->
      <g style="fill: #555555" transform="translate(324.533102 322.182437) scale(0.1 -0.1)">
       <defs>
        <path id="DejaVuSans-38" d="M 2034 2216 
Q 1584 2216 1326 1975 
Q 1069 1734 1069 1313 
Q 1069 891 1326 650 
Q 1584 409 2034 409 
Q 2484 409 2743 651 
Q 3003 894 3003 1313 
Q 3003 1734 2745 1975 
Q 2488 2216 2034 2216 
z
M 1403 2484 
Q 997 2584 770 2862 
Q 544 3141 544 3541 
Q 544 4100 942 4425 
Q 1341 4750 2034 4750 
Q 2731 4750 3128 4425 
Q 3525 4100 3525 3541 
Q 3525 3141 3298 2862 
Q 3072 2584 2669 2484 
Q 3125 2378 3379 2068 
Q 3634 1759 3634 1313 
Q 3634 634 3220 271 
Q 2806 -91 2034 -91 
Q 1263 -91 848 271 
Q 434 634 434 1313 
Q 434 1759 690 2068 
Q 947 2378 1403 2484 
z
M 1172 3481 
Q 1172 3119 1398 2916 
Q 1625 2713 2034 2713 
Q 2441 2713 2670 2916 
Q 2900 3119 2900 3481 
Q 2900 3844 2670 4047 
Q 2441 4250 2034 4250 
Q 1625 4250 1398 4047 
Q 1172 3844 1172 3481 
z
" transform="scale(0.015625)"/>
       </defs>
       <use xlink:href="#DejaVuSans-38"/>
       <use xlink:href="#DejaVuSans-30" x="63.623047"/>
       <use xlink:href="#DejaVuSans-30" x="127.246094"/>
      </g>
     </g>
    </g>
    <g id="xtick_6">
     <g id="line2d_11">
      <path d="M 399.137883 307.584 
L 399.137883 41.472 
" clip-path="url(#p94bfa2db9c)" style="fill: none; stroke: #ffffff; stroke-width: 0.8; stroke-linecap: square"/>
     </g>
     <g id="line2d_12">
      <g>
       <use xlink:href="#me3885cc408" x="399.137883" y="307.584" style="fill: #555555; stroke: #555555; stroke-width: 0.8"/>
      </g>
     </g>
     <g id="text_6">
      <!-- 1000 -->
      <g style="fill: #555555" transform="translate(386.412883 322.182437) scale(0.1 -0.1)">
       <defs>
        <path id="DejaVuSans-31" d="M 794 531 
L 1825 531 
L 1825 4091 
L 703 3866 
L 703 4441 
L 1819 4666 
L 2450 4666 
L 2450 531 
L 3481 531 
L 3481 0 
L 794 0 
L 794 531 
z
" transform="scale(0.015625)"/>
       </defs>
       <use xlink:href="#DejaVuSans-31"/>
       <use xlink:href="#DejaVuSans-30" x="63.623047"/>
       <use xlink:href="#DejaVuSans-30" x="127.246094"/>
       <use xlink:href="#DejaVuSans-30" x="190.869141"/>
      </g>
     </g>
    </g>
    <g id="text_7">
     <!-- Number of Games -->
     <g style="fill: #555555" transform="translate(181.471875 337.38025) scale(0.12 -0.12)">
      <defs>
       <path id="DejaVuSans-4e" d="M 628 4666 
L 1478 4666 
L 3547 763 
L 3547 4666 
L 4159 4666 
L 4159 0 
L 3309 0 
L 1241 3903 
L 1241 0 
L 628 0 
L 628 4666 
z
" transform="scale(0.015625)"/>
       <path id="DejaVuSans-75" d="M 544 1381 
L 544 3500 
L 1119 3500 
L 1119 1403 
Q 1119 906 1312 657 
Q 1506 409 1894 409 
Q 2359 409 2629 706 
Q 2900 1003 2900 1516 
L 2900 3500 
L 3475 3500 
L 3475 0 
L 2900 0 
L 2900 538 
Q 2691 219 2414 64 
Q 2138 -91 1772 -91 
Q 1169 -91 856 284 
Q 544 659 544 1381 
z
M 1991 3584 
L 1991 3584 
z
" transform="scale(0.015625)"/>
       <path id="DejaVuSans-6d" d="M 3328 2828 
Q 3544 3216 3844 3400 
Q 4144 3584 4550 3584 
Q 5097 3584 5394 3201 
Q 5691 2819 5691 2113 
L 5691 0 
L 5113 0 
L 5113 2094 
Q 5113 2597 4934 2840 
Q 4756 3084 4391 3084 
Q 3944 3084 3684 2787 
Q 3425 2491 3425 1978 
L 3425 0 
L 2847 0 
L 2847 2094 
Q 2847 2600 2669 2842 
Q 2491 3084 2119 3084 
Q 1678 3084 1418 2786 
Q 1159 2488 1159 1978 
L 1159 0 
L 581 0 
L 581 3500 
L 1159 3500 
L 1159 2956 
Q 1356 3278 1631 3431 
Q 1906 3584 2284 3584 
Q 2666 3584 2933 3390 
Q 3200 3197 3328 2828 
z
" transform="scale(0.015625)"/>
       <path id="DejaVuSans-62" d="M 3116 1747 
Q 3116 2381 2855 2742 
Q 2594 3103 2138 3103 
Q 1681 3103 1420 2742 
Q 1159 2381 1159 1747 
Q 1159 1113 1420 752 
Q 1681 391 2138 391 
Q 2594 391 2855 752 
Q 3116 1113 3116 1747 
z
M 1159 2969 
Q 1341 3281 1617 3432 
Q 1894 3584 2278 3584 
Q 2916 3584 3314 3078 
Q 3713 2572 3713 1747 
Q 3713 922 3314 415 
Q 2916 -91 2278 -91 
Q 1894 -91 1617 61 
Q 1341 213 1159 525 
L 1159 0 
L 581 0 
L 581 4863 
L 1159 4863 
L 1159 2969 
z
" transform="scale(0.015625)"/>
       <path id="DejaVuSans-65" d="M 3597 1894 
L 3597 1613 
L 953 1613 
Q 991 1019 1311 708 
Q 1631 397 2203 397 
Q 2534 397 2845 478 
Q 3156 559 3463 722 
L 3463 178 
Q 3153 47 2828 -22 
Q 2503 -91 2169 -91 
Q 1331 -91 842 396 
Q 353 884 353 1716 
Q 353 2575 817 3079 
Q 1281 3584 2069 3584 
Q 2775 3584 3186 3129 
Q 3597 2675 3597 1894 
z
M 3022 2063 
Q 3016 2534 2758 2815 
Q 2500 3097 2075 3097 
Q 1594 3097 1305 2825 
Q 1016 2553 972 2059 
L 3022 2063 
z
" transform="scale(0.015625)"/>
       <path id="DejaVuSans-72" d="M 2631 2963 
Q 2534 3019 2420 3045 
Q 2306 3072 2169 3072 
Q 1681 3072 1420 2755 
Q 1159 2438 1159 1844 
L 1159 0 
L 581 0 
L 581 3500 
L 1159 3500 
L 1159 2956 
Q 1341 3275 1631 3429 
Q 1922 3584 2338 3584 
Q 2397 3584 2469 3576 
Q 2541 3569 2628 3553 
L 2631 2963 
z
" transform="scale(0.015625)"/>
       <path id="DejaVuSans-20" transform="scale(0.015625)"/>
       <path id="DejaVuSans-6f" d="M 1959 3097 
Q 1497 3097 1228 2736 
Q 959 2375 959 1747 
Q 959 1119 1226 758 
Q 1494 397 1959 397 
Q 2419 397 2687 759 
Q 2956 1122 2956 1747 
Q 2956 2369 2687 2733 
Q 2419 3097 1959 3097 
z
M 1959 3584 
Q 2709 3584 3137 3096 
Q 3566 2609 3566 1747 
Q 3566 888 3137 398 
Q 2709 -91 1959 -91 
Q 1206 -91 779 398 
Q 353 888 353 1747 
Q 353 2609 779 3096 
Q 1206 3584 1959 3584 
z
" transform="scale(0.015625)"/>
       <path id="DejaVuSans-66" d="M 2375 4863 
L 2375 4384 
L 1825 4384 
Q 1516 4384 1395 4259 
Q 1275 4134 1275 3809 
L 1275 3500 
L 2222 3500 
L 2222 3053 
L 1275 3053 
L 1275 0 
L 697 0 
L 697 3053 
L 147 3053 
L 147 3500 
L 697 3500 
L 697 3744 
Q 697 4328 969 4595 
Q 1241 4863 1831 4863 
L 2375 4863 
z
" transform="scale(0.015625)"/>
       <path id="DejaVuSans-47" d="M 3809 666 
L 3809 1919 
L 2778 1919 
L 2778 2438 
L 4434 2438 
L 4434 434 
Q 4069 175 3628 42 
Q 3188 -91 2688 -91 
Q 1594 -91 976 548 
Q 359 1188 359 2328 
Q 359 3472 976 4111 
Q 1594 4750 2688 4750 
Q 3144 4750 3555 4637 
Q 3966 4525 4313 4306 
L 4313 3634 
Q 3963 3931 3569 4081 
Q 3175 4231 2741 4231 
Q 1884 4231 1454 3753 
Q 1025 3275 1025 2328 
Q 1025 1384 1454 906 
Q 1884 428 2741 428 
Q 3075 428 3337 486 
Q 3600 544 3809 666 
z
" transform="scale(0.015625)"/>
       <path id="DejaVuSans-61" d="M 2194 1759 
Q 1497 1759 1228 1600 
Q 959 1441 959 1056 
Q 959 750 1161 570 
Q 1363 391 1709 391 
Q 2188 391 2477 730 
Q 2766 1069 2766 1631 
L 2766 1759 
L 2194 1759 
z
M 3341 1997 
L 3341 0 
L 2766 0 
L 2766 531 
Q 2569 213 2275 61 
Q 1981 -91 1556 -91 
Q 1019 -91 701 211 
Q 384 513 384 1019 
Q 384 1609 779 1909 
Q 1175 2209 1959 2209 
L 2766 2209 
L 2766 2266 
Q 2766 2663 2505 2880 
Q 2244 3097 1772 3097 
Q 1472 3097 1187 3025 
Q 903 2953 641 2809 
L 641 3341 
Q 956 3463 1253 3523 
Q 1550 3584 1831 3584 
Q 2591 3584 2966 3190 
Q 3341 2797 3341 1997 
z
" transform="scale(0.015625)"/>
       <path id="DejaVuSans-73" d="M 2834 3397 
L 2834 2853 
Q 2591 2978 2328 3040 
Q 2066 3103 1784 3103 
Q 1356 3103 1142 2972 
Q 928 2841 928 2578 
Q 928 2378 1081 2264 
Q 1234 2150 1697 2047 
L 1894 2003 
Q 2506 1872 2764 1633 
Q 3022 1394 3022 966 
Q 3022 478 2636 193 
Q 2250 -91 1575 -91 
Q 1294 -91 989 -36 
Q 684 19 347 128 
L 347 722 
Q 666 556 975 473 
Q 1284 391 1588 391 
Q 1994 391 2212 530 
Q 2431 669 2431 922 
Q 2431 1156 2273 1281 
Q 2116 1406 1581 1522 
L 1381 1569 
Q 847 1681 609 1914 
Q 372 2147 372 2553 
Q 372 3047 722 3315 
Q 1072 3584 1716 3584 
Q 2034 3584 2315 3537 
Q 2597 3491 2834 3397 
z
" transform="scale(0.015625)"/>
      </defs>
      <use xlink:href="#DejaVuSans-4e"/>
      <use xlink:href="#DejaVuSans-75" x="74.804688"/>
      <use xlink:href="#DejaVuSans-6d" x="138.183594"/>
      <use xlink:href="#DejaVuSans-62" x="235.595703"/>
      <use xlink:href="#DejaVuSans-65" x="299.072266"/>
      <use xlink:href="#DejaVuSans-72" x="360.595703"/>
      <use xlink:href="#DejaVuSans-20" x="401.708984"/>
      <use xlink:href="#DejaVuSans-6f" x="433.496094"/>
      <use xlink:href="#DejaVuSans-66" x="494.677734"/>
      <use xlink:href="#DejaVuSans-20" x="529.882812"/>
      <use xlink:href="#DejaVuSans-47" x="561.669922"/>
      <use xlink:href="#DejaVuSans-61" x="639.160156"/>
      <use xlink:href="#DejaVuSans-6d" x="700.439453"/>
      <use xlink:href="#DejaVuSans-65" x="797.851562"/>
      <use xlink:href="#DejaVuSans-73" x="859.375"/>
     </g>
    </g>
   </g>
   <g id="matplotlib.axis_2">
    <g id="ytick_1">
     <g id="line2d_13">
      <path d="M 57.6 307.584 
L 414.72 307.584 
" clip-path="url(#p94bfa2db9c)" style="fill: none; stroke: #ffffff; stroke-width: 0.8; stroke-linecap: square"/>
     </g>
     <g id="line2d_14">
      <defs>
       <path id="m1b5e3bfd3d" d="M 0 0 
L -3.5 0 
" style="stroke: #555555; stroke-width: 0.8"/>
      </defs>
      <g>
       <use xlink:href="#m1b5e3bfd3d" x="57.6" y="307.584" style="fill: #555555; stroke: #555555; stroke-width: 0.8"/>
      </g>
     </g>
     <g id="text_8">
      <!-- 0.0 -->
      <g style="fill: #555555" transform="translate(34.696875 311.383219) scale(0.1 -0.1)">
       <defs>
        <path id="DejaVuSans-2e" d="M 684 794 
L 1344 794 
L 1344 0 
L 684 0 
L 684 794 
z
" transform="scale(0.015625)"/>
       </defs>
       <use xlink:href="#DejaVuSans-30"/>
       <use xlink:href="#DejaVuSans-2e" x="63.623047"/>
       <use xlink:href="#DejaVuSans-30" x="95.410156"/>
      </g>
     </g>
    </g>
    <g id="ytick_2">
     <g id="line2d_15">
      <path d="M 57.6 276.416908 
L 414.72 276.416908 
" clip-path="url(#p94bfa2db9c)" style="fill: none; stroke: #ffffff; stroke-width: 0.8; stroke-linecap: square"/>
     </g>
     <g id="line2d_16">
      <g>
       <use xlink:href="#m1b5e3bfd3d" x="57.6" y="276.416908" style="fill: #555555; stroke: #555555; stroke-width: 0.8"/>
      </g>
     </g>
     <g id="text_9">
      <!-- 2.5 -->
      <g style="fill: #555555" transform="translate(34.696875 280.216127) scale(0.1 -0.1)">
       <defs>
        <path id="DejaVuSans-35" d="M 691 4666 
L 3169 4666 
L 3169 4134 
L 1269 4134 
L 1269 2991 
Q 1406 3038 1543 3061 
Q 1681 3084 1819 3084 
Q 2600 3084 3056 2656 
Q 3513 2228 3513 1497 
Q 3513 744 3044 326 
Q 2575 -91 1722 -91 
Q 1428 -91 1123 -41 
Q 819 9 494 109 
L 494 744 
Q 775 591 1075 516 
Q 1375 441 1709 441 
Q 2250 441 2565 725 
Q 2881 1009 2881 1497 
Q 2881 1984 2565 2268 
Q 2250 2553 1709 2553 
Q 1456 2553 1204 2497 
Q 953 2441 691 2322 
L 691 4666 
z
" transform="scale(0.015625)"/>
       </defs>
       <use xlink:href="#DejaVuSans-32"/>
       <use xlink:href="#DejaVuSans-2e" x="63.623047"/>
       <use xlink:href="#DejaVuSans-35" x="95.410156"/>
      </g>
     </g>
    </g>
    <g id="ytick_3">
     <g id="line2d_17">
      <path d="M 57.6 245.249816 
L 414.72 245.249816 
" clip-path="url(#p94bfa2db9c)" style="fill: none; stroke: #ffffff; stroke-width: 0.8; stroke-linecap: square"/>
     </g>
     <g id="line2d_18">
      <g>
       <use xlink:href="#m1b5e3bfd3d" x="57.6" y="245.249816" style="fill: #555555; stroke: #555555; stroke-width: 0.8"/>
      </g>
     </g>
     <g id="text_10">
      <!-- 5.0 -->
      <g style="fill: #555555" transform="translate(34.696875 249.049035) scale(0.1 -0.1)">
       <use xlink:href="#DejaVuSans-35"/>
       <use xlink:href="#DejaVuSans-2e" x="63.623047"/>
       <use xlink:href="#DejaVuSans-30" x="95.410156"/>
      </g>
     </g>
    </g>
    <g id="ytick_4">
     <g id="line2d_19">
      <path d="M 57.6 214.082725 
L 414.72 214.082725 
" clip-path="url(#p94bfa2db9c)" style="fill: none; stroke: #ffffff; stroke-width: 0.8; stroke-linecap: square"/>
     </g>
     <g id="line2d_20">
      <g>
       <use xlink:href="#m1b5e3bfd3d" x="57.6" y="214.082725" style="fill: #555555; stroke: #555555; stroke-width: 0.8"/>
      </g>
     </g>
     <g id="text_11">
      <!-- 7.5 -->
      <g style="fill: #555555" transform="translate(34.696875 217.881943) scale(0.1 -0.1)">
       <defs>
        <path id="DejaVuSans-37" d="M 525 4666 
L 3525 4666 
L 3525 4397 
L 1831 0 
L 1172 0 
L 2766 4134 
L 525 4134 
L 525 4666 
z
" transform="scale(0.015625)"/>
       </defs>
       <use xlink:href="#DejaVuSans-37"/>
       <use xlink:href="#DejaVuSans-2e" x="63.623047"/>
       <use xlink:href="#DejaVuSans-35" x="95.410156"/>
      </g>
     </g>
    </g>
    <g id="ytick_5">
     <g id="line2d_21">
      <path d="M 57.6 182.915633 
L 414.72 182.915633 
" clip-path="url(#p94bfa2db9c)" style="fill: none; stroke: #ffffff; stroke-width: 0.8; stroke-linecap: square"/>
     </g>
     <g id="line2d_22">
      <g>
       <use xlink:href="#m1b5e3bfd3d" x="57.6" y="182.915633" style="fill: #555555; stroke: #555555; stroke-width: 0.8"/>
      </g>
     </g>
     <g id="text_12">
      <!-- 10.0 -->
      <g style="fill: #555555" transform="translate(28.334375 186.714852) scale(0.1 -0.1)">
       <use xlink:href="#DejaVuSans-31"/>
       <use xlink:href="#DejaVuSans-30" x="63.623047"/>
       <use xlink:href="#DejaVuSans-2e" x="127.246094"/>
       <use xlink:href="#DejaVuSans-30" x="159.033203"/>
      </g>
     </g>
    </g>
    <g id="ytick_6">
     <g id="line2d_23">
      <path d="M 57.6 151.748541 
L 414.72 151.748541 
" clip-path="url(#p94bfa2db9c)" style="fill: none; stroke: #ffffff; stroke-width: 0.8; stroke-linecap: square"/>
     </g>
     <g id="line2d_24">
      <g>
       <use xlink:href="#m1b5e3bfd3d" x="57.6" y="151.748541" style="fill: #555555; stroke: #555555; stroke-width: 0.8"/>
      </g>
     </g>
     <g id="text_13">
      <!-- 12.5 -->
      <g style="fill: #555555" transform="translate(28.334375 155.54776) scale(0.1 -0.1)">
       <use xlink:href="#DejaVuSans-31"/>
       <use xlink:href="#DejaVuSans-32" x="63.623047"/>
       <use xlink:href="#DejaVuSans-2e" x="127.246094"/>
       <use xlink:href="#DejaVuSans-35" x="159.033203"/>
      </g>
     </g>
    </g>
    <g id="ytick_7">
     <g id="line2d_25">
      <path d="M 57.6 120.581449 
L 414.72 120.581449 
" clip-path="url(#p94bfa2db9c)" style="fill: none; stroke: #ffffff; stroke-width: 0.8; stroke-linecap: square"/>
     </g>
     <g id="line2d_26">
      <g>
       <use xlink:href="#m1b5e3bfd3d" x="57.6" y="120.581449" style="fill: #555555; stroke: #555555; stroke-width: 0.8"/>
      </g>
     </g>
     <g id="text_14">
      <!-- 15.0 -->
      <g style="fill: #555555" transform="translate(28.334375 124.380668) scale(0.1 -0.1)">
       <use xlink:href="#DejaVuSans-31"/>
       <use xlink:href="#DejaVuSans-35" x="63.623047"/>
       <use xlink:href="#DejaVuSans-2e" x="127.246094"/>
       <use xlink:href="#DejaVuSans-30" x="159.033203"/>
      </g>
     </g>
    </g>
    <g id="ytick_8">
     <g id="line2d_27">
      <path d="M 57.6 89.414357 
L 414.72 89.414357 
" clip-path="url(#p94bfa2db9c)" style="fill: none; stroke: #ffffff; stroke-width: 0.8; stroke-linecap: square"/>
     </g>
     <g id="line2d_28">
      <g>
       <use xlink:href="#m1b5e3bfd3d" x="57.6" y="89.414357" style="fill: #555555; stroke: #555555; stroke-width: 0.8"/>
      </g>
     </g>
     <g id="text_15">
      <!-- 17.5 -->
      <g style="fill: #555555" transform="translate(28.334375 93.213576) scale(0.1 -0.1)">
       <use xlink:href="#DejaVuSans-31"/>
       <use xlink:href="#DejaVuSans-37" x="63.623047"/>
       <use xlink:href="#DejaVuSans-2e" x="127.246094"/>
       <use xlink:href="#DejaVuSans-35" x="159.033203"/>
      </g>
     </g>
    </g>
    <g id="ytick_9">
     <g id="line2d_29">
      <path d="M 57.6 58.247266 
L 414.72 58.247266 
" clip-path="url(#p94bfa2db9c)" style="fill: none; stroke: #ffffff; stroke-width: 0.8; stroke-linecap: square"/>
     </g>
     <g id="line2d_30">
      <g>
       <use xlink:href="#m1b5e3bfd3d" x="57.6" y="58.247266" style="fill: #555555; stroke: #555555; stroke-width: 0.8"/>
      </g>
     </g>
     <g id="text_16">
      <!-- 20.0 -->
      <g style="fill: #555555" transform="translate(28.334375 62.046484) scale(0.1 -0.1)">
       <use xlink:href="#DejaVuSans-32"/>
       <use xlink:href="#DejaVuSans-30" x="63.623047"/>
       <use xlink:href="#DejaVuSans-2e" x="127.246094"/>
       <use xlink:href="#DejaVuSans-30" x="159.033203"/>
      </g>
     </g>
    </g>
    <g id="text_17">
     <!-- Median reward -->
     <g style="fill: #555555" transform="translate(21.83875 219.03675) rotate(-90) scale(0.12 -0.12)">
      <defs>
       <path id="DejaVuSans-4d" d="M 628 4666 
L 1569 4666 
L 2759 1491 
L 3956 4666 
L 4897 4666 
L 4897 0 
L 4281 0 
L 4281 4097 
L 3078 897 
L 2444 897 
L 1241 4097 
L 1241 0 
L 628 0 
L 628 4666 
z
" transform="scale(0.015625)"/>
       <path id="DejaVuSans-64" d="M 2906 2969 
L 2906 4863 
L 3481 4863 
L 3481 0 
L 2906 0 
L 2906 525 
Q 2725 213 2448 61 
Q 2172 -91 1784 -91 
Q 1150 -91 751 415 
Q 353 922 353 1747 
Q 353 2572 751 3078 
Q 1150 3584 1784 3584 
Q 2172 3584 2448 3432 
Q 2725 3281 2906 2969 
z
M 947 1747 
Q 947 1113 1208 752 
Q 1469 391 1925 391 
Q 2381 391 2643 752 
Q 2906 1113 2906 1747 
Q 2906 2381 2643 2742 
Q 2381 3103 1925 3103 
Q 1469 3103 1208 2742 
Q 947 2381 947 1747 
z
" transform="scale(0.015625)"/>
       <path id="DejaVuSans-69" d="M 603 3500 
L 1178 3500 
L 1178 0 
L 603 0 
L 603 3500 
z
M 603 4863 
L 1178 4863 
L 1178 4134 
L 603 4134 
L 603 4863 
z
" transform="scale(0.015625)"/>
       <path id="DejaVuSans-6e" d="M 3513 2113 
L 3513 0 
L 2938 0 
L 2938 2094 
Q 2938 2591 2744 2837 
Q 2550 3084 2163 3084 
Q 1697 3084 1428 2787 
Q 1159 2491 1159 1978 
L 1159 0 
L 581 0 
L 581 3500 
L 1159 3500 
L 1159 2956 
Q 1366 3272 1645 3428 
Q 1925 3584 2291 3584 
Q 2894 3584 3203 3211 
Q 3513 2838 3513 2113 
z
" transform="scale(0.015625)"/>
       <path id="DejaVuSans-77" d="M 269 3500 
L 844 3500 
L 1563 769 
L 2278 3500 
L 2956 3500 
L 3675 769 
L 4391 3500 
L 4966 3500 
L 4050 0 
L 3372 0 
L 2619 2869 
L 1863 0 
L 1184 0 
L 269 3500 
z
" transform="scale(0.015625)"/>
      </defs>
      <use xlink:href="#DejaVuSans-4d"/>
      <use xlink:href="#DejaVuSans-65" x="86.279297"/>
      <use xlink:href="#DejaVuSans-64" x="147.802734"/>
      <use xlink:href="#DejaVuSans-69" x="211.279297"/>
      <use xlink:href="#DejaVuSans-61" x="239.0625"/>
      <use xlink:href="#DejaVuSans-6e" x="300.341797"/>
      <use xlink:href="#DejaVuSans-20" x="363.720703"/>
      <use xlink:href="#DejaVuSans-72" x="395.507812"/>
      <use xlink:href="#DejaVuSans-65" x="434.371094"/>
      <use xlink:href="#DejaVuSans-77" x="495.894531"/>
      <use xlink:href="#DejaVuSans-61" x="577.681641"/>
      <use xlink:href="#DejaVuSans-72" x="638.960938"/>
      <use xlink:href="#DejaVuSans-64" x="678.324219"/>
     </g>
    </g>
   </g>
   <g id="line2d_31">
    <path d="M 73.832727 157.981959 
L 74.158032 164.215378 
L 74.483338 149.670735 
L 74.808643 145.515123 
L 75.459253 110.192419 
L 75.784558 111.676566 
L 76.109863 114.348031 
L 76.760474 110.60798 
L 77.085779 111.514659 
L 77.411084 107.075709 
L 77.736389 107.155625 
L 78.061694 106.333636 
L 78.386999 109.776857 
L 78.712305 108.114612 
L 79.03761 104.447896 
L 79.362915 106.729408 
L 79.68822 107.458463 
L 80.013525 106.244587 
L 80.33883 103.959 
L 80.664136 99.614497 
L 80.989441 100.526103 
L 81.314746 103.959 
L 81.640051 105.122572 
L 81.965356 105.23765 
L 82.290661 107.191143 
L 82.615966 107.224124 
L 82.941272 105.965158 
L 83.266577 107.699051 
L 83.591882 107.712456 
L 83.917187 109.283378 
L 84.242492 107.359047 
L 84.567797 107.747941 
L 84.893103 107.046026 
L 85.218408 107.42201 
L 85.543713 106.429905 
L 86.194323 107.155625 
L 86.519628 108.737954 
L 86.844934 107.810543 
L 87.170239 108.114612 
L 87.495544 108.694465 
L 87.820849 109.531298 
L 88.471459 110.01174 
L 88.796764 111.562886 
L 89.447375 111.422141 
L 89.77268 112.353337 
L 90.097985 111.781329 
L 90.42329 110.272334 
L 90.748595 111.172516 
L 91.073901 110.885021 
L 91.399206 110.38131 
L 91.724511 109.450345 
L 92.049816 110.08306 
L 92.375121 109.834176 
L 92.700426 110.438938 
L 93.025731 109.984638 
L 93.351037 108.318987 
L 93.676342 109.120003 
L 94.326952 109.478173 
L 94.652257 110.032587 
L 95.302868 109.044973 
L 95.628173 110.497978 
L 95.953478 110.463437 
L 96.604088 109.343737 
L 96.929393 109.672967 
L 97.254698 109.822398 
L 97.580004 109.462379 
L 97.905309 109.776857 
L 98.555919 111.190845 
L 98.881224 111.790731 
L 99.206529 111.58639 
L 99.531835 111.698828 
L 99.85714 111.654578 
L 100.182445 112.067512 
L 100.833055 112.270225 
L 101.15836 111.487992 
L 101.483666 111.448766 
L 102.459581 109.795534 
L 102.784886 109.499817 
L 103.110191 110.169586 
L 103.760802 110.527549 
L 104.411412 110.08306 
L 104.736717 109.023653 
L 105.062022 108.500185 
L 105.712633 109.625744 
L 106.037938 109.735301 
L 106.363243 109.719255 
L 106.688548 109.459075 
L 107.339158 110.032587 
L 107.664463 109.776857 
L 107.989769 109.996399 
L 108.965684 109.372734 
L 109.616294 109.462379 
L 110.266905 108.886894 
L 110.59221 108.989478 
L 110.917515 108.548242 
L 111.24282 108.866922 
L 111.89343 108.114612 
L 112.218736 108.638429 
L 112.869346 108.423708 
L 113.194651 108.114612 
L 113.519956 108.013256 
L 113.845261 106.807605 
L 114.495872 106.234693 
L 115.146482 107.432832 
L 115.471787 107.438117 
L 115.797092 107.155625 
L 116.122398 107.162946 
L 116.447703 107.453492 
L 116.773008 107.458463 
L 117.098313 107.742468 
L 117.423618 107.745225 
L 117.748923 107.197933 
L 118.074228 107.204624 
L 118.399534 107.572576 
L 119.375449 108.114612 
L 119.700754 108.465791 
L 120.026059 108.463335 
L 120.351365 108.634064 
L 121.001975 108.37078 
L 121.652585 107.6092 
L 121.97789 107.612592 
L 122.303195 107.366602 
L 122.628501 107.866927 
L 123.604416 107.628892 
L 123.929721 108.034181 
L 124.905637 107.48338 
L 125.230942 107.565758 
L 125.556247 107.958777 
L 125.881552 107.882311 
L 126.206857 108.037657 
L 126.532163 107.732194 
L 126.857468 106.21418 
L 127.182773 106.603481 
L 127.508078 106.687685 
L 127.833383 106.397623 
L 129.134604 106.729408 
L 129.785214 107.177798 
L 130.110519 107.254831 
L 130.435824 106.832309 
L 130.76113 107.052098 
L 131.41174 106.92396 
L 131.737045 107.139553 
L 132.387655 107.356959 
L 132.71296 107.224124 
L 133.038266 106.820241 
L 133.363571 106.759522 
L 134.014181 107.444352 
L 134.339486 107.381269 
L 134.664791 107.053605 
L 134.990097 106.993257 
L 135.966012 107.919818 
L 136.291317 107.856232 
L 136.941927 108.30641 
L 137.267233 108.051006 
L 137.592538 108.494313 
L 138.243148 108.302555 
L 138.568453 108.488618 
L 138.893758 107.866516 
L 139.544369 107.561896 
L 140.194979 108.053799 
L 140.520284 108.23565 
L 140.845589 108.114612 
L 141.170895 108.234486 
L 141.821505 108.233344 
L 142.472115 107.702972 
L 142.79742 107.939023 
L 143.122725 107.765075 
L 145.074556 109.077959 
L 145.725167 108.33924 
L 146.050472 108.673663 
L 146.375777 108.782479 
L 147.026387 108.611079 
L 147.351692 107.565413 
L 148.327608 107.03054 
L 148.978218 107.039885 
L 149.628829 106.995794 
L 149.954134 106.841404 
L 150.604744 106.957353 
L 150.930049 107.014597 
L 151.255354 106.654063 
L 151.58066 106.660148 
L 151.905965 106.510994 
L 152.23127 106.826716 
L 152.88188 106.428524 
L 153.207185 106.537176 
L 153.53249 106.340876 
L 154.183101 106.455719 
L 154.833711 106.568725 
L 155.809627 106.685607 
L 156.134932 106.249495 
L 156.785542 106.507559 
L 157.110847 106.465303 
L 157.436152 106.616659 
L 158.086763 107.059726 
L 158.412068 107.063768 
L 158.737373 106.734695 
L 159.062678 106.69254 
L 159.713288 106.98554 
L 160.038594 106.2399 
L 160.363899 106.106845 
L 160.689204 106.253891 
L 161.339814 105.852112 
L 162.31573 105.968307 
L 162.641035 106.294636 
L 163.291645 106.081976 
L 163.61695 106.134321 
L 163.942255 106.365668 
L 164.267561 106.282568 
L 164.592866 106.333636 
L 164.918171 106.60617 
L 165.568781 106.44062 
L 165.894086 106.622104 
L 166.544697 106.283818 
L 167.520612 106.604788 
L 167.845917 106.695972 
L 168.171222 106.615165 
L 168.496528 106.791078 
L 168.821833 106.753047 
L 169.797748 107.230141 
L 170.123053 106.939288 
L 170.448359 106.859562 
L 170.773664 106.905454 
L 171.098969 106.74326 
L 171.424274 106.706398 
L 171.749579 106.876185 
L 172.074884 106.797983 
L 172.725495 106.356993 
L 173.0508 106.484961 
L 173.376105 106.206009 
L 174.026715 105.976288 
L 174.35202 106.144048 
L 174.677326 106.150384 
L 175.002631 106.036806 
L 175.978546 106.373213 
L 176.303851 106.339272 
L 176.629156 106.187562 
L 176.954462 106.193622 
L 177.930377 105.784363 
L 178.580987 105.721597 
L 178.906293 105.575072 
L 179.231598 105.813043 
L 179.882208 105.560245 
L 181.834039 106.167839 
L 182.159344 105.912387 
L 183.460565 106.122869 
L 183.78587 105.908093 
L 184.111175 106.024584 
L 184.761785 105.890995 
L 185.087091 106.042864 
L 185.737701 105.801924 
L 186.063006 105.952733 
L 186.388311 105.923036 
L 187.038921 106.149925 
L 187.364227 106.119919 
L 187.689532 106.33871 
L 188.014837 106.237504 
L 188.340142 106.348772 
L 189.316058 106.153537 
L 189.966668 105.642139 
L 190.291973 105.753206 
L 192.243804 105.177221 
L 192.894414 105.363076 
L 193.545025 105.614488 
L 195.17155 104.714566 
L 195.822161 104.36793 
L 196.472771 104.618621 
L 196.798076 104.693634 
L 197.123381 104.440176 
L 198.099297 104.501508 
L 199.400517 104.377783 
L 199.725823 104.387414 
L 200.051128 103.820124 
L 200.376433 103.671304 
L 201.027043 103.662171 
L 201.677653 103.336713 
L 202.002959 102.906946 
L 202.978874 102.852229 
L 203.304179 102.896663 
L 203.629484 102.816207 
L 203.95479 102.860509 
L 204.6054 102.577233 
L 204.930705 102.776091 
L 205.25601 102.75849 
L 205.581315 102.126846 
L 206.231926 102.21731 
L 207.207841 101.866028 
L 208.183757 101.610176 
L 208.509062 101.11516 
L 209.159672 100.999248 
L 210.460893 100.889177 
L 210.786198 100.729046 
L 211.111503 100.80545 
L 211.762113 100.693178 
L 212.087418 100.652069 
L 212.738029 100.832582 
L 213.063334 100.791436 
L 214.039249 100.986583 
L 214.68986 100.732177 
L 215.665775 100.383462 
L 215.99108 100.571892 
L 216.316385 100.560675 
L 217.942911 99.971859 
L 218.918827 99.942838 
L 219.244132 99.877595 
L 220.220047 99.158393 
L 220.870658 99.170414 
L 222.171878 98.784945 
L 222.822489 98.798436 
L 223.147794 98.24955 
L 223.473099 98.108691 
L 223.798404 97.806535 
L 224.77432 97.846229 
L 225.099625 97.841511 
L 225.750235 97.512474 
L 226.400845 97.451488 
L 227.376761 97.229193 
L 227.702066 97.146952 
L 228.027371 97.196288 
L 228.677981 97.006844 
L 229.003287 96.821432 
L 229.328592 96.871035 
L 230.304507 96.42372 
L 230.629812 96.422113 
L 230.955118 96.21445 
L 231.605728 96.058207 
L 231.931033 95.954967 
L 232.256338 96.133165 
L 232.906948 95.953086 
L 233.557559 95.901167 
L 234.533474 95.773703 
L 234.858779 95.572371 
L 235.184085 95.67286 
L 235.50939 95.572674 
L 235.834695 95.647776 
L 237.461221 95.202532 
L 237.786526 95.055292 
L 238.111831 95.155015 
L 238.437136 94.934683 
L 239.738357 94.745089 
L 240.063662 94.527708 
L 241.039577 94.340573 
L 241.364882 94.077341 
L 241.690188 94.080378 
L 242.015493 93.698328 
L 242.991408 93.757411 
L 243.316713 93.784915 
L 243.967324 93.411358 
L 244.292629 93.439365 
L 244.617934 93.088045 
L 245.268544 92.885238 
L 246.24446 92.830411 
L 246.569765 92.460765 
L 248.196291 92.304713 
L 252.425258 91.522386 
L 252.750563 91.552499 
L 253.401173 91.296782 
L 254.377089 91.275414 
L 254.702394 91.037061 
L 255.353004 91.053557 
L 255.678309 90.705565 
L 256.654225 90.754044 
L 257.304835 90.638976 
L 257.63014 90.647825 
L 258.931361 90.070507 
L 260.232582 89.696707 
L 260.883192 89.436001 
L 261.533802 89.306513 
L 262.184412 89.199412 
L 263.160328 88.655228 
L 263.810938 88.423404 
L 264.136243 88.244262 
L 264.461549 88.235636 
L 264.786854 88.057423 
L 265.112159 88.112642 
L 265.437464 87.935241 
L 266.413379 87.953236 
L 267.06399 87.371472 
L 268.690516 87.253439 
L 270.642347 86.760526 
L 271.292957 86.666732 
L 271.943567 86.04218 
L 272.268872 85.935477 
L 273.244788 85.88141 
L 274.546008 85.702548 
L 276.823144 85.45489 
L 277.14845 85.351682 
L 277.473755 85.10962 
L 277.79906 85.046994 
L 278.124365 84.429605 
L 278.774975 84.366375 
L 280.076196 84.142947 
L 280.401501 83.533774 
L 280.726806 83.631076 
L 282.353332 83.47222 
L 283.654553 82.930058 
L 283.979858 82.968984 
L 284.305163 82.469098 
L 284.955773 82.33703 
L 285.281079 81.974471 
L 285.931689 81.825433 
L 286.907604 81.679597 
L 287.232909 80.979793 
L 288.208825 80.933131 
L 288.53413 81.030834 
L 289.18474 80.510817 
L 289.510046 80.552389 
L 289.835351 80.237641 
L 291.461876 79.719996 
L 291.787182 79.390723 
L 292.112487 79.414915 
L 292.437792 78.605443 
L 292.763097 78.575238 
L 293.088402 78.378898 
L 293.413707 78.36756 
L 294.064318 78.032393 
L 294.389623 78.113418 
L 295.040233 77.945234 
L 295.690844 77.358214 
L 296.341454 77.193217 
L 296.666759 77.038387 
L 296.992064 77.011034 
L 297.317369 77.128725 
L 298.943895 76.74064 
L 299.2692 76.246935 
L 299.919811 76.302684 
L 300.245116 76.062143 
L 301.546336 76.120548 
L 301.871641 75.633353 
L 302.196947 75.573154 
L 302.522252 75.318332 
L 302.847557 75.364851 
L 303.172862 75.128705 
L 303.498167 75.051927 
L 303.823472 74.341459 
L 304.799388 74.220948 
L 305.124693 74.251042 
L 305.449998 74.158656 
L 305.775303 74.188753 
L 306.100608 73.939787 
L 306.751219 73.913402 
L 307.401829 73.76579 
L 308.052439 73.774616 
L 308.377745 73.528637 
L 309.028355 73.417546 
L 309.35366 73.293448 
L 309.678965 72.997972 
L 310.00427 73.046275 
L 310.980186 72.934224 
L 311.630796 72.843002 
L 312.281406 72.54846 
L 312.606712 72.512041 
L 312.932017 72.170825 
L 314.233237 71.741774 
L 314.558543 71.504846 
L 314.883848 71.419772 
L 315.209153 71.485939 
L 315.859763 71.316527 
L 317.160984 70.997061 
L 317.811594 70.929906 
L 318.462204 70.697546 
L 318.78751 70.0858 
L 319.112815 69.987558 
L 320.08873 70.056222 
L 322.365866 69.589643 
L 324.643002 69.32531 
L 325.618918 69.378944 
L 326.269528 69.125664 
L 326.594833 69.079633 
L 326.920138 68.68164 
L 327.570749 68.511255 
L 328.871969 68.443073 
L 329.847885 68.08784 
L 334.076852 67.149925 
L 334.727462 66.630942 
L 335.703378 66.429594 
L 336.353988 66.393911 
L 336.679293 65.952356 
L 337.004598 65.850497 
L 337.655209 65.923889 
L 338.305819 65.874397 
L 338.956429 65.840425 
L 339.281734 65.724316 
L 339.60704 65.760897 
L 339.932345 65.584281 
L 340.25765 65.60574 
L 340.90826 65.254174 
L 341.233565 65.200216 
L 341.55887 65.267426 
L 341.884176 65.213583 
L 342.209481 64.933475 
L 342.860091 64.796872 
L 343.185396 64.458126 
L 343.510701 64.390562 
L 343.836007 64.503187 
L 344.486617 64.368437 
L 345.137227 64.368706 
L 345.462532 64.167522 
L 346.438448 64.086916 
L 347.089058 63.99891 
L 347.414363 63.740373 
L 348.064974 63.564874 
L 348.390279 63.573334 
L 348.715584 63.360732 
L 349.040889 63.325257 
L 349.366194 63.069344 
L 350.016805 63.175333 
L 350.99272 62.427237 
L 351.318025 62.393146 
L 351.64333 62.16958 
L 351.968635 62.179562 
L 352.293941 61.636732 
L 352.619246 61.603722 
L 352.944551 61.425656 
L 355.546992 61.295673 
L 356.848213 60.651891 
L 357.173518 60.649133 
L 357.498823 60.403614 
L 357.824128 60.386883 
L 358.149433 59.985499 
L 359.125349 59.951161 
L 360.751875 59.53207 
L 361.402485 59.500993 
L 361.72779 58.993024 
L 362.3784 58.696521 
L 362.703706 58.696016 
L 363.029011 58.457381 
L 364.980842 57.899419 
L 365.631452 57.803013 
L 366.607367 57.486249 
L 366.932673 57.100095 
L 367.583283 56.992307 
L 367.908588 57.035021 
L 369.209809 56.711198 
L 369.535114 56.726585 
L 370.836334 56.187646 
L 371.16164 56.258022 
L 371.486945 55.974382 
L 372.137555 55.992914 
L 372.46286 55.683357 
L 373.113471 55.445273 
L 374.089386 54.563882 
L 374.739996 54.477596 
L 375.065302 54.212691 
L 375.715912 54.167698 
L 376.041217 53.944196 
L 377.017132 53.891222 
L 378.643658 53.768242 
L 379.619574 53.305576 
L 379.944879 52.979961 
L 381.89671 52.894942 
L 382.222015 52.637846 
L 382.54732 52.669997 
L 382.872625 52.439896 
L 383.848541 52.288274 
L 384.173846 51.968157 
L 384.499151 51.896482 
L 385.149761 52.013847 
L 385.800372 51.572313 
L 386.125677 51.579259 
L 386.450982 51.327005 
L 387.426897 51.296843 
L 388.077508 50.924449 
L 388.728118 50.888101 
L 389.053423 50.869983 
L 390.029339 50.175213 
L 390.679949 50.166198 
L 391.005254 50.225571 
L 391.655864 49.859557 
L 392.306475 49.456874 
L 392.957085 49.335128 
L 393.607695 49.074512 
L 394.258306 48.777021 
L 394.908916 48.770955 
L 395.234221 48.402372 
L 396.210137 47.954585 
L 396.860747 47.925126 
L 397.186052 47.609734 
L 397.836662 47.568551 
L 398.161968 47.316923 
L 398.487273 47.352823 
L 398.487273 47.352823 
" clip-path="url(#p94bfa2db9c)" style="fill: none; stroke: #d62728; stroke-width: 1.5; stroke-linecap: square"/>
   </g>
   <g id="patch_3">
    <path d="M 57.6 307.584 
L 57.6 41.472 
" style="fill: none; stroke: #ffffff; stroke-linejoin: miter; stroke-linecap: square"/>
   </g>
   <g id="patch_4">
    <path d="M 414.72 307.584 
L 414.72 41.472 
" style="fill: none; stroke: #ffffff; stroke-linejoin: miter; stroke-linecap: square"/>
   </g>
   <g id="patch_5">
    <path d="M 57.6 307.584 
L 414.72 307.584 
" style="fill: none; stroke: #ffffff; stroke-linejoin: miter; stroke-linecap: square"/>
   </g>
   <g id="patch_6">
    <path d="M 57.6 41.472 
L 414.72 41.472 
" style="fill: none; stroke: #ffffff; stroke-linejoin: miter; stroke-linecap: square"/>
   </g>
   <g id="text_18">
    <!-- 20.873873873873872 -->
    <g transform="translate(398.487273 47.352823) scale(0.1 -0.1)">
     <defs>
      <path id="DejaVuSans-33" d="M 2597 2516 
Q 3050 2419 3304 2112 
Q 3559 1806 3559 1356 
Q 3559 666 3084 287 
Q 2609 -91 1734 -91 
Q 1441 -91 1130 -33 
Q 819 25 488 141 
L 488 750 
Q 750 597 1062 519 
Q 1375 441 1716 441 
Q 2309 441 2620 675 
Q 2931 909 2931 1356 
Q 2931 1769 2642 2001 
Q 2353 2234 1838 2234 
L 1294 2234 
L 1294 2753 
L 1863 2753 
Q 2328 2753 2575 2939 
Q 2822 3125 2822 3475 
Q 2822 3834 2567 4026 
Q 2313 4219 1838 4219 
Q 1578 4219 1281 4162 
Q 984 4106 628 3988 
L 628 4550 
Q 988 4650 1302 4700 
Q 1616 4750 1894 4750 
Q 2613 4750 3031 4423 
Q 3450 4097 3450 3541 
Q 3450 3153 3228 2886 
Q 3006 2619 2597 2516 
z
" transform="scale(0.015625)"/>
     </defs>
     <use xlink:href="#DejaVuSans-32"/>
     <use xlink:href="#DejaVuSans-30" x="63.623047"/>
     <use xlink:href="#DejaVuSans-2e" x="127.246094"/>
     <use xlink:href="#DejaVuSans-38" x="159.033203"/>
     <use xlink:href="#DejaVuSans-37" x="222.65625"/>
     <use xlink:href="#DejaVuSans-33" x="286.279297"/>
     <use xlink:href="#DejaVuSans-38" x="349.902344"/>
     <use xlink:href="#DejaVuSans-37" x="413.525391"/>
     <use xlink:href="#DejaVuSans-33" x="477.148438"/>
     <use xlink:href="#DejaVuSans-38" x="540.771484"/>
     <use xlink:href="#DejaVuSans-37" x="604.394531"/>
     <use xlink:href="#DejaVuSans-33" x="668.017578"/>
     <use xlink:href="#DejaVuSans-38" x="731.640625"/>
     <use xlink:href="#DejaVuSans-37" x="795.263672"/>
     <use xlink:href="#DejaVuSans-33" x="858.886719"/>
     <use xlink:href="#DejaVuSans-38" x="922.509766"/>
     <use xlink:href="#DejaVuSans-37" x="986.132812"/>
     <use xlink:href="#DejaVuSans-32" x="1049.755859"/>
    </g>
   </g>
   <g id="text_19">
    <!-- Epoch: 1000 -->
    <g transform="translate(191.0745 35.472) scale(0.144 -0.144)">
     <defs>
      <path id="DejaVuSans-45" d="M 628 4666 
L 3578 4666 
L 3578 4134 
L 1259 4134 
L 1259 2753 
L 3481 2753 
L 3481 2222 
L 1259 2222 
L 1259 531 
L 3634 531 
L 3634 0 
L 628 0 
L 628 4666 
z
" transform="scale(0.015625)"/>
      <path id="DejaVuSans-70" d="M 1159 525 
L 1159 -1331 
L 581 -1331 
L 581 3500 
L 1159 3500 
L 1159 2969 
Q 1341 3281 1617 3432 
Q 1894 3584 2278 3584 
Q 2916 3584 3314 3078 
Q 3713 2572 3713 1747 
Q 3713 922 3314 415 
Q 2916 -91 2278 -91 
Q 1894 -91 1617 61 
Q 1341 213 1159 525 
z
M 3116 1747 
Q 3116 2381 2855 2742 
Q 2594 3103 2138 3103 
Q 1681 3103 1420 2742 
Q 1159 2381 1159 1747 
Q 1159 1113 1420 752 
Q 1681 391 2138 391 
Q 2594 391 2855 752 
Q 3116 1113 3116 1747 
z
" transform="scale(0.015625)"/>
      <path id="DejaVuSans-63" d="M 3122 3366 
L 3122 2828 
Q 2878 2963 2633 3030 
Q 2388 3097 2138 3097 
Q 1578 3097 1268 2742 
Q 959 2388 959 1747 
Q 959 1106 1268 751 
Q 1578 397 2138 397 
Q 2388 397 2633 464 
Q 2878 531 3122 666 
L 3122 134 
Q 2881 22 2623 -34 
Q 2366 -91 2075 -91 
Q 1284 -91 818 406 
Q 353 903 353 1747 
Q 353 2603 823 3093 
Q 1294 3584 2113 3584 
Q 2378 3584 2631 3529 
Q 2884 3475 3122 3366 
z
" transform="scale(0.015625)"/>
      <path id="DejaVuSans-68" d="M 3513 2113 
L 3513 0 
L 2938 0 
L 2938 2094 
Q 2938 2591 2744 2837 
Q 2550 3084 2163 3084 
Q 1697 3084 1428 2787 
Q 1159 2491 1159 1978 
L 1159 0 
L 581 0 
L 581 4863 
L 1159 4863 
L 1159 2956 
Q 1366 3272 1645 3428 
Q 1925 3584 2291 3584 
Q 2894 3584 3203 3211 
Q 3513 2838 3513 2113 
z
" transform="scale(0.015625)"/>
      <path id="DejaVuSans-3a" d="M 750 794 
L 1409 794 
L 1409 0 
L 750 0 
L 750 794 
z
M 750 3309 
L 1409 3309 
L 1409 2516 
L 750 2516 
L 750 3309 
z
" transform="scale(0.015625)"/>
     </defs>
     <use xlink:href="#DejaVuSans-45"/>
     <use xlink:href="#DejaVuSans-70" x="63.183594"/>
     <use xlink:href="#DejaVuSans-6f" x="126.660156"/>
     <use xlink:href="#DejaVuSans-63" x="187.841797"/>
     <use xlink:href="#DejaVuSans-68" x="242.822266"/>
     <use xlink:href="#DejaVuSans-3a" x="306.201172"/>
     <use xlink:href="#DejaVuSans-20" x="339.892578"/>
     <use xlink:href="#DejaVuSans-31" x="371.679688"/>
     <use xlink:href="#DejaVuSans-30" x="435.302734"/>
     <use xlink:href="#DejaVuSans-30" x="498.925781"/>
     <use xlink:href="#DejaVuSans-30" x="562.548828"/>
    </g>
   </g>
  </g>
 </g>
 <defs>
  <clipPath id="p94bfa2db9c">
   <rect x="57.6" y="41.472" width="357.12" height="266.112"/>
  </clipPath>
 </defs>
</svg>
