<?xml version="1.0" encoding="utf-8" standalone="no"?>
<!DOCTYPE svg PUBLIC "-//W3C//DTD SVG 1.1//EN"
  "http://www.w3.org/Graphics/SVG/1.1/DTD/svg11.dtd">
<svg xmlns:xlink="http://www.w3.org/1999/xlink" width="460.8pt" height="345.6pt" viewBox="0 0 460.8 345.6" xmlns="http://www.w3.org/2000/svg" version="1.1">
 <metadata>
  <rdf:RDF xmlns:dc="http://purl.org/dc/elements/1.1/" xmlns:cc="http://creativecommons.org/ns#" xmlns:rdf="http://www.w3.org/1999/02/22-rdf-syntax-ns#">
   <cc:Work>
    <dc:type rdf:resource="http://purl.org/dc/dcmitype/StillImage"/>
    <dc:date>2024-09-09T11:48:38.728720</dc:date>
    <dc:format>image/svg+xml</dc:format>
    <dc:creator>
     <cc:Agent>
      <dc:title>Matplotlib v3.8.4, https://matplotlib.org/</dc:title>
     </cc:Agent>
    </dc:creator>
   </cc:Work>
  </rdf:RDF>
 </metadata>
 <defs>
  <style type="text/css">*{stroke-linejoin: round; stroke-linecap: butt}</style>
 </defs>
 <g id="figure_1">
  <g id="patch_1">
   <path d="M 0 345.6 
L 460.8 345.6 
L 460.8 0 
L 0 0 
z
" style="fill: #ffffff"/>
  </g>
  <g id="axes_1">
   <g id="patch_2">
    <path d="M 57.6 307.584 
L 414.72 307.584 
L 414.72 41.472 
L 57.6 41.472 
z
" style="fill: #e5e5e5"/>
   </g>
   <g id="matplotlib.axis_1">
    <g id="xtick_1">
     <g id="line2d_1">
      <path d="M 73.832727 307.584 
L 73.832727 41.472 
" clip-path="url(#pc93e06598b)" style="fill: none; stroke: #ffffff; stroke-width: 0.8; stroke-linecap: square"/>
     </g>
     <g id="line2d_2">
      <defs>
       <path id="m93f0b55c70" d="M 0 0 
L 0 3.5 
" style="stroke: #555555; stroke-width: 0.8"/>
      </defs>
      <g>
       <use xlink:href="#m93f0b55c70" x="73.832727" y="307.584" style="fill: #555555; stroke: #555555; stroke-width: 0.8"/>
      </g>
     </g>
     <g id="text_1">
      <!-- 0 -->
      <g style="fill: #555555" transform="translate(70.651477 322.182437) scale(0.1 -0.1)">
       <defs>
        <path id="DejaVuSans-30" d="M 2034 4250 
Q 1547 4250 1301 3770 
Q 1056 3291 1056 2328 
Q 1056 1369 1301 889 
Q 1547 409 2034 409 
Q 2525 409 2770 889 
Q 3016 1369 3016 2328 
Q 3016 3291 2770 3770 
Q 2525 4250 2034 4250 
z
M 2034 4750 
Q 2819 4750 3233 4129 
Q 3647 3509 3647 2328 
Q 3647 1150 3233 529 
Q 2819 -91 2034 -91 
Q 1250 -91 836 529 
Q 422 1150 422 2328 
Q 422 3509 836 4129 
Q 1250 4750 2034 4750 
z
" transform="scale(0.015625)"/>
       </defs>
       <use xlink:href="#DejaVuSans-30"/>
      </g>
     </g>
    </g>
    <g id="xtick_2">
     <g id="line2d_3">
      <path d="M 114.455168 307.584 
L 114.455168 41.472 
" clip-path="url(#pc93e06598b)" style="fill: none; stroke: #ffffff; stroke-width: 0.8; stroke-linecap: square"/>
     </g>
     <g id="line2d_4">
      <g>
       <use xlink:href="#m93f0b55c70" x="114.455168" y="307.584" style="fill: #555555; stroke: #555555; stroke-width: 0.8"/>
      </g>
     </g>
     <g id="text_2">
      <!-- 250 -->
      <g style="fill: #555555" transform="translate(104.911418 322.182437) scale(0.1 -0.1)">
       <defs>
        <path id="DejaVuSans-32" d="M 1228 531 
L 3431 531 
L 3431 0 
L 469 0 
L 469 531 
Q 828 903 1448 1529 
Q 2069 2156 2228 2338 
Q 2531 2678 2651 2914 
Q 2772 3150 2772 3378 
Q 2772 3750 2511 3984 
Q 2250 4219 1831 4219 
Q 1534 4219 1204 4116 
Q 875 4013 500 3803 
L 500 4441 
Q 881 4594 1212 4672 
Q 1544 4750 1819 4750 
Q 2544 4750 2975 4387 
Q 3406 4025 3406 3419 
Q 3406 3131 3298 2873 
Q 3191 2616 2906 2266 
Q 2828 2175 2409 1742 
Q 1991 1309 1228 531 
z
" transform="scale(0.015625)"/>
        <path id="DejaVuSans-35" d="M 691 4666 
L 3169 4666 
L 3169 4134 
L 1269 4134 
L 1269 2991 
Q 1406 3038 1543 3061 
Q 1681 3084 1819 3084 
Q 2600 3084 3056 2656 
Q 3513 2228 3513 1497 
Q 3513 744 3044 326 
Q 2575 -91 1722 -91 
Q 1428 -91 1123 -41 
Q 819 9 494 109 
L 494 744 
Q 775 591 1075 516 
Q 1375 441 1709 441 
Q 2250 441 2565 725 
Q 2881 1009 2881 1497 
Q 2881 1984 2565 2268 
Q 2250 2553 1709 2553 
Q 1456 2553 1204 2497 
Q 953 2441 691 2322 
L 691 4666 
z
" transform="scale(0.015625)"/>
       </defs>
       <use xlink:href="#DejaVuSans-32"/>
       <use xlink:href="#DejaVuSans-35" x="63.623047"/>
       <use xlink:href="#DejaVuSans-30" x="127.246094"/>
      </g>
     </g>
    </g>
    <g id="xtick_3">
     <g id="line2d_5">
      <path d="M 155.077609 307.584 
L 155.077609 41.472 
" clip-path="url(#pc93e06598b)" style="fill: none; stroke: #ffffff; stroke-width: 0.8; stroke-linecap: square"/>
     </g>
     <g id="line2d_6">
      <g>
       <use xlink:href="#m93f0b55c70" x="155.077609" y="307.584" style="fill: #555555; stroke: #555555; stroke-width: 0.8"/>
      </g>
     </g>
     <g id="text_3">
      <!-- 500 -->
      <g style="fill: #555555" transform="translate(145.533859 322.182437) scale(0.1 -0.1)">
       <use xlink:href="#DejaVuSans-35"/>
       <use xlink:href="#DejaVuSans-30" x="63.623047"/>
       <use xlink:href="#DejaVuSans-30" x="127.246094"/>
      </g>
     </g>
    </g>
    <g id="xtick_4">
     <g id="line2d_7">
      <path d="M 195.700049 307.584 
L 195.700049 41.472 
" clip-path="url(#pc93e06598b)" style="fill: none; stroke: #ffffff; stroke-width: 0.8; stroke-linecap: square"/>
     </g>
     <g id="line2d_8">
      <g>
       <use xlink:href="#m93f0b55c70" x="195.700049" y="307.584" style="fill: #555555; stroke: #555555; stroke-width: 0.8"/>
      </g>
     </g>
     <g id="text_4">
      <!-- 750 -->
      <g style="fill: #555555" transform="translate(186.156299 322.182437) scale(0.1 -0.1)">
       <defs>
        <path id="DejaVuSans-37" d="M 525 4666 
L 3525 4666 
L 3525 4397 
L 1831 0 
L 1172 0 
L 2766 4134 
L 525 4134 
L 525 4666 
z
" transform="scale(0.015625)"/>
       </defs>
       <use xlink:href="#DejaVuSans-37"/>
       <use xlink:href="#DejaVuSans-35" x="63.623047"/>
       <use xlink:href="#DejaVuSans-30" x="127.246094"/>
      </g>
     </g>
    </g>
    <g id="xtick_5">
     <g id="line2d_9">
      <path d="M 236.32249 307.584 
L 236.32249 41.472 
" clip-path="url(#pc93e06598b)" style="fill: none; stroke: #ffffff; stroke-width: 0.8; stroke-linecap: square"/>
     </g>
     <g id="line2d_10">
      <g>
       <use xlink:href="#m93f0b55c70" x="236.32249" y="307.584" style="fill: #555555; stroke: #555555; stroke-width: 0.8"/>
      </g>
     </g>
     <g id="text_5">
      <!-- 1000 -->
      <g style="fill: #555555" transform="translate(223.59749 322.182437) scale(0.1 -0.1)">
       <defs>
        <path id="DejaVuSans-31" d="M 794 531 
L 1825 531 
L 1825 4091 
L 703 3866 
L 703 4441 
L 1819 4666 
L 2450 4666 
L 2450 531 
L 3481 531 
L 3481 0 
L 794 0 
L 794 531 
z
" transform="scale(0.015625)"/>
       </defs>
       <use xlink:href="#DejaVuSans-31"/>
       <use xlink:href="#DejaVuSans-30" x="63.623047"/>
       <use xlink:href="#DejaVuSans-30" x="127.246094"/>
       <use xlink:href="#DejaVuSans-30" x="190.869141"/>
      </g>
     </g>
    </g>
    <g id="xtick_6">
     <g id="line2d_11">
      <path d="M 276.94493 307.584 
L 276.94493 41.472 
" clip-path="url(#pc93e06598b)" style="fill: none; stroke: #ffffff; stroke-width: 0.8; stroke-linecap: square"/>
     </g>
     <g id="line2d_12">
      <g>
       <use xlink:href="#m93f0b55c70" x="276.94493" y="307.584" style="fill: #555555; stroke: #555555; stroke-width: 0.8"/>
      </g>
     </g>
     <g id="text_6">
      <!-- 1250 -->
      <g style="fill: #555555" transform="translate(264.21993 322.182437) scale(0.1 -0.1)">
       <use xlink:href="#DejaVuSans-31"/>
       <use xlink:href="#DejaVuSans-32" x="63.623047"/>
       <use xlink:href="#DejaVuSans-35" x="127.246094"/>
       <use xlink:href="#DejaVuSans-30" x="190.869141"/>
      </g>
     </g>
    </g>
    <g id="xtick_7">
     <g id="line2d_13">
      <path d="M 317.567371 307.584 
L 317.567371 41.472 
" clip-path="url(#pc93e06598b)" style="fill: none; stroke: #ffffff; stroke-width: 0.8; stroke-linecap: square"/>
     </g>
     <g id="line2d_14">
      <g>
       <use xlink:href="#m93f0b55c70" x="317.567371" y="307.584" style="fill: #555555; stroke: #555555; stroke-width: 0.8"/>
      </g>
     </g>
     <g id="text_7">
      <!-- 1500 -->
      <g style="fill: #555555" transform="translate(304.842371 322.182437) scale(0.1 -0.1)">
       <use xlink:href="#DejaVuSans-31"/>
       <use xlink:href="#DejaVuSans-35" x="63.623047"/>
       <use xlink:href="#DejaVuSans-30" x="127.246094"/>
       <use xlink:href="#DejaVuSans-30" x="190.869141"/>
      </g>
     </g>
    </g>
    <g id="xtick_8">
     <g id="line2d_15">
      <path d="M 358.189812 307.584 
L 358.189812 41.472 
" clip-path="url(#pc93e06598b)" style="fill: none; stroke: #ffffff; stroke-width: 0.8; stroke-linecap: square"/>
     </g>
     <g id="line2d_16">
      <g>
       <use xlink:href="#m93f0b55c70" x="358.189812" y="307.584" style="fill: #555555; stroke: #555555; stroke-width: 0.8"/>
      </g>
     </g>
     <g id="text_8">
      <!-- 1750 -->
      <g style="fill: #555555" transform="translate(345.464812 322.182437) scale(0.1 -0.1)">
       <use xlink:href="#DejaVuSans-31"/>
       <use xlink:href="#DejaVuSans-37" x="63.623047"/>
       <use xlink:href="#DejaVuSans-35" x="127.246094"/>
       <use xlink:href="#DejaVuSans-30" x="190.869141"/>
      </g>
     </g>
    </g>
    <g id="xtick_9">
     <g id="line2d_17">
      <path d="M 398.812252 307.584 
L 398.812252 41.472 
" clip-path="url(#pc93e06598b)" style="fill: none; stroke: #ffffff; stroke-width: 0.8; stroke-linecap: square"/>
     </g>
     <g id="line2d_18">
      <g>
       <use xlink:href="#m93f0b55c70" x="398.812252" y="307.584" style="fill: #555555; stroke: #555555; stroke-width: 0.8"/>
      </g>
     </g>
     <g id="text_9">
      <!-- 2000 -->
      <g style="fill: #555555" transform="translate(386.087252 322.182437) scale(0.1 -0.1)">
       <use xlink:href="#DejaVuSans-32"/>
       <use xlink:href="#DejaVuSans-30" x="63.623047"/>
       <use xlink:href="#DejaVuSans-30" x="127.246094"/>
       <use xlink:href="#DejaVuSans-30" x="190.869141"/>
      </g>
     </g>
    </g>
    <g id="text_10">
     <!-- Number of Games -->
     <g style="fill: #555555" transform="translate(181.471875 337.38025) scale(0.12 -0.12)">
      <defs>
       <path id="DejaVuSans-4e" d="M 628 4666 
L 1478 4666 
L 3547 763 
L 3547 4666 
L 4159 4666 
L 4159 0 
L 3309 0 
L 1241 3903 
L 1241 0 
L 628 0 
L 628 4666 
z
" transform="scale(0.015625)"/>
       <path id="DejaVuSans-75" d="M 544 1381 
L 544 3500 
L 1119 3500 
L 1119 1403 
Q 1119 906 1312 657 
Q 1506 409 1894 409 
Q 2359 409 2629 706 
Q 2900 1003 2900 1516 
L 2900 3500 
L 3475 3500 
L 3475 0 
L 2900 0 
L 2900 538 
Q 2691 219 2414 64 
Q 2138 -91 1772 -91 
Q 1169 -91 856 284 
Q 544 659 544 1381 
z
M 1991 3584 
L 1991 3584 
z
" transform="scale(0.015625)"/>
       <path id="DejaVuSans-6d" d="M 3328 2828 
Q 3544 3216 3844 3400 
Q 4144 3584 4550 3584 
Q 5097 3584 5394 3201 
Q 5691 2819 5691 2113 
L 5691 0 
L 5113 0 
L 5113 2094 
Q 5113 2597 4934 2840 
Q 4756 3084 4391 3084 
Q 3944 3084 3684 2787 
Q 3425 2491 3425 1978 
L 3425 0 
L 2847 0 
L 2847 2094 
Q 2847 2600 2669 2842 
Q 2491 3084 2119 3084 
Q 1678 3084 1418 2786 
Q 1159 2488 1159 1978 
L 1159 0 
L 581 0 
L 581 3500 
L 1159 3500 
L 1159 2956 
Q 1356 3278 1631 3431 
Q 1906 3584 2284 3584 
Q 2666 3584 2933 3390 
Q 3200 3197 3328 2828 
z
" transform="scale(0.015625)"/>
       <path id="DejaVuSans-62" d="M 3116 1747 
Q 3116 2381 2855 2742 
Q 2594 3103 2138 3103 
Q 1681 3103 1420 2742 
Q 1159 2381 1159 1747 
Q 1159 1113 1420 752 
Q 1681 391 2138 391 
Q 2594 391 2855 752 
Q 3116 1113 3116 1747 
z
M 1159 2969 
Q 1341 3281 1617 3432 
Q 1894 3584 2278 3584 
Q 2916 3584 3314 3078 
Q 3713 2572 3713 1747 
Q 3713 922 3314 415 
Q 2916 -91 2278 -91 
Q 1894 -91 1617 61 
Q 1341 213 1159 525 
L 1159 0 
L 581 0 
L 581 4863 
L 1159 4863 
L 1159 2969 
z
" transform="scale(0.015625)"/>
       <path id="DejaVuSans-65" d="M 3597 1894 
L 3597 1613 
L 953 1613 
Q 991 1019 1311 708 
Q 1631 397 2203 397 
Q 2534 397 2845 478 
Q 3156 559 3463 722 
L 3463 178 
Q 3153 47 2828 -22 
Q 2503 -91 2169 -91 
Q 1331 -91 842 396 
Q 353 884 353 1716 
Q 353 2575 817 3079 
Q 1281 3584 2069 3584 
Q 2775 3584 3186 3129 
Q 3597 2675 3597 1894 
z
M 3022 2063 
Q 3016 2534 2758 2815 
Q 2500 3097 2075 3097 
Q 1594 3097 1305 2825 
Q 1016 2553 972 2059 
L 3022 2063 
z
" transform="scale(0.015625)"/>
       <path id="DejaVuSans-72" d="M 2631 2963 
Q 2534 3019 2420 3045 
Q 2306 3072 2169 3072 
Q 1681 3072 1420 2755 
Q 1159 2438 1159 1844 
L 1159 0 
L 581 0 
L 581 3500 
L 1159 3500 
L 1159 2956 
Q 1341 3275 1631 3429 
Q 1922 3584 2338 3584 
Q 2397 3584 2469 3576 
Q 2541 3569 2628 3553 
L 2631 2963 
z
" transform="scale(0.015625)"/>
       <path id="DejaVuSans-20" transform="scale(0.015625)"/>
       <path id="DejaVuSans-6f" d="M 1959 3097 
Q 1497 3097 1228 2736 
Q 959 2375 959 1747 
Q 959 1119 1226 758 
Q 1494 397 1959 397 
Q 2419 397 2687 759 
Q 2956 1122 2956 1747 
Q 2956 2369 2687 2733 
Q 2419 3097 1959 3097 
z
M 1959 3584 
Q 2709 3584 3137 3096 
Q 3566 2609 3566 1747 
Q 3566 888 3137 398 
Q 2709 -91 1959 -91 
Q 1206 -91 779 398 
Q 353 888 353 1747 
Q 353 2609 779 3096 
Q 1206 3584 1959 3584 
z
" transform="scale(0.015625)"/>
       <path id="DejaVuSans-66" d="M 2375 4863 
L 2375 4384 
L 1825 4384 
Q 1516 4384 1395 4259 
Q 1275 4134 1275 3809 
L 1275 3500 
L 2222 3500 
L 2222 3053 
L 1275 3053 
L 1275 0 
L 697 0 
L 697 3053 
L 147 3053 
L 147 3500 
L 697 3500 
L 697 3744 
Q 697 4328 969 4595 
Q 1241 4863 1831 4863 
L 2375 4863 
z
" transform="scale(0.015625)"/>
       <path id="DejaVuSans-47" d="M 3809 666 
L 3809 1919 
L 2778 1919 
L 2778 2438 
L 4434 2438 
L 4434 434 
Q 4069 175 3628 42 
Q 3188 -91 2688 -91 
Q 1594 -91 976 548 
Q 359 1188 359 2328 
Q 359 3472 976 4111 
Q 1594 4750 2688 4750 
Q 3144 4750 3555 4637 
Q 3966 4525 4313 4306 
L 4313 3634 
Q 3963 3931 3569 4081 
Q 3175 4231 2741 4231 
Q 1884 4231 1454 3753 
Q 1025 3275 1025 2328 
Q 1025 1384 1454 906 
Q 1884 428 2741 428 
Q 3075 428 3337 486 
Q 3600 544 3809 666 
z
" transform="scale(0.015625)"/>
       <path id="DejaVuSans-61" d="M 2194 1759 
Q 1497 1759 1228 1600 
Q 959 1441 959 1056 
Q 959 750 1161 570 
Q 1363 391 1709 391 
Q 2188 391 2477 730 
Q 2766 1069 2766 1631 
L 2766 1759 
L 2194 1759 
z
M 3341 1997 
L 3341 0 
L 2766 0 
L 2766 531 
Q 2569 213 2275 61 
Q 1981 -91 1556 -91 
Q 1019 -91 701 211 
Q 384 513 384 1019 
Q 384 1609 779 1909 
Q 1175 2209 1959 2209 
L 2766 2209 
L 2766 2266 
Q 2766 2663 2505 2880 
Q 2244 3097 1772 3097 
Q 1472 3097 1187 3025 
Q 903 2953 641 2809 
L 641 3341 
Q 956 3463 1253 3523 
Q 1550 3584 1831 3584 
Q 2591 3584 2966 3190 
Q 3341 2797 3341 1997 
z
" transform="scale(0.015625)"/>
       <path id="DejaVuSans-73" d="M 2834 3397 
L 2834 2853 
Q 2591 2978 2328 3040 
Q 2066 3103 1784 3103 
Q 1356 3103 1142 2972 
Q 928 2841 928 2578 
Q 928 2378 1081 2264 
Q 1234 2150 1697 2047 
L 1894 2003 
Q 2506 1872 2764 1633 
Q 3022 1394 3022 966 
Q 3022 478 2636 193 
Q 2250 -91 1575 -91 
Q 1294 -91 989 -36 
Q 684 19 347 128 
L 347 722 
Q 666 556 975 473 
Q 1284 391 1588 391 
Q 1994 391 2212 530 
Q 2431 669 2431 922 
Q 2431 1156 2273 1281 
Q 2116 1406 1581 1522 
L 1381 1569 
Q 847 1681 609 1914 
Q 372 2147 372 2553 
Q 372 3047 722 3315 
Q 1072 3584 1716 3584 
Q 2034 3584 2315 3537 
Q 2597 3491 2834 3397 
z
" transform="scale(0.015625)"/>
      </defs>
      <use xlink:href="#DejaVuSans-4e"/>
      <use xlink:href="#DejaVuSans-75" x="74.804688"/>
      <use xlink:href="#DejaVuSans-6d" x="138.183594"/>
      <use xlink:href="#DejaVuSans-62" x="235.595703"/>
      <use xlink:href="#DejaVuSans-65" x="299.072266"/>
      <use xlink:href="#DejaVuSans-72" x="360.595703"/>
      <use xlink:href="#DejaVuSans-20" x="401.708984"/>
      <use xlink:href="#DejaVuSans-6f" x="433.496094"/>
      <use xlink:href="#DejaVuSans-66" x="494.677734"/>
      <use xlink:href="#DejaVuSans-20" x="529.882812"/>
      <use xlink:href="#DejaVuSans-47" x="561.669922"/>
      <use xlink:href="#DejaVuSans-61" x="639.160156"/>
      <use xlink:href="#DejaVuSans-6d" x="700.439453"/>
      <use xlink:href="#DejaVuSans-65" x="797.851562"/>
      <use xlink:href="#DejaVuSans-73" x="859.375"/>
     </g>
    </g>
   </g>
   <g id="matplotlib.axis_2">
    <g id="ytick_1">
     <g id="line2d_19">
      <path d="M 57.6 307.584 
L 414.72 307.584 
" clip-path="url(#pc93e06598b)" style="fill: none; stroke: #ffffff; stroke-width: 0.8; stroke-linecap: square"/>
     </g>
     <g id="line2d_20">
      <defs>
       <path id="m3a91154777" d="M 0 0 
L -3.5 0 
" style="stroke: #555555; stroke-width: 0.8"/>
      </defs>
      <g>
       <use xlink:href="#m3a91154777" x="57.6" y="307.584" style="fill: #555555; stroke: #555555; stroke-width: 0.8"/>
      </g>
     </g>
     <g id="text_11">
      <!-- 0 -->
      <g style="fill: #555555" transform="translate(44.2375 311.383219) scale(0.1 -0.1)">
       <use xlink:href="#DejaVuSans-30"/>
      </g>
     </g>
    </g>
    <g id="ytick_2">
     <g id="line2d_21">
      <path d="M 57.6 275.142732 
L 414.72 275.142732 
" clip-path="url(#pc93e06598b)" style="fill: none; stroke: #ffffff; stroke-width: 0.8; stroke-linecap: square"/>
     </g>
     <g id="line2d_22">
      <g>
       <use xlink:href="#m3a91154777" x="57.6" y="275.142732" style="fill: #555555; stroke: #555555; stroke-width: 0.8"/>
      </g>
     </g>
     <g id="text_12">
      <!-- 10 -->
      <g style="fill: #555555" transform="translate(37.875 278.94195) scale(0.1 -0.1)">
       <use xlink:href="#DejaVuSans-31"/>
       <use xlink:href="#DejaVuSans-30" x="63.623047"/>
      </g>
     </g>
    </g>
    <g id="ytick_3">
     <g id="line2d_23">
      <path d="M 57.6 242.701463 
L 414.72 242.701463 
" clip-path="url(#pc93e06598b)" style="fill: none; stroke: #ffffff; stroke-width: 0.8; stroke-linecap: square"/>
     </g>
     <g id="line2d_24">
      <g>
       <use xlink:href="#m3a91154777" x="57.6" y="242.701463" style="fill: #555555; stroke: #555555; stroke-width: 0.8"/>
      </g>
     </g>
     <g id="text_13">
      <!-- 20 -->
      <g style="fill: #555555" transform="translate(37.875 246.500682) scale(0.1 -0.1)">
       <use xlink:href="#DejaVuSans-32"/>
       <use xlink:href="#DejaVuSans-30" x="63.623047"/>
      </g>
     </g>
    </g>
    <g id="ytick_4">
     <g id="line2d_25">
      <path d="M 57.6 210.260195 
L 414.72 210.260195 
" clip-path="url(#pc93e06598b)" style="fill: none; stroke: #ffffff; stroke-width: 0.8; stroke-linecap: square"/>
     </g>
     <g id="line2d_26">
      <g>
       <use xlink:href="#m3a91154777" x="57.6" y="210.260195" style="fill: #555555; stroke: #555555; stroke-width: 0.8"/>
      </g>
     </g>
     <g id="text_14">
      <!-- 30 -->
      <g style="fill: #555555" transform="translate(37.875 214.059414) scale(0.1 -0.1)">
       <defs>
        <path id="DejaVuSans-33" d="M 2597 2516 
Q 3050 2419 3304 2112 
Q 3559 1806 3559 1356 
Q 3559 666 3084 287 
Q 2609 -91 1734 -91 
Q 1441 -91 1130 -33 
Q 819 25 488 141 
L 488 750 
Q 750 597 1062 519 
Q 1375 441 1716 441 
Q 2309 441 2620 675 
Q 2931 909 2931 1356 
Q 2931 1769 2642 2001 
Q 2353 2234 1838 2234 
L 1294 2234 
L 1294 2753 
L 1863 2753 
Q 2328 2753 2575 2939 
Q 2822 3125 2822 3475 
Q 2822 3834 2567 4026 
Q 2313 4219 1838 4219 
Q 1578 4219 1281 4162 
Q 984 4106 628 3988 
L 628 4550 
Q 988 4650 1302 4700 
Q 1616 4750 1894 4750 
Q 2613 4750 3031 4423 
Q 3450 4097 3450 3541 
Q 3450 3153 3228 2886 
Q 3006 2619 2597 2516 
z
" transform="scale(0.015625)"/>
       </defs>
       <use xlink:href="#DejaVuSans-33"/>
       <use xlink:href="#DejaVuSans-30" x="63.623047"/>
      </g>
     </g>
    </g>
    <g id="ytick_5">
     <g id="line2d_27">
      <path d="M 57.6 177.818926 
L 414.72 177.818926 
" clip-path="url(#pc93e06598b)" style="fill: none; stroke: #ffffff; stroke-width: 0.8; stroke-linecap: square"/>
     </g>
     <g id="line2d_28">
      <g>
       <use xlink:href="#m3a91154777" x="57.6" y="177.818926" style="fill: #555555; stroke: #555555; stroke-width: 0.8"/>
      </g>
     </g>
     <g id="text_15">
      <!-- 40 -->
      <g style="fill: #555555" transform="translate(37.875 181.618145) scale(0.1 -0.1)">
       <defs>
        <path id="DejaVuSans-34" d="M 2419 4116 
L 825 1625 
L 2419 1625 
L 2419 4116 
z
M 2253 4666 
L 3047 4666 
L 3047 1625 
L 3713 1625 
L 3713 1100 
L 3047 1100 
L 3047 0 
L 2419 0 
L 2419 1100 
L 313 1100 
L 313 1709 
L 2253 4666 
z
" transform="scale(0.015625)"/>
       </defs>
       <use xlink:href="#DejaVuSans-34"/>
       <use xlink:href="#DejaVuSans-30" x="63.623047"/>
      </g>
     </g>
    </g>
    <g id="ytick_6">
     <g id="line2d_29">
      <path d="M 57.6 145.377658 
L 414.72 145.377658 
" clip-path="url(#pc93e06598b)" style="fill: none; stroke: #ffffff; stroke-width: 0.8; stroke-linecap: square"/>
     </g>
     <g id="line2d_30">
      <g>
       <use xlink:href="#m3a91154777" x="57.6" y="145.377658" style="fill: #555555; stroke: #555555; stroke-width: 0.8"/>
      </g>
     </g>
     <g id="text_16">
      <!-- 50 -->
      <g style="fill: #555555" transform="translate(37.875 149.176877) scale(0.1 -0.1)">
       <use xlink:href="#DejaVuSans-35"/>
       <use xlink:href="#DejaVuSans-30" x="63.623047"/>
      </g>
     </g>
    </g>
    <g id="ytick_7">
     <g id="line2d_31">
      <path d="M 57.6 112.93639 
L 414.72 112.93639 
" clip-path="url(#pc93e06598b)" style="fill: none; stroke: #ffffff; stroke-width: 0.8; stroke-linecap: square"/>
     </g>
     <g id="line2d_32">
      <g>
       <use xlink:href="#m3a91154777" x="57.6" y="112.93639" style="fill: #555555; stroke: #555555; stroke-width: 0.8"/>
      </g>
     </g>
     <g id="text_17">
      <!-- 60 -->
      <g style="fill: #555555" transform="translate(37.875 116.735608) scale(0.1 -0.1)">
       <defs>
        <path id="DejaVuSans-36" d="M 2113 2584 
Q 1688 2584 1439 2293 
Q 1191 2003 1191 1497 
Q 1191 994 1439 701 
Q 1688 409 2113 409 
Q 2538 409 2786 701 
Q 3034 994 3034 1497 
Q 3034 2003 2786 2293 
Q 2538 2584 2113 2584 
z
M 3366 4563 
L 3366 3988 
Q 3128 4100 2886 4159 
Q 2644 4219 2406 4219 
Q 1781 4219 1451 3797 
Q 1122 3375 1075 2522 
Q 1259 2794 1537 2939 
Q 1816 3084 2150 3084 
Q 2853 3084 3261 2657 
Q 3669 2231 3669 1497 
Q 3669 778 3244 343 
Q 2819 -91 2113 -91 
Q 1303 -91 875 529 
Q 447 1150 447 2328 
Q 447 3434 972 4092 
Q 1497 4750 2381 4750 
Q 2619 4750 2861 4703 
Q 3103 4656 3366 4563 
z
" transform="scale(0.015625)"/>
       </defs>
       <use xlink:href="#DejaVuSans-36"/>
       <use xlink:href="#DejaVuSans-30" x="63.623047"/>
      </g>
     </g>
    </g>
    <g id="ytick_8">
     <g id="line2d_33">
      <path d="M 57.6 80.495121 
L 414.72 80.495121 
" clip-path="url(#pc93e06598b)" style="fill: none; stroke: #ffffff; stroke-width: 0.8; stroke-linecap: square"/>
     </g>
     <g id="line2d_34">
      <g>
       <use xlink:href="#m3a91154777" x="57.6" y="80.495121" style="fill: #555555; stroke: #555555; stroke-width: 0.8"/>
      </g>
     </g>
     <g id="text_18">
      <!-- 70 -->
      <g style="fill: #555555" transform="translate(37.875 84.29434) scale(0.1 -0.1)">
       <use xlink:href="#DejaVuSans-37"/>
       <use xlink:href="#DejaVuSans-30" x="63.623047"/>
      </g>
     </g>
    </g>
    <g id="ytick_9">
     <g id="line2d_35">
      <path d="M 57.6 48.053853 
L 414.72 48.053853 
" clip-path="url(#pc93e06598b)" style="fill: none; stroke: #ffffff; stroke-width: 0.8; stroke-linecap: square"/>
     </g>
     <g id="line2d_36">
      <g>
       <use xlink:href="#m3a91154777" x="57.6" y="48.053853" style="fill: #555555; stroke: #555555; stroke-width: 0.8"/>
      </g>
     </g>
     <g id="text_19">
      <!-- 80 -->
      <g style="fill: #555555" transform="translate(37.875 51.853072) scale(0.1 -0.1)">
       <defs>
        <path id="DejaVuSans-38" d="M 2034 2216 
Q 1584 2216 1326 1975 
Q 1069 1734 1069 1313 
Q 1069 891 1326 650 
Q 1584 409 2034 409 
Q 2484 409 2743 651 
Q 3003 894 3003 1313 
Q 3003 1734 2745 1975 
Q 2488 2216 2034 2216 
z
M 1403 2484 
Q 997 2584 770 2862 
Q 544 3141 544 3541 
Q 544 4100 942 4425 
Q 1341 4750 2034 4750 
Q 2731 4750 3128 4425 
Q 3525 4100 3525 3541 
Q 3525 3141 3298 2862 
Q 3072 2584 2669 2484 
Q 3125 2378 3379 2068 
Q 3634 1759 3634 1313 
Q 3634 634 3220 271 
Q 2806 -91 2034 -91 
Q 1263 -91 848 271 
Q 434 634 434 1313 
Q 434 1759 690 2068 
Q 947 2378 1403 2484 
z
M 1172 3481 
Q 1172 3119 1398 2916 
Q 1625 2713 2034 2713 
Q 2441 2713 2670 2916 
Q 2900 3119 2900 3481 
Q 2900 3844 2670 4047 
Q 2441 4250 2034 4250 
Q 1625 4250 1398 4047 
Q 1172 3844 1172 3481 
z
" transform="scale(0.015625)"/>
       </defs>
       <use xlink:href="#DejaVuSans-38"/>
       <use xlink:href="#DejaVuSans-30" x="63.623047"/>
      </g>
     </g>
    </g>
    <g id="text_20">
     <!-- Median reward -->
     <g style="fill: #555555" transform="translate(31.379375 219.03675) rotate(-90) scale(0.12 -0.12)">
      <defs>
       <path id="DejaVuSans-4d" d="M 628 4666 
L 1569 4666 
L 2759 1491 
L 3956 4666 
L 4897 4666 
L 4897 0 
L 4281 0 
L 4281 4097 
L 3078 897 
L 2444 897 
L 1241 4097 
L 1241 0 
L 628 0 
L 628 4666 
z
" transform="scale(0.015625)"/>
       <path id="DejaVuSans-64" d="M 2906 2969 
L 2906 4863 
L 3481 4863 
L 3481 0 
L 2906 0 
L 2906 525 
Q 2725 213 2448 61 
Q 2172 -91 1784 -91 
Q 1150 -91 751 415 
Q 353 922 353 1747 
Q 353 2572 751 3078 
Q 1150 3584 1784 3584 
Q 2172 3584 2448 3432 
Q 2725 3281 2906 2969 
z
M 947 1747 
Q 947 1113 1208 752 
Q 1469 391 1925 391 
Q 2381 391 2643 752 
Q 2906 1113 2906 1747 
Q 2906 2381 2643 2742 
Q 2381 3103 1925 3103 
Q 1469 3103 1208 2742 
Q 947 2381 947 1747 
z
" transform="scale(0.015625)"/>
       <path id="DejaVuSans-69" d="M 603 3500 
L 1178 3500 
L 1178 0 
L 603 0 
L 603 3500 
z
M 603 4863 
L 1178 4863 
L 1178 4134 
L 603 4134 
L 603 4863 
z
" transform="scale(0.015625)"/>
       <path id="DejaVuSans-6e" d="M 3513 2113 
L 3513 0 
L 2938 0 
L 2938 2094 
Q 2938 2591 2744 2837 
Q 2550 3084 2163 3084 
Q 1697 3084 1428 2787 
Q 1159 2491 1159 1978 
L 1159 0 
L 581 0 
L 581 3500 
L 1159 3500 
L 1159 2956 
Q 1366 3272 1645 3428 
Q 1925 3584 2291 3584 
Q 2894 3584 3203 3211 
Q 3513 2838 3513 2113 
z
" transform="scale(0.015625)"/>
       <path id="DejaVuSans-77" d="M 269 3500 
L 844 3500 
L 1563 769 
L 2278 3500 
L 2956 3500 
L 3675 769 
L 4391 3500 
L 4966 3500 
L 4050 0 
L 3372 0 
L 2619 2869 
L 1863 0 
L 1184 0 
L 269 3500 
z
" transform="scale(0.015625)"/>
      </defs>
      <use xlink:href="#DejaVuSans-4d"/>
      <use xlink:href="#DejaVuSans-65" x="86.279297"/>
      <use xlink:href="#DejaVuSans-64" x="147.802734"/>
      <use xlink:href="#DejaVuSans-69" x="211.279297"/>
      <use xlink:href="#DejaVuSans-61" x="239.0625"/>
      <use xlink:href="#DejaVuSans-6e" x="300.341797"/>
      <use xlink:href="#DejaVuSans-20" x="363.720703"/>
      <use xlink:href="#DejaVuSans-72" x="395.507812"/>
      <use xlink:href="#DejaVuSans-65" x="434.371094"/>
      <use xlink:href="#DejaVuSans-77" x="495.894531"/>
      <use xlink:href="#DejaVuSans-61" x="577.681641"/>
      <use xlink:href="#DejaVuSans-72" x="638.960938"/>
      <use xlink:href="#DejaVuSans-64" x="678.324219"/>
     </g>
    </g>
   </g>
   <g id="line2d_37">
    <path d="M 73.832727 268.654478 
L 73.995217 270.276541 
L 74.157707 266.491727 
L 74.320197 265.410351 
L 74.645176 256.218658 
L 74.807666 256.604864 
L 74.970156 257.300034 
L 75.295135 256.326796 
L 75.457625 256.562732 
L 75.620115 255.407627 
L 75.782604 255.428422 
L 75.945094 255.214524 
L 76.107584 256.110521 
L 76.270074 255.677971 
L 76.432563 254.723816 
L 76.757543 255.507227 
L 76.920033 255.191352 
L 77.082523 254.596595 
L 77.245012 253.466066 
L 77.407502 253.703285 
L 77.732482 254.89938 
L 77.894971 254.929326 
L 78.057461 255.437665 
L 78.219951 255.446247 
L 78.382441 255.118638 
L 78.54493 255.569833 
L 78.70742 255.573321 
L 78.86991 255.982107 
L 79.0324 255.481357 
L 79.194889 255.582555 
L 79.357379 255.399903 
L 79.519869 255.497741 
L 79.682359 255.239575 
L 80.007338 255.428422 
L 80.169828 255.840177 
L 80.332318 255.598846 
L 80.657297 255.82886 
L 80.982277 256.110521 
L 81.144767 256.171642 
L 81.307256 256.575282 
L 81.632236 256.538657 
L 81.794726 256.780974 
L 81.957215 256.632126 
L 82.119705 256.239454 
L 82.282195 256.4737 
L 82.607174 256.267812 
L 82.769664 256.025556 
L 82.932154 256.190201 
L 83.094644 256.125436 
L 83.257133 256.282808 
L 83.419623 256.16459 
L 83.582113 255.731153 
L 83.907093 255.986935 
L 84.394562 256.071198 
L 84.557052 255.92007 
L 84.719541 256.298171 
L 84.882031 256.289183 
L 85.207011 255.997814 
L 85.53199 256.122372 
L 85.69448 256.028687 
L 85.85697 256.110521 
L 86.344439 256.634572 
L 86.669419 256.610657 
L 86.831908 256.599142 
L 87.156888 256.733289 
L 87.319378 256.759346 
L 87.481867 256.555793 
L 87.644357 256.545586 
L 88.294316 256.038429 
L 88.619296 256.277429 
L 88.944275 256.230162 
L 89.106765 256.190201 
L 89.431744 255.778304 
L 89.919214 256.099707 
L 91.869091 255.938659 
L 92.35656 255.79081 
L 92.51905 255.873737 
L 92.844029 255.677971 
L 93.006519 255.814278 
L 93.656478 255.651596 
L 93.981458 255.262722 
L 94.143948 255.188777 
L 94.468927 255.500557 
L 96.418804 255.608454 
L 97.068763 255.813143 
L 97.556233 255.655902 
L 97.881212 255.547335 
L 98.043702 255.483323 
L 98.206192 255.613518 
L 98.693661 255.551576 
L 98.856151 255.657041 
L 99.50611 255.535147 
L 99.831089 255.617521 
L 99.993579 255.657945 
L 100.156069 255.578458 
L 100.318559 255.183439 
L 100.643538 255.306655 
L 100.968518 255.253144 
L 101.455987 255.317512 
L 101.943456 255.454238 
L 102.105946 255.344289 
L 102.430925 255.384716 
L 102.918395 255.443673 
L 103.243374 255.446247 
L 103.568354 255.325348 
L 104.055823 255.48714 
L 104.380803 255.386171 
L 105.355741 255.72788 
L 105.518231 255.661419 
L 105.84321 255.759893 
L 106.818149 255.61436 
L 107.468108 255.709164 
L 107.955577 255.647221 
L 108.118067 255.570853 
L 108.768026 255.738047 
L 109.255495 255.885358 
L 109.417985 255.928653 
L 109.742965 255.736423 
L 110.067944 255.851763 
L 110.392924 255.807161 
L 110.717903 255.47877 
L 111.367862 255.398304 
L 112.667781 255.299489 
L 112.83027 255.260676 
L 112.99276 255.342834 
L 113.642719 255.216408 
L 114.780147 255.306114 
L 114.942637 255.192629 
L 116.080066 255.404519 
L 116.405045 255.307918 
L 116.730025 255.384163 
L 117.055004 255.155508 
L 117.379984 255.123213 
L 117.867453 255.093551 
L 119.492351 255.252323 
L 120.629779 255.285083 
L 121.929697 255.372127 
L 124.367043 255.137283 
L 125.017002 255.215991 
L 125.991941 255.0634 
L 127.291859 255.09796 
L 128.591777 255.159678 
L 129.079247 255.107156 
L 130.216675 255.137283 
L 131.191613 255.210596 
L 131.516593 255.167659 
L 132.004062 255.063484 
L 133.30398 254.961964 
L 133.79145 254.985306 
L 134.928878 254.748619 
L 135.741327 254.760783 
L 137.691204 254.434663 
L 138.016183 254.309867 
L 139.478591 254.284198 
L 139.641081 254.119831 
L 140.29104 254.071732 
L 140.940999 253.985383 
L 141.265979 253.829754 
L 145.328223 253.647633 
L 145.815692 253.559059 
L 146.465651 253.53453 
L 146.95312 253.347378 
L 147.603079 253.296568 
L 148.253038 253.25371 
L 148.578018 253.074225 
L 148.902998 253.008398 
L 150.040426 252.903207 
L 152.802752 252.513781 
L 153.127731 252.526723 
L 157.352465 252.093683 
L 158.002424 251.940036 
L 158.489894 251.949089 
L 159.627322 251.704069 
L 159.952301 251.700708 
L 160.277281 251.599988 
L 168.07679 250.697315 
L 168.401769 250.614239 
L 174.088911 249.845891 
L 175.713808 249.675303 
L 176.038788 249.493532 
L 176.851237 249.440051 
L 177.013726 249.281532 
L 177.663686 249.311372 
L 178.801114 249.134562 
L 179.126093 248.989771 
L 180.263522 248.799037 
L 180.426011 248.616933 
L 181.56344 248.505714 
L 181.888419 248.395734 
L 182.375889 248.321707 
L 182.863358 248.20972 
L 183.025848 247.999079 
L 184.325766 247.827279 
L 184.975725 247.631589 
L 185.463194 247.614807 
L 186.275643 247.513819 
L 186.438133 247.385347 
L 187.088092 247.344562 
L 187.900541 247.210015 
L 188.38801 247.09436 
L 188.5505 247.074381 
L 188.712989 246.889503 
L 193.100213 246.413451 
L 193.425192 246.302136 
L 196.025029 245.941282 
L 196.350008 245.756528 
L 197.162457 245.727892 
L 199.274824 245.597256 
L 199.762293 245.560977 
L 202.849599 245.121296 
L 203.824537 245.018118 
L 204.474496 244.837348 
L 205.124455 244.706486 
L 205.936904 244.686199 
L 206.911843 244.616289 
L 207.561802 244.528253 
L 208.211761 244.405805 
L 208.53674 244.300075 
L 209.02421 244.294318 
L 209.999148 244.22106 
L 211.949025 243.917534 
L 212.598984 243.72213 
L 212.761474 243.724728 
L 213.086454 243.574882 
L 213.573923 243.515321 
L 214.873841 243.377167 
L 216.498739 243.118513 
L 217.473677 243.027709 
L 217.798657 242.840445 
L 223.160819 242.013849 
L 225.273186 241.567931 
L 226.573104 241.415534 
L 226.898084 241.325376 
L 228.035512 241.250143 
L 228.522981 241.152588 
L 229.33543 241.0794 
L 229.985389 240.900669 
L 231.447797 240.7169 
L 232.097756 240.598604 
L 232.422735 240.576344 
L 233.397674 240.331898 
L 234.372613 240.13962 
L 235.022572 240.006192 
L 235.347551 239.933359 
L 236.16 239.859608 
L 236.48498 239.703398 
L 237.784898 239.601877 
L 242.334611 239.079167 
L 243.30955 238.708453 
L 244.121998 238.517189 
L 244.609468 238.421189 
L 245.421916 238.343223 
L 245.746896 238.189094 
L 246.884324 238.039172 
L 247.859263 237.883693 
L 248.346732 237.869978 
L 249.159181 237.537895 
L 250.13412 237.423036 
L 251.271548 237.281723 
L 251.596527 237.16719 
L 252.083997 237.096628 
L 252.408976 236.959359 
L 253.058935 236.892008 
L 253.708894 236.85735 
L 253.871384 236.666627 
L 254.521343 236.664997 
L 254.846323 236.58563 
L 255.333792 236.491775 
L 255.821261 236.340544 
L 255.983751 236.331756 
L 256.308731 236.141054 
L 256.95869 236.000386 
L 257.283669 235.903151 
L 259.883505 235.570612 
L 260.045995 235.54006 
L 260.370975 235.321004 
L 261.020934 235.228436 
L 262.483342 235.057385 
L 262.808321 234.816897 
L 263.62077 234.742391 
L 263.945749 234.659021 
L 264.595708 234.5732 
L 265.083178 234.423157 
L 266.545586 234.073234 
L 267.195545 233.862511 
L 269.795381 233.396437 
L 270.28285 233.23183 
L 270.60783 233.169833 
L 270.932809 232.763319 
L 271.095299 232.752808 
L 271.420278 232.614548 
L 272.882686 232.54306 
L 273.207666 232.419589 
L 275.969992 231.958062 
L 276.294971 231.637092 
L 277.919869 231.376699 
L 278.894808 231.052916 
L 280.519705 230.830966 
L 281.819623 230.740487 
L 281.982113 230.554967 
L 282.794562 230.473601 
L 283.282031 230.361207 
L 284.25697 230.233102 
L 285.231908 229.971629 
L 285.556888 229.732419 
L 286.369337 229.690259 
L 286.694316 229.40574 
L 287.344275 229.293228 
L 288.319214 229.106091 
L 288.969173 228.760287 
L 289.619132 228.66555 
L 289.944111 228.457528 
L 290.431581 228.421469 
L 290.91905 228.261823 
L 291.893989 228.009893 
L 292.218968 227.973851 
L 292.543948 227.776553 
L 292.706437 227.542149 
L 293.518886 227.449511 
L 293.681376 227.42244 
L 293.843866 227.189509 
L 294.331335 227.13061 
L 295.793743 226.663563 
L 296.118722 226.660927 
L 296.606192 226.386248 
L 297.093661 226.244893 
L 297.41864 226.120371 
L 298.556069 225.75887 
L 299.206028 225.625389 
L 299.855987 225.483353 
L 300.018477 225.015965 
L 300.993415 224.781083 
L 301.480885 224.481595 
L 301.805864 224.299593 
L 302.130844 224.309618 
L 302.618313 224.00111 
L 302.943292 223.979334 
L 303.268272 223.799201 
L 303.593251 223.706699 
L 303.918231 223.477093 
L 304.24321 223.399023 
L 306.193088 223.003198 
L 306.518067 222.70922 
L 306.843047 222.732563 
L 307.168026 222.536856 
L 307.817985 222.340684 
L 308.467944 222.273567 
L 309.930352 222.009557 
L 310.255332 221.726044 
L 310.905291 221.607973 
L 311.067781 221.509166 
L 311.23027 221.217444 
L 311.39276 221.20552 
L 311.71774 220.975778 
L 312.042719 220.830697 
L 312.855168 220.376052 
L 313.017658 220.389006 
L 313.342637 220.115742 
L 313.505127 219.834325 
L 317.892351 218.460087 
L 318.21733 218.168967 
L 318.867289 218.062008 
L 319.192269 218.032358 
L 319.679738 217.479127 
L 319.842228 217.465797 
L 320.167207 217.268108 
L 320.817166 217.040655 
L 321.142146 216.842172 
L 321.954595 216.277116 
L 322.117084 216.283789 
L 322.279574 216.161113 
L 322.442064 215.894508 
L 322.604554 215.87389 
L 322.929533 215.627596 
L 323.417002 215.378612 
L 323.579492 215.229742 
L 323.904472 215.141131 
L 324.554431 214.750285 
L 325.0419 214.628337 
L 325.36688 214.515886 
L 325.691859 213.734402 
L 326.016839 213.516855 
L 326.504308 212.636997 
L 327.479247 212.482484 
L 327.804226 212.257698 
L 328.291695 212.108954 
L 329.104144 211.975125 
L 329.591613 211.644356 
L 329.916593 211.521228 
L 330.241572 211.381977 
L 331.054021 210.505962 
L 331.216511 210.483293 
L 331.379001 210.178376 
L 332.02896 209.86029 
L 332.841409 208.746947 
L 333.166388 208.671649 
L 334.303817 207.412483 
L 334.791286 207.244186 
L 334.953776 207.195625 
L 335.278755 206.810539 
L 335.603735 206.70212 
L 336.091204 206.584187 
L 336.416183 206.522527 
L 336.903653 206.15297 
L 337.066143 206.079454 
L 337.228632 205.874023 
L 337.553612 205.855454 
L 338.041081 205.343159 
L 338.203571 205.286398 
L 338.69104 204.505898 
L 338.85353 204.45774 
L 339.01602 203.938816 
L 339.340999 203.873134 
L 339.990958 203.574008 
L 340.315938 202.937681 
L 340.640917 202.774812 
L 340.803407 202.151851 
L 341.128387 201.741898 
L 341.453366 200.809313 
L 341.615856 200.793404 
L 342.265815 199.611295 
L 342.753284 199.227029 
L 343.240753 198.93215 
L 343.565733 198.859853 
L 344.053202 198.238989 
L 344.378182 198.000277 
L 344.703161 197.954685 
L 344.865651 197.80267 
L 345.028141 197.384702 
L 345.51561 197.114985 
L 346.328059 196.400156 
L 347.302998 194.347791 
L 347.952957 193.601373 
L 348.115446 193.567059 
L 348.602916 192.313961 
L 348.765405 192.184679 
L 349.252875 190.902551 
L 349.415364 190.839403 
L 350.065324 189.210561 
L 350.227813 189.230552 
L 350.552793 188.823066 
L 351.202752 188.698528 
L 351.365242 188.177733 
L 351.690221 188.140976 
L 352.015201 187.735008 
L 352.34018 187.258106 
L 352.66516 186.914574 
L 352.990139 186.211383 
L 353.315119 185.423115 
L 353.477609 184.160234 
L 353.640098 183.817643 
L 353.965078 182.563815 
L 354.290057 181.46129 
L 354.615037 181.168126 
L 354.777527 180.704887 
L 355.102506 180.621013 
L 355.264996 180.282441 
L 355.589975 178.78749 
L 355.752465 178.764507 
L 355.914955 178.506226 
L 356.239934 177.501789 
L 356.564914 176.995317 
L 357.052383 176.50007 
L 357.539853 174.957336 
L 357.864832 174.595203 
L 358.027322 174.357907 
L 358.514791 174.24539 
L 358.677281 173.975542 
L 358.839771 173.988823 
L 360.627158 169.59839 
L 360.952138 169.226027 
L 361.277117 169.017629 
L 361.602097 168.820685 
L 361.927076 168.690019 
L 362.089566 168.300384 
L 362.252056 167.323007 
L 362.577035 167.132284 
L 362.902015 166.017959 
L 363.226994 165.894667 
L 363.389484 165.095326 
L 363.876953 165.06039 
L 364.364423 165.101732 
L 364.851892 164.980005 
L 365.014382 164.985356 
L 365.176871 164.808061 
L 365.339361 164.292996 
L 365.664341 162.674252 
L 365.82683 162.343467 
L 365.98932 162.274528 
L 366.15181 162.016424 
L 366.639279 160.61048 
L 366.801769 160.589448 
L 366.964259 160.424655 
L 367.126749 160.044488 
L 367.451728 159.902662 
L 367.939197 159.463008 
L 368.101687 158.567218 
L 368.264177 156.926249 
L 368.426667 156.699911 
L 368.914136 155.583178 
L 369.076626 155.343801 
L 369.239115 154.831818 
L 369.889075 154.775482 
L 370.214054 154.416773 
L 370.376544 154.429589 
L 371.026503 153.782251 
L 371.188993 151.991708 
L 371.351482 151.770288 
L 372.163931 148.994409 
L 372.488911 148.04317 
L 372.6514 145.781411 
L 372.81389 145.481625 
L 372.97638 145.49742 
L 373.13887 145.155868 
L 373.30136 144.165509 
L 373.463849 143.897141 
L 373.788829 140.960236 
L 374.113808 140.207057 
L 374.601278 136.9135 
L 374.763767 136.685219 
L 375.901196 132.852887 
L 376.713645 132.263732 
L 377.201114 128.632545 
L 377.363604 128.499173 
L 377.688583 127.946762 
L 378.013563 126.543363 
L 378.663522 126.146225 
L 378.988501 126.000949 
L 379.313481 126.068118 
L 379.80095 124.891789 
L 380.12593 124.600453 
L 380.450909 123.931712 
L 380.775889 123.382821 
L 381.100868 121.146157 
L 382.075807 118.956313 
L 382.563276 118.887084 
L 382.725766 118.292099 
L 382.888256 118.272237 
L 383.050745 116.684856 
L 383.213235 116.616473 
L 383.375725 116.029033 
L 384.188174 110.973956 
L 384.513153 110.372292 
L 384.675643 109.271916 
L 384.838133 109.15694 
L 385.000622 107.470815 
L 385.325602 106.661254 
L 385.650581 103.704145 
L 385.975561 103.016653 
L 386.138051 103.004942 
L 386.300541 102.779103 
L 386.46303 102.243411 
L 386.78801 102.134979 
L 387.600459 99.346991 
L 388.412907 94.081263 
L 388.575397 93.80642 
L 389.387846 91.483077 
L 390.037805 90.953973 
L 390.200295 90.657165 
L 390.362785 90.671926 
L 390.687764 87.700043 
L 390.850254 82.476166 
L 391.012744 81.40042 
L 391.337723 78.027594 
L 391.662703 75.886704 
L 391.987682 75.914593 
L 392.150172 75.387277 
L 392.475152 72.836204 
L 392.637641 70.858594 
L 392.962621 70.660382 
L 393.2876 68.747325 
L 393.45009 68.664279 
L 394.425029 68.927032 
L 394.587518 68.722637 
L 395.074988 66.070402 
L 395.399967 63.969736 
L 395.562457 60.766703 
L 395.724947 60.436204 
L 396.374906 56.379792 
L 396.699885 55.955293 
L 397.024865 56.015821 
L 397.349844 55.869398 
L 397.674824 55.253081 
L 398.487273 52.367454 
L 398.487273 52.367454 
" clip-path="url(#pc93e06598b)" style="fill: none; stroke: #d62728; stroke-width: 1.5; stroke-linecap: square"/>
   </g>
   <g id="patch_3">
    <path d="M 57.6 307.584 
L 57.6 41.472 
" style="fill: none; stroke: #ffffff; stroke-linejoin: miter; stroke-linecap: square"/>
   </g>
   <g id="patch_4">
    <path d="M 414.72 307.584 
L 414.72 41.472 
" style="fill: none; stroke: #ffffff; stroke-linejoin: miter; stroke-linecap: square"/>
   </g>
   <g id="patch_5">
    <path d="M 57.6 307.584 
L 414.72 307.584 
" style="fill: none; stroke: #ffffff; stroke-linejoin: miter; stroke-linecap: square"/>
   </g>
   <g id="patch_6">
    <path d="M 57.6 41.472 
L 414.72 41.472 
" style="fill: none; stroke: #ffffff; stroke-linejoin: miter; stroke-linecap: square"/>
   </g>
   <g id="text_21">
    <!-- 78.67033516758379 -->
    <g transform="translate(398.487273 52.367454) scale(0.1 -0.1)">
     <defs>
      <path id="DejaVuSans-2e" d="M 684 794 
L 1344 794 
L 1344 0 
L 684 0 
L 684 794 
z
" transform="scale(0.015625)"/>
      <path id="DejaVuSans-39" d="M 703 97 
L 703 672 
Q 941 559 1184 500 
Q 1428 441 1663 441 
Q 2288 441 2617 861 
Q 2947 1281 2994 2138 
Q 2813 1869 2534 1725 
Q 2256 1581 1919 1581 
Q 1219 1581 811 2004 
Q 403 2428 403 3163 
Q 403 3881 828 4315 
Q 1253 4750 1959 4750 
Q 2769 4750 3195 4129 
Q 3622 3509 3622 2328 
Q 3622 1225 3098 567 
Q 2575 -91 1691 -91 
Q 1453 -91 1209 -44 
Q 966 3 703 97 
z
M 1959 2075 
Q 2384 2075 2632 2365 
Q 2881 2656 2881 3163 
Q 2881 3666 2632 3958 
Q 2384 4250 1959 4250 
Q 1534 4250 1286 3958 
Q 1038 3666 1038 3163 
Q 1038 2656 1286 2365 
Q 1534 2075 1959 2075 
z
" transform="scale(0.015625)"/>
     </defs>
     <use xlink:href="#DejaVuSans-37"/>
     <use xlink:href="#DejaVuSans-38" x="63.623047"/>
     <use xlink:href="#DejaVuSans-2e" x="127.246094"/>
     <use xlink:href="#DejaVuSans-36" x="159.033203"/>
     <use xlink:href="#DejaVuSans-37" x="222.65625"/>
     <use xlink:href="#DejaVuSans-30" x="286.279297"/>
     <use xlink:href="#DejaVuSans-33" x="349.902344"/>
     <use xlink:href="#DejaVuSans-33" x="413.525391"/>
     <use xlink:href="#DejaVuSans-35" x="477.148438"/>
     <use xlink:href="#DejaVuSans-31" x="540.771484"/>
     <use xlink:href="#DejaVuSans-36" x="604.394531"/>
     <use xlink:href="#DejaVuSans-37" x="668.017578"/>
     <use xlink:href="#DejaVuSans-35" x="731.640625"/>
     <use xlink:href="#DejaVuSans-38" x="795.263672"/>
     <use xlink:href="#DejaVuSans-33" x="858.886719"/>
     <use xlink:href="#DejaVuSans-37" x="922.509766"/>
     <use xlink:href="#DejaVuSans-39" x="986.132812"/>
    </g>
   </g>
   <g id="text_22">
    <!-- Epoch: 2000 -->
    <g transform="translate(191.0745 35.472) scale(0.144 -0.144)">
     <defs>
      <path id="DejaVuSans-45" d="M 628 4666 
L 3578 4666 
L 3578 4134 
L 1259 4134 
L 1259 2753 
L 3481 2753 
L 3481 2222 
L 1259 2222 
L 1259 531 
L 3634 531 
L 3634 0 
L 628 0 
L 628 4666 
z
" transform="scale(0.015625)"/>
      <path id="DejaVuSans-70" d="M 1159 525 
L 1159 -1331 
L 581 -1331 
L 581 3500 
L 1159 3500 
L 1159 2969 
Q 1341 3281 1617 3432 
Q 1894 3584 2278 3584 
Q 2916 3584 3314 3078 
Q 3713 2572 3713 1747 
Q 3713 922 3314 415 
Q 2916 -91 2278 -91 
Q 1894 -91 1617 61 
Q 1341 213 1159 525 
z
M 3116 1747 
Q 3116 2381 2855 2742 
Q 2594 3103 2138 3103 
Q 1681 3103 1420 2742 
Q 1159 2381 1159 1747 
Q 1159 1113 1420 752 
Q 1681 391 2138 391 
Q 2594 391 2855 752 
Q 3116 1113 3116 1747 
z
" transform="scale(0.015625)"/>
      <path id="DejaVuSans-63" d="M 3122 3366 
L 3122 2828 
Q 2878 2963 2633 3030 
Q 2388 3097 2138 3097 
Q 1578 3097 1268 2742 
Q 959 2388 959 1747 
Q 959 1106 1268 751 
Q 1578 397 2138 397 
Q 2388 397 2633 464 
Q 2878 531 3122 666 
L 3122 134 
Q 2881 22 2623 -34 
Q 2366 -91 2075 -91 
Q 1284 -91 818 406 
Q 353 903 353 1747 
Q 353 2603 823 3093 
Q 1294 3584 2113 3584 
Q 2378 3584 2631 3529 
Q 2884 3475 3122 3366 
z
" transform="scale(0.015625)"/>
      <path id="DejaVuSans-68" d="M 3513 2113 
L 3513 0 
L 2938 0 
L 2938 2094 
Q 2938 2591 2744 2837 
Q 2550 3084 2163 3084 
Q 1697 3084 1428 2787 
Q 1159 2491 1159 1978 
L 1159 0 
L 581 0 
L 581 4863 
L 1159 4863 
L 1159 2956 
Q 1366 3272 1645 3428 
Q 1925 3584 2291 3584 
Q 2894 3584 3203 3211 
Q 3513 2838 3513 2113 
z
" transform="scale(0.015625)"/>
      <path id="DejaVuSans-3a" d="M 750 794 
L 1409 794 
L 1409 0 
L 750 0 
L 750 794 
z
M 750 3309 
L 1409 3309 
L 1409 2516 
L 750 2516 
L 750 3309 
z
" transform="scale(0.015625)"/>
     </defs>
     <use xlink:href="#DejaVuSans-45"/>
     <use xlink:href="#DejaVuSans-70" x="63.183594"/>
     <use xlink:href="#DejaVuSans-6f" x="126.660156"/>
     <use xlink:href="#DejaVuSans-63" x="187.841797"/>
     <use xlink:href="#DejaVuSans-68" x="242.822266"/>
     <use xlink:href="#DejaVuSans-3a" x="306.201172"/>
     <use xlink:href="#DejaVuSans-20" x="339.892578"/>
     <use xlink:href="#DejaVuSans-32" x="371.679688"/>
     <use xlink:href="#DejaVuSans-30" x="435.302734"/>
     <use xlink:href="#DejaVuSans-30" x="498.925781"/>
     <use xlink:href="#DejaVuSans-30" x="562.548828"/>
    </g>
   </g>
  </g>
 </g>
 <defs>
  <clipPath id="pc93e06598b">
   <rect x="57.6" y="41.472" width="357.12" height="266.112"/>
  </clipPath>
 </defs>
</svg>
