<?xml version="1.0" encoding="utf-8" standalone="no"?>
<!DOCTYPE svg PUBLIC "-//W3C//DTD SVG 1.1//EN"
  "http://www.w3.org/Graphics/SVG/1.1/DTD/svg11.dtd">
<svg xmlns:xlink="http://www.w3.org/1999/xlink" width="460.8pt" height="345.6pt" viewBox="0 0 460.8 345.6" xmlns="http://www.w3.org/2000/svg" version="1.1">
 <metadata>
  <rdf:RDF xmlns:dc="http://purl.org/dc/elements/1.1/" xmlns:cc="http://creativecommons.org/ns#" xmlns:rdf="http://www.w3.org/1999/02/22-rdf-syntax-ns#">
   <cc:Work>
    <dc:type rdf:resource="http://purl.org/dc/dcmitype/StillImage"/>
    <dc:date>2024-09-09T13:34:27.091661</dc:date>
    <dc:format>image/svg+xml</dc:format>
    <dc:creator>
     <cc:Agent>
      <dc:title>Matplotlib v3.8.4, https://matplotlib.org/</dc:title>
     </cc:Agent>
    </dc:creator>
   </cc:Work>
  </rdf:RDF>
 </metadata>
 <defs>
  <style type="text/css">*{stroke-linejoin: round; stroke-linecap: butt}</style>
 </defs>
 <g id="figure_1">
  <g id="patch_1">
   <path d="M 0 345.6 
L 460.8 345.6 
L 460.8 0 
L 0 0 
z
" style="fill: #ffffff"/>
  </g>
  <g id="axes_1">
   <g id="patch_2">
    <path d="M 57.6 307.584 
L 414.72 307.584 
L 414.72 41.472 
L 57.6 41.472 
z
" style="fill: #e5e5e5"/>
   </g>
   <g id="matplotlib.axis_1">
    <g id="xtick_1">
     <g id="line2d_1">
      <path d="M 73.832727 307.584 
L 73.832727 41.472 
" clip-path="url(#p9c0b7ad609)" style="fill: none; stroke: #ffffff; stroke-width: 0.8; stroke-linecap: square"/>
     </g>
     <g id="line2d_2">
      <defs>
       <path id="m09b26210a2" d="M 0 0 
L 0 3.5 
" style="stroke: #555555; stroke-width: 0.8"/>
      </defs>
      <g>
       <use xlink:href="#m09b26210a2" x="73.832727" y="307.584" style="fill: #555555; stroke: #555555; stroke-width: 0.8"/>
      </g>
     </g>
     <g id="text_1">
      <!-- 0 -->
      <g style="fill: #555555" transform="translate(70.651477 322.182437) scale(0.1 -0.1)">
       <defs>
        <path id="DejaVuSans-30" d="M 2034 4250 
Q 1547 4250 1301 3770 
Q 1056 3291 1056 2328 
Q 1056 1369 1301 889 
Q 1547 409 2034 409 
Q 2525 409 2770 889 
Q 3016 1369 3016 2328 
Q 3016 3291 2770 3770 
Q 2525 4250 2034 4250 
z
M 2034 4750 
Q 2819 4750 3233 4129 
Q 3647 3509 3647 2328 
Q 3647 1150 3233 529 
Q 2819 -91 2034 -91 
Q 1250 -91 836 529 
Q 422 1150 422 2328 
Q 422 3509 836 4129 
Q 1250 4750 2034 4750 
z
" transform="scale(0.015625)"/>
       </defs>
       <use xlink:href="#DejaVuSans-30"/>
      </g>
     </g>
    </g>
    <g id="xtick_2">
     <g id="line2d_3">
      <path d="M 138.789619 307.584 
L 138.789619 41.472 
" clip-path="url(#p9c0b7ad609)" style="fill: none; stroke: #ffffff; stroke-width: 0.8; stroke-linecap: square"/>
     </g>
     <g id="line2d_4">
      <g>
       <use xlink:href="#m09b26210a2" x="138.789619" y="307.584" style="fill: #555555; stroke: #555555; stroke-width: 0.8"/>
      </g>
     </g>
     <g id="text_2">
      <!-- 1000 -->
      <g style="fill: #555555" transform="translate(126.064619 322.182437) scale(0.1 -0.1)">
       <defs>
        <path id="DejaVuSans-31" d="M 794 531 
L 1825 531 
L 1825 4091 
L 703 3866 
L 703 4441 
L 1819 4666 
L 2450 4666 
L 2450 531 
L 3481 531 
L 3481 0 
L 794 0 
L 794 531 
z
" transform="scale(0.015625)"/>
       </defs>
       <use xlink:href="#DejaVuSans-31"/>
       <use xlink:href="#DejaVuSans-30" x="63.623047"/>
       <use xlink:href="#DejaVuSans-30" x="127.246094"/>
       <use xlink:href="#DejaVuSans-30" x="190.869141"/>
      </g>
     </g>
    </g>
    <g id="xtick_3">
     <g id="line2d_5">
      <path d="M 203.746511 307.584 
L 203.746511 41.472 
" clip-path="url(#p9c0b7ad609)" style="fill: none; stroke: #ffffff; stroke-width: 0.8; stroke-linecap: square"/>
     </g>
     <g id="line2d_6">
      <g>
       <use xlink:href="#m09b26210a2" x="203.746511" y="307.584" style="fill: #555555; stroke: #555555; stroke-width: 0.8"/>
      </g>
     </g>
     <g id="text_3">
      <!-- 2000 -->
      <g style="fill: #555555" transform="translate(191.021511 322.182437) scale(0.1 -0.1)">
       <defs>
        <path id="DejaVuSans-32" d="M 1228 531 
L 3431 531 
L 3431 0 
L 469 0 
L 469 531 
Q 828 903 1448 1529 
Q 2069 2156 2228 2338 
Q 2531 2678 2651 2914 
Q 2772 3150 2772 3378 
Q 2772 3750 2511 3984 
Q 2250 4219 1831 4219 
Q 1534 4219 1204 4116 
Q 875 4013 500 3803 
L 500 4441 
Q 881 4594 1212 4672 
Q 1544 4750 1819 4750 
Q 2544 4750 2975 4387 
Q 3406 4025 3406 3419 
Q 3406 3131 3298 2873 
Q 3191 2616 2906 2266 
Q 2828 2175 2409 1742 
Q 1991 1309 1228 531 
z
" transform="scale(0.015625)"/>
       </defs>
       <use xlink:href="#DejaVuSans-32"/>
       <use xlink:href="#DejaVuSans-30" x="63.623047"/>
       <use xlink:href="#DejaVuSans-30" x="127.246094"/>
       <use xlink:href="#DejaVuSans-30" x="190.869141"/>
      </g>
     </g>
    </g>
    <g id="xtick_4">
     <g id="line2d_7">
      <path d="M 268.703403 307.584 
L 268.703403 41.472 
" clip-path="url(#p9c0b7ad609)" style="fill: none; stroke: #ffffff; stroke-width: 0.8; stroke-linecap: square"/>
     </g>
     <g id="line2d_8">
      <g>
       <use xlink:href="#m09b26210a2" x="268.703403" y="307.584" style="fill: #555555; stroke: #555555; stroke-width: 0.8"/>
      </g>
     </g>
     <g id="text_4">
      <!-- 3000 -->
      <g style="fill: #555555" transform="translate(255.978403 322.182437) scale(0.1 -0.1)">
       <defs>
        <path id="DejaVuSans-33" d="M 2597 2516 
Q 3050 2419 3304 2112 
Q 3559 1806 3559 1356 
Q 3559 666 3084 287 
Q 2609 -91 1734 -91 
Q 1441 -91 1130 -33 
Q 819 25 488 141 
L 488 750 
Q 750 597 1062 519 
Q 1375 441 1716 441 
Q 2309 441 2620 675 
Q 2931 909 2931 1356 
Q 2931 1769 2642 2001 
Q 2353 2234 1838 2234 
L 1294 2234 
L 1294 2753 
L 1863 2753 
Q 2328 2753 2575 2939 
Q 2822 3125 2822 3475 
Q 2822 3834 2567 4026 
Q 2313 4219 1838 4219 
Q 1578 4219 1281 4162 
Q 984 4106 628 3988 
L 628 4550 
Q 988 4650 1302 4700 
Q 1616 4750 1894 4750 
Q 2613 4750 3031 4423 
Q 3450 4097 3450 3541 
Q 3450 3153 3228 2886 
Q 3006 2619 2597 2516 
z
" transform="scale(0.015625)"/>
       </defs>
       <use xlink:href="#DejaVuSans-33"/>
       <use xlink:href="#DejaVuSans-30" x="63.623047"/>
       <use xlink:href="#DejaVuSans-30" x="127.246094"/>
       <use xlink:href="#DejaVuSans-30" x="190.869141"/>
      </g>
     </g>
    </g>
    <g id="xtick_5">
     <g id="line2d_9">
      <path d="M 333.660295 307.584 
L 333.660295 41.472 
" clip-path="url(#p9c0b7ad609)" style="fill: none; stroke: #ffffff; stroke-width: 0.8; stroke-linecap: square"/>
     </g>
     <g id="line2d_10">
      <g>
       <use xlink:href="#m09b26210a2" x="333.660295" y="307.584" style="fill: #555555; stroke: #555555; stroke-width: 0.8"/>
      </g>
     </g>
     <g id="text_5">
      <!-- 4000 -->
      <g style="fill: #555555" transform="translate(320.935295 322.182437) scale(0.1 -0.1)">
       <defs>
        <path id="DejaVuSans-34" d="M 2419 4116 
L 825 1625 
L 2419 1625 
L 2419 4116 
z
M 2253 4666 
L 3047 4666 
L 3047 1625 
L 3713 1625 
L 3713 1100 
L 3047 1100 
L 3047 0 
L 2419 0 
L 2419 1100 
L 313 1100 
L 313 1709 
L 2253 4666 
z
" transform="scale(0.015625)"/>
       </defs>
       <use xlink:href="#DejaVuSans-34"/>
       <use xlink:href="#DejaVuSans-30" x="63.623047"/>
       <use xlink:href="#DejaVuSans-30" x="127.246094"/>
       <use xlink:href="#DejaVuSans-30" x="190.869141"/>
      </g>
     </g>
    </g>
    <g id="xtick_6">
     <g id="line2d_11">
      <path d="M 398.617187 307.584 
L 398.617187 41.472 
" clip-path="url(#p9c0b7ad609)" style="fill: none; stroke: #ffffff; stroke-width: 0.8; stroke-linecap: square"/>
     </g>
     <g id="line2d_12">
      <g>
       <use xlink:href="#m09b26210a2" x="398.617187" y="307.584" style="fill: #555555; stroke: #555555; stroke-width: 0.8"/>
      </g>
     </g>
     <g id="text_6">
      <!-- 5000 -->
      <g style="fill: #555555" transform="translate(385.892187 322.182437) scale(0.1 -0.1)">
       <defs>
        <path id="DejaVuSans-35" d="M 691 4666 
L 3169 4666 
L 3169 4134 
L 1269 4134 
L 1269 2991 
Q 1406 3038 1543 3061 
Q 1681 3084 1819 3084 
Q 2600 3084 3056 2656 
Q 3513 2228 3513 1497 
Q 3513 744 3044 326 
Q 2575 -91 1722 -91 
Q 1428 -91 1123 -41 
Q 819 9 494 109 
L 494 744 
Q 775 591 1075 516 
Q 1375 441 1709 441 
Q 2250 441 2565 725 
Q 2881 1009 2881 1497 
Q 2881 1984 2565 2268 
Q 2250 2553 1709 2553 
Q 1456 2553 1204 2497 
Q 953 2441 691 2322 
L 691 4666 
z
" transform="scale(0.015625)"/>
       </defs>
       <use xlink:href="#DejaVuSans-35"/>
       <use xlink:href="#DejaVuSans-30" x="63.623047"/>
       <use xlink:href="#DejaVuSans-30" x="127.246094"/>
       <use xlink:href="#DejaVuSans-30" x="190.869141"/>
      </g>
     </g>
    </g>
    <g id="text_7">
     <!-- Number of Games -->
     <g style="fill: #555555" transform="translate(181.471875 337.38025) scale(0.12 -0.12)">
      <defs>
       <path id="DejaVuSans-4e" d="M 628 4666 
L 1478 4666 
L 3547 763 
L 3547 4666 
L 4159 4666 
L 4159 0 
L 3309 0 
L 1241 3903 
L 1241 0 
L 628 0 
L 628 4666 
z
" transform="scale(0.015625)"/>
       <path id="DejaVuSans-75" d="M 544 1381 
L 544 3500 
L 1119 3500 
L 1119 1403 
Q 1119 906 1312 657 
Q 1506 409 1894 409 
Q 2359 409 2629 706 
Q 2900 1003 2900 1516 
L 2900 3500 
L 3475 3500 
L 3475 0 
L 2900 0 
L 2900 538 
Q 2691 219 2414 64 
Q 2138 -91 1772 -91 
Q 1169 -91 856 284 
Q 544 659 544 1381 
z
M 1991 3584 
L 1991 3584 
z
" transform="scale(0.015625)"/>
       <path id="DejaVuSans-6d" d="M 3328 2828 
Q 3544 3216 3844 3400 
Q 4144 3584 4550 3584 
Q 5097 3584 5394 3201 
Q 5691 2819 5691 2113 
L 5691 0 
L 5113 0 
L 5113 2094 
Q 5113 2597 4934 2840 
Q 4756 3084 4391 3084 
Q 3944 3084 3684 2787 
Q 3425 2491 3425 1978 
L 3425 0 
L 2847 0 
L 2847 2094 
Q 2847 2600 2669 2842 
Q 2491 3084 2119 3084 
Q 1678 3084 1418 2786 
Q 1159 2488 1159 1978 
L 1159 0 
L 581 0 
L 581 3500 
L 1159 3500 
L 1159 2956 
Q 1356 3278 1631 3431 
Q 1906 3584 2284 3584 
Q 2666 3584 2933 3390 
Q 3200 3197 3328 2828 
z
" transform="scale(0.015625)"/>
       <path id="DejaVuSans-62" d="M 3116 1747 
Q 3116 2381 2855 2742 
Q 2594 3103 2138 3103 
Q 1681 3103 1420 2742 
Q 1159 2381 1159 1747 
Q 1159 1113 1420 752 
Q 1681 391 2138 391 
Q 2594 391 2855 752 
Q 3116 1113 3116 1747 
z
M 1159 2969 
Q 1341 3281 1617 3432 
Q 1894 3584 2278 3584 
Q 2916 3584 3314 3078 
Q 3713 2572 3713 1747 
Q 3713 922 3314 415 
Q 2916 -91 2278 -91 
Q 1894 -91 1617 61 
Q 1341 213 1159 525 
L 1159 0 
L 581 0 
L 581 4863 
L 1159 4863 
L 1159 2969 
z
" transform="scale(0.015625)"/>
       <path id="DejaVuSans-65" d="M 3597 1894 
L 3597 1613 
L 953 1613 
Q 991 1019 1311 708 
Q 1631 397 2203 397 
Q 2534 397 2845 478 
Q 3156 559 3463 722 
L 3463 178 
Q 3153 47 2828 -22 
Q 2503 -91 2169 -91 
Q 1331 -91 842 396 
Q 353 884 353 1716 
Q 353 2575 817 3079 
Q 1281 3584 2069 3584 
Q 2775 3584 3186 3129 
Q 3597 2675 3597 1894 
z
M 3022 2063 
Q 3016 2534 2758 2815 
Q 2500 3097 2075 3097 
Q 1594 3097 1305 2825 
Q 1016 2553 972 2059 
L 3022 2063 
z
" transform="scale(0.015625)"/>
       <path id="DejaVuSans-72" d="M 2631 2963 
Q 2534 3019 2420 3045 
Q 2306 3072 2169 3072 
Q 1681 3072 1420 2755 
Q 1159 2438 1159 1844 
L 1159 0 
L 581 0 
L 581 3500 
L 1159 3500 
L 1159 2956 
Q 1341 3275 1631 3429 
Q 1922 3584 2338 3584 
Q 2397 3584 2469 3576 
Q 2541 3569 2628 3553 
L 2631 2963 
z
" transform="scale(0.015625)"/>
       <path id="DejaVuSans-20" transform="scale(0.015625)"/>
       <path id="DejaVuSans-6f" d="M 1959 3097 
Q 1497 3097 1228 2736 
Q 959 2375 959 1747 
Q 959 1119 1226 758 
Q 1494 397 1959 397 
Q 2419 397 2687 759 
Q 2956 1122 2956 1747 
Q 2956 2369 2687 2733 
Q 2419 3097 1959 3097 
z
M 1959 3584 
Q 2709 3584 3137 3096 
Q 3566 2609 3566 1747 
Q 3566 888 3137 398 
Q 2709 -91 1959 -91 
Q 1206 -91 779 398 
Q 353 888 353 1747 
Q 353 2609 779 3096 
Q 1206 3584 1959 3584 
z
" transform="scale(0.015625)"/>
       <path id="DejaVuSans-66" d="M 2375 4863 
L 2375 4384 
L 1825 4384 
Q 1516 4384 1395 4259 
Q 1275 4134 1275 3809 
L 1275 3500 
L 2222 3500 
L 2222 3053 
L 1275 3053 
L 1275 0 
L 697 0 
L 697 3053 
L 147 3053 
L 147 3500 
L 697 3500 
L 697 3744 
Q 697 4328 969 4595 
Q 1241 4863 1831 4863 
L 2375 4863 
z
" transform="scale(0.015625)"/>
       <path id="DejaVuSans-47" d="M 3809 666 
L 3809 1919 
L 2778 1919 
L 2778 2438 
L 4434 2438 
L 4434 434 
Q 4069 175 3628 42 
Q 3188 -91 2688 -91 
Q 1594 -91 976 548 
Q 359 1188 359 2328 
Q 359 3472 976 4111 
Q 1594 4750 2688 4750 
Q 3144 4750 3555 4637 
Q 3966 4525 4313 4306 
L 4313 3634 
Q 3963 3931 3569 4081 
Q 3175 4231 2741 4231 
Q 1884 4231 1454 3753 
Q 1025 3275 1025 2328 
Q 1025 1384 1454 906 
Q 1884 428 2741 428 
Q 3075 428 3337 486 
Q 3600 544 3809 666 
z
" transform="scale(0.015625)"/>
       <path id="DejaVuSans-61" d="M 2194 1759 
Q 1497 1759 1228 1600 
Q 959 1441 959 1056 
Q 959 750 1161 570 
Q 1363 391 1709 391 
Q 2188 391 2477 730 
Q 2766 1069 2766 1631 
L 2766 1759 
L 2194 1759 
z
M 3341 1997 
L 3341 0 
L 2766 0 
L 2766 531 
Q 2569 213 2275 61 
Q 1981 -91 1556 -91 
Q 1019 -91 701 211 
Q 384 513 384 1019 
Q 384 1609 779 1909 
Q 1175 2209 1959 2209 
L 2766 2209 
L 2766 2266 
Q 2766 2663 2505 2880 
Q 2244 3097 1772 3097 
Q 1472 3097 1187 3025 
Q 903 2953 641 2809 
L 641 3341 
Q 956 3463 1253 3523 
Q 1550 3584 1831 3584 
Q 2591 3584 2966 3190 
Q 3341 2797 3341 1997 
z
" transform="scale(0.015625)"/>
       <path id="DejaVuSans-73" d="M 2834 3397 
L 2834 2853 
Q 2591 2978 2328 3040 
Q 2066 3103 1784 3103 
Q 1356 3103 1142 2972 
Q 928 2841 928 2578 
Q 928 2378 1081 2264 
Q 1234 2150 1697 2047 
L 1894 2003 
Q 2506 1872 2764 1633 
Q 3022 1394 3022 966 
Q 3022 478 2636 193 
Q 2250 -91 1575 -91 
Q 1294 -91 989 -36 
Q 684 19 347 128 
L 347 722 
Q 666 556 975 473 
Q 1284 391 1588 391 
Q 1994 391 2212 530 
Q 2431 669 2431 922 
Q 2431 1156 2273 1281 
Q 2116 1406 1581 1522 
L 1381 1569 
Q 847 1681 609 1914 
Q 372 2147 372 2553 
Q 372 3047 722 3315 
Q 1072 3584 1716 3584 
Q 2034 3584 2315 3537 
Q 2597 3491 2834 3397 
z
" transform="scale(0.015625)"/>
      </defs>
      <use xlink:href="#DejaVuSans-4e"/>
      <use xlink:href="#DejaVuSans-75" x="74.804688"/>
      <use xlink:href="#DejaVuSans-6d" x="138.183594"/>
      <use xlink:href="#DejaVuSans-62" x="235.595703"/>
      <use xlink:href="#DejaVuSans-65" x="299.072266"/>
      <use xlink:href="#DejaVuSans-72" x="360.595703"/>
      <use xlink:href="#DejaVuSans-20" x="401.708984"/>
      <use xlink:href="#DejaVuSans-6f" x="433.496094"/>
      <use xlink:href="#DejaVuSans-66" x="494.677734"/>
      <use xlink:href="#DejaVuSans-20" x="529.882812"/>
      <use xlink:href="#DejaVuSans-47" x="561.669922"/>
      <use xlink:href="#DejaVuSans-61" x="639.160156"/>
      <use xlink:href="#DejaVuSans-6d" x="700.439453"/>
      <use xlink:href="#DejaVuSans-65" x="797.851562"/>
      <use xlink:href="#DejaVuSans-73" x="859.375"/>
     </g>
    </g>
   </g>
   <g id="matplotlib.axis_2">
    <g id="ytick_1">
     <g id="line2d_13">
      <path d="M 57.6 307.584 
L 414.72 307.584 
" clip-path="url(#p9c0b7ad609)" style="fill: none; stroke: #ffffff; stroke-width: 0.8; stroke-linecap: square"/>
     </g>
     <g id="line2d_14">
      <defs>
       <path id="mcf89cfc586" d="M 0 0 
L -3.5 0 
" style="stroke: #555555; stroke-width: 0.8"/>
      </defs>
      <g>
       <use xlink:href="#mcf89cfc586" x="57.6" y="307.584" style="fill: #555555; stroke: #555555; stroke-width: 0.8"/>
      </g>
     </g>
     <g id="text_8">
      <!-- 0 -->
      <g style="fill: #555555" transform="translate(44.2375 311.383219) scale(0.1 -0.1)">
       <use xlink:href="#DejaVuSans-30"/>
      </g>
     </g>
    </g>
    <g id="ytick_2">
     <g id="line2d_15">
      <path d="M 57.6 258.50026 
L 414.72 258.50026 
" clip-path="url(#p9c0b7ad609)" style="fill: none; stroke: #ffffff; stroke-width: 0.8; stroke-linecap: square"/>
     </g>
     <g id="line2d_16">
      <g>
       <use xlink:href="#mcf89cfc586" x="57.6" y="258.50026" style="fill: #555555; stroke: #555555; stroke-width: 0.8"/>
      </g>
     </g>
     <g id="text_9">
      <!-- 500 -->
      <g style="fill: #555555" transform="translate(31.5125 262.299478) scale(0.1 -0.1)">
       <use xlink:href="#DejaVuSans-35"/>
       <use xlink:href="#DejaVuSans-30" x="63.623047"/>
       <use xlink:href="#DejaVuSans-30" x="127.246094"/>
      </g>
     </g>
    </g>
    <g id="ytick_3">
     <g id="line2d_17">
      <path d="M 57.6 209.416519 
L 414.72 209.416519 
" clip-path="url(#p9c0b7ad609)" style="fill: none; stroke: #ffffff; stroke-width: 0.8; stroke-linecap: square"/>
     </g>
     <g id="line2d_18">
      <g>
       <use xlink:href="#mcf89cfc586" x="57.6" y="209.416519" style="fill: #555555; stroke: #555555; stroke-width: 0.8"/>
      </g>
     </g>
     <g id="text_10">
      <!-- 1000 -->
      <g style="fill: #555555" transform="translate(25.15 213.215738) scale(0.1 -0.1)">
       <use xlink:href="#DejaVuSans-31"/>
       <use xlink:href="#DejaVuSans-30" x="63.623047"/>
       <use xlink:href="#DejaVuSans-30" x="127.246094"/>
       <use xlink:href="#DejaVuSans-30" x="190.869141"/>
      </g>
     </g>
    </g>
    <g id="ytick_4">
     <g id="line2d_19">
      <path d="M 57.6 160.332779 
L 414.72 160.332779 
" clip-path="url(#p9c0b7ad609)" style="fill: none; stroke: #ffffff; stroke-width: 0.8; stroke-linecap: square"/>
     </g>
     <g id="line2d_20">
      <g>
       <use xlink:href="#mcf89cfc586" x="57.6" y="160.332779" style="fill: #555555; stroke: #555555; stroke-width: 0.8"/>
      </g>
     </g>
     <g id="text_11">
      <!-- 1500 -->
      <g style="fill: #555555" transform="translate(25.15 164.131997) scale(0.1 -0.1)">
       <use xlink:href="#DejaVuSans-31"/>
       <use xlink:href="#DejaVuSans-35" x="63.623047"/>
       <use xlink:href="#DejaVuSans-30" x="127.246094"/>
       <use xlink:href="#DejaVuSans-30" x="190.869141"/>
      </g>
     </g>
    </g>
    <g id="ytick_5">
     <g id="line2d_21">
      <path d="M 57.6 111.249038 
L 414.72 111.249038 
" clip-path="url(#p9c0b7ad609)" style="fill: none; stroke: #ffffff; stroke-width: 0.8; stroke-linecap: square"/>
     </g>
     <g id="line2d_22">
      <g>
       <use xlink:href="#mcf89cfc586" x="57.6" y="111.249038" style="fill: #555555; stroke: #555555; stroke-width: 0.8"/>
      </g>
     </g>
     <g id="text_12">
      <!-- 2000 -->
      <g style="fill: #555555" transform="translate(25.15 115.048257) scale(0.1 -0.1)">
       <use xlink:href="#DejaVuSans-32"/>
       <use xlink:href="#DejaVuSans-30" x="63.623047"/>
       <use xlink:href="#DejaVuSans-30" x="127.246094"/>
       <use xlink:href="#DejaVuSans-30" x="190.869141"/>
      </g>
     </g>
    </g>
    <g id="ytick_6">
     <g id="line2d_23">
      <path d="M 57.6 62.165298 
L 414.72 62.165298 
" clip-path="url(#p9c0b7ad609)" style="fill: none; stroke: #ffffff; stroke-width: 0.8; stroke-linecap: square"/>
     </g>
     <g id="line2d_24">
      <g>
       <use xlink:href="#mcf89cfc586" x="57.6" y="62.165298" style="fill: #555555; stroke: #555555; stroke-width: 0.8"/>
      </g>
     </g>
     <g id="text_13">
      <!-- 2500 -->
      <g style="fill: #555555" transform="translate(25.15 65.964517) scale(0.1 -0.1)">
       <use xlink:href="#DejaVuSans-32"/>
       <use xlink:href="#DejaVuSans-35" x="63.623047"/>
       <use xlink:href="#DejaVuSans-30" x="127.246094"/>
       <use xlink:href="#DejaVuSans-30" x="190.869141"/>
      </g>
     </g>
    </g>
    <g id="text_14">
     <!-- Median reward -->
     <g style="fill: #555555" transform="translate(18.654375 219.03675) rotate(-90) scale(0.12 -0.12)">
      <defs>
       <path id="DejaVuSans-4d" d="M 628 4666 
L 1569 4666 
L 2759 1491 
L 3956 4666 
L 4897 4666 
L 4897 0 
L 4281 0 
L 4281 4097 
L 3078 897 
L 2444 897 
L 1241 4097 
L 1241 0 
L 628 0 
L 628 4666 
z
" transform="scale(0.015625)"/>
       <path id="DejaVuSans-64" d="M 2906 2969 
L 2906 4863 
L 3481 4863 
L 3481 0 
L 2906 0 
L 2906 525 
Q 2725 213 2448 61 
Q 2172 -91 1784 -91 
Q 1150 -91 751 415 
Q 353 922 353 1747 
Q 353 2572 751 3078 
Q 1150 3584 1784 3584 
Q 2172 3584 2448 3432 
Q 2725 3281 2906 2969 
z
M 947 1747 
Q 947 1113 1208 752 
Q 1469 391 1925 391 
Q 2381 391 2643 752 
Q 2906 1113 2906 1747 
Q 2906 2381 2643 2742 
Q 2381 3103 1925 3103 
Q 1469 3103 1208 2742 
Q 947 2381 947 1747 
z
" transform="scale(0.015625)"/>
       <path id="DejaVuSans-69" d="M 603 3500 
L 1178 3500 
L 1178 0 
L 603 0 
L 603 3500 
z
M 603 4863 
L 1178 4863 
L 1178 4134 
L 603 4134 
L 603 4863 
z
" transform="scale(0.015625)"/>
       <path id="DejaVuSans-6e" d="M 3513 2113 
L 3513 0 
L 2938 0 
L 2938 2094 
Q 2938 2591 2744 2837 
Q 2550 3084 2163 3084 
Q 1697 3084 1428 2787 
Q 1159 2491 1159 1978 
L 1159 0 
L 581 0 
L 581 3500 
L 1159 3500 
L 1159 2956 
Q 1366 3272 1645 3428 
Q 1925 3584 2291 3584 
Q 2894 3584 3203 3211 
Q 3513 2838 3513 2113 
z
" transform="scale(0.015625)"/>
       <path id="DejaVuSans-77" d="M 269 3500 
L 844 3500 
L 1563 769 
L 2278 3500 
L 2956 3500 
L 3675 769 
L 4391 3500 
L 4966 3500 
L 4050 0 
L 3372 0 
L 2619 2869 
L 1863 0 
L 1184 0 
L 269 3500 
z
" transform="scale(0.015625)"/>
      </defs>
      <use xlink:href="#DejaVuSans-4d"/>
      <use xlink:href="#DejaVuSans-65" x="86.279297"/>
      <use xlink:href="#DejaVuSans-64" x="147.802734"/>
      <use xlink:href="#DejaVuSans-69" x="211.279297"/>
      <use xlink:href="#DejaVuSans-61" x="239.0625"/>
      <use xlink:href="#DejaVuSans-6e" x="300.341797"/>
      <use xlink:href="#DejaVuSans-20" x="363.720703"/>
      <use xlink:href="#DejaVuSans-72" x="395.507812"/>
      <use xlink:href="#DejaVuSans-65" x="434.371094"/>
      <use xlink:href="#DejaVuSans-77" x="495.894531"/>
      <use xlink:href="#DejaVuSans-61" x="577.681641"/>
      <use xlink:href="#DejaVuSans-72" x="638.960938"/>
      <use xlink:href="#DejaVuSans-64" x="678.324219"/>
     </g>
    </g>
   </g>
   <g id="line2d_25">
    <path d="M 73.832727 306.40599 
L 73.897684 306.455074 
L 74.222469 306.041368 
L 74.482296 306.040093 
L 74.742124 306.026409 
L 75.45665 305.990666 
L 75.976305 306.010433 
L 76.885701 306.039907 
L 95.333458 305.995875 
L 98.386432 305.986383 
L 103.518027 305.939802 
L 112.352164 305.851691 
L 120.79656 305.740106 
L 172.177462 304.857018 
L 175.55522 304.694919 
L 177.698797 304.576578 
L 178.543237 304.529306 
L 180.491944 304.412467 
L 181.206469 304.311474 
L 183.479961 304.13384 
L 184.584228 303.990011 
L 185.558581 303.887404 
L 185.948323 303.767519 
L 187.961986 303.509938 
L 188.741469 303.390973 
L 191.404702 303.10185 
L 191.989314 302.96139 
L 192.768796 302.869067 
L 195.82177 302.089286 
L 196.536296 302.010061 
L 196.926037 301.887128 
L 197.640563 301.7549 
L 200.173882 301.036693 
L 200.498666 300.930298 
L 200.693537 300.668568 
L 201.602934 300.354274 
L 202.252502 300.275783 
L 203.226856 299.958116 
L 204.655907 299.706096 
L 204.785821 299.327322 
L 204.980692 297.350866 
L 205.240519 297.060582 
L 206.4747 297.000219 
L 206.864442 296.590679 
L 206.994356 296.231656 
L 207.578968 296.056326 
L 207.773838 295.585583 
L 207.968709 294.663382 
L 208.683235 294.655291 
L 208.878105 294.119622 
L 208.943062 294.014858 
L 209.137933 292.876589 
L 209.592631 292.726298 
L 209.982373 292.719234 
L 210.761855 290.345949 
L 212.060993 290.269543 
L 212.255864 290.167146 
L 212.580648 290.104171 
L 213.425088 290.015354 
L 214.594312 289.546676 
L 214.919096 289.393606 
L 215.243881 288.924291 
L 216.478062 287.089293 
L 216.867803 286.433743 
L 217.192588 285.663041 
L 217.322501 285.494851 
L 217.517372 285.185446 
L 217.97207 284.406171 
L 218.037027 284.400872 
L 218.296855 284.118619 
L 218.556682 283.75881 
L 219.141294 282.476855 
L 219.336165 281.547671 
L 219.401122 281.50013 
L 219.531036 281.278177 
L 219.595993 281.246736 
L 219.790863 280.855371 
L 219.920777 280.78262 
L 220.180605 279.919367 
L 220.245561 279.882835 
L 220.440432 279.160602 
L 220.570346 279.102182 
L 220.830174 278.676886 
L 221.025044 278.615629 
L 221.349829 278.615779 
L 221.544699 278.433954 
L 221.73957 278.236448 
L 221.934441 277.205662 
L 222.129311 276.380538 
L 222.259225 273.859133 
L 222.58401 273.14731 
L 223.558363 273.251903 
L 223.753234 273.17058 
L 223.818191 272.760552 
L 224.013061 271.155801 
L 224.142975 271.070065 
L 224.402803 270.517458 
L 224.532716 270.340586 
L 225.247242 270.390859 
L 225.70194 269.812771 
L 225.896811 269.400958 
L 226.156639 269.268471 
L 227.001078 268.682837 
L 227.260906 268.617492 
L 227.520733 268.454865 
L 228.040389 267.892717 
L 228.235259 267.732213 
L 229.534397 264.235443 
L 229.729268 263.550754 
L 230.443794 261.120705 
L 230.573707 261.096411 
L 230.833535 259.761659 
L 231.028406 259.522929 
L 231.223276 259.434714 
L 231.35319 258.914942 
L 231.483104 258.809681 
L 231.613018 258.044407 
L 231.807888 257.798602 
L 232.132673 257.849004 
L 232.262586 257.329331 
L 232.457457 256.790827 
L 232.522414 256.75136 
L 232.717285 255.760035 
L 232.977112 255.394587 
L 233.23694 254.586756 
L 233.366854 254.36436 
L 233.561724 253.99094 
L 233.626681 253.96848 
L 234.016423 253.285843 
L 234.27625 253.162785 
L 234.665991 252.050811 
L 234.795905 251.953372 
L 235.12069 251.621976 
L 235.445474 251.560067 
L 235.835216 251.607093 
L 236.16 250.974505 
L 236.354871 250.816644 
L 236.679655 249.404267 
L 237.524095 248.669143 
L 237.718965 247.33507 
L 238.173664 246.720239 
L 238.758276 243.959955 
L 238.888189 242.25246 
L 239.08306 241.759599 
L 239.148017 241.675834 
L 239.277931 241.2464 
L 240.512112 240.142099 
L 240.706982 238.967757 
L 240.836896 238.699932 
L 240.96681 237.439407 
L 241.031767 237.396958 
L 241.226638 236.71321 
L 241.746293 236.496281 
L 242.200991 236.580858 
L 243.045431 235.247676 
L 243.240301 234.481849 
L 243.305258 234.483905 
L 243.954827 232.909608 
L 244.084741 232.888993 
L 244.344568 232.163674 
L 244.539439 230.848732 
L 244.73431 230.481388 
L 244.994137 230.170786 
L 245.059094 230.144413 
L 245.253965 228.842711 
L 245.383879 228.214291 
L 245.513792 227.468865 
L 246.033448 226.92768 
L 246.163361 226.804591 
L 247.007801 224.664943 
L 247.202672 223.694078 
L 247.462499 223.485894 
L 247.65737 222.859083 
L 248.631723 223.047759 
L 248.69668 223.022357 
L 248.891551 222.630241 
L 249.151378 222.549765 
L 249.346249 222.455216 
L 250.190689 222.647587 
L 250.58043 222.04626 
L 250.710344 221.734304 
L 251.42487 218.599001 
L 251.489826 218.581903 
L 251.814611 216.762964 
L 251.879568 216.783806 
L 251.944525 216.773927 
L 252.074439 216.087902 
L 252.204352 215.567121 
L 252.269309 215.595426 
L 252.529137 214.829107 
L 252.659051 214.546323 
L 252.724007 214.527606 
L 252.918878 214.129626 
L 253.763318 214.392842 
L 254.218016 214.459882 
L 254.5428 213.945451 
L 254.737671 213.041915 
L 254.997499 212.4234 
L 255.127412 212.305463 
L 255.452197 211.704204 
L 255.647068 210.316995 
L 255.712024 210.160573 
L 255.841938 208.990508 
L 255.906895 209.021574 
L 256.166723 208.596674 
L 256.23168 208.62066 
L 256.361593 208.479196 
L 256.686378 208.467544 
L 257.076119 207.91329 
L 257.335947 206.461734 
L 257.465861 206.382665 
L 257.530817 206.349696 
L 257.920559 204.693226 
L 257.985516 204.535872 
L 258.3103 202.270542 
L 258.440214 202.127644 
L 258.635085 201.394311 
L 258.764998 201.379091 
L 258.894912 200.521615 
L 258.959869 200.550009 
L 259.089783 200.270531 
L 259.15474 200.304142 
L 259.414567 200.350694 
L 259.609438 200.290409 
L 259.739352 200.194091 
L 259.999179 199.678558 
L 260.19405 199.467741 
L 260.388921 198.31119 
L 260.453878 198.320451 
L 260.973533 197.128825 
L 261.03849 197.103566 
L 261.363274 196.389307 
L 261.428231 196.381448 
L 261.558145 195.923737 
L 261.623102 195.957425 
L 261.753015 195.519274 
L 261.882929 195.347892 
L 262.012843 195.122108 
L 262.0778 195.147796 
L 262.727369 194.007498 
L 262.922239 193.325581 
L 263.052153 193.311561 
L 263.571808 192.639824 
L 263.766679 192.130484 
L 263.831636 192.148 
L 263.96155 191.69055 
L 264.026507 191.716275 
L 264.221377 191.181642 
L 264.286334 191.174437 
L 264.676076 190.4234 
L 264.870946 190.396253 
L 265.130774 189.597984 
L 265.195731 189.55834 
L 265.325644 189.241055 
L 265.390601 189.261837 
L 265.8453 188.930656 
L 266.105127 188.799757 
L 266.299998 188.439115 
L 266.559825 188.006979 
L 266.624782 188.024407 
L 266.819653 187.423832 
L 266.949567 187.276583 
L 267.079481 186.834271 
L 267.209394 186.795804 
L 267.404265 185.96684 
L 267.469222 185.898626 
L 267.599136 185.345879 
L 267.664093 185.344307 
L 267.92392 184.735428 
L 267.988877 184.679562 
L 268.183748 184.259208 
L 268.898273 184.338061 
L 269.223058 183.273106 
L 269.417929 183.055878 
L 269.677756 182.460302 
L 269.742713 182.161686 
L 269.80767 182.182102 
L 269.937584 182.133728 
L 270.197411 180.735611 
L 270.392282 179.588977 
L 270.457239 179.497483 
L 270.522196 179.176171 
L 270.587153 179.191983 
L 270.65211 179.18738 
L 270.782023 178.964986 
L 270.911937 178.933656 
L 271.106808 177.502879 
L 271.171765 177.537736 
L 271.431592 177.477763 
L 271.626463 177.4602 
L 272.016204 177.557859 
L 272.276032 177.301105 
L 272.405946 177.093769 
L 272.535859 177.09494 
L 272.795687 176.196118 
L 272.860644 176.176209 
L 273.315342 175.235286 
L 273.380299 175.239956 
L 273.445256 174.967941 
L 273.510213 175.004268 
L 273.640127 174.860098 
L 273.899954 174.327938 
L 274.029868 174.349204 
L 274.159782 174.153424 
L 274.224739 174.151426 
L 274.419609 173.72398 
L 275.264049 173.385098 
L 275.65379 173.009934 
L 275.913618 171.256624 
L 275.978575 171.29966 
L 276.368316 170.250684 
L 276.563187 168.749304 
L 276.693101 168.448219 
L 276.887971 168.061576 
L 277.082842 167.455472 
L 277.212756 167.402812 
L 277.732411 167.59117 
L 278.057195 167.74163 
L 278.252066 167.515283 
L 278.317023 167.177038 
L 278.38198 167.20497 
L 278.57685 167.221875 
L 279.096506 166.072797 
L 279.291376 165.963571 
L 279.486247 165.430637 
L 279.811031 164.898278 
L 279.875988 164.925427 
L 280.070859 164.772817 
L 280.720428 164.829595 
L 280.915298 164.497863 
L 281.045212 164.28572 
L 281.240083 163.483051 
L 281.629824 163.157977 
L 281.824695 162.77014 
L 281.954609 162.656362 
L 282.34435 161.478107 
L 282.409307 161.501986 
L 282.669135 160.278384 
L 282.799048 159.695422 
L 282.993919 158.469669 
L 283.058876 158.496054 
L 283.123833 158.439971 
L 283.318703 156.893296 
L 283.38366 156.890133 
L 283.513574 156.351204 
L 283.578531 156.391126 
L 283.708445 156.236898 
L 284.098186 156.334379 
L 284.552884 156.343246 
L 284.877669 156.281422 
L 284.942626 156.181692 
L 285.137496 155.426185 
L 285.332367 155.224815 
L 285.722108 154.996746 
L 285.852022 154.522827 
L 286.046893 154.161625 
L 286.11185 154.19126 
L 286.176807 154.07936 
L 286.241764 154.117166 
L 286.371677 154.175401 
L 286.501591 154.027009 
L 286.631505 153.999913 
L 286.891333 153.959552 
L 286.956289 153.936638 
L 287.086203 153.776841 
L 287.15116 153.779464 
L 287.346031 152.644097 
L 287.410988 152.658792 
L 287.605858 152.625051 
L 288.19047 152.0173 
L 288.515255 151.080687 
L 289.03491 150.850789 
L 289.489608 150.074617 
L 289.749436 149.511593 
L 290.204134 147.037066 
L 290.399005 146.921747 
L 290.723789 147.033201 
L 291.178487 147.083278 
L 291.503272 146.728207 
L 291.633186 146.791549 
L 291.828056 146.130456 
L 292.022927 145.254517 
L 292.282755 145.046987 
L 292.477625 143.734573 
L 292.542582 143.770951 
L 292.737453 143.61006 
L 292.80241 143.142378 
L 292.867367 143.159931 
L 293.062237 143.082723 
L 293.257108 143.138333 
L 293.322065 143.0183 
L 293.387022 143.05446 
L 293.776763 142.785639 
L 294.036591 142.262696 
L 294.166504 142.21881 
L 294.426332 142.11264 
L 294.751116 142.012395 
L 294.945987 141.802477 
L 295.010944 141.845819 
L 295.140858 141.690492 
L 295.205815 141.67897 
L 295.400685 141.082458 
L 295.595556 140.516688 
L 295.790427 140.353255 
L 296.050254 140.424689 
L 296.310082 140.490139 
L 296.439996 139.892494 
L 296.634866 138.818478 
L 296.829737 138.631591 
L 296.894694 138.597898 
L 297.219478 136.829286 
L 297.479306 136.128993 
L 297.739133 135.996753 
L 297.869047 135.727797 
L 297.998961 135.276126 
L 298.258789 135.210482 
L 298.453659 135.161887 
L 298.583573 135.021396 
L 298.64853 135.056382 
L 298.843401 134.666048 
L 298.908358 134.711095 
L 298.973314 134.747564 
L 299.947668 133.440358 
L 300.792107 133.764698 
L 301.636547 132.79333 
L 302.545943 132.338936 
L 302.675857 132.250806 
L 303.065599 132.141164 
L 303.195512 131.398358 
L 303.260469 131.415245 
L 303.325426 131.424567 
L 303.45534 131.253244 
L 303.520297 131.256109 
L 303.650211 130.443652 
L 303.715168 130.419788 
L 303.910038 129.828405 
L 304.104909 129.818472 
L 304.364736 129.196377 
L 304.689521 129.096991 
L 304.884392 127.94507 
L 304.949348 127.964376 
L 305.079262 128.010894 
L 305.53396 126.987173 
L 305.598917 127.031916 
L 305.858745 126.875114 
L 306.313443 126.478955 
L 306.703185 126.534421 
L 306.898055 126.359172 
L 307.092926 125.811796 
L 307.612581 125.513428 
L 307.742495 125.542491 
L 308.132236 125.276023 
L 308.26215 124.904434 
L 308.457021 125.017347 
L 308.586934 124.943252 
L 308.716848 125.010968 
L 308.846762 124.906253 
L 309.041633 124.916543 
L 309.171546 124.826869 
L 309.236503 124.860007 
L 309.431374 123.905202 
L 309.561288 123.849335 
L 310.015986 123.604456 
L 310.275814 122.847037 
L 311.315124 122.306879 
L 311.509995 121.809713 
L 312.159563 121.180779 
L 312.22452 121.220672 
L 312.354434 121.071132 
L 312.679219 121.246534 
L 313.004003 120.775069 
L 313.263831 119.674934 
L 313.393744 119.673692 
L 313.523658 119.107809 
L 313.588615 118.110738 
L 313.653572 118.137774 
L 313.783486 117.996691 
L 313.848443 118.00865 
L 313.978356 117.854743 
L 314.368098 117.942158 
L 314.627925 116.911406 
L 315.017667 116.383272 
L 315.14758 116.245937 
L 315.277494 115.845352 
L 315.602279 115.82581 
L 315.797149 114.940726 
L 315.99202 114.849092 
L 316.186891 114.909696 
L 316.511675 114.556313 
L 316.576632 114.605536 
L 316.771503 114.298029 
L 317.096287 114.064867 
L 317.291158 113.76641 
L 317.615942 111.901169 
L 317.680899 111.950851 
L 317.940727 111.683467 
L 318.525339 112.021742 
L 318.655253 111.951834 
L 318.980037 111.149857 
L 319.174908 111.119118 
L 319.239865 110.999398 
L 319.434735 110.362338 
L 319.694563 109.882343 
L 320.603959 110.208101 
L 320.733873 110.219597 
L 320.928744 109.877377 
L 320.993701 109.910958 
L 321.253528 109.693071 
L 321.513356 109.622789 
L 321.968054 109.662918 
L 322.227882 109.482434 
L 322.422752 109.123153 
L 322.617623 108.702654 
L 322.747537 108.778972 
L 323.137278 107.441756 
L 323.332149 107.022394 
L 323.52702 106.033728 
L 323.786847 105.964011 
L 323.916761 105.418537 
L 324.046675 104.555535 
L 324.111632 104.5845 
L 324.696244 103.614312 
L 324.7612 103.222881 
L 324.826157 103.274715 
L 325.345813 103.043398 
L 325.475726 102.782112 
L 325.60564 102.060542 
L 325.735554 102.007705 
L 326.385123 99.127689 
L 326.45008 99.013408 
L 326.709907 98.049445 
L 326.839821 98.093664 
L 326.904778 97.859442 
L 326.969735 97.911608 
L 327.034692 97.936304 
L 327.164605 97.803566 
L 327.294519 97.858446 
L 327.684261 96.929469 
L 327.749218 96.97501 
L 327.944088 96.879532 
L 328.138959 96.893373 
L 328.268873 96.475835 
L 328.658614 96.572449 
L 328.983398 96.125999 
L 329.048355 96.10282 
L 329.178269 95.904902 
L 329.243226 95.902289 
L 329.56801 95.439163 
L 329.762881 95.460016 
L 329.892795 95.25842 
L 330.607321 95.460807 
L 330.802191 95.226453 
L 331.126976 95.279677 
L 332.166286 95.392868 
L 333.010726 95.818837 
L 333.075683 95.844711 
L 333.14064 95.735675 
L 333.205596 95.776083 
L 333.33551 95.828833 
L 333.725252 95.266995 
L 333.855165 94.882406 
L 334.050036 94.922662 
L 334.244907 94.610189 
L 334.439777 94.348625 
L 334.634648 93.649071 
L 334.699605 93.676033 
L 335.089346 93.009188 
L 335.154303 93.060268 
L 335.414131 92.871052 
L 335.479088 92.865575 
L 335.544045 92.729658 
L 335.738915 91.496563 
L 335.803872 91.434782 
L 335.933786 91.044317 
L 336.25857 90.804112 
L 336.518398 90.90279 
L 336.713269 90.723886 
L 337.038053 90.569779 
L 337.167967 90.259427 
L 337.232924 90.252912 
L 337.882493 89.172051 
L 338.012406 89.118449 
L 338.402148 88.197391 
L 338.532062 88.179728 
L 338.726932 87.69587 
L 338.791889 87.724236 
L 338.98676 87.753134 
L 339.311544 87.598 
L 339.506415 87.304955 
L 339.766242 87.377775 
L 339.896156 87.357297 
L 340.091027 87.391802 
L 340.220941 87.073011 
L 340.285898 87.123357 
L 340.675639 87.293927 
L 340.935467 87.361331 
L 341.130337 87.420099 
L 341.455122 87.523047 
L 341.520079 87.358331 
L 341.585035 87.390459 
L 342.039734 87.373019 
L 342.104691 87.237548 
L 342.169647 87.280303 
L 342.494432 87.148625 
L 342.689303 86.790919 
L 343.468785 86.380227 
L 343.663656 85.879372 
L 343.858527 85.944233 
L 344.053397 85.905573 
L 344.638009 85.502227 
L 344.767923 85.495369 
L 344.962794 85.326616 
L 345.222621 85.060167 
L 345.87219 84.890777 
L 346.196975 84.378698 
L 347.106371 83.641184 
L 347.236285 83.486016 
L 348.145682 83.559906 
L 348.340552 83.015146 
L 348.470466 83.011902 
L 348.535423 82.999036 
L 349.055078 81.806809 
L 349.120035 81.846894 
L 349.379862 81.495893 
L 350.029431 81.856845 
L 350.159345 81.817781 
L 350.419173 81.45598 
L 350.549087 81.157745 
L 351.133699 81.227193 
L 351.328569 81.095471 
L 351.52344 81.122527 
L 351.653354 80.825816 
L 352.108052 80.751506 
L 352.173009 80.275068 
L 352.237966 80.305123 
L 352.56275 80.092574 
L 352.692664 80.149653 
L 352.887535 79.915427 
L 353.017448 79.856818 
L 353.277276 79.58609 
L 353.472147 79.633661 
L 353.731974 79.56709 
L 354.056759 78.724411 
L 354.186672 78.664529 
L 354.381543 78.412629 
L 354.511457 78.45558 
L 354.641371 78.373126 
L 354.901198 78.414148 
L 355.096069 78.500834 
L 355.225983 78.539058 
L 355.550767 78.18719 
L 355.875552 78.086987 
L 356.265293 76.871595 
L 356.460164 76.728304 
L 356.590077 76.437979 
L 356.655034 76.421357 
L 357.109733 75.560118 
L 357.499474 75.73902 
L 357.824258 75.716675 
L 358.019129 74.930413 
L 358.343914 74.669473 
L 358.473827 74.630575 
L 358.538784 74.517091 
L 358.603741 74.568429 
L 358.668698 74.606493 
L 358.798612 74.513326 
L 358.928526 74.49482 
L 359.123396 74.260077 
L 359.25331 74.09889 
L 359.578095 74.182671 
L 359.643051 74.187658 
L 359.772965 74.035425 
L 360.227663 74.160807 
L 360.552448 74.130279 
L 360.942189 73.718329 
L 361.072103 73.756229 
L 361.331931 73.720788 
L 361.591758 73.741461 
L 361.9815 73.87318 
L 362.371241 73.878139 
L 362.566112 73.713976 
L 362.890896 73.876054 
L 362.955853 73.67667 
L 363.02081 73.724965 
L 363.410551 73.422041 
L 363.670379 73.509042 
L 363.735336 73.414821 
L 363.800292 73.465705 
L 363.930206 73.44691 
L 363.995163 73.216148 
L 364.06012 73.260266 
L 364.190034 73.284329 
L 364.644732 72.852685 
L 364.774646 72.912205 
L 365.09943 72.307345 
L 365.164387 72.317601 
L 365.489172 71.345979 
L 365.619085 71.351353 
L 365.94387 70.73005 
L 366.008827 70.716713 
L 366.138741 69.979373 
L 366.268654 69.929511 
L 366.398568 69.882068 
L 366.593439 69.761257 
L 366.78831 69.83729 
L 367.178051 70.015719 
L 367.372922 70.031814 
L 367.957534 70.229185 
L 368.087447 70.198977 
L 368.347275 70.317615 
L 368.542146 70.331218 
L 368.737016 70.383371 
L 368.931887 70.408212 
L 369.386585 70.403213 
L 369.776327 70.16514 
L 369.841283 70.208721 
L 369.971197 69.794999 
L 370.036154 69.835254 
L 370.101111 69.854037 
L 370.295982 69.385306 
L 370.620766 68.896322 
L 370.815637 68.943169 
L 370.945551 68.913942 
L 371.205378 68.954933 
L 371.270335 69.002663 
L 371.335292 68.904739 
L 371.400249 68.955587 
L 371.465206 68.949971 
L 371.660076 68.735669 
L 371.919904 68.677352 
L 372.049818 68.613738 
L 372.244688 68.296546 
L 372.374602 68.207883 
L 372.504516 68.173942 
L 372.764344 67.69729 
L 372.959214 67.696202 
L 373.219042 67.681884 
L 373.478869 67.792886 
L 373.608783 67.795956 
L 373.868611 67.008928 
L 374.063481 66.751203 
L 374.193395 66.766625 
L 374.323309 66.558648 
L 374.51818 66.626003 
L 374.842964 66.814158 
L 375.037835 66.62832 
L 375.427576 66.604459 
L 375.492533 66.615508 
L 375.55749 66.441838 
L 375.622447 66.484413 
L 375.947231 66.570469 
L 376.142102 66.566955 
L 376.336973 65.437702 
L 376.661757 65.365457 
L 376.856628 64.993872 
L 377.051498 64.953263 
L 377.181412 64.956125 
L 377.63611 65.032888 
L 377.766024 65.010078 
L 377.960895 65.013811 
L 378.220722 64.854693 
L 378.48055 64.979488 
L 378.675421 64.683313 
L 378.870291 64.626988 
L 379.065162 64.600186 
L 379.260033 64.10936 
L 379.584817 63.647402 
L 379.909602 63.217771 
L 380.169429 63.236004 
L 380.234386 63.081826 
L 380.299343 63.11943 
L 380.494214 63.18824 
L 380.624127 63.140344 
L 380.754041 63.142881 
L 381.273696 62.44458 
L 381.40361 62.483202 
L 381.533524 62.305877 
L 381.728395 61.862658 
L 381.793352 61.83966 
L 381.988222 61.587113 
L 382.118136 61.584503 
L 382.44292 61.733543 
L 382.702748 61.615407 
L 382.767705 61.624727 
L 383.092489 61.185416 
L 383.28736 61.185601 
L 383.547188 60.987432 
L 383.871972 60.819392 
L 384.001886 60.829965 
L 384.1318 60.622047 
L 384.32667 60.618847 
L 384.651455 60.604997 
L 384.911282 60.32102 
L 385.041196 60.312448 
L 385.236067 59.847133 
L 385.495894 59.497102 
L 385.625808 59.502589 
L 385.820679 59.47311 
L 385.885636 59.511139 
L 386.21042 58.887463 
L 386.600162 58.322599 
L 387.05486 58.55431 
L 387.314687 58.525129 
L 387.639472 58.432557 
L 387.769386 58.3601 
L 388.029213 58.229062 
L 388.93861 58.062577 
L 389.068523 57.931052 
L 389.198437 57.891737 
L 389.523222 57.814808 
L 389.97792 57.517507 
L 390.172791 56.99511 
L 390.432618 56.651809 
L 390.627489 56.676733 
L 390.887316 56.721849 
L 391.082187 56.687633 
L 391.471928 56.802836 
L 391.536885 56.77907 
L 391.731756 56.450587 
L 391.796713 56.246817 
L 391.86167 56.289823 
L 391.991584 56.273746 
L 392.251411 56.281736 
L 392.511239 56.122266 
L 392.641152 56.142926 
L 392.706109 55.988264 
L 392.771066 56.037216 
L 392.90098 55.992176 
L 393.225764 55.9534 
L 393.355678 55.644064 
L 393.550549 55.656473 
L 393.615506 55.655661 
L 393.74542 55.416951 
L 393.875333 55.430427 
L 394.070204 55.469662 
L 394.524902 55.732664 
L 394.914644 55.890422 
L 395.109514 55.923834 
L 395.239428 55.618247 
L 395.499256 55.432689 
L 395.629169 55.164104 
L 395.759083 55.143144 
L 395.888997 55.011741 
L 395.953954 54.728893 
L 396.018911 54.751981 
L 396.148825 54.721441 
L 396.278738 54.551792 
L 396.473609 54.585634 
L 396.66848 54.585054 
L 396.928307 54.623273 
L 397.058221 54.549418 
L 397.318049 54.604884 
L 397.512919 54.54743 
L 397.642833 54.470668 
L 397.837704 54.451565 
L 397.902661 54.29022 
L 397.967618 54.32789 
L 398.097531 54.327137 
L 398.227445 54.113088 
L 398.357359 54.090242 
L 398.487273 54.157235 
L 398.487273 54.157235 
" clip-path="url(#p9c0b7ad609)" style="fill: none; stroke: #d62728; stroke-width: 1.5; stroke-linecap: square"/>
   </g>
   <g id="patch_3">
    <path d="M 57.6 307.584 
L 57.6 41.472 
" style="fill: none; stroke: #ffffff; stroke-linejoin: miter; stroke-linecap: square"/>
   </g>
   <g id="patch_4">
    <path d="M 414.72 307.584 
L 414.72 41.472 
" style="fill: none; stroke: #ffffff; stroke-linejoin: miter; stroke-linecap: square"/>
   </g>
   <g id="patch_5">
    <path d="M 57.6 307.584 
L 414.72 307.584 
" style="fill: none; stroke: #ffffff; stroke-linejoin: miter; stroke-linecap: square"/>
   </g>
   <g id="patch_6">
    <path d="M 57.6 41.472 
L 414.72 41.472 
" style="fill: none; stroke: #ffffff; stroke-linejoin: miter; stroke-linecap: square"/>
   </g>
   <g id="text_15">
    <!-- 2581.5755151030207 -->
    <g transform="translate(398.487273 54.157235) scale(0.1 -0.1)">
     <defs>
      <path id="DejaVuSans-38" d="M 2034 2216 
Q 1584 2216 1326 1975 
Q 1069 1734 1069 1313 
Q 1069 891 1326 650 
Q 1584 409 2034 409 
Q 2484 409 2743 651 
Q 3003 894 3003 1313 
Q 3003 1734 2745 1975 
Q 2488 2216 2034 2216 
z
M 1403 2484 
Q 997 2584 770 2862 
Q 544 3141 544 3541 
Q 544 4100 942 4425 
Q 1341 4750 2034 4750 
Q 2731 4750 3128 4425 
Q 3525 4100 3525 3541 
Q 3525 3141 3298 2862 
Q 3072 2584 2669 2484 
Q 3125 2378 3379 2068 
Q 3634 1759 3634 1313 
Q 3634 634 3220 271 
Q 2806 -91 2034 -91 
Q 1263 -91 848 271 
Q 434 634 434 1313 
Q 434 1759 690 2068 
Q 947 2378 1403 2484 
z
M 1172 3481 
Q 1172 3119 1398 2916 
Q 1625 2713 2034 2713 
Q 2441 2713 2670 2916 
Q 2900 3119 2900 3481 
Q 2900 3844 2670 4047 
Q 2441 4250 2034 4250 
Q 1625 4250 1398 4047 
Q 1172 3844 1172 3481 
z
" transform="scale(0.015625)"/>
      <path id="DejaVuSans-2e" d="M 684 794 
L 1344 794 
L 1344 0 
L 684 0 
L 684 794 
z
" transform="scale(0.015625)"/>
      <path id="DejaVuSans-37" d="M 525 4666 
L 3525 4666 
L 3525 4397 
L 1831 0 
L 1172 0 
L 2766 4134 
L 525 4134 
L 525 4666 
z
" transform="scale(0.015625)"/>
     </defs>
     <use xlink:href="#DejaVuSans-32"/>
     <use xlink:href="#DejaVuSans-35" x="63.623047"/>
     <use xlink:href="#DejaVuSans-38" x="127.246094"/>
     <use xlink:href="#DejaVuSans-31" x="190.869141"/>
     <use xlink:href="#DejaVuSans-2e" x="254.492188"/>
     <use xlink:href="#DejaVuSans-35" x="286.279297"/>
     <use xlink:href="#DejaVuSans-37" x="349.902344"/>
     <use xlink:href="#DejaVuSans-35" x="413.525391"/>
     <use xlink:href="#DejaVuSans-35" x="477.148438"/>
     <use xlink:href="#DejaVuSans-31" x="540.771484"/>
     <use xlink:href="#DejaVuSans-35" x="604.394531"/>
     <use xlink:href="#DejaVuSans-31" x="668.017578"/>
     <use xlink:href="#DejaVuSans-30" x="731.640625"/>
     <use xlink:href="#DejaVuSans-33" x="795.263672"/>
     <use xlink:href="#DejaVuSans-30" x="858.886719"/>
     <use xlink:href="#DejaVuSans-32" x="922.509766"/>
     <use xlink:href="#DejaVuSans-30" x="986.132812"/>
     <use xlink:href="#DejaVuSans-37" x="1049.755859"/>
    </g>
   </g>
   <g id="text_16">
    <!-- Epoch: 5000 -->
    <g transform="translate(191.0745 35.472) scale(0.144 -0.144)">
     <defs>
      <path id="DejaVuSans-45" d="M 628 4666 
L 3578 4666 
L 3578 4134 
L 1259 4134 
L 1259 2753 
L 3481 2753 
L 3481 2222 
L 1259 2222 
L 1259 531 
L 3634 531 
L 3634 0 
L 628 0 
L 628 4666 
z
" transform="scale(0.015625)"/>
      <path id="DejaVuSans-70" d="M 1159 525 
L 1159 -1331 
L 581 -1331 
L 581 3500 
L 1159 3500 
L 1159 2969 
Q 1341 3281 1617 3432 
Q 1894 3584 2278 3584 
Q 2916 3584 3314 3078 
Q 3713 2572 3713 1747 
Q 3713 922 3314 415 
Q 2916 -91 2278 -91 
Q 1894 -91 1617 61 
Q 1341 213 1159 525 
z
M 3116 1747 
Q 3116 2381 2855 2742 
Q 2594 3103 2138 3103 
Q 1681 3103 1420 2742 
Q 1159 2381 1159 1747 
Q 1159 1113 1420 752 
Q 1681 391 2138 391 
Q 2594 391 2855 752 
Q 3116 1113 3116 1747 
z
" transform="scale(0.015625)"/>
      <path id="DejaVuSans-63" d="M 3122 3366 
L 3122 2828 
Q 2878 2963 2633 3030 
Q 2388 3097 2138 3097 
Q 1578 3097 1268 2742 
Q 959 2388 959 1747 
Q 959 1106 1268 751 
Q 1578 397 2138 397 
Q 2388 397 2633 464 
Q 2878 531 3122 666 
L 3122 134 
Q 2881 22 2623 -34 
Q 2366 -91 2075 -91 
Q 1284 -91 818 406 
Q 353 903 353 1747 
Q 353 2603 823 3093 
Q 1294 3584 2113 3584 
Q 2378 3584 2631 3529 
Q 2884 3475 3122 3366 
z
" transform="scale(0.015625)"/>
      <path id="DejaVuSans-68" d="M 3513 2113 
L 3513 0 
L 2938 0 
L 2938 2094 
Q 2938 2591 2744 2837 
Q 2550 3084 2163 3084 
Q 1697 3084 1428 2787 
Q 1159 2491 1159 1978 
L 1159 0 
L 581 0 
L 581 4863 
L 1159 4863 
L 1159 2956 
Q 1366 3272 1645 3428 
Q 1925 3584 2291 3584 
Q 2894 3584 3203 3211 
Q 3513 2838 3513 2113 
z
" transform="scale(0.015625)"/>
      <path id="DejaVuSans-3a" d="M 750 794 
L 1409 794 
L 1409 0 
L 750 0 
L 750 794 
z
M 750 3309 
L 1409 3309 
L 1409 2516 
L 750 2516 
L 750 3309 
z
" transform="scale(0.015625)"/>
     </defs>
     <use xlink:href="#DejaVuSans-45"/>
     <use xlink:href="#DejaVuSans-70" x="63.183594"/>
     <use xlink:href="#DejaVuSans-6f" x="126.660156"/>
     <use xlink:href="#DejaVuSans-63" x="187.841797"/>
     <use xlink:href="#DejaVuSans-68" x="242.822266"/>
     <use xlink:href="#DejaVuSans-3a" x="306.201172"/>
     <use xlink:href="#DejaVuSans-20" x="339.892578"/>
     <use xlink:href="#DejaVuSans-35" x="371.679688"/>
     <use xlink:href="#DejaVuSans-30" x="435.302734"/>
     <use xlink:href="#DejaVuSans-30" x="498.925781"/>
     <use xlink:href="#DejaVuSans-30" x="562.548828"/>
    </g>
   </g>
  </g>
 </g>
 <defs>
  <clipPath id="p9c0b7ad609">
   <rect x="57.6" y="41.472" width="357.12" height="266.112"/>
  </clipPath>
 </defs>
</svg>
