<?xml version="1.0" encoding="utf-8" standalone="no"?>
<!DOCTYPE svg PUBLIC "-//W3C//DTD SVG 1.1//EN"
  "http://www.w3.org/Graphics/SVG/1.1/DTD/svg11.dtd">
<svg xmlns:xlink="http://www.w3.org/1999/xlink" width="460.8pt" height="345.6pt" viewBox="0 0 460.8 345.6" xmlns="http://www.w3.org/2000/svg" version="1.1">
 <metadata>
  <rdf:RDF xmlns:dc="http://purl.org/dc/elements/1.1/" xmlns:cc="http://creativecommons.org/ns#" xmlns:rdf="http://www.w3.org/1999/02/22-rdf-syntax-ns#">
   <cc:Work>
    <dc:type rdf:resource="http://purl.org/dc/dcmitype/StillImage"/>
    <dc:date>2024-07-25T18:44:21.717738</dc:date>
    <dc:format>image/svg+xml</dc:format>
    <dc:creator>
     <cc:Agent>
      <dc:title>Matplotlib v3.9.1, https://matplotlib.org/</dc:title>
     </cc:Agent>
    </dc:creator>
   </cc:Work>
  </rdf:RDF>
 </metadata>
 <defs>
  <style type="text/css">*{stroke-linejoin: round; stroke-linecap: butt}</style>
 </defs>
 <g id="figure_1">
  <g id="patch_1">
   <path d="M 0 345.6 
L 460.8 345.6 
L 460.8 0 
L 0 0 
z
" style="fill: #ffffff"/>
  </g>
  <g id="axes_1">
   <g id="patch_2">
    <path d="M 57.6 307.584 
L 414.72 307.584 
L 414.72 41.472 
L 57.6 41.472 
z
" style="fill: #e5e5e5"/>
   </g>
   <g id="matplotlib.axis_1">
    <g id="xtick_1">
     <g id="line2d_1">
      <path d="M 73.832727 307.584 
L 73.832727 41.472 
" clip-path="url(#p96d096a3ee)" style="fill: none; stroke: #ffffff; stroke-width: 0.8; stroke-linecap: square"/>
     </g>
     <g id="line2d_2">
      <defs>
       <path id="mf41525bc8c" d="M 0 0 
L 0 3.5 
" style="stroke: #555555; stroke-width: 0.8"/>
      </defs>
      <g>
       <use xlink:href="#mf41525bc8c" x="73.832727" y="307.584" style="fill: #555555; stroke: #555555; stroke-width: 0.8"/>
      </g>
     </g>
     <g id="text_1">
      <!-- 0 -->
      <g style="fill: #555555" transform="translate(70.651477 322.182437) scale(0.1 -0.1)">
       <defs>
        <path id="DejaVuSans-30" d="M 2034 4250 
Q 1547 4250 1301 3770 
Q 1056 3291 1056 2328 
Q 1056 1369 1301 889 
Q 1547 409 2034 409 
Q 2525 409 2770 889 
Q 3016 1369 3016 2328 
Q 3016 3291 2770 3770 
Q 2525 4250 2034 4250 
z
M 2034 4750 
Q 2819 4750 3233 4129 
Q 3647 3509 3647 2328 
Q 3647 1150 3233 529 
Q 2819 -91 2034 -91 
Q 1250 -91 836 529 
Q 422 1150 422 2328 
Q 422 3509 836 4129 
Q 1250 4750 2034 4750 
z
" transform="scale(0.015625)"/>
       </defs>
       <use xlink:href="#DejaVuSans-30"/>
      </g>
     </g>
    </g>
    <g id="xtick_2">
     <g id="line2d_3">
      <path d="M 114.455168 307.584 
L 114.455168 41.472 
" clip-path="url(#p96d096a3ee)" style="fill: none; stroke: #ffffff; stroke-width: 0.8; stroke-linecap: square"/>
     </g>
     <g id="line2d_4">
      <g>
       <use xlink:href="#mf41525bc8c" x="114.455168" y="307.584" style="fill: #555555; stroke: #555555; stroke-width: 0.8"/>
      </g>
     </g>
     <g id="text_2">
      <!-- 250 -->
      <g style="fill: #555555" transform="translate(104.911418 322.182437) scale(0.1 -0.1)">
       <defs>
        <path id="DejaVuSans-32" d="M 1228 531 
L 3431 531 
L 3431 0 
L 469 0 
L 469 531 
Q 828 903 1448 1529 
Q 2069 2156 2228 2338 
Q 2531 2678 2651 2914 
Q 2772 3150 2772 3378 
Q 2772 3750 2511 3984 
Q 2250 4219 1831 4219 
Q 1534 4219 1204 4116 
Q 875 4013 500 3803 
L 500 4441 
Q 881 4594 1212 4672 
Q 1544 4750 1819 4750 
Q 2544 4750 2975 4387 
Q 3406 4025 3406 3419 
Q 3406 3131 3298 2873 
Q 3191 2616 2906 2266 
Q 2828 2175 2409 1742 
Q 1991 1309 1228 531 
z
" transform="scale(0.015625)"/>
        <path id="DejaVuSans-35" d="M 691 4666 
L 3169 4666 
L 3169 4134 
L 1269 4134 
L 1269 2991 
Q 1406 3038 1543 3061 
Q 1681 3084 1819 3084 
Q 2600 3084 3056 2656 
Q 3513 2228 3513 1497 
Q 3513 744 3044 326 
Q 2575 -91 1722 -91 
Q 1428 -91 1123 -41 
Q 819 9 494 109 
L 494 744 
Q 775 591 1075 516 
Q 1375 441 1709 441 
Q 2250 441 2565 725 
Q 2881 1009 2881 1497 
Q 2881 1984 2565 2268 
Q 2250 2553 1709 2553 
Q 1456 2553 1204 2497 
Q 953 2441 691 2322 
L 691 4666 
z
" transform="scale(0.015625)"/>
       </defs>
       <use xlink:href="#DejaVuSans-32"/>
       <use xlink:href="#DejaVuSans-35" x="63.623047"/>
       <use xlink:href="#DejaVuSans-30" x="127.246094"/>
      </g>
     </g>
    </g>
    <g id="xtick_3">
     <g id="line2d_5">
      <path d="M 155.077609 307.584 
L 155.077609 41.472 
" clip-path="url(#p96d096a3ee)" style="fill: none; stroke: #ffffff; stroke-width: 0.8; stroke-linecap: square"/>
     </g>
     <g id="line2d_6">
      <g>
       <use xlink:href="#mf41525bc8c" x="155.077609" y="307.584" style="fill: #555555; stroke: #555555; stroke-width: 0.8"/>
      </g>
     </g>
     <g id="text_3">
      <!-- 500 -->
      <g style="fill: #555555" transform="translate(145.533859 322.182437) scale(0.1 -0.1)">
       <use xlink:href="#DejaVuSans-35"/>
       <use xlink:href="#DejaVuSans-30" x="63.623047"/>
       <use xlink:href="#DejaVuSans-30" x="127.246094"/>
      </g>
     </g>
    </g>
    <g id="xtick_4">
     <g id="line2d_7">
      <path d="M 195.700049 307.584 
L 195.700049 41.472 
" clip-path="url(#p96d096a3ee)" style="fill: none; stroke: #ffffff; stroke-width: 0.8; stroke-linecap: square"/>
     </g>
     <g id="line2d_8">
      <g>
       <use xlink:href="#mf41525bc8c" x="195.700049" y="307.584" style="fill: #555555; stroke: #555555; stroke-width: 0.8"/>
      </g>
     </g>
     <g id="text_4">
      <!-- 750 -->
      <g style="fill: #555555" transform="translate(186.156299 322.182437) scale(0.1 -0.1)">
       <defs>
        <path id="DejaVuSans-37" d="M 525 4666 
L 3525 4666 
L 3525 4397 
L 1831 0 
L 1172 0 
L 2766 4134 
L 525 4134 
L 525 4666 
z
" transform="scale(0.015625)"/>
       </defs>
       <use xlink:href="#DejaVuSans-37"/>
       <use xlink:href="#DejaVuSans-35" x="63.623047"/>
       <use xlink:href="#DejaVuSans-30" x="127.246094"/>
      </g>
     </g>
    </g>
    <g id="xtick_5">
     <g id="line2d_9">
      <path d="M 236.32249 307.584 
L 236.32249 41.472 
" clip-path="url(#p96d096a3ee)" style="fill: none; stroke: #ffffff; stroke-width: 0.8; stroke-linecap: square"/>
     </g>
     <g id="line2d_10">
      <g>
       <use xlink:href="#mf41525bc8c" x="236.32249" y="307.584" style="fill: #555555; stroke: #555555; stroke-width: 0.8"/>
      </g>
     </g>
     <g id="text_5">
      <!-- 1000 -->
      <g style="fill: #555555" transform="translate(223.59749 322.182437) scale(0.1 -0.1)">
       <defs>
        <path id="DejaVuSans-31" d="M 794 531 
L 1825 531 
L 1825 4091 
L 703 3866 
L 703 4441 
L 1819 4666 
L 2450 4666 
L 2450 531 
L 3481 531 
L 3481 0 
L 794 0 
L 794 531 
z
" transform="scale(0.015625)"/>
       </defs>
       <use xlink:href="#DejaVuSans-31"/>
       <use xlink:href="#DejaVuSans-30" x="63.623047"/>
       <use xlink:href="#DejaVuSans-30" x="127.246094"/>
       <use xlink:href="#DejaVuSans-30" x="190.869141"/>
      </g>
     </g>
    </g>
    <g id="xtick_6">
     <g id="line2d_11">
      <path d="M 276.94493 307.584 
L 276.94493 41.472 
" clip-path="url(#p96d096a3ee)" style="fill: none; stroke: #ffffff; stroke-width: 0.8; stroke-linecap: square"/>
     </g>
     <g id="line2d_12">
      <g>
       <use xlink:href="#mf41525bc8c" x="276.94493" y="307.584" style="fill: #555555; stroke: #555555; stroke-width: 0.8"/>
      </g>
     </g>
     <g id="text_6">
      <!-- 1250 -->
      <g style="fill: #555555" transform="translate(264.21993 322.182437) scale(0.1 -0.1)">
       <use xlink:href="#DejaVuSans-31"/>
       <use xlink:href="#DejaVuSans-32" x="63.623047"/>
       <use xlink:href="#DejaVuSans-35" x="127.246094"/>
       <use xlink:href="#DejaVuSans-30" x="190.869141"/>
      </g>
     </g>
    </g>
    <g id="xtick_7">
     <g id="line2d_13">
      <path d="M 317.567371 307.584 
L 317.567371 41.472 
" clip-path="url(#p96d096a3ee)" style="fill: none; stroke: #ffffff; stroke-width: 0.8; stroke-linecap: square"/>
     </g>
     <g id="line2d_14">
      <g>
       <use xlink:href="#mf41525bc8c" x="317.567371" y="307.584" style="fill: #555555; stroke: #555555; stroke-width: 0.8"/>
      </g>
     </g>
     <g id="text_7">
      <!-- 1500 -->
      <g style="fill: #555555" transform="translate(304.842371 322.182437) scale(0.1 -0.1)">
       <use xlink:href="#DejaVuSans-31"/>
       <use xlink:href="#DejaVuSans-35" x="63.623047"/>
       <use xlink:href="#DejaVuSans-30" x="127.246094"/>
       <use xlink:href="#DejaVuSans-30" x="190.869141"/>
      </g>
     </g>
    </g>
    <g id="xtick_8">
     <g id="line2d_15">
      <path d="M 358.189812 307.584 
L 358.189812 41.472 
" clip-path="url(#p96d096a3ee)" style="fill: none; stroke: #ffffff; stroke-width: 0.8; stroke-linecap: square"/>
     </g>
     <g id="line2d_16">
      <g>
       <use xlink:href="#mf41525bc8c" x="358.189812" y="307.584" style="fill: #555555; stroke: #555555; stroke-width: 0.8"/>
      </g>
     </g>
     <g id="text_8">
      <!-- 1750 -->
      <g style="fill: #555555" transform="translate(345.464812 322.182437) scale(0.1 -0.1)">
       <use xlink:href="#DejaVuSans-31"/>
       <use xlink:href="#DejaVuSans-37" x="63.623047"/>
       <use xlink:href="#DejaVuSans-35" x="127.246094"/>
       <use xlink:href="#DejaVuSans-30" x="190.869141"/>
      </g>
     </g>
    </g>
    <g id="xtick_9">
     <g id="line2d_17">
      <path d="M 398.812252 307.584 
L 398.812252 41.472 
" clip-path="url(#p96d096a3ee)" style="fill: none; stroke: #ffffff; stroke-width: 0.8; stroke-linecap: square"/>
     </g>
     <g id="line2d_18">
      <g>
       <use xlink:href="#mf41525bc8c" x="398.812252" y="307.584" style="fill: #555555; stroke: #555555; stroke-width: 0.8"/>
      </g>
     </g>
     <g id="text_9">
      <!-- 2000 -->
      <g style="fill: #555555" transform="translate(386.087252 322.182437) scale(0.1 -0.1)">
       <use xlink:href="#DejaVuSans-32"/>
       <use xlink:href="#DejaVuSans-30" x="63.623047"/>
       <use xlink:href="#DejaVuSans-30" x="127.246094"/>
       <use xlink:href="#DejaVuSans-30" x="190.869141"/>
      </g>
     </g>
    </g>
    <g id="text_10">
     <!-- Number of Games -->
     <g style="fill: #555555" transform="translate(181.471875 337.38025) scale(0.12 -0.12)">
      <defs>
       <path id="DejaVuSans-4e" d="M 628 4666 
L 1478 4666 
L 3547 763 
L 3547 4666 
L 4159 4666 
L 4159 0 
L 3309 0 
L 1241 3903 
L 1241 0 
L 628 0 
L 628 4666 
z
" transform="scale(0.015625)"/>
       <path id="DejaVuSans-75" d="M 544 1381 
L 544 3500 
L 1119 3500 
L 1119 1403 
Q 1119 906 1312 657 
Q 1506 409 1894 409 
Q 2359 409 2629 706 
Q 2900 1003 2900 1516 
L 2900 3500 
L 3475 3500 
L 3475 0 
L 2900 0 
L 2900 538 
Q 2691 219 2414 64 
Q 2138 -91 1772 -91 
Q 1169 -91 856 284 
Q 544 659 544 1381 
z
M 1991 3584 
L 1991 3584 
z
" transform="scale(0.015625)"/>
       <path id="DejaVuSans-6d" d="M 3328 2828 
Q 3544 3216 3844 3400 
Q 4144 3584 4550 3584 
Q 5097 3584 5394 3201 
Q 5691 2819 5691 2113 
L 5691 0 
L 5113 0 
L 5113 2094 
Q 5113 2597 4934 2840 
Q 4756 3084 4391 3084 
Q 3944 3084 3684 2787 
Q 3425 2491 3425 1978 
L 3425 0 
L 2847 0 
L 2847 2094 
Q 2847 2600 2669 2842 
Q 2491 3084 2119 3084 
Q 1678 3084 1418 2786 
Q 1159 2488 1159 1978 
L 1159 0 
L 581 0 
L 581 3500 
L 1159 3500 
L 1159 2956 
Q 1356 3278 1631 3431 
Q 1906 3584 2284 3584 
Q 2666 3584 2933 3390 
Q 3200 3197 3328 2828 
z
" transform="scale(0.015625)"/>
       <path id="DejaVuSans-62" d="M 3116 1747 
Q 3116 2381 2855 2742 
Q 2594 3103 2138 3103 
Q 1681 3103 1420 2742 
Q 1159 2381 1159 1747 
Q 1159 1113 1420 752 
Q 1681 391 2138 391 
Q 2594 391 2855 752 
Q 3116 1113 3116 1747 
z
M 1159 2969 
Q 1341 3281 1617 3432 
Q 1894 3584 2278 3584 
Q 2916 3584 3314 3078 
Q 3713 2572 3713 1747 
Q 3713 922 3314 415 
Q 2916 -91 2278 -91 
Q 1894 -91 1617 61 
Q 1341 213 1159 525 
L 1159 0 
L 581 0 
L 581 4863 
L 1159 4863 
L 1159 2969 
z
" transform="scale(0.015625)"/>
       <path id="DejaVuSans-65" d="M 3597 1894 
L 3597 1613 
L 953 1613 
Q 991 1019 1311 708 
Q 1631 397 2203 397 
Q 2534 397 2845 478 
Q 3156 559 3463 722 
L 3463 178 
Q 3153 47 2828 -22 
Q 2503 -91 2169 -91 
Q 1331 -91 842 396 
Q 353 884 353 1716 
Q 353 2575 817 3079 
Q 1281 3584 2069 3584 
Q 2775 3584 3186 3129 
Q 3597 2675 3597 1894 
z
M 3022 2063 
Q 3016 2534 2758 2815 
Q 2500 3097 2075 3097 
Q 1594 3097 1305 2825 
Q 1016 2553 972 2059 
L 3022 2063 
z
" transform="scale(0.015625)"/>
       <path id="DejaVuSans-72" d="M 2631 2963 
Q 2534 3019 2420 3045 
Q 2306 3072 2169 3072 
Q 1681 3072 1420 2755 
Q 1159 2438 1159 1844 
L 1159 0 
L 581 0 
L 581 3500 
L 1159 3500 
L 1159 2956 
Q 1341 3275 1631 3429 
Q 1922 3584 2338 3584 
Q 2397 3584 2469 3576 
Q 2541 3569 2628 3553 
L 2631 2963 
z
" transform="scale(0.015625)"/>
       <path id="DejaVuSans-20" transform="scale(0.015625)"/>
       <path id="DejaVuSans-6f" d="M 1959 3097 
Q 1497 3097 1228 2736 
Q 959 2375 959 1747 
Q 959 1119 1226 758 
Q 1494 397 1959 397 
Q 2419 397 2687 759 
Q 2956 1122 2956 1747 
Q 2956 2369 2687 2733 
Q 2419 3097 1959 3097 
z
M 1959 3584 
Q 2709 3584 3137 3096 
Q 3566 2609 3566 1747 
Q 3566 888 3137 398 
Q 2709 -91 1959 -91 
Q 1206 -91 779 398 
Q 353 888 353 1747 
Q 353 2609 779 3096 
Q 1206 3584 1959 3584 
z
" transform="scale(0.015625)"/>
       <path id="DejaVuSans-66" d="M 2375 4863 
L 2375 4384 
L 1825 4384 
Q 1516 4384 1395 4259 
Q 1275 4134 1275 3809 
L 1275 3500 
L 2222 3500 
L 2222 3053 
L 1275 3053 
L 1275 0 
L 697 0 
L 697 3053 
L 147 3053 
L 147 3500 
L 697 3500 
L 697 3744 
Q 697 4328 969 4595 
Q 1241 4863 1831 4863 
L 2375 4863 
z
" transform="scale(0.015625)"/>
       <path id="DejaVuSans-47" d="M 3809 666 
L 3809 1919 
L 2778 1919 
L 2778 2438 
L 4434 2438 
L 4434 434 
Q 4069 175 3628 42 
Q 3188 -91 2688 -91 
Q 1594 -91 976 548 
Q 359 1188 359 2328 
Q 359 3472 976 4111 
Q 1594 4750 2688 4750 
Q 3144 4750 3555 4637 
Q 3966 4525 4313 4306 
L 4313 3634 
Q 3963 3931 3569 4081 
Q 3175 4231 2741 4231 
Q 1884 4231 1454 3753 
Q 1025 3275 1025 2328 
Q 1025 1384 1454 906 
Q 1884 428 2741 428 
Q 3075 428 3337 486 
Q 3600 544 3809 666 
z
" transform="scale(0.015625)"/>
       <path id="DejaVuSans-61" d="M 2194 1759 
Q 1497 1759 1228 1600 
Q 959 1441 959 1056 
Q 959 750 1161 570 
Q 1363 391 1709 391 
Q 2188 391 2477 730 
Q 2766 1069 2766 1631 
L 2766 1759 
L 2194 1759 
z
M 3341 1997 
L 3341 0 
L 2766 0 
L 2766 531 
Q 2569 213 2275 61 
Q 1981 -91 1556 -91 
Q 1019 -91 701 211 
Q 384 513 384 1019 
Q 384 1609 779 1909 
Q 1175 2209 1959 2209 
L 2766 2209 
L 2766 2266 
Q 2766 2663 2505 2880 
Q 2244 3097 1772 3097 
Q 1472 3097 1187 3025 
Q 903 2953 641 2809 
L 641 3341 
Q 956 3463 1253 3523 
Q 1550 3584 1831 3584 
Q 2591 3584 2966 3190 
Q 3341 2797 3341 1997 
z
" transform="scale(0.015625)"/>
       <path id="DejaVuSans-73" d="M 2834 3397 
L 2834 2853 
Q 2591 2978 2328 3040 
Q 2066 3103 1784 3103 
Q 1356 3103 1142 2972 
Q 928 2841 928 2578 
Q 928 2378 1081 2264 
Q 1234 2150 1697 2047 
L 1894 2003 
Q 2506 1872 2764 1633 
Q 3022 1394 3022 966 
Q 3022 478 2636 193 
Q 2250 -91 1575 -91 
Q 1294 -91 989 -36 
Q 684 19 347 128 
L 347 722 
Q 666 556 975 473 
Q 1284 391 1588 391 
Q 1994 391 2212 530 
Q 2431 669 2431 922 
Q 2431 1156 2273 1281 
Q 2116 1406 1581 1522 
L 1381 1569 
Q 847 1681 609 1914 
Q 372 2147 372 2553 
Q 372 3047 722 3315 
Q 1072 3584 1716 3584 
Q 2034 3584 2315 3537 
Q 2597 3491 2834 3397 
z
" transform="scale(0.015625)"/>
      </defs>
      <use xlink:href="#DejaVuSans-4e"/>
      <use xlink:href="#DejaVuSans-75" x="74.804688"/>
      <use xlink:href="#DejaVuSans-6d" x="138.183594"/>
      <use xlink:href="#DejaVuSans-62" x="235.595703"/>
      <use xlink:href="#DejaVuSans-65" x="299.072266"/>
      <use xlink:href="#DejaVuSans-72" x="360.595703"/>
      <use xlink:href="#DejaVuSans-20" x="401.708984"/>
      <use xlink:href="#DejaVuSans-6f" x="433.496094"/>
      <use xlink:href="#DejaVuSans-66" x="494.677734"/>
      <use xlink:href="#DejaVuSans-20" x="529.882812"/>
      <use xlink:href="#DejaVuSans-47" x="561.669922"/>
      <use xlink:href="#DejaVuSans-61" x="639.160156"/>
      <use xlink:href="#DejaVuSans-6d" x="700.439453"/>
      <use xlink:href="#DejaVuSans-65" x="797.851562"/>
      <use xlink:href="#DejaVuSans-73" x="859.375"/>
     </g>
    </g>
   </g>
   <g id="matplotlib.axis_2">
    <g id="ytick_1">
     <g id="line2d_19">
      <path d="M 57.6 307.584 
L 414.72 307.584 
" clip-path="url(#p96d096a3ee)" style="fill: none; stroke: #ffffff; stroke-width: 0.8; stroke-linecap: square"/>
     </g>
     <g id="line2d_20">
      <defs>
       <path id="mcde17a9102" d="M 0 0 
L -3.5 0 
" style="stroke: #555555; stroke-width: 0.8"/>
      </defs>
      <g>
       <use xlink:href="#mcde17a9102" x="57.6" y="307.584" style="fill: #555555; stroke: #555555; stroke-width: 0.8"/>
      </g>
     </g>
     <g id="text_11">
      <!-- 0 -->
      <g style="fill: #555555" transform="translate(44.2375 311.383219) scale(0.1 -0.1)">
       <use xlink:href="#DejaVuSans-30"/>
      </g>
     </g>
    </g>
    <g id="ytick_2">
     <g id="line2d_21">
      <path d="M 57.6 261.815218 
L 414.72 261.815218 
" clip-path="url(#p96d096a3ee)" style="fill: none; stroke: #ffffff; stroke-width: 0.8; stroke-linecap: square"/>
     </g>
     <g id="line2d_22">
      <g>
       <use xlink:href="#mcde17a9102" x="57.6" y="261.815218" style="fill: #555555; stroke: #555555; stroke-width: 0.8"/>
      </g>
     </g>
     <g id="text_12">
      <!-- 5000 -->
      <g style="fill: #555555" transform="translate(25.15 265.614437) scale(0.1 -0.1)">
       <use xlink:href="#DejaVuSans-35"/>
       <use xlink:href="#DejaVuSans-30" x="63.623047"/>
       <use xlink:href="#DejaVuSans-30" x="127.246094"/>
       <use xlink:href="#DejaVuSans-30" x="190.869141"/>
      </g>
     </g>
    </g>
    <g id="ytick_3">
     <g id="line2d_23">
      <path d="M 57.6 216.046436 
L 414.72 216.046436 
" clip-path="url(#p96d096a3ee)" style="fill: none; stroke: #ffffff; stroke-width: 0.8; stroke-linecap: square"/>
     </g>
     <g id="line2d_24">
      <g>
       <use xlink:href="#mcde17a9102" x="57.6" y="216.046436" style="fill: #555555; stroke: #555555; stroke-width: 0.8"/>
      </g>
     </g>
     <g id="text_13">
      <!-- 10000 -->
      <g style="fill: #555555" transform="translate(18.7875 219.845655) scale(0.1 -0.1)">
       <use xlink:href="#DejaVuSans-31"/>
       <use xlink:href="#DejaVuSans-30" x="63.623047"/>
       <use xlink:href="#DejaVuSans-30" x="127.246094"/>
       <use xlink:href="#DejaVuSans-30" x="190.869141"/>
       <use xlink:href="#DejaVuSans-30" x="254.492188"/>
      </g>
     </g>
    </g>
    <g id="ytick_4">
     <g id="line2d_25">
      <path d="M 57.6 170.277655 
L 414.72 170.277655 
" clip-path="url(#p96d096a3ee)" style="fill: none; stroke: #ffffff; stroke-width: 0.8; stroke-linecap: square"/>
     </g>
     <g id="line2d_26">
      <g>
       <use xlink:href="#mcde17a9102" x="57.6" y="170.277655" style="fill: #555555; stroke: #555555; stroke-width: 0.8"/>
      </g>
     </g>
     <g id="text_14">
      <!-- 15000 -->
      <g style="fill: #555555" transform="translate(18.7875 174.076873) scale(0.1 -0.1)">
       <use xlink:href="#DejaVuSans-31"/>
       <use xlink:href="#DejaVuSans-35" x="63.623047"/>
       <use xlink:href="#DejaVuSans-30" x="127.246094"/>
       <use xlink:href="#DejaVuSans-30" x="190.869141"/>
       <use xlink:href="#DejaVuSans-30" x="254.492188"/>
      </g>
     </g>
    </g>
    <g id="ytick_5">
     <g id="line2d_27">
      <path d="M 57.6 124.508873 
L 414.72 124.508873 
" clip-path="url(#p96d096a3ee)" style="fill: none; stroke: #ffffff; stroke-width: 0.8; stroke-linecap: square"/>
     </g>
     <g id="line2d_28">
      <g>
       <use xlink:href="#mcde17a9102" x="57.6" y="124.508873" style="fill: #555555; stroke: #555555; stroke-width: 0.8"/>
      </g>
     </g>
     <g id="text_15">
      <!-- 20000 -->
      <g style="fill: #555555" transform="translate(18.7875 128.308092) scale(0.1 -0.1)">
       <use xlink:href="#DejaVuSans-32"/>
       <use xlink:href="#DejaVuSans-30" x="63.623047"/>
       <use xlink:href="#DejaVuSans-30" x="127.246094"/>
       <use xlink:href="#DejaVuSans-30" x="190.869141"/>
       <use xlink:href="#DejaVuSans-30" x="254.492188"/>
      </g>
     </g>
    </g>
    <g id="ytick_6">
     <g id="line2d_29">
      <path d="M 57.6 78.740091 
L 414.72 78.740091 
" clip-path="url(#p96d096a3ee)" style="fill: none; stroke: #ffffff; stroke-width: 0.8; stroke-linecap: square"/>
     </g>
     <g id="line2d_30">
      <g>
       <use xlink:href="#mcde17a9102" x="57.6" y="78.740091" style="fill: #555555; stroke: #555555; stroke-width: 0.8"/>
      </g>
     </g>
     <g id="text_16">
      <!-- 25000 -->
      <g style="fill: #555555" transform="translate(18.7875 82.53931) scale(0.1 -0.1)">
       <use xlink:href="#DejaVuSans-32"/>
       <use xlink:href="#DejaVuSans-35" x="63.623047"/>
       <use xlink:href="#DejaVuSans-30" x="127.246094"/>
       <use xlink:href="#DejaVuSans-30" x="190.869141"/>
       <use xlink:href="#DejaVuSans-30" x="254.492188"/>
      </g>
     </g>
    </g>
    <g id="text_17">
     <!-- Reward -->
     <g style="fill: #555555" transform="translate(12.291875 196.873312) rotate(-90) scale(0.12 -0.12)">
      <defs>
       <path id="DejaVuSans-52" d="M 2841 2188 
Q 3044 2119 3236 1894 
Q 3428 1669 3622 1275 
L 4263 0 
L 3584 0 
L 2988 1197 
Q 2756 1666 2539 1819 
Q 2322 1972 1947 1972 
L 1259 1972 
L 1259 0 
L 628 0 
L 628 4666 
L 2053 4666 
Q 2853 4666 3247 4331 
Q 3641 3997 3641 3322 
Q 3641 2881 3436 2590 
Q 3231 2300 2841 2188 
z
M 1259 4147 
L 1259 2491 
L 2053 2491 
Q 2509 2491 2742 2702 
Q 2975 2913 2975 3322 
Q 2975 3731 2742 3939 
Q 2509 4147 2053 4147 
L 1259 4147 
z
" transform="scale(0.015625)"/>
       <path id="DejaVuSans-77" d="M 269 3500 
L 844 3500 
L 1563 769 
L 2278 3500 
L 2956 3500 
L 3675 769 
L 4391 3500 
L 4966 3500 
L 4050 0 
L 3372 0 
L 2619 2869 
L 1863 0 
L 1184 0 
L 269 3500 
z
" transform="scale(0.015625)"/>
       <path id="DejaVuSans-64" d="M 2906 2969 
L 2906 4863 
L 3481 4863 
L 3481 0 
L 2906 0 
L 2906 525 
Q 2725 213 2448 61 
Q 2172 -91 1784 -91 
Q 1150 -91 751 415 
Q 353 922 353 1747 
Q 353 2572 751 3078 
Q 1150 3584 1784 3584 
Q 2172 3584 2448 3432 
Q 2725 3281 2906 2969 
z
M 947 1747 
Q 947 1113 1208 752 
Q 1469 391 1925 391 
Q 2381 391 2643 752 
Q 2906 1113 2906 1747 
Q 2906 2381 2643 2742 
Q 2381 3103 1925 3103 
Q 1469 3103 1208 2742 
Q 947 2381 947 1747 
z
" transform="scale(0.015625)"/>
      </defs>
      <use xlink:href="#DejaVuSans-52"/>
      <use xlink:href="#DejaVuSans-65" x="64.982422"/>
      <use xlink:href="#DejaVuSans-77" x="126.505859"/>
      <use xlink:href="#DejaVuSans-61" x="208.292969"/>
      <use xlink:href="#DejaVuSans-72" x="269.572266"/>
      <use xlink:href="#DejaVuSans-64" x="308.935547"/>
     </g>
    </g>
   </g>
   <g id="line2d_31">
    <path d="M 73.832727 307.474155 
L 74.157707 307.465001 
L 85.53199 307.410079 
L 85.69448 307.14462 
L 85.85697 307.428386 
L 86.669419 307.419232 
L 98.368681 307.410079 
L 98.531171 307.300234 
L 98.856151 307.410079 
L 99.831089 307.428386 
L 99.993579 307.281926 
L 100.318559 307.428386 
L 100.643538 307.465001 
L 117.379984 307.446694 
L 117.542473 307.346002 
L 118.029943 307.43754 
L 118.354922 307.355156 
L 119.004881 307.43754 
L 119.492351 307.382617 
L 119.97982 307.446694 
L 120.14231 307.108005 
L 120.304799 307.446694 
L 120.629779 307.400925 
L 121.604717 307.446694 
L 121.929697 307.400925 
L 127.129369 307.465001 
L 127.291859 307.281926 
L 127.616839 307.400925 
L 128.104308 307.446694 
L 129.241736 307.373464 
L 129.729206 307.455847 
L 130.379165 307.43754 
L 133.62896 307.428386 
L 133.953939 307.236157 
L 134.278919 307.382617 
L 134.603898 307.465001 
L 134.928878 307.382617 
L 135.253857 307.400925 
L 135.578837 307.428386 
L 135.741327 307.254465 
L 136.066306 307.446694 
L 136.228796 307.281926 
L 136.391286 307.446694 
L 136.878755 307.465001 
L 137.041245 307.281926 
L 137.528714 307.419232 
L 137.691204 307.36431 
L 137.853694 307.465001 
L 138.341163 307.382617 
L 138.991122 307.474155 
L 139.803571 307.43754 
L 140.29104 307.43754 
L 140.45353 307.272772 
L 140.778509 307.428386 
L 141.428468 307.391771 
L 142.078428 307.36431 
L 142.403407 307.455847 
L 142.565897 307.346002 
L 142.728387 307.419232 
L 142.890876 307.346002 
L 143.053366 307.474155 
L 143.215856 307.327695 
L 143.378346 307.474155 
L 143.540835 307.36431 
L 143.703325 307.43754 
L 143.865815 307.135466 
L 144.028305 307.474155 
L 144.515774 307.419232 
L 144.678264 307.455847 
L 144.840753 307.336849 
L 145.328223 307.43754 
L 145.653202 307.410079 
L 145.815692 307.400925 
L 145.978182 307.272772 
L 146.140672 307.400925 
L 146.303161 307.318541 
L 146.465651 307.43754 
L 147.11561 307.382617 
L 149.227977 307.455847 
L 149.390467 307.382617 
L 149.877936 307.474155 
L 150.040426 307.327695 
L 150.202916 307.465001 
L 150.690385 307.400925 
L 151.340344 307.382617 
L 151.665324 307.43754 
L 151.990303 307.428386 
L 152.152793 307.465001 
L 152.315283 307.263619 
L 152.640262 307.391771 
L 152.802752 307.346002 
L 152.965242 307.474155 
L 153.127731 307.391771 
L 153.452711 307.391771 
L 153.615201 307.410079 
L 153.77769 307.29108 
L 153.94018 307.410079 
L 154.427649 307.382617 
L 154.752629 307.474155 
L 155.077609 307.410079 
L 155.240098 307.446694 
L 155.402588 307.36431 
L 155.727568 307.483309 
L 155.890057 307.382617 
L 156.540016 307.465001 
L 157.027486 307.36431 
L 157.514955 307.465001 
L 157.839934 307.43754 
L 158.002424 307.236157 
L 158.164914 307.346002 
L 158.327404 307.281926 
L 158.652383 307.455847 
L 159.139853 307.382617 
L 159.302342 307.272772 
L 159.464832 307.391771 
L 159.952301 307.263619 
L 160.114791 307.446694 
L 160.277281 307.346002 
L 160.60226 307.446694 
L 160.92724 307.300234 
L 161.252219 307.455847 
L 161.414709 307.272772 
L 161.577199 307.501616 
L 161.902179 307.410079 
L 162.227158 307.428386 
L 164.177035 307.373464 
L 164.339525 307.474155 
L 164.502015 307.428386 
L 164.664505 307.254465 
L 164.826994 307.391771 
L 165.314464 307.373464 
L 165.639443 307.428386 
L 166.126912 307.281926 
L 166.451892 307.382617 
L 166.614382 307.199542 
L 166.776871 307.446694 
L 167.75181 307.245311 
L 167.9143 307.391771 
L 168.239279 307.400925 
L 168.401769 307.108005 
L 168.564259 307.455847 
L 168.726749 307.263619 
L 168.889238 307.346002 
L 169.051728 307.281926 
L 169.376708 307.382617 
L 171.326585 307.410079 
L 171.814054 307.382617 
L 172.139034 307.455847 
L 172.464013 307.400925 
L 172.951482 307.391771 
L 173.276462 307.162927 
L 173.438952 307.355156 
L 173.601441 307.373464 
L 173.763931 307.227004 
L 173.926421 307.373464 
L 174.088911 307.245311 
L 174.41389 307.391771 
L 174.90136 307.355156 
L 175.226339 307.400925 
L 175.551319 307.236157 
L 175.876298 307.382617 
L 176.851237 307.190388 
L 177.013726 307.373464 
L 177.176216 307.300234 
L 177.338706 307.492462 
L 177.826175 307.108005 
L 178.151155 307.474155 
L 178.638624 307.36431 
L 178.801114 307.346002 
L 178.963604 307.162927 
L 179.126093 307.43754 
L 179.288583 307.089697 
L 179.613563 307.455847 
L 179.776052 307.227004 
L 180.101032 307.400925 
L 181.075971 307.382617 
L 181.40095 307.419232 
L 181.56344 307.108005 
L 181.72593 307.419232 
L 181.888419 307.236157 
L 182.050909 307.446694 
L 182.213399 307.410079 
L 182.375889 307.236157 
L 182.700868 307.43754 
L 182.863358 307.318541 
L 183.350827 307.355156 
L 184.325766 307.419232 
L 184.975725 307.318541 
L 185.138215 307.419232 
L 185.463194 307.373464 
L 185.625684 307.346002 
L 185.788174 307.053082 
L 185.950663 307.391771 
L 186.275643 307.373464 
L 186.438133 307.14462 
L 186.763112 307.391771 
L 186.925602 307.373464 
L 187.088092 306.979852 
L 187.250581 307.391771 
L 188.38801 307.410079 
L 188.5505 307.346002 
L 188.875479 307.428386 
L 189.200459 307.36431 
L 189.362948 307.236157 
L 189.687928 307.355156 
L 189.850418 306.989006 
L 190.012907 307.410079 
L 190.175397 307.126312 
L 190.662867 307.43754 
L 191.150336 307.126312 
L 191.312826 307.43754 
L 191.475315 307.391771 
L 191.800295 307.446694 
L 192.125274 307.336849 
L 192.450254 307.227004 
L 192.612744 306.769316 
L 192.775233 307.382617 
L 192.937723 307.263619 
L 193.100213 307.455847 
L 193.262703 307.263619 
L 193.587682 307.391771 
L 193.750172 307.373464 
L 193.912662 306.979852 
L 194.075152 307.410079 
L 194.400131 307.36431 
L 194.725111 307.382617 
L 194.8876 307.14462 
L 195.21258 307.400925 
L 195.37507 306.970698 
L 195.700049 307.455847 
L 195.862539 306.668624 
L 196.025029 307.391771 
L 196.187518 307.446694 
L 196.350008 307.318541 
L 196.512498 307.446694 
L 196.674988 306.979852 
L 196.837477 307.400925 
L 196.999967 307.446694 
L 197.324947 307.190388 
L 197.487437 307.428386 
L 197.974906 307.346002 
L 198.137396 307.446694 
L 198.299885 307.391771 
L 198.462375 307.117158 
L 198.787355 307.419232 
L 198.949844 307.355156 
L 199.112334 307.117158 
L 199.274824 307.263619 
L 199.437314 307.14462 
L 199.599803 306.842546 
L 199.762293 307.373464 
L 199.924783 307.465001 
L 200.087273 307.281926 
L 200.249762 307.410079 
L 200.737232 307.263619 
L 200.899722 307.465001 
L 201.387191 307.227004 
L 201.549681 306.860853 
L 201.71217 307.355156 
L 202.849599 307.336849 
L 203.012088 307.400925 
L 203.174578 307.227004 
L 203.987027 307.410079 
L 204.149517 307.254465 
L 204.474496 307.263619 
L 204.636986 307.190388 
L 204.799476 307.410079 
L 204.961966 307.327695 
L 205.124455 307.400925 
L 205.286945 307.080543 
L 205.449435 307.373464 
L 205.611925 307.281926 
L 205.774414 307.355156 
L 205.936904 307.181235 
L 206.099394 307.373464 
L 206.261884 307.227004 
L 206.424373 307.336849 
L 206.749353 307.29108 
L 206.911843 307.36431 
L 207.074333 307.126312 
L 207.236822 307.318541 
L 207.886781 307.29108 
L 208.049271 307.236157 
L 208.374251 307.391771 
L 209.186699 307.254465 
L 209.349189 307.373464 
L 209.674169 307.336849 
L 211.786536 307.373464 
L 211.949025 307.21785 
L 212.274005 307.410079 
L 212.761474 307.327695 
L 212.923964 307.089697 
L 213.248943 307.153773 
L 213.411433 307.21785 
L 213.573923 306.952391 
L 213.736413 307.355156 
L 214.548862 307.318541 
L 214.711351 306.979852 
L 215.036331 307.36431 
L 215.198821 307.318541 
L 215.36131 307.126312 
L 215.5238 307.410079 
L 215.68629 307.382617 
L 215.84878 307.07139 
L 216.011269 307.098851 
L 216.336249 307.346002 
L 216.823718 307.446694 
L 217.148698 307.062236 
L 217.311188 307.300234 
L 217.636167 307.281926 
L 217.798657 307.419232 
L 217.961147 307.245311 
L 218.123636 307.36431 
L 218.448616 307.21785 
L 218.611106 307.346002 
L 218.773595 307.199542 
L 218.936085 307.300234 
L 219.098575 306.979852 
L 219.261065 307.400925 
L 219.586044 307.272772 
L 219.748534 307.36431 
L 220.236003 307.135466 
L 220.398493 307.391771 
L 220.560983 307.236157 
L 220.885962 307.373464 
L 221.860901 307.245311 
L 222.18588 307.391771 
L 222.34837 307.327695 
L 222.51086 307.108005 
L 222.67335 307.373464 
L 222.998329 307.245311 
L 223.160819 307.36431 
L 223.323309 307.21785 
L 223.485799 307.236157 
L 223.648288 306.934083 
L 223.810778 307.346002 
L 224.135758 307.465001 
L 224.623227 307.162927 
L 224.785717 307.346002 
L 224.948206 307.135466 
L 225.110696 307.419232 
L 225.273186 307.318541 
L 225.598165 307.391771 
L 226.085635 307.098851 
L 226.248124 307.263619 
L 226.410614 307.21785 
L 226.573104 307.43754 
L 226.898084 307.14462 
L 227.060573 306.741854 
L 227.223063 307.346002 
L 228.035512 307.36431 
L 228.198002 307.455847 
L 228.360491 307.117158 
L 228.522981 307.355156 
L 228.685471 307.263619 
L 229.01045 307.346002 
L 229.17294 307.36431 
L 229.33543 307.07139 
L 229.49792 307.245311 
L 229.66041 307.126312 
L 229.822899 307.43754 
L 230.310369 307.281926 
L 230.635348 307.373464 
L 230.797838 307.318541 
L 230.960328 307.410079 
L 231.122817 307.108005 
L 231.285307 307.43754 
L 231.447797 307.108005 
L 231.610287 307.36431 
L 231.772776 307.108005 
L 231.935266 307.428386 
L 232.097756 307.318541 
L 232.422735 307.382617 
L 232.747715 307.108005 
L 232.910205 307.254465 
L 233.235184 307.108005 
L 233.397674 307.36431 
L 233.560164 307.245311 
L 233.885143 307.272772 
L 234.047633 307.14462 
L 234.697592 307.318541 
L 235.022572 307.080543 
L 235.510041 307.382617 
L 235.672531 307.208696 
L 235.99751 307.410079 
L 236.647469 307.391771 
L 236.809959 306.943237 
L 236.972449 307.327695 
L 237.134939 307.382617 
L 237.297428 307.300234 
L 237.622408 307.382617 
L 237.784898 307.419232 
L 237.947387 307.300234 
L 238.109877 307.391771 
L 238.272367 306.860853 
L 238.434857 307.190388 
L 238.597346 306.870007 
L 238.922326 307.346002 
L 239.247305 306.970698 
L 239.409795 307.336849 
L 239.572285 307.190388 
L 239.734775 307.419232 
L 239.897265 307.263619 
L 240.384734 307.346002 
L 240.872203 307.318541 
L 241.034693 307.199542 
L 241.359672 307.391771 
L 241.522162 307.336849 
L 241.847142 306.650317 
L 242.009631 307.318541 
L 242.172121 307.382617 
L 242.334611 307.043928 
L 242.497101 307.162927 
L 242.65959 307.016467 
L 242.82208 307.236157 
L 242.98457 306.870007 
L 243.14706 307.465001 
L 243.30955 307.098851 
L 243.472039 307.080543 
L 243.634529 307.346002 
L 243.797019 307.245311 
L 243.959509 306.870007 
L 244.121998 307.373464 
L 244.284488 307.227004 
L 244.446978 307.346002 
L 244.609468 307.29108 
L 244.771957 307.410079 
L 245.096937 306.989006 
L 245.259427 307.419232 
L 245.421916 307.089697 
L 245.584406 307.465001 
L 245.746896 307.07139 
L 245.909386 307.117158 
L 246.071876 306.860853 
L 246.234365 307.29108 
L 246.396855 307.29108 
L 246.559345 307.062236 
L 246.721835 307.336849 
L 246.884324 307.236157 
L 247.046814 306.952391 
L 247.371794 307.208696 
L 247.696773 306.769316 
L 247.859263 307.336849 
L 248.184242 307.21785 
L 248.346732 307.208696 
L 248.509222 307.391771 
L 248.996691 307.318541 
L 249.159181 306.952391 
L 249.321671 306.989006 
L 249.484161 307.318541 
L 249.64665 307.227004 
L 249.80914 307.419232 
L 250.13412 307.327695 
L 250.296609 307.108005 
L 250.459099 307.391771 
L 250.784079 307.309387 
L 250.946568 307.108005 
L 251.109058 307.300234 
L 251.434038 307.382617 
L 251.596527 307.227004 
L 251.759017 306.778469 
L 251.921507 307.327695 
L 252.083997 307.300234 
L 252.246486 307.117158 
L 252.733956 307.419232 
L 253.058935 307.263619 
L 253.546405 307.391771 
L 253.871384 307.208696 
L 254.033874 307.080543 
L 254.358853 307.391771 
L 254.521343 307.153773 
L 254.683833 307.391771 
L 254.846323 307.098851 
L 255.171302 307.410079 
L 255.333792 307.098851 
L 255.496282 307.208696 
L 255.658771 307.162927 
L 255.821261 307.355156 
L 255.983751 307.373464 
L 256.146241 306.970698 
L 256.47122 306.934083 
L 256.63371 307.254465 
L 256.7962 307.108005 
L 256.95869 307.135466 
L 257.121179 306.934083 
L 257.446159 307.336849 
L 257.608649 307.36431 
L 257.771138 307.098851 
L 257.933628 307.346002 
L 258.096118 307.36431 
L 258.258608 307.172081 
L 258.421097 307.245311 
L 258.583587 306.970698 
L 258.746077 307.346002 
L 259.233546 307.098851 
L 259.396036 307.373464 
L 259.721016 307.080543 
L 259.883505 307.025621 
L 260.045995 307.400925 
L 260.208485 307.400925 
L 260.370975 307.236157 
L 261.020934 307.336849 
L 261.183423 306.201783 
L 261.345913 307.108005 
L 261.508403 307.309387 
L 261.995872 307.153773 
L 262.320852 306.741854 
L 262.483342 307.227004 
L 262.645831 306.870007 
L 262.970811 307.391771 
L 263.133301 307.007313 
L 263.29579 307.108005 
L 263.45828 307.400925 
L 263.62077 306.613702 
L 263.78326 307.346002 
L 263.945749 307.034775 
L 264.108239 307.309387 
L 264.270729 307.245311 
L 264.595708 307.400925 
L 264.758198 307.062236 
L 264.920688 307.190388 
L 265.083178 306.860853 
L 265.245667 307.336849 
L 265.570647 306.741854 
L 265.733137 307.281926 
L 266.058116 307.053082 
L 266.220606 307.336849 
L 266.545586 306.989006 
L 266.708075 307.126312 
L 267.033055 306.522164 
L 267.195545 307.355156 
L 267.683014 307.254465 
L 267.845504 307.355156 
L 268.332973 307.21785 
L 268.495463 307.336849 
L 268.657952 307.21785 
L 268.820442 306.787623 
L 268.982932 307.43754 
L 269.145422 307.245311 
L 269.307912 307.245311 
L 269.632891 307.025621 
L 269.795381 306.961545 
L 269.957871 307.336849 
L 270.12036 307.428386 
L 270.28285 307.190388 
L 270.770319 307.483309 
L 271.095299 307.36431 
L 271.257789 307.062236 
L 271.420278 307.080543 
L 271.582768 307.309387 
L 271.745258 306.906622 
L 272.070238 307.245311 
L 272.232727 307.355156 
L 272.557707 307.016467 
L 272.720197 307.281926 
L 273.045176 307.36431 
L 273.370156 307.080543 
L 273.532645 307.336849 
L 274.020115 307.382617 
L 274.182604 307.14462 
L 274.507584 307.236157 
L 274.832563 307.098851 
L 274.995053 307.327695 
L 275.320033 307.254465 
L 275.482523 307.400925 
L 275.645012 307.117158 
L 275.807502 307.236157 
L 275.969992 307.126312 
L 276.132482 307.236157 
L 276.294971 306.741854 
L 276.457461 307.309387 
L 276.782441 306.833392 
L 276.94493 307.300234 
L 277.10742 307.208696 
L 277.26991 307.336849 
L 277.4324 307.29108 
L 277.594889 307.373464 
L 277.757379 307.162927 
L 277.919869 307.327695 
L 278.082359 307.245311 
L 278.407338 307.43754 
L 278.894808 306.970698 
L 279.057297 307.236157 
L 279.219787 306.934083 
L 279.382277 307.245311 
L 279.869746 307.300234 
L 280.032236 307.309387 
L 280.194726 307.199542 
L 280.357215 307.309387 
L 280.682195 307.162927 
L 281.007174 307.318541 
L 281.332154 306.99816 
L 281.494644 307.355156 
L 281.657133 306.989006 
L 281.982113 307.336849 
L 282.307093 307.089697 
L 282.469582 307.355156 
L 282.794562 307.034775 
L 282.957052 307.181235 
L 283.119541 306.860853 
L 283.444521 307.254465 
L 283.607011 306.970698 
L 283.7695 306.970698 
L 283.93199 307.355156 
L 284.25697 307.07139 
L 284.906929 307.272772 
L 285.069419 306.897468 
L 285.231908 307.089697 
L 285.394398 306.485549 
L 285.881867 307.336849 
L 286.044357 307.309387 
L 286.206847 307.043928 
L 286.531826 307.327695 
L 286.856806 306.851699 
L 287.669255 307.272772 
L 287.994234 307.254465 
L 288.319214 306.897468 
L 288.481704 307.309387 
L 288.806683 307.108005 
L 288.969173 307.355156 
L 289.294152 307.098851 
L 289.456642 307.318541 
L 289.619132 306.970698 
L 289.944111 307.327695 
L 290.269091 306.137706 
L 290.431581 307.21785 
L 290.59407 307.098851 
L 290.75656 307.355156 
L 290.91905 307.208696 
L 291.08154 307.318541 
L 291.244029 306.741854 
L 291.406519 307.181235 
L 291.731499 306.741854 
L 292.056478 307.346002 
L 292.381458 307.117158 
L 293.031417 307.300234 
L 293.193907 306.696086 
L 293.356396 307.245311 
L 293.518886 307.181235 
L 293.681376 307.346002 
L 293.843866 306.961545 
L 294.168845 307.14462 
L 294.331335 307.025621 
L 294.656314 307.29108 
L 294.818804 307.062236 
L 294.981294 307.21785 
L 295.143784 307.126312 
L 295.306274 306.595394 
L 295.468763 306.741854 
L 295.631253 306.723547 
L 295.793743 307.162927 
L 296.118722 307.016467 
L 296.281212 307.098851 
L 296.606192 306.961545 
L 296.768681 307.309387 
L 296.931171 307.263619 
L 297.093661 306.824238 
L 297.256151 307.227004 
L 297.58113 307.062236 
L 297.74362 307.272772 
L 297.90611 306.476395 
L 298.0686 306.394012 
L 298.231089 307.062236 
L 298.393579 305.817325 
L 298.556069 306.92493 
L 298.881048 307.089697 
L 299.043538 307.062236 
L 299.206028 307.355156 
L 299.368518 307.162927 
L 299.531007 307.172081 
L 299.693497 307.336849 
L 300.180966 306.622856 
L 300.343456 306.961545 
L 300.505946 306.485549 
L 300.668436 306.879161 
L 300.830925 306.549626 
L 300.993415 307.36431 
L 301.155905 306.833392 
L 301.318395 307.14462 
L 301.480885 305.615942 
L 301.643374 306.989006 
L 301.805864 307.053082 
L 301.968354 307.318541 
L 302.130844 307.199542 
L 302.455823 307.346002 
L 302.780803 307.117158 
L 302.943292 307.300234 
L 303.105782 307.062236 
L 303.268272 307.263619 
L 303.430762 307.254465 
L 303.593251 306.934083 
L 303.755741 307.245311 
L 303.918231 306.870007 
L 304.080721 307.227004 
L 304.24321 307.126312 
L 304.4057 307.346002 
L 304.73068 307.208696 
L 305.218149 306.92493 
L 305.380639 307.089697 
L 305.543129 306.732701 
L 305.705618 306.696086 
L 305.868108 307.043928 
L 306.030598 306.879161 
L 306.518067 307.153773 
L 307.005536 306.741854 
L 307.168026 307.336849 
L 307.330516 307.062236 
L 307.655495 307.190388 
L 307.817985 306.613702 
L 307.980475 306.961545 
L 308.142965 306.503857 
L 308.305455 306.467242 
L 308.467944 305.936324 
L 308.630434 307.181235 
L 308.792924 307.410079 
L 308.955414 306.906622 
L 309.117903 304.673105 
L 309.442883 307.062236 
L 309.605373 307.098851 
L 309.767862 307.318541 
L 310.092842 306.595394 
L 310.255332 306.705239 
L 310.417821 306.485549 
L 310.580311 307.080543 
L 310.905291 306.07363 
L 311.23027 307.07139 
L 311.39276 306.531318 
L 311.55525 307.062236 
L 311.71774 306.970698 
L 311.880229 307.14462 
L 312.042719 306.448934 
L 312.530188 307.300234 
L 312.692678 307.281926 
L 312.855168 306.714393 
L 313.017658 307.29108 
L 313.180147 307.236157 
L 313.342637 306.842546 
L 313.505127 306.833392 
L 313.667617 306.485549 
L 314.155086 307.318541 
L 314.317576 305.588481 
L 314.480066 307.043928 
L 314.642555 306.879161 
L 314.805045 307.318541 
L 314.967535 307.327695 
L 315.130025 307.14462 
L 315.292514 307.309387 
L 315.617494 307.245311 
L 315.779984 306.961545 
L 315.942473 306.979852 
L 316.104963 307.336849 
L 316.267453 306.247552 
L 316.592432 307.272772 
L 317.079902 306.714393 
L 317.242391 307.162927 
L 317.404881 306.613702 
L 317.567371 307.272772 
L 317.892351 307.089697 
L 318.05484 307.309387 
L 318.21733 307.208696 
L 318.54231 307.36431 
L 318.704799 305.48779 
L 318.867289 306.961545 
L 319.029779 306.513011 
L 319.192269 307.07139 
L 319.354758 305.808171 
L 319.517248 306.549626 
L 319.679738 305.158255 
L 319.842228 306.36655 
L 320.004717 305.002641 
L 320.329697 306.970698 
L 320.492187 306.879161 
L 320.654676 307.254465 
L 320.979656 306.952391 
L 321.142146 307.309387 
L 321.304636 307.336849 
L 321.467125 306.503857 
L 321.629615 307.300234 
L 321.792105 307.227004 
L 321.954595 307.346002 
L 322.117084 306.723547 
L 322.279574 307.172081 
L 322.767043 304.792104 
L 322.929533 306.494703 
L 323.092023 306.494703 
L 323.254513 307.153773 
L 323.417002 305.936324 
L 323.579492 306.421473 
L 323.741982 306.348243 
L 323.904472 305.92717 
L 324.066962 306.128553 
L 324.229451 305.808171 
L 324.554431 306.705239 
L 324.716921 305.808171 
L 325.0419 307.190388 
L 325.20439 307.135466 
L 325.529369 306.613702 
L 325.691859 307.043928 
L 325.854349 306.302474 
L 326.016839 307.153773 
L 326.179328 307.135466 
L 326.341818 307.336849 
L 326.829287 305.936324 
L 326.991777 307.080543 
L 327.154267 306.485549 
L 327.316757 306.622856 
L 327.479247 307.062236 
L 327.804226 306.238398 
L 327.966716 307.080543 
L 328.129206 306.137706 
L 328.291695 307.07139 
L 328.454185 306.751008 
L 328.616675 306.860853 
L 328.779165 307.336849 
L 328.941654 307.373464 
L 329.104144 307.034775 
L 329.429124 307.162927 
L 329.591613 306.934083 
L 329.754103 307.062236 
L 329.916593 306.156014 
L 330.079083 306.842546 
L 330.241572 305.680019 
L 330.404062 305.890555 
L 330.566552 305.734941 
L 330.891532 306.851699 
L 331.054021 306.641163 
L 331.216511 307.007313 
L 331.541491 306.796777 
L 331.70398 306.943237 
L 331.86647 306.879161 
L 332.19145 307.199542 
L 332.516429 306.833392 
L 332.678919 307.199542 
L 333.328878 307.080543 
L 333.491368 306.824238 
L 333.816347 307.14462 
L 333.978837 307.053082 
L 334.141327 307.254465 
L 334.303817 306.915776 
L 334.628796 307.281926 
L 334.791286 307.053082 
L 335.116265 307.172081 
L 335.278755 306.760162 
L 335.441245 306.027861 
L 335.603735 306.22009 
L 335.766224 306.0004 
L 335.928714 304.63649 
L 336.091204 306.503857 
L 336.253694 306.494703 
L 336.741163 307.263619 
L 336.903653 306.723547 
L 337.066143 306.741854 
L 337.228632 306.595394 
L 337.391122 306.860853 
L 337.553612 305.963785 
L 337.716102 306.824238 
L 338.041081 306.22009 
L 338.203571 306.952391 
L 338.366061 305.643404 
L 338.52855 305.808171 
L 338.69104 306.476395 
L 338.85353 305.78071 
L 339.01602 306.018708 
L 339.178509 307.281926 
L 339.340999 306.567933 
L 339.503489 307.07139 
L 339.665979 306.137706 
L 339.828468 307.043928 
L 339.990958 306.842546 
L 340.153448 306.201783 
L 340.478428 306.970698 
L 340.803407 307.318541 
L 341.128387 306.751008 
L 341.290876 304.819566 
L 341.453366 306.192629 
L 341.615856 306.467242 
L 341.778346 307.346002 
L 341.940835 304.096419 
L 342.103325 306.485549 
L 342.265815 305.918016 
L 342.428305 303.876729 
L 342.590794 306.238398 
L 342.915774 306.558779 
L 343.078264 305.963785 
L 343.403243 307.034775 
L 343.565733 305.286407 
L 343.728223 305.670865 
L 343.890713 306.961545 
L 344.215692 305.570174 
L 344.378182 306.238398 
L 344.703161 306.128553 
L 344.865651 306.696086 
L 345.028141 306.384858 
L 345.35312 306.604548 
L 345.51561 304.4168 
L 345.6781 306.92493 
L 345.84059 306.943237 
L 346.003079 306.613702 
L 346.165569 306.943237 
L 346.328059 306.934083 
L 346.490549 307.153773 
L 346.653038 307.043928 
L 346.815528 307.263619 
L 346.978018 307.062236 
L 347.140508 305.908863 
L 347.302998 306.36655 
L 347.465487 306.339089 
L 347.790467 305.185716 
L 347.952957 305.689172 
L 348.115446 303.373272 
L 348.277936 307.21785 
L 348.440426 304.63649 
L 348.602916 305.19487 
L 348.765405 304.087265 
L 349.090385 305.689172 
L 349.252875 305.92717 
L 349.577854 306.842546 
L 349.740344 306.604548 
L 349.902834 305.799018 
L 350.065324 306.247552 
L 350.227813 306.009554 
L 350.390303 306.595394 
L 350.552793 305.103332 
L 350.715283 305.954631 
L 350.877772 305.963785 
L 351.040262 306.339089 
L 351.202752 306.055323 
L 351.365242 306.037015 
L 351.527731 305.085025 
L 351.690221 306.513011 
L 352.015201 305.103332 
L 352.17769 306.348243 
L 352.34018 306.595394 
L 352.50267 306.558779 
L 352.66516 306.723547 
L 352.827649 305.551866 
L 352.990139 307.053082 
L 353.315119 306.247552 
L 353.477609 304.755489 
L 353.965078 306.284167 
L 354.127568 304.316109 
L 354.290057 306.0004 
L 354.452547 305.890555 
L 354.615037 306.384858 
L 354.777527 305.542712 
L 355.102506 306.641163 
L 355.264996 305.899709 
L 355.427486 305.725787 
L 355.589975 305.92717 
L 355.752465 304.517492 
L 355.914955 305.506097 
L 356.077445 305.149101 
L 356.239934 306.0004 
L 356.402424 305.496944 
L 356.564914 304.224571 
L 356.727404 306.760162 
L 356.889894 306.027861 
L 357.214873 306.92493 
L 357.539853 307.355156 
L 357.702342 306.851699 
L 357.864832 306.751008 
L 358.027322 306.348243 
L 358.189812 304.682259 
L 358.514791 306.046169 
L 358.677281 304.407647 
L 358.839771 304.453415 
L 359.00226 306.247552 
L 359.16475 306.284167 
L 359.48973 305.332176 
L 359.652219 302.402974 
L 359.977199 307.172081 
L 360.302179 307.208696 
L 360.789648 306.119399 
L 360.952138 306.284167 
L 361.277117 303.986574 
L 361.439607 306.705239 
L 361.602097 306.009554 
L 361.764586 306.009554 
L 361.927076 301.698135 
L 362.089566 306.870007 
L 362.252056 305.332176 
L 362.577035 306.357397 
L 362.739525 305.899709 
L 362.902015 304.526645 
L 363.064505 306.833392 
L 363.226994 303.602116 
L 363.389484 306.696086 
L 363.551974 306.485549 
L 363.714464 306.741854 
L 363.876953 306.247552 
L 364.039443 304.691413 
L 364.201933 306.805931 
L 364.364423 306.824238 
L 364.689402 305.222331 
L 364.851892 306.503857 
L 365.176871 297.643021 
L 365.339361 300.343379 
L 365.501851 305.835633 
L 365.664341 305.432867 
L 365.82683 303.922497 
L 365.98932 304.178803 
L 366.3143 305.469482 
L 366.47679 302.8332 
L 366.639279 305.478636 
L 366.801769 305.652557 
L 366.964259 302.256514 
L 367.451728 306.842546 
L 367.776708 304.297801 
L 367.939197 305.92717 
L 368.101687 305.020948 
L 368.264177 305.085025 
L 368.589156 306.961545 
L 368.751646 305.240638 
L 368.914136 306.686932 
L 369.076626 306.760162 
L 369.239115 303.858421 
L 369.401605 305.698326 
L 369.726585 300.178611 
L 369.889075 305.551866 
L 370.051564 298.585857 
L 370.376544 305.652557 
L 370.701523 306.741854 
L 370.864013 306.714393 
L 371.026503 306.375704 
L 371.351482 307.07139 
L 371.513972 306.384858 
L 371.838952 302.137515 
L 372.001441 305.771556 
L 372.163931 306.833392 
L 372.326421 307.062236 
L 372.6514 306.842546 
L 372.81389 306.348243 
L 372.97638 306.348243 
L 373.13887 306.851699 
L 373.30136 302.61351 
L 373.463849 304.544953 
L 373.626339 303.97742 
L 373.788829 304.746336 
L 373.951319 301.212986 
L 374.276298 305.542712 
L 374.438788 304.856181 
L 374.601278 306.577087 
L 374.763767 306.934083 
L 374.926257 305.661711 
L 375.088747 306.265859 
L 375.413726 304.316109 
L 375.576216 303.409887 
L 376.063686 306.357397 
L 376.226175 306.723547 
L 376.388665 303.61127 
L 376.551155 303.629577 
L 376.713645 305.533559 
L 377.201114 303.309196 
L 377.363604 307.034775 
L 377.526093 305.92717 
L 377.688583 307.043928 
L 377.851073 305.432867 
L 378.013563 306.137706 
L 378.176052 302.970507 
L 378.338542 304.435108 
L 378.501032 296.956489 
L 378.663522 302.805739 
L 378.826011 303.840114 
L 378.988501 303.39158 
L 379.150991 302.567742 
L 379.313481 300.233534 
L 379.475971 305.506097 
L 379.63846 307.07139 
L 379.96344 307.355156 
L 380.12593 307.153773 
L 380.288419 307.21785 
L 380.450909 306.934083 
L 380.613399 307.254465 
L 380.775889 307.153773 
L 380.938378 295.446119 
L 381.100868 296.974796 
L 381.263358 285.743137 
L 381.425848 292.095844 
L 381.588337 271.316817 
L 381.750827 293.37737 
L 381.913317 293.752674 
L 382.075807 305.48779 
L 382.238296 307.043928 
L 382.400786 307.318541 
L 383.213235 307.263619 
L 383.375725 307.446694 
L 383.538215 307.43754 
L 383.863194 278.795436 
L 384.025684 306.165168 
L 384.188174 301.817133 
L 384.350663 305.78071 
L 384.513153 304.169649 
L 384.675643 304.206264 
L 385.325602 307.172081 
L 385.488092 307.07139 
L 385.650581 307.126312 
L 385.813071 306.329935 
L 385.975561 306.275013 
L 386.138051 298.466859 
L 386.300541 301.981901 
L 386.46303 292.745761 
L 386.62552 304.956872 
L 386.78801 304.407647 
L 387.112989 301.313677 
L 387.437969 291.985999 
L 387.762948 306.256705 
L 387.925438 307.281926 
L 388.087928 307.062236 
L 388.250418 307.043928 
L 388.412907 307.336849 
L 388.575397 307.181235 
L 388.737887 303.345811 
L 388.900377 306.833392 
L 389.062867 276.369691 
L 389.225356 299.693462 
L 389.387846 301.048218 
L 389.550336 300.068766 
L 389.712826 274.117867 
L 389.875315 305.863094 
L 390.037805 307.410079 
L 390.200295 306.860853 
L 390.362785 307.400925 
L 390.525274 307.318541 
L 390.687764 307.43754 
L 391.012744 307.43754 
L 391.175233 307.465001 
L 391.337723 307.373464 
L 391.662703 307.400925 
L 391.825192 307.382617 
L 391.987682 307.236157 
L 392.150172 306.934083 
L 392.312662 307.391771 
L 392.475152 266.117484 
L 392.637641 284.910145 
L 392.800131 79.142856 
L 392.962621 199.468984 
L 393.125111 230.124914 
L 393.45009 54.143948 
L 393.61258 305.936324 
L 393.77507 307.300234 
L 394.587518 307.300234 
L 394.750008 307.382617 
L 395.074988 307.309387 
L 395.562457 307.355156 
L 396.049926 307.281926 
L 397.024865 307.318541 
L 397.187355 307.016467 
L 397.349844 307.162927 
L 397.512334 304.847027 
L 397.674824 298.585857 
L 397.999803 250.400484 
L 398.162293 306.888315 
L 398.324783 306.494703 
L 398.487273 306.778469 
L 398.487273 306.778469 
" clip-path="url(#p96d096a3ee)" style="fill: none; stroke: #1f77b4; stroke-width: 1.5; stroke-linecap: square"/>
   </g>
   <g id="line2d_32">
    <path d="M 73.832727 307.582902 
L 101.455987 307.42921 
L 141.753448 307.409804 
L 154.752629 307.402847 
L 310.742801 306.943512 
L 312.367699 306.92255 
L 319.517248 306.904517 
L 320.817166 306.842363 
L 334.953776 306.727025 
L 338.69104 306.664505 
L 340.803407 306.726842 
L 341.778346 306.711189 
L 342.753284 306.624046 
L 345.35312 306.548436 
L 346.165569 306.522805 
L 348.602916 306.435387 
L 349.740344 306.349616 
L 352.827649 306.216703 
L 356.239934 306.063012 
L 360.302179 305.991063 
L 361.439607 305.965799 
L 365.82683 305.704093 
L 367.451728 305.554063 
L 369.889075 305.413736 
L 370.214054 305.309108 
L 371.676462 305.341696 
L 372.163931 305.329613 
L 373.30136 305.356342 
L 374.926257 305.21455 
L 375.576216 305.175464 
L 379.150991 304.887029 
L 379.475971 304.84007 
L 380.938378 304.813066 
L 381.425848 304.488108 
L 381.750827 304.07326 
L 382.075807 303.972111 
L 383.538215 304.242696 
L 384.025684 303.828122 
L 384.675643 303.768531 
L 385.325602 303.772101 
L 386.300541 303.872243 
L 386.62552 303.761391 
L 387.112989 303.647152 
L 387.762948 303.314322 
L 388.575397 303.419224 
L 388.900377 303.383067 
L 389.062867 303.083281 
L 389.550336 302.933251 
L 389.712826 302.62898 
L 392.312662 303.005932 
L 392.637641 302.41286 
L 392.962621 299.107347 
L 393.125111 298.361224 
L 393.45009 293.934376 
L 394.262539 293.970625 
L 396.212416 294.404971 
L 397.024865 294.412019 
L 397.837314 294.958041 
L 397.999803 294.528272 
L 398.324783 294.669697 
L 398.487273 294.667043 
L 398.487273 294.667043 
" clip-path="url(#p96d096a3ee)" style="fill: none; stroke: #d62728; stroke-width: 1.5; stroke-linecap: square"/>
   </g>
   <g id="patch_3">
    <path d="M 57.6 307.584 
L 57.6 41.472 
" style="fill: none; stroke: #ffffff; stroke-linejoin: miter; stroke-linecap: square"/>
   </g>
   <g id="patch_4">
    <path d="M 414.72 307.584 
L 414.72 41.472 
" style="fill: none; stroke: #ffffff; stroke-linejoin: miter; stroke-linecap: square"/>
   </g>
   <g id="patch_5">
    <path d="M 57.6 307.584 
L 414.72 307.584 
" style="fill: none; stroke: #ffffff; stroke-linejoin: miter; stroke-linecap: square"/>
   </g>
   <g id="patch_6">
    <path d="M 57.6 41.472 
L 414.72 41.472 
" style="fill: none; stroke: #ffffff; stroke-linejoin: miter; stroke-linecap: square"/>
   </g>
   <g id="text_18">
    <!-- 88 -->
    <g transform="translate(398.487273 306.778469) scale(0.1 -0.1)">
     <defs>
      <path id="DejaVuSans-38" d="M 2034 2216 
Q 1584 2216 1326 1975 
Q 1069 1734 1069 1313 
Q 1069 891 1326 650 
Q 1584 409 2034 409 
Q 2484 409 2743 651 
Q 3003 894 3003 1313 
Q 3003 1734 2745 1975 
Q 2488 2216 2034 2216 
z
M 1403 2484 
Q 997 2584 770 2862 
Q 544 3141 544 3541 
Q 544 4100 942 4425 
Q 1341 4750 2034 4750 
Q 2731 4750 3128 4425 
Q 3525 4100 3525 3541 
Q 3525 3141 3298 2862 
Q 3072 2584 2669 2484 
Q 3125 2378 3379 2068 
Q 3634 1759 3634 1313 
Q 3634 634 3220 271 
Q 2806 -91 2034 -91 
Q 1263 -91 848 271 
Q 434 634 434 1313 
Q 434 1759 690 2068 
Q 947 2378 1403 2484 
z
M 1172 3481 
Q 1172 3119 1398 2916 
Q 1625 2713 2034 2713 
Q 2441 2713 2670 2916 
Q 2900 3119 2900 3481 
Q 2900 3844 2670 4047 
Q 2441 4250 2034 4250 
Q 1625 4250 1398 4047 
Q 1172 3844 1172 3481 
z
" transform="scale(0.015625)"/>
     </defs>
     <use xlink:href="#DejaVuSans-38"/>
     <use xlink:href="#DejaVuSans-38" x="63.623047"/>
    </g>
   </g>
   <g id="text_19">
    <!-- 1411.11 -->
    <g transform="translate(398.487273 294.667043) scale(0.1 -0.1)">
     <defs>
      <path id="DejaVuSans-34" d="M 2419 4116 
L 825 1625 
L 2419 1625 
L 2419 4116 
z
M 2253 4666 
L 3047 4666 
L 3047 1625 
L 3713 1625 
L 3713 1100 
L 3047 1100 
L 3047 0 
L 2419 0 
L 2419 1100 
L 313 1100 
L 313 1709 
L 2253 4666 
z
" transform="scale(0.015625)"/>
      <path id="DejaVuSans-2e" d="M 684 794 
L 1344 794 
L 1344 0 
L 684 0 
L 684 794 
z
" transform="scale(0.015625)"/>
     </defs>
     <use xlink:href="#DejaVuSans-31"/>
     <use xlink:href="#DejaVuSans-34" x="63.623047"/>
     <use xlink:href="#DejaVuSans-31" x="127.246094"/>
     <use xlink:href="#DejaVuSans-31" x="190.869141"/>
     <use xlink:href="#DejaVuSans-2e" x="254.492188"/>
     <use xlink:href="#DejaVuSans-31" x="286.279297"/>
     <use xlink:href="#DejaVuSans-31" x="349.902344"/>
    </g>
   </g>
   <g id="text_20">
    <!-- Epoch: 1999 -->
    <g transform="translate(191.0745 35.472) scale(0.144 -0.144)">
     <defs>
      <path id="DejaVuSans-45" d="M 628 4666 
L 3578 4666 
L 3578 4134 
L 1259 4134 
L 1259 2753 
L 3481 2753 
L 3481 2222 
L 1259 2222 
L 1259 531 
L 3634 531 
L 3634 0 
L 628 0 
L 628 4666 
z
" transform="scale(0.015625)"/>
      <path id="DejaVuSans-70" d="M 1159 525 
L 1159 -1331 
L 581 -1331 
L 581 3500 
L 1159 3500 
L 1159 2969 
Q 1341 3281 1617 3432 
Q 1894 3584 2278 3584 
Q 2916 3584 3314 3078 
Q 3713 2572 3713 1747 
Q 3713 922 3314 415 
Q 2916 -91 2278 -91 
Q 1894 -91 1617 61 
Q 1341 213 1159 525 
z
M 3116 1747 
Q 3116 2381 2855 2742 
Q 2594 3103 2138 3103 
Q 1681 3103 1420 2742 
Q 1159 2381 1159 1747 
Q 1159 1113 1420 752 
Q 1681 391 2138 391 
Q 2594 391 2855 752 
Q 3116 1113 3116 1747 
z
" transform="scale(0.015625)"/>
      <path id="DejaVuSans-63" d="M 3122 3366 
L 3122 2828 
Q 2878 2963 2633 3030 
Q 2388 3097 2138 3097 
Q 1578 3097 1268 2742 
Q 959 2388 959 1747 
Q 959 1106 1268 751 
Q 1578 397 2138 397 
Q 2388 397 2633 464 
Q 2878 531 3122 666 
L 3122 134 
Q 2881 22 2623 -34 
Q 2366 -91 2075 -91 
Q 1284 -91 818 406 
Q 353 903 353 1747 
Q 353 2603 823 3093 
Q 1294 3584 2113 3584 
Q 2378 3584 2631 3529 
Q 2884 3475 3122 3366 
z
" transform="scale(0.015625)"/>
      <path id="DejaVuSans-68" d="M 3513 2113 
L 3513 0 
L 2938 0 
L 2938 2094 
Q 2938 2591 2744 2837 
Q 2550 3084 2163 3084 
Q 1697 3084 1428 2787 
Q 1159 2491 1159 1978 
L 1159 0 
L 581 0 
L 581 4863 
L 1159 4863 
L 1159 2956 
Q 1366 3272 1645 3428 
Q 1925 3584 2291 3584 
Q 2894 3584 3203 3211 
Q 3513 2838 3513 2113 
z
" transform="scale(0.015625)"/>
      <path id="DejaVuSans-3a" d="M 750 794 
L 1409 794 
L 1409 0 
L 750 0 
L 750 794 
z
M 750 3309 
L 1409 3309 
L 1409 2516 
L 750 2516 
L 750 3309 
z
" transform="scale(0.015625)"/>
      <path id="DejaVuSans-39" d="M 703 97 
L 703 672 
Q 941 559 1184 500 
Q 1428 441 1663 441 
Q 2288 441 2617 861 
Q 2947 1281 2994 2138 
Q 2813 1869 2534 1725 
Q 2256 1581 1919 1581 
Q 1219 1581 811 2004 
Q 403 2428 403 3163 
Q 403 3881 828 4315 
Q 1253 4750 1959 4750 
Q 2769 4750 3195 4129 
Q 3622 3509 3622 2328 
Q 3622 1225 3098 567 
Q 2575 -91 1691 -91 
Q 1453 -91 1209 -44 
Q 966 3 703 97 
z
M 1959 2075 
Q 2384 2075 2632 2365 
Q 2881 2656 2881 3163 
Q 2881 3666 2632 3958 
Q 2384 4250 1959 4250 
Q 1534 4250 1286 3958 
Q 1038 3666 1038 3163 
Q 1038 2656 1286 2365 
Q 1534 2075 1959 2075 
z
" transform="scale(0.015625)"/>
     </defs>
     <use xlink:href="#DejaVuSans-45"/>
     <use xlink:href="#DejaVuSans-70" x="63.183594"/>
     <use xlink:href="#DejaVuSans-6f" x="126.660156"/>
     <use xlink:href="#DejaVuSans-63" x="187.841797"/>
     <use xlink:href="#DejaVuSans-68" x="242.822266"/>
     <use xlink:href="#DejaVuSans-3a" x="306.201172"/>
     <use xlink:href="#DejaVuSans-20" x="339.892578"/>
     <use xlink:href="#DejaVuSans-31" x="371.679688"/>
     <use xlink:href="#DejaVuSans-39" x="435.302734"/>
     <use xlink:href="#DejaVuSans-39" x="498.925781"/>
     <use xlink:href="#DejaVuSans-39" x="562.548828"/>
    </g>
   </g>
  </g>
 </g>
 <defs>
  <clipPath id="p96d096a3ee">
   <rect x="57.6" y="41.472" width="357.12" height="266.112"/>
  </clipPath>
 </defs>
</svg>
