<?xml version="1.0" encoding="utf-8" standalone="no"?>
<!DOCTYPE svg PUBLIC "-//W3C//DTD SVG 1.1//EN"
  "http://www.w3.org/Graphics/SVG/1.1/DTD/svg11.dtd">
<svg xmlns:xlink="http://www.w3.org/1999/xlink" width="460.8pt" height="345.6pt" viewBox="0 0 460.8 345.6" xmlns="http://www.w3.org/2000/svg" version="1.1">
 <metadata>
  <rdf:RDF xmlns:dc="http://purl.org/dc/elements/1.1/" xmlns:cc="http://creativecommons.org/ns#" xmlns:rdf="http://www.w3.org/1999/02/22-rdf-syntax-ns#">
   <cc:Work>
    <dc:type rdf:resource="http://purl.org/dc/dcmitype/StillImage"/>
    <dc:date>2024-07-24T17:20:54.987301</dc:date>
    <dc:format>image/svg+xml</dc:format>
    <dc:creator>
     <cc:Agent>
      <dc:title>Matplotlib v3.9.1, https://matplotlib.org/</dc:title>
     </cc:Agent>
    </dc:creator>
   </cc:Work>
  </rdf:RDF>
 </metadata>
 <defs>
  <style type="text/css">*{stroke-linejoin: round; stroke-linecap: butt}</style>
 </defs>
 <g id="figure_1">
  <g id="patch_1">
   <path d="M 0 345.6 
L 460.8 345.6 
L 460.8 0 
L 0 0 
z
" style="fill: #ffffff"/>
  </g>
  <g id="axes_1">
   <g id="patch_2">
    <path d="M 57.6 307.584 
L 414.72 307.584 
L 414.72 41.472 
L 57.6 41.472 
z
" style="fill: #e5e5e5"/>
   </g>
   <g id="matplotlib.axis_1">
    <g id="xtick_1">
     <g id="line2d_1">
      <path d="M 73.832727 307.584 
L 73.832727 41.472 
" clip-path="url(#p39cd4a5c6c)" style="fill: none; stroke: #ffffff; stroke-width: 0.8; stroke-linecap: square"/>
     </g>
     <g id="line2d_2">
      <defs>
       <path id="mddf191d3ac" d="M 0 0 
L 0 3.5 
" style="stroke: #555555; stroke-width: 0.8"/>
      </defs>
      <g>
       <use xlink:href="#mddf191d3ac" x="73.832727" y="307.584" style="fill: #555555; stroke: #555555; stroke-width: 0.8"/>
      </g>
     </g>
     <g id="text_1">
      <!-- 0 -->
      <g style="fill: #555555" transform="translate(70.651477 322.182437) scale(0.1 -0.1)">
       <defs>
        <path id="DejaVuSans-30" d="M 2034 4250 
Q 1547 4250 1301 3770 
Q 1056 3291 1056 2328 
Q 1056 1369 1301 889 
Q 1547 409 2034 409 
Q 2525 409 2770 889 
Q 3016 1369 3016 2328 
Q 3016 3291 2770 3770 
Q 2525 4250 2034 4250 
z
M 2034 4750 
Q 2819 4750 3233 4129 
Q 3647 3509 3647 2328 
Q 3647 1150 3233 529 
Q 2819 -91 2034 -91 
Q 1250 -91 836 529 
Q 422 1150 422 2328 
Q 422 3509 836 4129 
Q 1250 4750 2034 4750 
z
" transform="scale(0.015625)"/>
       </defs>
       <use xlink:href="#DejaVuSans-30"/>
      </g>
     </g>
    </g>
    <g id="xtick_2">
     <g id="line2d_3">
      <path d="M 127.977915 307.584 
L 127.977915 41.472 
" clip-path="url(#p39cd4a5c6c)" style="fill: none; stroke: #ffffff; stroke-width: 0.8; stroke-linecap: square"/>
     </g>
     <g id="line2d_4">
      <g>
       <use xlink:href="#mddf191d3ac" x="127.977915" y="307.584" style="fill: #555555; stroke: #555555; stroke-width: 0.8"/>
      </g>
     </g>
     <g id="text_2">
      <!-- 500 -->
      <g style="fill: #555555" transform="translate(118.434165 322.182437) scale(0.1 -0.1)">
       <defs>
        <path id="DejaVuSans-35" d="M 691 4666 
L 3169 4666 
L 3169 4134 
L 1269 4134 
L 1269 2991 
Q 1406 3038 1543 3061 
Q 1681 3084 1819 3084 
Q 2600 3084 3056 2656 
Q 3513 2228 3513 1497 
Q 3513 744 3044 326 
Q 2575 -91 1722 -91 
Q 1428 -91 1123 -41 
Q 819 9 494 109 
L 494 744 
Q 775 591 1075 516 
Q 1375 441 1709 441 
Q 2250 441 2565 725 
Q 2881 1009 2881 1497 
Q 2881 1984 2565 2268 
Q 2250 2553 1709 2553 
Q 1456 2553 1204 2497 
Q 953 2441 691 2322 
L 691 4666 
z
" transform="scale(0.015625)"/>
       </defs>
       <use xlink:href="#DejaVuSans-35"/>
       <use xlink:href="#DejaVuSans-30" x="63.623047"/>
       <use xlink:href="#DejaVuSans-30" x="127.246094"/>
      </g>
     </g>
    </g>
    <g id="xtick_3">
     <g id="line2d_5">
      <path d="M 182.123103 307.584 
L 182.123103 41.472 
" clip-path="url(#p39cd4a5c6c)" style="fill: none; stroke: #ffffff; stroke-width: 0.8; stroke-linecap: square"/>
     </g>
     <g id="line2d_6">
      <g>
       <use xlink:href="#mddf191d3ac" x="182.123103" y="307.584" style="fill: #555555; stroke: #555555; stroke-width: 0.8"/>
      </g>
     </g>
     <g id="text_3">
      <!-- 1000 -->
      <g style="fill: #555555" transform="translate(169.398103 322.182437) scale(0.1 -0.1)">
       <defs>
        <path id="DejaVuSans-31" d="M 794 531 
L 1825 531 
L 1825 4091 
L 703 3866 
L 703 4441 
L 1819 4666 
L 2450 4666 
L 2450 531 
L 3481 531 
L 3481 0 
L 794 0 
L 794 531 
z
" transform="scale(0.015625)"/>
       </defs>
       <use xlink:href="#DejaVuSans-31"/>
       <use xlink:href="#DejaVuSans-30" x="63.623047"/>
       <use xlink:href="#DejaVuSans-30" x="127.246094"/>
       <use xlink:href="#DejaVuSans-30" x="190.869141"/>
      </g>
     </g>
    </g>
    <g id="xtick_4">
     <g id="line2d_7">
      <path d="M 236.26829 307.584 
L 236.26829 41.472 
" clip-path="url(#p39cd4a5c6c)" style="fill: none; stroke: #ffffff; stroke-width: 0.8; stroke-linecap: square"/>
     </g>
     <g id="line2d_8">
      <g>
       <use xlink:href="#mddf191d3ac" x="236.26829" y="307.584" style="fill: #555555; stroke: #555555; stroke-width: 0.8"/>
      </g>
     </g>
     <g id="text_4">
      <!-- 1500 -->
      <g style="fill: #555555" transform="translate(223.54329 322.182437) scale(0.1 -0.1)">
       <use xlink:href="#DejaVuSans-31"/>
       <use xlink:href="#DejaVuSans-35" x="63.623047"/>
       <use xlink:href="#DejaVuSans-30" x="127.246094"/>
       <use xlink:href="#DejaVuSans-30" x="190.869141"/>
      </g>
     </g>
    </g>
    <g id="xtick_5">
     <g id="line2d_9">
      <path d="M 290.413478 307.584 
L 290.413478 41.472 
" clip-path="url(#p39cd4a5c6c)" style="fill: none; stroke: #ffffff; stroke-width: 0.8; stroke-linecap: square"/>
     </g>
     <g id="line2d_10">
      <g>
       <use xlink:href="#mddf191d3ac" x="290.413478" y="307.584" style="fill: #555555; stroke: #555555; stroke-width: 0.8"/>
      </g>
     </g>
     <g id="text_5">
      <!-- 2000 -->
      <g style="fill: #555555" transform="translate(277.688478 322.182437) scale(0.1 -0.1)">
       <defs>
        <path id="DejaVuSans-32" d="M 1228 531 
L 3431 531 
L 3431 0 
L 469 0 
L 469 531 
Q 828 903 1448 1529 
Q 2069 2156 2228 2338 
Q 2531 2678 2651 2914 
Q 2772 3150 2772 3378 
Q 2772 3750 2511 3984 
Q 2250 4219 1831 4219 
Q 1534 4219 1204 4116 
Q 875 4013 500 3803 
L 500 4441 
Q 881 4594 1212 4672 
Q 1544 4750 1819 4750 
Q 2544 4750 2975 4387 
Q 3406 4025 3406 3419 
Q 3406 3131 3298 2873 
Q 3191 2616 2906 2266 
Q 2828 2175 2409 1742 
Q 1991 1309 1228 531 
z
" transform="scale(0.015625)"/>
       </defs>
       <use xlink:href="#DejaVuSans-32"/>
       <use xlink:href="#DejaVuSans-30" x="63.623047"/>
       <use xlink:href="#DejaVuSans-30" x="127.246094"/>
       <use xlink:href="#DejaVuSans-30" x="190.869141"/>
      </g>
     </g>
    </g>
    <g id="xtick_6">
     <g id="line2d_11">
      <path d="M 344.558666 307.584 
L 344.558666 41.472 
" clip-path="url(#p39cd4a5c6c)" style="fill: none; stroke: #ffffff; stroke-width: 0.8; stroke-linecap: square"/>
     </g>
     <g id="line2d_12">
      <g>
       <use xlink:href="#mddf191d3ac" x="344.558666" y="307.584" style="fill: #555555; stroke: #555555; stroke-width: 0.8"/>
      </g>
     </g>
     <g id="text_6">
      <!-- 2500 -->
      <g style="fill: #555555" transform="translate(331.833666 322.182437) scale(0.1 -0.1)">
       <use xlink:href="#DejaVuSans-32"/>
       <use xlink:href="#DejaVuSans-35" x="63.623047"/>
       <use xlink:href="#DejaVuSans-30" x="127.246094"/>
       <use xlink:href="#DejaVuSans-30" x="190.869141"/>
      </g>
     </g>
    </g>
    <g id="xtick_7">
     <g id="line2d_13">
      <path d="M 398.703853 307.584 
L 398.703853 41.472 
" clip-path="url(#p39cd4a5c6c)" style="fill: none; stroke: #ffffff; stroke-width: 0.8; stroke-linecap: square"/>
     </g>
     <g id="line2d_14">
      <g>
       <use xlink:href="#mddf191d3ac" x="398.703853" y="307.584" style="fill: #555555; stroke: #555555; stroke-width: 0.8"/>
      </g>
     </g>
     <g id="text_7">
      <!-- 3000 -->
      <g style="fill: #555555" transform="translate(385.978853 322.182437) scale(0.1 -0.1)">
       <defs>
        <path id="DejaVuSans-33" d="M 2597 2516 
Q 3050 2419 3304 2112 
Q 3559 1806 3559 1356 
Q 3559 666 3084 287 
Q 2609 -91 1734 -91 
Q 1441 -91 1130 -33 
Q 819 25 488 141 
L 488 750 
Q 750 597 1062 519 
Q 1375 441 1716 441 
Q 2309 441 2620 675 
Q 2931 909 2931 1356 
Q 2931 1769 2642 2001 
Q 2353 2234 1838 2234 
L 1294 2234 
L 1294 2753 
L 1863 2753 
Q 2328 2753 2575 2939 
Q 2822 3125 2822 3475 
Q 2822 3834 2567 4026 
Q 2313 4219 1838 4219 
Q 1578 4219 1281 4162 
Q 984 4106 628 3988 
L 628 4550 
Q 988 4650 1302 4700 
Q 1616 4750 1894 4750 
Q 2613 4750 3031 4423 
Q 3450 4097 3450 3541 
Q 3450 3153 3228 2886 
Q 3006 2619 2597 2516 
z
" transform="scale(0.015625)"/>
       </defs>
       <use xlink:href="#DejaVuSans-33"/>
       <use xlink:href="#DejaVuSans-30" x="63.623047"/>
       <use xlink:href="#DejaVuSans-30" x="127.246094"/>
       <use xlink:href="#DejaVuSans-30" x="190.869141"/>
      </g>
     </g>
    </g>
    <g id="text_8">
     <!-- Number of Games -->
     <g style="fill: #555555" transform="translate(181.471875 337.38025) scale(0.12 -0.12)">
      <defs>
       <path id="DejaVuSans-4e" d="M 628 4666 
L 1478 4666 
L 3547 763 
L 3547 4666 
L 4159 4666 
L 4159 0 
L 3309 0 
L 1241 3903 
L 1241 0 
L 628 0 
L 628 4666 
z
" transform="scale(0.015625)"/>
       <path id="DejaVuSans-75" d="M 544 1381 
L 544 3500 
L 1119 3500 
L 1119 1403 
Q 1119 906 1312 657 
Q 1506 409 1894 409 
Q 2359 409 2629 706 
Q 2900 1003 2900 1516 
L 2900 3500 
L 3475 3500 
L 3475 0 
L 2900 0 
L 2900 538 
Q 2691 219 2414 64 
Q 2138 -91 1772 -91 
Q 1169 -91 856 284 
Q 544 659 544 1381 
z
M 1991 3584 
L 1991 3584 
z
" transform="scale(0.015625)"/>
       <path id="DejaVuSans-6d" d="M 3328 2828 
Q 3544 3216 3844 3400 
Q 4144 3584 4550 3584 
Q 5097 3584 5394 3201 
Q 5691 2819 5691 2113 
L 5691 0 
L 5113 0 
L 5113 2094 
Q 5113 2597 4934 2840 
Q 4756 3084 4391 3084 
Q 3944 3084 3684 2787 
Q 3425 2491 3425 1978 
L 3425 0 
L 2847 0 
L 2847 2094 
Q 2847 2600 2669 2842 
Q 2491 3084 2119 3084 
Q 1678 3084 1418 2786 
Q 1159 2488 1159 1978 
L 1159 0 
L 581 0 
L 581 3500 
L 1159 3500 
L 1159 2956 
Q 1356 3278 1631 3431 
Q 1906 3584 2284 3584 
Q 2666 3584 2933 3390 
Q 3200 3197 3328 2828 
z
" transform="scale(0.015625)"/>
       <path id="DejaVuSans-62" d="M 3116 1747 
Q 3116 2381 2855 2742 
Q 2594 3103 2138 3103 
Q 1681 3103 1420 2742 
Q 1159 2381 1159 1747 
Q 1159 1113 1420 752 
Q 1681 391 2138 391 
Q 2594 391 2855 752 
Q 3116 1113 3116 1747 
z
M 1159 2969 
Q 1341 3281 1617 3432 
Q 1894 3584 2278 3584 
Q 2916 3584 3314 3078 
Q 3713 2572 3713 1747 
Q 3713 922 3314 415 
Q 2916 -91 2278 -91 
Q 1894 -91 1617 61 
Q 1341 213 1159 525 
L 1159 0 
L 581 0 
L 581 4863 
L 1159 4863 
L 1159 2969 
z
" transform="scale(0.015625)"/>
       <path id="DejaVuSans-65" d="M 3597 1894 
L 3597 1613 
L 953 1613 
Q 991 1019 1311 708 
Q 1631 397 2203 397 
Q 2534 397 2845 478 
Q 3156 559 3463 722 
L 3463 178 
Q 3153 47 2828 -22 
Q 2503 -91 2169 -91 
Q 1331 -91 842 396 
Q 353 884 353 1716 
Q 353 2575 817 3079 
Q 1281 3584 2069 3584 
Q 2775 3584 3186 3129 
Q 3597 2675 3597 1894 
z
M 3022 2063 
Q 3016 2534 2758 2815 
Q 2500 3097 2075 3097 
Q 1594 3097 1305 2825 
Q 1016 2553 972 2059 
L 3022 2063 
z
" transform="scale(0.015625)"/>
       <path id="DejaVuSans-72" d="M 2631 2963 
Q 2534 3019 2420 3045 
Q 2306 3072 2169 3072 
Q 1681 3072 1420 2755 
Q 1159 2438 1159 1844 
L 1159 0 
L 581 0 
L 581 3500 
L 1159 3500 
L 1159 2956 
Q 1341 3275 1631 3429 
Q 1922 3584 2338 3584 
Q 2397 3584 2469 3576 
Q 2541 3569 2628 3553 
L 2631 2963 
z
" transform="scale(0.015625)"/>
       <path id="DejaVuSans-20" transform="scale(0.015625)"/>
       <path id="DejaVuSans-6f" d="M 1959 3097 
Q 1497 3097 1228 2736 
Q 959 2375 959 1747 
Q 959 1119 1226 758 
Q 1494 397 1959 397 
Q 2419 397 2687 759 
Q 2956 1122 2956 1747 
Q 2956 2369 2687 2733 
Q 2419 3097 1959 3097 
z
M 1959 3584 
Q 2709 3584 3137 3096 
Q 3566 2609 3566 1747 
Q 3566 888 3137 398 
Q 2709 -91 1959 -91 
Q 1206 -91 779 398 
Q 353 888 353 1747 
Q 353 2609 779 3096 
Q 1206 3584 1959 3584 
z
" transform="scale(0.015625)"/>
       <path id="DejaVuSans-66" d="M 2375 4863 
L 2375 4384 
L 1825 4384 
Q 1516 4384 1395 4259 
Q 1275 4134 1275 3809 
L 1275 3500 
L 2222 3500 
L 2222 3053 
L 1275 3053 
L 1275 0 
L 697 0 
L 697 3053 
L 147 3053 
L 147 3500 
L 697 3500 
L 697 3744 
Q 697 4328 969 4595 
Q 1241 4863 1831 4863 
L 2375 4863 
z
" transform="scale(0.015625)"/>
       <path id="DejaVuSans-47" d="M 3809 666 
L 3809 1919 
L 2778 1919 
L 2778 2438 
L 4434 2438 
L 4434 434 
Q 4069 175 3628 42 
Q 3188 -91 2688 -91 
Q 1594 -91 976 548 
Q 359 1188 359 2328 
Q 359 3472 976 4111 
Q 1594 4750 2688 4750 
Q 3144 4750 3555 4637 
Q 3966 4525 4313 4306 
L 4313 3634 
Q 3963 3931 3569 4081 
Q 3175 4231 2741 4231 
Q 1884 4231 1454 3753 
Q 1025 3275 1025 2328 
Q 1025 1384 1454 906 
Q 1884 428 2741 428 
Q 3075 428 3337 486 
Q 3600 544 3809 666 
z
" transform="scale(0.015625)"/>
       <path id="DejaVuSans-61" d="M 2194 1759 
Q 1497 1759 1228 1600 
Q 959 1441 959 1056 
Q 959 750 1161 570 
Q 1363 391 1709 391 
Q 2188 391 2477 730 
Q 2766 1069 2766 1631 
L 2766 1759 
L 2194 1759 
z
M 3341 1997 
L 3341 0 
L 2766 0 
L 2766 531 
Q 2569 213 2275 61 
Q 1981 -91 1556 -91 
Q 1019 -91 701 211 
Q 384 513 384 1019 
Q 384 1609 779 1909 
Q 1175 2209 1959 2209 
L 2766 2209 
L 2766 2266 
Q 2766 2663 2505 2880 
Q 2244 3097 1772 3097 
Q 1472 3097 1187 3025 
Q 903 2953 641 2809 
L 641 3341 
Q 956 3463 1253 3523 
Q 1550 3584 1831 3584 
Q 2591 3584 2966 3190 
Q 3341 2797 3341 1997 
z
" transform="scale(0.015625)"/>
       <path id="DejaVuSans-73" d="M 2834 3397 
L 2834 2853 
Q 2591 2978 2328 3040 
Q 2066 3103 1784 3103 
Q 1356 3103 1142 2972 
Q 928 2841 928 2578 
Q 928 2378 1081 2264 
Q 1234 2150 1697 2047 
L 1894 2003 
Q 2506 1872 2764 1633 
Q 3022 1394 3022 966 
Q 3022 478 2636 193 
Q 2250 -91 1575 -91 
Q 1294 -91 989 -36 
Q 684 19 347 128 
L 347 722 
Q 666 556 975 473 
Q 1284 391 1588 391 
Q 1994 391 2212 530 
Q 2431 669 2431 922 
Q 2431 1156 2273 1281 
Q 2116 1406 1581 1522 
L 1381 1569 
Q 847 1681 609 1914 
Q 372 2147 372 2553 
Q 372 3047 722 3315 
Q 1072 3584 1716 3584 
Q 2034 3584 2315 3537 
Q 2597 3491 2834 3397 
z
" transform="scale(0.015625)"/>
      </defs>
      <use xlink:href="#DejaVuSans-4e"/>
      <use xlink:href="#DejaVuSans-75" x="74.804688"/>
      <use xlink:href="#DejaVuSans-6d" x="138.183594"/>
      <use xlink:href="#DejaVuSans-62" x="235.595703"/>
      <use xlink:href="#DejaVuSans-65" x="299.072266"/>
      <use xlink:href="#DejaVuSans-72" x="360.595703"/>
      <use xlink:href="#DejaVuSans-20" x="401.708984"/>
      <use xlink:href="#DejaVuSans-6f" x="433.496094"/>
      <use xlink:href="#DejaVuSans-66" x="494.677734"/>
      <use xlink:href="#DejaVuSans-20" x="529.882812"/>
      <use xlink:href="#DejaVuSans-47" x="561.669922"/>
      <use xlink:href="#DejaVuSans-61" x="639.160156"/>
      <use xlink:href="#DejaVuSans-6d" x="700.439453"/>
      <use xlink:href="#DejaVuSans-65" x="797.851562"/>
      <use xlink:href="#DejaVuSans-73" x="859.375"/>
     </g>
    </g>
   </g>
   <g id="matplotlib.axis_2">
    <g id="ytick_1">
     <g id="line2d_15">
      <path d="M 57.6 307.584 
L 414.72 307.584 
" clip-path="url(#p39cd4a5c6c)" style="fill: none; stroke: #ffffff; stroke-width: 0.8; stroke-linecap: square"/>
     </g>
     <g id="line2d_16">
      <defs>
       <path id="m525432954e" d="M 0 0 
L -3.5 0 
" style="stroke: #555555; stroke-width: 0.8"/>
      </defs>
      <g>
       <use xlink:href="#m525432954e" x="57.6" y="307.584" style="fill: #555555; stroke: #555555; stroke-width: 0.8"/>
      </g>
     </g>
     <g id="text_9">
      <!-- 0 -->
      <g style="fill: #555555" transform="translate(44.2375 311.383219) scale(0.1 -0.1)">
       <use xlink:href="#DejaVuSans-30"/>
      </g>
     </g>
    </g>
    <g id="ytick_2">
     <g id="line2d_17">
      <path d="M 57.6 277.839465 
L 414.72 277.839465 
" clip-path="url(#p39cd4a5c6c)" style="fill: none; stroke: #ffffff; stroke-width: 0.8; stroke-linecap: square"/>
     </g>
     <g id="line2d_18">
      <g>
       <use xlink:href="#m525432954e" x="57.6" y="277.839465" style="fill: #555555; stroke: #555555; stroke-width: 0.8"/>
      </g>
     </g>
     <g id="text_10">
      <!-- 100000 -->
      <g style="fill: #555555" transform="translate(12.425 281.638683) scale(0.1 -0.1)">
       <use xlink:href="#DejaVuSans-31"/>
       <use xlink:href="#DejaVuSans-30" x="63.623047"/>
       <use xlink:href="#DejaVuSans-30" x="127.246094"/>
       <use xlink:href="#DejaVuSans-30" x="190.869141"/>
       <use xlink:href="#DejaVuSans-30" x="254.492188"/>
       <use xlink:href="#DejaVuSans-30" x="318.115234"/>
      </g>
     </g>
    </g>
    <g id="ytick_3">
     <g id="line2d_19">
      <path d="M 57.6 248.094929 
L 414.72 248.094929 
" clip-path="url(#p39cd4a5c6c)" style="fill: none; stroke: #ffffff; stroke-width: 0.8; stroke-linecap: square"/>
     </g>
     <g id="line2d_20">
      <g>
       <use xlink:href="#m525432954e" x="57.6" y="248.094929" style="fill: #555555; stroke: #555555; stroke-width: 0.8"/>
      </g>
     </g>
     <g id="text_11">
      <!-- 200000 -->
      <g style="fill: #555555" transform="translate(12.425 251.894148) scale(0.1 -0.1)">
       <use xlink:href="#DejaVuSans-32"/>
       <use xlink:href="#DejaVuSans-30" x="63.623047"/>
       <use xlink:href="#DejaVuSans-30" x="127.246094"/>
       <use xlink:href="#DejaVuSans-30" x="190.869141"/>
       <use xlink:href="#DejaVuSans-30" x="254.492188"/>
       <use xlink:href="#DejaVuSans-30" x="318.115234"/>
      </g>
     </g>
    </g>
    <g id="ytick_4">
     <g id="line2d_21">
      <path d="M 57.6 218.350394 
L 414.72 218.350394 
" clip-path="url(#p39cd4a5c6c)" style="fill: none; stroke: #ffffff; stroke-width: 0.8; stroke-linecap: square"/>
     </g>
     <g id="line2d_22">
      <g>
       <use xlink:href="#m525432954e" x="57.6" y="218.350394" style="fill: #555555; stroke: #555555; stroke-width: 0.8"/>
      </g>
     </g>
     <g id="text_12">
      <!-- 300000 -->
      <g style="fill: #555555" transform="translate(12.425 222.149612) scale(0.1 -0.1)">
       <use xlink:href="#DejaVuSans-33"/>
       <use xlink:href="#DejaVuSans-30" x="63.623047"/>
       <use xlink:href="#DejaVuSans-30" x="127.246094"/>
       <use xlink:href="#DejaVuSans-30" x="190.869141"/>
       <use xlink:href="#DejaVuSans-30" x="254.492188"/>
       <use xlink:href="#DejaVuSans-30" x="318.115234"/>
      </g>
     </g>
    </g>
    <g id="ytick_5">
     <g id="line2d_23">
      <path d="M 57.6 188.605858 
L 414.72 188.605858 
" clip-path="url(#p39cd4a5c6c)" style="fill: none; stroke: #ffffff; stroke-width: 0.8; stroke-linecap: square"/>
     </g>
     <g id="line2d_24">
      <g>
       <use xlink:href="#m525432954e" x="57.6" y="188.605858" style="fill: #555555; stroke: #555555; stroke-width: 0.8"/>
      </g>
     </g>
     <g id="text_13">
      <!-- 400000 -->
      <g style="fill: #555555" transform="translate(12.425 192.405077) scale(0.1 -0.1)">
       <defs>
        <path id="DejaVuSans-34" d="M 2419 4116 
L 825 1625 
L 2419 1625 
L 2419 4116 
z
M 2253 4666 
L 3047 4666 
L 3047 1625 
L 3713 1625 
L 3713 1100 
L 3047 1100 
L 3047 0 
L 2419 0 
L 2419 1100 
L 313 1100 
L 313 1709 
L 2253 4666 
z
" transform="scale(0.015625)"/>
       </defs>
       <use xlink:href="#DejaVuSans-34"/>
       <use xlink:href="#DejaVuSans-30" x="63.623047"/>
       <use xlink:href="#DejaVuSans-30" x="127.246094"/>
       <use xlink:href="#DejaVuSans-30" x="190.869141"/>
       <use xlink:href="#DejaVuSans-30" x="254.492188"/>
       <use xlink:href="#DejaVuSans-30" x="318.115234"/>
      </g>
     </g>
    </g>
    <g id="ytick_6">
     <g id="line2d_25">
      <path d="M 57.6 158.861323 
L 414.72 158.861323 
" clip-path="url(#p39cd4a5c6c)" style="fill: none; stroke: #ffffff; stroke-width: 0.8; stroke-linecap: square"/>
     </g>
     <g id="line2d_26">
      <g>
       <use xlink:href="#m525432954e" x="57.6" y="158.861323" style="fill: #555555; stroke: #555555; stroke-width: 0.8"/>
      </g>
     </g>
     <g id="text_14">
      <!-- 500000 -->
      <g style="fill: #555555" transform="translate(12.425 162.660541) scale(0.1 -0.1)">
       <use xlink:href="#DejaVuSans-35"/>
       <use xlink:href="#DejaVuSans-30" x="63.623047"/>
       <use xlink:href="#DejaVuSans-30" x="127.246094"/>
       <use xlink:href="#DejaVuSans-30" x="190.869141"/>
       <use xlink:href="#DejaVuSans-30" x="254.492188"/>
       <use xlink:href="#DejaVuSans-30" x="318.115234"/>
      </g>
     </g>
    </g>
    <g id="ytick_7">
     <g id="line2d_27">
      <path d="M 57.6 129.116787 
L 414.72 129.116787 
" clip-path="url(#p39cd4a5c6c)" style="fill: none; stroke: #ffffff; stroke-width: 0.8; stroke-linecap: square"/>
     </g>
     <g id="line2d_28">
      <g>
       <use xlink:href="#m525432954e" x="57.6" y="129.116787" style="fill: #555555; stroke: #555555; stroke-width: 0.8"/>
      </g>
     </g>
     <g id="text_15">
      <!-- 600000 -->
      <g style="fill: #555555" transform="translate(12.425 132.916006) scale(0.1 -0.1)">
       <defs>
        <path id="DejaVuSans-36" d="M 2113 2584 
Q 1688 2584 1439 2293 
Q 1191 2003 1191 1497 
Q 1191 994 1439 701 
Q 1688 409 2113 409 
Q 2538 409 2786 701 
Q 3034 994 3034 1497 
Q 3034 2003 2786 2293 
Q 2538 2584 2113 2584 
z
M 3366 4563 
L 3366 3988 
Q 3128 4100 2886 4159 
Q 2644 4219 2406 4219 
Q 1781 4219 1451 3797 
Q 1122 3375 1075 2522 
Q 1259 2794 1537 2939 
Q 1816 3084 2150 3084 
Q 2853 3084 3261 2657 
Q 3669 2231 3669 1497 
Q 3669 778 3244 343 
Q 2819 -91 2113 -91 
Q 1303 -91 875 529 
Q 447 1150 447 2328 
Q 447 3434 972 4092 
Q 1497 4750 2381 4750 
Q 2619 4750 2861 4703 
Q 3103 4656 3366 4563 
z
" transform="scale(0.015625)"/>
       </defs>
       <use xlink:href="#DejaVuSans-36"/>
       <use xlink:href="#DejaVuSans-30" x="63.623047"/>
       <use xlink:href="#DejaVuSans-30" x="127.246094"/>
       <use xlink:href="#DejaVuSans-30" x="190.869141"/>
       <use xlink:href="#DejaVuSans-30" x="254.492188"/>
       <use xlink:href="#DejaVuSans-30" x="318.115234"/>
      </g>
     </g>
    </g>
    <g id="ytick_8">
     <g id="line2d_29">
      <path d="M 57.6 99.372252 
L 414.72 99.372252 
" clip-path="url(#p39cd4a5c6c)" style="fill: none; stroke: #ffffff; stroke-width: 0.8; stroke-linecap: square"/>
     </g>
     <g id="line2d_30">
      <g>
       <use xlink:href="#m525432954e" x="57.6" y="99.372252" style="fill: #555555; stroke: #555555; stroke-width: 0.8"/>
      </g>
     </g>
     <g id="text_16">
      <!-- 700000 -->
      <g style="fill: #555555" transform="translate(12.425 103.17147) scale(0.1 -0.1)">
       <defs>
        <path id="DejaVuSans-37" d="M 525 4666 
L 3525 4666 
L 3525 4397 
L 1831 0 
L 1172 0 
L 2766 4134 
L 525 4134 
L 525 4666 
z
" transform="scale(0.015625)"/>
       </defs>
       <use xlink:href="#DejaVuSans-37"/>
       <use xlink:href="#DejaVuSans-30" x="63.623047"/>
       <use xlink:href="#DejaVuSans-30" x="127.246094"/>
       <use xlink:href="#DejaVuSans-30" x="190.869141"/>
       <use xlink:href="#DejaVuSans-30" x="254.492188"/>
       <use xlink:href="#DejaVuSans-30" x="318.115234"/>
      </g>
     </g>
    </g>
    <g id="ytick_9">
     <g id="line2d_31">
      <path d="M 57.6 69.627716 
L 414.72 69.627716 
" clip-path="url(#p39cd4a5c6c)" style="fill: none; stroke: #ffffff; stroke-width: 0.8; stroke-linecap: square"/>
     </g>
     <g id="line2d_32">
      <g>
       <use xlink:href="#m525432954e" x="57.6" y="69.627716" style="fill: #555555; stroke: #555555; stroke-width: 0.8"/>
      </g>
     </g>
     <g id="text_17">
      <!-- 800000 -->
      <g style="fill: #555555" transform="translate(12.425 73.426935) scale(0.1 -0.1)">
       <defs>
        <path id="DejaVuSans-38" d="M 2034 2216 
Q 1584 2216 1326 1975 
Q 1069 1734 1069 1313 
Q 1069 891 1326 650 
Q 1584 409 2034 409 
Q 2484 409 2743 651 
Q 3003 894 3003 1313 
Q 3003 1734 2745 1975 
Q 2488 2216 2034 2216 
z
M 1403 2484 
Q 997 2584 770 2862 
Q 544 3141 544 3541 
Q 544 4100 942 4425 
Q 1341 4750 2034 4750 
Q 2731 4750 3128 4425 
Q 3525 4100 3525 3541 
Q 3525 3141 3298 2862 
Q 3072 2584 2669 2484 
Q 3125 2378 3379 2068 
Q 3634 1759 3634 1313 
Q 3634 634 3220 271 
Q 2806 -91 2034 -91 
Q 1263 -91 848 271 
Q 434 634 434 1313 
Q 434 1759 690 2068 
Q 947 2378 1403 2484 
z
M 1172 3481 
Q 1172 3119 1398 2916 
Q 1625 2713 2034 2713 
Q 2441 2713 2670 2916 
Q 2900 3119 2900 3481 
Q 2900 3844 2670 4047 
Q 2441 4250 2034 4250 
Q 1625 4250 1398 4047 
Q 1172 3844 1172 3481 
z
" transform="scale(0.015625)"/>
       </defs>
       <use xlink:href="#DejaVuSans-38"/>
       <use xlink:href="#DejaVuSans-30" x="63.623047"/>
       <use xlink:href="#DejaVuSans-30" x="127.246094"/>
       <use xlink:href="#DejaVuSans-30" x="190.869141"/>
       <use xlink:href="#DejaVuSans-30" x="254.492188"/>
       <use xlink:href="#DejaVuSans-30" x="318.115234"/>
      </g>
     </g>
    </g>
    <g id="text_18">
     <!-- Reward -->
     <g style="fill: #555555" transform="translate(5.929375 196.873312) rotate(-90) scale(0.12 -0.12)">
      <defs>
       <path id="DejaVuSans-52" d="M 2841 2188 
Q 3044 2119 3236 1894 
Q 3428 1669 3622 1275 
L 4263 0 
L 3584 0 
L 2988 1197 
Q 2756 1666 2539 1819 
Q 2322 1972 1947 1972 
L 1259 1972 
L 1259 0 
L 628 0 
L 628 4666 
L 2053 4666 
Q 2853 4666 3247 4331 
Q 3641 3997 3641 3322 
Q 3641 2881 3436 2590 
Q 3231 2300 2841 2188 
z
M 1259 4147 
L 1259 2491 
L 2053 2491 
Q 2509 2491 2742 2702 
Q 2975 2913 2975 3322 
Q 2975 3731 2742 3939 
Q 2509 4147 2053 4147 
L 1259 4147 
z
" transform="scale(0.015625)"/>
       <path id="DejaVuSans-77" d="M 269 3500 
L 844 3500 
L 1563 769 
L 2278 3500 
L 2956 3500 
L 3675 769 
L 4391 3500 
L 4966 3500 
L 4050 0 
L 3372 0 
L 2619 2869 
L 1863 0 
L 1184 0 
L 269 3500 
z
" transform="scale(0.015625)"/>
       <path id="DejaVuSans-64" d="M 2906 2969 
L 2906 4863 
L 3481 4863 
L 3481 0 
L 2906 0 
L 2906 525 
Q 2725 213 2448 61 
Q 2172 -91 1784 -91 
Q 1150 -91 751 415 
Q 353 922 353 1747 
Q 353 2572 751 3078 
Q 1150 3584 1784 3584 
Q 2172 3584 2448 3432 
Q 2725 3281 2906 2969 
z
M 947 1747 
Q 947 1113 1208 752 
Q 1469 391 1925 391 
Q 2381 391 2643 752 
Q 2906 1113 2906 1747 
Q 2906 2381 2643 2742 
Q 2381 3103 1925 3103 
Q 1469 3103 1208 2742 
Q 947 2381 947 1747 
z
" transform="scale(0.015625)"/>
      </defs>
      <use xlink:href="#DejaVuSans-52"/>
      <use xlink:href="#DejaVuSans-65" x="64.982422"/>
      <use xlink:href="#DejaVuSans-77" x="126.505859"/>
      <use xlink:href="#DejaVuSans-61" x="208.292969"/>
      <use xlink:href="#DejaVuSans-72" x="269.572266"/>
      <use xlink:href="#DejaVuSans-64" x="308.935547"/>
     </g>
    </g>
   </g>
   <g id="line2d_33">
    <path d="M 73.832727 307.578349 
L 94.083027 307.579836 
L 107.619324 307.578646 
L 260.633625 307.50012 
L 260.850206 307.498931 
L 261.716529 307.563476 
L 262.0414 307.477515 
L 262.14969 307.541465 
L 262.25798 307.448365 
L 262.474561 307.548009 
L 262.907723 307.482869 
L 263.124303 307.478109 
L 263.232594 307.578051 
L 263.449175 307.55485 
L 264.098917 307.451042 
L 264.207207 307.559015 
L 264.315498 307.492089 
L 264.532078 307.543547 
L 264.748659 307.479299 
L 264.96524 307.571507 
L 265.181821 307.52689 
L 265.506692 307.541465 
L 265.831563 307.521834 
L 266.806176 307.511423 
L 267.022757 307.362403 
L 267.239338 307.545332 
L 267.455918 307.358239 
L 267.672499 307.575077 
L 268.105661 307.528378 
L 268.213951 307.567938 
L 268.430532 307.496551 
L 268.538822 307.570615 
L 268.647113 307.459965 
L 268.755403 307.523619 
L 268.863693 307.413266 
L 269.080274 307.559907 
L 270.271468 307.516182 
L 270.488049 307.420405 
L 270.81292 307.460263 
L 271.029501 307.550091 
L 272.004114 307.525998 
L 272.220695 307.328197 
L 272.328985 307.509936 
L 272.437276 307.195536 
L 272.653857 307.548307 
L 273.195308 307.563179 
L 273.303599 307.218142 
L 273.52018 307.509936 
L 273.73676 307.347531 
L 273.845051 307.379952 
L 274.061631 307.555743 
L 274.278212 307.321356 
L 274.386503 307.312135 
L 274.494793 307.494469 
L 274.711374 307.329387 
L 274.819664 307.470376 
L 274.927954 307.183044 
L 275.252826 307.548901 
L 276.010858 307.576861 
L 276.119149 307.396015 
L 276.227439 307.509639 
L 276.335729 307.329089 
L 276.6606 307.559609 
L 276.877181 307.402558 
L 277.093762 307.548604 
L 278.068375 307.575077 
L 278.609827 307.559312 
L 278.826408 307.454909 
L 279.042989 307.392743 
L 279.151279 307.414456 
L 279.259569 307.224983 
L 279.47615 307.473945 
L 279.584441 307.407615 
L 279.801021 307.478704 
L 280.017602 307.555743 
L 280.775635 307.536409 
L 280.992215 306.995058 
L 281.208796 307.330279 
L 281.425377 307.499823 
L 281.641958 307.079235 
L 281.966829 307.470673 
L 282.075119 307.334741 
L 282.2917 307.570318 
L 282.724861 307.5141 
L 282.833152 307.41862 
L 283.049733 307.017961 
L 283.158023 307.362998 
L 283.266313 306.811832 
L 283.374604 306.98316 
L 283.482894 307.421892 
L 283.591184 307.310648 
L 283.807765 307.554255 
L 284.457507 307.567641 
L 284.565798 306.10183 
L 284.674088 307.294883 
L 284.782379 306.611651 
L 284.890669 307.333848 
L 284.998959 306.996248 
L 285.10725 307.137535 
L 285.32383 303.976285 
L 285.432121 307.191967 
L 285.540411 307.095297 
L 285.756992 307.567641 
L 288.13938 307.580728 
L 288.464251 307.572102 
L 288.572542 307.396609 
L 288.680832 306.744609 
L 289.222284 307.57002 
L 289.980317 307.525998 
L 290.088607 307.280308 
L 290.196897 307.457586 
L 290.305188 306.466795 
L 290.630059 307.272277 
L 290.738349 307.230635 
L 290.84664 306.116405 
L 290.95493 307.31035 
L 291.06322 307.192264 
L 291.388091 307.567641 
L 292.037834 307.539978 
L 292.146124 307.50488 
L 292.362705 307.264246 
L 292.470995 305.716638 
L 292.579286 305.807359 
L 292.795866 306.541751 
L 292.904157 305.187185 
L 293.012447 307.285067 
L 293.120737 307.20327 
L 293.229028 306.779113 
L 293.445609 304.14226 
L 293.662189 307.378168 
L 293.87877 307.566748 
L 295.069964 307.551578 
L 295.503126 307.371029 
L 296.261158 307.574482 
L 296.910901 307.490602 
L 297.127481 307.106005 
L 297.235772 307.280011 
L 297.344062 307.042055 
L 297.560643 307.329089 
L 297.668933 306.708321 
L 297.777224 307.2464 
L 297.885514 307.156571 
L 297.993804 305.360299 
L 298.210385 307.018556 
L 298.318675 306.191063 
L 298.535256 307.562584 
L 299.293289 307.498336 
L 299.401579 307.321653 
L 299.50987 307.510828 
L 299.72645 307.495064 
L 300.701064 307.558122 
L 301.567387 307.550389 
L 302.000548 307.518265 
L 302.217129 307.465617 
L 302.325419 307.47335 
L 302.542 306.883219 
L 302.65029 307.309755 
L 302.758581 307.229148 
L 302.975162 306.244604 
L 303.083452 306.324616 
L 303.191742 306.570901 
L 303.300033 304.196097 
L 303.408323 235.967785 
L 303.624904 307.537896 
L 304.166356 307.575672 
L 306.440454 307.536706 
L 306.548744 307.258297 
L 306.765325 307.522726 
L 307.090196 307.57121 
L 309.256003 307.567343 
L 309.580875 307.463832 
L 309.689165 278.975706 
L 309.797455 296.953303 
L 309.905746 178.767258 
L 310.014036 244.483645 
L 310.122326 206.469236 
L 310.230617 301.454544 
L 310.338907 69.963235 
L 310.555488 307.318976 
L 310.772069 307.571805 
L 314.995393 307.523024 
L 315.103684 307.346341 
L 315.211974 306.617303 
L 315.320264 307.461453 
L 315.428555 307.185423 
L 315.645136 307.492089 
L 315.753426 307.37787 
L 315.861716 307.506069 
L 315.970007 306.378157 
L 316.078297 306.951631 
L 316.186587 306.926646 
L 316.403168 307.345746 
L 316.511459 307.217845 
L 316.619749 306.464416 
L 316.728039 306.655673 
L 316.83633 305.126804 
L 317.05291 307.437062 
L 317.161201 307.032239 
L 317.269491 307.123555 
L 317.486072 304.731202 
L 317.702653 307.398692 
L 318.135814 305.244592 
L 318.244105 303.66605 
L 318.460685 307.532542 
L 318.785556 307.565558 
L 319.002137 307.533137 
L 319.110428 305.197893 
L 319.218718 306.58964 
L 319.327008 302.325761 
L 319.543589 305.843647 
L 319.651879 307.434088 
L 319.76017 304.307342 
L 319.976751 306.97275 
L 320.085041 307.276442 
L 320.193331 306.311231 
L 320.301622 306.556029 
L 320.409912 302.783529 
L 320.518202 303.065508 
L 320.734783 307.517372 
L 321.059654 307.573292 
L 322.142558 307.559015 
L 322.250848 300.207058 
L 322.359139 249.395063 
L 322.467429 304.062247 
L 322.57572 238.713205 
L 322.68401 289.215262 
L 322.7923 247.747513 
L 323.008881 306.276728 
L 323.117171 307.522429 
L 323.225462 307.279416 
L 323.442043 307.57121 
L 324.849817 307.539978 
L 325.066398 305.207114 
L 325.174689 274.517297 
L 325.282979 65.10387 
L 325.391269 272.527685 
L 325.49956 254.183338 
L 325.824431 305.205032 
L 325.932721 58.333419 
L 326.041012 284.296706 
L 326.149302 264.541575 
L 326.365883 301.442348 
L 326.474173 307.570318 
L 326.582463 307.563179 
L 327.557077 307.576861 
L 330.480917 307.547414 
L 330.589207 303.910252 
L 330.805788 233.443961 
L 331.23895 306.065541 
L 331.34724 305.581895 
L 331.45553 306.780005 
L 331.563821 305.356729 
L 331.672111 305.462917 
L 331.780401 276.469431 
L 331.888692 307.474838 
L 331.996982 307.126529 
L 332.213563 307.568235 
L 333.404757 307.555148 
L 333.621338 307.559609 
L 333.729628 306.586666 
L 333.837919 303.625597 
L 333.946209 296.429502 
L 334.054499 302.801674 
L 334.16279 292.194475 
L 334.27108 198.626792 
L 334.487661 303.968849 
L 334.704242 307.575077 
L 336.328597 307.573292 
L 336.436888 307.222604 
L 336.545178 299.103535 
L 336.761759 65.851053 
L 336.978339 304.638994 
L 337.08663 299.732335 
L 337.19492 305.495339 
L 337.303211 304.556304 
L 337.411501 300.793025 
L 337.519791 305.546499 
L 337.628082 301.384049 
L 337.844663 263.881841 
L 338.061243 307.539978 
L 339.685599 307.573589 
L 339.793889 307.537301 
L 340.01047 301.556865 
L 340.11876 293.459807 
L 340.227051 301.467631 
L 340.335341 263.345547 
L 340.551922 306.91921 
L 340.660212 302.398933 
L 340.768503 267.252492 
L 340.985083 299.784685 
L 341.093374 273.407826 
L 341.309955 307.523619 
L 342.284568 307.577159 
L 344.775247 307.571507 
L 344.991827 296.112128 
L 345.100118 306.145257 
L 345.208408 201.699998 
L 345.533279 297.344741 
L 345.74986 307.388578 
L 345.966441 307.566451 
L 347.374216 307.575077 
L 347.590796 307.509044 
L 348.023958 307.532839 
L 348.132248 307.481976 
L 348.240539 307.559312 
L 348.348829 307.426651 
L 348.56541 307.536706 
L 348.6737 307.559015 
L 348.78199 307.227958 
L 348.890281 306.167565 
L 348.998571 300.830503 
L 349.106862 307.080425 
L 349.215152 306.882029 
L 349.323442 302.635699 
L 349.540023 306.462631 
L 349.648313 304.08753 
L 349.864894 306.804693 
L 349.973185 307.335038 
L 350.081475 306.218131 
L 350.189765 307.194644 
L 350.298056 306.949549 
L 350.406346 305.913844 
L 350.622927 307.499526 
L 350.731217 307.373111 
L 350.839508 306.307067 
L 350.947798 307.164602 
L 351.056088 306.241034 
L 351.272669 307.115524 
L 351.380959 306.26483 
L 351.48925 307.05425 
L 351.59754 306.620872 
L 351.705831 307.350505 
L 351.814121 307.278524 
L 351.922411 306.787739 
L 352.030702 305.779696 
L 352.355573 307.11017 
L 352.463863 306.937949 
L 352.680444 305.795461 
L 352.788734 307.251456 
L 353.005315 305.660123 
L 353.113605 306.843361 
L 353.221896 306.039664 
L 353.330186 275.249608 
L 353.438477 171.312683 
L 353.655057 299.536021 
L 353.871638 307.384712 
L 354.088219 307.575374 
L 356.795478 307.501608 
L 356.903769 307.013202 
L 357.012059 305.398074 
L 357.120349 307.5025 
L 357.22864 301.387023 
L 357.33693 305.467379 
L 357.44522 287.570687 
L 357.553511 304.498004 
L 357.661801 278.824604 
L 357.770092 303.042604 
L 357.986672 298.769802 
L 358.203253 307.508449 
L 358.528124 307.573589 
L 360.477351 307.570615 
L 360.585641 306.709213 
L 360.693932 301.168996 
L 360.910512 305.59766 
L 361.018803 304.975999 
L 361.235384 300.113957 
L 361.343674 306.030443 
L 361.451964 305.556315 
L 361.560255 307.426354 
L 361.668545 307.318084 
L 361.885126 306.490293 
L 361.993416 306.150908 
L 362.101707 303.274017 
L 362.209997 306.872808 
L 362.318287 292.194772 
L 362.426578 303.99324 
L 362.534868 292.507685 
L 362.643158 306.240439 
L 362.859739 302.222845 
L 363.07632 307.496254 
L 363.509481 307.574184 
L 364.375804 307.558122 
L 364.484095 307.377573 
L 364.700676 304.438813 
L 364.808966 284.30087 
L 365.025547 305.039652 
L 365.133837 307.154191 
L 365.242127 306.440323 
L 365.350418 307.291909 
L 365.458708 306.952524 
L 365.675289 303.653855 
L 365.783579 297.162705 
L 365.89187 307.097082 
L 366.10845 297.465206 
L 366.216741 293.426791 
L 366.433322 307.423082 
L 366.541612 307.429031 
L 366.758193 307.575077 
L 367.841096 307.558122 
L 367.949387 307.404343 
L 368.274258 304.206508 
L 368.382548 306.212479 
L 368.490839 298.743924 
L 368.599129 301.126759 
L 368.81571 246.849525 
L 368.924 284.80385 
L 369.140581 253.211881 
L 369.357162 304.230304 
L 369.573742 307.491197 
L 369.790323 307.574482 
L 371.198098 307.564666 
L 371.306389 306.708916 
L 371.63126 229.953439 
L 371.73955 285.68637 
L 371.84784 199.655061 
L 371.956131 297.587457 
L 372.064421 273.771007 
L 372.281002 305.203247 
L 372.605873 307.550984 
L 373.255615 307.574184 
L 374.771681 307.506664 
L 374.879971 307.027777 
L 374.988261 307.233609 
L 375.096552 285.297609 
L 375.204842 307.0251 
L 375.313132 302.28858 
L 375.529713 307.385604 
L 375.638004 305.69433 
L 375.746294 307.487925 
L 375.854584 306.998925 
L 376.071165 307.536409 
L 376.179455 307.462642 
L 376.287746 307.253836 
L 376.396036 307.567343 
L 376.504327 307.084887 
L 376.612617 307.467699 
L 376.720907 306.977509 
L 376.829198 307.526296 
L 376.937488 306.337407 
L 377.045778 306.909691 
L 377.154069 302.362049 
L 377.37065 307.053952 
L 377.47894 306.501299 
L 377.695521 307.332361 
L 377.803811 306.968586 
L 377.912101 307.019449 
L 378.020392 307.251159 
L 378.128682 307.149432 
L 378.236973 307.525106 
L 378.345263 307.312432 
L 378.561844 307.559312 
L 378.995005 307.561989 
L 379.211586 307.451339 
L 379.428167 306.60362 
L 379.536457 301.123487 
L 379.644747 286.783051 
L 379.753038 241.09604 
L 379.861328 306.258881 
L 379.969619 54.143901 
L 380.077909 304.03399 
L 380.186199 301.451569 
L 380.29449 305.264224 
L 380.40278 299.545539 
L 380.51107 307.563179 
L 380.619361 307.547414 
L 381.052522 307.574779 
L 382.027136 307.542655 
L 382.135426 307.404343 
L 382.243716 306.366854 
L 382.352007 306.968883 
L 382.460297 306.918615 
L 382.568588 300.02978 
L 382.676878 304.47986 
L 382.785168 302.992039 
L 382.893459 306.973047 
L 383.001749 306.515576 
L 383.110039 307.23123 
L 383.32662 306.877865 
L 383.434911 305.686596 
L 383.651491 307.167874 
L 383.868072 305.094085 
L 384.192943 307.021531 
L 384.301234 306.138118 
L 384.517814 307.485843 
L 385.600718 307.440631 
L 385.817299 307.1881 
L 385.925589 304.883494 
L 386.03388 307.329982 
L 386.14217 307.304401 
L 386.25046 307.136345 
L 386.467041 303.674973 
L 386.575331 307.245805 
L 386.683622 307.201783 
L 386.791912 306.362987 
L 386.900203 307.351398 
L 387.116783 306.847228 
L 387.225074 306.726762 
L 387.333364 295.181718 
L 387.441654 305.579813 
L 387.549945 300.376007 
L 387.658235 277.805556 
L 387.983106 307.023613 
L 388.199687 307.555445 
L 389.499172 307.575077 
L 391.448398 307.572102 
L 391.556689 307.403748 
L 391.664979 307.010525 
L 391.88156 290.015985 
L 391.98985 255.784189 
L 392.098141 271.148431 
L 392.206431 305.663098 
L 392.314721 288.865169 
L 392.423012 307.044137 
L 392.531302 302.757354 
L 392.639592 306.81094 
L 392.747883 306.432886 
L 392.964464 307.562286 
L 394.480529 307.566153 
L 394.588819 307.377573 
L 394.69711 306.321642 
L 394.91369 301.323668 
L 395.021981 307.264544 
L 395.130271 306.810345 
L 395.238561 303.076811 
L 395.455142 307.071799 
L 395.563433 298.507158 
L 395.780013 306.846038 
L 395.888304 302.083938 
L 395.996594 306.592615 
L 396.104884 304.988194 
L 396.213175 307.164899 
L 396.321465 306.248173 
L 396.429756 306.587558 
L 396.538046 306.249363 
L 396.646336 307.136345 
L 396.862917 306.259773 
L 396.971207 307.017367 
L 397.079498 304.490271 
L 397.187788 307.13456 
L 397.404369 302.105949 
L 397.512659 300.247808 
L 397.62095 306.793688 
L 397.72924 306.487319 
L 397.83753 304.219298 
L 397.945821 306.419501 
L 398.054111 303.574139 
L 398.162402 307.285067 
L 398.270692 307.162222 
L 398.487273 307.555445 
L 398.487273 307.555445 
" clip-path="url(#p39cd4a5c6c)" style="fill: none; stroke: #1f77b4; stroke-width: 1.5; stroke-linecap: square"/>
   </g>
   <g id="line2d_34">
    <path d="M 73.832727 307.578349 
L 114.441618 307.579014 
L 309.797455 307.481527 
L 310.447198 307.227939 
L 325.066398 307.127225 
L 325.824431 306.947085 
L 326.041012 306.830662 
L 326.799044 306.808413 
L 334.054499 306.722288 
L 341.526535 306.411175 
L 353.221896 306.353945 
L 354.954542 306.269128 
L 368.599129 306.22491 
L 370.006904 306.136704 
L 372.064421 306.036152 
L 398.487273 305.903113 
L 398.487273 305.903113 
" clip-path="url(#p39cd4a5c6c)" style="fill: none; stroke: #d62728; stroke-width: 1.5; stroke-linecap: square"/>
   </g>
   <g id="patch_3">
    <path d="M 57.6 307.584 
L 57.6 41.472 
" style="fill: none; stroke: #ffffff; stroke-linejoin: miter; stroke-linecap: square"/>
   </g>
   <g id="patch_4">
    <path d="M 414.72 307.584 
L 414.72 41.472 
" style="fill: none; stroke: #ffffff; stroke-linejoin: miter; stroke-linecap: square"/>
   </g>
   <g id="patch_5">
    <path d="M 57.6 307.584 
L 414.72 307.584 
" style="fill: none; stroke: #ffffff; stroke-linejoin: miter; stroke-linecap: square"/>
   </g>
   <g id="patch_6">
    <path d="M 57.6 41.472 
L 414.72 41.472 
" style="fill: none; stroke: #ffffff; stroke-linejoin: miter; stroke-linecap: square"/>
   </g>
   <g id="text_19">
    <!-- 96 -->
    <g transform="translate(398.487273 307.555445) scale(0.1 -0.1)">
     <defs>
      <path id="DejaVuSans-39" d="M 703 97 
L 703 672 
Q 941 559 1184 500 
Q 1428 441 1663 441 
Q 2288 441 2617 861 
Q 2947 1281 2994 2138 
Q 2813 1869 2534 1725 
Q 2256 1581 1919 1581 
Q 1219 1581 811 2004 
Q 403 2428 403 3163 
Q 403 3881 828 4315 
Q 1253 4750 1959 4750 
Q 2769 4750 3195 4129 
Q 3622 3509 3622 2328 
Q 3622 1225 3098 567 
Q 2575 -91 1691 -91 
Q 1453 -91 1209 -44 
Q 966 3 703 97 
z
M 1959 2075 
Q 2384 2075 2632 2365 
Q 2881 2656 2881 3163 
Q 2881 3666 2632 3958 
Q 2384 4250 1959 4250 
Q 1534 4250 1286 3958 
Q 1038 3666 1038 3163 
Q 1038 2656 1286 2365 
Q 1534 2075 1959 2075 
z
" transform="scale(0.015625)"/>
     </defs>
     <use xlink:href="#DejaVuSans-39"/>
     <use xlink:href="#DejaVuSans-36" x="63.623047"/>
    </g>
   </g>
   <g id="text_20">
    <!-- 5651.078359453151 -->
    <g transform="translate(398.487273 305.903113) scale(0.1 -0.1)">
     <defs>
      <path id="DejaVuSans-2e" d="M 684 794 
L 1344 794 
L 1344 0 
L 684 0 
L 684 794 
z
" transform="scale(0.015625)"/>
     </defs>
     <use xlink:href="#DejaVuSans-35"/>
     <use xlink:href="#DejaVuSans-36" x="63.623047"/>
     <use xlink:href="#DejaVuSans-35" x="127.246094"/>
     <use xlink:href="#DejaVuSans-31" x="190.869141"/>
     <use xlink:href="#DejaVuSans-2e" x="254.492188"/>
     <use xlink:href="#DejaVuSans-30" x="286.279297"/>
     <use xlink:href="#DejaVuSans-37" x="349.902344"/>
     <use xlink:href="#DejaVuSans-38" x="413.525391"/>
     <use xlink:href="#DejaVuSans-33" x="477.148438"/>
     <use xlink:href="#DejaVuSans-35" x="540.771484"/>
     <use xlink:href="#DejaVuSans-39" x="604.394531"/>
     <use xlink:href="#DejaVuSans-34" x="668.017578"/>
     <use xlink:href="#DejaVuSans-35" x="731.640625"/>
     <use xlink:href="#DejaVuSans-33" x="795.263672"/>
     <use xlink:href="#DejaVuSans-31" x="858.886719"/>
     <use xlink:href="#DejaVuSans-35" x="922.509766"/>
     <use xlink:href="#DejaVuSans-31" x="986.132812"/>
    </g>
   </g>
   <g id="text_21">
    <!-- 5 -->
    <g transform="translate(398.487273 307.582513) scale(0.1 -0.1)">
     <use xlink:href="#DejaVuSans-35"/>
    </g>
   </g>
   <g id="text_22">
    <!-- Training... -->
    <g transform="translate(200.890125 35.472) scale(0.144 -0.144)">
     <defs>
      <path id="DejaVuSans-54" d="M -19 4666 
L 3928 4666 
L 3928 4134 
L 2272 4134 
L 2272 0 
L 1638 0 
L 1638 4134 
L -19 4134 
L -19 4666 
z
" transform="scale(0.015625)"/>
      <path id="DejaVuSans-69" d="M 603 3500 
L 1178 3500 
L 1178 0 
L 603 0 
L 603 3500 
z
M 603 4863 
L 1178 4863 
L 1178 4134 
L 603 4134 
L 603 4863 
z
" transform="scale(0.015625)"/>
      <path id="DejaVuSans-6e" d="M 3513 2113 
L 3513 0 
L 2938 0 
L 2938 2094 
Q 2938 2591 2744 2837 
Q 2550 3084 2163 3084 
Q 1697 3084 1428 2787 
Q 1159 2491 1159 1978 
L 1159 0 
L 581 0 
L 581 3500 
L 1159 3500 
L 1159 2956 
Q 1366 3272 1645 3428 
Q 1925 3584 2291 3584 
Q 2894 3584 3203 3211 
Q 3513 2838 3513 2113 
z
" transform="scale(0.015625)"/>
      <path id="DejaVuSans-67" d="M 2906 1791 
Q 2906 2416 2648 2759 
Q 2391 3103 1925 3103 
Q 1463 3103 1205 2759 
Q 947 2416 947 1791 
Q 947 1169 1205 825 
Q 1463 481 1925 481 
Q 2391 481 2648 825 
Q 2906 1169 2906 1791 
z
M 3481 434 
Q 3481 -459 3084 -895 
Q 2688 -1331 1869 -1331 
Q 1566 -1331 1297 -1286 
Q 1028 -1241 775 -1147 
L 775 -588 
Q 1028 -725 1275 -790 
Q 1522 -856 1778 -856 
Q 2344 -856 2625 -561 
Q 2906 -266 2906 331 
L 2906 616 
Q 2728 306 2450 153 
Q 2172 0 1784 0 
Q 1141 0 747 490 
Q 353 981 353 1791 
Q 353 2603 747 3093 
Q 1141 3584 1784 3584 
Q 2172 3584 2450 3431 
Q 2728 3278 2906 2969 
L 2906 3500 
L 3481 3500 
L 3481 434 
z
" transform="scale(0.015625)"/>
     </defs>
     <use xlink:href="#DejaVuSans-54"/>
     <use xlink:href="#DejaVuSans-72" x="46.333984"/>
     <use xlink:href="#DejaVuSans-61" x="87.447266"/>
     <use xlink:href="#DejaVuSans-69" x="148.726562"/>
     <use xlink:href="#DejaVuSans-6e" x="176.509766"/>
     <use xlink:href="#DejaVuSans-69" x="239.888672"/>
     <use xlink:href="#DejaVuSans-6e" x="267.671875"/>
     <use xlink:href="#DejaVuSans-67" x="331.050781"/>
     <use xlink:href="#DejaVuSans-2e" x="394.527344"/>
     <use xlink:href="#DejaVuSans-2e" x="426.314453"/>
     <use xlink:href="#DejaVuSans-2e" x="458.101562"/>
    </g>
   </g>
  </g>
 </g>
 <defs>
  <clipPath id="p39cd4a5c6c">
   <rect x="57.6" y="41.472" width="357.12" height="266.112"/>
  </clipPath>
 </defs>
</svg>
