<?xml version="1.0" encoding="utf-8" standalone="no"?>
<!DOCTYPE svg PUBLIC "-//W3C//DTD SVG 1.1//EN"
  "http://www.w3.org/Graphics/SVG/1.1/DTD/svg11.dtd">
<svg xmlns:xlink="http://www.w3.org/1999/xlink" width="460.8pt" height="345.6pt" viewBox="0 0 460.8 345.6" xmlns="http://www.w3.org/2000/svg" version="1.1">
 <metadata>
  <rdf:RDF xmlns:dc="http://purl.org/dc/elements/1.1/" xmlns:cc="http://creativecommons.org/ns#" xmlns:rdf="http://www.w3.org/1999/02/22-rdf-syntax-ns#">
   <cc:Work>
    <dc:type rdf:resource="http://purl.org/dc/dcmitype/StillImage"/>
    <dc:date>2024-07-24T12:18:25.114752</dc:date>
    <dc:format>image/svg+xml</dc:format>
    <dc:creator>
     <cc:Agent>
      <dc:title>Matplotlib v3.9.1, https://matplotlib.org/</dc:title>
     </cc:Agent>
    </dc:creator>
   </cc:Work>
  </rdf:RDF>
 </metadata>
 <defs>
  <style type="text/css">*{stroke-linejoin: round; stroke-linecap: butt}</style>
 </defs>
 <g id="figure_1">
  <g id="patch_1">
   <path d="M 0 345.6 
L 460.8 345.6 
L 460.8 0 
L 0 0 
z
" style="fill: #ffffff"/>
  </g>
  <g id="axes_1">
   <g id="patch_2">
    <path d="M 57.6 307.584 
L 414.72 307.584 
L 414.72 41.472 
L 57.6 41.472 
z
" style="fill: #e5e5e5"/>
   </g>
   <g id="matplotlib.axis_1">
    <g id="xtick_1">
     <g id="line2d_1">
      <path d="M 73.832727 307.584 
L 73.832727 41.472 
" clip-path="url(#p5399dc8d28)" style="fill: none; stroke: #ffffff; stroke-width: 0.8; stroke-linecap: square"/>
     </g>
     <g id="line2d_2">
      <defs>
       <path id="me53786c64f" d="M 0 0 
L 0 3.5 
" style="stroke: #555555; stroke-width: 0.8"/>
      </defs>
      <g>
       <use xlink:href="#me53786c64f" x="73.832727" y="307.584" style="fill: #555555; stroke: #555555; stroke-width: 0.8"/>
      </g>
     </g>
     <g id="text_1">
      <!-- 0 -->
      <g style="fill: #555555" transform="translate(70.651477 322.182437) scale(0.1 -0.1)">
       <defs>
        <path id="DejaVuSans-30" d="M 2034 4250 
Q 1547 4250 1301 3770 
Q 1056 3291 1056 2328 
Q 1056 1369 1301 889 
Q 1547 409 2034 409 
Q 2525 409 2770 889 
Q 3016 1369 3016 2328 
Q 3016 3291 2770 3770 
Q 2525 4250 2034 4250 
z
M 2034 4750 
Q 2819 4750 3233 4129 
Q 3647 3509 3647 2328 
Q 3647 1150 3233 529 
Q 2819 -91 2034 -91 
Q 1250 -91 836 529 
Q 422 1150 422 2328 
Q 422 3509 836 4129 
Q 1250 4750 2034 4750 
z
" transform="scale(0.015625)"/>
       </defs>
       <use xlink:href="#DejaVuSans-30"/>
      </g>
     </g>
    </g>
    <g id="xtick_2">
     <g id="line2d_3">
      <path d="M 138.893758 307.584 
L 138.893758 41.472 
" clip-path="url(#p5399dc8d28)" style="fill: none; stroke: #ffffff; stroke-width: 0.8; stroke-linecap: square"/>
     </g>
     <g id="line2d_4">
      <g>
       <use xlink:href="#me53786c64f" x="138.893758" y="307.584" style="fill: #555555; stroke: #555555; stroke-width: 0.8"/>
      </g>
     </g>
     <g id="text_2">
      <!-- 200 -->
      <g style="fill: #555555" transform="translate(129.350008 322.182437) scale(0.1 -0.1)">
       <defs>
        <path id="DejaVuSans-32" d="M 1228 531 
L 3431 531 
L 3431 0 
L 469 0 
L 469 531 
Q 828 903 1448 1529 
Q 2069 2156 2228 2338 
Q 2531 2678 2651 2914 
Q 2772 3150 2772 3378 
Q 2772 3750 2511 3984 
Q 2250 4219 1831 4219 
Q 1534 4219 1204 4116 
Q 875 4013 500 3803 
L 500 4441 
Q 881 4594 1212 4672 
Q 1544 4750 1819 4750 
Q 2544 4750 2975 4387 
Q 3406 4025 3406 3419 
Q 3406 3131 3298 2873 
Q 3191 2616 2906 2266 
Q 2828 2175 2409 1742 
Q 1991 1309 1228 531 
z
" transform="scale(0.015625)"/>
       </defs>
       <use xlink:href="#DejaVuSans-32"/>
       <use xlink:href="#DejaVuSans-30" x="63.623047"/>
       <use xlink:href="#DejaVuSans-30" x="127.246094"/>
      </g>
     </g>
    </g>
    <g id="xtick_3">
     <g id="line2d_5">
      <path d="M 203.95479 307.584 
L 203.95479 41.472 
" clip-path="url(#p5399dc8d28)" style="fill: none; stroke: #ffffff; stroke-width: 0.8; stroke-linecap: square"/>
     </g>
     <g id="line2d_6">
      <g>
       <use xlink:href="#me53786c64f" x="203.95479" y="307.584" style="fill: #555555; stroke: #555555; stroke-width: 0.8"/>
      </g>
     </g>
     <g id="text_3">
      <!-- 400 -->
      <g style="fill: #555555" transform="translate(194.41104 322.182437) scale(0.1 -0.1)">
       <defs>
        <path id="DejaVuSans-34" d="M 2419 4116 
L 825 1625 
L 2419 1625 
L 2419 4116 
z
M 2253 4666 
L 3047 4666 
L 3047 1625 
L 3713 1625 
L 3713 1100 
L 3047 1100 
L 3047 0 
L 2419 0 
L 2419 1100 
L 313 1100 
L 313 1709 
L 2253 4666 
z
" transform="scale(0.015625)"/>
       </defs>
       <use xlink:href="#DejaVuSans-34"/>
       <use xlink:href="#DejaVuSans-30" x="63.623047"/>
       <use xlink:href="#DejaVuSans-30" x="127.246094"/>
      </g>
     </g>
    </g>
    <g id="xtick_4">
     <g id="line2d_7">
      <path d="M 269.015821 307.584 
L 269.015821 41.472 
" clip-path="url(#p5399dc8d28)" style="fill: none; stroke: #ffffff; stroke-width: 0.8; stroke-linecap: square"/>
     </g>
     <g id="line2d_8">
      <g>
       <use xlink:href="#me53786c64f" x="269.015821" y="307.584" style="fill: #555555; stroke: #555555; stroke-width: 0.8"/>
      </g>
     </g>
     <g id="text_4">
      <!-- 600 -->
      <g style="fill: #555555" transform="translate(259.472071 322.182437) scale(0.1 -0.1)">
       <defs>
        <path id="DejaVuSans-36" d="M 2113 2584 
Q 1688 2584 1439 2293 
Q 1191 2003 1191 1497 
Q 1191 994 1439 701 
Q 1688 409 2113 409 
Q 2538 409 2786 701 
Q 3034 994 3034 1497 
Q 3034 2003 2786 2293 
Q 2538 2584 2113 2584 
z
M 3366 4563 
L 3366 3988 
Q 3128 4100 2886 4159 
Q 2644 4219 2406 4219 
Q 1781 4219 1451 3797 
Q 1122 3375 1075 2522 
Q 1259 2794 1537 2939 
Q 1816 3084 2150 3084 
Q 2853 3084 3261 2657 
Q 3669 2231 3669 1497 
Q 3669 778 3244 343 
Q 2819 -91 2113 -91 
Q 1303 -91 875 529 
Q 447 1150 447 2328 
Q 447 3434 972 4092 
Q 1497 4750 2381 4750 
Q 2619 4750 2861 4703 
Q 3103 4656 3366 4563 
z
" transform="scale(0.015625)"/>
       </defs>
       <use xlink:href="#DejaVuSans-36"/>
       <use xlink:href="#DejaVuSans-30" x="63.623047"/>
       <use xlink:href="#DejaVuSans-30" x="127.246094"/>
      </g>
     </g>
    </g>
    <g id="xtick_5">
     <g id="line2d_9">
      <path d="M 334.076852 307.584 
L 334.076852 41.472 
" clip-path="url(#p5399dc8d28)" style="fill: none; stroke: #ffffff; stroke-width: 0.8; stroke-linecap: square"/>
     </g>
     <g id="line2d_10">
      <g>
       <use xlink:href="#me53786c64f" x="334.076852" y="307.584" style="fill: #555555; stroke: #555555; stroke-width: 0.8"/>
      </g>
     </g>
     <g id="text_5">
      <!-- 800 -->
      <g style="fill: #555555" transform="translate(324.533102 322.182437) scale(0.1 -0.1)">
       <defs>
        <path id="DejaVuSans-38" d="M 2034 2216 
Q 1584 2216 1326 1975 
Q 1069 1734 1069 1313 
Q 1069 891 1326 650 
Q 1584 409 2034 409 
Q 2484 409 2743 651 
Q 3003 894 3003 1313 
Q 3003 1734 2745 1975 
Q 2488 2216 2034 2216 
z
M 1403 2484 
Q 997 2584 770 2862 
Q 544 3141 544 3541 
Q 544 4100 942 4425 
Q 1341 4750 2034 4750 
Q 2731 4750 3128 4425 
Q 3525 4100 3525 3541 
Q 3525 3141 3298 2862 
Q 3072 2584 2669 2484 
Q 3125 2378 3379 2068 
Q 3634 1759 3634 1313 
Q 3634 634 3220 271 
Q 2806 -91 2034 -91 
Q 1263 -91 848 271 
Q 434 634 434 1313 
Q 434 1759 690 2068 
Q 947 2378 1403 2484 
z
M 1172 3481 
Q 1172 3119 1398 2916 
Q 1625 2713 2034 2713 
Q 2441 2713 2670 2916 
Q 2900 3119 2900 3481 
Q 2900 3844 2670 4047 
Q 2441 4250 2034 4250 
Q 1625 4250 1398 4047 
Q 1172 3844 1172 3481 
z
" transform="scale(0.015625)"/>
       </defs>
       <use xlink:href="#DejaVuSans-38"/>
       <use xlink:href="#DejaVuSans-30" x="63.623047"/>
       <use xlink:href="#DejaVuSans-30" x="127.246094"/>
      </g>
     </g>
    </g>
    <g id="xtick_6">
     <g id="line2d_11">
      <path d="M 399.137883 307.584 
L 399.137883 41.472 
" clip-path="url(#p5399dc8d28)" style="fill: none; stroke: #ffffff; stroke-width: 0.8; stroke-linecap: square"/>
     </g>
     <g id="line2d_12">
      <g>
       <use xlink:href="#me53786c64f" x="399.137883" y="307.584" style="fill: #555555; stroke: #555555; stroke-width: 0.8"/>
      </g>
     </g>
     <g id="text_6">
      <!-- 1000 -->
      <g style="fill: #555555" transform="translate(386.412883 322.182437) scale(0.1 -0.1)">
       <defs>
        <path id="DejaVuSans-31" d="M 794 531 
L 1825 531 
L 1825 4091 
L 703 3866 
L 703 4441 
L 1819 4666 
L 2450 4666 
L 2450 531 
L 3481 531 
L 3481 0 
L 794 0 
L 794 531 
z
" transform="scale(0.015625)"/>
       </defs>
       <use xlink:href="#DejaVuSans-31"/>
       <use xlink:href="#DejaVuSans-30" x="63.623047"/>
       <use xlink:href="#DejaVuSans-30" x="127.246094"/>
       <use xlink:href="#DejaVuSans-30" x="190.869141"/>
      </g>
     </g>
    </g>
    <g id="text_7">
     <!-- Number of Games -->
     <g style="fill: #555555" transform="translate(181.471875 337.38025) scale(0.12 -0.12)">
      <defs>
       <path id="DejaVuSans-4e" d="M 628 4666 
L 1478 4666 
L 3547 763 
L 3547 4666 
L 4159 4666 
L 4159 0 
L 3309 0 
L 1241 3903 
L 1241 0 
L 628 0 
L 628 4666 
z
" transform="scale(0.015625)"/>
       <path id="DejaVuSans-75" d="M 544 1381 
L 544 3500 
L 1119 3500 
L 1119 1403 
Q 1119 906 1312 657 
Q 1506 409 1894 409 
Q 2359 409 2629 706 
Q 2900 1003 2900 1516 
L 2900 3500 
L 3475 3500 
L 3475 0 
L 2900 0 
L 2900 538 
Q 2691 219 2414 64 
Q 2138 -91 1772 -91 
Q 1169 -91 856 284 
Q 544 659 544 1381 
z
M 1991 3584 
L 1991 3584 
z
" transform="scale(0.015625)"/>
       <path id="DejaVuSans-6d" d="M 3328 2828 
Q 3544 3216 3844 3400 
Q 4144 3584 4550 3584 
Q 5097 3584 5394 3201 
Q 5691 2819 5691 2113 
L 5691 0 
L 5113 0 
L 5113 2094 
Q 5113 2597 4934 2840 
Q 4756 3084 4391 3084 
Q 3944 3084 3684 2787 
Q 3425 2491 3425 1978 
L 3425 0 
L 2847 0 
L 2847 2094 
Q 2847 2600 2669 2842 
Q 2491 3084 2119 3084 
Q 1678 3084 1418 2786 
Q 1159 2488 1159 1978 
L 1159 0 
L 581 0 
L 581 3500 
L 1159 3500 
L 1159 2956 
Q 1356 3278 1631 3431 
Q 1906 3584 2284 3584 
Q 2666 3584 2933 3390 
Q 3200 3197 3328 2828 
z
" transform="scale(0.015625)"/>
       <path id="DejaVuSans-62" d="M 3116 1747 
Q 3116 2381 2855 2742 
Q 2594 3103 2138 3103 
Q 1681 3103 1420 2742 
Q 1159 2381 1159 1747 
Q 1159 1113 1420 752 
Q 1681 391 2138 391 
Q 2594 391 2855 752 
Q 3116 1113 3116 1747 
z
M 1159 2969 
Q 1341 3281 1617 3432 
Q 1894 3584 2278 3584 
Q 2916 3584 3314 3078 
Q 3713 2572 3713 1747 
Q 3713 922 3314 415 
Q 2916 -91 2278 -91 
Q 1894 -91 1617 61 
Q 1341 213 1159 525 
L 1159 0 
L 581 0 
L 581 4863 
L 1159 4863 
L 1159 2969 
z
" transform="scale(0.015625)"/>
       <path id="DejaVuSans-65" d="M 3597 1894 
L 3597 1613 
L 953 1613 
Q 991 1019 1311 708 
Q 1631 397 2203 397 
Q 2534 397 2845 478 
Q 3156 559 3463 722 
L 3463 178 
Q 3153 47 2828 -22 
Q 2503 -91 2169 -91 
Q 1331 -91 842 396 
Q 353 884 353 1716 
Q 353 2575 817 3079 
Q 1281 3584 2069 3584 
Q 2775 3584 3186 3129 
Q 3597 2675 3597 1894 
z
M 3022 2063 
Q 3016 2534 2758 2815 
Q 2500 3097 2075 3097 
Q 1594 3097 1305 2825 
Q 1016 2553 972 2059 
L 3022 2063 
z
" transform="scale(0.015625)"/>
       <path id="DejaVuSans-72" d="M 2631 2963 
Q 2534 3019 2420 3045 
Q 2306 3072 2169 3072 
Q 1681 3072 1420 2755 
Q 1159 2438 1159 1844 
L 1159 0 
L 581 0 
L 581 3500 
L 1159 3500 
L 1159 2956 
Q 1341 3275 1631 3429 
Q 1922 3584 2338 3584 
Q 2397 3584 2469 3576 
Q 2541 3569 2628 3553 
L 2631 2963 
z
" transform="scale(0.015625)"/>
       <path id="DejaVuSans-20" transform="scale(0.015625)"/>
       <path id="DejaVuSans-6f" d="M 1959 3097 
Q 1497 3097 1228 2736 
Q 959 2375 959 1747 
Q 959 1119 1226 758 
Q 1494 397 1959 397 
Q 2419 397 2687 759 
Q 2956 1122 2956 1747 
Q 2956 2369 2687 2733 
Q 2419 3097 1959 3097 
z
M 1959 3584 
Q 2709 3584 3137 3096 
Q 3566 2609 3566 1747 
Q 3566 888 3137 398 
Q 2709 -91 1959 -91 
Q 1206 -91 779 398 
Q 353 888 353 1747 
Q 353 2609 779 3096 
Q 1206 3584 1959 3584 
z
" transform="scale(0.015625)"/>
       <path id="DejaVuSans-66" d="M 2375 4863 
L 2375 4384 
L 1825 4384 
Q 1516 4384 1395 4259 
Q 1275 4134 1275 3809 
L 1275 3500 
L 2222 3500 
L 2222 3053 
L 1275 3053 
L 1275 0 
L 697 0 
L 697 3053 
L 147 3053 
L 147 3500 
L 697 3500 
L 697 3744 
Q 697 4328 969 4595 
Q 1241 4863 1831 4863 
L 2375 4863 
z
" transform="scale(0.015625)"/>
       <path id="DejaVuSans-47" d="M 3809 666 
L 3809 1919 
L 2778 1919 
L 2778 2438 
L 4434 2438 
L 4434 434 
Q 4069 175 3628 42 
Q 3188 -91 2688 -91 
Q 1594 -91 976 548 
Q 359 1188 359 2328 
Q 359 3472 976 4111 
Q 1594 4750 2688 4750 
Q 3144 4750 3555 4637 
Q 3966 4525 4313 4306 
L 4313 3634 
Q 3963 3931 3569 4081 
Q 3175 4231 2741 4231 
Q 1884 4231 1454 3753 
Q 1025 3275 1025 2328 
Q 1025 1384 1454 906 
Q 1884 428 2741 428 
Q 3075 428 3337 486 
Q 3600 544 3809 666 
z
" transform="scale(0.015625)"/>
       <path id="DejaVuSans-61" d="M 2194 1759 
Q 1497 1759 1228 1600 
Q 959 1441 959 1056 
Q 959 750 1161 570 
Q 1363 391 1709 391 
Q 2188 391 2477 730 
Q 2766 1069 2766 1631 
L 2766 1759 
L 2194 1759 
z
M 3341 1997 
L 3341 0 
L 2766 0 
L 2766 531 
Q 2569 213 2275 61 
Q 1981 -91 1556 -91 
Q 1019 -91 701 211 
Q 384 513 384 1019 
Q 384 1609 779 1909 
Q 1175 2209 1959 2209 
L 2766 2209 
L 2766 2266 
Q 2766 2663 2505 2880 
Q 2244 3097 1772 3097 
Q 1472 3097 1187 3025 
Q 903 2953 641 2809 
L 641 3341 
Q 956 3463 1253 3523 
Q 1550 3584 1831 3584 
Q 2591 3584 2966 3190 
Q 3341 2797 3341 1997 
z
" transform="scale(0.015625)"/>
       <path id="DejaVuSans-73" d="M 2834 3397 
L 2834 2853 
Q 2591 2978 2328 3040 
Q 2066 3103 1784 3103 
Q 1356 3103 1142 2972 
Q 928 2841 928 2578 
Q 928 2378 1081 2264 
Q 1234 2150 1697 2047 
L 1894 2003 
Q 2506 1872 2764 1633 
Q 3022 1394 3022 966 
Q 3022 478 2636 193 
Q 2250 -91 1575 -91 
Q 1294 -91 989 -36 
Q 684 19 347 128 
L 347 722 
Q 666 556 975 473 
Q 1284 391 1588 391 
Q 1994 391 2212 530 
Q 2431 669 2431 922 
Q 2431 1156 2273 1281 
Q 2116 1406 1581 1522 
L 1381 1569 
Q 847 1681 609 1914 
Q 372 2147 372 2553 
Q 372 3047 722 3315 
Q 1072 3584 1716 3584 
Q 2034 3584 2315 3537 
Q 2597 3491 2834 3397 
z
" transform="scale(0.015625)"/>
      </defs>
      <use xlink:href="#DejaVuSans-4e"/>
      <use xlink:href="#DejaVuSans-75" x="74.804688"/>
      <use xlink:href="#DejaVuSans-6d" x="138.183594"/>
      <use xlink:href="#DejaVuSans-62" x="235.595703"/>
      <use xlink:href="#DejaVuSans-65" x="299.072266"/>
      <use xlink:href="#DejaVuSans-72" x="360.595703"/>
      <use xlink:href="#DejaVuSans-20" x="401.708984"/>
      <use xlink:href="#DejaVuSans-6f" x="433.496094"/>
      <use xlink:href="#DejaVuSans-66" x="494.677734"/>
      <use xlink:href="#DejaVuSans-20" x="529.882812"/>
      <use xlink:href="#DejaVuSans-47" x="561.669922"/>
      <use xlink:href="#DejaVuSans-61" x="639.160156"/>
      <use xlink:href="#DejaVuSans-6d" x="700.439453"/>
      <use xlink:href="#DejaVuSans-65" x="797.851562"/>
      <use xlink:href="#DejaVuSans-73" x="859.375"/>
     </g>
    </g>
   </g>
   <g id="matplotlib.axis_2">
    <g id="ytick_1">
     <g id="line2d_13">
      <path d="M 57.6 307.584 
L 414.72 307.584 
" clip-path="url(#p5399dc8d28)" style="fill: none; stroke: #ffffff; stroke-width: 0.8; stroke-linecap: square"/>
     </g>
     <g id="line2d_14">
      <defs>
       <path id="m54510fed45" d="M 0 0 
L -3.5 0 
" style="stroke: #555555; stroke-width: 0.8"/>
      </defs>
      <g>
       <use xlink:href="#m54510fed45" x="57.6" y="307.584" style="fill: #555555; stroke: #555555; stroke-width: 0.8"/>
      </g>
     </g>
     <g id="text_8">
      <!-- 0 -->
      <g style="fill: #555555" transform="translate(44.2375 311.383219) scale(0.1 -0.1)">
       <use xlink:href="#DejaVuSans-30"/>
      </g>
     </g>
    </g>
    <g id="ytick_2">
     <g id="line2d_15">
      <path d="M 57.6 274.95224 
L 414.72 274.95224 
" clip-path="url(#p5399dc8d28)" style="fill: none; stroke: #ffffff; stroke-width: 0.8; stroke-linecap: square"/>
     </g>
     <g id="line2d_16">
      <g>
       <use xlink:href="#m54510fed45" x="57.6" y="274.95224" style="fill: #555555; stroke: #555555; stroke-width: 0.8"/>
      </g>
     </g>
     <g id="text_9">
      <!-- 10 -->
      <g style="fill: #555555" transform="translate(37.875 278.751459) scale(0.1 -0.1)">
       <use xlink:href="#DejaVuSans-31"/>
       <use xlink:href="#DejaVuSans-30" x="63.623047"/>
      </g>
     </g>
    </g>
    <g id="ytick_3">
     <g id="line2d_17">
      <path d="M 57.6 242.320481 
L 414.72 242.320481 
" clip-path="url(#p5399dc8d28)" style="fill: none; stroke: #ffffff; stroke-width: 0.8; stroke-linecap: square"/>
     </g>
     <g id="line2d_18">
      <g>
       <use xlink:href="#m54510fed45" x="57.6" y="242.320481" style="fill: #555555; stroke: #555555; stroke-width: 0.8"/>
      </g>
     </g>
     <g id="text_10">
      <!-- 20 -->
      <g style="fill: #555555" transform="translate(37.875 246.119699) scale(0.1 -0.1)">
       <use xlink:href="#DejaVuSans-32"/>
       <use xlink:href="#DejaVuSans-30" x="63.623047"/>
      </g>
     </g>
    </g>
    <g id="ytick_4">
     <g id="line2d_19">
      <path d="M 57.6 209.688721 
L 414.72 209.688721 
" clip-path="url(#p5399dc8d28)" style="fill: none; stroke: #ffffff; stroke-width: 0.8; stroke-linecap: square"/>
     </g>
     <g id="line2d_20">
      <g>
       <use xlink:href="#m54510fed45" x="57.6" y="209.688721" style="fill: #555555; stroke: #555555; stroke-width: 0.8"/>
      </g>
     </g>
     <g id="text_11">
      <!-- 30 -->
      <g style="fill: #555555" transform="translate(37.875 213.48794) scale(0.1 -0.1)">
       <defs>
        <path id="DejaVuSans-33" d="M 2597 2516 
Q 3050 2419 3304 2112 
Q 3559 1806 3559 1356 
Q 3559 666 3084 287 
Q 2609 -91 1734 -91 
Q 1441 -91 1130 -33 
Q 819 25 488 141 
L 488 750 
Q 750 597 1062 519 
Q 1375 441 1716 441 
Q 2309 441 2620 675 
Q 2931 909 2931 1356 
Q 2931 1769 2642 2001 
Q 2353 2234 1838 2234 
L 1294 2234 
L 1294 2753 
L 1863 2753 
Q 2328 2753 2575 2939 
Q 2822 3125 2822 3475 
Q 2822 3834 2567 4026 
Q 2313 4219 1838 4219 
Q 1578 4219 1281 4162 
Q 984 4106 628 3988 
L 628 4550 
Q 988 4650 1302 4700 
Q 1616 4750 1894 4750 
Q 2613 4750 3031 4423 
Q 3450 4097 3450 3541 
Q 3450 3153 3228 2886 
Q 3006 2619 2597 2516 
z
" transform="scale(0.015625)"/>
       </defs>
       <use xlink:href="#DejaVuSans-33"/>
       <use xlink:href="#DejaVuSans-30" x="63.623047"/>
      </g>
     </g>
    </g>
    <g id="ytick_5">
     <g id="line2d_21">
      <path d="M 57.6 177.056961 
L 414.72 177.056961 
" clip-path="url(#p5399dc8d28)" style="fill: none; stroke: #ffffff; stroke-width: 0.8; stroke-linecap: square"/>
     </g>
     <g id="line2d_22">
      <g>
       <use xlink:href="#m54510fed45" x="57.6" y="177.056961" style="fill: #555555; stroke: #555555; stroke-width: 0.8"/>
      </g>
     </g>
     <g id="text_12">
      <!-- 40 -->
      <g style="fill: #555555" transform="translate(37.875 180.85618) scale(0.1 -0.1)">
       <use xlink:href="#DejaVuSans-34"/>
       <use xlink:href="#DejaVuSans-30" x="63.623047"/>
      </g>
     </g>
    </g>
    <g id="ytick_6">
     <g id="line2d_23">
      <path d="M 57.6 144.425202 
L 414.72 144.425202 
" clip-path="url(#p5399dc8d28)" style="fill: none; stroke: #ffffff; stroke-width: 0.8; stroke-linecap: square"/>
     </g>
     <g id="line2d_24">
      <g>
       <use xlink:href="#m54510fed45" x="57.6" y="144.425202" style="fill: #555555; stroke: #555555; stroke-width: 0.8"/>
      </g>
     </g>
     <g id="text_13">
      <!-- 50 -->
      <g style="fill: #555555" transform="translate(37.875 148.22442) scale(0.1 -0.1)">
       <defs>
        <path id="DejaVuSans-35" d="M 691 4666 
L 3169 4666 
L 3169 4134 
L 1269 4134 
L 1269 2991 
Q 1406 3038 1543 3061 
Q 1681 3084 1819 3084 
Q 2600 3084 3056 2656 
Q 3513 2228 3513 1497 
Q 3513 744 3044 326 
Q 2575 -91 1722 -91 
Q 1428 -91 1123 -41 
Q 819 9 494 109 
L 494 744 
Q 775 591 1075 516 
Q 1375 441 1709 441 
Q 2250 441 2565 725 
Q 2881 1009 2881 1497 
Q 2881 1984 2565 2268 
Q 2250 2553 1709 2553 
Q 1456 2553 1204 2497 
Q 953 2441 691 2322 
L 691 4666 
z
" transform="scale(0.015625)"/>
       </defs>
       <use xlink:href="#DejaVuSans-35"/>
       <use xlink:href="#DejaVuSans-30" x="63.623047"/>
      </g>
     </g>
    </g>
    <g id="ytick_7">
     <g id="line2d_25">
      <path d="M 57.6 111.793442 
L 414.72 111.793442 
" clip-path="url(#p5399dc8d28)" style="fill: none; stroke: #ffffff; stroke-width: 0.8; stroke-linecap: square"/>
     </g>
     <g id="line2d_26">
      <g>
       <use xlink:href="#m54510fed45" x="57.6" y="111.793442" style="fill: #555555; stroke: #555555; stroke-width: 0.8"/>
      </g>
     </g>
     <g id="text_14">
      <!-- 60 -->
      <g style="fill: #555555" transform="translate(37.875 115.592661) scale(0.1 -0.1)">
       <use xlink:href="#DejaVuSans-36"/>
       <use xlink:href="#DejaVuSans-30" x="63.623047"/>
      </g>
     </g>
    </g>
    <g id="ytick_8">
     <g id="line2d_27">
      <path d="M 57.6 79.161682 
L 414.72 79.161682 
" clip-path="url(#p5399dc8d28)" style="fill: none; stroke: #ffffff; stroke-width: 0.8; stroke-linecap: square"/>
     </g>
     <g id="line2d_28">
      <g>
       <use xlink:href="#m54510fed45" x="57.6" y="79.161682" style="fill: #555555; stroke: #555555; stroke-width: 0.8"/>
      </g>
     </g>
     <g id="text_15">
      <!-- 70 -->
      <g style="fill: #555555" transform="translate(37.875 82.960901) scale(0.1 -0.1)">
       <defs>
        <path id="DejaVuSans-37" d="M 525 4666 
L 3525 4666 
L 3525 4397 
L 1831 0 
L 1172 0 
L 2766 4134 
L 525 4134 
L 525 4666 
z
" transform="scale(0.015625)"/>
       </defs>
       <use xlink:href="#DejaVuSans-37"/>
       <use xlink:href="#DejaVuSans-30" x="63.623047"/>
      </g>
     </g>
    </g>
    <g id="ytick_9">
     <g id="line2d_29">
      <path d="M 57.6 46.529923 
L 414.72 46.529923 
" clip-path="url(#p5399dc8d28)" style="fill: none; stroke: #ffffff; stroke-width: 0.8; stroke-linecap: square"/>
     </g>
     <g id="line2d_30">
      <g>
       <use xlink:href="#m54510fed45" x="57.6" y="46.529923" style="fill: #555555; stroke: #555555; stroke-width: 0.8"/>
      </g>
     </g>
     <g id="text_16">
      <!-- 80 -->
      <g style="fill: #555555" transform="translate(37.875 50.329141) scale(0.1 -0.1)">
       <use xlink:href="#DejaVuSans-38"/>
       <use xlink:href="#DejaVuSans-30" x="63.623047"/>
      </g>
     </g>
    </g>
    <g id="text_17">
     <!-- Reward -->
     <g style="fill: #555555" transform="translate(31.379375 196.873312) rotate(-90) scale(0.12 -0.12)">
      <defs>
       <path id="DejaVuSans-52" d="M 2841 2188 
Q 3044 2119 3236 1894 
Q 3428 1669 3622 1275 
L 4263 0 
L 3584 0 
L 2988 1197 
Q 2756 1666 2539 1819 
Q 2322 1972 1947 1972 
L 1259 1972 
L 1259 0 
L 628 0 
L 628 4666 
L 2053 4666 
Q 2853 4666 3247 4331 
Q 3641 3997 3641 3322 
Q 3641 2881 3436 2590 
Q 3231 2300 2841 2188 
z
M 1259 4147 
L 1259 2491 
L 2053 2491 
Q 2509 2491 2742 2702 
Q 2975 2913 2975 3322 
Q 2975 3731 2742 3939 
Q 2509 4147 2053 4147 
L 1259 4147 
z
" transform="scale(0.015625)"/>
       <path id="DejaVuSans-77" d="M 269 3500 
L 844 3500 
L 1563 769 
L 2278 3500 
L 2956 3500 
L 3675 769 
L 4391 3500 
L 4966 3500 
L 4050 0 
L 3372 0 
L 2619 2869 
L 1863 0 
L 1184 0 
L 269 3500 
z
" transform="scale(0.015625)"/>
       <path id="DejaVuSans-64" d="M 2906 2969 
L 2906 4863 
L 3481 4863 
L 3481 0 
L 2906 0 
L 2906 525 
Q 2725 213 2448 61 
Q 2172 -91 1784 -91 
Q 1150 -91 751 415 
Q 353 922 353 1747 
Q 353 2572 751 3078 
Q 1150 3584 1784 3584 
Q 2172 3584 2448 3432 
Q 2725 3281 2906 2969 
z
M 947 1747 
Q 947 1113 1208 752 
Q 1469 391 1925 391 
Q 2381 391 2643 752 
Q 2906 1113 2906 1747 
Q 2906 2381 2643 2742 
Q 2381 3103 1925 3103 
Q 1469 3103 1208 2742 
Q 947 2381 947 1747 
z
" transform="scale(0.015625)"/>
      </defs>
      <use xlink:href="#DejaVuSans-52"/>
      <use xlink:href="#DejaVuSans-65" x="64.982422"/>
      <use xlink:href="#DejaVuSans-77" x="126.505859"/>
      <use xlink:href="#DejaVuSans-61" x="208.292969"/>
      <use xlink:href="#DejaVuSans-72" x="269.572266"/>
      <use xlink:href="#DejaVuSans-64" x="308.935547"/>
     </g>
    </g>
   </g>
   <g id="line2d_31">
    <path d="M 73.832727 245.583657 
L 74.158032 252.110009 
L 74.483338 265.162712 
L 75.133948 242.320481 
L 75.784558 258.636361 
L 76.435169 245.583657 
L 76.760474 268.425888 
L 77.411084 255.373185 
L 77.736389 252.110009 
L 78.061694 245.583657 
L 78.386999 268.425888 
L 78.712305 255.373185 
L 79.03761 248.846833 
L 79.362915 255.373185 
L 79.68822 242.320481 
L 80.013525 245.583657 
L 80.33883 239.057305 
L 80.664136 261.899536 
L 80.989441 235.794129 
L 81.314746 239.057305 
L 81.640051 252.110009 
L 81.965356 255.373185 
L 82.290661 268.425888 
L 82.615966 248.846833 
L 82.941272 199.899193 
L 83.266577 268.425888 
L 83.591882 232.530953 
L 83.917187 258.636361 
L 84.242492 261.899536 
L 84.567797 239.057305 
L 84.893103 239.057305 
L 85.543713 271.689064 
L 85.869018 219.478249 
L 86.194323 255.373185 
L 86.519628 239.057305 
L 86.844934 274.95224 
L 87.170239 265.162712 
L 87.495544 245.583657 
L 87.820849 239.057305 
L 88.146154 281.478592 
L 88.471459 281.478592 
L 89.12207 239.057305 
L 89.447375 242.320481 
L 89.77268 248.846833 
L 90.097985 248.846833 
L 90.42329 255.373185 
L 90.748595 242.320481 
L 91.073901 265.162712 
L 91.399206 242.320481 
L 91.724511 242.320481 
L 92.049816 261.899536 
L 92.375121 265.162712 
L 92.700426 252.110009 
L 93.025731 258.636361 
L 93.351037 245.583657 
L 93.676342 268.425888 
L 94.001647 258.636361 
L 94.326952 229.267777 
L 94.977562 261.899536 
L 95.628173 255.373185 
L 95.953478 268.425888 
L 96.278783 242.320481 
L 96.929393 284.741768 
L 97.580004 255.373185 
L 97.905309 265.162712 
L 98.555919 258.636361 
L 98.881224 242.320481 
L 99.206529 255.373185 
L 99.531835 242.320481 
L 99.85714 258.636361 
L 100.182445 245.583657 
L 100.50775 274.95224 
L 100.833055 255.373185 
L 101.15836 261.899536 
L 101.483666 258.636361 
L 101.808971 235.794129 
L 102.134276 268.425888 
L 102.459581 265.162712 
L 102.784886 245.583657 
L 103.110191 235.794129 
L 103.760802 261.899536 
L 104.086107 245.583657 
L 104.411412 252.110009 
L 104.736717 255.373185 
L 105.062022 252.110009 
L 105.387327 255.373185 
L 106.037938 248.846833 
L 106.688548 268.425888 
L 107.013853 252.110009 
L 107.339158 226.004601 
L 107.989769 281.478592 
L 108.315074 245.583657 
L 108.640379 226.004601 
L 108.965684 271.689064 
L 109.290989 248.846833 
L 109.616294 239.057305 
L 109.9416 245.583657 
L 110.266905 268.425888 
L 110.59221 255.373185 
L 110.917515 252.110009 
L 111.24282 245.583657 
L 111.568125 261.899536 
L 111.89343 245.583657 
L 112.218736 261.899536 
L 112.544041 226.004601 
L 112.869346 274.95224 
L 113.194651 252.110009 
L 113.519956 252.110009 
L 113.845261 258.636361 
L 114.170567 242.320481 
L 114.495872 268.425888 
L 114.821177 255.373185 
L 115.146482 268.425888 
L 115.471787 252.110009 
L 115.797092 255.373185 
L 116.122398 265.162712 
L 116.447703 248.846833 
L 116.773008 265.162712 
L 117.098313 248.846833 
L 117.423618 255.373185 
L 117.748923 268.425888 
L 118.074228 245.583657 
L 118.399534 265.162712 
L 118.724839 222.741425 
L 119.050144 255.373185 
L 119.375449 274.95224 
L 119.700754 261.899536 
L 120.026059 271.689064 
L 120.351365 245.583657 
L 120.67667 252.110009 
L 121.001975 242.320481 
L 121.652585 258.636361 
L 121.97789 245.583657 
L 122.303195 261.899536 
L 122.628501 248.846833 
L 122.953806 268.425888 
L 123.279111 258.636361 
L 123.604416 261.899536 
L 124.255026 274.95224 
L 124.580332 252.110009 
L 124.905637 245.583657 
L 125.230942 255.373185 
L 125.556247 245.583657 
L 125.881552 268.425888 
L 126.206857 265.162712 
L 126.532163 255.373185 
L 126.857468 235.794129 
L 127.182773 252.110009 
L 127.833383 239.057305 
L 128.158688 261.899536 
L 128.483993 271.689064 
L 128.809299 258.636361 
L 129.134604 261.899536 
L 129.459909 252.110009 
L 129.785214 265.162712 
L 130.110519 248.846833 
L 130.435824 258.636361 
L 130.76113 232.530953 
L 131.086435 265.162712 
L 131.737045 271.689064 
L 132.06235 265.162712 
L 132.387655 271.689064 
L 132.71296 235.794129 
L 133.038266 265.162712 
L 133.688876 252.110009 
L 134.014181 242.320481 
L 134.339486 242.320481 
L 134.664791 261.899536 
L 135.315402 245.583657 
L 135.640707 245.583657 
L 135.966012 268.425888 
L 136.291317 235.794129 
L 136.616622 265.162712 
L 136.941927 265.162712 
L 137.267233 245.583657 
L 137.592538 239.057305 
L 138.243148 274.95224 
L 138.568453 258.636361 
L 138.893758 258.636361 
L 139.219064 232.530953 
L 139.544369 265.162712 
L 139.869674 255.373185 
L 140.194979 265.162712 
L 140.520284 252.110009 
L 140.845589 252.110009 
L 141.170895 248.846833 
L 141.4962 255.373185 
L 142.14681 232.530953 
L 142.472115 258.636361 
L 142.79742 274.95224 
L 143.122725 239.057305 
L 143.448031 252.110009 
L 143.773336 252.110009 
L 144.098641 248.846833 
L 144.423946 248.846833 
L 144.749251 268.425888 
L 145.074556 265.162712 
L 145.725167 235.794129 
L 146.050472 252.110009 
L 146.375777 252.110009 
L 146.701082 235.794129 
L 147.026387 252.110009 
L 147.351692 258.636361 
L 147.676998 248.846833 
L 148.002303 258.636361 
L 148.327608 255.373185 
L 148.652913 274.95224 
L 148.978218 245.583657 
L 149.303523 261.899536 
L 149.628829 229.267777 
L 149.954134 271.689064 
L 150.279439 265.162712 
L 150.930049 235.794129 
L 151.255354 239.057305 
L 151.58066 248.846833 
L 151.905965 242.320481 
L 152.23127 268.425888 
L 152.556575 245.583657 
L 152.88188 242.320481 
L 153.207185 248.846833 
L 153.53249 268.425888 
L 154.183101 284.741768 
L 154.508406 199.899193 
L 154.833711 242.320481 
L 155.159016 248.846833 
L 155.484321 242.320481 
L 155.809627 261.899536 
L 156.134932 258.636361 
L 156.460237 252.110009 
L 156.785542 252.110009 
L 157.110847 242.320481 
L 157.436152 258.636361 
L 157.761457 245.583657 
L 158.086763 261.899536 
L 158.412068 222.741425 
L 158.737373 258.636361 
L 159.062678 261.899536 
L 159.387983 261.899536 
L 159.713288 265.162712 
L 160.038594 245.583657 
L 160.363899 242.320481 
L 160.689204 265.162712 
L 161.014509 245.583657 
L 161.339814 268.425888 
L 161.990424 232.530953 
L 162.31573 258.636361 
L 162.641035 252.110009 
L 162.96634 216.215073 
L 163.291645 203.162369 
L 163.61695 268.425888 
L 163.942255 232.530953 
L 164.267561 268.425888 
L 164.918171 255.373185 
L 165.243476 252.110009 
L 165.568781 239.057305 
L 165.894086 258.636361 
L 166.219392 255.373185 
L 166.544697 226.004601 
L 166.870002 255.373185 
L 167.520612 232.530953 
L 167.845917 265.162712 
L 168.171222 242.320481 
L 168.496528 261.899536 
L 168.821833 245.583657 
L 169.147138 261.899536 
L 169.472443 265.162712 
L 169.797748 258.636361 
L 170.123053 235.794129 
L 170.448359 271.689064 
L 170.773664 258.636361 
L 171.098969 258.636361 
L 171.424274 268.425888 
L 171.749579 261.899536 
L 172.400189 245.583657 
L 172.725495 274.95224 
L 173.0508 242.320481 
L 173.376105 268.425888 
L 173.70141 252.110009 
L 174.026715 271.689064 
L 174.35202 239.057305 
L 174.677326 268.425888 
L 175.002631 261.899536 
L 175.327936 248.846833 
L 175.653241 248.846833 
L 175.978546 245.583657 
L 176.303851 255.373185 
L 176.629156 232.530953 
L 177.279767 245.583657 
L 177.605072 278.215416 
L 178.255682 261.899536 
L 178.580987 239.057305 
L 178.906293 235.794129 
L 179.231598 248.846833 
L 179.556903 248.846833 
L 179.882208 252.110009 
L 180.207513 274.95224 
L 180.532818 212.951897 
L 180.858124 183.583313 
L 181.183429 245.583657 
L 181.508734 235.794129 
L 181.834039 235.794129 
L 182.159344 239.057305 
L 182.484649 232.530953 
L 183.13526 261.899536 
L 183.460565 239.057305 
L 183.78587 245.583657 
L 184.111175 271.689064 
L 184.43648 242.320481 
L 184.761785 261.899536 
L 185.087091 239.057305 
L 185.412396 235.794129 
L 186.063006 252.110009 
L 186.388311 258.636361 
L 186.713616 255.373185 
L 187.038921 274.95224 
L 187.364227 271.689064 
L 187.689532 255.373185 
L 188.014837 255.373185 
L 188.340142 278.215416 
L 188.665447 235.794129 
L 188.990752 239.057305 
L 189.641363 271.689064 
L 189.966668 235.794129 
L 190.291973 248.846833 
L 191.267889 248.846833 
L 191.593194 271.689064 
L 192.243804 232.530953 
L 192.569109 212.951897 
L 192.894414 252.110009 
L 193.219719 226.004601 
L 193.545025 261.899536 
L 193.87033 265.162712 
L 194.195635 232.530953 
L 194.52094 268.425888 
L 194.846245 245.583657 
L 195.17155 252.110009 
L 195.496856 268.425888 
L 195.822161 271.689064 
L 196.147466 222.741425 
L 196.472771 252.110009 
L 196.798076 196.636017 
L 197.123381 239.057305 
L 197.448686 239.057305 
L 197.773992 252.110009 
L 198.099297 258.636361 
L 198.424602 252.110009 
L 198.749907 248.846833 
L 199.075212 226.004601 
L 199.400517 255.373185 
L 200.051128 235.794129 
L 200.376433 232.530953 
L 200.701738 239.057305 
L 201.027043 248.846833 
L 201.352348 245.583657 
L 201.677653 245.583657 
L 202.002959 242.320481 
L 202.328264 271.689064 
L 202.653569 252.110009 
L 202.978874 268.425888 
L 203.304179 278.215416 
L 203.629484 248.846833 
L 203.95479 193.372841 
L 204.280095 271.689064 
L 204.6054 229.267777 
L 204.930705 248.846833 
L 205.25601 245.583657 
L 205.581315 268.425888 
L 205.906621 245.583657 
L 206.557231 239.057305 
L 206.882536 265.162712 
L 207.207841 239.057305 
L 207.533146 261.899536 
L 207.858451 252.110009 
L 208.183757 235.794129 
L 208.509062 265.162712 
L 208.834367 232.530953 
L 209.484977 261.899536 
L 209.810282 242.320481 
L 210.135588 261.899536 
L 210.460893 258.636361 
L 210.786198 245.583657 
L 211.111503 258.636361 
L 211.436808 258.636361 
L 211.762113 235.794129 
L 212.412724 268.425888 
L 213.063334 199.899193 
L 213.388639 245.583657 
L 213.713944 180.320137 
L 214.039249 245.583657 
L 214.364555 239.057305 
L 214.68986 245.583657 
L 215.015165 245.583657 
L 215.34047 248.846833 
L 215.665775 216.215073 
L 215.99108 258.636361 
L 216.316385 226.004601 
L 216.641691 248.846833 
L 216.966996 245.583657 
L 217.292301 261.899536 
L 217.617606 242.320481 
L 217.942911 242.320481 
L 218.268216 245.583657 
L 218.593522 203.162369 
L 218.918827 248.846833 
L 219.244132 248.846833 
L 219.569437 268.425888 
L 219.894742 261.899536 
L 220.220047 248.846833 
L 220.545353 261.899536 
L 220.870658 252.110009 
L 221.195963 252.110009 
L 221.846573 235.794129 
L 222.171878 248.846833 
L 222.497183 242.320481 
L 222.822489 229.267777 
L 223.147794 242.320481 
L 223.473099 239.057305 
L 223.798404 278.215416 
L 224.123709 258.636361 
L 224.449014 248.846833 
L 224.77432 248.846833 
L 225.099625 245.583657 
L 225.42493 232.530953 
L 225.750235 190.109665 
L 226.07554 265.162712 
L 226.400845 261.899536 
L 226.72615 226.004601 
L 227.051456 229.267777 
L 227.376761 248.846833 
L 227.702066 242.320481 
L 228.027371 268.425888 
L 228.352676 245.583657 
L 228.677981 248.846833 
L 229.003287 186.846489 
L 229.328592 258.636361 
L 229.653897 258.636361 
L 229.979202 242.320481 
L 230.304507 258.636361 
L 230.629812 226.004601 
L 230.955118 232.530953 
L 231.280423 212.951897 
L 231.605728 242.320481 
L 231.931033 226.004601 
L 232.256338 229.267777 
L 232.581643 242.320481 
L 232.906948 239.057305 
L 233.232254 232.530953 
L 233.557559 242.320481 
L 233.882864 242.320481 
L 234.208169 235.794129 
L 234.533474 248.846833 
L 234.858779 245.583657 
L 235.184085 268.425888 
L 235.50939 252.110009 
L 235.834695 206.425545 
L 236.16 242.320481 
L 236.81061 235.794129 
L 237.135915 235.794129 
L 237.461221 261.899536 
L 238.111831 245.583657 
L 238.437136 216.215073 
L 238.762441 216.215073 
L 239.087746 235.794129 
L 239.413052 209.688721 
L 239.738357 242.320481 
L 240.063662 245.583657 
L 240.388967 219.478249 
L 240.714272 252.110009 
L 241.039577 258.636361 
L 241.364882 235.794129 
L 241.690188 232.530953 
L 242.015493 255.373185 
L 242.340798 245.583657 
L 242.666103 258.636361 
L 242.991408 239.057305 
L 243.316713 186.846489 
L 243.642019 252.110009 
L 243.967324 239.057305 
L 244.292629 177.056961 
L 244.617934 252.110009 
L 244.943239 255.373185 
L 245.268544 239.057305 
L 245.59385 248.846833 
L 245.919155 222.741425 
L 246.24446 245.583657 
L 246.569765 232.530953 
L 246.89507 232.530953 
L 247.220375 252.110009 
L 247.54568 235.794129 
L 247.870986 265.162712 
L 248.196291 245.583657 
L 248.521596 242.320481 
L 248.846901 232.530953 
L 249.172206 186.846489 
L 249.497511 242.320481 
L 249.822817 232.530953 
L 250.148122 252.110009 
L 250.473427 235.794129 
L 250.798732 232.530953 
L 251.124037 274.95224 
L 251.449342 222.741425 
L 251.774647 196.636017 
L 252.425258 255.373185 
L 253.401173 199.899193 
L 253.726478 226.004601 
L 254.051784 219.478249 
L 254.377089 128.109322 
L 254.702394 255.373185 
L 255.027699 258.636361 
L 255.353004 232.530953 
L 255.678309 239.057305 
L 256.003615 239.057305 
L 256.32892 265.162712 
L 256.654225 167.267433 
L 256.97953 232.530953 
L 257.304835 242.320481 
L 257.63014 199.899193 
L 257.955445 255.373185 
L 258.280751 203.162369 
L 258.931361 242.320481 
L 259.256666 245.583657 
L 259.581971 239.057305 
L 259.907276 265.162712 
L 260.232582 235.794129 
L 260.557887 248.846833 
L 260.883192 252.110009 
L 261.208497 252.110009 
L 261.533802 226.004601 
L 262.509718 252.110009 
L 262.835023 242.320481 
L 263.160328 258.636361 
L 263.485633 239.057305 
L 263.810938 239.057305 
L 264.136243 232.530953 
L 264.461549 242.320481 
L 264.786854 239.057305 
L 265.112159 219.478249 
L 265.437464 239.057305 
L 265.762769 245.583657 
L 266.088074 235.794129 
L 266.413379 252.110009 
L 266.738685 258.636361 
L 267.06399 239.057305 
L 267.389295 235.794129 
L 267.7146 248.846833 
L 268.039905 232.530953 
L 268.36521 242.320481 
L 268.690516 232.530953 
L 269.015821 271.689064 
L 269.341126 206.425545 
L 269.666431 216.215073 
L 269.991736 255.373185 
L 270.317041 232.530953 
L 270.642347 258.636361 
L 270.967652 164.004258 
L 271.292957 232.530953 
L 271.618262 226.004601 
L 271.943567 235.794129 
L 272.268872 255.373185 
L 272.594177 261.899536 
L 272.919483 186.846489 
L 273.244788 258.636361 
L 273.570093 245.583657 
L 273.895398 255.373185 
L 274.220703 229.267777 
L 274.546008 248.846833 
L 274.871314 226.004601 
L 275.196619 255.373185 
L 275.521924 261.899536 
L 275.847229 248.846833 
L 276.172534 252.110009 
L 276.497839 219.478249 
L 276.823144 245.583657 
L 277.14845 180.320137 
L 277.473755 265.162712 
L 277.79906 245.583657 
L 278.124365 261.899536 
L 278.44967 245.583657 
L 278.774975 216.215073 
L 279.425586 261.899536 
L 279.750891 239.057305 
L 280.076196 261.899536 
L 280.401501 245.583657 
L 280.726806 252.110009 
L 281.052111 245.583657 
L 281.702722 222.741425 
L 282.353332 242.320481 
L 283.003942 242.320481 
L 283.329248 177.056961 
L 283.654553 173.793785 
L 283.979858 235.794129 
L 284.305163 170.530609 
L 284.955773 229.267777 
L 285.281079 248.846833 
L 285.606384 219.478249 
L 285.931689 232.530953 
L 286.256994 235.794129 
L 286.582299 232.530953 
L 286.907604 226.004601 
L 287.232909 232.530953 
L 287.558215 245.583657 
L 287.88352 229.267777 
L 288.208825 242.320481 
L 288.53413 235.794129 
L 288.859435 235.794129 
L 289.18474 252.110009 
L 289.510046 245.583657 
L 289.835351 216.215073 
L 290.811266 248.846833 
L 291.136571 242.320481 
L 291.461876 255.373185 
L 291.787182 190.109665 
L 292.437792 245.583657 
L 292.763097 239.057305 
L 293.088402 235.794129 
L 293.413707 229.267777 
L 293.739013 203.162369 
L 294.389623 235.794129 
L 294.714928 203.162369 
L 295.040233 232.530953 
L 295.365538 206.425545 
L 295.690844 235.794129 
L 296.016149 226.004601 
L 296.341454 245.583657 
L 296.666759 239.057305 
L 296.992064 235.794129 
L 297.317369 199.899193 
L 297.96798 255.373185 
L 298.293285 150.951554 
L 298.61859 248.846833 
L 298.943895 186.846489 
L 299.2692 278.215416 
L 299.594505 232.530953 
L 299.919811 150.951554 
L 300.245116 219.478249 
L 300.570421 235.794129 
L 300.895726 219.478249 
L 301.221031 242.320481 
L 301.546336 229.267777 
L 301.871641 255.373185 
L 302.196947 248.846833 
L 302.522252 180.320137 
L 302.847557 235.794129 
L 303.172862 232.530953 
L 303.498167 232.530953 
L 303.823472 196.636017 
L 304.148778 206.425545 
L 304.474083 183.583313 
L 304.799388 147.688378 
L 305.124693 235.794129 
L 305.775303 235.794129 
L 306.100608 219.478249 
L 306.425914 229.267777 
L 306.751219 232.530953 
L 307.076524 226.004601 
L 307.401829 229.267777 
L 307.727134 226.004601 
L 308.052439 255.373185 
L 308.377745 206.425545 
L 308.70305 239.057305 
L 309.028355 212.951897 
L 309.678965 232.530953 
L 310.00427 258.636361 
L 310.654881 209.688721 
L 310.980186 219.478249 
L 311.305491 239.057305 
L 311.630796 173.793785 
L 311.956101 242.320481 
L 312.281406 226.004601 
L 312.932017 261.899536 
L 313.257322 232.530953 
L 313.907932 245.583657 
L 314.233237 222.741425 
L 314.558543 222.741425 
L 315.209153 248.846833 
L 315.534458 226.004601 
L 315.859763 232.530953 
L 316.185068 206.425545 
L 316.510373 255.373185 
L 316.835679 229.267777 
L 317.160984 232.530953 
L 317.486289 232.530953 
L 317.811594 206.425545 
L 318.136899 235.794129 
L 318.462204 141.162026 
L 318.78751 219.478249 
L 319.112815 206.425545 
L 319.43812 252.110009 
L 319.763425 219.478249 
L 320.414035 235.794129 
L 320.73934 235.794129 
L 321.064646 261.899536 
L 321.389951 255.373185 
L 322.040561 186.846489 
L 322.365866 199.899193 
L 322.691171 229.267777 
L 323.016477 235.794129 
L 323.341782 245.583657 
L 323.667087 229.267777 
L 323.992392 245.583657 
L 324.317697 232.530953 
L 324.643002 242.320481 
L 324.968308 226.004601 
L 325.293613 196.636017 
L 325.618918 235.794129 
L 325.944223 222.741425 
L 326.269528 248.846833 
L 326.594833 242.320481 
L 326.920138 137.89885 
L 327.245444 144.425202 
L 327.570749 209.688721 
L 327.896054 245.583657 
L 328.221359 239.057305 
L 328.546664 239.057305 
L 328.871969 193.372841 
L 329.197275 245.583657 
L 329.52258 229.267777 
L 329.847885 226.004601 
L 330.17319 235.794129 
L 330.8238 203.162369 
L 331.149105 248.846833 
L 331.474411 209.688721 
L 331.799716 258.636361 
L 332.125021 232.530953 
L 332.450326 229.267777 
L 332.775631 242.320481 
L 333.100936 229.267777 
L 333.426242 229.267777 
L 333.751547 219.478249 
L 334.727462 229.267777 
L 335.052767 183.583313 
L 335.378073 219.478249 
L 335.703378 239.057305 
L 336.028683 239.057305 
L 336.353988 261.899536 
L 336.679293 242.320481 
L 337.004598 235.794129 
L 337.329903 183.583313 
L 337.655209 219.478249 
L 337.980514 239.057305 
L 338.631124 216.215073 
L 338.956429 245.583657 
L 339.281734 102.003914 
L 339.60704 222.741425 
L 339.932345 203.162369 
L 340.25765 157.477906 
L 340.582955 229.267777 
L 340.90826 219.478249 
L 341.233565 190.109665 
L 341.55887 173.793785 
L 341.884176 222.741425 
L 342.209481 232.530953 
L 342.534786 212.951897 
L 342.860091 252.110009 
L 343.185396 242.320481 
L 343.510701 216.215073 
L 343.836007 216.215073 
L 344.486617 261.899536 
L 345.137227 196.636017 
L 345.462532 229.267777 
L 345.787837 235.794129 
L 346.763753 183.583313 
L 347.089058 229.267777 
L 347.414363 183.583313 
L 347.739668 229.267777 
L 348.064974 229.267777 
L 348.390279 232.530953 
L 348.715584 239.057305 
L 349.040889 255.373185 
L 349.366194 226.004601 
L 349.691499 229.267777 
L 350.016805 239.057305 
L 350.34211 203.162369 
L 350.667415 88.95121 
L 350.99272 232.530953 
L 351.318025 226.004601 
L 351.64333 226.004601 
L 351.968635 232.530953 
L 352.293941 245.583657 
L 352.619246 170.530609 
L 352.944551 226.004601 
L 353.269856 137.89885 
L 353.595161 245.583657 
L 353.920466 199.899193 
L 354.245772 170.530609 
L 354.571077 164.004258 
L 354.896382 183.583313 
L 355.221687 222.741425 
L 355.546992 229.267777 
L 355.872297 212.951897 
L 356.197602 147.688378 
L 356.522908 53.056275 
L 356.848213 222.741425 
L 357.498823 229.267777 
L 357.824128 229.267777 
L 358.149433 242.320481 
L 358.474739 203.162369 
L 358.800044 248.846833 
L 359.125349 173.793785 
L 359.450654 160.741082 
L 359.775959 242.320481 
L 360.101264 229.267777 
L 360.42657 186.846489 
L 360.751875 252.110009 
L 361.07718 232.530953 
L 361.402485 186.846489 
L 361.72779 199.899193 
L 362.053095 242.320481 
L 362.3784 193.372841 
L 362.703706 170.530609 
L 363.029011 235.794129 
L 363.354316 190.109665 
L 363.679621 59.582627 
L 364.004926 118.319794 
L 364.330231 271.689064 
L 364.655537 252.110009 
L 364.980842 173.793785 
L 365.306147 222.741425 
L 365.631452 219.478249 
L 365.956757 232.530953 
L 366.282062 222.741425 
L 366.607367 85.688034 
L 366.932673 209.688721 
L 367.257978 222.741425 
L 367.583283 190.109665 
L 367.908588 193.372841 
L 368.233893 216.215073 
L 368.559198 212.951897 
L 368.884504 177.056961 
L 369.209809 258.636361 
L 369.535114 242.320481 
L 369.860419 232.530953 
L 370.185724 268.425888 
L 370.511029 239.057305 
L 370.836334 242.320481 
L 371.16164 164.004258 
L 371.486945 183.583313 
L 371.81225 226.004601 
L 372.137555 193.372841 
L 372.46286 173.793785 
L 372.788165 177.056961 
L 373.113471 248.846833 
L 373.438776 206.425545 
L 373.764081 226.004601 
L 374.089386 235.794129 
L 374.414691 128.109322 
L 374.739996 212.951897 
L 375.065302 226.004601 
L 375.390607 229.267777 
L 375.715912 177.056961 
L 376.041217 226.004601 
L 376.366522 229.267777 
L 376.691827 147.688378 
L 377.017132 177.056961 
L 377.342438 226.004601 
L 377.667743 173.793785 
L 377.993048 183.583313 
L 378.318353 229.267777 
L 378.643658 186.846489 
L 378.968963 219.478249 
L 379.294269 193.372841 
L 379.619574 226.004601 
L 379.944879 124.846146 
L 380.270184 193.372841 
L 380.595489 229.267777 
L 380.920794 245.583657 
L 381.246099 248.846833 
L 381.571405 232.530953 
L 381.89671 239.057305 
L 382.222015 209.688721 
L 382.54732 209.688721 
L 383.19793 144.425202 
L 383.523236 226.004601 
L 383.848541 219.478249 
L 384.173846 66.108979 
L 384.824456 193.372841 
L 385.149761 235.794129 
L 385.475066 252.110009 
L 386.125677 212.951897 
L 386.450982 170.530609 
L 386.776287 180.320137 
L 387.101592 239.057305 
L 387.426897 232.530953 
L 388.077508 203.162369 
L 388.402813 216.215073 
L 388.728118 173.793785 
L 389.053423 226.004601 
L 389.378728 229.267777 
L 389.704034 190.109665 
L 390.029339 229.267777 
L 390.354644 150.951554 
L 390.679949 209.688721 
L 391.005254 88.95121 
L 391.330559 183.583313 
L 391.655864 235.794129 
L 392.63178 173.793785 
L 392.957085 239.057305 
L 393.28239 98.740738 
L 393.607695 232.530953 
L 393.933001 177.056961 
L 394.258306 226.004601 
L 394.583611 216.215073 
L 394.908916 154.21473 
L 395.234221 232.530953 
L 395.559526 209.688721 
L 395.884831 141.162026 
L 396.210137 212.951897 
L 396.535442 232.530953 
L 396.860747 212.951897 
L 397.186052 137.89885 
L 397.511357 232.530953 
L 397.836662 235.794129 
L 398.161968 164.004258 
L 398.487273 206.425545 
L 398.487273 206.425545 
" clip-path="url(#p5399dc8d28)" style="fill: none; stroke: #1f77b4; stroke-width: 1.5; stroke-linecap: square"/>
   </g>
   <g id="line2d_32">
    <path d="M 73.832727 245.583657 
L 74.158032 248.846833 
L 74.483338 254.285459 
L 74.808643 253.741597 
L 75.133948 251.457373 
L 75.459253 251.566146 
L 75.784558 252.576177 
L 76.109863 252.517906 
L 76.435169 251.747433 
L 76.760474 253.415279 
L 77.085779 254.186575 
L 77.411084 254.285459 
L 77.736389 254.118117 
L 78.061694 253.508513 
L 78.386999 254.503004 
L 78.712305 254.557391 
L 79.03761 254.221475 
L 79.362915 254.285459 
L 80.33883 252.576177 
L 80.664136 252.999966 
L 81.314746 251.702112 
L 81.640051 251.718427 
L 81.965356 251.858995 
L 82.290661 252.472584 
L 82.615966 252.343093 
L 82.941272 250.534682 
L 83.266577 251.131056 
L 83.591882 250.531052 
L 84.242492 251.121167 
L 84.893103 250.431804 
L 85.218408 250.569064 
L 85.543713 251.139875 
L 85.869018 250.306674 
L 86.194323 250.436585 
L 86.519628 250.152103 
L 86.844934 250.756984 
L 87.170239 251.099978 
L 87.495544 250.971691 
L 87.820849 250.70091 
L 88.471459 252.03907 
L 88.796764 252.179438 
L 89.447375 251.710436 
L 90.097985 251.598138 
L 90.42329 251.670735 
L 90.748595 251.494315 
L 91.073901 251.747433 
L 91.724511 251.410757 
L 92.375121 251.8287 
L 93.351037 251.842535 
L 93.676342 252.110009 
L 94.001647 252.213601 
L 94.326952 251.855073 
L 94.652257 251.808792 
L 95.302868 252.061304 
L 95.628173 252.110009 
L 95.953478 252.346471 
L 96.278783 252.203242 
L 96.604088 252.38577 
L 96.929393 252.835159 
L 97.254698 253.093431 
L 97.580004 253.124239 
L 98.230614 253.398104 
L 98.555919 253.466134 
L 98.881224 253.323241 
L 99.206529 253.349189 
L 99.531835 253.21133 
L 99.85714 253.278306 
L 100.182445 253.184469 
L 100.50775 253.446731 
L 101.15836 253.56884 
L 101.483666 253.627765 
L 101.808971 253.422781 
L 102.459581 253.723264 
L 103.435496 253.386904 
L 103.760802 253.478437 
L 104.411412 253.38093 
L 105.712633 253.395502 
L 106.363243 253.402356 
L 106.688548 253.549645 
L 107.013853 253.535668 
L 107.339158 253.270946 
L 107.664463 253.322045 
L 107.989769 253.587673 
L 108.315074 253.512869 
L 108.640379 253.258163 
L 108.965684 253.427254 
L 109.616294 253.25653 
L 109.9416 253.188022 
L 110.59221 253.340856 
L 112.218736 253.343983 
L 112.544041 253.116155 
L 112.869346 253.296618 
L 114.495872 253.353123 
L 115.797092 253.490583 
L 116.122398 253.579683 
L 116.447703 253.543828 
L 116.773008 253.631188 
L 117.423618 253.608652 
L 117.748923 253.717603 
L 118.074228 253.658231 
L 118.399534 253.741597 
L 118.724839 253.518574 
L 119.050144 253.531821 
L 120.026059 253.867103 
L 121.32728 253.708299 
L 122.303195 253.741597 
L 122.628501 253.709181 
L 124.255026 254.118117 
L 125.881552 254.09629 
L 126.532163 254.172015 
L 127.182773 254.048137 
L 128.158688 253.955257 
L 128.809299 254.087109 
L 129.785214 254.18486 
L 131.086435 254.119535 
L 132.387655 254.453726 
L 132.71296 254.351201 
L 133.688876 254.42069 
L 134.664791 254.331745 
L 138.243148 254.307323 
L 138.893758 254.350398 
L 139.219064 254.242381 
L 140.194979 254.354437 
L 141.821505 254.26992 
L 142.14681 254.166892 
L 143.773336 254.194815 
L 144.749251 254.210957 
L 145.399862 254.236241 
L 146.050472 254.144006 
L 149.954134 254.123458 
L 150.604744 254.161541 
L 151.905965 253.951469 
L 152.556575 253.976599 
L 153.207185 253.908085 
L 154.183101 254.188967 
L 154.508406 253.970936 
L 155.809627 253.889923 
L 156.785542 253.894558 
L 157.761457 253.83609 
L 158.086763 253.867103 
L 158.412068 253.747848 
L 161.665119 253.843947 
L 162.31573 253.783432 
L 162.641035 253.777325 
L 163.291645 253.457842 
L 163.61695 253.511878 
L 163.942255 253.436407 
L 164.918171 253.526761 
L 166.870002 253.406183 
L 168.171222 253.298657 
L 169.797748 253.388821 
L 170.123053 253.329579 
L 171.424274 253.475989 
L 173.376105 253.555585 
L 177.930377 253.573863 
L 178.580987 253.554696 
L 179.556903 253.471334 
L 180.532818 253.409328 
L 180.858124 253.197734 
L 182.159344 253.028387 
L 182.809954 252.954938 
L 183.460565 252.940284 
L 184.43648 252.942549 
L 185.087091 252.928181 
L 186.063006 252.855069 
L 190.617278 252.989253 
L 192.894414 252.839111 
L 193.545025 252.790942 
L 194.52094 252.811767 
L 195.496856 252.832258 
L 195.822161 252.882409 
L 197.448686 252.581071 
L 200.051128 252.462331 
L 201.352348 252.350803 
L 202.653569 252.356596 
L 203.629484 252.452642 
L 203.95479 252.305311 
L 204.6054 252.296244 
L 211.111503 252.225724 
L 212.738029 252.216748 
L 213.713944 251.913158 
L 218.268216 251.655364 
L 218.918827 251.540595 
L 220.870658 251.612969 
L 222.497183 251.532897 
L 223.473099 251.437554 
L 224.449014 251.505196 
L 225.42493 251.446193 
L 225.750235 251.315132 
L 226.72615 251.313267 
L 227.702066 251.242582 
L 228.677981 251.26172 
L 229.003287 251.12696 
L 230.629812 251.103356 
L 234.858779 250.715264 
L 235.50939 250.753628 
L 236.16 250.648106 
L 243.967324 250.06741 
L 244.292629 249.928342 
L 246.24446 249.860814 
L 247.870986 249.802651 
L 248.846901 249.748898 
L 249.497511 249.618896 
L 250.798732 249.535393 
L 251.449342 249.532875 
L 252.099953 249.393667 
L 253.075868 249.325668 
L 254.702394 248.93471 
L 255.678309 248.905104 
L 257.304835 248.731322 
L 258.280751 248.576816 
L 259.581971 248.498837 
L 260.883192 248.512584 
L 263.160328 248.460625 
L 271.292957 247.966634 
L 272.268872 247.922889 
L 272.594177 247.945727 
L 272.919483 247.846054 
L 274.546008 247.843591 
L 275.521924 247.843183 
L 276.823144 247.802616 
L 277.14845 247.694817 
L 278.44967 247.738389 
L 279.425586 247.697246 
L 283.329248 247.49097 
L 284.305163 247.240423 
L 285.281079 247.147575 
L 287.232909 246.989256 
L 289.835351 246.879113 
L 291.136571 246.827468 
L 291.787182 246.755677 
L 296.341454 246.355386 
L 297.96798 246.255209 
L 298.293285 246.117287 
L 299.594505 246.062569 
L 300.245116 245.88797 
L 303.498167 245.680583 
L 305.775303 245.291159 
L 307.727134 245.139502 
L 308.70305 245.091698 
L 310.00427 245.018099 
L 318.78751 244.3459 
L 320.08873 244.253417 
L 325.618918 243.954174 
L 326.920138 243.794984 
L 327.570749 243.62408 
L 329.52258 243.535361 
L 336.679293 243.147367 
L 338.305819 243.014006 
L 339.932345 242.738837 
L 340.582955 242.618578 
L 349.040889 241.989155 
L 350.34211 241.906353 
L 350.667415 241.726828 
L 352.944551 241.572116 
L 353.269856 241.451565 
L 353.920466 241.408154 
L 355.221687 241.148601 
L 355.872297 241.102429 
L 357.173518 240.741283 
L 359.125349 240.607127 
L 359.775959 240.518318 
L 362.053095 240.344916 
L 363.354316 240.152355 
L 364.004926 239.813718 
L 364.655537 239.863072 
L 365.631452 239.747732 
L 366.282062 239.720817 
L 366.607367 239.54986 
L 369.860419 239.286551 
L 370.836334 239.321501 
L 371.81225 239.164061 
L 373.764081 238.937101 
L 374.089386 238.9337 
L 374.739996 238.785961 
L 376.366522 238.671752 
L 377.342438 238.494809 
L 378.643658 238.302391 
L 379.619574 238.221571 
L 380.270184 238.053783 
L 382.872625 237.935266 
L 383.523236 237.824625 
L 383.848541 237.805394 
L 384.499151 237.514464 
L 385.475066 237.481861 
L 386.450982 237.38162 
L 387.101592 237.324166 
L 388.402813 237.24368 
L 389.378728 237.158546 
L 397.511357 236.049679 
L 398.487273 235.947652 
L 398.487273 235.947652 
" clip-path="url(#p5399dc8d28)" style="fill: none; stroke: #d62728; stroke-width: 1.5; stroke-linecap: square"/>
   </g>
   <g id="patch_3">
    <path d="M 57.6 307.584 
L 57.6 41.472 
" style="fill: none; stroke: #ffffff; stroke-linejoin: miter; stroke-linecap: square"/>
   </g>
   <g id="patch_4">
    <path d="M 414.72 307.584 
L 414.72 41.472 
" style="fill: none; stroke: #ffffff; stroke-linejoin: miter; stroke-linecap: square"/>
   </g>
   <g id="patch_5">
    <path d="M 57.6 307.584 
L 414.72 307.584 
" style="fill: none; stroke: #ffffff; stroke-linejoin: miter; stroke-linecap: square"/>
   </g>
   <g id="patch_6">
    <path d="M 57.6 41.472 
L 414.72 41.472 
" style="fill: none; stroke: #ffffff; stroke-linejoin: miter; stroke-linecap: square"/>
   </g>
   <g id="text_18">
    <!-- 31 -->
    <g transform="translate(398.487273 206.425545) scale(0.1 -0.1)">
     <use xlink:href="#DejaVuSans-33"/>
     <use xlink:href="#DejaVuSans-31" x="63.623047"/>
    </g>
   </g>
   <g id="text_19">
    <!-- 21.952952952952952 -->
    <g transform="translate(398.487273 235.947652) scale(0.1 -0.1)">
     <defs>
      <path id="DejaVuSans-2e" d="M 684 794 
L 1344 794 
L 1344 0 
L 684 0 
L 684 794 
z
" transform="scale(0.015625)"/>
      <path id="DejaVuSans-39" d="M 703 97 
L 703 672 
Q 941 559 1184 500 
Q 1428 441 1663 441 
Q 2288 441 2617 861 
Q 2947 1281 2994 2138 
Q 2813 1869 2534 1725 
Q 2256 1581 1919 1581 
Q 1219 1581 811 2004 
Q 403 2428 403 3163 
Q 403 3881 828 4315 
Q 1253 4750 1959 4750 
Q 2769 4750 3195 4129 
Q 3622 3509 3622 2328 
Q 3622 1225 3098 567 
Q 2575 -91 1691 -91 
Q 1453 -91 1209 -44 
Q 966 3 703 97 
z
M 1959 2075 
Q 2384 2075 2632 2365 
Q 2881 2656 2881 3163 
Q 2881 3666 2632 3958 
Q 2384 4250 1959 4250 
Q 1534 4250 1286 3958 
Q 1038 3666 1038 3163 
Q 1038 2656 1286 2365 
Q 1534 2075 1959 2075 
z
" transform="scale(0.015625)"/>
     </defs>
     <use xlink:href="#DejaVuSans-32"/>
     <use xlink:href="#DejaVuSans-31" x="63.623047"/>
     <use xlink:href="#DejaVuSans-2e" x="127.246094"/>
     <use xlink:href="#DejaVuSans-39" x="159.033203"/>
     <use xlink:href="#DejaVuSans-35" x="222.65625"/>
     <use xlink:href="#DejaVuSans-32" x="286.279297"/>
     <use xlink:href="#DejaVuSans-39" x="349.902344"/>
     <use xlink:href="#DejaVuSans-35" x="413.525391"/>
     <use xlink:href="#DejaVuSans-32" x="477.148438"/>
     <use xlink:href="#DejaVuSans-39" x="540.771484"/>
     <use xlink:href="#DejaVuSans-35" x="604.394531"/>
     <use xlink:href="#DejaVuSans-32" x="668.017578"/>
     <use xlink:href="#DejaVuSans-39" x="731.640625"/>
     <use xlink:href="#DejaVuSans-35" x="795.263672"/>
     <use xlink:href="#DejaVuSans-32" x="858.886719"/>
     <use xlink:href="#DejaVuSans-39" x="922.509766"/>
     <use xlink:href="#DejaVuSans-35" x="986.132812"/>
     <use xlink:href="#DejaVuSans-32" x="1049.755859"/>
    </g>
   </g>
   <g id="text_20">
    <!-- 0 -->
    <g transform="translate(398.487273 307.584) scale(0.1 -0.1)">
     <use xlink:href="#DejaVuSans-30"/>
    </g>
   </g>
   <g id="text_21">
    <!-- Training... -->
    <g transform="translate(200.890125 35.472) scale(0.144 -0.144)">
     <defs>
      <path id="DejaVuSans-54" d="M -19 4666 
L 3928 4666 
L 3928 4134 
L 2272 4134 
L 2272 0 
L 1638 0 
L 1638 4134 
L -19 4134 
L -19 4666 
z
" transform="scale(0.015625)"/>
      <path id="DejaVuSans-69" d="M 603 3500 
L 1178 3500 
L 1178 0 
L 603 0 
L 603 3500 
z
M 603 4863 
L 1178 4863 
L 1178 4134 
L 603 4134 
L 603 4863 
z
" transform="scale(0.015625)"/>
      <path id="DejaVuSans-6e" d="M 3513 2113 
L 3513 0 
L 2938 0 
L 2938 2094 
Q 2938 2591 2744 2837 
Q 2550 3084 2163 3084 
Q 1697 3084 1428 2787 
Q 1159 2491 1159 1978 
L 1159 0 
L 581 0 
L 581 3500 
L 1159 3500 
L 1159 2956 
Q 1366 3272 1645 3428 
Q 1925 3584 2291 3584 
Q 2894 3584 3203 3211 
Q 3513 2838 3513 2113 
z
" transform="scale(0.015625)"/>
      <path id="DejaVuSans-67" d="M 2906 1791 
Q 2906 2416 2648 2759 
Q 2391 3103 1925 3103 
Q 1463 3103 1205 2759 
Q 947 2416 947 1791 
Q 947 1169 1205 825 
Q 1463 481 1925 481 
Q 2391 481 2648 825 
Q 2906 1169 2906 1791 
z
M 3481 434 
Q 3481 -459 3084 -895 
Q 2688 -1331 1869 -1331 
Q 1566 -1331 1297 -1286 
Q 1028 -1241 775 -1147 
L 775 -588 
Q 1028 -725 1275 -790 
Q 1522 -856 1778 -856 
Q 2344 -856 2625 -561 
Q 2906 -266 2906 331 
L 2906 616 
Q 2728 306 2450 153 
Q 2172 0 1784 0 
Q 1141 0 747 490 
Q 353 981 353 1791 
Q 353 2603 747 3093 
Q 1141 3584 1784 3584 
Q 2172 3584 2450 3431 
Q 2728 3278 2906 2969 
L 2906 3500 
L 3481 3500 
L 3481 434 
z
" transform="scale(0.015625)"/>
     </defs>
     <use xlink:href="#DejaVuSans-54"/>
     <use xlink:href="#DejaVuSans-72" x="46.333984"/>
     <use xlink:href="#DejaVuSans-61" x="87.447266"/>
     <use xlink:href="#DejaVuSans-69" x="148.726562"/>
     <use xlink:href="#DejaVuSans-6e" x="176.509766"/>
     <use xlink:href="#DejaVuSans-69" x="239.888672"/>
     <use xlink:href="#DejaVuSans-6e" x="267.671875"/>
     <use xlink:href="#DejaVuSans-67" x="331.050781"/>
     <use xlink:href="#DejaVuSans-2e" x="394.527344"/>
     <use xlink:href="#DejaVuSans-2e" x="426.314453"/>
     <use xlink:href="#DejaVuSans-2e" x="458.101562"/>
    </g>
   </g>
  </g>
 </g>
 <defs>
  <clipPath id="p5399dc8d28">
   <rect x="57.6" y="41.472" width="357.12" height="266.112"/>
  </clipPath>
 </defs>
</svg>
