<?xml version="1.0" encoding="utf-8" standalone="no"?>
<!DOCTYPE svg PUBLIC "-//W3C//DTD SVG 1.1//EN"
  "http://www.w3.org/Graphics/SVG/1.1/DTD/svg11.dtd">
<svg xmlns:xlink="http://www.w3.org/1999/xlink" width="460.8pt" height="345.6pt" viewBox="0 0 460.8 345.6" xmlns="http://www.w3.org/2000/svg" version="1.1">
 <metadata>
  <rdf:RDF xmlns:dc="http://purl.org/dc/elements/1.1/" xmlns:cc="http://creativecommons.org/ns#" xmlns:rdf="http://www.w3.org/1999/02/22-rdf-syntax-ns#">
   <cc:Work>
    <dc:type rdf:resource="http://purl.org/dc/dcmitype/StillImage"/>
    <dc:date>2024-07-25T20:03:16.059729</dc:date>
    <dc:format>image/svg+xml</dc:format>
    <dc:creator>
     <cc:Agent>
      <dc:title>Matplotlib v3.9.1, https://matplotlib.org/</dc:title>
     </cc:Agent>
    </dc:creator>
   </cc:Work>
  </rdf:RDF>
 </metadata>
 <defs>
  <style type="text/css">*{stroke-linejoin: round; stroke-linecap: butt}</style>
 </defs>
 <g id="figure_1">
  <g id="patch_1">
   <path d="M 0 345.6 
L 460.8 345.6 
L 460.8 0 
L 0 0 
z
" style="fill: #ffffff"/>
  </g>
  <g id="axes_1">
   <g id="patch_2">
    <path d="M 57.6 307.584 
L 414.72 307.584 
L 414.72 41.472 
L 57.6 41.472 
z
" style="fill: #e5e5e5"/>
   </g>
   <g id="matplotlib.axis_1">
    <g id="xtick_1">
     <g id="line2d_1">
      <path d="M 73.832727 307.584 
L 73.832727 41.472 
" clip-path="url(#pbd6239f3e7)" style="fill: none; stroke: #ffffff; stroke-width: 0.8; stroke-linecap: square"/>
     </g>
     <g id="line2d_2">
      <defs>
       <path id="m03a12fd829" d="M 0 0 
L 0 3.5 
" style="stroke: #555555; stroke-width: 0.8"/>
      </defs>
      <g>
       <use xlink:href="#m03a12fd829" x="73.832727" y="307.584" style="fill: #555555; stroke: #555555; stroke-width: 0.8"/>
      </g>
     </g>
     <g id="text_1">
      <!-- 0 -->
      <g style="fill: #555555" transform="translate(70.651477 322.182437) scale(0.1 -0.1)">
       <defs>
        <path id="DejaVuSans-30" d="M 2034 4250 
Q 1547 4250 1301 3770 
Q 1056 3291 1056 2328 
Q 1056 1369 1301 889 
Q 1547 409 2034 409 
Q 2525 409 2770 889 
Q 3016 1369 3016 2328 
Q 3016 3291 2770 3770 
Q 2525 4250 2034 4250 
z
M 2034 4750 
Q 2819 4750 3233 4129 
Q 3647 3509 3647 2328 
Q 3647 1150 3233 529 
Q 2819 -91 2034 -91 
Q 1250 -91 836 529 
Q 422 1150 422 2328 
Q 422 3509 836 4129 
Q 1250 4750 2034 4750 
z
" transform="scale(0.015625)"/>
       </defs>
       <use xlink:href="#DejaVuSans-30"/>
      </g>
     </g>
    </g>
    <g id="xtick_2">
     <g id="line2d_3">
      <path d="M 138.893758 307.584 
L 138.893758 41.472 
" clip-path="url(#pbd6239f3e7)" style="fill: none; stroke: #ffffff; stroke-width: 0.8; stroke-linecap: square"/>
     </g>
     <g id="line2d_4">
      <g>
       <use xlink:href="#m03a12fd829" x="138.893758" y="307.584" style="fill: #555555; stroke: #555555; stroke-width: 0.8"/>
      </g>
     </g>
     <g id="text_2">
      <!-- 200 -->
      <g style="fill: #555555" transform="translate(129.350008 322.182437) scale(0.1 -0.1)">
       <defs>
        <path id="DejaVuSans-32" d="M 1228 531 
L 3431 531 
L 3431 0 
L 469 0 
L 469 531 
Q 828 903 1448 1529 
Q 2069 2156 2228 2338 
Q 2531 2678 2651 2914 
Q 2772 3150 2772 3378 
Q 2772 3750 2511 3984 
Q 2250 4219 1831 4219 
Q 1534 4219 1204 4116 
Q 875 4013 500 3803 
L 500 4441 
Q 881 4594 1212 4672 
Q 1544 4750 1819 4750 
Q 2544 4750 2975 4387 
Q 3406 4025 3406 3419 
Q 3406 3131 3298 2873 
Q 3191 2616 2906 2266 
Q 2828 2175 2409 1742 
Q 1991 1309 1228 531 
z
" transform="scale(0.015625)"/>
       </defs>
       <use xlink:href="#DejaVuSans-32"/>
       <use xlink:href="#DejaVuSans-30" x="63.623047"/>
       <use xlink:href="#DejaVuSans-30" x="127.246094"/>
      </g>
     </g>
    </g>
    <g id="xtick_3">
     <g id="line2d_5">
      <path d="M 203.95479 307.584 
L 203.95479 41.472 
" clip-path="url(#pbd6239f3e7)" style="fill: none; stroke: #ffffff; stroke-width: 0.8; stroke-linecap: square"/>
     </g>
     <g id="line2d_6">
      <g>
       <use xlink:href="#m03a12fd829" x="203.95479" y="307.584" style="fill: #555555; stroke: #555555; stroke-width: 0.8"/>
      </g>
     </g>
     <g id="text_3">
      <!-- 400 -->
      <g style="fill: #555555" transform="translate(194.41104 322.182437) scale(0.1 -0.1)">
       <defs>
        <path id="DejaVuSans-34" d="M 2419 4116 
L 825 1625 
L 2419 1625 
L 2419 4116 
z
M 2253 4666 
L 3047 4666 
L 3047 1625 
L 3713 1625 
L 3713 1100 
L 3047 1100 
L 3047 0 
L 2419 0 
L 2419 1100 
L 313 1100 
L 313 1709 
L 2253 4666 
z
" transform="scale(0.015625)"/>
       </defs>
       <use xlink:href="#DejaVuSans-34"/>
       <use xlink:href="#DejaVuSans-30" x="63.623047"/>
       <use xlink:href="#DejaVuSans-30" x="127.246094"/>
      </g>
     </g>
    </g>
    <g id="xtick_4">
     <g id="line2d_7">
      <path d="M 269.015821 307.584 
L 269.015821 41.472 
" clip-path="url(#pbd6239f3e7)" style="fill: none; stroke: #ffffff; stroke-width: 0.8; stroke-linecap: square"/>
     </g>
     <g id="line2d_8">
      <g>
       <use xlink:href="#m03a12fd829" x="269.015821" y="307.584" style="fill: #555555; stroke: #555555; stroke-width: 0.8"/>
      </g>
     </g>
     <g id="text_4">
      <!-- 600 -->
      <g style="fill: #555555" transform="translate(259.472071 322.182437) scale(0.1 -0.1)">
       <defs>
        <path id="DejaVuSans-36" d="M 2113 2584 
Q 1688 2584 1439 2293 
Q 1191 2003 1191 1497 
Q 1191 994 1439 701 
Q 1688 409 2113 409 
Q 2538 409 2786 701 
Q 3034 994 3034 1497 
Q 3034 2003 2786 2293 
Q 2538 2584 2113 2584 
z
M 3366 4563 
L 3366 3988 
Q 3128 4100 2886 4159 
Q 2644 4219 2406 4219 
Q 1781 4219 1451 3797 
Q 1122 3375 1075 2522 
Q 1259 2794 1537 2939 
Q 1816 3084 2150 3084 
Q 2853 3084 3261 2657 
Q 3669 2231 3669 1497 
Q 3669 778 3244 343 
Q 2819 -91 2113 -91 
Q 1303 -91 875 529 
Q 447 1150 447 2328 
Q 447 3434 972 4092 
Q 1497 4750 2381 4750 
Q 2619 4750 2861 4703 
Q 3103 4656 3366 4563 
z
" transform="scale(0.015625)"/>
       </defs>
       <use xlink:href="#DejaVuSans-36"/>
       <use xlink:href="#DejaVuSans-30" x="63.623047"/>
       <use xlink:href="#DejaVuSans-30" x="127.246094"/>
      </g>
     </g>
    </g>
    <g id="xtick_5">
     <g id="line2d_9">
      <path d="M 334.076852 307.584 
L 334.076852 41.472 
" clip-path="url(#pbd6239f3e7)" style="fill: none; stroke: #ffffff; stroke-width: 0.8; stroke-linecap: square"/>
     </g>
     <g id="line2d_10">
      <g>
       <use xlink:href="#m03a12fd829" x="334.076852" y="307.584" style="fill: #555555; stroke: #555555; stroke-width: 0.8"/>
      </g>
     </g>
     <g id="text_5">
      <!-- 800 -->
      <g style="fill: #555555" transform="translate(324.533102 322.182437) scale(0.1 -0.1)">
       <defs>
        <path id="DejaVuSans-38" d="M 2034 2216 
Q 1584 2216 1326 1975 
Q 1069 1734 1069 1313 
Q 1069 891 1326 650 
Q 1584 409 2034 409 
Q 2484 409 2743 651 
Q 3003 894 3003 1313 
Q 3003 1734 2745 1975 
Q 2488 2216 2034 2216 
z
M 1403 2484 
Q 997 2584 770 2862 
Q 544 3141 544 3541 
Q 544 4100 942 4425 
Q 1341 4750 2034 4750 
Q 2731 4750 3128 4425 
Q 3525 4100 3525 3541 
Q 3525 3141 3298 2862 
Q 3072 2584 2669 2484 
Q 3125 2378 3379 2068 
Q 3634 1759 3634 1313 
Q 3634 634 3220 271 
Q 2806 -91 2034 -91 
Q 1263 -91 848 271 
Q 434 634 434 1313 
Q 434 1759 690 2068 
Q 947 2378 1403 2484 
z
M 1172 3481 
Q 1172 3119 1398 2916 
Q 1625 2713 2034 2713 
Q 2441 2713 2670 2916 
Q 2900 3119 2900 3481 
Q 2900 3844 2670 4047 
Q 2441 4250 2034 4250 
Q 1625 4250 1398 4047 
Q 1172 3844 1172 3481 
z
" transform="scale(0.015625)"/>
       </defs>
       <use xlink:href="#DejaVuSans-38"/>
       <use xlink:href="#DejaVuSans-30" x="63.623047"/>
       <use xlink:href="#DejaVuSans-30" x="127.246094"/>
      </g>
     </g>
    </g>
    <g id="xtick_6">
     <g id="line2d_11">
      <path d="M 399.137883 307.584 
L 399.137883 41.472 
" clip-path="url(#pbd6239f3e7)" style="fill: none; stroke: #ffffff; stroke-width: 0.8; stroke-linecap: square"/>
     </g>
     <g id="line2d_12">
      <g>
       <use xlink:href="#m03a12fd829" x="399.137883" y="307.584" style="fill: #555555; stroke: #555555; stroke-width: 0.8"/>
      </g>
     </g>
     <g id="text_6">
      <!-- 1000 -->
      <g style="fill: #555555" transform="translate(386.412883 322.182437) scale(0.1 -0.1)">
       <defs>
        <path id="DejaVuSans-31" d="M 794 531 
L 1825 531 
L 1825 4091 
L 703 3866 
L 703 4441 
L 1819 4666 
L 2450 4666 
L 2450 531 
L 3481 531 
L 3481 0 
L 794 0 
L 794 531 
z
" transform="scale(0.015625)"/>
       </defs>
       <use xlink:href="#DejaVuSans-31"/>
       <use xlink:href="#DejaVuSans-30" x="63.623047"/>
       <use xlink:href="#DejaVuSans-30" x="127.246094"/>
       <use xlink:href="#DejaVuSans-30" x="190.869141"/>
      </g>
     </g>
    </g>
    <g id="text_7">
     <!-- Number of Games -->
     <g style="fill: #555555" transform="translate(181.471875 337.38025) scale(0.12 -0.12)">
      <defs>
       <path id="DejaVuSans-4e" d="M 628 4666 
L 1478 4666 
L 3547 763 
L 3547 4666 
L 4159 4666 
L 4159 0 
L 3309 0 
L 1241 3903 
L 1241 0 
L 628 0 
L 628 4666 
z
" transform="scale(0.015625)"/>
       <path id="DejaVuSans-75" d="M 544 1381 
L 544 3500 
L 1119 3500 
L 1119 1403 
Q 1119 906 1312 657 
Q 1506 409 1894 409 
Q 2359 409 2629 706 
Q 2900 1003 2900 1516 
L 2900 3500 
L 3475 3500 
L 3475 0 
L 2900 0 
L 2900 538 
Q 2691 219 2414 64 
Q 2138 -91 1772 -91 
Q 1169 -91 856 284 
Q 544 659 544 1381 
z
M 1991 3584 
L 1991 3584 
z
" transform="scale(0.015625)"/>
       <path id="DejaVuSans-6d" d="M 3328 2828 
Q 3544 3216 3844 3400 
Q 4144 3584 4550 3584 
Q 5097 3584 5394 3201 
Q 5691 2819 5691 2113 
L 5691 0 
L 5113 0 
L 5113 2094 
Q 5113 2597 4934 2840 
Q 4756 3084 4391 3084 
Q 3944 3084 3684 2787 
Q 3425 2491 3425 1978 
L 3425 0 
L 2847 0 
L 2847 2094 
Q 2847 2600 2669 2842 
Q 2491 3084 2119 3084 
Q 1678 3084 1418 2786 
Q 1159 2488 1159 1978 
L 1159 0 
L 581 0 
L 581 3500 
L 1159 3500 
L 1159 2956 
Q 1356 3278 1631 3431 
Q 1906 3584 2284 3584 
Q 2666 3584 2933 3390 
Q 3200 3197 3328 2828 
z
" transform="scale(0.015625)"/>
       <path id="DejaVuSans-62" d="M 3116 1747 
Q 3116 2381 2855 2742 
Q 2594 3103 2138 3103 
Q 1681 3103 1420 2742 
Q 1159 2381 1159 1747 
Q 1159 1113 1420 752 
Q 1681 391 2138 391 
Q 2594 391 2855 752 
Q 3116 1113 3116 1747 
z
M 1159 2969 
Q 1341 3281 1617 3432 
Q 1894 3584 2278 3584 
Q 2916 3584 3314 3078 
Q 3713 2572 3713 1747 
Q 3713 922 3314 415 
Q 2916 -91 2278 -91 
Q 1894 -91 1617 61 
Q 1341 213 1159 525 
L 1159 0 
L 581 0 
L 581 4863 
L 1159 4863 
L 1159 2969 
z
" transform="scale(0.015625)"/>
       <path id="DejaVuSans-65" d="M 3597 1894 
L 3597 1613 
L 953 1613 
Q 991 1019 1311 708 
Q 1631 397 2203 397 
Q 2534 397 2845 478 
Q 3156 559 3463 722 
L 3463 178 
Q 3153 47 2828 -22 
Q 2503 -91 2169 -91 
Q 1331 -91 842 396 
Q 353 884 353 1716 
Q 353 2575 817 3079 
Q 1281 3584 2069 3584 
Q 2775 3584 3186 3129 
Q 3597 2675 3597 1894 
z
M 3022 2063 
Q 3016 2534 2758 2815 
Q 2500 3097 2075 3097 
Q 1594 3097 1305 2825 
Q 1016 2553 972 2059 
L 3022 2063 
z
" transform="scale(0.015625)"/>
       <path id="DejaVuSans-72" d="M 2631 2963 
Q 2534 3019 2420 3045 
Q 2306 3072 2169 3072 
Q 1681 3072 1420 2755 
Q 1159 2438 1159 1844 
L 1159 0 
L 581 0 
L 581 3500 
L 1159 3500 
L 1159 2956 
Q 1341 3275 1631 3429 
Q 1922 3584 2338 3584 
Q 2397 3584 2469 3576 
Q 2541 3569 2628 3553 
L 2631 2963 
z
" transform="scale(0.015625)"/>
       <path id="DejaVuSans-20" transform="scale(0.015625)"/>
       <path id="DejaVuSans-6f" d="M 1959 3097 
Q 1497 3097 1228 2736 
Q 959 2375 959 1747 
Q 959 1119 1226 758 
Q 1494 397 1959 397 
Q 2419 397 2687 759 
Q 2956 1122 2956 1747 
Q 2956 2369 2687 2733 
Q 2419 3097 1959 3097 
z
M 1959 3584 
Q 2709 3584 3137 3096 
Q 3566 2609 3566 1747 
Q 3566 888 3137 398 
Q 2709 -91 1959 -91 
Q 1206 -91 779 398 
Q 353 888 353 1747 
Q 353 2609 779 3096 
Q 1206 3584 1959 3584 
z
" transform="scale(0.015625)"/>
       <path id="DejaVuSans-66" d="M 2375 4863 
L 2375 4384 
L 1825 4384 
Q 1516 4384 1395 4259 
Q 1275 4134 1275 3809 
L 1275 3500 
L 2222 3500 
L 2222 3053 
L 1275 3053 
L 1275 0 
L 697 0 
L 697 3053 
L 147 3053 
L 147 3500 
L 697 3500 
L 697 3744 
Q 697 4328 969 4595 
Q 1241 4863 1831 4863 
L 2375 4863 
z
" transform="scale(0.015625)"/>
       <path id="DejaVuSans-47" d="M 3809 666 
L 3809 1919 
L 2778 1919 
L 2778 2438 
L 4434 2438 
L 4434 434 
Q 4069 175 3628 42 
Q 3188 -91 2688 -91 
Q 1594 -91 976 548 
Q 359 1188 359 2328 
Q 359 3472 976 4111 
Q 1594 4750 2688 4750 
Q 3144 4750 3555 4637 
Q 3966 4525 4313 4306 
L 4313 3634 
Q 3963 3931 3569 4081 
Q 3175 4231 2741 4231 
Q 1884 4231 1454 3753 
Q 1025 3275 1025 2328 
Q 1025 1384 1454 906 
Q 1884 428 2741 428 
Q 3075 428 3337 486 
Q 3600 544 3809 666 
z
" transform="scale(0.015625)"/>
       <path id="DejaVuSans-61" d="M 2194 1759 
Q 1497 1759 1228 1600 
Q 959 1441 959 1056 
Q 959 750 1161 570 
Q 1363 391 1709 391 
Q 2188 391 2477 730 
Q 2766 1069 2766 1631 
L 2766 1759 
L 2194 1759 
z
M 3341 1997 
L 3341 0 
L 2766 0 
L 2766 531 
Q 2569 213 2275 61 
Q 1981 -91 1556 -91 
Q 1019 -91 701 211 
Q 384 513 384 1019 
Q 384 1609 779 1909 
Q 1175 2209 1959 2209 
L 2766 2209 
L 2766 2266 
Q 2766 2663 2505 2880 
Q 2244 3097 1772 3097 
Q 1472 3097 1187 3025 
Q 903 2953 641 2809 
L 641 3341 
Q 956 3463 1253 3523 
Q 1550 3584 1831 3584 
Q 2591 3584 2966 3190 
Q 3341 2797 3341 1997 
z
" transform="scale(0.015625)"/>
       <path id="DejaVuSans-73" d="M 2834 3397 
L 2834 2853 
Q 2591 2978 2328 3040 
Q 2066 3103 1784 3103 
Q 1356 3103 1142 2972 
Q 928 2841 928 2578 
Q 928 2378 1081 2264 
Q 1234 2150 1697 2047 
L 1894 2003 
Q 2506 1872 2764 1633 
Q 3022 1394 3022 966 
Q 3022 478 2636 193 
Q 2250 -91 1575 -91 
Q 1294 -91 989 -36 
Q 684 19 347 128 
L 347 722 
Q 666 556 975 473 
Q 1284 391 1588 391 
Q 1994 391 2212 530 
Q 2431 669 2431 922 
Q 2431 1156 2273 1281 
Q 2116 1406 1581 1522 
L 1381 1569 
Q 847 1681 609 1914 
Q 372 2147 372 2553 
Q 372 3047 722 3315 
Q 1072 3584 1716 3584 
Q 2034 3584 2315 3537 
Q 2597 3491 2834 3397 
z
" transform="scale(0.015625)"/>
      </defs>
      <use xlink:href="#DejaVuSans-4e"/>
      <use xlink:href="#DejaVuSans-75" x="74.804688"/>
      <use xlink:href="#DejaVuSans-6d" x="138.183594"/>
      <use xlink:href="#DejaVuSans-62" x="235.595703"/>
      <use xlink:href="#DejaVuSans-65" x="299.072266"/>
      <use xlink:href="#DejaVuSans-72" x="360.595703"/>
      <use xlink:href="#DejaVuSans-20" x="401.708984"/>
      <use xlink:href="#DejaVuSans-6f" x="433.496094"/>
      <use xlink:href="#DejaVuSans-66" x="494.677734"/>
      <use xlink:href="#DejaVuSans-20" x="529.882812"/>
      <use xlink:href="#DejaVuSans-47" x="561.669922"/>
      <use xlink:href="#DejaVuSans-61" x="639.160156"/>
      <use xlink:href="#DejaVuSans-6d" x="700.439453"/>
      <use xlink:href="#DejaVuSans-65" x="797.851562"/>
      <use xlink:href="#DejaVuSans-73" x="859.375"/>
     </g>
    </g>
   </g>
   <g id="matplotlib.axis_2">
    <g id="ytick_1">
     <g id="line2d_13">
      <path d="M 57.6 307.584 
L 414.72 307.584 
" clip-path="url(#pbd6239f3e7)" style="fill: none; stroke: #ffffff; stroke-width: 0.8; stroke-linecap: square"/>
     </g>
     <g id="line2d_14">
      <defs>
       <path id="mbd97938261" d="M 0 0 
L -3.5 0 
" style="stroke: #555555; stroke-width: 0.8"/>
      </defs>
      <g>
       <use xlink:href="#mbd97938261" x="57.6" y="307.584" style="fill: #555555; stroke: #555555; stroke-width: 0.8"/>
      </g>
     </g>
     <g id="text_8">
      <!-- 0 -->
      <g style="fill: #555555" transform="translate(44.2375 311.383219) scale(0.1 -0.1)">
       <use xlink:href="#DejaVuSans-30"/>
      </g>
     </g>
    </g>
    <g id="ytick_2">
     <g id="line2d_15">
      <path d="M 57.6 255.634366 
L 414.72 255.634366 
" clip-path="url(#pbd6239f3e7)" style="fill: none; stroke: #ffffff; stroke-width: 0.8; stroke-linecap: square"/>
     </g>
     <g id="line2d_16">
      <g>
       <use xlink:href="#mbd97938261" x="57.6" y="255.634366" style="fill: #555555; stroke: #555555; stroke-width: 0.8"/>
      </g>
     </g>
     <g id="text_9">
      <!-- 20 -->
      <g style="fill: #555555" transform="translate(37.875 259.433585) scale(0.1 -0.1)">
       <use xlink:href="#DejaVuSans-32"/>
       <use xlink:href="#DejaVuSans-30" x="63.623047"/>
      </g>
     </g>
    </g>
    <g id="ytick_3">
     <g id="line2d_17">
      <path d="M 57.6 203.684732 
L 414.72 203.684732 
" clip-path="url(#pbd6239f3e7)" style="fill: none; stroke: #ffffff; stroke-width: 0.8; stroke-linecap: square"/>
     </g>
     <g id="line2d_18">
      <g>
       <use xlink:href="#mbd97938261" x="57.6" y="203.684732" style="fill: #555555; stroke: #555555; stroke-width: 0.8"/>
      </g>
     </g>
     <g id="text_10">
      <!-- 40 -->
      <g style="fill: #555555" transform="translate(37.875 207.483951) scale(0.1 -0.1)">
       <use xlink:href="#DejaVuSans-34"/>
       <use xlink:href="#DejaVuSans-30" x="63.623047"/>
      </g>
     </g>
    </g>
    <g id="ytick_4">
     <g id="line2d_19">
      <path d="M 57.6 151.735098 
L 414.72 151.735098 
" clip-path="url(#pbd6239f3e7)" style="fill: none; stroke: #ffffff; stroke-width: 0.8; stroke-linecap: square"/>
     </g>
     <g id="line2d_20">
      <g>
       <use xlink:href="#mbd97938261" x="57.6" y="151.735098" style="fill: #555555; stroke: #555555; stroke-width: 0.8"/>
      </g>
     </g>
     <g id="text_11">
      <!-- 60 -->
      <g style="fill: #555555" transform="translate(37.875 155.534317) scale(0.1 -0.1)">
       <use xlink:href="#DejaVuSans-36"/>
       <use xlink:href="#DejaVuSans-30" x="63.623047"/>
      </g>
     </g>
    </g>
    <g id="ytick_5">
     <g id="line2d_21">
      <path d="M 57.6 99.785464 
L 414.72 99.785464 
" clip-path="url(#pbd6239f3e7)" style="fill: none; stroke: #ffffff; stroke-width: 0.8; stroke-linecap: square"/>
     </g>
     <g id="line2d_22">
      <g>
       <use xlink:href="#mbd97938261" x="57.6" y="99.785464" style="fill: #555555; stroke: #555555; stroke-width: 0.8"/>
      </g>
     </g>
     <g id="text_12">
      <!-- 80 -->
      <g style="fill: #555555" transform="translate(37.875 103.584683) scale(0.1 -0.1)">
       <use xlink:href="#DejaVuSans-38"/>
       <use xlink:href="#DejaVuSans-30" x="63.623047"/>
      </g>
     </g>
    </g>
    <g id="ytick_6">
     <g id="line2d_23">
      <path d="M 57.6 47.83583 
L 414.72 47.83583 
" clip-path="url(#pbd6239f3e7)" style="fill: none; stroke: #ffffff; stroke-width: 0.8; stroke-linecap: square"/>
     </g>
     <g id="line2d_24">
      <g>
       <use xlink:href="#mbd97938261" x="57.6" y="47.83583" style="fill: #555555; stroke: #555555; stroke-width: 0.8"/>
      </g>
     </g>
     <g id="text_13">
      <!-- 100 -->
      <g style="fill: #555555" transform="translate(31.5125 51.635049) scale(0.1 -0.1)">
       <use xlink:href="#DejaVuSans-31"/>
       <use xlink:href="#DejaVuSans-30" x="63.623047"/>
       <use xlink:href="#DejaVuSans-30" x="127.246094"/>
      </g>
     </g>
    </g>
    <g id="text_14">
     <!-- Reward -->
     <g style="fill: #555555" transform="translate(25.016875 196.873312) rotate(-90) scale(0.12 -0.12)">
      <defs>
       <path id="DejaVuSans-52" d="M 2841 2188 
Q 3044 2119 3236 1894 
Q 3428 1669 3622 1275 
L 4263 0 
L 3584 0 
L 2988 1197 
Q 2756 1666 2539 1819 
Q 2322 1972 1947 1972 
L 1259 1972 
L 1259 0 
L 628 0 
L 628 4666 
L 2053 4666 
Q 2853 4666 3247 4331 
Q 3641 3997 3641 3322 
Q 3641 2881 3436 2590 
Q 3231 2300 2841 2188 
z
M 1259 4147 
L 1259 2491 
L 2053 2491 
Q 2509 2491 2742 2702 
Q 2975 2913 2975 3322 
Q 2975 3731 2742 3939 
Q 2509 4147 2053 4147 
L 1259 4147 
z
" transform="scale(0.015625)"/>
       <path id="DejaVuSans-77" d="M 269 3500 
L 844 3500 
L 1563 769 
L 2278 3500 
L 2956 3500 
L 3675 769 
L 4391 3500 
L 4966 3500 
L 4050 0 
L 3372 0 
L 2619 2869 
L 1863 0 
L 1184 0 
L 269 3500 
z
" transform="scale(0.015625)"/>
       <path id="DejaVuSans-64" d="M 2906 2969 
L 2906 4863 
L 3481 4863 
L 3481 0 
L 2906 0 
L 2906 525 
Q 2725 213 2448 61 
Q 2172 -91 1784 -91 
Q 1150 -91 751 415 
Q 353 922 353 1747 
Q 353 2572 751 3078 
Q 1150 3584 1784 3584 
Q 2172 3584 2448 3432 
Q 2725 3281 2906 2969 
z
M 947 1747 
Q 947 1113 1208 752 
Q 1469 391 1925 391 
Q 2381 391 2643 752 
Q 2906 1113 2906 1747 
Q 2906 2381 2643 2742 
Q 2381 3103 1925 3103 
Q 1469 3103 1208 2742 
Q 947 2381 947 1747 
z
" transform="scale(0.015625)"/>
      </defs>
      <use xlink:href="#DejaVuSans-52"/>
      <use xlink:href="#DejaVuSans-65" x="64.982422"/>
      <use xlink:href="#DejaVuSans-77" x="126.505859"/>
      <use xlink:href="#DejaVuSans-61" x="208.292969"/>
      <use xlink:href="#DejaVuSans-72" x="269.572266"/>
      <use xlink:href="#DejaVuSans-64" x="308.935547"/>
     </g>
    </g>
   </g>
   <g id="line2d_25">
    <path d="M 73.946049 346.6 
L 74.158032 273.816738 
L 74.483338 284.206665 
L 74.808643 242.646958 
L 75.133948 310.181482 
L 75.459253 266.024293 
L 75.784558 297.194073 
L 76.109863 180.307397 
L 76.435169 281.609183 
L 76.760474 299.791555 
L 77.085779 214.074659 
L 77.387548 346.6 
M 77.44607 346.6 
L 78.061694 190.697324 
L 78.386999 297.194073 
L 78.712305 242.646958 
L 79.03761 271.219256 
L 79.362915 237.451994 
L 79.68822 320.571408 
L 80.33883 255.634366 
L 80.664136 221.867104 
L 80.964547 346.6 
M 81.003824 346.6 
L 81.314746 123.162799 
L 81.640051 286.804146 
L 81.965356 325.766372 
L 82.290661 268.621775 
L 82.615966 154.33258 
L 82.941272 294.596592 
L 83.266577 307.584 
L 83.591882 297.194073 
L 83.917187 307.584 
L 84.242492 273.816738 
L 84.567797 151.735098 
L 84.893103 289.401628 
L 85.218408 268.621775 
L 85.543713 291.99911 
L 86.194323 237.451994 
L 86.519628 266.024293 
L 86.844934 323.16889 
L 87.170239 224.464586 
L 87.495544 294.596592 
L 87.820849 328.363854 
L 88.146154 156.930061 
L 88.471459 263.426811 
L 88.796764 281.609183 
L 89.12207 229.659549 
L 89.77268 328.363854 
L 90.097985 227.062067 
L 90.748595 297.194073 
L 91.073901 247.841921 
L 91.724511 258.231848 
L 92.049816 286.804146 
L 92.375121 240.049476 
L 92.700426 323.16889 
L 93.025731 185.50236 
L 93.351037 323.16889 
L 93.676342 260.829329 
L 94.001647 224.464586 
L 94.326952 284.206665 
L 94.652257 177.709915 
L 94.977562 333.558817 
L 95.302868 247.841921 
L 95.628173 346.546225 
L 95.953478 188.099842 
L 96.278783 268.621775 
L 96.604088 234.854512 
L 96.915085 346.6 
M 96.939949 346.6 
L 97.254698 193.294805 
L 97.580004 304.986518 
L 97.905309 247.841921 
L 98.230614 258.231848 
L 98.555919 286.804146 
L 98.881224 330.961335 
L 99.206529 255.634366 
L 99.531835 211.477177 
L 99.85714 310.181482 
L 100.182445 195.892287 
L 100.50775 266.024293 
L 100.833055 291.99911 
L 101.15836 260.829329 
L 101.483666 198.489769 
L 101.808971 304.986518 
L 102.134276 299.791555 
L 102.459581 242.646958 
L 102.784886 330.961335 
L 103.110191 188.099842 
L 103.435496 219.269622 
L 103.645321 346.6 
M 103.879403 346.6 
L 104.086107 224.464586 
L 104.411412 245.244439 
L 104.736717 250.439403 
L 105.062022 164.722507 
L 105.296848 346.6 
M 105.481698 346.6 
L 105.712633 175.112433 
L 106.363243 299.791555 
L 106.688548 247.841921 
L 107.246535 346.6 
M 107.367763 346.6 
L 107.664463 185.50236 
L 107.989769 250.439403 
L 108.315074 276.41422 
L 108.640379 247.841921 
L 108.965684 284.206665 
L 109.290989 255.634366 
L 109.616294 245.244439 
L 109.9416 330.961335 
L 110.266905 203.684732 
L 110.59221 302.389037 
L 110.917515 242.646958 
L 111.24282 299.791555 
L 111.568125 237.451994 
L 111.89343 330.961335 
L 112.218736 219.269622 
L 112.544041 289.401628 
L 112.869346 315.376445 
L 113.519956 175.112433 
L 113.845261 333.558817 
L 114.170567 138.74769 
L 114.495872 336.156299 
L 114.821177 279.011701 
L 115.146482 175.112433 
L 115.471787 291.99911 
L 115.797092 341.351262 
L 116.122398 203.684732 
L 116.447703 310.181482 
L 117.098313 268.621775 
L 117.423618 260.829329 
L 117.748923 216.672141 
L 118.074228 317.973927 
L 118.399534 234.854512 
L 118.724839 240.049476 
L 119.050144 346.546225 
L 119.375449 281.609183 
L 119.700754 289.401628 
L 120.026059 175.112433 
L 120.655207 346.6 
M 120.689052 346.6 
L 121.001975 216.672141 
L 121.32728 281.609183 
L 121.652585 253.036884 
L 121.97789 255.634366 
L 122.303195 260.829329 
L 122.628501 284.206665 
L 122.953806 234.854512 
L 123.279111 250.439403 
L 123.604416 286.804146 
L 123.929721 273.816738 
L 124.255026 245.244439 
L 124.905637 279.011701 
L 125.230942 276.41422 
L 125.556247 232.257031 
L 125.881552 299.791555 
L 126.206857 214.074659 
L 126.532163 253.036884 
L 126.817961 346.6 
M 126.893463 346.6 
L 127.182773 242.646958 
L 127.508078 307.584 
L 127.833383 224.464586 
L 128.158688 242.646958 
L 128.483993 279.011701 
L 128.809299 180.307397 
L 129.072922 346.6 
M 129.220092 346.6 
L 129.459909 237.451994 
L 129.785214 224.464586 
L 130.110519 229.659549 
L 130.435824 266.024293 
L 130.76113 330.961335 
L 131.086435 211.477177 
L 131.41174 289.401628 
L 131.737045 188.099842 
L 132.06235 325.766372 
L 132.387655 310.181482 
L 132.71296 193.294805 
L 133.038266 304.986518 
L 133.363571 276.41422 
L 133.688876 273.816738 
L 134.014181 193.294805 
L 134.339486 276.41422 
L 134.664791 323.16889 
L 134.990097 247.841921 
L 135.315402 266.024293 
L 136.291317 294.596592 
L 136.616622 203.684732 
L 137.267233 317.973927 
L 137.592538 279.011701 
L 137.917843 180.307397 
L 138.243148 276.41422 
L 138.568453 242.646958 
L 138.893758 317.973927 
L 139.219064 227.062067 
L 139.544369 297.194073 
L 139.869674 323.16889 
L 140.194979 242.646958 
L 140.520284 216.672141 
L 140.845589 312.778963 
L 141.170895 219.269622 
L 141.4962 271.219256 
L 141.800735 346.6 
M 141.834919 346.6 
L 142.14681 227.062067 
L 142.429277 346.6 
M 142.502796 346.6 
L 142.79742 172.514952 
L 143.122725 260.829329 
L 143.448031 162.125025 
L 143.773336 343.948744 
L 144.098641 206.282214 
L 144.423946 263.426811 
L 144.749251 279.011701 
L 145.074556 302.389037 
L 145.399862 172.514952 
L 145.725167 312.778963 
L 146.050472 240.049476 
L 146.375777 297.194073 
L 146.701082 216.672141 
L 147.026387 258.231848 
L 147.351692 284.206665 
L 147.676998 336.156299 
L 148.002303 317.973927 
L 148.327608 260.829329 
L 148.652913 234.854512 
L 148.978218 250.439403 
L 149.303523 307.584 
L 149.628829 193.294805 
L 149.903111 346.6 
M 149.99769 346.6 
L 150.279439 162.125025 
L 150.930049 315.376445 
L 151.255354 206.282214 
L 151.58066 263.426811 
L 151.807105 346.6 
M 151.958843 346.6 
L 152.23127 159.527543 
L 152.556575 284.206665 
L 152.88188 276.41422 
L 153.072967 346.6 
M 153.278977 346.6 
L 153.53249 172.514952 
L 153.857796 286.804146 
L 154.183101 307.584 
L 154.508406 154.33258 
L 154.833711 271.219256 
L 155.159016 279.011701 
L 155.484321 237.451994 
L 155.809627 343.948744 
L 156.134932 211.477177 
L 156.460237 279.011701 
L 156.785542 214.074659 
L 157.110847 343.948744 
L 157.436152 180.307397 
L 157.761457 276.41422 
L 158.086763 328.363854 
L 158.412068 224.464586 
L 158.643827 346.6 
M 158.817556 346.6 
L 159.062678 195.892287 
L 159.713288 250.439403 
L 160.038594 279.011701 
L 160.363899 286.804146 
L 160.689204 266.024293 
L 161.014509 234.854512 
L 161.339814 336.156299 
L 161.665119 208.879695 
L 161.990424 291.99911 
L 162.31573 286.804146 
L 162.641035 185.50236 
L 163.066607 346.6 
M 163.368632 346.6 
L 163.61695 120.565318 
L 163.942255 323.16889 
L 164.267561 281.609183 
L 164.592866 206.282214 
L 164.918171 330.961335 
L 165.243476 216.672141 
L 165.568781 237.451994 
L 165.894086 307.584 
L 166.219392 253.036884 
L 166.544697 255.634366 
L 167.195307 315.376445 
L 167.520612 208.879695 
L 167.845917 190.697324 
L 168.171222 271.219256 
L 168.496528 279.011701 
L 168.821833 206.282214 
L 169.147138 297.194073 
L 169.472443 247.841921 
L 169.797748 338.75378 
L 170.123053 162.125025 
L 170.448359 266.024293 
L 170.773664 273.816738 
L 171.098969 253.036884 
L 171.424274 302.389037 
L 171.749579 175.112433 
L 172.074884 255.634366 
L 172.400189 255.634366 
L 173.0508 289.401628 
L 173.376105 258.231848 
L 173.70141 253.036884 
L 174.026715 221.867104 
L 174.35202 284.206665 
L 174.677326 291.99911 
L 174.814088 346.6 
M 175.095053 346.6 
L 175.327936 156.930061 
L 175.653241 185.50236 
L 175.978546 276.41422 
L 176.303851 289.401628 
L 176.629156 253.036884 
L 176.954462 279.011701 
L 177.279767 325.766372 
L 177.605072 227.062067 
L 177.930377 299.791555 
L 178.255682 180.307397 
L 178.580987 281.609183 
L 178.906293 297.194073 
L 179.231598 232.257031 
L 179.556903 263.426811 
L 179.804915 346.6 
M 179.935426 346.6 
L 180.207513 214.074659 
L 180.532818 325.766372 
L 180.858124 123.162799 
L 181.10576 346.6 
M 181.298909 346.6 
L 181.508734 219.269622 
L 181.834039 164.722507 
L 182.159344 284.206665 
L 182.484649 276.41422 
L 182.809954 258.231848 
L 183.13526 289.401628 
L 183.460565 247.841921 
L 183.78587 263.426811 
L 184.111175 232.257031 
L 184.43648 263.426811 
L 184.761785 268.621775 
L 185.087091 291.99911 
L 185.412396 240.049476 
L 185.737701 299.791555 
L 186.063006 320.571408 
L 186.388311 216.672141 
L 186.713616 289.401628 
L 187.038921 216.672141 
L 187.281787 346.6 
M 187.41537 346.6 
L 187.689532 110.175391 
L 188.014837 325.766372 
L 188.340142 336.156299 
L 188.665447 112.772873 
L 188.990752 341.351262 
L 189.316058 247.841921 
L 189.641363 281.609183 
L 189.966668 297.194073 
L 190.291973 227.062067 
L 190.617278 250.439403 
L 190.942583 172.514952 
L 191.267889 299.791555 
L 191.593194 253.036884 
L 191.853587 346.6 
M 191.959068 346.6 
L 192.243804 182.904878 
L 192.569109 289.401628 
L 192.894414 271.219256 
L 193.219719 289.401628 
L 193.545025 164.722507 
L 193.87033 291.99911 
L 194.195635 203.684732 
L 194.52094 336.156299 
L 194.846245 266.024293 
L 195.17155 273.816738 
L 195.822161 234.854512 
L 196.147466 271.219256 
L 196.472771 281.609183 
L 196.798076 232.257031 
L 197.123381 302.389037 
L 197.448686 195.892287 
L 197.867176 346.6 
M 198.184815 346.6 
L 198.424602 201.08725 
L 198.749907 99.785464 
L 199.075212 266.024293 
L 199.400517 286.804146 
L 199.725823 198.489769 
L 199.936608 346.6 
M 200.146201 346.6 
L 200.376433 151.735098 
L 201.027043 302.389037 
L 201.352348 266.024293 
L 201.677653 291.99911 
L 202.328264 198.489769 
L 202.653569 294.596592 
L 202.978874 253.036884 
L 203.304179 312.778963 
L 203.629484 216.672141 
L 203.95479 190.697324 
L 204.280095 330.961335 
L 204.6054 330.961335 
L 205.25601 206.282214 
L 205.581315 294.596592 
L 205.906621 227.062067 
L 206.231926 242.646958 
L 206.557231 227.062067 
L 206.882536 276.41422 
L 207.207841 255.634366 
L 207.533146 250.439403 
L 207.858451 328.363854 
L 208.509062 193.294805 
L 208.834367 325.766372 
L 209.159672 258.231848 
L 209.484977 312.778963 
L 209.810282 175.112433 
L 210.135588 255.634366 
L 210.460893 253.036884 
L 210.786198 273.816738 
L 211.111503 273.816738 
L 211.436808 263.426811 
L 211.762113 195.892287 
L 212.087418 302.389037 
L 212.412724 315.376445 
L 212.738029 227.062067 
L 213.063334 333.558817 
L 213.388639 97.187982 
L 213.713944 245.244439 
L 214.039249 247.841921 
L 214.364555 286.804146 
L 214.68986 279.011701 
L 215.015165 211.477177 
L 215.34047 250.439403 
L 215.665775 323.16889 
L 215.99108 234.854512 
L 216.316385 253.036884 
L 216.966996 299.791555 
L 217.292301 206.282214 
L 217.606108 346.6 
M 217.62953 346.6 
L 217.942911 211.477177 
L 218.268216 219.269622 
L 218.593522 250.439403 
L 218.918827 240.049476 
L 219.569437 250.439403 
L 219.894742 286.804146 
L 220.220047 260.829329 
L 220.545353 273.816738 
L 220.870658 258.231848 
L 221.195963 253.036884 
L 221.521268 266.024293 
L 221.846573 219.269622 
L 222.171878 336.156299 
L 222.497183 195.892287 
L 222.822489 255.634366 
L 223.147794 250.439403 
L 223.473099 255.634366 
L 223.798404 258.231848 
L 224.123709 232.257031 
L 224.441935 346.6 
M 224.457864 346.6 
L 224.77432 255.634366 
L 225.099625 271.219256 
L 225.42493 193.294805 
L 225.691593 346.6 
M 225.789695 346.6 
L 226.07554 102.382946 
L 226.400845 281.609183 
L 226.72615 310.181482 
L 227.051456 234.854512 
L 227.376761 245.244439 
L 227.702066 294.596592 
L 228.027371 242.646958 
L 228.352676 255.634366 
L 228.677981 232.257031 
L 229.003287 294.596592 
L 229.328592 237.451994 
L 229.653897 317.973927 
L 229.979202 151.735098 
L 230.304507 221.867104 
L 230.616935 346.6 
M 230.640544 346.6 
L 230.955118 195.892287 
L 231.280423 271.219256 
L 231.605728 240.049476 
L 231.931033 195.892287 
L 232.256338 310.181482 
L 232.581643 312.778963 
L 232.906948 284.206665 
L 233.232254 245.244439 
L 233.557559 164.722507 
L 233.882864 336.156299 
L 234.208169 156.930061 
L 234.524889 346.6 
M 234.543535 346.6 
L 234.858779 185.50236 
L 235.164471 346.6 
M 235.204311 346.6 
L 235.50939 190.697324 
L 235.834695 279.011701 
L 236.16 232.257031 
L 236.446403 346.6 
M 236.520671 346.6 
L 236.81061 219.269622 
L 237.135915 302.389037 
L 237.461221 182.904878 
L 237.786526 286.804146 
L 238.111831 276.41422 
L 238.437136 234.854512 
L 238.762441 260.829329 
L 239.087746 245.244439 
L 239.413052 284.206665 
L 239.738357 211.477177 
L 240.063662 315.376445 
L 240.388967 317.973927 
L 240.714272 141.345171 
L 241.039577 307.584 
L 241.364882 250.439403 
L 242.015493 224.464586 
L 242.340798 214.074659 
L 242.666103 284.206665 
L 242.991408 172.514952 
L 243.316713 284.206665 
L 243.642019 286.804146 
L 243.967324 240.049476 
L 244.292629 229.659549 
L 244.617934 214.074659 
L 244.943239 299.791555 
L 245.268544 247.841921 
L 245.59385 276.41422 
L 245.919155 229.659549 
L 246.24446 281.609183 
L 246.569765 263.426811 
L 246.89507 302.389037 
L 247.220375 211.477177 
L 247.54568 242.646958 
L 247.870986 247.841921 
L 248.196291 266.024293 
L 248.521596 320.571408 
L 248.846901 201.08725 
L 249.145652 346.6 
M 249.190204 346.6 
L 249.497511 125.760281 
L 249.822817 284.206665 
L 250.148122 172.514952 
L 250.473427 221.867104 
L 250.798732 253.036884 
L 251.124037 341.351262 
L 251.449342 162.125025 
L 251.774647 328.363854 
L 252.099953 211.477177 
L 252.425258 164.722507 
L 252.750563 294.596592 
L 253.075868 253.036884 
L 253.401173 312.778963 
L 253.726478 193.294805 
L 254.051784 232.257031 
L 254.377089 304.986518 
L 254.702394 208.879695 
L 255.027699 299.791555 
L 255.353004 245.244439 
L 256.003615 312.778963 
L 256.32892 203.684732 
L 256.654225 237.451994 
L 256.97953 253.036884 
L 257.304835 214.074659 
L 257.63014 224.464586 
L 257.955445 291.99911 
L 258.280751 214.074659 
L 258.606056 169.91747 
L 258.831846 346.6 
M 259.026045 346.6 
L 259.256666 156.930061 
L 260.205753 346.6 
M 260.247555 346.6 
L 260.883192 162.125025 
L 261.208497 304.986518 
L 261.533802 216.672141 
L 261.859107 250.439403 
L 262.184412 229.659549 
L 262.509718 271.219256 
L 262.835023 182.904878 
L 263.160328 315.376445 
L 263.485633 177.709915 
L 263.810938 253.036884 
L 264.136243 216.672141 
L 264.461549 268.621775 
L 264.786854 232.257031 
L 265.112159 247.841921 
L 265.437464 240.049476 
L 265.762769 297.194073 
L 266.088074 143.942653 
L 266.413379 263.426811 
L 266.738685 273.816738 
L 267.06399 224.464586 
L 267.389295 211.477177 
L 267.7146 276.41422 
L 268.039905 266.024293 
L 268.36521 117.967836 
L 268.690516 299.791555 
L 269.015821 271.219256 
L 269.235369 346.6 
M 269.414473 346.6 
L 269.666431 221.867104 
L 269.991736 190.697324 
L 270.317041 260.829329 
L 270.642347 198.489769 
L 270.967652 206.282214 
L 271.292957 320.571408 
L 271.618262 175.112433 
L 271.943567 224.464586 
L 272.268872 195.892287 
L 272.594177 323.16889 
L 272.919483 201.08725 
L 273.570093 247.841921 
L 273.895398 325.766372 
L 274.220703 177.709915 
L 274.546008 286.804146 
L 274.871314 273.816738 
L 275.196619 266.024293 
L 275.521924 240.049476 
L 275.847229 260.829329 
L 276.172534 237.451994 
L 276.497839 182.904878 
L 276.823144 279.011701 
L 277.14845 227.062067 
L 277.473755 240.049476 
L 277.79906 294.596592 
L 278.124365 206.282214 
L 278.44967 234.854512 
L 278.774975 229.659549 
L 279.100281 307.584 
L 279.425586 175.112433 
L 279.750891 224.464586 
L 280.076196 294.596592 
L 280.401501 201.08725 
L 280.726806 221.867104 
L 281.052111 286.804146 
L 281.377417 279.011701 
L 282.028027 216.672141 
L 282.353332 338.75378 
L 282.678637 240.049476 
L 283.003942 214.074659 
L 283.329248 240.049476 
L 283.654553 315.376445 
L 283.979858 128.357763 
L 284.305163 281.609183 
L 284.630468 268.621775 
L 284.955773 188.099842 
L 285.281079 312.778963 
L 285.606384 221.867104 
L 285.931689 245.244439 
L 286.256994 214.074659 
L 286.497535 346.6 
M 286.648016 346.6 
L 286.907604 162.125025 
L 287.232909 182.904878 
L 287.558215 258.231848 
L 287.88352 273.816738 
L 288.208825 245.244439 
L 288.53413 227.062067 
L 288.859435 240.049476 
L 289.18474 260.829329 
L 289.510046 216.672141 
L 289.835351 245.244439 
L 290.160656 232.257031 
L 290.485961 240.049476 
L 290.811266 289.401628 
L 291.136571 201.08725 
L 291.461876 320.571408 
L 291.787182 143.942653 
L 292.112487 281.609183 
L 292.437792 255.634366 
L 292.763097 177.709915 
L 293.088402 175.112433 
L 293.413707 328.363854 
L 293.739013 159.527543 
L 294.064318 279.011701 
L 294.389623 110.175391 
L 294.714928 320.571408 
L 295.040233 242.646958 
L 295.365538 253.036884 
L 295.690844 188.099842 
L 296.016149 242.646958 
L 296.341454 185.50236 
L 296.666759 294.596592 
L 297.317369 162.125025 
L 297.642674 284.206665 
L 297.96798 234.854512 
L 298.293285 253.036884 
L 298.61859 263.426811 
L 298.943895 172.514952 
L 299.594505 299.791555 
L 299.919811 266.024293 
L 300.245116 190.697324 
L 300.570421 245.244439 
L 300.895726 247.841921 
L 301.221031 211.477177 
L 301.871641 302.389037 
L 302.196947 237.451994 
L 302.522252 255.634366 
L 302.847557 154.33258 
L 303.172862 297.194073 
L 303.498167 253.036884 
L 303.823472 169.91747 
L 304.148778 299.791555 
L 304.474083 263.426811 
L 304.799388 164.722507 
L 305.008361 346.6 
M 305.231249 346.6 
L 305.449998 138.74769 
L 305.775303 268.621775 
L 306.100608 219.269622 
L 306.425914 234.854512 
L 306.751219 237.451994 
L 307.076524 317.973927 
L 307.727134 167.319988 
L 308.052439 304.986518 
L 308.377745 201.08725 
L 308.70305 307.584 
L 309.028355 162.125025 
L 309.35366 294.596592 
L 309.678965 294.596592 
L 310.329576 162.125025 
L 310.654881 268.621775 
L 310.980186 281.609183 
L 311.305491 258.231848 
L 311.630796 185.50236 
L 311.956101 276.41422 
L 312.281406 206.282214 
L 312.584393 346.6 
M 312.622498 346.6 
L 312.932017 143.942653 
L 313.257322 286.804146 
L 313.582627 190.697324 
L 313.907932 247.841921 
L 314.233237 162.125025 
L 314.558543 286.804146 
L 314.883848 177.709915 
L 315.209153 312.778963 
L 315.534458 203.684732 
L 315.859763 276.41422 
L 316.185068 198.489769 
L 316.510373 260.829329 
L 316.835679 216.672141 
L 317.160984 291.99911 
L 317.486289 115.370354 
L 317.811594 276.41422 
L 318.136899 227.062067 
L 318.462204 255.634366 
L 318.78751 271.219256 
L 319.112815 336.156299 
L 319.43812 154.33258 
L 319.763425 297.194073 
L 320.08873 250.439403 
L 320.414035 185.50236 
L 320.73934 304.986518 
L 321.064646 281.609183 
L 321.389951 245.244439 
L 321.715256 185.50236 
L 322.040561 255.634366 
L 322.365866 143.942653 
L 322.691171 242.646958 
L 323.016477 221.867104 
L 323.341782 214.074659 
L 323.667087 320.571408 
L 323.992392 255.634366 
L 324.317697 234.854512 
L 324.643002 159.527543 
L 324.968308 180.307397 
L 325.293613 266.024293 
L 325.618918 245.244439 
L 325.944223 182.904878 
L 326.269528 284.206665 
L 326.594833 229.659549 
L 326.920138 299.791555 
L 327.245444 214.074659 
L 327.570749 263.426811 
L 327.896054 162.125025 
L 328.221359 247.841921 
L 328.546664 242.646958 
L 328.871969 193.294805 
L 329.197275 328.363854 
L 329.52258 188.099842 
L 329.847885 266.024293 
L 330.17319 214.074659 
L 330.498495 237.451994 
L 330.8238 323.16889 
L 331.149105 177.709915 
L 331.474411 198.489769 
L 331.799716 299.791555 
L 332.125021 320.571408 
L 332.450326 146.540135 
L 332.775631 276.41422 
L 333.426242 242.646958 
L 333.751547 190.697324 
L 334.076852 291.99911 
L 334.402157 237.451994 
L 334.727462 245.244439 
L 335.052767 245.244439 
L 335.378073 312.778963 
L 335.703378 172.514952 
L 336.028683 211.477177 
L 336.353988 315.376445 
L 336.679293 143.942653 
L 337.004598 151.735098 
L 337.329903 302.389037 
L 337.980514 185.50236 
L 338.305819 206.282214 
L 338.631124 320.571408 
L 338.956429 224.464586 
L 339.281734 250.439403 
L 339.60704 201.08725 
L 339.932345 208.879695 
L 340.25765 201.08725 
L 340.582955 279.011701 
L 340.90826 198.489769 
L 341.233565 232.257031 
L 341.55887 141.345171 
L 341.884176 276.41422 
L 342.209481 195.892287 
L 342.534786 320.571408 
L 342.860091 242.646958 
L 343.185396 193.294805 
L 343.510701 188.099842 
L 343.836007 133.552726 
L 344.161312 104.980428 
L 344.486617 263.426811 
L 345.137227 221.867104 
L 345.462532 253.036884 
L 345.787837 268.621775 
L 346.438448 208.879695 
L 346.763753 138.74769 
L 347.739668 302.389037 
L 348.064974 216.672141 
L 348.390279 317.973927 
L 348.715584 182.904878 
L 349.040889 268.621775 
L 349.366194 224.464586 
L 349.691499 245.244439 
L 350.016805 216.672141 
L 350.34211 273.816738 
L 350.667415 232.257031 
L 350.99272 237.451994 
L 351.318025 141.345171 
L 351.64333 268.621775 
L 351.968635 221.867104 
L 352.293941 195.892287 
L 352.619246 268.621775 
L 352.944551 146.540135 
L 353.269856 162.125025 
L 353.595161 136.150208 
L 353.920466 151.735098 
L 354.245772 284.206665 
L 354.571077 211.477177 
L 354.896382 180.307397 
L 355.221687 279.011701 
L 355.546992 203.684732 
L 355.872297 271.219256 
L 356.197602 240.049476 
L 356.522908 255.634366 
L 357.173518 271.219256 
L 357.498823 167.319988 
L 357.824128 232.257031 
L 358.149433 260.829329 
L 358.474739 219.269622 
L 358.800044 304.986518 
L 359.125349 206.282214 
L 359.450654 180.307397 
L 359.775959 271.219256 
L 360.101264 297.194073 
L 360.42657 188.099842 
L 360.751875 286.804146 
L 361.07718 211.477177 
L 361.402485 281.609183 
L 361.72779 227.062067 
L 362.053095 94.590501 
L 362.37515 346.6 
M 362.383623 346.6 
L 362.703706 190.697324 
L 363.029011 232.257031 
L 363.354316 221.867104 
L 363.679621 273.816738 
L 364.330231 164.722507 
L 364.655537 297.194073 
L 364.980842 273.816738 
L 365.306147 201.08725 
L 365.631452 240.049476 
L 365.956757 208.879695 
L 366.282062 234.854512 
L 366.607367 307.584 
L 366.932673 164.722507 
L 367.257978 260.829329 
L 367.583283 110.175391 
L 367.908588 253.036884 
L 368.233893 221.867104 
L 368.559198 73.810647 
L 368.884504 284.206665 
L 369.209809 255.634366 
L 369.535114 169.91747 
L 369.860419 208.879695 
L 370.185724 219.269622 
L 370.511029 240.049476 
L 370.836334 284.206665 
L 371.16164 247.841921 
L 371.486945 156.930061 
L 371.81225 245.244439 
L 372.137555 190.697324 
L 372.46286 216.672141 
L 372.788165 273.816738 
L 373.113471 151.735098 
L 373.438776 182.904878 
L 373.764081 240.049476 
L 374.089386 232.257031 
L 374.414691 250.439403 
L 374.739996 242.646958 
L 375.065302 115.370354 
L 375.390607 227.062067 
L 375.715912 232.257031 
L 376.041217 203.684732 
L 376.366522 216.672141 
L 376.691827 234.854512 
L 377.017132 320.571408 
L 377.342438 260.829329 
L 377.993048 195.892287 
L 378.318353 299.791555 
L 378.643658 188.099842 
L 378.968963 164.722507 
L 379.294269 263.426811 
L 379.619574 291.99911 
L 379.944879 221.867104 
L 380.270184 240.049476 
L 380.595489 198.489769 
L 380.920794 221.867104 
L 381.246099 258.231848 
L 381.571405 201.08725 
L 381.89671 221.867104 
L 382.222015 263.426811 
L 382.54732 203.684732 
L 382.872625 195.892287 
L 383.19793 266.024293 
L 383.523236 208.879695 
L 383.848541 294.596592 
L 384.499151 141.345171 
L 384.824456 107.577909 
L 385.149761 247.841921 
L 385.475066 271.219256 
L 385.800372 198.489769 
L 386.125677 341.351262 
L 386.450982 60.823239 
L 386.776287 227.062067 
L 387.101592 234.854512 
L 387.426897 169.91747 
L 387.752203 289.401628 
L 388.077508 219.269622 
L 388.402813 203.684732 
L 388.728118 255.634366 
L 389.053423 162.125025 
L 389.378728 232.257031 
L 389.704034 250.439403 
L 390.029339 198.489769 
L 390.354644 253.036884 
L 390.679949 279.011701 
L 390.891566 346.6 
M 391.048564 346.6 
L 391.330559 110.175391 
L 391.575266 346.6 
M 391.727573 346.6 
L 391.98117 71.213165 
L 392.306475 198.489769 
L 392.63178 177.709915 
L 392.957085 242.646958 
L 393.28239 343.948744 
L 393.607695 89.395537 
L 393.933001 125.760281 
L 394.258306 227.062067 
L 394.583611 242.646958 
L 394.908916 143.942653 
L 395.234221 214.074659 
L 395.559526 255.634366 
L 395.884831 201.08725 
L 396.210137 234.854512 
L 396.535442 203.684732 
L 396.860747 273.816738 
L 397.186052 221.867104 
L 397.511357 214.074659 
L 397.836662 281.609183 
L 398.161968 266.024293 
L 398.487273 214.074659 
L 398.487273 214.074659 
" clip-path="url(#pbd6239f3e7)" style="fill: none; stroke: #1f77b4; stroke-width: 1.5; stroke-linecap: square"/>
   </g>
   <g id="line2d_26">
    <path d="M 73.832727 308.363245 
L 74.483338 307.791799 
L 74.808643 307.142428 
L 75.133948 307.168403 
L 75.459253 306.752806 
L 75.784558 306.648907 
L 76.109863 305.376141 
L 76.435169 305.116392 
L 76.760474 305.038468 
L 77.085779 304.103375 
L 77.411084 304.596896 
L 77.736389 304.129349 
L 78.061694 302.960483 
L 78.386999 302.856583 
L 78.712305 302.207213 
L 79.03761 301.843565 
L 79.362915 301.142245 
L 79.68822 301.272119 
L 80.013525 301.116271 
L 80.33883 300.596774 
L 80.664136 299.739605 
L 80.989441 300.233127 
L 81.314746 298.388915 
L 81.640051 298.181116 
L 81.965356 298.36294 
L 82.290661 297.973318 
L 82.615966 296.440804 
L 82.941272 296.310929 
L 83.917187 296.20703 
L 84.242492 295.869358 
L 84.567797 294.310869 
L 84.893103 294.129045 
L 85.218408 293.739423 
L 85.543713 293.583574 
L 85.869018 293.116027 
L 86.194323 292.414707 
L 86.519628 291.99911 
L 86.844934 292.154959 
L 87.170239 291.323765 
L 87.495544 291.19389 
L 87.820849 291.401689 
L 88.146154 289.89515 
L 89.447375 288.128862 
L 89.77268 288.336661 
L 90.097985 287.531441 
L 90.42329 287.03792 
L 90.748595 286.93402 
L 91.724511 285.297607 
L 92.049816 285.089808 
L 92.375121 284.414463 
L 92.700426 284.570312 
L 93.025731 283.349496 
L 93.351037 283.505345 
L 93.676342 283.037798 
L 94.001647 282.206604 
L 94.326952 281.97283 
L 94.652257 280.67409 
L 94.977562 280.933838 
L 95.302868 280.336417 
L 95.628173 280.726039 
L 95.953478 279.531198 
L 96.278783 279.141575 
L 96.604088 278.414281 
L 96.929393 278.855852 
L 97.254698 277.71296 
L 97.580004 277.686986 
L 98.230614 276.596043 
L 98.555919 276.388245 
L 98.881224 276.622018 
L 99.206529 276.102522 
L 99.531835 275.141454 
L 99.85714 275.167428 
L 100.182445 274.050511 
L 100.50775 273.634914 
L 100.833055 273.479065 
L 101.15836 273.011519 
L 101.483666 271.920576 
L 102.134276 271.816677 
L 102.459581 271.167307 
L 102.784886 271.40108 
L 103.435496 269.323095 
L 103.760802 270.414037 
L 104.411412 268.959447 
L 104.736717 268.388001 
L 105.062022 266.959386 
L 105.387327 268.050329 
L 105.712633 266.725613 
L 106.363243 265.167124 
L 106.688548 264.907376 
L 107.013853 265.141149 
L 107.339158 266.335991 
L 107.664463 265.089199 
L 108.315074 264.725552 
L 108.640379 265.400897 
L 108.965684 265.426872 
L 109.290989 264.9853 
L 109.616294 265.296998 
L 109.9416 265.03725 
L 110.266905 264.465804 
L 110.59221 265.582721 
L 110.917515 265.03725 
L 111.24282 265.608696 
L 111.568125 265.271023 
L 111.89343 266.206117 
L 112.218736 265.193099 
L 112.544041 265.167124 
L 112.869346 265.764545 
L 113.194651 265.998318 
L 113.519956 264.180081 
L 113.845261 266.284041 
L 114.170567 264.803476 
L 115.471787 265.193099 
L 115.797092 265.530771 
L 116.122398 264.595678 
L 116.773008 264.751527 
L 117.098313 265.920394 
L 117.423618 265.634671 
L 117.748923 265.115174 
L 118.074228 265.374922 
L 118.399534 265.115174 
L 118.724839 265.141149 
L 119.050144 265.946368 
L 119.375449 265.530771 
L 119.700754 266.180142 
L 120.026059 264.9853 
L 120.351365 264.439829 
L 120.67667 266.38794 
L 121.001975 265.920394 
L 121.32728 265.920394 
L 121.652585 266.154167 
L 121.97789 265.920394 
L 122.303195 265.245048 
L 122.628501 265.816494 
L 122.953806 265.582721 
L 123.279111 265.115174 
L 123.604416 265.504796 
L 123.929721 265.712595 
L 124.580332 265.348948 
L 124.905637 265.73857 
L 125.230942 265.271023 
L 125.556247 265.73857 
L 125.881552 265.504796 
L 126.206857 265.03725 
L 126.532163 265.322973 
L 127.182773 266.725613 
L 127.833383 266.232091 
L 128.158688 265.193099 
L 128.483993 266.102217 
L 128.809299 265.219073 
L 129.134604 266.725613 
L 129.459909 265.582721 
L 129.785214 265.894419 
L 130.110519 265.141149 
L 130.435824 265.322973 
L 130.76113 266.050268 
L 131.086435 265.296998 
L 131.41174 264.881401 
L 131.737045 264.206056 
L 132.06235 265.348948 
L 132.71296 265.322973 
L 133.038266 265.712595 
L 133.363571 265.556746 
L 133.688876 265.68662 
L 134.014181 265.634671 
L 134.339486 265.348948 
L 134.664791 265.582721 
L 134.990097 265.634671 
L 135.315402 264.9853 
L 135.966012 266.543789 
L 136.291317 265.322973 
L 136.616622 265.115174 
L 136.941927 265.296998 
L 137.267233 265.972343 
L 137.592538 267.115235 
L 137.917843 264.751527 
L 138.243148 265.764545 
L 138.568453 265.816494 
L 138.893758 265.998318 
L 139.869674 265.296998 
L 140.194979 265.868444 
L 140.520284 265.530771 
L 140.845589 265.894419 
L 141.170895 265.608696 
L 141.4962 265.478822 
L 141.821505 266.43989 
L 142.14681 266.258066 
L 142.472115 266.595739 
L 143.122725 265.868444 
L 143.448031 265.063225 
L 143.773336 265.504796 
L 144.098641 265.193099 
L 144.423946 264.517753 
L 144.749251 265.115174 
L 145.074556 265.245048 
L 145.399862 263.816433 
L 146.050472 265.141149 
L 146.375777 264.777502 
L 146.701082 265.556746 
L 147.026387 264.777502 
L 147.351692 264.829451 
L 147.676998 266.43989 
L 148.002303 266.699638 
L 148.327608 265.894419 
L 148.652913 266.206117 
L 148.978218 265.608696 
L 149.303523 265.816494 
L 149.628829 265.063225 
L 149.954134 266.206117 
L 150.604744 264.907376 
L 150.930049 265.712595 
L 151.255354 265.374922 
L 151.58066 264.543728 
L 151.905965 265.556746 
L 152.23127 264.258005 
L 152.556575 265.348948 
L 152.88188 265.374922 
L 153.207185 265.816494 
L 153.53249 265.374922 
L 153.857796 265.426872 
L 154.183101 265.972343 
L 154.508406 264.959325 
L 154.833711 265.063225 
L 155.484321 265.03725 
L 155.809627 265.972343 
L 156.134932 265.219073 
L 156.460237 265.271023 
L 156.785542 264.959325 
L 157.110847 265.764545 
L 157.436152 264.777502 
L 157.761457 264.777502 
L 158.086763 265.73857 
L 158.412068 264.9853 
L 158.737373 266.803537 
L 159.062678 266.232091 
L 159.387983 264.829451 
L 159.713288 264.907376 
L 160.038594 264.621653 
L 160.363899 265.245048 
L 160.689204 265.478822 
L 161.014509 265.03725 
L 161.339814 266.595739 
L 161.665119 264.829451 
L 162.31573 265.998318 
L 162.641035 265.556746 
L 162.96634 266.050268 
L 163.291645 266.907437 
L 163.61695 265.998318 
L 163.942255 266.335991 
L 164.267561 267.271084 
L 164.592866 266.076242 
L 165.243476 266.517814 
L 165.568781 265.842469 
L 165.894086 266.154167 
L 166.219392 265.946368 
L 166.544697 266.569764 
L 166.870002 266.673663 
L 167.195307 266.595739 
L 167.520612 266.206117 
L 167.845917 265.452847 
L 168.496528 265.322973 
L 168.821833 264.439829 
L 169.147138 265.374922 
L 169.472443 265.219073 
L 169.797748 265.426872 
L 170.123053 264.258005 
L 170.448359 265.115174 
L 170.773664 265.089199 
L 171.098969 265.193099 
L 171.424274 265.03725 
L 172.400189 263.426811 
L 172.725495 263.712534 
L 173.0508 264.439829 
L 173.376105 263.894358 
L 173.70141 264.23203 
L 174.35202 263.063164 
L 175.002631 264.28398 
L 175.327936 264.128131 
L 175.653241 263.374861 
L 175.978546 264.517753 
L 176.303851 263.972282 
L 176.629156 264.439829 
L 176.954462 264.595678 
L 177.279767 265.063225 
L 177.605072 264.309955 
L 177.930377 265.582721 
L 178.255682 264.258005 
L 178.580987 264.673602 
L 178.906293 264.673602 
L 179.556903 264.881401 
L 179.882208 265.764545 
L 180.207513 264.543728 
L 180.532818 264.621653 
L 180.858124 263.244987 
L 181.183429 265.063225 
L 181.508734 264.751527 
L 181.834039 263.322912 
L 182.159344 264.23203 
L 182.484649 263.244987 
L 182.809954 264.206056 
L 183.13526 264.673602 
L 183.460565 263.998257 
L 183.78587 264.569703 
L 184.111175 264.258005 
L 184.43648 263.063164 
L 184.761785 264.154106 
L 185.087091 264.23203 
L 185.412396 263.868383 
L 185.737701 262.907315 
L 186.063006 264.387879 
L 186.388311 263.686559 
L 186.713616 263.504736 
L 187.038921 264.128131 
L 187.364227 265.322973 
L 187.689532 263.63461 
L 188.014837 264.517753 
L 188.340142 264.439829 
L 188.665447 263.452786 
L 188.990752 264.076182 
L 189.316058 264.413854 
L 189.641363 263.790459 
L 189.966668 264.959325 
L 190.291973 264.465804 
L 191.267889 262.205995 
L 191.593194 262.777441 
L 191.918499 264.28398 
L 192.243804 263.608635 
L 192.569109 263.712534 
L 192.894414 263.556685 
L 193.219719 263.790459 
L 193.87033 262.647567 
L 194.195635 262.595617 
L 194.52094 263.037189 
L 194.846245 262.82939 
L 195.17155 263.712534 
L 195.496856 263.089139 
L 195.822161 261.270901 
L 196.147466 262.777441 
L 196.798076 261.868322 
L 197.123381 262.82939 
L 197.448686 261.4787 
L 197.773992 262.569642 
L 198.099297 264.180081 
L 198.424602 263.115113 
L 198.749907 261.582599 
L 199.400517 261.686498 
L 199.725823 260.517632 
L 200.051128 262.699516 
L 200.701738 261.946247 
L 201.027043 262.18002 
L 201.352348 262.777441 
L 202.002959 262.621592 
L 202.328264 261.218952 
L 202.653569 262.543667 
L 202.978874 262.413793 
L 203.304179 262.803416 
L 203.629484 262.439768 
L 203.95479 261.322851 
L 204.280095 262.88134 
L 204.6054 263.63461 
L 204.930705 263.686559 
L 205.25601 263.037189 
L 205.581315 263.089139 
L 205.906621 262.777441 
L 206.231926 262.673541 
L 206.557231 262.725491 
L 206.882536 262.647567 
L 207.207841 262.283919 
L 207.533146 260.569581 
L 207.858451 262.283919 
L 208.183757 263.011214 
L 208.509062 262.18002 
L 208.834367 262.543667 
L 209.159672 262.595617 
L 209.484977 262.93329 
L 209.810282 261.42675 
L 210.135588 261.712473 
L 210.460893 261.244927 
L 210.786198 262.18002 
L 211.111503 262.102095 
L 211.762113 261.400775 
L 212.087418 261.790398 
L 212.412724 261.218952 
L 213.063334 261.42675 
L 213.388639 261.167002 
L 213.713944 259.452664 
L 214.039249 259.738387 
L 214.364555 260.959204 
L 214.68986 260.907254 
L 215.015165 260.257883 
L 215.34047 260.179959 
L 215.665775 260.517632 
L 216.316385 260.283858 
L 216.966996 261.115052 
L 217.292301 260.491657 
L 217.617606 261.089078 
L 217.942911 260.803355 
L 218.593522 259.296815 
L 218.918827 259.530589 
L 219.244132 259.089017 
L 219.569437 259.426689 
L 219.894742 258.387697 
L 220.220047 259.894236 
L 220.545353 259.37474 
L 220.870658 258.595495 
L 221.195963 259.998135 
L 221.521268 259.244866 
L 221.846573 258.959143 
L 222.171878 259.504614 
L 222.497183 258.491596 
L 222.822489 258.777319 
L 223.147794 258.777319 
L 223.473099 259.608513 
L 223.798404 259.192916 
L 224.449014 258.777319 
L 224.77432 259.504614 
L 225.099625 259.32279 
L 225.42493 258.543546 
L 225.750235 259.452664 
L 226.07554 258.829269 
L 226.400845 258.725369 
L 226.72615 259.790337 
L 227.051456 258.777319 
L 227.376761 258.56952 
L 227.702066 258.777319 
L 228.027371 258.67342 
L 228.352676 258.881218 
L 228.677981 258.491596 
L 229.653897 258.829269 
L 229.979202 258.387697 
L 230.304507 257.348704 
L 230.629812 256.881157 
L 230.955118 256.829208 
L 231.280423 258.543546 
L 231.605728 258.283797 
L 231.931033 257.374679 
L 232.256338 258.491596 
L 232.581643 257.348704 
L 232.906948 258.67342 
L 233.232254 258.777319 
L 233.557559 257.400654 
L 233.882864 258.101974 
L 234.208169 256.751283 
L 234.533474 257.894175 
L 234.858779 257.764301 
L 235.184085 258.387697 
L 235.50939 257.764301 
L 235.834695 257.426628 
L 236.16 257.582477 
L 236.485305 259.296815 
L 236.81061 258.179898 
L 237.135915 257.894175 
L 237.461221 257.114931 
L 237.786526 257.92015 
L 238.111831 257.738326 
L 238.762441 257.998074 
L 239.413052 258.257823 
L 239.738357 257.816251 
L 240.063662 258.465621 
L 240.388967 258.361722 
L 240.714272 257.192855 
L 241.039577 258.335747 
L 241.364882 257.582477 
L 241.690188 257.348704 
L 242.015493 256.46556 
L 242.666103 257.140905 
L 242.991408 256.335686 
L 243.642019 256.569459 
L 243.967324 256.335686 
L 244.292629 256.673359 
L 244.617934 255.790215 
L 244.943239 255.634366 
L 245.268544 255.842165 
L 245.59385 255.270719 
L 245.919155 256.595434 
L 246.24446 256.959082 
L 246.89507 257.27078 
L 247.220375 256.595434 
L 247.54568 256.907132 
L 247.870986 256.881157 
L 248.196291 256.309711 
L 248.521596 257.16688 
L 248.846901 256.647384 
L 249.172206 257.452603 
L 249.497511 255.71229 
L 249.822817 256.491535 
L 250.148122 254.699273 
L 250.473427 254.803172 
L 250.798732 255.140845 
L 251.124037 256.049963 
L 251.449342 255.270719 
L 251.774647 256.101913 
L 252.099953 255.71229 
L 252.425258 254.491474 
L 252.750563 254.829147 
L 253.075868 254.621348 
L 253.401173 255.166819 
L 253.726478 254.569399 
L 254.051784 254.231726 
L 254.377089 255.088895 
L 254.702394 253.816129 
L 255.027699 254.855122 
L 255.353004 254.751222 
L 255.678309 255.036945 
L 256.003615 255.608391 
L 256.32892 255.06292 
L 256.654225 255.11487 
L 256.97953 254.153801 
L 257.63014 253.270658 
L 257.955445 254.257701 
L 258.280751 252.595312 
L 258.606056 253.270658 
L 258.931361 254.699273 
L 259.256666 253.166758 
L 259.581971 252.984935 
L 260.232582 253.997953 
L 260.557887 253.971978 
L 260.883192 253.036884 
L 261.208497 253.764179 
L 261.533802 252.984935 
L 261.859107 253.114809 
L 262.184412 252.231665 
L 262.509718 253.426507 
L 263.160328 252.673237 
L 264.136243 252.075816 
L 264.461549 252.803111 
L 265.112159 251.374496 
L 265.437464 250.932924 
L 265.762769 251.45242 
L 266.088074 251.244622 
L 266.413379 250.517327 
L 266.738685 251.686194 
L 267.06399 250.413428 
L 267.389295 250.673176 
L 267.7146 249.867957 
L 268.039905 250.621226 
L 268.36521 249.010788 
L 268.690516 249.686133 
L 269.015821 248.777014 
L 269.341126 250.413428 
L 269.666431 249.608208 
L 269.991736 249.686133 
L 270.317041 249.426385 
L 270.642347 248.64714 
L 270.967652 248.361417 
L 271.292957 248.958838 
L 271.943567 247.660097 
L 272.268872 247.504248 
L 272.594177 247.582173 
L 272.919483 246.413306 
L 273.244788 247.2445 
L 273.570093 246.647079 
L 273.895398 247.400349 
L 274.220703 246.828903 
L 274.871314 248.049719 
L 275.196619 247.867896 
L 275.521924 248.543241 
L 275.847229 248.309468 
L 276.497839 247.2445 
L 276.823144 247.738022 
L 277.14845 247.867896 
L 277.473755 247.270475 
L 277.79906 247.738022 
L 278.124365 247.036702 
L 278.44967 247.088651 
L 278.774975 246.569155 
L 279.100281 247.010727 
L 279.425586 245.737961 
L 279.750891 245.867835 
L 280.076196 246.387331 
L 281.052111 245.14054 
L 281.377417 245.919784 
L 281.702722 244.750918 
L 282.028027 245.660036 
L 282.678637 246.880853 
L 283.329248 246.673054 
L 283.979858 246.075633 
L 284.305163 245.608087 
L 284.630468 246.179533 
L 285.281079 246.59513 
L 285.606384 246.283432 
L 285.931689 245.608087 
L 286.256994 245.815885 
L 286.582299 247.426324 
L 286.907604 245.997709 
L 287.232909 245.737961 
L 287.558215 245.322364 
L 287.88352 245.608087 
L 288.208825 245.270414 
L 288.53413 244.413245 
L 289.18474 245.010666 
L 289.510046 244.647018 
L 289.835351 244.958716 
L 290.160656 245.036641 
L 290.485961 244.517144 
L 290.811266 245.270414 
L 291.136571 245.582112 
L 291.461876 244.543119 
L 291.787182 244.413245 
L 292.112487 245.062616 
L 292.437792 244.724943 
L 292.763097 242.98463 
L 293.088402 242.33526 
L 293.413707 243.997648 
L 293.739013 242.543058 
L 294.064318 243.166454 
L 294.389623 241.763814 
L 294.714928 242.672932 
L 295.040233 242.387209 
L 295.365538 243.088529 
L 295.690844 241.815763 
L 296.016149 242.465134 
L 296.341454 241.789789 
L 296.666759 242.569033 
L 296.992064 242.153436 
L 297.317369 241.452116 
L 297.642674 241.815763 
L 297.96798 241.763814 
L 298.293285 241.322242 
L 298.61859 242.517083 
L 298.943895 241.607965 
L 299.2692 241.166393 
L 299.919811 242.465134 
L 300.245116 241.607965 
L 300.570421 241.400166 
L 300.895726 242.698907 
L 301.221031 241.815763 
L 301.546336 241.737839 
L 301.871641 240.93262 
L 302.196947 241.088469 
L 302.522252 241.737839 
L 302.847557 240.672871 
L 303.172862 241.659914 
L 303.498167 242.127461 
L 303.823472 240.620922 
L 304.148778 241.867713 
L 304.474083 242.257335 
L 304.799388 241.945637 
L 305.124693 243.192429 
L 305.449998 242.569033 
L 305.775303 243.010605 
L 306.100608 242.724882 
L 306.425914 241.815763 
L 306.751219 242.413184 
L 307.076524 242.724882 
L 307.401829 242.33526 
L 307.727134 241.348217 
L 308.052439 241.997587 
L 308.377745 241.400166 
L 308.70305 242.101486 
L 309.028355 241.893688 
L 309.35366 242.049537 
L 309.678965 242.724882 
L 310.00427 242.543058 
L 310.329576 241.218343 
L 310.980186 242.309285 
L 311.305491 242.595008 
L 311.630796 241.374192 
L 311.956101 242.387209 
L 312.281406 242.205386 
L 312.606712 242.828781 
L 312.932017 242.257335 
L 313.257322 242.906706 
L 313.582627 241.945637 
L 313.907932 241.63394 
L 314.233237 240.82872 
L 314.558543 241.53004 
L 314.883848 239.919602 
L 315.209153 240.646897 
L 315.534458 240.542997 
L 315.859763 240.906645 
L 316.185068 239.737778 
L 316.510373 241.062494 
L 316.835679 240.413123 
L 317.160984 240.646897 
L 317.486289 239.919602 
L 317.811594 239.555954 
L 318.462204 239.711803 
L 318.78751 240.283249 
L 319.112815 239.711803 
L 319.43812 239.633879 
L 319.763425 240.776771 
L 320.08873 240.698846 
L 320.414035 239.815702 
L 321.064646 240.958594 
L 321.389951 241.010544 
L 321.715256 240.257274 
L 322.040561 240.646897 
L 322.365866 239.633879 
L 322.691171 239.737778 
L 323.016477 239.555954 
L 323.341782 238.802685 
L 323.667087 239.997526 
L 323.992392 239.348156 
L 324.317697 240.257274 
L 324.643002 239.036458 
L 324.968308 238.283188 
L 325.618918 239.867652 
L 325.944223 238.413062 
L 326.269528 239.659854 
L 326.594833 239.166332 
L 326.920138 241.062494 
L 327.245444 239.997526 
L 327.570749 240.205325 
L 327.896054 239.296206 
L 328.221359 239.893627 
L 328.871969 239.971551 
L 329.197275 240.309224 
L 329.52258 239.919602 
L 329.847885 240.958594 
L 330.17319 240.257274 
L 330.498495 240.283249 
L 330.8238 240.984569 
L 331.149105 240.1274 
L 331.474411 240.387148 
L 331.799716 241.088469 
L 332.125021 241.296267 
L 332.450326 240.101425 
L 332.775631 240.958594 
L 333.100936 241.114443 
L 333.426242 241.062494 
L 333.751547 240.854695 
L 334.076852 241.140418 
L 334.402157 240.491048 
L 334.727462 240.568972 
L 335.052767 240.465073 
L 335.378073 242.049537 
L 335.703378 240.802746 
L 336.028683 240.387148 
L 336.353988 241.841738 
L 337.004598 239.166332 
L 337.329903 240.542997 
L 337.655209 238.568911 
L 337.980514 239.036458 
L 338.305819 238.413062 
L 338.631124 239.42608 
L 338.956429 239.322181 
L 339.281734 239.452055 
L 339.60704 238.283188 
L 339.932345 238.02344 
L 340.25765 238.361113 
L 340.582955 238.101365 
L 340.90826 238.07539 
L 341.233565 237.32212 
L 341.884176 236.932498 
L 342.209481 235.945455 
L 342.860091 237.737717 
L 343.510701 236.049354 
L 343.836007 234.802563 
L 344.161312 233.997343 
L 344.486617 233.867469 
L 344.811922 234.205142 
L 345.137227 232.854452 
L 345.462532 233.945394 
L 345.787837 233.76357 
L 346.113143 234.205142 
L 346.763753 233.581746 
L 347.089058 232.698603 
L 347.414363 233.321998 
L 347.739668 233.218099 
L 348.064974 233.347973 
L 348.390279 233.76357 
L 348.715584 233.607721 
L 349.366194 233.76357 
L 349.691499 233.296023 
L 350.016805 234.309041 
L 350.99272 234.153192 
L 351.318025 232.854452 
L 351.64333 232.179106 
L 351.968635 232.854452 
L 352.293941 231.841434 
L 352.619246 232.023257 
L 352.944551 231.633635 
L 353.920466 227.815337 
L 354.245772 228.80238 
L 354.571077 228.360808 
L 355.221687 229.088103 
L 355.546992 228.906279 
L 355.872297 229.477725 
L 356.197602 228.672506 
L 356.522908 228.672506 
L 356.848213 228.958229 
L 357.173518 230.075146 
L 357.498823 229.945272 
L 357.824128 229.607599 
L 358.149433 229.763448 
L 358.800044 230.334894 
L 359.125349 230.101121 
L 359.450654 228.906279 
L 359.775959 229.477725 
L 360.751875 230.464768 
L 361.07718 230.153071 
L 361.402485 231.036214 
L 362.053095 229.088103 
L 362.3784 229.919297 
L 362.703706 229.685524 
L 363.029011 229.633574 
L 363.354316 228.620556 
L 363.679621 229.581625 
L 364.004926 229.815398 
L 364.330231 228.464707 
L 364.655537 228.230934 
L 364.980842 229.5037 
L 365.306147 228.75043 
L 365.956757 228.204959 
L 366.282062 228.646531 
L 366.607367 228.80238 
L 366.932673 228.075085 
L 367.257978 228.230934 
L 367.583283 226.880244 
L 367.908588 226.282823 
L 368.233893 226.776344 
L 368.559198 225.399679 
L 368.884504 225.087981 
L 369.209809 226.204898 
L 369.535114 226.386722 
L 369.860419 225.451629 
L 370.185724 225.139931 
L 370.511029 225.685402 
L 370.836334 226.464647 
L 371.486945 225.062006 
L 372.46286 224.984082 
L 372.788165 225.711377 
L 373.113471 224.438611 
L 373.438776 224.282762 
L 373.764081 224.360686 
L 374.089386 225.269805 
L 374.414691 225.010057 
L 374.739996 225.477604 
L 375.065302 223.425593 
L 375.390607 223.269744 
L 375.715912 223.659366 
L 376.041217 223.815215 
L 376.366522 224.646409 
L 376.691827 225.94515 
L 377.017132 226.516596 
L 377.342438 226.724395 
L 377.667743 226.776344 
L 377.993048 226.204898 
L 378.318353 226.516596 
L 378.968963 225.607478 
L 379.619574 227.789362 
L 379.944879 227.607539 
L 380.270184 226.984143 
L 380.595489 226.802319 
L 380.920794 225.841251 
L 381.246099 226.594521 
L 381.571405 225.919175 
L 381.89671 225.893201 
L 382.222015 226.075024 
L 382.54732 225.94515 
L 382.872625 225.165906 
L 383.19793 225.503578 
L 383.523236 225.217855 
L 383.848541 226.75037 
L 384.173846 226.282823 
L 384.824456 224.59446 
L 385.149761 224.386661 
L 385.475066 225.633452 
L 385.800372 225.9971 
L 386.125677 228.04911 
L 386.450982 227.139992 
L 386.776287 226.568546 
L 387.101592 226.802319 
L 387.426897 226.69842 
L 388.077508 226.958168 
L 388.402813 226.282823 
L 388.728118 226.438672 
L 389.053423 225.503578 
L 389.704034 224.984082 
L 390.354644 225.503578 
L 390.679949 225.685402 
L 391.005254 227.321816 
L 391.330559 225.373704 
L 391.655864 227.555589 
L 392.63178 224.54251 
L 393.28239 225.659427 
L 393.933001 222.880122 
L 394.258306 222.880122 
L 394.583611 224.360686 
L 394.908916 222.308676 
L 395.559526 222.776223 
L 395.884831 222.568424 
L 396.210137 222.178802 
L 396.535442 221.996978 
L 396.860747 223.08792 
L 397.511357 221.73723 
L 397.836662 222.542449 
L 398.161968 222.802197 
L 398.487273 222.854147 
L 398.487273 222.854147 
" clip-path="url(#pbd6239f3e7)" style="fill: none; stroke: #d62728; stroke-width: 1.5; stroke-linecap: square"/>
   </g>
   <g id="patch_3">
    <path d="M 57.6 307.584 
L 57.6 41.472 
" style="fill: none; stroke: #ffffff; stroke-linejoin: miter; stroke-linecap: square"/>
   </g>
   <g id="patch_4">
    <path d="M 414.72 307.584 
L 414.72 41.472 
" style="fill: none; stroke: #ffffff; stroke-linejoin: miter; stroke-linecap: square"/>
   </g>
   <g id="patch_5">
    <path d="M 57.6 307.584 
L 414.72 307.584 
" style="fill: none; stroke: #ffffff; stroke-linejoin: miter; stroke-linecap: square"/>
   </g>
   <g id="patch_6">
    <path d="M 57.6 41.472 
L 414.72 41.472 
" style="fill: none; stroke: #ffffff; stroke-linejoin: miter; stroke-linecap: square"/>
   </g>
   <g id="text_15">
    <!-- 36 -->
    <g transform="translate(398.487273 214.074659) scale(0.1 -0.1)">
     <defs>
      <path id="DejaVuSans-33" d="M 2597 2516 
Q 3050 2419 3304 2112 
Q 3559 1806 3559 1356 
Q 3559 666 3084 287 
Q 2609 -91 1734 -91 
Q 1441 -91 1130 -33 
Q 819 25 488 141 
L 488 750 
Q 750 597 1062 519 
Q 1375 441 1716 441 
Q 2309 441 2620 675 
Q 2931 909 2931 1356 
Q 2931 1769 2642 2001 
Q 2353 2234 1838 2234 
L 1294 2234 
L 1294 2753 
L 1863 2753 
Q 2328 2753 2575 2939 
Q 2822 3125 2822 3475 
Q 2822 3834 2567 4026 
Q 2313 4219 1838 4219 
Q 1578 4219 1281 4162 
Q 984 4106 628 3988 
L 628 4550 
Q 988 4650 1302 4700 
Q 1616 4750 1894 4750 
Q 2613 4750 3031 4423 
Q 3450 4097 3450 3541 
Q 3450 3153 3228 2886 
Q 3006 2619 2597 2516 
z
" transform="scale(0.015625)"/>
     </defs>
     <use xlink:href="#DejaVuSans-33"/>
     <use xlink:href="#DejaVuSans-36" x="63.623047"/>
    </g>
   </g>
   <g id="text_16">
    <!-- 32.62 -->
    <g transform="translate(398.487273 222.854147) scale(0.1 -0.1)">
     <defs>
      <path id="DejaVuSans-2e" d="M 684 794 
L 1344 794 
L 1344 0 
L 684 0 
L 684 794 
z
" transform="scale(0.015625)"/>
     </defs>
     <use xlink:href="#DejaVuSans-33"/>
     <use xlink:href="#DejaVuSans-32" x="63.623047"/>
     <use xlink:href="#DejaVuSans-2e" x="127.246094"/>
     <use xlink:href="#DejaVuSans-36" x="159.033203"/>
     <use xlink:href="#DejaVuSans-32" x="222.65625"/>
    </g>
   </g>
   <g id="text_17">
    <!-- Epoch: 999 -->
    <g transform="translate(195.6555 35.472) scale(0.144 -0.144)">
     <defs>
      <path id="DejaVuSans-45" d="M 628 4666 
L 3578 4666 
L 3578 4134 
L 1259 4134 
L 1259 2753 
L 3481 2753 
L 3481 2222 
L 1259 2222 
L 1259 531 
L 3634 531 
L 3634 0 
L 628 0 
L 628 4666 
z
" transform="scale(0.015625)"/>
      <path id="DejaVuSans-70" d="M 1159 525 
L 1159 -1331 
L 581 -1331 
L 581 3500 
L 1159 3500 
L 1159 2969 
Q 1341 3281 1617 3432 
Q 1894 3584 2278 3584 
Q 2916 3584 3314 3078 
Q 3713 2572 3713 1747 
Q 3713 922 3314 415 
Q 2916 -91 2278 -91 
Q 1894 -91 1617 61 
Q 1341 213 1159 525 
z
M 3116 1747 
Q 3116 2381 2855 2742 
Q 2594 3103 2138 3103 
Q 1681 3103 1420 2742 
Q 1159 2381 1159 1747 
Q 1159 1113 1420 752 
Q 1681 391 2138 391 
Q 2594 391 2855 752 
Q 3116 1113 3116 1747 
z
" transform="scale(0.015625)"/>
      <path id="DejaVuSans-63" d="M 3122 3366 
L 3122 2828 
Q 2878 2963 2633 3030 
Q 2388 3097 2138 3097 
Q 1578 3097 1268 2742 
Q 959 2388 959 1747 
Q 959 1106 1268 751 
Q 1578 397 2138 397 
Q 2388 397 2633 464 
Q 2878 531 3122 666 
L 3122 134 
Q 2881 22 2623 -34 
Q 2366 -91 2075 -91 
Q 1284 -91 818 406 
Q 353 903 353 1747 
Q 353 2603 823 3093 
Q 1294 3584 2113 3584 
Q 2378 3584 2631 3529 
Q 2884 3475 3122 3366 
z
" transform="scale(0.015625)"/>
      <path id="DejaVuSans-68" d="M 3513 2113 
L 3513 0 
L 2938 0 
L 2938 2094 
Q 2938 2591 2744 2837 
Q 2550 3084 2163 3084 
Q 1697 3084 1428 2787 
Q 1159 2491 1159 1978 
L 1159 0 
L 581 0 
L 581 4863 
L 1159 4863 
L 1159 2956 
Q 1366 3272 1645 3428 
Q 1925 3584 2291 3584 
Q 2894 3584 3203 3211 
Q 3513 2838 3513 2113 
z
" transform="scale(0.015625)"/>
      <path id="DejaVuSans-3a" d="M 750 794 
L 1409 794 
L 1409 0 
L 750 0 
L 750 794 
z
M 750 3309 
L 1409 3309 
L 1409 2516 
L 750 2516 
L 750 3309 
z
" transform="scale(0.015625)"/>
      <path id="DejaVuSans-39" d="M 703 97 
L 703 672 
Q 941 559 1184 500 
Q 1428 441 1663 441 
Q 2288 441 2617 861 
Q 2947 1281 2994 2138 
Q 2813 1869 2534 1725 
Q 2256 1581 1919 1581 
Q 1219 1581 811 2004 
Q 403 2428 403 3163 
Q 403 3881 828 4315 
Q 1253 4750 1959 4750 
Q 2769 4750 3195 4129 
Q 3622 3509 3622 2328 
Q 3622 1225 3098 567 
Q 2575 -91 1691 -91 
Q 1453 -91 1209 -44 
Q 966 3 703 97 
z
M 1959 2075 
Q 2384 2075 2632 2365 
Q 2881 2656 2881 3163 
Q 2881 3666 2632 3958 
Q 2384 4250 1959 4250 
Q 1534 4250 1286 3958 
Q 1038 3666 1038 3163 
Q 1038 2656 1286 2365 
Q 1534 2075 1959 2075 
z
" transform="scale(0.015625)"/>
     </defs>
     <use xlink:href="#DejaVuSans-45"/>
     <use xlink:href="#DejaVuSans-70" x="63.183594"/>
     <use xlink:href="#DejaVuSans-6f" x="126.660156"/>
     <use xlink:href="#DejaVuSans-63" x="187.841797"/>
     <use xlink:href="#DejaVuSans-68" x="242.822266"/>
     <use xlink:href="#DejaVuSans-3a" x="306.201172"/>
     <use xlink:href="#DejaVuSans-20" x="339.892578"/>
     <use xlink:href="#DejaVuSans-39" x="371.679688"/>
     <use xlink:href="#DejaVuSans-39" x="435.302734"/>
     <use xlink:href="#DejaVuSans-39" x="498.925781"/>
    </g>
   </g>
  </g>
 </g>
 <defs>
  <clipPath id="pbd6239f3e7">
   <rect x="57.6" y="41.472" width="357.12" height="266.112"/>
  </clipPath>
 </defs>
</svg>
