<?xml version="1.0" encoding="utf-8" standalone="no"?>
<!DOCTYPE svg PUBLIC "-//W3C//DTD SVG 1.1//EN"
  "http://www.w3.org/Graphics/SVG/1.1/DTD/svg11.dtd">
<svg xmlns:xlink="http://www.w3.org/1999/xlink" width="460.8pt" height="345.6pt" viewBox="0 0 460.8 345.6" xmlns="http://www.w3.org/2000/svg" version="1.1">
 <metadata>
  <rdf:RDF xmlns:dc="http://purl.org/dc/elements/1.1/" xmlns:cc="http://creativecommons.org/ns#" xmlns:rdf="http://www.w3.org/1999/02/22-rdf-syntax-ns#">
   <cc:Work>
    <dc:type rdf:resource="http://purl.org/dc/dcmitype/StillImage"/>
    <dc:date>2024-09-10T00:55:22.804767</dc:date>
    <dc:format>image/svg+xml</dc:format>
    <dc:creator>
     <cc:Agent>
      <dc:title>Matplotlib v3.8.4, https://matplotlib.org/</dc:title>
     </cc:Agent>
    </dc:creator>
   </cc:Work>
  </rdf:RDF>
 </metadata>
 <defs>
  <style type="text/css">*{stroke-linejoin: round; stroke-linecap: butt}</style>
 </defs>
 <g id="figure_1">
  <g id="patch_1">
   <path d="M 0 345.6 
L 460.8 345.6 
L 460.8 0 
L 0 0 
z
" style="fill: #ffffff"/>
  </g>
  <g id="axes_1">
   <g id="patch_2">
    <path d="M 57.6 307.584 
L 414.72 307.584 
L 414.72 41.472 
L 57.6 41.472 
z
" style="fill: #e5e5e5"/>
   </g>
   <g id="matplotlib.axis_1">
    <g id="xtick_1">
     <g id="line2d_1">
      <path d="M 73.832727 307.584 
L 73.832727 41.472 
" clip-path="url(#pf6c2ae507d)" style="fill: none; stroke: #ffffff; stroke-width: 0.8; stroke-linecap: square"/>
     </g>
     <g id="line2d_2">
      <defs>
       <path id="m6d86fd1fb8" d="M 0 0 
L 0 3.5 
" style="stroke: #555555; stroke-width: 0.8"/>
      </defs>
      <g>
       <use xlink:href="#m6d86fd1fb8" x="73.832727" y="307.584" style="fill: #555555; stroke: #555555; stroke-width: 0.8"/>
      </g>
     </g>
     <g id="text_1">
      <!-- 0 -->
      <g style="fill: #555555" transform="translate(70.651477 322.182437) scale(0.1 -0.1)">
       <defs>
        <path id="DejaVuSans-30" d="M 2034 4250 
Q 1547 4250 1301 3770 
Q 1056 3291 1056 2328 
Q 1056 1369 1301 889 
Q 1547 409 2034 409 
Q 2525 409 2770 889 
Q 3016 1369 3016 2328 
Q 3016 3291 2770 3770 
Q 2525 4250 2034 4250 
z
M 2034 4750 
Q 2819 4750 3233 4129 
Q 3647 3509 3647 2328 
Q 3647 1150 3233 529 
Q 2819 -91 2034 -91 
Q 1250 -91 836 529 
Q 422 1150 422 2328 
Q 422 3509 836 4129 
Q 1250 4750 2034 4750 
z
" transform="scale(0.015625)"/>
       </defs>
       <use xlink:href="#DejaVuSans-30"/>
      </g>
     </g>
    </g>
    <g id="xtick_2">
     <g id="line2d_3">
      <path d="M 127.977915 307.584 
L 127.977915 41.472 
" clip-path="url(#pf6c2ae507d)" style="fill: none; stroke: #ffffff; stroke-width: 0.8; stroke-linecap: square"/>
     </g>
     <g id="line2d_4">
      <g>
       <use xlink:href="#m6d86fd1fb8" x="127.977915" y="307.584" style="fill: #555555; stroke: #555555; stroke-width: 0.8"/>
      </g>
     </g>
     <g id="text_2">
      <!-- 500 -->
      <g style="fill: #555555" transform="translate(118.434165 322.182437) scale(0.1 -0.1)">
       <defs>
        <path id="DejaVuSans-35" d="M 691 4666 
L 3169 4666 
L 3169 4134 
L 1269 4134 
L 1269 2991 
Q 1406 3038 1543 3061 
Q 1681 3084 1819 3084 
Q 2600 3084 3056 2656 
Q 3513 2228 3513 1497 
Q 3513 744 3044 326 
Q 2575 -91 1722 -91 
Q 1428 -91 1123 -41 
Q 819 9 494 109 
L 494 744 
Q 775 591 1075 516 
Q 1375 441 1709 441 
Q 2250 441 2565 725 
Q 2881 1009 2881 1497 
Q 2881 1984 2565 2268 
Q 2250 2553 1709 2553 
Q 1456 2553 1204 2497 
Q 953 2441 691 2322 
L 691 4666 
z
" transform="scale(0.015625)"/>
       </defs>
       <use xlink:href="#DejaVuSans-35"/>
       <use xlink:href="#DejaVuSans-30" x="63.623047"/>
       <use xlink:href="#DejaVuSans-30" x="127.246094"/>
      </g>
     </g>
    </g>
    <g id="xtick_3">
     <g id="line2d_5">
      <path d="M 182.123103 307.584 
L 182.123103 41.472 
" clip-path="url(#pf6c2ae507d)" style="fill: none; stroke: #ffffff; stroke-width: 0.8; stroke-linecap: square"/>
     </g>
     <g id="line2d_6">
      <g>
       <use xlink:href="#m6d86fd1fb8" x="182.123103" y="307.584" style="fill: #555555; stroke: #555555; stroke-width: 0.8"/>
      </g>
     </g>
     <g id="text_3">
      <!-- 1000 -->
      <g style="fill: #555555" transform="translate(169.398103 322.182437) scale(0.1 -0.1)">
       <defs>
        <path id="DejaVuSans-31" d="M 794 531 
L 1825 531 
L 1825 4091 
L 703 3866 
L 703 4441 
L 1819 4666 
L 2450 4666 
L 2450 531 
L 3481 531 
L 3481 0 
L 794 0 
L 794 531 
z
" transform="scale(0.015625)"/>
       </defs>
       <use xlink:href="#DejaVuSans-31"/>
       <use xlink:href="#DejaVuSans-30" x="63.623047"/>
       <use xlink:href="#DejaVuSans-30" x="127.246094"/>
       <use xlink:href="#DejaVuSans-30" x="190.869141"/>
      </g>
     </g>
    </g>
    <g id="xtick_4">
     <g id="line2d_7">
      <path d="M 236.26829 307.584 
L 236.26829 41.472 
" clip-path="url(#pf6c2ae507d)" style="fill: none; stroke: #ffffff; stroke-width: 0.8; stroke-linecap: square"/>
     </g>
     <g id="line2d_8">
      <g>
       <use xlink:href="#m6d86fd1fb8" x="236.26829" y="307.584" style="fill: #555555; stroke: #555555; stroke-width: 0.8"/>
      </g>
     </g>
     <g id="text_4">
      <!-- 1500 -->
      <g style="fill: #555555" transform="translate(223.54329 322.182437) scale(0.1 -0.1)">
       <use xlink:href="#DejaVuSans-31"/>
       <use xlink:href="#DejaVuSans-35" x="63.623047"/>
       <use xlink:href="#DejaVuSans-30" x="127.246094"/>
       <use xlink:href="#DejaVuSans-30" x="190.869141"/>
      </g>
     </g>
    </g>
    <g id="xtick_5">
     <g id="line2d_9">
      <path d="M 290.413478 307.584 
L 290.413478 41.472 
" clip-path="url(#pf6c2ae507d)" style="fill: none; stroke: #ffffff; stroke-width: 0.8; stroke-linecap: square"/>
     </g>
     <g id="line2d_10">
      <g>
       <use xlink:href="#m6d86fd1fb8" x="290.413478" y="307.584" style="fill: #555555; stroke: #555555; stroke-width: 0.8"/>
      </g>
     </g>
     <g id="text_5">
      <!-- 2000 -->
      <g style="fill: #555555" transform="translate(277.688478 322.182437) scale(0.1 -0.1)">
       <defs>
        <path id="DejaVuSans-32" d="M 1228 531 
L 3431 531 
L 3431 0 
L 469 0 
L 469 531 
Q 828 903 1448 1529 
Q 2069 2156 2228 2338 
Q 2531 2678 2651 2914 
Q 2772 3150 2772 3378 
Q 2772 3750 2511 3984 
Q 2250 4219 1831 4219 
Q 1534 4219 1204 4116 
Q 875 4013 500 3803 
L 500 4441 
Q 881 4594 1212 4672 
Q 1544 4750 1819 4750 
Q 2544 4750 2975 4387 
Q 3406 4025 3406 3419 
Q 3406 3131 3298 2873 
Q 3191 2616 2906 2266 
Q 2828 2175 2409 1742 
Q 1991 1309 1228 531 
z
" transform="scale(0.015625)"/>
       </defs>
       <use xlink:href="#DejaVuSans-32"/>
       <use xlink:href="#DejaVuSans-30" x="63.623047"/>
       <use xlink:href="#DejaVuSans-30" x="127.246094"/>
       <use xlink:href="#DejaVuSans-30" x="190.869141"/>
      </g>
     </g>
    </g>
    <g id="xtick_6">
     <g id="line2d_11">
      <path d="M 344.558666 307.584 
L 344.558666 41.472 
" clip-path="url(#pf6c2ae507d)" style="fill: none; stroke: #ffffff; stroke-width: 0.8; stroke-linecap: square"/>
     </g>
     <g id="line2d_12">
      <g>
       <use xlink:href="#m6d86fd1fb8" x="344.558666" y="307.584" style="fill: #555555; stroke: #555555; stroke-width: 0.8"/>
      </g>
     </g>
     <g id="text_6">
      <!-- 2500 -->
      <g style="fill: #555555" transform="translate(331.833666 322.182437) scale(0.1 -0.1)">
       <use xlink:href="#DejaVuSans-32"/>
       <use xlink:href="#DejaVuSans-35" x="63.623047"/>
       <use xlink:href="#DejaVuSans-30" x="127.246094"/>
       <use xlink:href="#DejaVuSans-30" x="190.869141"/>
      </g>
     </g>
    </g>
    <g id="xtick_7">
     <g id="line2d_13">
      <path d="M 398.703853 307.584 
L 398.703853 41.472 
" clip-path="url(#pf6c2ae507d)" style="fill: none; stroke: #ffffff; stroke-width: 0.8; stroke-linecap: square"/>
     </g>
     <g id="line2d_14">
      <g>
       <use xlink:href="#m6d86fd1fb8" x="398.703853" y="307.584" style="fill: #555555; stroke: #555555; stroke-width: 0.8"/>
      </g>
     </g>
     <g id="text_7">
      <!-- 3000 -->
      <g style="fill: #555555" transform="translate(385.978853 322.182437) scale(0.1 -0.1)">
       <defs>
        <path id="DejaVuSans-33" d="M 2597 2516 
Q 3050 2419 3304 2112 
Q 3559 1806 3559 1356 
Q 3559 666 3084 287 
Q 2609 -91 1734 -91 
Q 1441 -91 1130 -33 
Q 819 25 488 141 
L 488 750 
Q 750 597 1062 519 
Q 1375 441 1716 441 
Q 2309 441 2620 675 
Q 2931 909 2931 1356 
Q 2931 1769 2642 2001 
Q 2353 2234 1838 2234 
L 1294 2234 
L 1294 2753 
L 1863 2753 
Q 2328 2753 2575 2939 
Q 2822 3125 2822 3475 
Q 2822 3834 2567 4026 
Q 2313 4219 1838 4219 
Q 1578 4219 1281 4162 
Q 984 4106 628 3988 
L 628 4550 
Q 988 4650 1302 4700 
Q 1616 4750 1894 4750 
Q 2613 4750 3031 4423 
Q 3450 4097 3450 3541 
Q 3450 3153 3228 2886 
Q 3006 2619 2597 2516 
z
" transform="scale(0.015625)"/>
       </defs>
       <use xlink:href="#DejaVuSans-33"/>
       <use xlink:href="#DejaVuSans-30" x="63.623047"/>
       <use xlink:href="#DejaVuSans-30" x="127.246094"/>
       <use xlink:href="#DejaVuSans-30" x="190.869141"/>
      </g>
     </g>
    </g>
    <g id="text_8">
     <!-- Number of Games -->
     <g style="fill: #555555" transform="translate(181.471875 337.38025) scale(0.12 -0.12)">
      <defs>
       <path id="DejaVuSans-4e" d="M 628 4666 
L 1478 4666 
L 3547 763 
L 3547 4666 
L 4159 4666 
L 4159 0 
L 3309 0 
L 1241 3903 
L 1241 0 
L 628 0 
L 628 4666 
z
" transform="scale(0.015625)"/>
       <path id="DejaVuSans-75" d="M 544 1381 
L 544 3500 
L 1119 3500 
L 1119 1403 
Q 1119 906 1312 657 
Q 1506 409 1894 409 
Q 2359 409 2629 706 
Q 2900 1003 2900 1516 
L 2900 3500 
L 3475 3500 
L 3475 0 
L 2900 0 
L 2900 538 
Q 2691 219 2414 64 
Q 2138 -91 1772 -91 
Q 1169 -91 856 284 
Q 544 659 544 1381 
z
M 1991 3584 
L 1991 3584 
z
" transform="scale(0.015625)"/>
       <path id="DejaVuSans-6d" d="M 3328 2828 
Q 3544 3216 3844 3400 
Q 4144 3584 4550 3584 
Q 5097 3584 5394 3201 
Q 5691 2819 5691 2113 
L 5691 0 
L 5113 0 
L 5113 2094 
Q 5113 2597 4934 2840 
Q 4756 3084 4391 3084 
Q 3944 3084 3684 2787 
Q 3425 2491 3425 1978 
L 3425 0 
L 2847 0 
L 2847 2094 
Q 2847 2600 2669 2842 
Q 2491 3084 2119 3084 
Q 1678 3084 1418 2786 
Q 1159 2488 1159 1978 
L 1159 0 
L 581 0 
L 581 3500 
L 1159 3500 
L 1159 2956 
Q 1356 3278 1631 3431 
Q 1906 3584 2284 3584 
Q 2666 3584 2933 3390 
Q 3200 3197 3328 2828 
z
" transform="scale(0.015625)"/>
       <path id="DejaVuSans-62" d="M 3116 1747 
Q 3116 2381 2855 2742 
Q 2594 3103 2138 3103 
Q 1681 3103 1420 2742 
Q 1159 2381 1159 1747 
Q 1159 1113 1420 752 
Q 1681 391 2138 391 
Q 2594 391 2855 752 
Q 3116 1113 3116 1747 
z
M 1159 2969 
Q 1341 3281 1617 3432 
Q 1894 3584 2278 3584 
Q 2916 3584 3314 3078 
Q 3713 2572 3713 1747 
Q 3713 922 3314 415 
Q 2916 -91 2278 -91 
Q 1894 -91 1617 61 
Q 1341 213 1159 525 
L 1159 0 
L 581 0 
L 581 4863 
L 1159 4863 
L 1159 2969 
z
" transform="scale(0.015625)"/>
       <path id="DejaVuSans-65" d="M 3597 1894 
L 3597 1613 
L 953 1613 
Q 991 1019 1311 708 
Q 1631 397 2203 397 
Q 2534 397 2845 478 
Q 3156 559 3463 722 
L 3463 178 
Q 3153 47 2828 -22 
Q 2503 -91 2169 -91 
Q 1331 -91 842 396 
Q 353 884 353 1716 
Q 353 2575 817 3079 
Q 1281 3584 2069 3584 
Q 2775 3584 3186 3129 
Q 3597 2675 3597 1894 
z
M 3022 2063 
Q 3016 2534 2758 2815 
Q 2500 3097 2075 3097 
Q 1594 3097 1305 2825 
Q 1016 2553 972 2059 
L 3022 2063 
z
" transform="scale(0.015625)"/>
       <path id="DejaVuSans-72" d="M 2631 2963 
Q 2534 3019 2420 3045 
Q 2306 3072 2169 3072 
Q 1681 3072 1420 2755 
Q 1159 2438 1159 1844 
L 1159 0 
L 581 0 
L 581 3500 
L 1159 3500 
L 1159 2956 
Q 1341 3275 1631 3429 
Q 1922 3584 2338 3584 
Q 2397 3584 2469 3576 
Q 2541 3569 2628 3553 
L 2631 2963 
z
" transform="scale(0.015625)"/>
       <path id="DejaVuSans-20" transform="scale(0.015625)"/>
       <path id="DejaVuSans-6f" d="M 1959 3097 
Q 1497 3097 1228 2736 
Q 959 2375 959 1747 
Q 959 1119 1226 758 
Q 1494 397 1959 397 
Q 2419 397 2687 759 
Q 2956 1122 2956 1747 
Q 2956 2369 2687 2733 
Q 2419 3097 1959 3097 
z
M 1959 3584 
Q 2709 3584 3137 3096 
Q 3566 2609 3566 1747 
Q 3566 888 3137 398 
Q 2709 -91 1959 -91 
Q 1206 -91 779 398 
Q 353 888 353 1747 
Q 353 2609 779 3096 
Q 1206 3584 1959 3584 
z
" transform="scale(0.015625)"/>
       <path id="DejaVuSans-66" d="M 2375 4863 
L 2375 4384 
L 1825 4384 
Q 1516 4384 1395 4259 
Q 1275 4134 1275 3809 
L 1275 3500 
L 2222 3500 
L 2222 3053 
L 1275 3053 
L 1275 0 
L 697 0 
L 697 3053 
L 147 3053 
L 147 3500 
L 697 3500 
L 697 3744 
Q 697 4328 969 4595 
Q 1241 4863 1831 4863 
L 2375 4863 
z
" transform="scale(0.015625)"/>
       <path id="DejaVuSans-47" d="M 3809 666 
L 3809 1919 
L 2778 1919 
L 2778 2438 
L 4434 2438 
L 4434 434 
Q 4069 175 3628 42 
Q 3188 -91 2688 -91 
Q 1594 -91 976 548 
Q 359 1188 359 2328 
Q 359 3472 976 4111 
Q 1594 4750 2688 4750 
Q 3144 4750 3555 4637 
Q 3966 4525 4313 4306 
L 4313 3634 
Q 3963 3931 3569 4081 
Q 3175 4231 2741 4231 
Q 1884 4231 1454 3753 
Q 1025 3275 1025 2328 
Q 1025 1384 1454 906 
Q 1884 428 2741 428 
Q 3075 428 3337 486 
Q 3600 544 3809 666 
z
" transform="scale(0.015625)"/>
       <path id="DejaVuSans-61" d="M 2194 1759 
Q 1497 1759 1228 1600 
Q 959 1441 959 1056 
Q 959 750 1161 570 
Q 1363 391 1709 391 
Q 2188 391 2477 730 
Q 2766 1069 2766 1631 
L 2766 1759 
L 2194 1759 
z
M 3341 1997 
L 3341 0 
L 2766 0 
L 2766 531 
Q 2569 213 2275 61 
Q 1981 -91 1556 -91 
Q 1019 -91 701 211 
Q 384 513 384 1019 
Q 384 1609 779 1909 
Q 1175 2209 1959 2209 
L 2766 2209 
L 2766 2266 
Q 2766 2663 2505 2880 
Q 2244 3097 1772 3097 
Q 1472 3097 1187 3025 
Q 903 2953 641 2809 
L 641 3341 
Q 956 3463 1253 3523 
Q 1550 3584 1831 3584 
Q 2591 3584 2966 3190 
Q 3341 2797 3341 1997 
z
" transform="scale(0.015625)"/>
       <path id="DejaVuSans-73" d="M 2834 3397 
L 2834 2853 
Q 2591 2978 2328 3040 
Q 2066 3103 1784 3103 
Q 1356 3103 1142 2972 
Q 928 2841 928 2578 
Q 928 2378 1081 2264 
Q 1234 2150 1697 2047 
L 1894 2003 
Q 2506 1872 2764 1633 
Q 3022 1394 3022 966 
Q 3022 478 2636 193 
Q 2250 -91 1575 -91 
Q 1294 -91 989 -36 
Q 684 19 347 128 
L 347 722 
Q 666 556 975 473 
Q 1284 391 1588 391 
Q 1994 391 2212 530 
Q 2431 669 2431 922 
Q 2431 1156 2273 1281 
Q 2116 1406 1581 1522 
L 1381 1569 
Q 847 1681 609 1914 
Q 372 2147 372 2553 
Q 372 3047 722 3315 
Q 1072 3584 1716 3584 
Q 2034 3584 2315 3537 
Q 2597 3491 2834 3397 
z
" transform="scale(0.015625)"/>
      </defs>
      <use xlink:href="#DejaVuSans-4e"/>
      <use xlink:href="#DejaVuSans-75" x="74.804688"/>
      <use xlink:href="#DejaVuSans-6d" x="138.183594"/>
      <use xlink:href="#DejaVuSans-62" x="235.595703"/>
      <use xlink:href="#DejaVuSans-65" x="299.072266"/>
      <use xlink:href="#DejaVuSans-72" x="360.595703"/>
      <use xlink:href="#DejaVuSans-20" x="401.708984"/>
      <use xlink:href="#DejaVuSans-6f" x="433.496094"/>
      <use xlink:href="#DejaVuSans-66" x="494.677734"/>
      <use xlink:href="#DejaVuSans-20" x="529.882812"/>
      <use xlink:href="#DejaVuSans-47" x="561.669922"/>
      <use xlink:href="#DejaVuSans-61" x="639.160156"/>
      <use xlink:href="#DejaVuSans-6d" x="700.439453"/>
      <use xlink:href="#DejaVuSans-65" x="797.851562"/>
      <use xlink:href="#DejaVuSans-73" x="859.375"/>
     </g>
    </g>
   </g>
   <g id="matplotlib.axis_2">
    <g id="ytick_1">
     <g id="line2d_15">
      <path d="M 57.6 307.584 
L 414.72 307.584 
" clip-path="url(#pf6c2ae507d)" style="fill: none; stroke: #ffffff; stroke-width: 0.8; stroke-linecap: square"/>
     </g>
     <g id="line2d_16">
      <defs>
       <path id="mf7f3dc3dca" d="M 0 0 
L -3.5 0 
" style="stroke: #555555; stroke-width: 0.8"/>
      </defs>
      <g>
       <use xlink:href="#mf7f3dc3dca" x="57.6" y="307.584" style="fill: #555555; stroke: #555555; stroke-width: 0.8"/>
      </g>
     </g>
     <g id="text_9">
      <!-- 0 -->
      <g style="fill: #555555" transform="translate(44.2375 311.383219) scale(0.1 -0.1)">
       <use xlink:href="#DejaVuSans-30"/>
      </g>
     </g>
    </g>
    <g id="ytick_2">
     <g id="line2d_17">
      <path d="M 57.6 262.471327 
L 414.72 262.471327 
" clip-path="url(#pf6c2ae507d)" style="fill: none; stroke: #ffffff; stroke-width: 0.8; stroke-linecap: square"/>
     </g>
     <g id="line2d_18">
      <g>
       <use xlink:href="#mf7f3dc3dca" x="57.6" y="262.471327" style="fill: #555555; stroke: #555555; stroke-width: 0.8"/>
      </g>
     </g>
     <g id="text_10">
      <!-- 200 -->
      <g style="fill: #555555" transform="translate(31.5125 266.270546) scale(0.1 -0.1)">
       <use xlink:href="#DejaVuSans-32"/>
       <use xlink:href="#DejaVuSans-30" x="63.623047"/>
       <use xlink:href="#DejaVuSans-30" x="127.246094"/>
      </g>
     </g>
    </g>
    <g id="ytick_3">
     <g id="line2d_19">
      <path d="M 57.6 217.358655 
L 414.72 217.358655 
" clip-path="url(#pf6c2ae507d)" style="fill: none; stroke: #ffffff; stroke-width: 0.8; stroke-linecap: square"/>
     </g>
     <g id="line2d_20">
      <g>
       <use xlink:href="#mf7f3dc3dca" x="57.6" y="217.358655" style="fill: #555555; stroke: #555555; stroke-width: 0.8"/>
      </g>
     </g>
     <g id="text_11">
      <!-- 400 -->
      <g style="fill: #555555" transform="translate(31.5125 221.157873) scale(0.1 -0.1)">
       <defs>
        <path id="DejaVuSans-34" d="M 2419 4116 
L 825 1625 
L 2419 1625 
L 2419 4116 
z
M 2253 4666 
L 3047 4666 
L 3047 1625 
L 3713 1625 
L 3713 1100 
L 3047 1100 
L 3047 0 
L 2419 0 
L 2419 1100 
L 313 1100 
L 313 1709 
L 2253 4666 
z
" transform="scale(0.015625)"/>
       </defs>
       <use xlink:href="#DejaVuSans-34"/>
       <use xlink:href="#DejaVuSans-30" x="63.623047"/>
       <use xlink:href="#DejaVuSans-30" x="127.246094"/>
      </g>
     </g>
    </g>
    <g id="ytick_4">
     <g id="line2d_21">
      <path d="M 57.6 172.245982 
L 414.72 172.245982 
" clip-path="url(#pf6c2ae507d)" style="fill: none; stroke: #ffffff; stroke-width: 0.8; stroke-linecap: square"/>
     </g>
     <g id="line2d_22">
      <g>
       <use xlink:href="#mf7f3dc3dca" x="57.6" y="172.245982" style="fill: #555555; stroke: #555555; stroke-width: 0.8"/>
      </g>
     </g>
     <g id="text_12">
      <!-- 600 -->
      <g style="fill: #555555" transform="translate(31.5125 176.045201) scale(0.1 -0.1)">
       <defs>
        <path id="DejaVuSans-36" d="M 2113 2584 
Q 1688 2584 1439 2293 
Q 1191 2003 1191 1497 
Q 1191 994 1439 701 
Q 1688 409 2113 409 
Q 2538 409 2786 701 
Q 3034 994 3034 1497 
Q 3034 2003 2786 2293 
Q 2538 2584 2113 2584 
z
M 3366 4563 
L 3366 3988 
Q 3128 4100 2886 4159 
Q 2644 4219 2406 4219 
Q 1781 4219 1451 3797 
Q 1122 3375 1075 2522 
Q 1259 2794 1537 2939 
Q 1816 3084 2150 3084 
Q 2853 3084 3261 2657 
Q 3669 2231 3669 1497 
Q 3669 778 3244 343 
Q 2819 -91 2113 -91 
Q 1303 -91 875 529 
Q 447 1150 447 2328 
Q 447 3434 972 4092 
Q 1497 4750 2381 4750 
Q 2619 4750 2861 4703 
Q 3103 4656 3366 4563 
z
" transform="scale(0.015625)"/>
       </defs>
       <use xlink:href="#DejaVuSans-36"/>
       <use xlink:href="#DejaVuSans-30" x="63.623047"/>
       <use xlink:href="#DejaVuSans-30" x="127.246094"/>
      </g>
     </g>
    </g>
    <g id="ytick_5">
     <g id="line2d_23">
      <path d="M 57.6 127.133309 
L 414.72 127.133309 
" clip-path="url(#pf6c2ae507d)" style="fill: none; stroke: #ffffff; stroke-width: 0.8; stroke-linecap: square"/>
     </g>
     <g id="line2d_24">
      <g>
       <use xlink:href="#mf7f3dc3dca" x="57.6" y="127.133309" style="fill: #555555; stroke: #555555; stroke-width: 0.8"/>
      </g>
     </g>
     <g id="text_13">
      <!-- 800 -->
      <g style="fill: #555555" transform="translate(31.5125 130.932528) scale(0.1 -0.1)">
       <defs>
        <path id="DejaVuSans-38" d="M 2034 2216 
Q 1584 2216 1326 1975 
Q 1069 1734 1069 1313 
Q 1069 891 1326 650 
Q 1584 409 2034 409 
Q 2484 409 2743 651 
Q 3003 894 3003 1313 
Q 3003 1734 2745 1975 
Q 2488 2216 2034 2216 
z
M 1403 2484 
Q 997 2584 770 2862 
Q 544 3141 544 3541 
Q 544 4100 942 4425 
Q 1341 4750 2034 4750 
Q 2731 4750 3128 4425 
Q 3525 4100 3525 3541 
Q 3525 3141 3298 2862 
Q 3072 2584 2669 2484 
Q 3125 2378 3379 2068 
Q 3634 1759 3634 1313 
Q 3634 634 3220 271 
Q 2806 -91 2034 -91 
Q 1263 -91 848 271 
Q 434 634 434 1313 
Q 434 1759 690 2068 
Q 947 2378 1403 2484 
z
M 1172 3481 
Q 1172 3119 1398 2916 
Q 1625 2713 2034 2713 
Q 2441 2713 2670 2916 
Q 2900 3119 2900 3481 
Q 2900 3844 2670 4047 
Q 2441 4250 2034 4250 
Q 1625 4250 1398 4047 
Q 1172 3844 1172 3481 
z
" transform="scale(0.015625)"/>
       </defs>
       <use xlink:href="#DejaVuSans-38"/>
       <use xlink:href="#DejaVuSans-30" x="63.623047"/>
       <use xlink:href="#DejaVuSans-30" x="127.246094"/>
      </g>
     </g>
    </g>
    <g id="ytick_6">
     <g id="line2d_25">
      <path d="M 57.6 82.020637 
L 414.72 82.020637 
" clip-path="url(#pf6c2ae507d)" style="fill: none; stroke: #ffffff; stroke-width: 0.8; stroke-linecap: square"/>
     </g>
     <g id="line2d_26">
      <g>
       <use xlink:href="#mf7f3dc3dca" x="57.6" y="82.020637" style="fill: #555555; stroke: #555555; stroke-width: 0.8"/>
      </g>
     </g>
     <g id="text_14">
      <!-- 1000 -->
      <g style="fill: #555555" transform="translate(25.15 85.819855) scale(0.1 -0.1)">
       <use xlink:href="#DejaVuSans-31"/>
       <use xlink:href="#DejaVuSans-30" x="63.623047"/>
       <use xlink:href="#DejaVuSans-30" x="127.246094"/>
       <use xlink:href="#DejaVuSans-30" x="190.869141"/>
      </g>
     </g>
    </g>
    <g id="text_15">
     <!-- Median reward -->
     <g style="fill: #555555" transform="translate(18.654375 219.03675) rotate(-90) scale(0.12 -0.12)">
      <defs>
       <path id="DejaVuSans-4d" d="M 628 4666 
L 1569 4666 
L 2759 1491 
L 3956 4666 
L 4897 4666 
L 4897 0 
L 4281 0 
L 4281 4097 
L 3078 897 
L 2444 897 
L 1241 4097 
L 1241 0 
L 628 0 
L 628 4666 
z
" transform="scale(0.015625)"/>
       <path id="DejaVuSans-64" d="M 2906 2969 
L 2906 4863 
L 3481 4863 
L 3481 0 
L 2906 0 
L 2906 525 
Q 2725 213 2448 61 
Q 2172 -91 1784 -91 
Q 1150 -91 751 415 
Q 353 922 353 1747 
Q 353 2572 751 3078 
Q 1150 3584 1784 3584 
Q 2172 3584 2448 3432 
Q 2725 3281 2906 2969 
z
M 947 1747 
Q 947 1113 1208 752 
Q 1469 391 1925 391 
Q 2381 391 2643 752 
Q 2906 1113 2906 1747 
Q 2906 2381 2643 2742 
Q 2381 3103 1925 3103 
Q 1469 3103 1208 2742 
Q 947 2381 947 1747 
z
" transform="scale(0.015625)"/>
       <path id="DejaVuSans-69" d="M 603 3500 
L 1178 3500 
L 1178 0 
L 603 0 
L 603 3500 
z
M 603 4863 
L 1178 4863 
L 1178 4134 
L 603 4134 
L 603 4863 
z
" transform="scale(0.015625)"/>
       <path id="DejaVuSans-6e" d="M 3513 2113 
L 3513 0 
L 2938 0 
L 2938 2094 
Q 2938 2591 2744 2837 
Q 2550 3084 2163 3084 
Q 1697 3084 1428 2787 
Q 1159 2491 1159 1978 
L 1159 0 
L 581 0 
L 581 3500 
L 1159 3500 
L 1159 2956 
Q 1366 3272 1645 3428 
Q 1925 3584 2291 3584 
Q 2894 3584 3203 3211 
Q 3513 2838 3513 2113 
z
" transform="scale(0.015625)"/>
       <path id="DejaVuSans-77" d="M 269 3500 
L 844 3500 
L 1563 769 
L 2278 3500 
L 2956 3500 
L 3675 769 
L 4391 3500 
L 4966 3500 
L 4050 0 
L 3372 0 
L 2619 2869 
L 1863 0 
L 1184 0 
L 269 3500 
z
" transform="scale(0.015625)"/>
      </defs>
      <use xlink:href="#DejaVuSans-4d"/>
      <use xlink:href="#DejaVuSans-65" x="86.279297"/>
      <use xlink:href="#DejaVuSans-64" x="147.802734"/>
      <use xlink:href="#DejaVuSans-69" x="211.279297"/>
      <use xlink:href="#DejaVuSans-61" x="239.0625"/>
      <use xlink:href="#DejaVuSans-6e" x="300.341797"/>
      <use xlink:href="#DejaVuSans-20" x="363.720703"/>
      <use xlink:href="#DejaVuSans-72" x="395.507812"/>
      <use xlink:href="#DejaVuSans-65" x="434.371094"/>
      <use xlink:href="#DejaVuSans-77" x="495.894531"/>
      <use xlink:href="#DejaVuSans-61" x="577.681641"/>
      <use xlink:href="#DejaVuSans-72" x="638.960938"/>
      <use xlink:href="#DejaVuSans-64" x="678.324219"/>
     </g>
    </g>
   </g>
   <g id="line2d_27">
    <path d="M 73.832727 303.749423 
L 74.049308 303.674235 
L 74.374179 303.787017 
L 74.59076 303.777618 
L 74.69905 303.72436 
L 74.915631 303.892963 
L 75.673664 303.661704 
L 77.5146 303.846093 
L 78.597504 303.919848 
L 79.138956 303.925362 
L 79.788698 303.902484 
L 96.357125 303.991175 
L 99.280965 303.983588 
L 105.020355 303.972645 
L 121.047331 303.864527 
L 181.798232 302.740716 
L 182.989426 302.709462 
L 199.232982 302.055265 
L 200.965628 301.981966 
L 203.348016 301.891776 
L 212.336117 301.383651 
L 214.718506 301.2412 
L 218.94183 301.058137 
L 229.879158 300.15042 
L 236.701452 299.502837 
L 238.000936 299.314582 
L 238.325808 299.247653 
L 241.574519 298.909997 
L 242.657423 298.721962 
L 243.523746 298.600306 
L 243.740326 298.508595 
L 244.498359 298.429303 
L 246.555876 298.235416 
L 247.097328 298.066522 
L 247.963651 297.987534 
L 248.613393 297.962012 
L 248.829974 297.808193 
L 249.154845 297.688869 
L 249.804587 297.54213 
L 250.887491 297.460948 
L 251.862104 297.305441 
L 253.053299 297.105383 
L 253.48646 296.97763 
L 257.060042 296.436533 
L 257.276623 296.331649 
L 257.818075 296.294686 
L 258.792688 296.241027 
L 259.33414 295.981568 
L 259.767302 295.846696 
L 260.092173 295.718397 
L 261.391657 295.61925 
L 261.824819 295.436692 
L 263.449175 295.118663 
L 263.665755 294.96454 
L 265.831563 294.6862 
L 266.373015 294.501959 
L 266.806176 294.420613 
L 267.564209 294.322764 
L 268.213951 294.196262 
L 269.080274 293.721481 
L 269.405145 293.543523 
L 270.70463 293.396449 
L 271.246082 293.322311 
L 271.787534 292.817184 
L 272.220695 292.463625 
L 273.195308 292.240426 
L 273.73676 291.794687 
L 274.061631 291.707144 
L 274.278212 291.512245 
L 274.494793 291.375557 
L 275.469406 290.969557 
L 275.685987 290.86147 
L 276.010858 290.586207 
L 276.55231 290.43432 
L 276.768891 290.322929 
L 277.310343 290.172788 
L 277.526923 289.983586 
L 278.284956 289.236229 
L 279.584441 289.182016 
L 279.909312 288.644733 
L 280.125892 288.468038 
L 280.342473 288.168882 
L 280.775635 287.942174 
L 281.100506 287.666225 
L 281.317087 287.19046 
L 281.858538 286.902938 
L 282.39999 286.89737 
L 282.833152 286.843969 
L 282.941442 286.765973 
L 283.266313 286.253516 
L 283.699475 285.769847 
L 284.457507 285.60722 
L 284.674088 285.529507 
L 284.890669 285.301116 
L 285.10725 284.958331 
L 285.32383 283.836703 
L 285.973573 282.783769 
L 287.056476 282.594213 
L 287.273057 282.253189 
L 287.381348 282.039778 
L 287.597928 280.973576 
L 287.706219 280.935789 
L 287.922799 280.59816 
L 288.13938 280.519017 
L 288.680832 280.491965 
L 289.222284 280.028998 
L 289.330574 279.969198 
L 289.547155 279.631233 
L 290.088607 279.435318 
L 290.521768 278.604854 
L 290.84664 277.257034 
L 291.171511 276.818865 
L 292.037834 276.84137 
L 292.470995 275.224367 
L 292.687576 274.696148 
L 293.229028 273.775535 
L 293.553899 273.748718 
L 293.662189 273.750495 
L 294.420222 270.598249 
L 294.636803 268.531684 
L 294.853383 267.843093 
L 294.961674 267.786585 
L 295.286545 267.412223 
L 296.152868 267.383645 
L 296.261158 267.140654 
L 296.69432 265.271315 
L 297.019191 264.624353 
L 297.127481 264.523265 
L 297.560643 263.169188 
L 297.885514 263.14039 
L 298.102095 263.078999 
L 298.318675 262.505477 
L 298.751837 262.481965 
L 298.860127 262.491725 
L 299.076708 262.041445 
L 299.184998 261.977298 
L 299.50987 261.497997 
L 299.61816 261.387953 
L 299.943031 256.710769 
L 300.592773 255.032904 
L 302.43371 255.16583 
L 302.758581 254.942737 
L 303.300033 254.707692 
L 303.624904 254.637702 
L 304.491227 254.781003 
L 304.707808 253.977857 
L 305.140969 251.727566 
L 305.46584 250.395677 
L 306.007292 243.886904 
L 306.115583 243.888732 
L 306.332163 241.93141 
L 306.440454 241.953773 
L 306.657034 238.508549 
L 306.765325 238.527126 
L 306.873615 237.988954 
L 307.090196 236.291742 
L 307.523357 236.324574 
L 308.1731 236.374011 
L 308.38968 236.140578 
L 308.822842 234.533575 
L 308.931132 234.5616 
L 309.147713 234.238659 
L 309.905746 234.255119 
L 310.014036 234.214502 
L 310.230617 233.901311 
L 310.338907 233.870512 
L 310.663778 233.329737 
L 311.09694 231.251485 
L 311.20523 231.118843 
L 311.421811 229.605255 
L 311.638392 229.144315 
L 312.288134 229.217267 
L 312.504715 229.260114 
L 312.937876 228.769159 
L 313.046167 228.666013 
L 313.371038 228.028322 
L 313.479328 227.879647 
L 313.695909 227.338307 
L 314.02078 226.456817 
L 314.237361 226.213515 
L 314.453941 226.168106 
L 314.778813 226.056625 
L 315.970007 225.846774 
L 316.403168 225.5967 
L 316.619749 225.441828 
L 316.94462 224.654615 
L 317.269491 224.050736 
L 317.486072 223.521815 
L 317.702653 223.287677 
L 318.027524 223.121419 
L 318.568976 222.500821 
L 318.785556 221.896535 
L 319.543589 219.647378 
L 319.76017 217.139048 
L 319.976751 216.069055 
L 320.301622 215.593872 
L 320.409912 215.624352 
L 320.843074 214.566789 
L 321.059654 213.675572 
L 321.276235 210.345173 
L 321.601106 208.450134 
L 321.817687 205.975434 
L 322.142558 205.485605 
L 322.250848 205.178037 
L 322.467429 205.227824 
L 322.68401 205.004572 
L 322.7923 205.030146 
L 322.900591 204.516639 
L 323.117171 202.966282 
L 323.550333 202.347007 
L 323.983494 200.996478 
L 324.308366 201.064772 
L 325.282979 201.317342 
L 325.49956 200.609532 
L 325.60785 200.562136 
L 326.149302 197.443664 
L 326.365883 196.997718 
L 326.474173 196.977546 
L 326.690754 196.664375 
L 326.907335 196.507743 
L 327.448786 196.079356 
L 328.206819 195.907771 
L 328.639981 195.558828 
L 328.748271 195.486192 
L 328.964852 195.171239 
L 329.289723 194.67195 
L 329.831175 193.901686 
L 330.372627 193.081184 
L 330.914078 192.454275 
L 331.022369 192.348842 
L 331.130659 191.417065 
L 331.23895 191.445237 
L 331.45553 191.291491 
L 331.672111 189.180753 
L 331.888692 188.649567 
L 332.971596 187.872416 
L 333.188176 187.830942 
L 334.054499 186.703993 
L 334.27108 186.051941 
L 334.595951 185.559183 
L 334.704242 185.519778 
L 334.812532 185.217326 
L 334.920822 185.25057 
L 335.137403 185.044881 
L 335.353984 184.580171 
L 335.570565 184.415769 
L 335.895436 184.039937 
L 336.761759 180.662216 
L 336.870049 180.310568 
L 337.19492 178.35492 
L 337.303211 178.012305 
L 337.519791 176.733267 
L 337.952953 174.17196 
L 338.061243 174.210536 
L 338.277824 174.179752 
L 338.602695 173.681067 
L 338.927566 173.601481 
L 339.252437 172.884404 
L 339.469018 172.875519 
L 339.577309 172.890239 
L 339.90218 171.340058 
L 340.01047 171.373724 
L 340.335341 170.36076 
L 340.876793 167.628745 
L 340.985083 167.680243 
L 341.093374 167.341692 
L 341.309955 167.29153 
L 341.526535 167.224666 
L 341.743116 166.456887 
L 342.284568 164.241575 
L 342.392858 164.211617 
L 342.609439 163.194014 
L 342.717729 163.219452 
L 342.93431 162.788744 
L 343.150891 162.264985 
L 343.367472 161.812182 
L 343.584052 161.511266 
L 343.692343 161.323305 
L 343.800633 161.363409 
L 343.908924 161.193287 
L 344.017214 161.232146 
L 344.342085 160.512174 
L 344.450375 160.064929 
L 344.666956 158.954242 
L 344.883537 158.819827 
L 345.100118 158.120099 
L 345.74986 157.63393 
L 346.074731 156.941127 
L 346.507893 156.636621 
L 346.724473 155.606635 
L 346.941054 155.023866 
L 347.265925 154.966096 
L 347.482506 154.555319 
L 347.807377 153.1345 
L 348.132248 152.550135 
L 348.348829 151.053432 
L 348.56541 149.491989 
L 348.998571 148.287994 
L 349.323442 145.448966 
L 349.540023 144.266383 
L 349.648313 144.155819 
L 350.406346 141.494412 
L 350.514636 141.444052 
L 351.056088 140.168335 
L 351.272669 139.189112 
L 351.48925 136.790675 
L 351.922411 135.692337 
L 352.247282 135.647274 
L 352.463863 134.906132 
L 353.005315 135.075519 
L 353.221896 134.321536 
L 353.330186 134.37772 
L 353.438477 133.893661 
L 353.546767 133.925263 
L 353.655057 133.694018 
L 353.763348 133.727418 
L 353.979928 133.441849 
L 354.196509 133.332296 
L 354.41309 133.429242 
L 354.52138 133.307987 
L 354.629671 133.368562 
L 354.954542 133.152733 
L 355.171123 132.618257 
L 355.387703 132.165341 
L 355.604284 131.906189 
L 355.929155 130.899854 
L 356.145736 130.902241 
L 356.578897 130.365636 
L 356.795478 129.93473 
L 357.22864 128.994767 
L 357.33693 128.949185 
L 357.661801 128.275837 
L 357.986672 127.105554 
L 358.419834 126.957938 
L 358.528124 126.738188 
L 358.744705 126.167723 
L 358.852995 126.199959 
L 360.15248 124.760758 
L 360.477351 124.381147 
L 360.802222 124.119133 
L 361.776835 122.976414 
L 361.885126 122.552618 
L 362.101707 121.329817 
L 362.318287 120.765821 
L 362.643158 118.817055 
L 363.07632 116.488525 
L 363.18461 116.296479 
L 363.509481 113.941477 
L 363.617772 114.008504 
L 363.834353 113.635544 
L 363.942643 113.684262 
L 364.050933 113.272563 
L 364.159224 113.338453 
L 364.484095 113.152077 
L 364.700676 113.199504 
L 365.025547 112.509089 
L 365.242127 112.535623 
L 365.458708 111.825561 
L 365.675289 111.729574 
L 366.649902 106.076031 
L 366.758193 106.102818 
L 367.624516 105.036826 
L 367.732806 105.010071 
L 368.057677 104.392406 
L 368.382548 104.303329 
L 368.81571 103.570919 
L 368.924 103.596029 
L 369.248871 103.294923 
L 369.573742 103.133434 
L 369.790323 102.803982 
L 369.898614 102.800177 
L 370.115194 102.538991 
L 370.440065 102.347518 
L 370.656646 102.110254 
L 370.981517 101.916969 
L 371.198098 101.797461 
L 371.414679 101.73581 
L 371.522969 101.658019 
L 371.63126 101.414166 
L 371.73955 101.473182 
L 372.064421 101.007996 
L 372.172712 100.983592 
L 372.389292 100.715652 
L 372.822454 100.416628 
L 373.039035 98.945723 
L 373.363906 98.983295 
L 373.580486 98.862131 
L 373.688777 98.510214 
L 373.905358 97.608839 
L 374.338519 96.110303 
L 374.5551 95.854621 
L 374.66339 95.456226 
L 374.771681 95.513707 
L 374.879971 95.297729 
L 375.529713 91.282332 
L 375.854584 90.518797 
L 376.071165 90.638094 
L 376.179455 89.994661 
L 376.287746 90.046624 
L 376.504327 89.715284 
L 376.720907 89.740095 
L 376.937488 89.529641 
L 377.045778 89.559816 
L 377.262359 87.926969 
L 377.37065 87.819642 
L 377.695521 85.651106 
L 377.803811 85.483452 
L 378.020392 84.875498 
L 378.236973 84.626006 
L 378.453553 84.147537 
L 378.561844 84.047422 
L 378.778424 82.937383 
L 378.886715 82.918808 
L 379.103296 82.339065 
L 379.428167 81.735387 
L 380.186199 81.206696 
L 380.29449 80.994965 
L 380.51107 80.011188 
L 380.619361 79.903971 
L 380.835942 79.058885 
L 381.052522 78.603725 
L 381.269103 78.179309 
L 381.593974 77.810464 
L 381.702265 77.646262 
L 382.568588 74.849826 
L 382.676878 74.797786 
L 383.001749 74.244308 
L 383.110039 74.226582 
L 383.32662 73.815069 
L 383.651491 73.174644 
L 383.759782 73.113287 
L 383.868072 73.180349 
L 384.084653 73.036352 
L 384.409524 73.024755 
L 384.626105 72.919693 
L 384.734395 72.883828 
L 385.492428 71.126608 
L 385.600718 70.393785 
L 385.925589 70.540846 
L 386.467041 69.080188 
L 386.791912 69.184201 
L 386.900203 69.054019 
L 387.116783 69.114811 
L 387.225074 68.954713 
L 387.333364 69.001129 
L 387.549945 68.419275 
L 387.766526 68.496246 
L 387.874816 68.462187 
L 388.091397 66.378443 
L 388.199687 66.282155 
L 388.741139 63.896865 
L 389.06601 63.679981 
L 389.499172 63.328659 
L 390.040623 63.512163 
L 390.257204 63.355905 
L 390.473785 63.509635 
L 390.798656 62.643064 
L 391.015237 61.887374 
L 391.123527 61.772111 
L 391.340108 60.963109 
L 391.556689 60.427729 
L 391.98985 60.315363 
L 392.098141 60.258145 
L 392.206431 60.326979 
L 392.531302 60.131107 
L 392.964464 60.056902 
L 393.289335 60.056452 
L 393.614206 59.627555 
L 393.830787 59.651558 
L 393.939077 59.513578 
L 394.155658 58.491153 
L 394.263948 58.43753 
L 394.69711 57.568853 
L 394.91369 57.280458 
L 395.346852 57.337245 
L 395.563433 56.801484 
L 396.104884 56.379985 
L 396.429756 55.921669 
L 396.971207 55.743072 
L 397.187788 55.606691 
L 397.296079 55.605038 
L 397.72924 55.124317 
L 397.945821 55.162097 
L 398.162402 54.87383 
L 398.378982 54.140764 
L 398.487273 53.973536 
L 398.487273 53.973536 
" clip-path="url(#pf6c2ae507d)" style="fill: none; stroke: #d62728; stroke-width: 1.5; stroke-linecap: square"/>
   </g>
   <g id="patch_3">
    <path d="M 57.6 307.584 
L 57.6 41.472 
" style="fill: none; stroke: #ffffff; stroke-linejoin: miter; stroke-linecap: square"/>
   </g>
   <g id="patch_4">
    <path d="M 414.72 307.584 
L 414.72 41.472 
" style="fill: none; stroke: #ffffff; stroke-linejoin: miter; stroke-linecap: square"/>
   </g>
   <g id="patch_5">
    <path d="M 57.6 307.584 
L 414.72 307.584 
" style="fill: none; stroke: #ffffff; stroke-linejoin: miter; stroke-linecap: square"/>
   </g>
   <g id="patch_6">
    <path d="M 57.6 41.472 
L 414.72 41.472 
" style="fill: none; stroke: #ffffff; stroke-linejoin: miter; stroke-linecap: square"/>
   </g>
   <g id="text_16">
    <!-- 1124.3424474824942 -->
    <g transform="translate(398.487273 53.973536) scale(0.1 -0.1)">
     <defs>
      <path id="DejaVuSans-2e" d="M 684 794 
L 1344 794 
L 1344 0 
L 684 0 
L 684 794 
z
" transform="scale(0.015625)"/>
      <path id="DejaVuSans-37" d="M 525 4666 
L 3525 4666 
L 3525 4397 
L 1831 0 
L 1172 0 
L 2766 4134 
L 525 4134 
L 525 4666 
z
" transform="scale(0.015625)"/>
      <path id="DejaVuSans-39" d="M 703 97 
L 703 672 
Q 941 559 1184 500 
Q 1428 441 1663 441 
Q 2288 441 2617 861 
Q 2947 1281 2994 2138 
Q 2813 1869 2534 1725 
Q 2256 1581 1919 1581 
Q 1219 1581 811 2004 
Q 403 2428 403 3163 
Q 403 3881 828 4315 
Q 1253 4750 1959 4750 
Q 2769 4750 3195 4129 
Q 3622 3509 3622 2328 
Q 3622 1225 3098 567 
Q 2575 -91 1691 -91 
Q 1453 -91 1209 -44 
Q 966 3 703 97 
z
M 1959 2075 
Q 2384 2075 2632 2365 
Q 2881 2656 2881 3163 
Q 2881 3666 2632 3958 
Q 2384 4250 1959 4250 
Q 1534 4250 1286 3958 
Q 1038 3666 1038 3163 
Q 1038 2656 1286 2365 
Q 1534 2075 1959 2075 
z
" transform="scale(0.015625)"/>
     </defs>
     <use xlink:href="#DejaVuSans-31"/>
     <use xlink:href="#DejaVuSans-31" x="63.623047"/>
     <use xlink:href="#DejaVuSans-32" x="127.246094"/>
     <use xlink:href="#DejaVuSans-34" x="190.869141"/>
     <use xlink:href="#DejaVuSans-2e" x="254.492188"/>
     <use xlink:href="#DejaVuSans-33" x="286.279297"/>
     <use xlink:href="#DejaVuSans-34" x="349.902344"/>
     <use xlink:href="#DejaVuSans-32" x="413.525391"/>
     <use xlink:href="#DejaVuSans-34" x="477.148438"/>
     <use xlink:href="#DejaVuSans-34" x="540.771484"/>
     <use xlink:href="#DejaVuSans-37" x="604.394531"/>
     <use xlink:href="#DejaVuSans-34" x="668.017578"/>
     <use xlink:href="#DejaVuSans-38" x="731.640625"/>
     <use xlink:href="#DejaVuSans-32" x="795.263672"/>
     <use xlink:href="#DejaVuSans-34" x="858.886719"/>
     <use xlink:href="#DejaVuSans-39" x="922.509766"/>
     <use xlink:href="#DejaVuSans-34" x="986.132812"/>
     <use xlink:href="#DejaVuSans-32" x="1049.755859"/>
    </g>
   </g>
   <g id="text_17">
    <!-- Epoch: 3000 -->
    <g transform="translate(191.0745 35.472) scale(0.144 -0.144)">
     <defs>
      <path id="DejaVuSans-45" d="M 628 4666 
L 3578 4666 
L 3578 4134 
L 1259 4134 
L 1259 2753 
L 3481 2753 
L 3481 2222 
L 1259 2222 
L 1259 531 
L 3634 531 
L 3634 0 
L 628 0 
L 628 4666 
z
" transform="scale(0.015625)"/>
      <path id="DejaVuSans-70" d="M 1159 525 
L 1159 -1331 
L 581 -1331 
L 581 3500 
L 1159 3500 
L 1159 2969 
Q 1341 3281 1617 3432 
Q 1894 3584 2278 3584 
Q 2916 3584 3314 3078 
Q 3713 2572 3713 1747 
Q 3713 922 3314 415 
Q 2916 -91 2278 -91 
Q 1894 -91 1617 61 
Q 1341 213 1159 525 
z
M 3116 1747 
Q 3116 2381 2855 2742 
Q 2594 3103 2138 3103 
Q 1681 3103 1420 2742 
Q 1159 2381 1159 1747 
Q 1159 1113 1420 752 
Q 1681 391 2138 391 
Q 2594 391 2855 752 
Q 3116 1113 3116 1747 
z
" transform="scale(0.015625)"/>
      <path id="DejaVuSans-63" d="M 3122 3366 
L 3122 2828 
Q 2878 2963 2633 3030 
Q 2388 3097 2138 3097 
Q 1578 3097 1268 2742 
Q 959 2388 959 1747 
Q 959 1106 1268 751 
Q 1578 397 2138 397 
Q 2388 397 2633 464 
Q 2878 531 3122 666 
L 3122 134 
Q 2881 22 2623 -34 
Q 2366 -91 2075 -91 
Q 1284 -91 818 406 
Q 353 903 353 1747 
Q 353 2603 823 3093 
Q 1294 3584 2113 3584 
Q 2378 3584 2631 3529 
Q 2884 3475 3122 3366 
z
" transform="scale(0.015625)"/>
      <path id="DejaVuSans-68" d="M 3513 2113 
L 3513 0 
L 2938 0 
L 2938 2094 
Q 2938 2591 2744 2837 
Q 2550 3084 2163 3084 
Q 1697 3084 1428 2787 
Q 1159 2491 1159 1978 
L 1159 0 
L 581 0 
L 581 4863 
L 1159 4863 
L 1159 2956 
Q 1366 3272 1645 3428 
Q 1925 3584 2291 3584 
Q 2894 3584 3203 3211 
Q 3513 2838 3513 2113 
z
" transform="scale(0.015625)"/>
      <path id="DejaVuSans-3a" d="M 750 794 
L 1409 794 
L 1409 0 
L 750 0 
L 750 794 
z
M 750 3309 
L 1409 3309 
L 1409 2516 
L 750 2516 
L 750 3309 
z
" transform="scale(0.015625)"/>
     </defs>
     <use xlink:href="#DejaVuSans-45"/>
     <use xlink:href="#DejaVuSans-70" x="63.183594"/>
     <use xlink:href="#DejaVuSans-6f" x="126.660156"/>
     <use xlink:href="#DejaVuSans-63" x="187.841797"/>
     <use xlink:href="#DejaVuSans-68" x="242.822266"/>
     <use xlink:href="#DejaVuSans-3a" x="306.201172"/>
     <use xlink:href="#DejaVuSans-20" x="339.892578"/>
     <use xlink:href="#DejaVuSans-33" x="371.679688"/>
     <use xlink:href="#DejaVuSans-30" x="435.302734"/>
     <use xlink:href="#DejaVuSans-30" x="498.925781"/>
     <use xlink:href="#DejaVuSans-30" x="562.548828"/>
    </g>
   </g>
  </g>
 </g>
 <defs>
  <clipPath id="pf6c2ae507d">
   <rect x="57.6" y="41.472" width="357.12" height="266.112"/>
  </clipPath>
 </defs>
</svg>
