<?xml version="1.0" encoding="utf-8" standalone="no"?>
<!DOCTYPE svg PUBLIC "-//W3C//DTD SVG 1.1//EN"
  "http://www.w3.org/Graphics/SVG/1.1/DTD/svg11.dtd">
<svg xmlns:xlink="http://www.w3.org/1999/xlink" width="460.8pt" height="345.6pt" viewBox="0 0 460.8 345.6" xmlns="http://www.w3.org/2000/svg" version="1.1">
 <metadata>
  <rdf:RDF xmlns:dc="http://purl.org/dc/elements/1.1/" xmlns:cc="http://creativecommons.org/ns#" xmlns:rdf="http://www.w3.org/1999/02/22-rdf-syntax-ns#">
   <cc:Work>
    <dc:type rdf:resource="http://purl.org/dc/dcmitype/StillImage"/>
    <dc:date>2024-09-10T06:47:52.695231</dc:date>
    <dc:format>image/svg+xml</dc:format>
    <dc:creator>
     <cc:Agent>
      <dc:title>Matplotlib v3.8.4, https://matplotlib.org/</dc:title>
     </cc:Agent>
    </dc:creator>
   </cc:Work>
  </rdf:RDF>
 </metadata>
 <defs>
  <style type="text/css">*{stroke-linejoin: round; stroke-linecap: butt}</style>
 </defs>
 <g id="figure_1">
  <g id="patch_1">
   <path d="M 0 345.6 
L 460.8 345.6 
L 460.8 0 
L 0 0 
z
" style="fill: #ffffff"/>
  </g>
  <g id="axes_1">
   <g id="patch_2">
    <path d="M 57.6 307.584 
L 414.72 307.584 
L 414.72 41.472 
L 57.6 41.472 
z
" style="fill: #e5e5e5"/>
   </g>
   <g id="matplotlib.axis_1">
    <g id="xtick_1">
     <g id="line2d_1">
      <path d="M 73.832727 307.584 
L 73.832727 41.472 
" clip-path="url(#pa204ae92ab)" style="fill: none; stroke: #ffffff; stroke-width: 0.8; stroke-linecap: square"/>
     </g>
     <g id="line2d_2">
      <defs>
       <path id="me3a02c712c" d="M 0 0 
L 0 3.5 
" style="stroke: #555555; stroke-width: 0.8"/>
      </defs>
      <g>
       <use xlink:href="#me3a02c712c" x="73.832727" y="307.584" style="fill: #555555; stroke: #555555; stroke-width: 0.8"/>
      </g>
     </g>
     <g id="text_1">
      <!-- 0 -->
      <g style="fill: #555555" transform="translate(70.651477 322.182437) scale(0.1 -0.1)">
       <defs>
        <path id="DejaVuSans-30" d="M 2034 4250 
Q 1547 4250 1301 3770 
Q 1056 3291 1056 2328 
Q 1056 1369 1301 889 
Q 1547 409 2034 409 
Q 2525 409 2770 889 
Q 3016 1369 3016 2328 
Q 3016 3291 2770 3770 
Q 2525 4250 2034 4250 
z
M 2034 4750 
Q 2819 4750 3233 4129 
Q 3647 3509 3647 2328 
Q 3647 1150 3233 529 
Q 2819 -91 2034 -91 
Q 1250 -91 836 529 
Q 422 1150 422 2328 
Q 422 3509 836 4129 
Q 1250 4750 2034 4750 
z
" transform="scale(0.015625)"/>
       </defs>
       <use xlink:href="#DejaVuSans-30"/>
      </g>
     </g>
    </g>
    <g id="xtick_2">
     <g id="line2d_3">
      <path d="M 121.58166 307.584 
L 121.58166 41.472 
" clip-path="url(#pa204ae92ab)" style="fill: none; stroke: #ffffff; stroke-width: 0.8; stroke-linecap: square"/>
     </g>
     <g id="line2d_4">
      <g>
       <use xlink:href="#me3a02c712c" x="121.58166" y="307.584" style="fill: #555555; stroke: #555555; stroke-width: 0.8"/>
      </g>
     </g>
     <g id="text_2">
      <!-- 2500 -->
      <g style="fill: #555555" transform="translate(108.85666 322.182437) scale(0.1 -0.1)">
       <defs>
        <path id="DejaVuSans-32" d="M 1228 531 
L 3431 531 
L 3431 0 
L 469 0 
L 469 531 
Q 828 903 1448 1529 
Q 2069 2156 2228 2338 
Q 2531 2678 2651 2914 
Q 2772 3150 2772 3378 
Q 2772 3750 2511 3984 
Q 2250 4219 1831 4219 
Q 1534 4219 1204 4116 
Q 875 4013 500 3803 
L 500 4441 
Q 881 4594 1212 4672 
Q 1544 4750 1819 4750 
Q 2544 4750 2975 4387 
Q 3406 4025 3406 3419 
Q 3406 3131 3298 2873 
Q 3191 2616 2906 2266 
Q 2828 2175 2409 1742 
Q 1991 1309 1228 531 
z
" transform="scale(0.015625)"/>
        <path id="DejaVuSans-35" d="M 691 4666 
L 3169 4666 
L 3169 4134 
L 1269 4134 
L 1269 2991 
Q 1406 3038 1543 3061 
Q 1681 3084 1819 3084 
Q 2600 3084 3056 2656 
Q 3513 2228 3513 1497 
Q 3513 744 3044 326 
Q 2575 -91 1722 -91 
Q 1428 -91 1123 -41 
Q 819 9 494 109 
L 494 744 
Q 775 591 1075 516 
Q 1375 441 1709 441 
Q 2250 441 2565 725 
Q 2881 1009 2881 1497 
Q 2881 1984 2565 2268 
Q 2250 2553 1709 2553 
Q 1456 2553 1204 2497 
Q 953 2441 691 2322 
L 691 4666 
z
" transform="scale(0.015625)"/>
       </defs>
       <use xlink:href="#DejaVuSans-32"/>
       <use xlink:href="#DejaVuSans-35" x="63.623047"/>
       <use xlink:href="#DejaVuSans-30" x="127.246094"/>
       <use xlink:href="#DejaVuSans-30" x="190.869141"/>
      </g>
     </g>
    </g>
    <g id="xtick_3">
     <g id="line2d_5">
      <path d="M 169.330593 307.584 
L 169.330593 41.472 
" clip-path="url(#pa204ae92ab)" style="fill: none; stroke: #ffffff; stroke-width: 0.8; stroke-linecap: square"/>
     </g>
     <g id="line2d_6">
      <g>
       <use xlink:href="#me3a02c712c" x="169.330593" y="307.584" style="fill: #555555; stroke: #555555; stroke-width: 0.8"/>
      </g>
     </g>
     <g id="text_3">
      <!-- 5000 -->
      <g style="fill: #555555" transform="translate(156.605593 322.182437) scale(0.1 -0.1)">
       <use xlink:href="#DejaVuSans-35"/>
       <use xlink:href="#DejaVuSans-30" x="63.623047"/>
       <use xlink:href="#DejaVuSans-30" x="127.246094"/>
       <use xlink:href="#DejaVuSans-30" x="190.869141"/>
      </g>
     </g>
    </g>
    <g id="xtick_4">
     <g id="line2d_7">
      <path d="M 217.079526 307.584 
L 217.079526 41.472 
" clip-path="url(#pa204ae92ab)" style="fill: none; stroke: #ffffff; stroke-width: 0.8; stroke-linecap: square"/>
     </g>
     <g id="line2d_8">
      <g>
       <use xlink:href="#me3a02c712c" x="217.079526" y="307.584" style="fill: #555555; stroke: #555555; stroke-width: 0.8"/>
      </g>
     </g>
     <g id="text_4">
      <!-- 7500 -->
      <g style="fill: #555555" transform="translate(204.354526 322.182437) scale(0.1 -0.1)">
       <defs>
        <path id="DejaVuSans-37" d="M 525 4666 
L 3525 4666 
L 3525 4397 
L 1831 0 
L 1172 0 
L 2766 4134 
L 525 4134 
L 525 4666 
z
" transform="scale(0.015625)"/>
       </defs>
       <use xlink:href="#DejaVuSans-37"/>
       <use xlink:href="#DejaVuSans-35" x="63.623047"/>
       <use xlink:href="#DejaVuSans-30" x="127.246094"/>
       <use xlink:href="#DejaVuSans-30" x="190.869141"/>
      </g>
     </g>
    </g>
    <g id="xtick_5">
     <g id="line2d_9">
      <path d="M 264.828459 307.584 
L 264.828459 41.472 
" clip-path="url(#pa204ae92ab)" style="fill: none; stroke: #ffffff; stroke-width: 0.8; stroke-linecap: square"/>
     </g>
     <g id="line2d_10">
      <g>
       <use xlink:href="#me3a02c712c" x="264.828459" y="307.584" style="fill: #555555; stroke: #555555; stroke-width: 0.8"/>
      </g>
     </g>
     <g id="text_5">
      <!-- 10000 -->
      <g style="fill: #555555" transform="translate(248.922209 322.182437) scale(0.1 -0.1)">
       <defs>
        <path id="DejaVuSans-31" d="M 794 531 
L 1825 531 
L 1825 4091 
L 703 3866 
L 703 4441 
L 1819 4666 
L 2450 4666 
L 2450 531 
L 3481 531 
L 3481 0 
L 794 0 
L 794 531 
z
" transform="scale(0.015625)"/>
       </defs>
       <use xlink:href="#DejaVuSans-31"/>
       <use xlink:href="#DejaVuSans-30" x="63.623047"/>
       <use xlink:href="#DejaVuSans-30" x="127.246094"/>
       <use xlink:href="#DejaVuSans-30" x="190.869141"/>
       <use xlink:href="#DejaVuSans-30" x="254.492188"/>
      </g>
     </g>
    </g>
    <g id="xtick_6">
     <g id="line2d_11">
      <path d="M 312.577392 307.584 
L 312.577392 41.472 
" clip-path="url(#pa204ae92ab)" style="fill: none; stroke: #ffffff; stroke-width: 0.8; stroke-linecap: square"/>
     </g>
     <g id="line2d_12">
      <g>
       <use xlink:href="#me3a02c712c" x="312.577392" y="307.584" style="fill: #555555; stroke: #555555; stroke-width: 0.8"/>
      </g>
     </g>
     <g id="text_6">
      <!-- 12500 -->
      <g style="fill: #555555" transform="translate(296.671142 322.182437) scale(0.1 -0.1)">
       <use xlink:href="#DejaVuSans-31"/>
       <use xlink:href="#DejaVuSans-32" x="63.623047"/>
       <use xlink:href="#DejaVuSans-35" x="127.246094"/>
       <use xlink:href="#DejaVuSans-30" x="190.869141"/>
       <use xlink:href="#DejaVuSans-30" x="254.492188"/>
      </g>
     </g>
    </g>
    <g id="xtick_7">
     <g id="line2d_13">
      <path d="M 360.326325 307.584 
L 360.326325 41.472 
" clip-path="url(#pa204ae92ab)" style="fill: none; stroke: #ffffff; stroke-width: 0.8; stroke-linecap: square"/>
     </g>
     <g id="line2d_14">
      <g>
       <use xlink:href="#me3a02c712c" x="360.326325" y="307.584" style="fill: #555555; stroke: #555555; stroke-width: 0.8"/>
      </g>
     </g>
     <g id="text_7">
      <!-- 15000 -->
      <g style="fill: #555555" transform="translate(344.420075 322.182437) scale(0.1 -0.1)">
       <use xlink:href="#DejaVuSans-31"/>
       <use xlink:href="#DejaVuSans-35" x="63.623047"/>
       <use xlink:href="#DejaVuSans-30" x="127.246094"/>
       <use xlink:href="#DejaVuSans-30" x="190.869141"/>
       <use xlink:href="#DejaVuSans-30" x="254.492188"/>
      </g>
     </g>
    </g>
    <g id="xtick_8">
     <g id="line2d_15">
      <path d="M 408.075258 307.584 
L 408.075258 41.472 
" clip-path="url(#pa204ae92ab)" style="fill: none; stroke: #ffffff; stroke-width: 0.8; stroke-linecap: square"/>
     </g>
     <g id="line2d_16">
      <g>
       <use xlink:href="#me3a02c712c" x="408.075258" y="307.584" style="fill: #555555; stroke: #555555; stroke-width: 0.8"/>
      </g>
     </g>
     <g id="text_8">
      <!-- 17500 -->
      <g style="fill: #555555" transform="translate(392.169008 322.182437) scale(0.1 -0.1)">
       <use xlink:href="#DejaVuSans-31"/>
       <use xlink:href="#DejaVuSans-37" x="63.623047"/>
       <use xlink:href="#DejaVuSans-35" x="127.246094"/>
       <use xlink:href="#DejaVuSans-30" x="190.869141"/>
       <use xlink:href="#DejaVuSans-30" x="254.492188"/>
      </g>
     </g>
    </g>
    <g id="text_9">
     <!-- Number of Games -->
     <g style="fill: #555555" transform="translate(181.471875 337.38025) scale(0.12 -0.12)">
      <defs>
       <path id="DejaVuSans-4e" d="M 628 4666 
L 1478 4666 
L 3547 763 
L 3547 4666 
L 4159 4666 
L 4159 0 
L 3309 0 
L 1241 3903 
L 1241 0 
L 628 0 
L 628 4666 
z
" transform="scale(0.015625)"/>
       <path id="DejaVuSans-75" d="M 544 1381 
L 544 3500 
L 1119 3500 
L 1119 1403 
Q 1119 906 1312 657 
Q 1506 409 1894 409 
Q 2359 409 2629 706 
Q 2900 1003 2900 1516 
L 2900 3500 
L 3475 3500 
L 3475 0 
L 2900 0 
L 2900 538 
Q 2691 219 2414 64 
Q 2138 -91 1772 -91 
Q 1169 -91 856 284 
Q 544 659 544 1381 
z
M 1991 3584 
L 1991 3584 
z
" transform="scale(0.015625)"/>
       <path id="DejaVuSans-6d" d="M 3328 2828 
Q 3544 3216 3844 3400 
Q 4144 3584 4550 3584 
Q 5097 3584 5394 3201 
Q 5691 2819 5691 2113 
L 5691 0 
L 5113 0 
L 5113 2094 
Q 5113 2597 4934 2840 
Q 4756 3084 4391 3084 
Q 3944 3084 3684 2787 
Q 3425 2491 3425 1978 
L 3425 0 
L 2847 0 
L 2847 2094 
Q 2847 2600 2669 2842 
Q 2491 3084 2119 3084 
Q 1678 3084 1418 2786 
Q 1159 2488 1159 1978 
L 1159 0 
L 581 0 
L 581 3500 
L 1159 3500 
L 1159 2956 
Q 1356 3278 1631 3431 
Q 1906 3584 2284 3584 
Q 2666 3584 2933 3390 
Q 3200 3197 3328 2828 
z
" transform="scale(0.015625)"/>
       <path id="DejaVuSans-62" d="M 3116 1747 
Q 3116 2381 2855 2742 
Q 2594 3103 2138 3103 
Q 1681 3103 1420 2742 
Q 1159 2381 1159 1747 
Q 1159 1113 1420 752 
Q 1681 391 2138 391 
Q 2594 391 2855 752 
Q 3116 1113 3116 1747 
z
M 1159 2969 
Q 1341 3281 1617 3432 
Q 1894 3584 2278 3584 
Q 2916 3584 3314 3078 
Q 3713 2572 3713 1747 
Q 3713 922 3314 415 
Q 2916 -91 2278 -91 
Q 1894 -91 1617 61 
Q 1341 213 1159 525 
L 1159 0 
L 581 0 
L 581 4863 
L 1159 4863 
L 1159 2969 
z
" transform="scale(0.015625)"/>
       <path id="DejaVuSans-65" d="M 3597 1894 
L 3597 1613 
L 953 1613 
Q 991 1019 1311 708 
Q 1631 397 2203 397 
Q 2534 397 2845 478 
Q 3156 559 3463 722 
L 3463 178 
Q 3153 47 2828 -22 
Q 2503 -91 2169 -91 
Q 1331 -91 842 396 
Q 353 884 353 1716 
Q 353 2575 817 3079 
Q 1281 3584 2069 3584 
Q 2775 3584 3186 3129 
Q 3597 2675 3597 1894 
z
M 3022 2063 
Q 3016 2534 2758 2815 
Q 2500 3097 2075 3097 
Q 1594 3097 1305 2825 
Q 1016 2553 972 2059 
L 3022 2063 
z
" transform="scale(0.015625)"/>
       <path id="DejaVuSans-72" d="M 2631 2963 
Q 2534 3019 2420 3045 
Q 2306 3072 2169 3072 
Q 1681 3072 1420 2755 
Q 1159 2438 1159 1844 
L 1159 0 
L 581 0 
L 581 3500 
L 1159 3500 
L 1159 2956 
Q 1341 3275 1631 3429 
Q 1922 3584 2338 3584 
Q 2397 3584 2469 3576 
Q 2541 3569 2628 3553 
L 2631 2963 
z
" transform="scale(0.015625)"/>
       <path id="DejaVuSans-20" transform="scale(0.015625)"/>
       <path id="DejaVuSans-6f" d="M 1959 3097 
Q 1497 3097 1228 2736 
Q 959 2375 959 1747 
Q 959 1119 1226 758 
Q 1494 397 1959 397 
Q 2419 397 2687 759 
Q 2956 1122 2956 1747 
Q 2956 2369 2687 2733 
Q 2419 3097 1959 3097 
z
M 1959 3584 
Q 2709 3584 3137 3096 
Q 3566 2609 3566 1747 
Q 3566 888 3137 398 
Q 2709 -91 1959 -91 
Q 1206 -91 779 398 
Q 353 888 353 1747 
Q 353 2609 779 3096 
Q 1206 3584 1959 3584 
z
" transform="scale(0.015625)"/>
       <path id="DejaVuSans-66" d="M 2375 4863 
L 2375 4384 
L 1825 4384 
Q 1516 4384 1395 4259 
Q 1275 4134 1275 3809 
L 1275 3500 
L 2222 3500 
L 2222 3053 
L 1275 3053 
L 1275 0 
L 697 0 
L 697 3053 
L 147 3053 
L 147 3500 
L 697 3500 
L 697 3744 
Q 697 4328 969 4595 
Q 1241 4863 1831 4863 
L 2375 4863 
z
" transform="scale(0.015625)"/>
       <path id="DejaVuSans-47" d="M 3809 666 
L 3809 1919 
L 2778 1919 
L 2778 2438 
L 4434 2438 
L 4434 434 
Q 4069 175 3628 42 
Q 3188 -91 2688 -91 
Q 1594 -91 976 548 
Q 359 1188 359 2328 
Q 359 3472 976 4111 
Q 1594 4750 2688 4750 
Q 3144 4750 3555 4637 
Q 3966 4525 4313 4306 
L 4313 3634 
Q 3963 3931 3569 4081 
Q 3175 4231 2741 4231 
Q 1884 4231 1454 3753 
Q 1025 3275 1025 2328 
Q 1025 1384 1454 906 
Q 1884 428 2741 428 
Q 3075 428 3337 486 
Q 3600 544 3809 666 
z
" transform="scale(0.015625)"/>
       <path id="DejaVuSans-61" d="M 2194 1759 
Q 1497 1759 1228 1600 
Q 959 1441 959 1056 
Q 959 750 1161 570 
Q 1363 391 1709 391 
Q 2188 391 2477 730 
Q 2766 1069 2766 1631 
L 2766 1759 
L 2194 1759 
z
M 3341 1997 
L 3341 0 
L 2766 0 
L 2766 531 
Q 2569 213 2275 61 
Q 1981 -91 1556 -91 
Q 1019 -91 701 211 
Q 384 513 384 1019 
Q 384 1609 779 1909 
Q 1175 2209 1959 2209 
L 2766 2209 
L 2766 2266 
Q 2766 2663 2505 2880 
Q 2244 3097 1772 3097 
Q 1472 3097 1187 3025 
Q 903 2953 641 2809 
L 641 3341 
Q 956 3463 1253 3523 
Q 1550 3584 1831 3584 
Q 2591 3584 2966 3190 
Q 3341 2797 3341 1997 
z
" transform="scale(0.015625)"/>
       <path id="DejaVuSans-73" d="M 2834 3397 
L 2834 2853 
Q 2591 2978 2328 3040 
Q 2066 3103 1784 3103 
Q 1356 3103 1142 2972 
Q 928 2841 928 2578 
Q 928 2378 1081 2264 
Q 1234 2150 1697 2047 
L 1894 2003 
Q 2506 1872 2764 1633 
Q 3022 1394 3022 966 
Q 3022 478 2636 193 
Q 2250 -91 1575 -91 
Q 1294 -91 989 -36 
Q 684 19 347 128 
L 347 722 
Q 666 556 975 473 
Q 1284 391 1588 391 
Q 1994 391 2212 530 
Q 2431 669 2431 922 
Q 2431 1156 2273 1281 
Q 2116 1406 1581 1522 
L 1381 1569 
Q 847 1681 609 1914 
Q 372 2147 372 2553 
Q 372 3047 722 3315 
Q 1072 3584 1716 3584 
Q 2034 3584 2315 3537 
Q 2597 3491 2834 3397 
z
" transform="scale(0.015625)"/>
      </defs>
      <use xlink:href="#DejaVuSans-4e"/>
      <use xlink:href="#DejaVuSans-75" x="74.804688"/>
      <use xlink:href="#DejaVuSans-6d" x="138.183594"/>
      <use xlink:href="#DejaVuSans-62" x="235.595703"/>
      <use xlink:href="#DejaVuSans-65" x="299.072266"/>
      <use xlink:href="#DejaVuSans-72" x="360.595703"/>
      <use xlink:href="#DejaVuSans-20" x="401.708984"/>
      <use xlink:href="#DejaVuSans-6f" x="433.496094"/>
      <use xlink:href="#DejaVuSans-66" x="494.677734"/>
      <use xlink:href="#DejaVuSans-20" x="529.882812"/>
      <use xlink:href="#DejaVuSans-47" x="561.669922"/>
      <use xlink:href="#DejaVuSans-61" x="639.160156"/>
      <use xlink:href="#DejaVuSans-6d" x="700.439453"/>
      <use xlink:href="#DejaVuSans-65" x="797.851562"/>
      <use xlink:href="#DejaVuSans-73" x="859.375"/>
     </g>
    </g>
   </g>
   <g id="matplotlib.axis_2">
    <g id="ytick_1">
     <g id="line2d_17">
      <path d="M 57.6 307.584 
L 414.72 307.584 
" clip-path="url(#pa204ae92ab)" style="fill: none; stroke: #ffffff; stroke-width: 0.8; stroke-linecap: square"/>
     </g>
     <g id="line2d_18">
      <defs>
       <path id="m8a8994a1c3" d="M 0 0 
L -3.5 0 
" style="stroke: #555555; stroke-width: 0.8"/>
      </defs>
      <g>
       <use xlink:href="#m8a8994a1c3" x="57.6" y="307.584" style="fill: #555555; stroke: #555555; stroke-width: 0.8"/>
      </g>
     </g>
     <g id="text_10">
      <!-- 0 -->
      <g style="fill: #555555" transform="translate(44.2375 311.383219) scale(0.1 -0.1)">
       <use xlink:href="#DejaVuSans-30"/>
      </g>
     </g>
    </g>
    <g id="ytick_2">
     <g id="line2d_19">
      <path d="M 57.6 264.629019 
L 414.72 264.629019 
" clip-path="url(#pa204ae92ab)" style="fill: none; stroke: #ffffff; stroke-width: 0.8; stroke-linecap: square"/>
     </g>
     <g id="line2d_20">
      <g>
       <use xlink:href="#m8a8994a1c3" x="57.6" y="264.629019" style="fill: #555555; stroke: #555555; stroke-width: 0.8"/>
      </g>
     </g>
     <g id="text_11">
      <!-- 500 -->
      <g style="fill: #555555" transform="translate(31.5125 268.428237) scale(0.1 -0.1)">
       <use xlink:href="#DejaVuSans-35"/>
       <use xlink:href="#DejaVuSans-30" x="63.623047"/>
       <use xlink:href="#DejaVuSans-30" x="127.246094"/>
      </g>
     </g>
    </g>
    <g id="ytick_3">
     <g id="line2d_21">
      <path d="M 57.6 221.674037 
L 414.72 221.674037 
" clip-path="url(#pa204ae92ab)" style="fill: none; stroke: #ffffff; stroke-width: 0.8; stroke-linecap: square"/>
     </g>
     <g id="line2d_22">
      <g>
       <use xlink:href="#m8a8994a1c3" x="57.6" y="221.674037" style="fill: #555555; stroke: #555555; stroke-width: 0.8"/>
      </g>
     </g>
     <g id="text_12">
      <!-- 1000 -->
      <g style="fill: #555555" transform="translate(25.15 225.473256) scale(0.1 -0.1)">
       <use xlink:href="#DejaVuSans-31"/>
       <use xlink:href="#DejaVuSans-30" x="63.623047"/>
       <use xlink:href="#DejaVuSans-30" x="127.246094"/>
       <use xlink:href="#DejaVuSans-30" x="190.869141"/>
      </g>
     </g>
    </g>
    <g id="ytick_4">
     <g id="line2d_23">
      <path d="M 57.6 178.719056 
L 414.72 178.719056 
" clip-path="url(#pa204ae92ab)" style="fill: none; stroke: #ffffff; stroke-width: 0.8; stroke-linecap: square"/>
     </g>
     <g id="line2d_24">
      <g>
       <use xlink:href="#m8a8994a1c3" x="57.6" y="178.719056" style="fill: #555555; stroke: #555555; stroke-width: 0.8"/>
      </g>
     </g>
     <g id="text_13">
      <!-- 1500 -->
      <g style="fill: #555555" transform="translate(25.15 182.518274) scale(0.1 -0.1)">
       <use xlink:href="#DejaVuSans-31"/>
       <use xlink:href="#DejaVuSans-35" x="63.623047"/>
       <use xlink:href="#DejaVuSans-30" x="127.246094"/>
       <use xlink:href="#DejaVuSans-30" x="190.869141"/>
      </g>
     </g>
    </g>
    <g id="ytick_5">
     <g id="line2d_25">
      <path d="M 57.6 135.764074 
L 414.72 135.764074 
" clip-path="url(#pa204ae92ab)" style="fill: none; stroke: #ffffff; stroke-width: 0.8; stroke-linecap: square"/>
     </g>
     <g id="line2d_26">
      <g>
       <use xlink:href="#m8a8994a1c3" x="57.6" y="135.764074" style="fill: #555555; stroke: #555555; stroke-width: 0.8"/>
      </g>
     </g>
     <g id="text_14">
      <!-- 2000 -->
      <g style="fill: #555555" transform="translate(25.15 139.563293) scale(0.1 -0.1)">
       <use xlink:href="#DejaVuSans-32"/>
       <use xlink:href="#DejaVuSans-30" x="63.623047"/>
       <use xlink:href="#DejaVuSans-30" x="127.246094"/>
       <use xlink:href="#DejaVuSans-30" x="190.869141"/>
      </g>
     </g>
    </g>
    <g id="ytick_6">
     <g id="line2d_27">
      <path d="M 57.6 92.809093 
L 414.72 92.809093 
" clip-path="url(#pa204ae92ab)" style="fill: none; stroke: #ffffff; stroke-width: 0.8; stroke-linecap: square"/>
     </g>
     <g id="line2d_28">
      <g>
       <use xlink:href="#m8a8994a1c3" x="57.6" y="92.809093" style="fill: #555555; stroke: #555555; stroke-width: 0.8"/>
      </g>
     </g>
     <g id="text_15">
      <!-- 2500 -->
      <g style="fill: #555555" transform="translate(25.15 96.608312) scale(0.1 -0.1)">
       <use xlink:href="#DejaVuSans-32"/>
       <use xlink:href="#DejaVuSans-35" x="63.623047"/>
       <use xlink:href="#DejaVuSans-30" x="127.246094"/>
       <use xlink:href="#DejaVuSans-30" x="190.869141"/>
      </g>
     </g>
    </g>
    <g id="ytick_7">
     <g id="line2d_29">
      <path d="M 57.6 49.854111 
L 414.72 49.854111 
" clip-path="url(#pa204ae92ab)" style="fill: none; stroke: #ffffff; stroke-width: 0.8; stroke-linecap: square"/>
     </g>
     <g id="line2d_30">
      <g>
       <use xlink:href="#m8a8994a1c3" x="57.6" y="49.854111" style="fill: #555555; stroke: #555555; stroke-width: 0.8"/>
      </g>
     </g>
     <g id="text_16">
      <!-- 3000 -->
      <g style="fill: #555555" transform="translate(25.15 53.65333) scale(0.1 -0.1)">
       <defs>
        <path id="DejaVuSans-33" d="M 2597 2516 
Q 3050 2419 3304 2112 
Q 3559 1806 3559 1356 
Q 3559 666 3084 287 
Q 2609 -91 1734 -91 
Q 1441 -91 1130 -33 
Q 819 25 488 141 
L 488 750 
Q 750 597 1062 519 
Q 1375 441 1716 441 
Q 2309 441 2620 675 
Q 2931 909 2931 1356 
Q 2931 1769 2642 2001 
Q 2353 2234 1838 2234 
L 1294 2234 
L 1294 2753 
L 1863 2753 
Q 2328 2753 2575 2939 
Q 2822 3125 2822 3475 
Q 2822 3834 2567 4026 
Q 2313 4219 1838 4219 
Q 1578 4219 1281 4162 
Q 984 4106 628 3988 
L 628 4550 
Q 988 4650 1302 4700 
Q 1616 4750 1894 4750 
Q 2613 4750 3031 4423 
Q 3450 4097 3450 3541 
Q 3450 3153 3228 2886 
Q 3006 2619 2597 2516 
z
" transform="scale(0.015625)"/>
       </defs>
       <use xlink:href="#DejaVuSans-33"/>
       <use xlink:href="#DejaVuSans-30" x="63.623047"/>
       <use xlink:href="#DejaVuSans-30" x="127.246094"/>
       <use xlink:href="#DejaVuSans-30" x="190.869141"/>
      </g>
     </g>
    </g>
    <g id="text_17">
     <!-- Median reward -->
     <g style="fill: #555555" transform="translate(18.654375 219.03675) rotate(-90) scale(0.12 -0.12)">
      <defs>
       <path id="DejaVuSans-4d" d="M 628 4666 
L 1569 4666 
L 2759 1491 
L 3956 4666 
L 4897 4666 
L 4897 0 
L 4281 0 
L 4281 4097 
L 3078 897 
L 2444 897 
L 1241 4097 
L 1241 0 
L 628 0 
L 628 4666 
z
" transform="scale(0.015625)"/>
       <path id="DejaVuSans-64" d="M 2906 2969 
L 2906 4863 
L 3481 4863 
L 3481 0 
L 2906 0 
L 2906 525 
Q 2725 213 2448 61 
Q 2172 -91 1784 -91 
Q 1150 -91 751 415 
Q 353 922 353 1747 
Q 353 2572 751 3078 
Q 1150 3584 1784 3584 
Q 2172 3584 2448 3432 
Q 2725 3281 2906 2969 
z
M 947 1747 
Q 947 1113 1208 752 
Q 1469 391 1925 391 
Q 2381 391 2643 752 
Q 2906 1113 2906 1747 
Q 2906 2381 2643 2742 
Q 2381 3103 1925 3103 
Q 1469 3103 1208 2742 
Q 947 2381 947 1747 
z
" transform="scale(0.015625)"/>
       <path id="DejaVuSans-69" d="M 603 3500 
L 1178 3500 
L 1178 0 
L 603 0 
L 603 3500 
z
M 603 4863 
L 1178 4863 
L 1178 4134 
L 603 4134 
L 603 4863 
z
" transform="scale(0.015625)"/>
       <path id="DejaVuSans-6e" d="M 3513 2113 
L 3513 0 
L 2938 0 
L 2938 2094 
Q 2938 2591 2744 2837 
Q 2550 3084 2163 3084 
Q 1697 3084 1428 2787 
Q 1159 2491 1159 1978 
L 1159 0 
L 581 0 
L 581 3500 
L 1159 3500 
L 1159 2956 
Q 1366 3272 1645 3428 
Q 1925 3584 2291 3584 
Q 2894 3584 3203 3211 
Q 3513 2838 3513 2113 
z
" transform="scale(0.015625)"/>
       <path id="DejaVuSans-77" d="M 269 3500 
L 844 3500 
L 1563 769 
L 2278 3500 
L 2956 3500 
L 3675 769 
L 4391 3500 
L 4966 3500 
L 4050 0 
L 3372 0 
L 2619 2869 
L 1863 0 
L 1184 0 
L 269 3500 
z
" transform="scale(0.015625)"/>
      </defs>
      <use xlink:href="#DejaVuSans-4d"/>
      <use xlink:href="#DejaVuSans-65" x="86.279297"/>
      <use xlink:href="#DejaVuSans-64" x="147.802734"/>
      <use xlink:href="#DejaVuSans-69" x="211.279297"/>
      <use xlink:href="#DejaVuSans-61" x="239.0625"/>
      <use xlink:href="#DejaVuSans-6e" x="300.341797"/>
      <use xlink:href="#DejaVuSans-20" x="363.720703"/>
      <use xlink:href="#DejaVuSans-72" x="395.507812"/>
      <use xlink:href="#DejaVuSans-65" x="434.371094"/>
      <use xlink:href="#DejaVuSans-77" x="495.894531"/>
      <use xlink:href="#DejaVuSans-61" x="577.681641"/>
      <use xlink:href="#DejaVuSans-72" x="638.960938"/>
      <use xlink:href="#DejaVuSans-64" x="678.324219"/>
     </g>
    </g>
   </g>
   <g id="line2d_31">
    <path d="M 73.832727 306.123531 
L 73.947325 306.111258 
L 74.023723 306.178201 
L 74.081022 306.111258 
L 74.17652 306.096401 
L 74.195619 306.11494 
L 74.959602 306.180804 
L 75.169697 306.182821 
L 75.417992 306.19819 
L 75.799983 306.211919 
L 76.239273 306.216205 
L 77.327949 306.206639 
L 78.015534 306.213736 
L 79.944591 306.204356 
L 81.415258 306.176847 
L 84.375692 306.112501 
L 85.769961 306.066715 
L 89.150585 305.926569 
L 90.984144 305.839521 
L 95.033254 305.579073 
L 95.262448 305.556051 
L 98.070086 305.272616 
L 98.31838 305.210662 
L 99.884545 305.039555 
L 101.947299 304.634308 
L 102.768581 304.440919 
L 104.640339 303.918561 
L 104.754936 303.815257 
L 104.984131 303.747478 
L 105.404322 303.636609 
L 105.729015 303.47883 
L 107.27608 302.836347 
L 107.409777 302.758146 
L 108.17376 302.460681 
L 108.364756 302.214509 
L 109.033241 301.670702 
L 109.243336 301.398436 
L 109.377033 301.296286 
L 109.625327 301.009803 
L 109.797224 300.820734 
L 109.96912 300.598517 
L 110.141016 300.490376 
L 110.561207 299.702029 
L 110.714003 299.655071 
L 110.904999 299.224235 
L 111.057795 299.097153 
L 111.344289 298.141074 
L 111.458887 298.028336 
L 111.726281 297.265499 
L 112.089172 296.276508 
L 112.18467 295.867446 
L 112.222869 295.876578 
L 112.318367 295.875103 
L 112.547562 294.691405 
L 112.604861 294.697886 
L 112.891354 292.283839 
L 112.948653 292.297603 
L 113.044151 292.272954 
L 113.617138 290.032685 
L 113.655337 289.989384 
L 113.808134 287.597667 
L 113.922731 287.593856 
L 114.151926 287.619574 
L 114.342922 287.41779 
L 114.533918 287.342734 
L 114.724914 284.643152 
L 114.87771 281.642827 
L 114.992308 280.4239 
L 115.049606 280.443535 
L 115.183303 280.427805 
L 115.240602 280.212389 
L 115.317 279.642862 
L 115.374299 279.656906 
L 115.488896 279.639875 
L 115.698992 278.460836 
L 115.75629 277.70169 
L 115.832689 277.714707 
L 115.966386 277.69216 
L 116.348377 276.527028 
L 116.367477 276.531867 
L 116.768568 275.768817 
L 116.921364 275.371456 
L 117.035962 274.94835 
L 117.169659 274.091717 
L 117.303356 272.547865 
L 117.322455 272.559474 
L 117.341555 272.456136 
L 117.55165 269.190913 
L 117.704447 268.510369 
L 117.742646 268.524475 
L 117.971841 266.984371 
L 117.990941 266.999732 
L 118.181936 267.110385 
L 118.411131 265.352539 
L 118.716724 265.003865 
L 119.194214 263.694567 
L 119.36611 262.253149 
L 119.442508 262.153201 
L 119.595305 261.926923 
L 119.652603 261.79578 
L 119.958197 260.735726 
L 120.034595 260.569737 
L 120.091894 260.279875 
L 120.378387 257.195693 
L 120.531184 256.584601 
L 120.607582 256.439871 
L 120.894076 254.584105 
L 121.027773 254.127777 
L 121.046872 254.125562 
L 121.237868 252.590414 
L 121.256968 252.600102 
L 121.562561 251.398644 
L 121.696258 250.630595 
L 121.887253 250.178908 
L 122.250145 247.966449 
L 122.441141 245.471333 
L 122.765834 243.447704 
L 122.880431 242.115893 
L 122.899531 242.119706 
L 122.95683 241.93767 
L 123.109626 241.593798 
L 123.128726 241.615197 
L 123.281522 241.217028 
L 123.37702 241.203507 
L 123.911808 239.078256 
L 124.083704 238.488268 
L 124.102804 238.500546 
L 124.637592 237.111389 
L 124.924086 233.831677 
L 124.943185 233.857206 
L 124.962285 233.763539 
L 125.344276 232.51369 
L 125.592571 230.501373 
L 125.61167 230.520514 
L 125.802666 230.06465 
L 126.566649 228.680489 
L 126.700346 228.088431 
L 127.712623 221.561703 
L 127.731723 221.565394 
L 127.884519 221.283391 
L 128.094615 220.101238 
L 128.171013 219.782599 
L 128.362009 218.712279 
L 128.381108 218.705528 
L 128.533905 218.270024 
L 128.705801 218.044356 
L 128.973195 216.745429 
L 128.992295 216.765512 
L 129.125992 216.715318 
L 129.393386 214.75734 
L 129.412485 214.78126 
L 129.450684 214.652188 
L 129.488884 214.53626 
L 129.584381 214.62842 
L 129.698979 214.512857 
L 130.004572 213.378586 
L 130.023672 213.386659 
L 130.138269 213.303948 
L 130.157369 213.334684 
L 130.291066 213.101809 
L 130.424763 212.361125 
L 130.615758 212.034385 
L 130.692157 211.830134 
L 130.864053 211.613799 
L 130.902252 211.565777 
L 131.608936 208.05674 
L 132.010027 204.599185 
L 132.124625 204.373239 
L 132.162824 204.397333 
L 132.220123 204.40355 
L 132.35382 203.982583 
L 132.372919 204.008668 
L 132.411118 204.053898 
L 132.449317 204.006555 
L 133.041404 201.737191 
L 133.079603 201.776537 
L 133.136902 201.684786 
L 133.614391 198.577345 
L 133.862686 197.665482 
L 133.881785 197.682594 
L 134.053682 196.518843 
L 134.091881 196.536717 
L 134.11098 196.434223 
L 134.13008 196.463163 
L 134.301976 195.567717 
L 134.359275 195.310925 
L 134.435673 195.414631 
L 134.531171 195.524655 
L 134.550271 195.409281 
L 134.703067 194.575911 
L 134.817665 193.754536 
L 134.874963 193.829643 
L 135.02776 193.962968 
L 135.276054 191.253421 
L 135.543448 190.927707 
L 135.829942 191.312234 
L 136.078236 190.770221 
L 136.479327 190.258667 
L 136.574825 189.973156 
L 137.166912 185.377427 
L 137.24331 185.487447 
L 137.281509 185.405038 
L 137.319709 185.455585 
L 138.083692 182.701142 
L 138.14099 182.72823 
L 138.16009 182.647097 
L 138.293787 181.78881 
L 138.331986 181.817664 
L 138.370185 181.742603 
L 138.427484 181.821566 
L 138.446583 181.665255 
L 138.542081 181.678602 
L 138.61848 181.46382 
L 138.847674 180.229305 
L 138.943172 180.127853 
L 138.962272 180.140915 
L 138.981371 180.168723 
L 139.019571 180.100737 
L 139.191467 179.836939 
L 139.210566 179.854954 
L 139.229666 179.889689 
L 139.248766 179.846919 
L 139.668956 177.160268 
L 139.688056 177.142437 
L 139.917251 175.595393 
L 140.070047 175.055933 
L 140.203744 174.539941 
L 140.222844 174.562911 
L 140.241943 174.478196 
L 140.299242 174.482295 
L 141.177822 172.018541 
L 141.29242 170.123293 
L 141.330619 170.188136 
L 141.387918 170.110771 
L 141.464316 170.197743 
L 141.598013 170.037332 
L 141.655312 170.127527 
L 141.71261 170.058268 
L 142.171 168.988282 
L 142.400195 169.111494 
L 142.476593 169.04428 
L 142.572091 168.77166 
L 142.724888 168.072625 
L 142.934983 167.616303 
L 143.336074 166.179694 
L 143.889962 164.862825 
L 144.042758 164.532814 
L 144.100057 164.447543 
L 144.138256 164.51771 
L 144.214655 164.644808 
L 144.252854 164.579669 
L 144.310152 163.980923 
L 144.482049 163.214165 
L 144.501148 163.225434 
L 144.558447 163.241485 
L 144.653945 162.954381 
L 144.673044 162.977525 
L 144.768542 163.048084 
L 144.959538 161.897654 
L 145.093235 161.289577 
L 145.188733 161.327196 
L 145.246032 161.38571 
L 145.284231 161.265352 
L 145.437027 160.658032 
L 145.628023 160.124918 
L 145.723521 159.76264 
L 145.74262 159.793885 
L 145.819019 159.906437 
L 145.895417 159.86084 
L 146.296508 157.547513 
L 146.315608 157.582466 
L 146.506603 157.21125 
L 146.697599 156.742405 
L 146.735798 156.710984 
L 146.888595 156.157294 
L 146.907694 156.190217 
L 146.984093 156.180035 
L 147.136889 155.350651 
L 147.213288 155.298028 
L 147.385184 154.435106 
L 147.404283 154.470774 
L 147.633478 153.556817 
L 147.671677 153.626193 
L 147.690777 153.665352 
L 147.824474 152.750369 
L 147.843573 152.775621 
L 148.01547 151.960723 
L 148.110967 152.0585 
L 148.130067 152.091538 
L 148.168266 151.967558 
L 148.187366 151.999734 
L 148.550258 151.365613 
L 148.645756 151.086526 
L 148.703054 151.127672 
L 148.741253 151.060844 
L 148.855851 151.238188 
L 149.085046 150.882353 
L 149.161444 150.943897 
L 149.180544 150.882769 
L 149.218743 150.759693 
L 149.409738 149.407154 
L 149.524336 149.407851 
L 149.581635 149.234592 
L 149.638933 149.320601 
L 149.79173 149.350309 
L 150.68941 146.821466 
L 150.880406 145.26512 
L 150.899505 145.137243 
L 150.995003 145.187256 
L 151.1096 145.204894 
L 151.357895 144.366074 
L 151.396094 144.413972 
L 151.415194 144.436075 
L 151.606189 143.607424 
L 151.625289 143.615874 
L 151.701687 143.563068 
L 151.835384 143.309766 
L 151.911783 143.364994 
L 151.930882 143.277751 
L 152.04548 142.832539 
L 152.064579 142.838782 
L 152.102778 142.678852 
L 152.312874 142.085062 
L 152.427471 142.184466 
L 152.446571 142.134787 
L 152.675765 141.06076 
L 152.694865 141.083981 
L 152.713965 141.089411 
L 152.847662 139.969053 
L 152.885861 139.99211 
L 152.962259 140.079537 
L 153.038657 140.053525 
L 153.057757 139.934279 
L 153.153255 139.976206 
L 153.172354 139.952056 
L 153.286952 138.406327 
L 153.325151 138.419132 
L 153.401549 138.197716 
L 153.516147 138.267363 
L 153.726242 138.330491 
L 153.840839 137.766761 
L 153.859939 137.769317 
L 153.955437 137.581492 
L 154.070034 137.496033 
L 154.108233 137.541842 
L 154.127333 137.435345 
L 154.146433 137.446672 
L 154.948615 136.177769 
L 154.967714 136.192007 
L 155.17781 135.517557 
L 155.196909 135.556991 
L 155.254208 135.585767 
L 155.292407 135.509929 
L 155.330606 135.541328 
L 155.693498 133.357954 
L 155.731697 133.32857 
L 155.769896 133.390429 
L 155.827195 133.470054 
L 155.865394 133.369934 
L 155.903593 133.129968 
L 156.05639 132.479864 
L 156.419282 131.569364 
L 156.533879 131.636607 
L 156.552979 131.66225 
L 156.591178 131.631119 
L 156.782174 131.260782 
L 156.801273 131.273662 
L 156.820373 131.155695 
L 156.95407 131.12318 
L 157.030468 131.164155 
L 157.049568 131.115494 
L 157.202364 130.982986 
L 157.488858 130.921643 
L 157.718053 129.914042 
L 157.756252 129.931873 
L 157.775352 129.949127 
L 157.794451 129.889118 
L 157.947248 129.4333 
L 158.100044 129.535008 
L 158.119144 129.485446 
L 158.176443 129.577254 
L 158.252841 129.621094 
L 158.405637 128.820788 
L 158.424737 128.856002 
L 158.482036 128.880405 
L 158.501135 128.843382 
L 158.711231 128.372435 
L 158.902226 128.356649 
L 158.940426 128.395613 
L 158.959525 128.278229 
L 159.112322 127.816172 
L 159.131421 127.812104 
L 159.284218 127.131188 
L 159.398815 126.933792 
L 159.475214 126.68229 
L 159.532512 126.738723 
L 159.62801 126.771215 
L 159.666209 126.737737 
L 159.685309 126.724707 
L 159.857205 125.292613 
L 159.952703 125.325842 
L 160.124599 125.127968 
L 160.162798 125.059989 
L 160.372893 125.304138 
L 160.754885 122.975021 
L 160.793084 123.037609 
L 160.812184 123.073598 
L 160.831283 122.979801 
L 160.869482 122.982696 
L 160.926781 122.855598 
L 160.98408 122.935217 
L 161.251474 123.214183 
L 161.480669 122.836777 
L 161.499768 122.847078 
L 161.595266 122.846868 
L 161.767162 122.486181 
L 161.843561 122.441655 
L 162.072756 121.768596 
L 162.110955 121.833299 
L 162.168253 121.797577 
L 162.244652 121.862209 
L 162.378349 121.677656 
L 162.397448 121.690196 
L 162.416548 121.583041 
L 162.588444 121.442895 
L 162.626643 121.465165 
L 162.645743 121.362897 
L 162.76034 121.383075 
L 162.817639 121.424245 
L 162.951336 121.04665 
L 162.989535 121.092478 
L 163.027734 121.053662 
L 163.19963 120.663838 
L 163.21873 120.69039 
L 163.256929 120.620274 
L 163.524323 119.15982 
L 163.619821 118.437449 
L 163.65802 118.447007 
L 163.772618 118.472204 
L 163.925414 117.850918 
L 164.078211 117.908381 
L 164.09731 117.860144 
L 164.154609 117.957881 
L 164.498401 118.304575 
L 164.632098 117.822352 
L 164.670297 117.778678 
L 164.746696 117.822588 
L 164.765795 117.854102 
L 164.784895 117.763385 
L 164.803994 117.761934 
L 164.956791 117.457133 
L 165.052289 117.473075 
L 165.205086 117.071162 
L 165.243285 117.069191 
L 165.376982 116.699679 
L 165.43428 116.563618 
L 165.45338 116.396194 
L 165.548878 116.471322 
L 165.682575 116.52619 
L 165.91177 115.555439 
L 165.930869 115.558489 
L 165.969068 115.299965 
L 166.026367 115.067709 
L 166.102765 115.183962 
L 166.370159 115.294829 
L 166.389259 115.244355 
L 166.618454 114.350693 
L 166.713952 114.480411 
L 166.828549 114.365966 
L 166.885848 114.432153 
L 166.981346 114.330754 
L 167.000445 114.237281 
L 167.076844 114.340262 
L 167.24874 114.470486 
L 167.535233 114.124375 
L 167.554333 114.154918 
L 167.592532 114.072981 
L 168.203719 112.69558 
L 168.241918 112.722289 
L 168.261017 112.734158 
L 168.280117 112.615925 
L 168.375615 112.369009 
L 168.60481 111.274836 
L 168.662108 111.307259 
L 168.719407 111.314866 
L 168.738507 111.352957 
L 168.795805 111.3918 
L 168.948602 110.880178 
L 169.005901 110.951436 
L 169.025 110.808118 
L 169.196896 110.399889 
L 169.215996 110.408166 
L 169.368792 110.457503 
L 169.521589 110.500116 
L 169.559788 110.47748 
L 169.693485 110.291188 
L 169.808083 110.305205 
L 170.209174 110.009418 
L 170.36197 109.690664 
L 170.419269 109.716659 
L 170.457468 109.651707 
L 170.572066 109.15822 
L 170.591165 109.183715 
L 170.648464 109.09225 
L 170.934957 108.083597 
L 171.030455 108.186284 
L 171.106854 108.267591 
L 171.125953 108.190719 
L 171.374248 107.886594 
L 171.393347 107.901854 
L 171.412447 107.850297 
L 171.73714 106.909905 
L 171.756239 106.911428 
L 171.947235 106.082082 
L 172.386525 105.999077 
L 172.711218 105.095926 
L 172.883114 105.06313 
L 173.05501 104.790292 
L 173.112309 104.852764 
L 173.207807 104.912905 
L 173.322404 104.906057 
L 173.627997 103.858255 
L 173.647097 103.893253 
L 173.876292 103.500579 
L 173.990889 103.237154 
L 174.086387 103.096377 
L 174.162785 102.403571 
L 174.220084 102.411349 
L 174.449279 100.896173 
L 174.544777 100.99499 
L 174.678474 101.010477 
L 174.85037 100.420033 
L 174.888569 100.449771 
L 175.079565 100.555735 
L 175.175063 100.379643 
L 175.232361 100.417997 
L 175.327859 100.383604 
L 175.346959 100.42048 
L 175.576154 100.539571 
L 175.709851 100.460216 
L 175.862647 100.007023 
L 176.20644 99.09427 
L 176.244639 99.136667 
L 176.282838 99.202956 
L 176.321037 99.128926 
L 176.416535 98.477487 
L 176.703029 97.533056 
L 176.779427 97.561598 
L 176.989522 97.762036 
L 177.142319 97.377804 
L 177.428812 97.552336 
L 178.116397 96.938371 
L 178.135497 96.972313 
L 178.230994 96.974461 
L 178.460189 96.123377 
L 178.555687 95.701458 
L 178.612986 95.280864 
L 178.689384 95.353458 
L 179.052276 95.814725 
L 179.224172 95.450883 
L 179.281471 95.496058 
L 179.472467 95.564517 
L 179.529765 95.602276 
L 179.548865 95.506116 
L 179.663462 95.375479 
L 179.701662 95.415974 
L 179.77806 95.411369 
L 179.988155 95.082716 
L 180.140952 95.141223 
L 180.274649 94.84211 
L 180.484744 94.575269 
L 180.503844 94.603328 
L 180.694839 93.567882 
L 180.847636 93.380799 
L 181.000433 92.981632 
L 181.038632 92.999536 
L 181.172329 92.744534 
L 181.210528 92.788345 
L 181.325125 92.950724 
L 181.344225 92.832516 
L 181.363324 92.77858 
L 181.439723 92.818713 
L 181.458822 92.843024 
L 181.497021 92.725179 
L 181.535221 92.76134 
L 181.630718 92.512312 
L 181.668918 92.571156 
L 181.745316 92.652491 
L 181.802615 92.585064 
L 181.936312 92.54376 
L 181.955411 92.494934 
L 182.050909 92.535915 
L 182.146407 92.560102 
L 182.184606 92.602237 
L 182.241905 92.553255 
L 182.337403 92.455338 
L 182.375602 92.470758 
L 182.719394 92.198337 
L 182.853091 92.284454 
L 182.872191 92.248527 
L 183.101386 91.947276 
L 183.158684 91.992671 
L 183.196883 92.042999 
L 183.235083 91.939406 
L 183.655273 90.234289 
L 183.731672 90.320794 
L 183.941767 90.507314 
L 184.056364 89.875741 
L 184.151862 89.931682 
L 184.190061 89.871668 
L 184.24736 89.909758 
L 184.361957 89.595618 
L 184.381057 89.63127 
L 184.476555 89.634917 
L 184.648451 89.263689 
L 184.973144 88.480234 
L 185.240538 88.823527 
L 185.374235 88.730936 
L 185.412434 88.635145 
L 185.58433 88.309067 
L 185.775326 88.245665 
L 185.928122 87.939183 
L 185.947222 87.969557 
L 186.119118 86.774868 
L 186.233716 86.720943 
L 186.252815 86.684123 
L 186.329213 86.775635 
L 186.462911 86.820026 
L 186.711205 85.90749 
L 186.730305 85.934683 
L 186.749404 85.965659 
L 186.883101 85.283162 
L 187.131396 84.995616 
L 187.150495 85.028494 
L 187.245993 85.177326 
L 187.265093 85.104343 
L 187.39879 84.874996 
L 187.456088 84.812435 
L 187.627984 84.371304 
L 187.799881 84.610277 
L 187.857179 84.686076 
L 187.895378 84.598384 
L 188.659361 83.713495 
L 188.793058 83.50844 
L 188.869457 83.453834 
L 188.907656 83.251431 
L 188.984054 83.316526 
L 189.404245 83.677398 
L 189.767137 82.690708 
L 189.958132 82.915574 
L 189.996332 82.850175 
L 190.244626 82.574603 
L 190.454721 82.636957 
L 190.683916 81.498714 
L 190.703016 81.520973 
L 190.760314 81.499789 
L 190.798514 81.567623 
L 191.027709 81.965035 
L 191.085007 81.880982 
L 191.104107 81.788625 
L 191.199605 81.821731 
L 191.3906 81.490623 
L 191.466999 81.557677 
L 191.543397 81.569898 
L 191.562497 81.493197 
L 191.600696 81.533644 
L 191.753492 81.140155 
L 191.772592 81.126451 
L 191.925388 80.634884 
L 192.020886 80.155509 
L 192.211882 79.347671 
L 192.30738 79.463927 
L 192.536575 79.70271 
L 193.071363 78.840372 
L 193.415155 78.9794 
L 193.434255 78.930443 
L 193.911744 78.679978 
L 194.064541 78.175662 
L 194.08364 78.192025 
L 194.217337 78.00486 
L 194.503831 77.863438 
L 194.52293 77.896754 
L 194.637528 77.952169 
L 194.656627 77.871065 
L 194.733026 77.976753 
L 194.771225 78.018078 
L 194.790324 77.884699 
L 195.172316 77.907216 
L 195.382411 78.060168 
L 195.840801 77.944881 
L 195.859901 77.962144 
L 195.879 77.759767 
L 195.974498 77.898556 
L 196.108195 78.007127 
L 196.280091 77.133633 
L 196.31829 77.183472 
L 196.375589 76.993413 
L 196.451987 77.071916 
L 196.700282 77.467008 
L 196.77668 77.286799 
L 196.891277 77.13783 
L 197.044074 76.732545 
L 197.578862 76.584532 
L 197.67436 76.175295 
L 197.712559 76.189865 
L 197.731659 76.211243 
L 197.769858 76.093304 
L 197.788957 76.118869 
L 197.960854 76.138278 
L 198.037252 76.184907 
L 198.056351 76.090116 
L 198.266447 75.64871 
L 198.476542 75.809661 
L 198.57204 75.874335 
L 198.591139 75.813004 
L 199.202326 75.66645 
L 199.412421 75.729968 
L 199.45062 75.748678 
L 199.46972 75.685353 
L 199.488819 75.714551 
L 199.622516 75.5778 
L 199.737114 75.518908 
L 199.756213 75.54179 
L 199.832612 75.552206 
L 199.851711 75.526219 
L 200.100006 75.260151 
L 200.271902 74.907239 
L 200.291002 74.931556 
L 200.310101 74.871928 
L 200.329201 74.892171 
L 200.405599 74.724255 
L 200.462898 74.769607 
L 201.035885 74.495967 
L 201.150482 74.573347 
L 201.169582 74.488213 
L 201.26508 74.379172 
L 201.398777 74.135945 
L 201.417876 74.157655 
L 201.456075 74.127423 
L 201.608872 73.75444 
L 201.666171 73.779664 
L 201.68527 73.723184 
L 201.70437 73.632054 
L 201.780768 73.702243 
L 202.048162 73.810938 
L 202.16276 73.785137 
L 202.334656 73.778038 
L 202.58295 73.315457 
L 202.621149 73.353416 
L 202.640249 73.379736 
L 202.716647 73.313285 
L 202.812145 73.259857 
L 202.888543 72.956861 
L 202.926743 72.988826 
L 203.327834 73.132417 
L 203.461531 72.684304 
L 203.48063 72.697898 
L 203.537929 72.727677 
L 203.557029 72.70171 
L 203.671626 72.47556 
L 203.690726 72.507002 
L 203.767124 72.473255 
L 203.91992 72.300422 
L 204.091817 72.364537 
L 204.168215 72.319686 
L 204.359211 71.909493 
L 204.39741 71.953441 
L 204.454708 71.861845 
L 204.492908 71.710889 
L 204.664804 71.246407 
L 204.779401 71.303475 
L 204.989497 71.438402 
L 205.027696 71.384699 
L 205.084994 71.215068 
L 205.142293 71.277765 
L 205.29509 71.300191 
L 205.409687 71.097987 
L 205.447886 71.117924 
L 205.638882 70.566789 
L 205.71528 70.614467 
L 205.829878 70.610963 
L 206.020873 69.917699 
L 206.078172 69.976396 
L 206.17367 70.077453 
L 206.383765 70.402113 
L 206.421965 70.338521 
L 206.555662 70.306937 
L 207.128649 70.113798 
L 207.147748 70.139348 
L 207.166848 70.071733 
L 207.224147 70.068658 
L 207.96903 68.399863 
L 208.007229 68.433896 
L 208.160026 68.536963 
L 208.179125 68.520276 
L 208.274623 68.375128 
L 208.389221 68.01101 
L 208.40832 68.028719 
L 208.484718 67.997989 
L 208.522918 68.051189 
L 209.057706 68.15553 
L 209.134104 67.827409 
L 209.210502 67.910631 
L 209.248701 67.961087 
L 209.3251 67.899696 
L 209.573394 67.655023 
L 209.707091 67.446516 
L 209.726191 67.474431 
L 209.76439 67.38538 
L 209.898087 67.216207 
L 209.936286 67.263674 
L 210.050883 67.307034 
L 210.069983 67.250337 
L 210.146381 67.328569 
L 210.394676 67.386135 
L 210.547472 67.375664 
L 210.948563 67.518983 
L 211.483351 66.318265 
L 211.693447 66.463367 
L 211.712546 66.447752 
L 211.903542 66.403079 
L 211.960841 66.273996 
L 212.018139 66.355936 
L 212.342832 66.596214 
L 212.361932 66.479916 
L 212.686625 66.459618 
L 212.801222 66.598857 
L 212.820322 66.58114 
L 212.973118 66.303888 
L 213.030417 66.300159 
L 213.259612 65.513706 
L 213.297811 65.570741 
L 213.507906 65.694492 
L 213.889898 65.692048 
L 214.023595 65.823581 
L 214.042694 65.80307 
L 214.310088 65.224859 
L 214.348287 65.121881 
L 214.501084 64.994512 
L 214.520184 65.021879 
L 214.67298 65.029597 
L 214.806677 64.816946 
L 215.169569 64.260925 
L 215.226868 64.323396 
L 215.379664 64.344486 
L 215.398764 64.361584 
L 215.417863 64.275606 
L 215.647058 63.608162 
L 215.933552 63.391217 
L 215.952652 63.40788 
L 216.200946 63.590959 
L 216.277344 63.541887 
L 216.296444 63.383618 
L 216.391942 63.431787 
L 216.716634 63.542926 
L 217.003128 63.583743 
L 217.175024 63.709182 
L 217.194124 63.673634 
L 217.251423 63.563042 
L 217.38512 63.483875 
L 217.576115 63.543117 
L 217.748011 62.968422 
L 217.82441 62.738874 
L 217.900808 62.77937 
L 218.053605 62.836367 
L 218.072704 62.864915 
L 218.110903 62.746382 
L 218.168202 62.772615 
L 218.301899 62.608726 
L 218.359198 62.490221 
L 218.397397 62.284784 
L 218.473795 62.354748 
L 218.874886 62.646936 
L 219.180479 62.341905 
L 219.333276 62.368607 
L 219.352376 62.321609 
L 219.428774 62.373122 
L 219.562471 62.415181 
L 219.657969 62.191012 
L 219.696168 62.214821 
L 219.906263 61.958656 
L 219.963562 62.006363 
L 220.173657 62.096276 
L 220.269155 62.126251 
L 220.326454 62.161209 
L 220.345553 62.07767 
L 220.364653 62.021573 
L 220.441051 62.073805 
L 220.460151 62.102659 
L 220.536549 62.026688 
L 220.574748 62.051414 
L 220.593848 62.007291 
L 220.689346 61.697621 
L 220.765744 61.743027 
L 220.842142 61.79255 
L 220.861242 61.759878 
L 220.918541 61.58187 
L 220.994939 61.627165 
L 221.014038 61.649013 
L 221.052238 61.579378 
L 221.243233 61.1315 
L 221.472428 61.296927 
L 221.548826 61.238753 
L 221.663424 61.130757 
L 221.739822 61.121472 
L 221.701623 61.08789 
L 221.758922 61.080523 
L 221.797121 60.987335 
L 221.873519 61.036259 
L 222.160013 61.297391 
L 222.217312 61.213708 
L 222.331909 61.303083 
L 222.637502 61.408152 
L 222.771199 61.152191 
L 222.809398 61.194744 
L 223.325087 61.296533 
L 223.382386 61.353003 
L 223.516083 61.091042 
L 223.726178 60.766526 
L 223.936273 60.903029 
L 223.955373 60.854346 
L 224.050871 60.910448 
L 224.08907 60.943605 
L 224.127269 60.743412 
L 224.203667 60.775205 
L 224.50926 61.006705 
L 224.795754 60.897568 
L 224.814854 60.644961 
L 224.910351 60.709955 
L 225.005849 60.58653 
L 225.215945 60.365245 
L 225.368741 60.090097 
L 225.559737 60.152775 
L 225.769832 60.191501 
L 226.037226 60.339417 
L 227.259599 60.000395 
L 227.297798 59.960912 
L 227.355097 60.013619 
L 227.584292 60.200772 
L 227.603391 60.168727 
L 227.870785 59.666806 
L 227.908984 59.698767 
L 228.138179 59.86999 
L 228.367374 60.021734 
L 228.405573 60.025908 
L 228.424673 59.94234 
L 228.577469 59.838295 
L 229.150457 58.88915 
L 229.226855 58.85691 
L 229.265054 58.904434 
L 229.513349 59.107685 
L 229.532448 59.092356 
L 229.589747 59.172351 
L 229.761643 59.316665 
L 229.780743 59.268795 
L 229.952639 58.8652 
L 229.971738 58.871989 
L 230.200933 58.92225 
L 230.239132 58.966305 
L 230.277331 58.845074 
L 230.430128 58.86637 
L 230.621124 58.482192 
L 230.79302 58.396514 
L 230.964916 58.425269 
L 231.117713 58.129986 
L 231.136812 58.1503 
L 231.270509 58.205792 
L 231.289609 58.144449 
L 231.346908 58.064023 
L 231.404206 58.145084 
L 231.537903 58.154483 
L 231.633401 57.844819 
L 231.6716 57.896573 
L 232.015393 58.138962 
L 232.034492 58.101758 
L 232.11089 58.003244 
L 232.14909 58.048202 
L 232.301886 58.214161 
L 232.340085 58.124177 
L 232.511982 57.800509 
L 232.683878 57.971095 
L 232.855774 58.178629 
L 232.913073 58.134223 
L 232.989471 58.039618 
L 233.084969 58.052141 
L 233.123168 58.065573 
L 233.142267 57.984158 
L 233.161367 57.972927 
L 233.295064 57.556644 
L 233.333263 57.609193 
L 233.562458 57.813222 
L 233.581558 57.706107 
L 233.619757 57.684065 
L 233.657956 57.741681 
L 233.848952 57.873267 
L 233.982649 57.829416 
L 234.001748 57.850201 
L 234.288242 57.94703 
L 234.345541 57.911853 
L 234.38374 57.954837 
L 234.460138 57.949422 
L 234.536536 57.685762 
L 234.612935 57.721603 
L 234.918528 57.673914 
L 234.975826 57.718925 
L 234.994926 57.61944 
L 235.224121 57.422463 
L 235.24322 57.298506 
L 235.338718 57.382453 
L 235.376917 57.376509 
L 235.434216 57.439661 
L 235.567913 57.58684 
L 235.587013 57.562568 
L 235.739809 57.14214 
L 235.835307 57.220189 
L 236.16 57.441255 
L 236.1791 57.400687 
L 236.331896 57.328197 
L 236.408294 57.194998 
L 236.484693 57.233512 
L 236.943083 57.528825 
L 237.191377 57.356379 
L 237.305974 57.385234 
L 237.611568 57.488368 
L 237.783464 57.556838 
L 238.280053 57.772763 
L 239.387828 56.827515 
L 239.483326 56.810382 
L 239.502425 56.793042 
L 239.597923 56.703867 
L 239.73162 56.589059 
L 240.113612 56.773341 
L 240.323707 56.386718 
L 240.400105 56.470932 
L 240.591101 56.601664 
L 240.6293 56.56281 
L 240.686599 56.497094 
L 240.743898 56.436014 
L 240.801196 56.489941 
L 241.106789 56.589927 
L 241.144989 56.459275 
L 241.221387 56.489007 
L 241.259586 56.455499 
L 241.431482 56.608723 
L 241.908972 56.756456 
L 242.252764 56.956865 
L 242.348262 56.843818 
L 242.367361 56.864744 
L 242.615656 56.998276 
L 242.634755 56.936187 
L 242.730253 56.843136 
L 242.768452 56.876994 
L 242.86395 56.799472 
L 242.997647 56.746044 
L 243.398738 56.646078 
L 243.551535 56.532787 
L 243.570634 56.546728 
L 243.799829 56.609009 
L 243.952626 56.702383 
L 244.086323 56.526208 
L 244.124522 56.559819 
L 244.181821 56.493699 
L 244.239119 56.406578 
L 244.296418 56.428312 
L 244.468314 56.508542 
L 244.582912 56.51946 
L 244.926704 56.70562 
L 245.251397 56.547661 
L 245.461492 56.645769 
L 245.614289 56.654666 
L 245.633388 56.561945 
L 245.728886 56.644215 
L 245.824384 56.551073 
L 246.034479 56.296577 
L 246.187276 56.313046 
L 246.263674 56.264332 
L 246.416471 55.953215 
L 246.45467 55.982507 
L 246.645666 56.075411 
L 246.817562 55.967813 
L 246.91306 56.020557 
L 246.989458 56.019077 
L 247.008558 55.964737 
L 247.295051 56.178884 
L 247.638844 56.198082 
L 247.79164 56.204762 
L 247.906238 56.240978 
L 247.925337 56.258644 
L 247.944437 56.199057 
L 247.982636 56.185842 
L 248.020835 56.200042 
L 248.097233 55.972219 
L 248.135432 55.998307 
L 248.536523 55.964951 
L 248.612922 55.665134 
L 248.67022 55.712167 
L 248.842117 55.761593 
L 249.014013 55.802775 
L 249.166809 55.618772 
L 249.205009 55.646677 
L 249.797095 55.766524 
L 249.911693 55.732319 
L 250.064489 55.659113 
L 250.179087 55.634762 
L 250.656576 55.617344 
L 250.828472 55.35437 
L 250.885771 55.305961 
L 250.92397 55.357111 
L 251.153165 55.513815 
L 251.172265 55.480687 
L 251.305962 55.468618 
L 251.592455 55.715648 
L 251.649754 55.61639 
L 251.80255 55.51047 
L 252.108144 55.4013 
L 252.356438 55.515604 
L 252.413737 55.443431 
L 252.451936 55.38458 
L 252.528334 55.450562 
L 252.642932 55.281276 
L 252.70023 55.117266 
L 252.757529 55.147225 
L 252.795728 55.184269 
L 252.853027 55.084721 
L 253.17772 54.944535 
L 253.349616 54.622782 
L 253.387815 54.645031 
L 253.846205 54.915362 
L 253.960802 54.866291 
L 253.979902 54.890942 
L 254.304595 55.040819 
L 254.400092 55.106758 
L 254.51469 54.973286 
L 254.533789 54.892592 
L 254.629287 54.970105 
L 254.762984 54.983609 
L 255.144976 54.909923 
L 255.39327 54.933625 
L 255.622465 54.937582 
L 255.660664 54.786964 
L 255.737063 54.859627 
L 255.966257 54.995278 
L 256.138154 54.982826 
L 256.692041 55.140647 
L 257.016734 55.17726 
L 257.18863 55.228929 
L 257.551522 55.337668 
L 257.742518 55.239426 
L 257.761617 55.257831 
L 257.914414 55.239906 
L 257.933513 55.203602 
L 258.009912 55.283792 
L 258.06721 55.204965 
L 258.10541 55.252754 
L 258.162708 55.201446 
L 258.220007 55.236355 
L 258.315505 55.14524 
L 258.391903 55.110318 
L 258.430102 55.141138 
L 258.582899 55.168025 
L 258.850293 55.216621 
L 259.079488 54.82441 
L 259.385081 54.926734 
L 259.42328 54.795366 
L 259.499678 54.86727 
L 259.633375 54.808685 
L 259.652475 54.821703 
L 259.709774 54.827356 
L 259.843471 54.693065 
L 260.015367 54.492782 
L 260.053566 54.526306 
L 260.874848 54.591563 
L 261.524233 54.875963 
L 261.772528 54.942555 
L 261.982623 54.81856 
L 262.154519 54.672178 
L 262.230917 54.720978 
L 262.250017 54.627905 
L 262.441013 54.457802 
L 262.784805 54.605148 
L 263.166797 54.470494 
L 263.185896 54.415528 
L 263.262294 54.470349 
L 263.567888 54.586656 
L 263.701585 54.543791 
L 263.854381 54.629298 
L 263.949879 54.511726 
L 263.988078 54.539047 
L 264.140875 54.531096 
L 264.465567 54.569425 
L 264.541966 54.569894 
L 264.580165 54.613788 
L 264.771161 54.696905 
L 265.000356 54.663267 
L 265.114953 54.410393 
L 265.210451 54.301266 
L 265.22955 54.321309 
L 265.496944 54.433893 
L 265.630641 54.350984 
L 265.821637 54.370166 
L 265.917135 54.420117 
L 266.14633 54.491227 
L 266.280027 54.39028 
L 266.299127 54.401602 
L 266.413724 54.387498 
L 266.528321 54.252736 
L 266.566521 54.276925 
L 266.642919 54.247398 
L 266.662018 54.203426 
L 266.795715 54.251521 
L 267.120408 54.343626 
L 267.158607 54.281322 
L 267.235006 54.344843 
L 267.445101 54.411729 
L 267.578798 54.447563 
L 267.655196 54.438532 
L 267.769794 54.331522 
L 267.788893 54.351264 
L 267.979889 54.419179 
L 268.151785 54.437921 
L 268.323681 54.395302 
L 268.552876 54.464088 
L 268.743872 54.525607 
L 269.29776 54.354014 
L 269.355058 54.384918 
L 269.393257 54.305246 
L 269.488755 54.244827 
L 269.565154 54.07976 
L 269.603353 54.111377 
L 269.947145 54.362741 
L 270.271838 54.540096 
L 270.424634 54.528969 
L 270.978522 54.779075 
L 271.093119 54.620314 
L 271.131319 54.657544 
L 271.207717 54.601969 
L 271.245916 54.531588 
L 271.322314 54.583297 
L 271.551509 54.647204 
L 271.914401 54.626985 
L 272.162696 54.678123 
L 272.258193 54.701873 
L 272.277293 54.725523 
L 272.697484 54.91115 
L 272.773882 54.814771 
L 272.812081 54.846487 
L 272.926678 54.789966 
L 273.098575 54.701898 
L 273.327769 54.860657 
L 273.365969 54.798416 
L 273.671562 54.725241 
L 274.034454 54.923266 
L 274.149051 54.94638 
L 274.511943 55.173997 
L 276.784792 55.264903 
L 276.88029 55.214143 
L 276.918489 55.239609 
L 277.147684 55.300485 
L 277.281381 55.279084 
L 277.663373 55.166539 
L 277.75887 55.093975 
L 277.79707 55.118743 
L 278.083563 55.321142 
L 278.121762 55.24873 
L 278.370057 55.224679 
L 278.962144 55.710746 
L 279.019442 55.612989 
L 279.11494 55.509839 
L 279.153139 55.543938 
L 279.439633 55.604477 
L 279.668828 55.631257 
L 279.993521 55.821205 
L 280.050819 55.79906 
L 280.108118 55.843168 
L 280.241815 55.866291 
L 280.432811 55.935597 
L 281.769781 56.459268 
L 281.82708 56.398548 
L 281.884378 56.453517 
L 282.018075 56.444259 
L 282.132673 56.341389 
L 282.151772 56.357396 
L 282.304569 56.369079 
L 282.476465 56.226618 
L 282.591062 56.249841 
L 282.762959 56.294587 
L 283.526942 56.216026 
L 283.756136 56.367332 
L 283.832535 56.26617 
L 283.870734 56.29118 
L 284.749314 56.578697 
L 284.863912 56.550159 
L 285.054907 56.614495 
L 285.417799 56.485455 
L 286.028986 56.585924 
L 286.659272 56.715376 
L 287.003064 56.989657 
L 287.079462 56.912593 
L 287.117661 56.931514 
L 287.423255 57.013797 
L 289.466909 57.632786 
L 289.581506 57.548578 
L 289.600606 57.564451 
L 290.116294 57.502169 
L 290.135394 57.430936 
L 290.211792 57.493031 
L 290.517385 57.678119 
L 290.631983 57.523929 
L 290.689282 57.559543 
L 291.319567 57.734148 
L 291.64426 57.898877 
L 291.66336 57.866138 
L 291.816156 57.808106 
L 292.08355 57.905885 
L 292.159949 57.944738 
L 292.217247 57.876937 
L 292.389144 57.834917 
L 292.484641 57.786312 
L 292.599239 57.61123 
L 292.637438 57.630159 
L 293.305923 57.844441 
L 293.382321 57.79686 
L 293.42052 57.838179 
L 294.891188 57.91703 
L 294.929387 57.860702 
L 295.005785 57.913298 
L 295.578772 58.021329 
L 295.69337 57.888346 
L 295.712469 57.901763 
L 295.884365 57.870973 
L 296.018062 57.846825 
L 296.304556 57.920407 
L 296.514651 57.984031 
L 296.667448 58.056422 
L 296.915742 58.097077 
L 297.221336 58.257857 
L 297.584227 58.463953 
L 297.737024 58.51209 
L 298.119015 58.61752 
L 298.252713 58.686505 
L 298.730202 58.823094 
L 298.787501 58.769777 
L 298.844799 58.811264 
L 298.940297 58.894096 
L 298.978496 58.813087 
L 299.26499 58.717161 
L 299.360488 58.702328 
L 299.532384 58.530349 
L 299.666081 58.549253 
L 299.952575 58.743376 
L 299.971674 58.684837 
L 300.200869 58.836004 
L 300.296367 58.863964 
L 300.315466 58.841587 
L 300.487363 58.657067 
L 300.525562 58.694507 
L 300.58286 58.617716 
L 300.697458 58.456592 
L 300.716557 58.473802 
L 301.003051 58.620922 
L 301.213146 58.61819 
L 301.327744 58.604061 
L 301.346843 58.623944 
L 301.805233 58.939761 
L 301.843432 58.82695 
L 301.996229 58.659908 
L 302.244523 58.698219 
L 302.531017 58.83761 
L 302.798411 58.843479 
L 302.817511 58.774009 
L 302.913008 58.818957 
L 303.027606 58.820861 
L 303.390498 58.997747 
L 303.505095 58.967175 
L 303.524195 58.985383 
L 303.791589 59.120458 
L 303.906186 59.106244 
L 304.345476 59.252982 
L 304.975762 59.384283 
L 305.09036 59.374573 
L 305.395953 59.507458 
L 305.52965 59.48655 
L 305.873442 59.55015 
L 306.255434 59.663413 
L 306.312732 59.603202 
L 306.370031 59.640488 
L 306.809321 59.864457 
L 308.108092 60.123787 
L 308.260889 60.122357 
L 309.158569 60.307615 
L 309.483262 60.295329 
L 309.674257 60.329742 
L 309.865253 60.394949 
L 310.323643 60.593377 
L 310.782033 60.624598 
L 310.91573 60.648531 
L 311.125825 60.701584 
L 311.33592 60.601568 
L 311.622414 60.725803 
L 311.737011 60.749387 
L 311.79431 60.653118 
L 311.851609 60.674417 
L 312.176301 60.748768 
L 312.481895 60.784731 
L 312.577392 60.789822 
L 312.596492 60.808539 
L 313.15038 61.027617 
L 313.264977 61.03988 
L 313.455973 61.178588 
L 313.704267 61.23357 
L 313.799765 61.149696 
L 313.990761 61.23297 
L 314.258155 61.201801 
L 314.410951 61.200937 
L 314.754744 61.302596 
L 314.888441 61.037986 
L 315.022138 61.046182 
L 315.232233 61.117587 
L 315.537826 61.087206 
L 315.747922 61.204196 
L 315.786121 61.142765 
L 316.072614 60.857624 
L 316.091714 60.876336 
L 316.359108 60.983149 
L 317.810675 61.414512 
L 318.001671 61.386736 
L 318.07807 61.28453 
L 318.116269 61.306062 
L 318.345464 61.369522 
L 318.51736 61.364129 
L 318.612858 61.313148 
L 318.631957 61.328822 
L 318.765654 61.30736 
L 319.033048 61.35977 
L 319.39594 61.418997 
L 319.758832 61.545319 
L 320.045326 61.618405 
L 320.27452 61.622844 
L 320.427317 61.538352 
L 320.73291 61.622394 
L 320.943005 61.645939 
L 321.305897 61.695246 
L 321.324997 61.640297 
L 321.420495 61.673729 
L 321.783387 61.65532 
L 322.012582 61.705065 
L 322.050781 61.567816 
L 322.127179 61.612933 
L 322.241776 61.648505 
L 322.299075 61.525538 
L 322.356374 61.559263 
L 322.52827 61.546746 
L 322.623768 61.445085 
L 322.642868 61.460212 
L 322.910262 61.603758 
L 322.929361 61.575806 
L 323.196755 61.601846 
L 323.292253 61.644915 
L 323.330452 61.58887 
L 323.44505 61.603485 
L 323.655145 61.624558 
L 323.86524 61.731656 
L 324.075335 61.778477 
L 324.30453 61.779783 
L 324.610124 61.912982 
L 324.820219 61.878957 
L 325.278609 62.138492 
L 325.431405 62.069988 
L 325.584202 62.086583 
L 325.603301 62.056063 
L 326.004392 62.1821 
L 326.252687 62.223021 
L 326.386384 62.168646 
L 326.672877 62.249915 
L 326.768375 62.222221 
L 326.787475 62.236276 
L 328.79293 62.703069 
L 329.346818 62.776225 
L 329.480515 62.740952 
L 329.633311 62.74965 
L 329.862506 62.71453 
L 330.1299 62.52747 
L 330.206298 62.471984 
L 330.244498 62.486197 
L 330.56919 62.607315 
L 330.779286 62.52115 
L 331.161277 62.658273 
L 331.237675 62.60429 
L 331.275875 62.63383 
L 331.619667 62.708623 
L 331.848862 62.772687 
L 332.135355 62.883944 
L 332.460048 63.022976 
L 332.82294 62.951342 
L 333.147633 63.02603 
L 333.663321 63.157287 
L 334.045313 63.223827 
L 334.217209 63.309481 
L 334.675599 63.537654 
L 334.732897 63.499608 
L 334.790196 63.540372 
L 335.095789 63.690351 
L 335.133988 63.598858 
L 335.210387 63.628066 
L 335.344084 63.571667 
L 335.401382 63.538924 
L 335.458681 63.57447 
L 335.554179 63.51478 
L 335.687876 63.416363 
L 335.917071 63.474061 
L 336.050768 63.453921 
L 336.279963 63.49114 
L 336.432759 63.532008 
L 338.132621 63.78851 
L 338.457314 63.872607 
L 338.801106 64.034048 
L 338.934803 64.047259 
L 339.144899 64.100379 
L 339.316795 64.089091 
L 339.584189 64.175799 
L 339.698786 64.203118 
L 342.181731 64.451052 
L 342.372727 64.462392 
L 342.544623 64.488229 
L 342.754718 64.509365 
L 343.576 64.578418 
L 343.728796 64.453534 
L 343.843394 64.471195 
L 344.110788 64.543956 
L 344.244485 64.508765 
L 344.91297 64.682247 
L 345.027567 64.591016 
L 345.046667 64.596893 
L 345.715152 64.860631 
L 345.829749 64.743372 
L 345.848849 64.751338 
L 346.039845 64.789257 
L 346.364537 64.881407 
L 346.440936 64.863444 
L 346.479135 64.891153 
L 346.956624 64.986201 
L 347.109421 64.854553 
L 347.529611 64.889116 
L 347.930702 65.070046 
L 348.121698 65.099989 
L 348.255395 65.064982 
L 348.369993 65.096188 
L 348.694685 65.272586 
L 349.019378 65.417516 
L 349.324971 65.40715 
L 349.668764 65.483312 
L 349.802461 65.475777 
L 350.031655 65.506542 
L 350.184452 65.422831 
L 350.394547 65.448392 
L 350.490045 65.43922 
L 350.509145 65.45278 
L 350.814738 65.55999 
L 350.948435 65.553959 
L 351.63602 65.788118 
L 351.769717 65.812933 
L 352.438202 65.959226 
L 352.552799 65.943357 
L 352.820193 65.940975 
L 353.240384 65.794244 
L 353.507778 65.934129 
L 353.641475 65.802509 
L 354.405458 65.895468 
L 354.539155 65.900909 
L 355.112142 66.087787 
L 355.245839 66.087252 
L 355.551432 66.136225 
L 355.66603 66.16089 
L 355.933424 66.20537 
L 356.372714 66.24094 
L 357.213095 66.113432 
L 357.537788 66.132936 
L 357.766983 66.047345 
L 358.015277 66.107468 
L 358.187173 66.082861 
L 358.626463 66.231505 
L 359.638741 66.002096 
L 360.517321 66.086939 
L 360.631919 66.076472 
L 361.243105 66.224912 
L 362.236283 66.140054 
L 362.331781 66.012902 
L 362.389079 66.040364 
L 362.637374 66.10407 
L 362.79017 66.118412 
L 363.076664 66.198787 
L 363.573253 66.259483 
L 363.70695 66.244411 
L 364.16534 66.452813 
L 364.642829 66.534303 
L 364.833825 66.508516 
L 365.005721 66.506534 
L 365.330414 66.334105 
L 365.464111 66.264248 
L 365.48321 66.277479 
L 365.788803 66.389439 
L 365.9416 66.345314 
L 366.189894 66.406253 
L 367.106674 66.541747 
L 367.354968 66.577549 
L 367.603263 66.509306 
L 368.997532 66.732103 
L 369.570519 66.995349 
L 369.704216 66.912186 
L 369.95251 66.965132 
L 370.048008 66.932735 
L 370.067108 66.942966 
L 370.372701 66.975513 
L 370.697394 67.040553 
L 370.811991 66.930675 
L 370.831091 66.940493 
L 371.060286 66.924834 
L 371.213082 66.944103 
L 371.900667 67.155063 
L 372.053463 67.144775 
L 372.588251 67.306789 
L 372.721948 67.298873 
L 372.951143 67.343338 
L 373.791525 67.420478 
L 373.887022 67.412914 
L 373.906122 67.426291 
L 374.345412 67.511674 
L 374.708304 67.581807 
L 374.727404 67.531006 
L 374.822902 67.585099 
L 375.128495 67.621023 
L 375.243092 67.631469 
L 375.472287 67.678884 
L 375.605984 67.644047 
L 375.854278 67.680581 
L 376.007075 67.512144 
L 376.140772 67.42643 
L 376.503664 67.554534 
L 376.790158 67.535105 
L 377.172149 67.666871 
L 377.382244 67.676229 
L 377.821535 67.750138 
L 378.279924 67.687642 
L 378.661916 67.812652 
L 379.101206 67.88482 
L 379.254003 67.898035 
L 379.425899 67.899719 
L 379.655094 67.836349 
L 383.417709 68.343266 
L 383.570506 68.225336 
L 384.200792 68.288689 
L 384.487286 68.323512 
L 384.888377 68.467451 
L 385.022074 68.510735 
L 385.728758 68.620459 
L 385.881554 68.634553 
L 386.129849 68.674787 
L 386.301745 68.607168 
L 387.40952 68.825479 
L 387.505018 68.790301 
L 387.524118 68.800101 
L 387.734213 68.829508 
L 388.345399 68.914933 
L 388.555495 68.90906 
L 392.413608 69.797877 
L 392.891098 69.970701 
L 393.826977 70.222418 
L 394.189869 70.301118 
L 394.361765 70.356555 
L 394.648259 70.435408 
L 394.762856 70.370197 
L 394.781956 70.38076 
L 394.992051 70.418329 
L 395.202146 70.422566 
L 395.354943 70.351397 
L 395.813332 70.408825 
L 396.329021 70.56496 
L 397.589593 70.664204 
L 397.72329 70.614926 
L 398.009783 70.653063 
L 398.124381 70.681575 
L 398.487273 70.870046 
L 398.487273 70.870046 
" clip-path="url(#pa204ae92ab)" style="fill: none; stroke: #d62728; stroke-width: 1.5; stroke-linecap: square"/>
   </g>
   <g id="patch_3">
    <path d="M 57.6 307.584 
L 57.6 41.472 
" style="fill: none; stroke: #ffffff; stroke-linejoin: miter; stroke-linecap: square"/>
   </g>
   <g id="patch_4">
    <path d="M 414.72 307.584 
L 414.72 41.472 
" style="fill: none; stroke: #ffffff; stroke-linejoin: miter; stroke-linecap: square"/>
   </g>
   <g id="patch_5">
    <path d="M 57.6 307.584 
L 414.72 307.584 
" style="fill: none; stroke: #ffffff; stroke-linejoin: miter; stroke-linecap: square"/>
   </g>
   <g id="patch_6">
    <path d="M 57.6 41.472 
L 414.72 41.472 
" style="fill: none; stroke: #ffffff; stroke-linejoin: miter; stroke-linecap: square"/>
   </g>
   <g id="text_18">
    <!-- 2755.3725513265485 -->
    <g transform="translate(398.487273 70.870046) scale(0.1 -0.1)">
     <defs>
      <path id="DejaVuSans-2e" d="M 684 794 
L 1344 794 
L 1344 0 
L 684 0 
L 684 794 
z
" transform="scale(0.015625)"/>
      <path id="DejaVuSans-36" d="M 2113 2584 
Q 1688 2584 1439 2293 
Q 1191 2003 1191 1497 
Q 1191 994 1439 701 
Q 1688 409 2113 409 
Q 2538 409 2786 701 
Q 3034 994 3034 1497 
Q 3034 2003 2786 2293 
Q 2538 2584 2113 2584 
z
M 3366 4563 
L 3366 3988 
Q 3128 4100 2886 4159 
Q 2644 4219 2406 4219 
Q 1781 4219 1451 3797 
Q 1122 3375 1075 2522 
Q 1259 2794 1537 2939 
Q 1816 3084 2150 3084 
Q 2853 3084 3261 2657 
Q 3669 2231 3669 1497 
Q 3669 778 3244 343 
Q 2819 -91 2113 -91 
Q 1303 -91 875 529 
Q 447 1150 447 2328 
Q 447 3434 972 4092 
Q 1497 4750 2381 4750 
Q 2619 4750 2861 4703 
Q 3103 4656 3366 4563 
z
" transform="scale(0.015625)"/>
      <path id="DejaVuSans-34" d="M 2419 4116 
L 825 1625 
L 2419 1625 
L 2419 4116 
z
M 2253 4666 
L 3047 4666 
L 3047 1625 
L 3713 1625 
L 3713 1100 
L 3047 1100 
L 3047 0 
L 2419 0 
L 2419 1100 
L 313 1100 
L 313 1709 
L 2253 4666 
z
" transform="scale(0.015625)"/>
      <path id="DejaVuSans-38" d="M 2034 2216 
Q 1584 2216 1326 1975 
Q 1069 1734 1069 1313 
Q 1069 891 1326 650 
Q 1584 409 2034 409 
Q 2484 409 2743 651 
Q 3003 894 3003 1313 
Q 3003 1734 2745 1975 
Q 2488 2216 2034 2216 
z
M 1403 2484 
Q 997 2584 770 2862 
Q 544 3141 544 3541 
Q 544 4100 942 4425 
Q 1341 4750 2034 4750 
Q 2731 4750 3128 4425 
Q 3525 4100 3525 3541 
Q 3525 3141 3298 2862 
Q 3072 2584 2669 2484 
Q 3125 2378 3379 2068 
Q 3634 1759 3634 1313 
Q 3634 634 3220 271 
Q 2806 -91 2034 -91 
Q 1263 -91 848 271 
Q 434 634 434 1313 
Q 434 1759 690 2068 
Q 947 2378 1403 2484 
z
M 1172 3481 
Q 1172 3119 1398 2916 
Q 1625 2713 2034 2713 
Q 2441 2713 2670 2916 
Q 2900 3119 2900 3481 
Q 2900 3844 2670 4047 
Q 2441 4250 2034 4250 
Q 1625 4250 1398 4047 
Q 1172 3844 1172 3481 
z
" transform="scale(0.015625)"/>
     </defs>
     <use xlink:href="#DejaVuSans-32"/>
     <use xlink:href="#DejaVuSans-37" x="63.623047"/>
     <use xlink:href="#DejaVuSans-35" x="127.246094"/>
     <use xlink:href="#DejaVuSans-35" x="190.869141"/>
     <use xlink:href="#DejaVuSans-2e" x="254.492188"/>
     <use xlink:href="#DejaVuSans-33" x="286.279297"/>
     <use xlink:href="#DejaVuSans-37" x="349.902344"/>
     <use xlink:href="#DejaVuSans-32" x="413.525391"/>
     <use xlink:href="#DejaVuSans-35" x="477.148438"/>
     <use xlink:href="#DejaVuSans-35" x="540.771484"/>
     <use xlink:href="#DejaVuSans-31" x="604.394531"/>
     <use xlink:href="#DejaVuSans-33" x="668.017578"/>
     <use xlink:href="#DejaVuSans-32" x="731.640625"/>
     <use xlink:href="#DejaVuSans-36" x="795.263672"/>
     <use xlink:href="#DejaVuSans-35" x="858.886719"/>
     <use xlink:href="#DejaVuSans-34" x="922.509766"/>
     <use xlink:href="#DejaVuSans-38" x="986.132812"/>
     <use xlink:href="#DejaVuSans-35" x="1049.755859"/>
    </g>
   </g>
   <g id="text_19">
    <!-- Epoch: 17000 -->
    <g transform="translate(186.4935 35.472) scale(0.144 -0.144)">
     <defs>
      <path id="DejaVuSans-45" d="M 628 4666 
L 3578 4666 
L 3578 4134 
L 1259 4134 
L 1259 2753 
L 3481 2753 
L 3481 2222 
L 1259 2222 
L 1259 531 
L 3634 531 
L 3634 0 
L 628 0 
L 628 4666 
z
" transform="scale(0.015625)"/>
      <path id="DejaVuSans-70" d="M 1159 525 
L 1159 -1331 
L 581 -1331 
L 581 3500 
L 1159 3500 
L 1159 2969 
Q 1341 3281 1617 3432 
Q 1894 3584 2278 3584 
Q 2916 3584 3314 3078 
Q 3713 2572 3713 1747 
Q 3713 922 3314 415 
Q 2916 -91 2278 -91 
Q 1894 -91 1617 61 
Q 1341 213 1159 525 
z
M 3116 1747 
Q 3116 2381 2855 2742 
Q 2594 3103 2138 3103 
Q 1681 3103 1420 2742 
Q 1159 2381 1159 1747 
Q 1159 1113 1420 752 
Q 1681 391 2138 391 
Q 2594 391 2855 752 
Q 3116 1113 3116 1747 
z
" transform="scale(0.015625)"/>
      <path id="DejaVuSans-63" d="M 3122 3366 
L 3122 2828 
Q 2878 2963 2633 3030 
Q 2388 3097 2138 3097 
Q 1578 3097 1268 2742 
Q 959 2388 959 1747 
Q 959 1106 1268 751 
Q 1578 397 2138 397 
Q 2388 397 2633 464 
Q 2878 531 3122 666 
L 3122 134 
Q 2881 22 2623 -34 
Q 2366 -91 2075 -91 
Q 1284 -91 818 406 
Q 353 903 353 1747 
Q 353 2603 823 3093 
Q 1294 3584 2113 3584 
Q 2378 3584 2631 3529 
Q 2884 3475 3122 3366 
z
" transform="scale(0.015625)"/>
      <path id="DejaVuSans-68" d="M 3513 2113 
L 3513 0 
L 2938 0 
L 2938 2094 
Q 2938 2591 2744 2837 
Q 2550 3084 2163 3084 
Q 1697 3084 1428 2787 
Q 1159 2491 1159 1978 
L 1159 0 
L 581 0 
L 581 4863 
L 1159 4863 
L 1159 2956 
Q 1366 3272 1645 3428 
Q 1925 3584 2291 3584 
Q 2894 3584 3203 3211 
Q 3513 2838 3513 2113 
z
" transform="scale(0.015625)"/>
      <path id="DejaVuSans-3a" d="M 750 794 
L 1409 794 
L 1409 0 
L 750 0 
L 750 794 
z
M 750 3309 
L 1409 3309 
L 1409 2516 
L 750 2516 
L 750 3309 
z
" transform="scale(0.015625)"/>
     </defs>
     <use xlink:href="#DejaVuSans-45"/>
     <use xlink:href="#DejaVuSans-70" x="63.183594"/>
     <use xlink:href="#DejaVuSans-6f" x="126.660156"/>
     <use xlink:href="#DejaVuSans-63" x="187.841797"/>
     <use xlink:href="#DejaVuSans-68" x="242.822266"/>
     <use xlink:href="#DejaVuSans-3a" x="306.201172"/>
     <use xlink:href="#DejaVuSans-20" x="339.892578"/>
     <use xlink:href="#DejaVuSans-31" x="371.679688"/>
     <use xlink:href="#DejaVuSans-37" x="435.302734"/>
     <use xlink:href="#DejaVuSans-30" x="498.925781"/>
     <use xlink:href="#DejaVuSans-30" x="562.548828"/>
     <use xlink:href="#DejaVuSans-30" x="626.171875"/>
    </g>
   </g>
  </g>
 </g>
 <defs>
  <clipPath id="pa204ae92ab">
   <rect x="57.6" y="41.472" width="357.12" height="266.112"/>
  </clipPath>
 </defs>
</svg>
