<?xml version="1.0" encoding="utf-8" standalone="no"?>
<!DOCTYPE svg PUBLIC "-//W3C//DTD SVG 1.1//EN"
  "http://www.w3.org/Graphics/SVG/1.1/DTD/svg11.dtd">
<svg xmlns:xlink="http://www.w3.org/1999/xlink" width="460.8pt" height="345.6pt" viewBox="0 0 460.8 345.6" xmlns="http://www.w3.org/2000/svg" version="1.1">
 <metadata>
  <rdf:RDF xmlns:dc="http://purl.org/dc/elements/1.1/" xmlns:cc="http://creativecommons.org/ns#" xmlns:rdf="http://www.w3.org/1999/02/22-rdf-syntax-ns#">
   <cc:Work>
    <dc:type rdf:resource="http://purl.org/dc/dcmitype/StillImage"/>
    <dc:date>2024-09-10T03:55:28.354607</dc:date>
    <dc:format>image/svg+xml</dc:format>
    <dc:creator>
     <cc:Agent>
      <dc:title>Matplotlib v3.8.4, https://matplotlib.org/</dc:title>
     </cc:Agent>
    </dc:creator>
   </cc:Work>
  </rdf:RDF>
 </metadata>
 <defs>
  <style type="text/css">*{stroke-linejoin: round; stroke-linecap: butt}</style>
 </defs>
 <g id="figure_1">
  <g id="patch_1">
   <path d="M 0 345.6 
L 460.8 345.6 
L 460.8 0 
L 0 0 
z
" style="fill: #ffffff"/>
  </g>
  <g id="axes_1">
   <g id="patch_2">
    <path d="M 57.6 307.584 
L 414.72 307.584 
L 414.72 41.472 
L 57.6 41.472 
z
" style="fill: #e5e5e5"/>
   </g>
   <g id="matplotlib.axis_1">
    <g id="xtick_1">
     <g id="line2d_1">
      <path d="M 73.832727 307.584 
L 73.832727 41.472 
" clip-path="url(#p4afa8a4004)" style="fill: none; stroke: #ffffff; stroke-width: 0.8; stroke-linecap: square"/>
     </g>
     <g id="line2d_2">
      <defs>
       <path id="ma22f60f14a" d="M 0 0 
L 0 3.5 
" style="stroke: #555555; stroke-width: 0.8"/>
      </defs>
      <g>
       <use xlink:href="#ma22f60f14a" x="73.832727" y="307.584" style="fill: #555555; stroke: #555555; stroke-width: 0.8"/>
      </g>
     </g>
     <g id="text_1">
      <!-- 0 -->
      <g style="fill: #555555" transform="translate(70.651477 322.182437) scale(0.1 -0.1)">
       <defs>
        <path id="DejaVuSans-30" d="M 2034 4250 
Q 1547 4250 1301 3770 
Q 1056 3291 1056 2328 
Q 1056 1369 1301 889 
Q 1547 409 2034 409 
Q 2525 409 2770 889 
Q 3016 1369 3016 2328 
Q 3016 3291 2770 3770 
Q 2525 4250 2034 4250 
z
M 2034 4750 
Q 2819 4750 3233 4129 
Q 3647 3509 3647 2328 
Q 3647 1150 3233 529 
Q 2819 -91 2034 -91 
Q 1250 -91 836 529 
Q 422 1150 422 2328 
Q 422 3509 836 4129 
Q 1250 4750 2034 4750 
z
" transform="scale(0.015625)"/>
       </defs>
       <use xlink:href="#DejaVuSans-30"/>
      </g>
     </g>
    </g>
    <g id="xtick_2">
     <g id="line2d_3">
      <path d="M 145.994218 307.584 
L 145.994218 41.472 
" clip-path="url(#p4afa8a4004)" style="fill: none; stroke: #ffffff; stroke-width: 0.8; stroke-linecap: square"/>
     </g>
     <g id="line2d_4">
      <g>
       <use xlink:href="#ma22f60f14a" x="145.994218" y="307.584" style="fill: #555555; stroke: #555555; stroke-width: 0.8"/>
      </g>
     </g>
     <g id="text_2">
      <!-- 2000 -->
      <g style="fill: #555555" transform="translate(133.269218 322.182437) scale(0.1 -0.1)">
       <defs>
        <path id="DejaVuSans-32" d="M 1228 531 
L 3431 531 
L 3431 0 
L 469 0 
L 469 531 
Q 828 903 1448 1529 
Q 2069 2156 2228 2338 
Q 2531 2678 2651 2914 
Q 2772 3150 2772 3378 
Q 2772 3750 2511 3984 
Q 2250 4219 1831 4219 
Q 1534 4219 1204 4116 
Q 875 4013 500 3803 
L 500 4441 
Q 881 4594 1212 4672 
Q 1544 4750 1819 4750 
Q 2544 4750 2975 4387 
Q 3406 4025 3406 3419 
Q 3406 3131 3298 2873 
Q 3191 2616 2906 2266 
Q 2828 2175 2409 1742 
Q 1991 1309 1228 531 
z
" transform="scale(0.015625)"/>
       </defs>
       <use xlink:href="#DejaVuSans-32"/>
       <use xlink:href="#DejaVuSans-30" x="63.623047"/>
       <use xlink:href="#DejaVuSans-30" x="127.246094"/>
       <use xlink:href="#DejaVuSans-30" x="190.869141"/>
      </g>
     </g>
    </g>
    <g id="xtick_3">
     <g id="line2d_5">
      <path d="M 218.155708 307.584 
L 218.155708 41.472 
" clip-path="url(#p4afa8a4004)" style="fill: none; stroke: #ffffff; stroke-width: 0.8; stroke-linecap: square"/>
     </g>
     <g id="line2d_6">
      <g>
       <use xlink:href="#ma22f60f14a" x="218.155708" y="307.584" style="fill: #555555; stroke: #555555; stroke-width: 0.8"/>
      </g>
     </g>
     <g id="text_3">
      <!-- 4000 -->
      <g style="fill: #555555" transform="translate(205.430708 322.182437) scale(0.1 -0.1)">
       <defs>
        <path id="DejaVuSans-34" d="M 2419 4116 
L 825 1625 
L 2419 1625 
L 2419 4116 
z
M 2253 4666 
L 3047 4666 
L 3047 1625 
L 3713 1625 
L 3713 1100 
L 3047 1100 
L 3047 0 
L 2419 0 
L 2419 1100 
L 313 1100 
L 313 1709 
L 2253 4666 
z
" transform="scale(0.015625)"/>
       </defs>
       <use xlink:href="#DejaVuSans-34"/>
       <use xlink:href="#DejaVuSans-30" x="63.623047"/>
       <use xlink:href="#DejaVuSans-30" x="127.246094"/>
       <use xlink:href="#DejaVuSans-30" x="190.869141"/>
      </g>
     </g>
    </g>
    <g id="xtick_4">
     <g id="line2d_7">
      <path d="M 290.317199 307.584 
L 290.317199 41.472 
" clip-path="url(#p4afa8a4004)" style="fill: none; stroke: #ffffff; stroke-width: 0.8; stroke-linecap: square"/>
     </g>
     <g id="line2d_8">
      <g>
       <use xlink:href="#ma22f60f14a" x="290.317199" y="307.584" style="fill: #555555; stroke: #555555; stroke-width: 0.8"/>
      </g>
     </g>
     <g id="text_4">
      <!-- 6000 -->
      <g style="fill: #555555" transform="translate(277.592199 322.182437) scale(0.1 -0.1)">
       <defs>
        <path id="DejaVuSans-36" d="M 2113 2584 
Q 1688 2584 1439 2293 
Q 1191 2003 1191 1497 
Q 1191 994 1439 701 
Q 1688 409 2113 409 
Q 2538 409 2786 701 
Q 3034 994 3034 1497 
Q 3034 2003 2786 2293 
Q 2538 2584 2113 2584 
z
M 3366 4563 
L 3366 3988 
Q 3128 4100 2886 4159 
Q 2644 4219 2406 4219 
Q 1781 4219 1451 3797 
Q 1122 3375 1075 2522 
Q 1259 2794 1537 2939 
Q 1816 3084 2150 3084 
Q 2853 3084 3261 2657 
Q 3669 2231 3669 1497 
Q 3669 778 3244 343 
Q 2819 -91 2113 -91 
Q 1303 -91 875 529 
Q 447 1150 447 2328 
Q 447 3434 972 4092 
Q 1497 4750 2381 4750 
Q 2619 4750 2861 4703 
Q 3103 4656 3366 4563 
z
" transform="scale(0.015625)"/>
       </defs>
       <use xlink:href="#DejaVuSans-36"/>
       <use xlink:href="#DejaVuSans-30" x="63.623047"/>
       <use xlink:href="#DejaVuSans-30" x="127.246094"/>
       <use xlink:href="#DejaVuSans-30" x="190.869141"/>
      </g>
     </g>
    </g>
    <g id="xtick_5">
     <g id="line2d_9">
      <path d="M 362.478689 307.584 
L 362.478689 41.472 
" clip-path="url(#p4afa8a4004)" style="fill: none; stroke: #ffffff; stroke-width: 0.8; stroke-linecap: square"/>
     </g>
     <g id="line2d_10">
      <g>
       <use xlink:href="#ma22f60f14a" x="362.478689" y="307.584" style="fill: #555555; stroke: #555555; stroke-width: 0.8"/>
      </g>
     </g>
     <g id="text_5">
      <!-- 8000 -->
      <g style="fill: #555555" transform="translate(349.753689 322.182437) scale(0.1 -0.1)">
       <defs>
        <path id="DejaVuSans-38" d="M 2034 2216 
Q 1584 2216 1326 1975 
Q 1069 1734 1069 1313 
Q 1069 891 1326 650 
Q 1584 409 2034 409 
Q 2484 409 2743 651 
Q 3003 894 3003 1313 
Q 3003 1734 2745 1975 
Q 2488 2216 2034 2216 
z
M 1403 2484 
Q 997 2584 770 2862 
Q 544 3141 544 3541 
Q 544 4100 942 4425 
Q 1341 4750 2034 4750 
Q 2731 4750 3128 4425 
Q 3525 4100 3525 3541 
Q 3525 3141 3298 2862 
Q 3072 2584 2669 2484 
Q 3125 2378 3379 2068 
Q 3634 1759 3634 1313 
Q 3634 634 3220 271 
Q 2806 -91 2034 -91 
Q 1263 -91 848 271 
Q 434 634 434 1313 
Q 434 1759 690 2068 
Q 947 2378 1403 2484 
z
M 1172 3481 
Q 1172 3119 1398 2916 
Q 1625 2713 2034 2713 
Q 2441 2713 2670 2916 
Q 2900 3119 2900 3481 
Q 2900 3844 2670 4047 
Q 2441 4250 2034 4250 
Q 1625 4250 1398 4047 
Q 1172 3844 1172 3481 
z
" transform="scale(0.015625)"/>
       </defs>
       <use xlink:href="#DejaVuSans-38"/>
       <use xlink:href="#DejaVuSans-30" x="63.623047"/>
       <use xlink:href="#DejaVuSans-30" x="127.246094"/>
       <use xlink:href="#DejaVuSans-30" x="190.869141"/>
      </g>
     </g>
    </g>
    <g id="text_6">
     <!-- Number of Games -->
     <g style="fill: #555555" transform="translate(181.471875 337.38025) scale(0.12 -0.12)">
      <defs>
       <path id="DejaVuSans-4e" d="M 628 4666 
L 1478 4666 
L 3547 763 
L 3547 4666 
L 4159 4666 
L 4159 0 
L 3309 0 
L 1241 3903 
L 1241 0 
L 628 0 
L 628 4666 
z
" transform="scale(0.015625)"/>
       <path id="DejaVuSans-75" d="M 544 1381 
L 544 3500 
L 1119 3500 
L 1119 1403 
Q 1119 906 1312 657 
Q 1506 409 1894 409 
Q 2359 409 2629 706 
Q 2900 1003 2900 1516 
L 2900 3500 
L 3475 3500 
L 3475 0 
L 2900 0 
L 2900 538 
Q 2691 219 2414 64 
Q 2138 -91 1772 -91 
Q 1169 -91 856 284 
Q 544 659 544 1381 
z
M 1991 3584 
L 1991 3584 
z
" transform="scale(0.015625)"/>
       <path id="DejaVuSans-6d" d="M 3328 2828 
Q 3544 3216 3844 3400 
Q 4144 3584 4550 3584 
Q 5097 3584 5394 3201 
Q 5691 2819 5691 2113 
L 5691 0 
L 5113 0 
L 5113 2094 
Q 5113 2597 4934 2840 
Q 4756 3084 4391 3084 
Q 3944 3084 3684 2787 
Q 3425 2491 3425 1978 
L 3425 0 
L 2847 0 
L 2847 2094 
Q 2847 2600 2669 2842 
Q 2491 3084 2119 3084 
Q 1678 3084 1418 2786 
Q 1159 2488 1159 1978 
L 1159 0 
L 581 0 
L 581 3500 
L 1159 3500 
L 1159 2956 
Q 1356 3278 1631 3431 
Q 1906 3584 2284 3584 
Q 2666 3584 2933 3390 
Q 3200 3197 3328 2828 
z
" transform="scale(0.015625)"/>
       <path id="DejaVuSans-62" d="M 3116 1747 
Q 3116 2381 2855 2742 
Q 2594 3103 2138 3103 
Q 1681 3103 1420 2742 
Q 1159 2381 1159 1747 
Q 1159 1113 1420 752 
Q 1681 391 2138 391 
Q 2594 391 2855 752 
Q 3116 1113 3116 1747 
z
M 1159 2969 
Q 1341 3281 1617 3432 
Q 1894 3584 2278 3584 
Q 2916 3584 3314 3078 
Q 3713 2572 3713 1747 
Q 3713 922 3314 415 
Q 2916 -91 2278 -91 
Q 1894 -91 1617 61 
Q 1341 213 1159 525 
L 1159 0 
L 581 0 
L 581 4863 
L 1159 4863 
L 1159 2969 
z
" transform="scale(0.015625)"/>
       <path id="DejaVuSans-65" d="M 3597 1894 
L 3597 1613 
L 953 1613 
Q 991 1019 1311 708 
Q 1631 397 2203 397 
Q 2534 397 2845 478 
Q 3156 559 3463 722 
L 3463 178 
Q 3153 47 2828 -22 
Q 2503 -91 2169 -91 
Q 1331 -91 842 396 
Q 353 884 353 1716 
Q 353 2575 817 3079 
Q 1281 3584 2069 3584 
Q 2775 3584 3186 3129 
Q 3597 2675 3597 1894 
z
M 3022 2063 
Q 3016 2534 2758 2815 
Q 2500 3097 2075 3097 
Q 1594 3097 1305 2825 
Q 1016 2553 972 2059 
L 3022 2063 
z
" transform="scale(0.015625)"/>
       <path id="DejaVuSans-72" d="M 2631 2963 
Q 2534 3019 2420 3045 
Q 2306 3072 2169 3072 
Q 1681 3072 1420 2755 
Q 1159 2438 1159 1844 
L 1159 0 
L 581 0 
L 581 3500 
L 1159 3500 
L 1159 2956 
Q 1341 3275 1631 3429 
Q 1922 3584 2338 3584 
Q 2397 3584 2469 3576 
Q 2541 3569 2628 3553 
L 2631 2963 
z
" transform="scale(0.015625)"/>
       <path id="DejaVuSans-20" transform="scale(0.015625)"/>
       <path id="DejaVuSans-6f" d="M 1959 3097 
Q 1497 3097 1228 2736 
Q 959 2375 959 1747 
Q 959 1119 1226 758 
Q 1494 397 1959 397 
Q 2419 397 2687 759 
Q 2956 1122 2956 1747 
Q 2956 2369 2687 2733 
Q 2419 3097 1959 3097 
z
M 1959 3584 
Q 2709 3584 3137 3096 
Q 3566 2609 3566 1747 
Q 3566 888 3137 398 
Q 2709 -91 1959 -91 
Q 1206 -91 779 398 
Q 353 888 353 1747 
Q 353 2609 779 3096 
Q 1206 3584 1959 3584 
z
" transform="scale(0.015625)"/>
       <path id="DejaVuSans-66" d="M 2375 4863 
L 2375 4384 
L 1825 4384 
Q 1516 4384 1395 4259 
Q 1275 4134 1275 3809 
L 1275 3500 
L 2222 3500 
L 2222 3053 
L 1275 3053 
L 1275 0 
L 697 0 
L 697 3053 
L 147 3053 
L 147 3500 
L 697 3500 
L 697 3744 
Q 697 4328 969 4595 
Q 1241 4863 1831 4863 
L 2375 4863 
z
" transform="scale(0.015625)"/>
       <path id="DejaVuSans-47" d="M 3809 666 
L 3809 1919 
L 2778 1919 
L 2778 2438 
L 4434 2438 
L 4434 434 
Q 4069 175 3628 42 
Q 3188 -91 2688 -91 
Q 1594 -91 976 548 
Q 359 1188 359 2328 
Q 359 3472 976 4111 
Q 1594 4750 2688 4750 
Q 3144 4750 3555 4637 
Q 3966 4525 4313 4306 
L 4313 3634 
Q 3963 3931 3569 4081 
Q 3175 4231 2741 4231 
Q 1884 4231 1454 3753 
Q 1025 3275 1025 2328 
Q 1025 1384 1454 906 
Q 1884 428 2741 428 
Q 3075 428 3337 486 
Q 3600 544 3809 666 
z
" transform="scale(0.015625)"/>
       <path id="DejaVuSans-61" d="M 2194 1759 
Q 1497 1759 1228 1600 
Q 959 1441 959 1056 
Q 959 750 1161 570 
Q 1363 391 1709 391 
Q 2188 391 2477 730 
Q 2766 1069 2766 1631 
L 2766 1759 
L 2194 1759 
z
M 3341 1997 
L 3341 0 
L 2766 0 
L 2766 531 
Q 2569 213 2275 61 
Q 1981 -91 1556 -91 
Q 1019 -91 701 211 
Q 384 513 384 1019 
Q 384 1609 779 1909 
Q 1175 2209 1959 2209 
L 2766 2209 
L 2766 2266 
Q 2766 2663 2505 2880 
Q 2244 3097 1772 3097 
Q 1472 3097 1187 3025 
Q 903 2953 641 2809 
L 641 3341 
Q 956 3463 1253 3523 
Q 1550 3584 1831 3584 
Q 2591 3584 2966 3190 
Q 3341 2797 3341 1997 
z
" transform="scale(0.015625)"/>
       <path id="DejaVuSans-73" d="M 2834 3397 
L 2834 2853 
Q 2591 2978 2328 3040 
Q 2066 3103 1784 3103 
Q 1356 3103 1142 2972 
Q 928 2841 928 2578 
Q 928 2378 1081 2264 
Q 1234 2150 1697 2047 
L 1894 2003 
Q 2506 1872 2764 1633 
Q 3022 1394 3022 966 
Q 3022 478 2636 193 
Q 2250 -91 1575 -91 
Q 1294 -91 989 -36 
Q 684 19 347 128 
L 347 722 
Q 666 556 975 473 
Q 1284 391 1588 391 
Q 1994 391 2212 530 
Q 2431 669 2431 922 
Q 2431 1156 2273 1281 
Q 2116 1406 1581 1522 
L 1381 1569 
Q 847 1681 609 1914 
Q 372 2147 372 2553 
Q 372 3047 722 3315 
Q 1072 3584 1716 3584 
Q 2034 3584 2315 3537 
Q 2597 3491 2834 3397 
z
" transform="scale(0.015625)"/>
      </defs>
      <use xlink:href="#DejaVuSans-4e"/>
      <use xlink:href="#DejaVuSans-75" x="74.804688"/>
      <use xlink:href="#DejaVuSans-6d" x="138.183594"/>
      <use xlink:href="#DejaVuSans-62" x="235.595703"/>
      <use xlink:href="#DejaVuSans-65" x="299.072266"/>
      <use xlink:href="#DejaVuSans-72" x="360.595703"/>
      <use xlink:href="#DejaVuSans-20" x="401.708984"/>
      <use xlink:href="#DejaVuSans-6f" x="433.496094"/>
      <use xlink:href="#DejaVuSans-66" x="494.677734"/>
      <use xlink:href="#DejaVuSans-20" x="529.882812"/>
      <use xlink:href="#DejaVuSans-47" x="561.669922"/>
      <use xlink:href="#DejaVuSans-61" x="639.160156"/>
      <use xlink:href="#DejaVuSans-6d" x="700.439453"/>
      <use xlink:href="#DejaVuSans-65" x="797.851562"/>
      <use xlink:href="#DejaVuSans-73" x="859.375"/>
     </g>
    </g>
   </g>
   <g id="matplotlib.axis_2">
    <g id="ytick_1">
     <g id="line2d_11">
      <path d="M 57.6 307.584 
L 414.72 307.584 
" clip-path="url(#p4afa8a4004)" style="fill: none; stroke: #ffffff; stroke-width: 0.8; stroke-linecap: square"/>
     </g>
     <g id="line2d_12">
      <defs>
       <path id="meaafa633a8" d="M 0 0 
L -3.5 0 
" style="stroke: #555555; stroke-width: 0.8"/>
      </defs>
      <g>
       <use xlink:href="#meaafa633a8" x="57.6" y="307.584" style="fill: #555555; stroke: #555555; stroke-width: 0.8"/>
      </g>
     </g>
     <g id="text_7">
      <!-- 0 -->
      <g style="fill: #555555" transform="translate(44.2375 311.383219) scale(0.1 -0.1)">
       <use xlink:href="#DejaVuSans-30"/>
      </g>
     </g>
    </g>
    <g id="ytick_2">
     <g id="line2d_13">
      <path d="M 57.6 264.235857 
L 414.72 264.235857 
" clip-path="url(#p4afa8a4004)" style="fill: none; stroke: #ffffff; stroke-width: 0.8; stroke-linecap: square"/>
     </g>
     <g id="line2d_14">
      <g>
       <use xlink:href="#meaafa633a8" x="57.6" y="264.235857" style="fill: #555555; stroke: #555555; stroke-width: 0.8"/>
      </g>
     </g>
     <g id="text_8">
      <!-- 500 -->
      <g style="fill: #555555" transform="translate(31.5125 268.035076) scale(0.1 -0.1)">
       <defs>
        <path id="DejaVuSans-35" d="M 691 4666 
L 3169 4666 
L 3169 4134 
L 1269 4134 
L 1269 2991 
Q 1406 3038 1543 3061 
Q 1681 3084 1819 3084 
Q 2600 3084 3056 2656 
Q 3513 2228 3513 1497 
Q 3513 744 3044 326 
Q 2575 -91 1722 -91 
Q 1428 -91 1123 -41 
Q 819 9 494 109 
L 494 744 
Q 775 591 1075 516 
Q 1375 441 1709 441 
Q 2250 441 2565 725 
Q 2881 1009 2881 1497 
Q 2881 1984 2565 2268 
Q 2250 2553 1709 2553 
Q 1456 2553 1204 2497 
Q 953 2441 691 2322 
L 691 4666 
z
" transform="scale(0.015625)"/>
       </defs>
       <use xlink:href="#DejaVuSans-35"/>
       <use xlink:href="#DejaVuSans-30" x="63.623047"/>
       <use xlink:href="#DejaVuSans-30" x="127.246094"/>
      </g>
     </g>
    </g>
    <g id="ytick_3">
     <g id="line2d_15">
      <path d="M 57.6 220.887715 
L 414.72 220.887715 
" clip-path="url(#p4afa8a4004)" style="fill: none; stroke: #ffffff; stroke-width: 0.8; stroke-linecap: square"/>
     </g>
     <g id="line2d_16">
      <g>
       <use xlink:href="#meaafa633a8" x="57.6" y="220.887715" style="fill: #555555; stroke: #555555; stroke-width: 0.8"/>
      </g>
     </g>
     <g id="text_9">
      <!-- 1000 -->
      <g style="fill: #555555" transform="translate(25.15 224.686934) scale(0.1 -0.1)">
       <defs>
        <path id="DejaVuSans-31" d="M 794 531 
L 1825 531 
L 1825 4091 
L 703 3866 
L 703 4441 
L 1819 4666 
L 2450 4666 
L 2450 531 
L 3481 531 
L 3481 0 
L 794 0 
L 794 531 
z
" transform="scale(0.015625)"/>
       </defs>
       <use xlink:href="#DejaVuSans-31"/>
       <use xlink:href="#DejaVuSans-30" x="63.623047"/>
       <use xlink:href="#DejaVuSans-30" x="127.246094"/>
       <use xlink:href="#DejaVuSans-30" x="190.869141"/>
      </g>
     </g>
    </g>
    <g id="ytick_4">
     <g id="line2d_17">
      <path d="M 57.6 177.539572 
L 414.72 177.539572 
" clip-path="url(#p4afa8a4004)" style="fill: none; stroke: #ffffff; stroke-width: 0.8; stroke-linecap: square"/>
     </g>
     <g id="line2d_18">
      <g>
       <use xlink:href="#meaafa633a8" x="57.6" y="177.539572" style="fill: #555555; stroke: #555555; stroke-width: 0.8"/>
      </g>
     </g>
     <g id="text_10">
      <!-- 1500 -->
      <g style="fill: #555555" transform="translate(25.15 181.338791) scale(0.1 -0.1)">
       <use xlink:href="#DejaVuSans-31"/>
       <use xlink:href="#DejaVuSans-35" x="63.623047"/>
       <use xlink:href="#DejaVuSans-30" x="127.246094"/>
       <use xlink:href="#DejaVuSans-30" x="190.869141"/>
      </g>
     </g>
    </g>
    <g id="ytick_5">
     <g id="line2d_19">
      <path d="M 57.6 134.19143 
L 414.72 134.19143 
" clip-path="url(#p4afa8a4004)" style="fill: none; stroke: #ffffff; stroke-width: 0.8; stroke-linecap: square"/>
     </g>
     <g id="line2d_20">
      <g>
       <use xlink:href="#meaafa633a8" x="57.6" y="134.19143" style="fill: #555555; stroke: #555555; stroke-width: 0.8"/>
      </g>
     </g>
     <g id="text_11">
      <!-- 2000 -->
      <g style="fill: #555555" transform="translate(25.15 137.990648) scale(0.1 -0.1)">
       <use xlink:href="#DejaVuSans-32"/>
       <use xlink:href="#DejaVuSans-30" x="63.623047"/>
       <use xlink:href="#DejaVuSans-30" x="127.246094"/>
       <use xlink:href="#DejaVuSans-30" x="190.869141"/>
      </g>
     </g>
    </g>
    <g id="ytick_6">
     <g id="line2d_21">
      <path d="M 57.6 90.843287 
L 414.72 90.843287 
" clip-path="url(#p4afa8a4004)" style="fill: none; stroke: #ffffff; stroke-width: 0.8; stroke-linecap: square"/>
     </g>
     <g id="line2d_22">
      <g>
       <use xlink:href="#meaafa633a8" x="57.6" y="90.843287" style="fill: #555555; stroke: #555555; stroke-width: 0.8"/>
      </g>
     </g>
     <g id="text_12">
      <!-- 2500 -->
      <g style="fill: #555555" transform="translate(25.15 94.642506) scale(0.1 -0.1)">
       <use xlink:href="#DejaVuSans-32"/>
       <use xlink:href="#DejaVuSans-35" x="63.623047"/>
       <use xlink:href="#DejaVuSans-30" x="127.246094"/>
       <use xlink:href="#DejaVuSans-30" x="190.869141"/>
      </g>
     </g>
    </g>
    <g id="ytick_7">
     <g id="line2d_23">
      <path d="M 57.6 47.495145 
L 414.72 47.495145 
" clip-path="url(#p4afa8a4004)" style="fill: none; stroke: #ffffff; stroke-width: 0.8; stroke-linecap: square"/>
     </g>
     <g id="line2d_24">
      <g>
       <use xlink:href="#meaafa633a8" x="57.6" y="47.495145" style="fill: #555555; stroke: #555555; stroke-width: 0.8"/>
      </g>
     </g>
     <g id="text_13">
      <!-- 3000 -->
      <g style="fill: #555555" transform="translate(25.15 51.294363) scale(0.1 -0.1)">
       <defs>
        <path id="DejaVuSans-33" d="M 2597 2516 
Q 3050 2419 3304 2112 
Q 3559 1806 3559 1356 
Q 3559 666 3084 287 
Q 2609 -91 1734 -91 
Q 1441 -91 1130 -33 
Q 819 25 488 141 
L 488 750 
Q 750 597 1062 519 
Q 1375 441 1716 441 
Q 2309 441 2620 675 
Q 2931 909 2931 1356 
Q 2931 1769 2642 2001 
Q 2353 2234 1838 2234 
L 1294 2234 
L 1294 2753 
L 1863 2753 
Q 2328 2753 2575 2939 
Q 2822 3125 2822 3475 
Q 2822 3834 2567 4026 
Q 2313 4219 1838 4219 
Q 1578 4219 1281 4162 
Q 984 4106 628 3988 
L 628 4550 
Q 988 4650 1302 4700 
Q 1616 4750 1894 4750 
Q 2613 4750 3031 4423 
Q 3450 4097 3450 3541 
Q 3450 3153 3228 2886 
Q 3006 2619 2597 2516 
z
" transform="scale(0.015625)"/>
       </defs>
       <use xlink:href="#DejaVuSans-33"/>
       <use xlink:href="#DejaVuSans-30" x="63.623047"/>
       <use xlink:href="#DejaVuSans-30" x="127.246094"/>
       <use xlink:href="#DejaVuSans-30" x="190.869141"/>
      </g>
     </g>
    </g>
    <g id="text_14">
     <!-- Median reward -->
     <g style="fill: #555555" transform="translate(18.654375 219.03675) rotate(-90) scale(0.12 -0.12)">
      <defs>
       <path id="DejaVuSans-4d" d="M 628 4666 
L 1569 4666 
L 2759 1491 
L 3956 4666 
L 4897 4666 
L 4897 0 
L 4281 0 
L 4281 4097 
L 3078 897 
L 2444 897 
L 1241 4097 
L 1241 0 
L 628 0 
L 628 4666 
z
" transform="scale(0.015625)"/>
       <path id="DejaVuSans-64" d="M 2906 2969 
L 2906 4863 
L 3481 4863 
L 3481 0 
L 2906 0 
L 2906 525 
Q 2725 213 2448 61 
Q 2172 -91 1784 -91 
Q 1150 -91 751 415 
Q 353 922 353 1747 
Q 353 2572 751 3078 
Q 1150 3584 1784 3584 
Q 2172 3584 2448 3432 
Q 2725 3281 2906 2969 
z
M 947 1747 
Q 947 1113 1208 752 
Q 1469 391 1925 391 
Q 2381 391 2643 752 
Q 2906 1113 2906 1747 
Q 2906 2381 2643 2742 
Q 2381 3103 1925 3103 
Q 1469 3103 1208 2742 
Q 947 2381 947 1747 
z
" transform="scale(0.015625)"/>
       <path id="DejaVuSans-69" d="M 603 3500 
L 1178 3500 
L 1178 0 
L 603 0 
L 603 3500 
z
M 603 4863 
L 1178 4863 
L 1178 4134 
L 603 4134 
L 603 4863 
z
" transform="scale(0.015625)"/>
       <path id="DejaVuSans-6e" d="M 3513 2113 
L 3513 0 
L 2938 0 
L 2938 2094 
Q 2938 2591 2744 2837 
Q 2550 3084 2163 3084 
Q 1697 3084 1428 2787 
Q 1159 2491 1159 1978 
L 1159 0 
L 581 0 
L 581 3500 
L 1159 3500 
L 1159 2956 
Q 1366 3272 1645 3428 
Q 1925 3584 2291 3584 
Q 2894 3584 3203 3211 
Q 3513 2838 3513 2113 
z
" transform="scale(0.015625)"/>
       <path id="DejaVuSans-77" d="M 269 3500 
L 844 3500 
L 1563 769 
L 2278 3500 
L 2956 3500 
L 3675 769 
L 4391 3500 
L 4966 3500 
L 4050 0 
L 3372 0 
L 2619 2869 
L 1863 0 
L 1184 0 
L 269 3500 
z
" transform="scale(0.015625)"/>
      </defs>
      <use xlink:href="#DejaVuSans-4d"/>
      <use xlink:href="#DejaVuSans-65" x="86.279297"/>
      <use xlink:href="#DejaVuSans-64" x="147.802734"/>
      <use xlink:href="#DejaVuSans-69" x="211.279297"/>
      <use xlink:href="#DejaVuSans-61" x="239.0625"/>
      <use xlink:href="#DejaVuSans-6e" x="300.341797"/>
      <use xlink:href="#DejaVuSans-20" x="363.720703"/>
      <use xlink:href="#DejaVuSans-72" x="395.507812"/>
      <use xlink:href="#DejaVuSans-65" x="434.371094"/>
      <use xlink:href="#DejaVuSans-77" x="495.894531"/>
      <use xlink:href="#DejaVuSans-61" x="577.681641"/>
      <use xlink:href="#DejaVuSans-72" x="638.960938"/>
      <use xlink:href="#DejaVuSans-64" x="678.324219"/>
     </g>
    </g>
   </g>
   <g id="line2d_25">
    <path d="M 73.832727 306.110163 
L 73.94097 306.110163 
L 74.229615 306.146287 
L 74.482181 306.082785 
L 74.806907 306.131837 
L 77.296479 306.187028 
L 78.270659 306.198258 
L 79.461324 306.181398 
L 82.528187 306.20689 
L 87.146522 306.182332 
L 89.022721 306.159469 
L 95.697659 306.064887 
L 102.553 305.914036 
L 110.959814 305.686698 
L 111.537106 305.646263 
L 119.763516 305.222785 
L 121.170665 305.124678 
L 125.428193 304.795663 
L 125.861162 304.722242 
L 126.979665 304.60533 
L 128.098168 304.477969 
L 129.793963 304.237646 
L 130.226932 304.159608 
L 132.103131 303.84474 
L 132.57218 303.724552 
L 133.546361 303.556497 
L 133.871087 303.471576 
L 134.809187 303.328602 
L 136.865789 302.834006 
L 137.118354 302.730045 
L 138.597665 302.438363 
L 139.535764 302.106384 
L 139.716168 301.988792 
L 142.205739 300.536452 
L 142.386143 300.511115 
L 142.674789 300.106502 
L 142.855193 299.99264 
L 143.17992 299.627283 
L 143.504646 299.582498 
L 143.757212 299.199633 
L 144.19018 298.92077 
L 144.226261 298.887723 
L 144.370584 298.341227 
L 144.478826 298.11897 
L 144.623149 298.050235 
L 144.875715 297.979064 
L 144.983957 297.765964 
L 145.12828 297.224868 
L 145.63341 296.970128 
L 145.813814 296.803343 
L 145.922056 296.693836 
L 146.282864 295.760206 
L 146.535429 295.767933 
L 146.860156 294.70333 
L 147.004479 294.57349 
L 147.07664 294.579941 
L 147.617851 292.143798 
L 147.906497 292.132814 
L 148.05082 291.561532 
L 148.231224 291.033414 
L 148.447708 290.495948 
L 148.555951 290.478304 
L 148.700274 290.267879 
L 148.808516 290.252583 
L 148.98892 289.87204 
L 149.061081 289.828343 
L 149.241485 287.839802 
L 149.421889 287.388646 
L 150.035261 287.389428 
L 150.432149 287.241027 
L 150.684715 287.288933 
L 150.973361 285.860481 
L 151.081603 284.433178 
L 151.225926 283.10244 
L 151.514572 280.364506 
L 151.658895 280.185684 
L 151.947541 280.179248 
L 152.055783 279.96186 
L 152.200106 279.38712 
L 152.524833 279.384106 
L 152.813479 278.72344 
L 153.029963 277.428182 
L 153.426851 277.418564 
L 154.076305 276.257651 
L 154.725758 276.01229 
L 155.050485 275.199819 
L 155.30305 274.979826 
L 155.699938 273.785167 
L 155.844261 272.409823 
L 156.205069 271.489877 
L 156.349392 269.59102 
L 156.385472 269.481456 
L 156.529795 268.399548 
L 156.818441 267.9696 
L 156.962764 267.286025 
L 157.215329 266.612768 
L 157.612218 266.739936 
L 157.936944 265.107244 
L 158.911124 264.252763 
L 159.66882 262.886455 
L 159.813143 261.87102 
L 160.534758 261.12323 
L 160.715162 260.683217 
L 160.859485 260.523043 
L 161.148131 260.099288 
L 162.014069 256.216965 
L 162.266634 255.811609 
L 162.374876 255.813852 
L 162.591361 254.928495 
L 162.663522 254.634921 
L 162.807845 253.791573 
L 162.843926 253.811367 
L 162.988249 253.638499 
L 163.024329 253.636264 
L 163.276895 252.489699 
L 163.312975 252.478185 
L 163.457298 252.040603 
L 163.745944 251.368049 
L 163.782025 251.383463 
L 163.99851 250.884387 
L 164.142833 250.405826 
L 164.287156 250.079267 
L 164.720124 249.430815 
L 164.900528 248.914821 
L 164.97269 248.841932 
L 165.080932 248.542219 
L 165.369578 246.82063 
L 165.549982 246.076071 
L 165.766466 244.611444 
L 165.802547 244.613122 
L 165.94687 243.871328 
L 166.271597 242.860674 
L 166.415919 241.667129 
L 166.452 241.689793 
L 166.632404 241.336818 
L 166.668485 241.214491 
L 166.740646 241.244716 
L 166.848888 241.279595 
L 167.065373 240.74861 
L 167.137534 240.66479 
L 167.534423 240.457549 
L 167.859149 239.674471 
L 167.967392 239.634707 
L 168.256038 238.942431 
L 168.36428 238.792598 
L 168.652926 238.159567 
L 169.013733 237.596543 
L 169.33846 237.169166 
L 169.80751 236.466363 
L 170.096156 234.777148 
L 170.132236 234.753113 
L 170.420882 233.08787 
L 170.709528 232.87927 
L 170.745609 232.871452 
L 170.998174 232.343371 
L 171.070336 232.306477 
L 171.503305 229.99345 
L 171.575466 229.839954 
L 172.585727 228.762955 
L 172.657888 228.700442 
L 172.874373 228.481848 
L 173.018696 228.43543 
L 173.23518 228.176211 
L 173.920715 226.443713 
L 174.245441 225.00666 
L 174.281522 225.03105 
L 174.425845 224.297282 
L 174.642329 223.891408 
L 174.858814 223.785432 
L 175.039218 222.418772 
L 175.327864 221.705199 
L 175.363944 221.666719 
L 175.580429 220.894292 
L 175.724752 220.724511 
L 175.869075 220.645492 
L 175.977317 220.269208 
L 176.265963 219.411283 
L 176.410286 219.206404 
L 176.843255 217.898848 
L 176.879336 217.892035 
L 177.059739 217.487718 
L 177.56487 217.069371 
L 177.673112 216.700546 
L 177.709193 216.418883 
L 177.781354 216.466565 
L 177.817435 216.475406 
L 177.997839 215.913996 
L 178.07 215.941647 
L 178.214323 215.927303 
L 178.466888 215.676464 
L 178.683373 214.204377 
L 178.899857 213.801596 
L 179.080261 213.747423 
L 179.332826 213.772929 
L 179.837957 212.545196 
L 180.198764 212.441015 
L 180.270926 212.445682 
L 180.451329 212.29006 
L 180.48741 212.237026 
L 180.631733 211.712929 
L 180.884298 211.361259 
L 180.95646 211.400543 
L 181.136864 211.141187 
L 181.42551 210.816182 
L 181.605913 210.734762 
L 182.074963 209.985274 
L 182.219286 209.643394 
L 182.39969 209.361285 
L 182.832659 207.502118 
L 182.90482 207.454435 
L 183.193466 205.568607 
L 183.337789 205.042284 
L 183.40995 205.021667 
L 183.626435 203.772006 
L 183.698596 203.790445 
L 183.879 203.545844 
L 184.023323 203.452879 
L 184.131565 203.459153 
L 184.34805 203.056547 
L 184.456292 203.091317 
L 184.564534 203.058525 
L 184.961423 202.409503 
L 185.033584 202.360946 
L 185.213988 201.461009 
L 185.250069 201.454528 
L 185.466553 200.966785 
L 185.646957 200.7817 
L 185.863441 200.715505 
L 186.29641 199.11121 
L 186.404652 199.063613 
L 186.621137 197.907848 
L 186.693298 197.828387 
L 186.945864 197.193449 
L 186.981944 197.221232 
L 187.018025 197.21065 
L 187.234509 196.659412 
L 187.27059 196.676681 
L 187.450994 196.042404 
L 187.487075 196.026654 
L 187.595317 195.502278 
L 187.631398 195.529835 
L 187.73964 195.446089 
L 187.920044 194.771658 
L 188.028286 194.637197 
L 188.172609 194.283305 
L 188.24477 194.34597 
L 188.497336 194.498991 
L 188.71382 194.154881 
L 188.785982 193.976094 
L 188.966385 192.922649 
L 189.038547 192.712671 
L 189.074627 192.733429 
L 189.435435 192.92301 
L 189.760162 190.741253 
L 189.868404 190.631924 
L 190.012727 190.125284 
L 190.229211 189.967876 
L 190.301373 189.979912 
L 190.409615 189.859967 
L 190.445696 189.89453 
L 190.950826 190.248014 
L 190.986907 190.173073 
L 191.347714 189.716728 
L 191.60028 189.619219 
L 191.816764 189.452082 
L 191.961087 189.358831 
L 192.177572 189.184804 
L 192.357975 188.89668 
L 193.296075 184.613042 
L 193.440398 184.262404 
L 193.584721 184.358966 
L 193.765124 184.33776 
L 193.909447 184.222009 
L 193.945528 184.241924 
L 194.162013 183.544278 
L 194.270255 183.50679 
L 194.414578 183.265106 
L 194.52282 182.774852 
L 194.558901 182.807427 
L 194.883627 182.105155 
L 195.244435 181.573422 
L 195.352677 181.503566 
L 195.605242 180.637424 
L 195.713485 180.693762 
L 195.749565 180.590794 
L 195.821727 180.636363 
L 195.857808 180.670479 
L 195.893888 180.512737 
L 195.96605 180.559681 
L 196.110373 180.495788 
L 196.831988 178.961264 
L 196.976311 178.933899 
L 197.301037 178.667688 
L 197.40928 178.677758 
L 197.770087 177.495366 
L 197.842249 177.385269 
L 197.878329 177.34581 
L 198.058733 176.229688 
L 198.094814 176.265149 
L 198.166975 176.175319 
L 198.419541 175.27701 
L 198.491702 175.143383 
L 198.852509 174.06917 
L 198.924671 174.016973 
L 199.141155 173.435299 
L 199.898851 172.59838 
L 199.934932 172.620153 
L 199.971013 172.516592 
L 200.043174 172.469388 
L 200.367901 171.903078 
L 200.728708 171.459693 
L 200.764789 171.439347 
L 200.981273 170.841454 
L 201.017354 170.86831 
L 201.053435 170.777729 
L 201.269919 168.865134 
L 201.378162 168.957841 
L 201.414242 168.893524 
L 201.522485 168.908859 
L 201.811131 168.850493 
L 201.847211 168.778386 
L 201.919373 168.833786 
L 202.027615 168.808886 
L 202.099777 168.74224 
L 202.244099 168.276123 
L 202.424503 168.161709 
L 202.640988 167.848744 
L 203.615168 167.71458 
L 203.975975 166.795697 
L 204.336783 166.379043 
L 204.517186 166.059864 
L 204.69759 165.397887 
L 204.733671 165.390339 
L 204.914075 165.004062 
L 205.094478 164.976878 
L 205.274882 164.801904 
L 205.310963 164.769531 
L 205.455286 164.496498 
L 205.63569 164.58346 
L 205.780013 164.387357 
L 206.14082 163.85281 
L 206.285143 163.313047 
L 206.465547 163.223486 
L 206.573789 163.137435 
L 206.60987 163.169586 
L 206.826354 163.325003 
L 206.934596 163.030796 
L 207.115 162.179618 
L 207.403646 161.905678 
L 207.439727 161.920338 
L 207.547969 161.657524 
L 207.58405 161.694049 
L 207.728373 161.663712 
L 207.836615 161.725166 
L 208.053099 160.76786 
L 208.125261 160.774681 
L 208.341745 160.09044 
L 208.449988 159.950564 
L 208.486068 159.975504 
L 208.774714 159.969264 
L 208.810795 159.926117 
L 208.955118 159.705225 
L 209.207683 159.108307 
L 209.315926 159.008888 
L 209.640652 158.409651 
L 209.893217 158.511002 
L 210.03754 158.261588 
L 210.542671 156.271372 
L 210.686994 156.233469 
L 210.97564 155.965423 
L 211.083882 155.900043 
L 211.48077 155.361772 
L 211.552932 155.330064 
L 211.805497 154.780131 
L 212.021981 154.794255 
L 212.166304 154.38061 
L 212.924 152.899323 
L 213.104404 152.859424 
L 213.248727 152.147027 
L 213.284808 152.184878 
L 213.356969 152.256555 
L 213.501292 151.611136 
L 213.573453 151.470174 
L 213.89818 150.655597 
L 213.970342 150.536324 
L 214.006422 150.576046 
L 214.222907 150.653589 
L 214.331149 150.55074 
L 214.475472 150.620498 
L 214.83628 150.25424 
L 214.87236 150.270398 
L 215.016683 149.83929 
L 215.197087 149.666617 
L 215.81046 149.694844 
L 215.954783 149.49482 
L 216.099106 149.486708 
L 216.135186 149.510191 
L 216.171267 149.448504 
L 216.243429 149.324301 
L 216.495994 148.208849 
L 216.965044 147.813387 
L 217.217609 147.88037 
L 217.686658 147.516331 
L 217.975304 147.189559 
L 218.119627 146.846855 
L 218.300031 146.778799 
L 218.480435 146.495903 
L 218.985565 145.639454 
L 219.310292 143.840857 
L 219.382453 143.779437 
L 219.526776 143.675089 
L 219.671099 143.734647 
L 219.815422 143.718659 
L 220.031907 143.487505 
L 220.140149 143.40477 
L 220.464876 142.641769 
L 220.500957 142.678902 
L 220.573118 142.572454 
L 220.753522 142.106569 
L 220.933926 142.061807 
L 221.006087 141.800984 
L 221.078248 141.831131 
L 221.294733 141.866787 
L 221.366894 141.773878 
L 221.511217 141.366193 
L 222.052429 140.642612 
L 222.196752 140.589396 
L 222.341075 140.620453 
L 222.737963 139.556035 
L 222.846205 139.565508 
L 223.062689 138.4775 
L 223.207012 138.4519 
L 223.351335 138.548645 
L 223.387416 138.483879 
L 223.712143 138.417743 
L 223.892547 136.974339 
L 224.03687 136.829316 
L 224.289435 136.700155 
L 224.433758 136.738162 
L 224.469839 136.627604 
L 224.542 136.665386 
L 224.650242 136.735295 
L 224.758485 136.781336 
L 224.902807 136.345443 
L 225.04713 136.200066 
L 225.155373 136.157565 
L 225.227534 135.947148 
L 225.299696 135.988948 
L 225.407938 135.939241 
L 225.444019 135.977542 
L 225.480099 135.98547 
L 225.660503 135.714413 
L 225.732665 135.694172 
L 225.913068 135.565224 
L 226.057391 135.615385 
L 226.273876 135.434576 
L 226.670764 135.028887 
L 226.851168 135.022647 
L 227.031571 134.660431 
L 227.608863 133.987674 
L 227.717106 133.934958 
L 227.789267 133.966645 
L 228.366559 131.85919 
L 228.40264 131.890225 
L 228.438721 131.831333 
L 228.546963 131.733633 
L 228.583044 131.766541 
L 228.763447 131.832847 
L 228.871689 131.533214 
L 229.016012 131.091947 
L 229.593304 130.11805 
L 229.629385 130.150889 
L 229.701547 130.10587 
L 229.84587 129.958326 
L 230.098435 130.052062 
L 230.711807 129.52207 
L 230.747888 129.560413 
L 230.964373 129.522867 
L 231.000453 129.549408 
L 231.036534 129.500301 
L 231.180857 129.423989 
L 231.433422 129.358603 
L 231.541665 129.272744 
L 231.830311 129.349838 
L 232.118957 128.938026 
L 232.29936 128.287853 
L 232.443683 128.262701 
L 232.515845 128.059998 
L 232.588006 128.102892 
L 232.660168 128.090122 
L 232.732329 127.802711 
L 232.804491 127.82363 
L 233.020975 127.90535 
L 233.057056 127.855334 
L 233.129217 127.913625 
L 233.309621 127.992224 
L 233.526106 127.286081 
L 233.598267 127.184592 
L 233.634348 127.220129 
L 233.778671 127.207393 
L 234.031236 126.890045 
L 234.103398 126.908883 
L 234.21164 126.718428 
L 234.247721 126.7421 
L 234.464205 126.673657 
L 234.608528 126.755526 
L 234.897174 126.176596 
L 234.969335 126.166676 
L 235.149739 125.584807 
L 235.474466 125.280325 
L 235.618789 125.026521 
L 235.871354 125.12636 
L 236.015677 125.069326 
L 236.412565 123.635162 
L 236.520807 123.657658 
L 236.773373 123.490763 
L 237.025938 123.499559 
L 237.314584 123.635755 
L 238.036199 121.28532 
L 238.216602 121.315633 
L 238.469168 121.245152 
L 238.938217 121.52898 
L 239.118621 121.458883 
L 239.262944 121.251319 
L 239.515509 121.123262 
L 239.623752 121.155994 
L 239.768075 120.995181 
L 239.876317 120.87239 
L 240.417528 120.349123 
L 240.52577 120.067853 
L 240.561851 120.101558 
L 240.742255 120.119556 
L 240.850497 120.162323 
L 240.99482 119.997972 
L 241.896838 119.71596 
L 241.932919 119.72035 
L 242.077242 119.402426 
L 242.257646 119.385546 
L 242.582373 119.016893 
L 242.762776 118.90902 
L 243.051422 118.431391 
L 243.123584 118.365617 
L 243.303988 117.013736 
L 243.340068 117.024956 
L 243.448311 116.706216 
L 243.484391 116.740387 
L 243.664795 116.722386 
L 243.736956 116.74129 
L 243.845199 116.392165 
L 243.881279 116.413652 
L 243.989522 116.295089 
L 244.133845 116.120571 
L 244.278168 116.136529 
L 244.747217 116.454757 
L 245.108025 116.572126 
L 245.252348 116.278375 
L 245.577075 116.085727 
L 245.613155 116.11753 
L 245.649236 116.025982 
L 245.685317 116.024518 
L 245.86572 115.727702 
L 246.082205 115.753899 
L 246.298689 115.643937 
L 246.33477 115.669408 
L 246.370851 115.566265 
L 246.406932 115.533226 
L 246.551255 115.136064 
L 246.623416 115.101668 
L 246.948143 114.658824 
L 246.984224 114.686951 
L 247.345031 114.777464 
L 247.633677 114.072727 
L 247.705838 114.054994 
L 247.994484 113.305634 
L 248.607857 113.560631 
L 248.75218 113.425122 
L 248.860422 113.012664 
L 248.896503 113.0191 
L 248.932584 113.038179 
L 249.112988 112.582055 
L 249.401633 112.721318 
L 249.473795 112.641536 
L 249.509876 112.597468 
L 249.582037 112.67196 
L 249.798522 112.561933 
L 249.834602 112.467604 
L 249.906764 112.533167 
L 250.484056 112.602869 
L 250.66446 112.416796 
L 250.953106 112.301801 
L 251.349994 111.699179 
L 251.530397 111.348173 
L 251.710801 111.267673 
L 252.396335 110.675859 
L 252.901466 109.484281 
L 252.937547 109.500258 
L 253.226192 109.596079 
L 253.262273 109.36077 
L 253.334435 109.382092 
L 253.370515 109.403486 
L 253.514838 109.079775 
L 253.623081 109.151685 
L 253.803484 108.88237 
L 253.875646 108.9321 
L 254.019969 108.603442 
L 254.05605 108.636815 
L 255.246714 108.439271 
L 255.896168 108.201045 
L 256.00441 107.86848 
L 256.076571 107.912588 
L 256.365217 107.84006 
L 256.50954 107.560913 
L 256.689944 107.311579 
L 256.798186 107.189007 
L 257.014671 106.620338 
L 257.267236 106.257597 
L 257.339397 106.325025 
L 257.591963 106.443274 
L 257.844528 106.114393 
L 258.42182 105.751321 
L 258.493981 105.727679 
L 258.638304 105.172848 
L 258.674385 105.193028 
L 258.818708 105.074699 
L 258.999112 104.615616 
L 259.107354 104.532354 
L 259.251677 104.207098 
L 259.359919 104.195998 
L 259.612484 104.252694 
L 259.792888 104.211282 
L 259.86505 104.166423 
L 259.90113 104.195019 
L 260.009373 104.153997 
L 260.153696 104.045595 
L 260.189776 104.082797 
L 260.225857 104.022532 
L 260.261938 103.97405 
L 260.334099 103.433047 
L 260.406261 103.48906 
L 260.442342 103.482895 
L 260.550584 103.264808 
L 260.586665 103.27954 
L 260.803149 103.212269 
L 260.947472 103.209483 
L 261.308279 102.966604 
L 261.633006 103.085066 
L 261.669087 103.007773 
L 261.741248 103.055147 
L 261.885571 102.935831 
L 262.029894 102.72681 
L 262.210298 102.082941 
L 262.354621 101.993581 
L 262.462863 102.045992 
L 262.498944 102.004 
L 262.823671 101.632631 
L 262.895832 101.393486 
L 262.931913 101.400702 
L 263.004074 101.435047 
L 263.040155 101.366795 
L 263.220559 101.22473 
L 263.364882 100.525582 
L 263.473124 100.533432 
L 263.617447 99.71045 
L 263.76177 99.245384 
L 263.797851 99.279876 
L 263.906093 99.004387 
L 263.942174 99.036613 
L 264.158658 99.125822 
L 264.447304 98.913819 
L 264.663789 98.52389 
L 264.699869 98.544477 
L 265.241081 98.590285 
L 265.313242 98.494153 
L 265.349323 98.510838 
L 266.034857 98.644521 
L 266.143099 98.612923 
L 266.287422 98.56444 
L 266.539987 98.213072 
L 266.936876 97.385415 
L 267.15336 97.391502 
L 267.225522 97.185991 
L 267.297683 97.228776 
L 267.369845 97.295672 
L 267.442006 97.220964 
L 267.514168 97.16422 
L 267.694571 96.294683 
L 267.766733 96.179253 
L 267.947137 95.857961 
L 268.09146 95.723266 
L 268.199702 95.618518 
L 268.235782 95.638433 
L 268.776994 95.655412 
L 269.137801 95.521268 
L 269.390366 95.618044 
L 269.642932 95.642553 
L 270.869677 95.044613 
L 271.050081 95.04678 
L 271.230484 94.693714 
L 271.266565 94.702579 
L 271.48305 94.187906 
L 271.555211 93.915445 
L 271.843857 93.351351 
L 271.916019 93.41094 
L 272.45723 93.817351 
L 272.565472 93.838912 
L 272.673714 93.833255 
L 272.96236 93.523412 
L 272.998441 93.550721 
L 273.575733 93.532829 
L 273.720056 93.442204 
L 274.333428 93.211587 
L 274.477751 93.128409 
L 274.658155 93.196763 
L 274.802478 92.955122 
L 275.343689 92.653945 
L 275.560174 91.945905 
L 275.596255 91.961255 
L 275.632335 91.868439 
L 275.668416 91.869309 
L 275.776658 91.589234 
L 275.812739 91.614511 
L 275.8849 91.633104 
L 275.920981 91.574913 
L 276.678677 90.822349 
L 276.895161 90.986215 
L 276.967323 90.812495 
L 277.039484 90.859986 
L 277.580696 90.636693 
L 277.688938 90.685252 
L 277.725018 90.569685 
L 277.79718 90.617208 
L 278.013664 90.595131 
L 278.30231 90.547376 
L 278.627037 90.585107 
L 278.807441 90.486294 
L 278.915683 90.47715 
L 279.023925 90.385922 
L 279.060006 90.412076 
L 279.204329 90.384816 
L 279.492975 90.240549 
L 279.673379 90.28713 
L 279.998105 90.168877 
L 280.178509 89.950346 
L 280.431074 90.070181 
L 281.116609 88.434697 
L 281.152689 88.464457 
L 281.405255 88.302275 
L 281.838223 88.52044 
L 282.054708 87.883087 
L 282.126869 87.921199 
L 282.415515 87.917415 
L 282.595919 87.602131 
L 282.920646 87.54826 
L 283.064969 87.260429 
L 283.173211 87.265433 
L 283.353615 86.852914 
L 283.461857 86.915845 
L 283.534018 86.876884 
L 283.786584 86.474807 
L 284.291714 86.821242 
L 284.436037 86.748707 
L 284.58036 86.730319 
L 284.760764 86.514211 
L 284.796845 86.502469 
L 284.941168 86.302073 
L 285.301975 86.23809 
L 285.626702 85.959455 
L 285.843186 84.979745 
L 285.951428 84.753831 
L 285.987509 84.76669 
L 286.02359 84.798469 
L 286.095751 84.677345 
L 286.167913 84.699413 
L 286.276155 84.686084 
L 286.456559 84.83409 
L 286.49264 84.743987 
L 286.673043 84.737327 
L 286.99777 83.952979 
L 287.033851 83.98564 
L 287.322497 83.453051 
L 287.647223 82.912969 
L 287.683304 82.944814 
L 288.116273 83.068017 
L 288.152354 82.941288 
L 288.224515 82.966121 
L 288.296677 83.005039 
L 288.585323 82.524274 
L 288.873969 82.373637 
L 289.234776 82.645922 
L 289.523422 82.464923 
L 289.667745 82.466163 
L 289.848149 82.202586 
L 290.064633 82.222706 
L 290.208956 81.983543 
L 290.425441 81.969928 
L 290.569764 81.694477 
L 290.605845 81.710225 
L 290.750168 81.664439 
L 290.89449 81.492379 
L 291.147056 81.402401 
L 291.219217 81.198146 
L 291.291379 81.219798 
L 291.940832 81.517443 
L 292.157317 81.628011 
L 292.734608 80.628256 
L 293.27582 80.793217 
L 293.456223 80.763278 
L 293.492304 80.794007 
L 293.528385 80.731924 
L 293.744869 80.515123 
L 294.141758 80.578047 
L 294.358242 80.066484 
L 294.466484 79.86386 
L 294.646888 79.422663 
L 294.827292 79.531205 
L 295.22418 79.899975 
L 295.260261 79.843989 
L 295.512826 79.74248 
L 295.72931 79.707205 
L 295.909714 79.421221 
L 295.945795 79.449224 
L 296.306602 79.464635 
L 296.450925 79.212905 
L 297.136459 77.913874 
L 297.208621 77.353446 
L 297.280782 77.371589 
L 297.425105 77.355091 
L 297.497267 77.259867 
L 297.533348 77.296465 
L 297.785913 77.498637 
L 298.074559 77.616943 
L 298.976577 76.741465 
L 299.517789 76.924348 
L 299.626031 76.977547 
L 299.806435 76.82963 
L 299.950758 76.788765 
L 300.095081 76.766627 
L 300.311565 76.802466 
L 300.56413 76.66212 
L 300.780615 76.285519 
L 300.816695 76.315376 
L 300.924938 76.343922 
L 301.069261 75.908775 
L 301.213584 75.956849 
L 301.393987 75.839222 
L 301.754795 75.808205 
L 301.863037 75.814148 
L 302.043441 75.85038 
L 302.079522 75.768534 
L 302.151683 75.831584 
L 302.296006 75.916892 
L 302.440329 75.756437 
L 302.620733 75.692476 
L 302.945459 75.784125 
L 303.053702 75.805016 
L 303.306267 75.896839 
L 303.522751 75.924881 
L 303.630994 75.895282 
L 303.847478 75.928915 
L 303.991801 75.874711 
L 304.136124 75.871664 
L 304.280447 75.820306 
L 304.352608 75.860446 
L 304.388689 75.656217 
L 304.460851 75.713965 
L 304.749497 75.907566 
L 304.965981 75.620396 
L 305.146385 75.024352 
L 305.182466 75.05026 
L 305.218546 75.074647 
L 305.254627 75.010829 
L 305.471112 74.96207 
L 306.012323 75.296782 
L 306.048403 75.183328 
L 306.228807 75.087644 
L 306.733938 74.628342 
L 306.914341 74.627633 
L 307.094745 74.569472 
L 307.239068 74.563641 
L 307.635956 74.264298 
L 307.780279 74.057242 
L 307.888521 74.093519 
L 308.068925 73.933492 
L 308.32149 74.019886 
L 308.465813 74.066943 
L 308.718379 73.659953 
L 308.826621 73.604102 
L 309.007025 73.524258 
L 309.151348 73.604735 
L 309.620397 73.727323 
L 309.76472 73.698129 
L 309.836882 73.666225 
L 309.981205 73.557881 
L 310.378093 73.532669 
L 310.486335 73.472788 
L 310.522416 73.504955 
L 310.70282 73.542123 
L 310.919304 73.536337 
L 311.135789 73.62672 
L 311.316192 73.489649 
L 311.460515 73.454279 
L 311.677 73.394848 
L 311.893484 73.402225 
L 312.362534 73.133722 
L 312.579018 72.779426 
L 312.795503 72.762374 
L 312.939826 72.592921 
L 313.228472 72.650707 
L 313.372795 72.561691 
L 313.408876 72.595018 
L 313.62536 72.542689 
L 313.733602 72.493803 
L 313.877925 72.355076 
L 314.274813 72.42391 
L 314.383056 72.354719 
L 314.563459 72.24468 
L 314.707782 72.165905 
L 314.779944 72.181818 
L 314.960348 71.827461 
L 315.465478 71.549778 
L 315.790205 71.614951 
L 316.006689 71.666516 
L 316.583981 71.638044 
L 316.764385 71.29361 
L 316.800466 71.187778 
L 316.872627 71.22823 
L 317.01695 71.177159 
L 317.486 71.11512 
L 317.630323 70.809351 
L 317.882888 70.896926 
L 318.388018 71.018012 
L 318.46018 70.986514 
L 318.640584 70.602579 
L 318.857068 70.578069 
L 318.92923 70.389497 
L 319.109633 70.323645 
L 319.181795 70.356576 
L 319.217875 70.308147 
L 319.398279 70.215838 
L 319.43436 70.130732 
L 319.506521 70.181462 
L 319.759087 70.266724 
L 320.011652 70.13563 
L 320.119894 70.096791 
L 320.264217 69.865654 
L 320.625025 69.693005 
L 320.87759 69.12426 
L 321.057993 69.122104 
L 321.274478 69.174676 
L 321.671366 69.222798 
L 321.815689 69.054785 
L 322.104335 69.159327 
L 322.212577 69.051165 
L 322.429062 68.94024 
L 322.573385 68.896981 
L 322.681627 68.422582 
L 322.717708 68.439328 
L 323.078515 68.458429 
L 323.547565 67.742372 
L 323.583646 67.766309 
L 324.052695 68.087875 
L 324.26918 68.215906 
L 324.305261 68.167045 
L 324.449584 68.174162 
L 325.026875 67.966624 
L 325.062956 67.897305 
L 325.135118 67.937372 
L 325.315521 67.951252 
L 325.459844 67.984292 
L 325.640248 67.940265 
L 325.784571 67.918984 
L 325.892813 67.880038 
L 326.037136 67.557888 
L 326.21754 67.485442 
L 326.434025 67.057043 
L 326.72267 66.607013 
L 326.758751 66.602321 
L 326.939155 66.287145 
L 327.155639 66.26289 
L 327.227801 66.210643 
L 327.263882 66.240745 
L 327.769012 66.250585 
L 328.093739 65.804261 
L 328.418466 65.935777 
L 328.598869 65.901581 
L 328.959677 66.037693 
L 329.320484 65.87745 
L 329.428726 65.63295 
L 329.717372 65.72108 
L 330.258584 65.458986 
L 330.402907 65.397879 
L 330.908037 65.035874 
L 331.160602 65.107812 
L 331.268844 65.083277 
L 331.665733 65.251143 
L 331.773975 65.169158 
L 331.810056 65.187637 
L 332.02654 65.152139 
L 332.243025 65.172896 
L 332.748155 65.258437 
L 332.856397 65.3217 
L 332.892478 65.268257 
L 333.072882 65.134026 
L 333.181124 64.871967 
L 333.217205 64.702814 
L 333.289366 64.737459 
L 333.361528 64.733388 
L 333.505851 64.311791 
L 333.830577 64.118469 
L 334.047062 64.153211 
L 334.299627 64.240664 
L 334.660434 64.195583 
L 334.768677 64.065318 
L 334.804757 64.091095 
L 335.273807 64.360078 
L 335.41813 64.394356 
L 335.490292 64.390485 
L 335.670695 64.177968 
L 335.959341 64.258037 
L 335.995422 64.167424 
L 336.067584 64.222876 
L 336.39231 64.375273 
L 336.536633 64.247231 
L 336.572714 64.234051 
L 336.680956 64.095484 
L 336.717037 64.113217 
L 336.825279 64.003604 
L 337.005683 63.563668 
L 337.294329 63.355626 
L 337.582975 63.445186 
L 338.052024 63.385364 
L 338.160267 63.369841 
L 338.521074 63.541461 
L 338.954043 63.470076 
L 339.206608 63.006578 
L 339.27877 62.902658 
L 339.567416 62.774123 
L 339.819981 62.837083 
L 340.180788 62.564352 
L 340.25295 62.495562 
L 340.397273 62.361193 
L 340.577677 62.413847 
L 340.830242 62.033822 
L 341.118888 62.134401 
L 341.407534 61.936803 
L 341.443615 61.953766 
L 341.624018 61.464611 
L 341.768341 61.35169 
L 341.840503 61.362442 
L 341.984826 61.179884 
L 342.20131 61.175501 
L 342.381714 61.223625 
L 342.67036 61.328356 
L 343.355894 61.2399 
L 343.64454 61.3474 
L 343.788863 61.306304 
L 344.763043 61.329551 
L 344.907366 61.262743 
L 345.412497 61.142554 
L 345.5929 60.786895 
L 345.701142 60.729489 
L 345.845465 60.49784 
L 345.881546 60.515177 
L 346.494919 60.531889 
L 346.531 60.400068 
L 346.603161 60.445019 
L 346.675323 60.48903 
L 346.711403 60.396994 
L 346.855726 60.24691 
L 346.927888 60.039593 
L 347.000049 60.070525 
L 347.396938 60.290753 
L 347.721664 60.41787 
L 347.902068 60.389348 
L 348.046391 60.370883 
L 348.371118 60.101229 
L 348.876248 60.12874 
L 349.092733 60.155097 
L 349.128813 60.171184 
L 349.273136 60.027953 
L 349.45354 59.880571 
L 349.525701 59.928971 
L 349.561782 59.859716 
L 349.778267 59.71048 
L 350.211236 59.856263 
L 350.355559 59.840322 
L 350.572043 59.914888 
L 350.644205 59.773973 
L 350.716366 59.812704 
L 350.860689 59.825583 
L 351.437981 59.506912 
L 351.582304 59.509883 
L 351.690546 59.330246 
L 351.726627 59.347336 
L 351.87095 59.398003 
L 351.907031 59.34688 
L 352.015273 59.16918 
L 352.087434 59.082761 
L 352.123515 58.875476 
L 352.195677 58.89947 
L 352.84513 59.020493 
L 353.025534 58.950436 
L 353.133776 58.8963 
L 353.35026 58.730269 
L 354.035795 59.043163 
L 354.252279 58.960268 
L 354.613087 59.115655 
L 354.79349 59.102973 
L 354.973894 59.088584 
L 355.442944 58.989555 
L 355.659428 59.025273 
L 355.73159 59.011993 
L 355.76767 58.912407 
L 355.839832 58.94521 
L 356.344962 59.099283 
L 356.417124 58.88212 
L 356.489285 58.902749 
L 356.597528 58.834926 
L 356.850093 58.583638 
L 357.67995 58.686139 
L 357.752111 58.484114 
L 357.824273 58.507192 
L 358.221161 58.67273 
L 358.329403 58.668686 
L 358.618049 58.785134 
L 358.942776 58.639111 
L 359.014937 58.639681 
L 359.051018 58.384762 
L 359.12318 58.416201 
L 359.303583 58.45157 
L 359.447906 58.311188 
L 359.62831 58.25738 
L 359.916956 57.988697 
L 360.061279 57.832283 
L 360.386006 57.87545 
L 360.60249 57.844177 
L 360.710732 57.843707 
L 361.504509 58.015533 
L 362.478689 57.94825 
L 362.767335 57.894737 
L 363.0199 57.969605 
L 363.200304 57.962427 
L 363.380708 57.868313 
L 363.633273 57.908962 
L 363.705434 57.686797 
L 363.777596 57.714983 
L 364.066242 57.854332 
L 364.282726 57.936507 
L 364.96826 57.445762 
L 365.401229 57.659217 
L 365.689875 57.763157 
L 365.90636 57.62743 
L 366.086764 57.583185 
L 366.231087 57.553101 
L 366.339329 57.336467 
L 366.41149 57.383738 
L 366.447571 57.404655 
L 366.627975 57.157657 
L 366.736217 57.171054 
L 366.844459 56.99697 
L 366.88054 57.010016 
L 367.38567 56.580344 
L 367.746478 56.744596 
L 368.432012 56.996 
L 368.576335 56.86315 
L 368.612416 56.876211 
L 368.756739 56.58871 
L 369.334031 56.63513 
L 369.478354 56.596974 
L 369.694838 56.504761 
L 369.875242 56.346237 
L 370.199968 56.168161 
L 370.452534 56.147174 
L 370.921583 55.923655 
L 370.957664 55.846767 
L 371.029826 55.882089 
L 371.751441 55.871488 
L 371.895764 55.583986 
L 372.004006 55.611218 
L 372.68954 55.818281 
L 372.869944 55.737463 
L 373.19467 55.931713 
L 373.230751 55.867745 
L 373.771962 55.584532 
L 374.349254 55.851043 
L 374.493577 55.755572 
L 374.6379 55.763722 
L 374.818304 55.688271 
L 375.070869 55.268178 
L 375.467757 55.483749 
L 375.864645 55.499691 
L 376.117211 55.587698 
L 376.369776 55.543446 
L 376.766664 55.71183 
L 376.910987 55.673584 
L 378.137732 55.386521 
L 378.245975 55.431944 
L 378.390298 55.3157 
L 378.642863 55.170254 
L 378.715024 55.132768 
L 378.751105 55.007677 
L 378.823267 55.054663 
L 379.292316 55.268966 
L 379.400559 55.274156 
L 379.544881 55.099833 
L 379.797447 54.88738 
L 380.194335 55.121712 
L 380.302577 55.09771 
L 380.555142 55.112089 
L 380.699465 55.034419 
L 380.879869 55.013549 
L 381.024192 54.937545 
L 381.276757 55.044537 
L 381.817968 55.266775 
L 381.998372 55.235442 
L 382.214857 55.265497 
L 382.35918 55.151596 
L 382.575664 55.063939 
L 382.972552 55.192609 
L 383.405521 55.240545 
L 384.091055 55.470679 
L 384.30754 55.487523 
L 384.487944 55.486275 
L 385.101316 55.254683 
L 385.173478 55.279004 
L 385.389962 54.974546 
L 385.967254 54.638189 
L 386.183739 54.474266 
L 386.544546 54.520414 
L 386.797111 54.497586 
L 386.977515 54.407595 
L 387.085757 54.335614 
L 387.266161 54.30713 
L 387.410484 54.294529 
L 387.951695 54.477705 
L 388.16818 54.31638 
L 388.240341 54.078481 
L 388.276422 54.085604 
L 388.709391 54.313666 
L 388.745472 54.238077 
L 388.817633 54.286052 
L 388.961956 54.264998 
L 389.286683 54.201098 
L 389.719652 54.304169 
L 390.044378 54.190768 
L 390.260863 54.231014 
L 390.58559 54.369429 
L 390.765993 54.382669 
L 391.054639 54.36038 
L 391.884496 54.678349 
L 392.570031 54.652274 
L 392.714353 54.642041 
L 392.894757 54.548138 
L 393.111242 54.532081 
L 393.363807 54.446391 
L 393.97718 54.429304 
L 394.229745 54.318985 
L 394.337987 54.358828 
L 394.446229 54.234949 
L 394.48231 54.249017 
L 394.915279 54.311869 
L 395.203925 54.406098 
L 395.312167 54.330375 
L 395.420409 54.276021 
L 395.600813 54.193358 
L 396.89972 54.371133 
L 397.116204 54.401949 
L 397.296608 54.342382 
L 397.657416 54.24996 
L 397.946062 54.329464 
L 398.487273 54.324912 
L 398.487273 54.324912 
" clip-path="url(#p4afa8a4004)" style="fill: none; stroke: #d62728; stroke-width: 1.5; stroke-linecap: square"/>
   </g>
   <g id="patch_3">
    <path d="M 57.6 307.584 
L 57.6 41.472 
" style="fill: none; stroke: #ffffff; stroke-linejoin: miter; stroke-linecap: square"/>
   </g>
   <g id="patch_4">
    <path d="M 414.72 307.584 
L 414.72 41.472 
" style="fill: none; stroke: #ffffff; stroke-linejoin: miter; stroke-linecap: square"/>
   </g>
   <g id="patch_5">
    <path d="M 57.6 307.584 
L 414.72 307.584 
" style="fill: none; stroke: #ffffff; stroke-linejoin: miter; stroke-linecap: square"/>
   </g>
   <g id="patch_6">
    <path d="M 57.6 41.472 
L 414.72 41.472 
" style="fill: none; stroke: #ffffff; stroke-linejoin: miter; stroke-linecap: square"/>
   </g>
   <g id="text_15">
    <!-- 2921.2219135459495 -->
    <g transform="translate(398.487273 54.324912) scale(0.1 -0.1)">
     <defs>
      <path id="DejaVuSans-39" d="M 703 97 
L 703 672 
Q 941 559 1184 500 
Q 1428 441 1663 441 
Q 2288 441 2617 861 
Q 2947 1281 2994 2138 
Q 2813 1869 2534 1725 
Q 2256 1581 1919 1581 
Q 1219 1581 811 2004 
Q 403 2428 403 3163 
Q 403 3881 828 4315 
Q 1253 4750 1959 4750 
Q 2769 4750 3195 4129 
Q 3622 3509 3622 2328 
Q 3622 1225 3098 567 
Q 2575 -91 1691 -91 
Q 1453 -91 1209 -44 
Q 966 3 703 97 
z
M 1959 2075 
Q 2384 2075 2632 2365 
Q 2881 2656 2881 3163 
Q 2881 3666 2632 3958 
Q 2384 4250 1959 4250 
Q 1534 4250 1286 3958 
Q 1038 3666 1038 3163 
Q 1038 2656 1286 2365 
Q 1534 2075 1959 2075 
z
" transform="scale(0.015625)"/>
      <path id="DejaVuSans-2e" d="M 684 794 
L 1344 794 
L 1344 0 
L 684 0 
L 684 794 
z
" transform="scale(0.015625)"/>
     </defs>
     <use xlink:href="#DejaVuSans-32"/>
     <use xlink:href="#DejaVuSans-39" x="63.623047"/>
     <use xlink:href="#DejaVuSans-32" x="127.246094"/>
     <use xlink:href="#DejaVuSans-31" x="190.869141"/>
     <use xlink:href="#DejaVuSans-2e" x="254.492188"/>
     <use xlink:href="#DejaVuSans-32" x="286.279297"/>
     <use xlink:href="#DejaVuSans-32" x="349.902344"/>
     <use xlink:href="#DejaVuSans-31" x="413.525391"/>
     <use xlink:href="#DejaVuSans-39" x="477.148438"/>
     <use xlink:href="#DejaVuSans-31" x="540.771484"/>
     <use xlink:href="#DejaVuSans-33" x="604.394531"/>
     <use xlink:href="#DejaVuSans-35" x="668.017578"/>
     <use xlink:href="#DejaVuSans-34" x="731.640625"/>
     <use xlink:href="#DejaVuSans-35" x="795.263672"/>
     <use xlink:href="#DejaVuSans-39" x="858.886719"/>
     <use xlink:href="#DejaVuSans-34" x="922.509766"/>
     <use xlink:href="#DejaVuSans-39" x="986.132812"/>
     <use xlink:href="#DejaVuSans-35" x="1049.755859"/>
    </g>
   </g>
   <g id="text_16">
    <!-- Epoch: 9000 -->
    <g transform="translate(191.0745 35.472) scale(0.144 -0.144)">
     <defs>
      <path id="DejaVuSans-45" d="M 628 4666 
L 3578 4666 
L 3578 4134 
L 1259 4134 
L 1259 2753 
L 3481 2753 
L 3481 2222 
L 1259 2222 
L 1259 531 
L 3634 531 
L 3634 0 
L 628 0 
L 628 4666 
z
" transform="scale(0.015625)"/>
      <path id="DejaVuSans-70" d="M 1159 525 
L 1159 -1331 
L 581 -1331 
L 581 3500 
L 1159 3500 
L 1159 2969 
Q 1341 3281 1617 3432 
Q 1894 3584 2278 3584 
Q 2916 3584 3314 3078 
Q 3713 2572 3713 1747 
Q 3713 922 3314 415 
Q 2916 -91 2278 -91 
Q 1894 -91 1617 61 
Q 1341 213 1159 525 
z
M 3116 1747 
Q 3116 2381 2855 2742 
Q 2594 3103 2138 3103 
Q 1681 3103 1420 2742 
Q 1159 2381 1159 1747 
Q 1159 1113 1420 752 
Q 1681 391 2138 391 
Q 2594 391 2855 752 
Q 3116 1113 3116 1747 
z
" transform="scale(0.015625)"/>
      <path id="DejaVuSans-63" d="M 3122 3366 
L 3122 2828 
Q 2878 2963 2633 3030 
Q 2388 3097 2138 3097 
Q 1578 3097 1268 2742 
Q 959 2388 959 1747 
Q 959 1106 1268 751 
Q 1578 397 2138 397 
Q 2388 397 2633 464 
Q 2878 531 3122 666 
L 3122 134 
Q 2881 22 2623 -34 
Q 2366 -91 2075 -91 
Q 1284 -91 818 406 
Q 353 903 353 1747 
Q 353 2603 823 3093 
Q 1294 3584 2113 3584 
Q 2378 3584 2631 3529 
Q 2884 3475 3122 3366 
z
" transform="scale(0.015625)"/>
      <path id="DejaVuSans-68" d="M 3513 2113 
L 3513 0 
L 2938 0 
L 2938 2094 
Q 2938 2591 2744 2837 
Q 2550 3084 2163 3084 
Q 1697 3084 1428 2787 
Q 1159 2491 1159 1978 
L 1159 0 
L 581 0 
L 581 4863 
L 1159 4863 
L 1159 2956 
Q 1366 3272 1645 3428 
Q 1925 3584 2291 3584 
Q 2894 3584 3203 3211 
Q 3513 2838 3513 2113 
z
" transform="scale(0.015625)"/>
      <path id="DejaVuSans-3a" d="M 750 794 
L 1409 794 
L 1409 0 
L 750 0 
L 750 794 
z
M 750 3309 
L 1409 3309 
L 1409 2516 
L 750 2516 
L 750 3309 
z
" transform="scale(0.015625)"/>
     </defs>
     <use xlink:href="#DejaVuSans-45"/>
     <use xlink:href="#DejaVuSans-70" x="63.183594"/>
     <use xlink:href="#DejaVuSans-6f" x="126.660156"/>
     <use xlink:href="#DejaVuSans-63" x="187.841797"/>
     <use xlink:href="#DejaVuSans-68" x="242.822266"/>
     <use xlink:href="#DejaVuSans-3a" x="306.201172"/>
     <use xlink:href="#DejaVuSans-20" x="339.892578"/>
     <use xlink:href="#DejaVuSans-39" x="371.679688"/>
     <use xlink:href="#DejaVuSans-30" x="435.302734"/>
     <use xlink:href="#DejaVuSans-30" x="498.925781"/>
     <use xlink:href="#DejaVuSans-30" x="562.548828"/>
    </g>
   </g>
  </g>
 </g>
 <defs>
  <clipPath id="p4afa8a4004">
   <rect x="57.6" y="41.472" width="357.12" height="266.112"/>
  </clipPath>
 </defs>
</svg>
