<?xml version="1.0" encoding="utf-8" standalone="no"?>
<!DOCTYPE svg PUBLIC "-//W3C//DTD SVG 1.1//EN"
  "http://www.w3.org/Graphics/SVG/1.1/DTD/svg11.dtd">
<svg xmlns:xlink="http://www.w3.org/1999/xlink" width="460.8pt" height="345.6pt" viewBox="0 0 460.8 345.6" xmlns="http://www.w3.org/2000/svg" version="1.1">
 <metadata>
  <rdf:RDF xmlns:dc="http://purl.org/dc/elements/1.1/" xmlns:cc="http://creativecommons.org/ns#" xmlns:rdf="http://www.w3.org/1999/02/22-rdf-syntax-ns#">
   <cc:Work>
    <dc:type rdf:resource="http://purl.org/dc/dcmitype/StillImage"/>
    <dc:date>2024-09-10T06:07:56.490350</dc:date>
    <dc:format>image/svg+xml</dc:format>
    <dc:creator>
     <cc:Agent>
      <dc:title>Matplotlib v3.8.4, https://matplotlib.org/</dc:title>
     </cc:Agent>
    </dc:creator>
   </cc:Work>
  </rdf:RDF>
 </metadata>
 <defs>
  <style type="text/css">*{stroke-linejoin: round; stroke-linecap: butt}</style>
 </defs>
 <g id="figure_1">
  <g id="patch_1">
   <path d="M 0 345.6 
L 460.8 345.6 
L 460.8 0 
L 0 0 
z
" style="fill: #ffffff"/>
  </g>
  <g id="axes_1">
   <g id="patch_2">
    <path d="M 57.6 307.584 
L 414.72 307.584 
L 414.72 41.472 
L 57.6 41.472 
z
" style="fill: #e5e5e5"/>
   </g>
   <g id="matplotlib.axis_1">
    <g id="xtick_1">
     <g id="line2d_1">
      <path d="M 73.832727 307.584 
L 73.832727 41.472 
" clip-path="url(#p06ea8b2ecc)" style="fill: none; stroke: #ffffff; stroke-width: 0.8; stroke-linecap: square"/>
     </g>
     <g id="line2d_2">
      <defs>
       <path id="mccce05b9ca" d="M 0 0 
L 0 3.5 
" style="stroke: #555555; stroke-width: 0.8"/>
      </defs>
      <g>
       <use xlink:href="#mccce05b9ca" x="73.832727" y="307.584" style="fill: #555555; stroke: #555555; stroke-width: 0.8"/>
      </g>
     </g>
     <g id="text_1">
      <!-- 0 -->
      <g style="fill: #555555" transform="translate(70.651477 322.182437) scale(0.1 -0.1)">
       <defs>
        <path id="DejaVuSans-30" d="M 2034 4250 
Q 1547 4250 1301 3770 
Q 1056 3291 1056 2328 
Q 1056 1369 1301 889 
Q 1547 409 2034 409 
Q 2525 409 2770 889 
Q 3016 1369 3016 2328 
Q 3016 3291 2770 3770 
Q 2525 4250 2034 4250 
z
M 2034 4750 
Q 2819 4750 3233 4129 
Q 3647 3509 3647 2328 
Q 3647 1150 3233 529 
Q 2819 -91 2034 -91 
Q 1250 -91 836 529 
Q 422 1150 422 2328 
Q 422 3509 836 4129 
Q 1250 4750 2034 4750 
z
" transform="scale(0.015625)"/>
       </defs>
       <use xlink:href="#DejaVuSans-30"/>
      </g>
     </g>
    </g>
    <g id="xtick_2">
     <g id="line2d_3">
      <path d="M 117.125772 307.584 
L 117.125772 41.472 
" clip-path="url(#p06ea8b2ecc)" style="fill: none; stroke: #ffffff; stroke-width: 0.8; stroke-linecap: square"/>
     </g>
     <g id="line2d_4">
      <g>
       <use xlink:href="#mccce05b9ca" x="117.125772" y="307.584" style="fill: #555555; stroke: #555555; stroke-width: 0.8"/>
      </g>
     </g>
     <g id="text_2">
      <!-- 2000 -->
      <g style="fill: #555555" transform="translate(104.400772 322.182437) scale(0.1 -0.1)">
       <defs>
        <path id="DejaVuSans-32" d="M 1228 531 
L 3431 531 
L 3431 0 
L 469 0 
L 469 531 
Q 828 903 1448 1529 
Q 2069 2156 2228 2338 
Q 2531 2678 2651 2914 
Q 2772 3150 2772 3378 
Q 2772 3750 2511 3984 
Q 2250 4219 1831 4219 
Q 1534 4219 1204 4116 
Q 875 4013 500 3803 
L 500 4441 
Q 881 4594 1212 4672 
Q 1544 4750 1819 4750 
Q 2544 4750 2975 4387 
Q 3406 4025 3406 3419 
Q 3406 3131 3298 2873 
Q 3191 2616 2906 2266 
Q 2828 2175 2409 1742 
Q 1991 1309 1228 531 
z
" transform="scale(0.015625)"/>
       </defs>
       <use xlink:href="#DejaVuSans-32"/>
       <use xlink:href="#DejaVuSans-30" x="63.623047"/>
       <use xlink:href="#DejaVuSans-30" x="127.246094"/>
       <use xlink:href="#DejaVuSans-30" x="190.869141"/>
      </g>
     </g>
    </g>
    <g id="xtick_3">
     <g id="line2d_5">
      <path d="M 160.418818 307.584 
L 160.418818 41.472 
" clip-path="url(#p06ea8b2ecc)" style="fill: none; stroke: #ffffff; stroke-width: 0.8; stroke-linecap: square"/>
     </g>
     <g id="line2d_6">
      <g>
       <use xlink:href="#mccce05b9ca" x="160.418818" y="307.584" style="fill: #555555; stroke: #555555; stroke-width: 0.8"/>
      </g>
     </g>
     <g id="text_3">
      <!-- 4000 -->
      <g style="fill: #555555" transform="translate(147.693818 322.182437) scale(0.1 -0.1)">
       <defs>
        <path id="DejaVuSans-34" d="M 2419 4116 
L 825 1625 
L 2419 1625 
L 2419 4116 
z
M 2253 4666 
L 3047 4666 
L 3047 1625 
L 3713 1625 
L 3713 1100 
L 3047 1100 
L 3047 0 
L 2419 0 
L 2419 1100 
L 313 1100 
L 313 1709 
L 2253 4666 
z
" transform="scale(0.015625)"/>
       </defs>
       <use xlink:href="#DejaVuSans-34"/>
       <use xlink:href="#DejaVuSans-30" x="63.623047"/>
       <use xlink:href="#DejaVuSans-30" x="127.246094"/>
       <use xlink:href="#DejaVuSans-30" x="190.869141"/>
      </g>
     </g>
    </g>
    <g id="xtick_4">
     <g id="line2d_7">
      <path d="M 203.711863 307.584 
L 203.711863 41.472 
" clip-path="url(#p06ea8b2ecc)" style="fill: none; stroke: #ffffff; stroke-width: 0.8; stroke-linecap: square"/>
     </g>
     <g id="line2d_8">
      <g>
       <use xlink:href="#mccce05b9ca" x="203.711863" y="307.584" style="fill: #555555; stroke: #555555; stroke-width: 0.8"/>
      </g>
     </g>
     <g id="text_4">
      <!-- 6000 -->
      <g style="fill: #555555" transform="translate(190.986863 322.182437) scale(0.1 -0.1)">
       <defs>
        <path id="DejaVuSans-36" d="M 2113 2584 
Q 1688 2584 1439 2293 
Q 1191 2003 1191 1497 
Q 1191 994 1439 701 
Q 1688 409 2113 409 
Q 2538 409 2786 701 
Q 3034 994 3034 1497 
Q 3034 2003 2786 2293 
Q 2538 2584 2113 2584 
z
M 3366 4563 
L 3366 3988 
Q 3128 4100 2886 4159 
Q 2644 4219 2406 4219 
Q 1781 4219 1451 3797 
Q 1122 3375 1075 2522 
Q 1259 2794 1537 2939 
Q 1816 3084 2150 3084 
Q 2853 3084 3261 2657 
Q 3669 2231 3669 1497 
Q 3669 778 3244 343 
Q 2819 -91 2113 -91 
Q 1303 -91 875 529 
Q 447 1150 447 2328 
Q 447 3434 972 4092 
Q 1497 4750 2381 4750 
Q 2619 4750 2861 4703 
Q 3103 4656 3366 4563 
z
" transform="scale(0.015625)"/>
       </defs>
       <use xlink:href="#DejaVuSans-36"/>
       <use xlink:href="#DejaVuSans-30" x="63.623047"/>
       <use xlink:href="#DejaVuSans-30" x="127.246094"/>
       <use xlink:href="#DejaVuSans-30" x="190.869141"/>
      </g>
     </g>
    </g>
    <g id="xtick_5">
     <g id="line2d_9">
      <path d="M 247.004908 307.584 
L 247.004908 41.472 
" clip-path="url(#p06ea8b2ecc)" style="fill: none; stroke: #ffffff; stroke-width: 0.8; stroke-linecap: square"/>
     </g>
     <g id="line2d_10">
      <g>
       <use xlink:href="#mccce05b9ca" x="247.004908" y="307.584" style="fill: #555555; stroke: #555555; stroke-width: 0.8"/>
      </g>
     </g>
     <g id="text_5">
      <!-- 8000 -->
      <g style="fill: #555555" transform="translate(234.279908 322.182437) scale(0.1 -0.1)">
       <defs>
        <path id="DejaVuSans-38" d="M 2034 2216 
Q 1584 2216 1326 1975 
Q 1069 1734 1069 1313 
Q 1069 891 1326 650 
Q 1584 409 2034 409 
Q 2484 409 2743 651 
Q 3003 894 3003 1313 
Q 3003 1734 2745 1975 
Q 2488 2216 2034 2216 
z
M 1403 2484 
Q 997 2584 770 2862 
Q 544 3141 544 3541 
Q 544 4100 942 4425 
Q 1341 4750 2034 4750 
Q 2731 4750 3128 4425 
Q 3525 4100 3525 3541 
Q 3525 3141 3298 2862 
Q 3072 2584 2669 2484 
Q 3125 2378 3379 2068 
Q 3634 1759 3634 1313 
Q 3634 634 3220 271 
Q 2806 -91 2034 -91 
Q 1263 -91 848 271 
Q 434 634 434 1313 
Q 434 1759 690 2068 
Q 947 2378 1403 2484 
z
M 1172 3481 
Q 1172 3119 1398 2916 
Q 1625 2713 2034 2713 
Q 2441 2713 2670 2916 
Q 2900 3119 2900 3481 
Q 2900 3844 2670 4047 
Q 2441 4250 2034 4250 
Q 1625 4250 1398 4047 
Q 1172 3844 1172 3481 
z
" transform="scale(0.015625)"/>
       </defs>
       <use xlink:href="#DejaVuSans-38"/>
       <use xlink:href="#DejaVuSans-30" x="63.623047"/>
       <use xlink:href="#DejaVuSans-30" x="127.246094"/>
       <use xlink:href="#DejaVuSans-30" x="190.869141"/>
      </g>
     </g>
    </g>
    <g id="xtick_6">
     <g id="line2d_11">
      <path d="M 290.297953 307.584 
L 290.297953 41.472 
" clip-path="url(#p06ea8b2ecc)" style="fill: none; stroke: #ffffff; stroke-width: 0.8; stroke-linecap: square"/>
     </g>
     <g id="line2d_12">
      <g>
       <use xlink:href="#mccce05b9ca" x="290.297953" y="307.584" style="fill: #555555; stroke: #555555; stroke-width: 0.8"/>
      </g>
     </g>
     <g id="text_6">
      <!-- 10000 -->
      <g style="fill: #555555" transform="translate(274.391703 322.182437) scale(0.1 -0.1)">
       <defs>
        <path id="DejaVuSans-31" d="M 794 531 
L 1825 531 
L 1825 4091 
L 703 3866 
L 703 4441 
L 1819 4666 
L 2450 4666 
L 2450 531 
L 3481 531 
L 3481 0 
L 794 0 
L 794 531 
z
" transform="scale(0.015625)"/>
       </defs>
       <use xlink:href="#DejaVuSans-31"/>
       <use xlink:href="#DejaVuSans-30" x="63.623047"/>
       <use xlink:href="#DejaVuSans-30" x="127.246094"/>
       <use xlink:href="#DejaVuSans-30" x="190.869141"/>
       <use xlink:href="#DejaVuSans-30" x="254.492188"/>
      </g>
     </g>
    </g>
    <g id="xtick_7">
     <g id="line2d_13">
      <path d="M 333.590998 307.584 
L 333.590998 41.472 
" clip-path="url(#p06ea8b2ecc)" style="fill: none; stroke: #ffffff; stroke-width: 0.8; stroke-linecap: square"/>
     </g>
     <g id="line2d_14">
      <g>
       <use xlink:href="#mccce05b9ca" x="333.590998" y="307.584" style="fill: #555555; stroke: #555555; stroke-width: 0.8"/>
      </g>
     </g>
     <g id="text_7">
      <!-- 12000 -->
      <g style="fill: #555555" transform="translate(317.684748 322.182437) scale(0.1 -0.1)">
       <use xlink:href="#DejaVuSans-31"/>
       <use xlink:href="#DejaVuSans-32" x="63.623047"/>
       <use xlink:href="#DejaVuSans-30" x="127.246094"/>
       <use xlink:href="#DejaVuSans-30" x="190.869141"/>
       <use xlink:href="#DejaVuSans-30" x="254.492188"/>
      </g>
     </g>
    </g>
    <g id="xtick_8">
     <g id="line2d_15">
      <path d="M 376.884043 307.584 
L 376.884043 41.472 
" clip-path="url(#p06ea8b2ecc)" style="fill: none; stroke: #ffffff; stroke-width: 0.8; stroke-linecap: square"/>
     </g>
     <g id="line2d_16">
      <g>
       <use xlink:href="#mccce05b9ca" x="376.884043" y="307.584" style="fill: #555555; stroke: #555555; stroke-width: 0.8"/>
      </g>
     </g>
     <g id="text_8">
      <!-- 14000 -->
      <g style="fill: #555555" transform="translate(360.977793 322.182437) scale(0.1 -0.1)">
       <use xlink:href="#DejaVuSans-31"/>
       <use xlink:href="#DejaVuSans-34" x="63.623047"/>
       <use xlink:href="#DejaVuSans-30" x="127.246094"/>
       <use xlink:href="#DejaVuSans-30" x="190.869141"/>
       <use xlink:href="#DejaVuSans-30" x="254.492188"/>
      </g>
     </g>
    </g>
    <g id="text_9">
     <!-- Number of Games -->
     <g style="fill: #555555" transform="translate(181.471875 337.38025) scale(0.12 -0.12)">
      <defs>
       <path id="DejaVuSans-4e" d="M 628 4666 
L 1478 4666 
L 3547 763 
L 3547 4666 
L 4159 4666 
L 4159 0 
L 3309 0 
L 1241 3903 
L 1241 0 
L 628 0 
L 628 4666 
z
" transform="scale(0.015625)"/>
       <path id="DejaVuSans-75" d="M 544 1381 
L 544 3500 
L 1119 3500 
L 1119 1403 
Q 1119 906 1312 657 
Q 1506 409 1894 409 
Q 2359 409 2629 706 
Q 2900 1003 2900 1516 
L 2900 3500 
L 3475 3500 
L 3475 0 
L 2900 0 
L 2900 538 
Q 2691 219 2414 64 
Q 2138 -91 1772 -91 
Q 1169 -91 856 284 
Q 544 659 544 1381 
z
M 1991 3584 
L 1991 3584 
z
" transform="scale(0.015625)"/>
       <path id="DejaVuSans-6d" d="M 3328 2828 
Q 3544 3216 3844 3400 
Q 4144 3584 4550 3584 
Q 5097 3584 5394 3201 
Q 5691 2819 5691 2113 
L 5691 0 
L 5113 0 
L 5113 2094 
Q 5113 2597 4934 2840 
Q 4756 3084 4391 3084 
Q 3944 3084 3684 2787 
Q 3425 2491 3425 1978 
L 3425 0 
L 2847 0 
L 2847 2094 
Q 2847 2600 2669 2842 
Q 2491 3084 2119 3084 
Q 1678 3084 1418 2786 
Q 1159 2488 1159 1978 
L 1159 0 
L 581 0 
L 581 3500 
L 1159 3500 
L 1159 2956 
Q 1356 3278 1631 3431 
Q 1906 3584 2284 3584 
Q 2666 3584 2933 3390 
Q 3200 3197 3328 2828 
z
" transform="scale(0.015625)"/>
       <path id="DejaVuSans-62" d="M 3116 1747 
Q 3116 2381 2855 2742 
Q 2594 3103 2138 3103 
Q 1681 3103 1420 2742 
Q 1159 2381 1159 1747 
Q 1159 1113 1420 752 
Q 1681 391 2138 391 
Q 2594 391 2855 752 
Q 3116 1113 3116 1747 
z
M 1159 2969 
Q 1341 3281 1617 3432 
Q 1894 3584 2278 3584 
Q 2916 3584 3314 3078 
Q 3713 2572 3713 1747 
Q 3713 922 3314 415 
Q 2916 -91 2278 -91 
Q 1894 -91 1617 61 
Q 1341 213 1159 525 
L 1159 0 
L 581 0 
L 581 4863 
L 1159 4863 
L 1159 2969 
z
" transform="scale(0.015625)"/>
       <path id="DejaVuSans-65" d="M 3597 1894 
L 3597 1613 
L 953 1613 
Q 991 1019 1311 708 
Q 1631 397 2203 397 
Q 2534 397 2845 478 
Q 3156 559 3463 722 
L 3463 178 
Q 3153 47 2828 -22 
Q 2503 -91 2169 -91 
Q 1331 -91 842 396 
Q 353 884 353 1716 
Q 353 2575 817 3079 
Q 1281 3584 2069 3584 
Q 2775 3584 3186 3129 
Q 3597 2675 3597 1894 
z
M 3022 2063 
Q 3016 2534 2758 2815 
Q 2500 3097 2075 3097 
Q 1594 3097 1305 2825 
Q 1016 2553 972 2059 
L 3022 2063 
z
" transform="scale(0.015625)"/>
       <path id="DejaVuSans-72" d="M 2631 2963 
Q 2534 3019 2420 3045 
Q 2306 3072 2169 3072 
Q 1681 3072 1420 2755 
Q 1159 2438 1159 1844 
L 1159 0 
L 581 0 
L 581 3500 
L 1159 3500 
L 1159 2956 
Q 1341 3275 1631 3429 
Q 1922 3584 2338 3584 
Q 2397 3584 2469 3576 
Q 2541 3569 2628 3553 
L 2631 2963 
z
" transform="scale(0.015625)"/>
       <path id="DejaVuSans-20" transform="scale(0.015625)"/>
       <path id="DejaVuSans-6f" d="M 1959 3097 
Q 1497 3097 1228 2736 
Q 959 2375 959 1747 
Q 959 1119 1226 758 
Q 1494 397 1959 397 
Q 2419 397 2687 759 
Q 2956 1122 2956 1747 
Q 2956 2369 2687 2733 
Q 2419 3097 1959 3097 
z
M 1959 3584 
Q 2709 3584 3137 3096 
Q 3566 2609 3566 1747 
Q 3566 888 3137 398 
Q 2709 -91 1959 -91 
Q 1206 -91 779 398 
Q 353 888 353 1747 
Q 353 2609 779 3096 
Q 1206 3584 1959 3584 
z
" transform="scale(0.015625)"/>
       <path id="DejaVuSans-66" d="M 2375 4863 
L 2375 4384 
L 1825 4384 
Q 1516 4384 1395 4259 
Q 1275 4134 1275 3809 
L 1275 3500 
L 2222 3500 
L 2222 3053 
L 1275 3053 
L 1275 0 
L 697 0 
L 697 3053 
L 147 3053 
L 147 3500 
L 697 3500 
L 697 3744 
Q 697 4328 969 4595 
Q 1241 4863 1831 4863 
L 2375 4863 
z
" transform="scale(0.015625)"/>
       <path id="DejaVuSans-47" d="M 3809 666 
L 3809 1919 
L 2778 1919 
L 2778 2438 
L 4434 2438 
L 4434 434 
Q 4069 175 3628 42 
Q 3188 -91 2688 -91 
Q 1594 -91 976 548 
Q 359 1188 359 2328 
Q 359 3472 976 4111 
Q 1594 4750 2688 4750 
Q 3144 4750 3555 4637 
Q 3966 4525 4313 4306 
L 4313 3634 
Q 3963 3931 3569 4081 
Q 3175 4231 2741 4231 
Q 1884 4231 1454 3753 
Q 1025 3275 1025 2328 
Q 1025 1384 1454 906 
Q 1884 428 2741 428 
Q 3075 428 3337 486 
Q 3600 544 3809 666 
z
" transform="scale(0.015625)"/>
       <path id="DejaVuSans-61" d="M 2194 1759 
Q 1497 1759 1228 1600 
Q 959 1441 959 1056 
Q 959 750 1161 570 
Q 1363 391 1709 391 
Q 2188 391 2477 730 
Q 2766 1069 2766 1631 
L 2766 1759 
L 2194 1759 
z
M 3341 1997 
L 3341 0 
L 2766 0 
L 2766 531 
Q 2569 213 2275 61 
Q 1981 -91 1556 -91 
Q 1019 -91 701 211 
Q 384 513 384 1019 
Q 384 1609 779 1909 
Q 1175 2209 1959 2209 
L 2766 2209 
L 2766 2266 
Q 2766 2663 2505 2880 
Q 2244 3097 1772 3097 
Q 1472 3097 1187 3025 
Q 903 2953 641 2809 
L 641 3341 
Q 956 3463 1253 3523 
Q 1550 3584 1831 3584 
Q 2591 3584 2966 3190 
Q 3341 2797 3341 1997 
z
" transform="scale(0.015625)"/>
       <path id="DejaVuSans-73" d="M 2834 3397 
L 2834 2853 
Q 2591 2978 2328 3040 
Q 2066 3103 1784 3103 
Q 1356 3103 1142 2972 
Q 928 2841 928 2578 
Q 928 2378 1081 2264 
Q 1234 2150 1697 2047 
L 1894 2003 
Q 2506 1872 2764 1633 
Q 3022 1394 3022 966 
Q 3022 478 2636 193 
Q 2250 -91 1575 -91 
Q 1294 -91 989 -36 
Q 684 19 347 128 
L 347 722 
Q 666 556 975 473 
Q 1284 391 1588 391 
Q 1994 391 2212 530 
Q 2431 669 2431 922 
Q 2431 1156 2273 1281 
Q 2116 1406 1581 1522 
L 1381 1569 
Q 847 1681 609 1914 
Q 372 2147 372 2553 
Q 372 3047 722 3315 
Q 1072 3584 1716 3584 
Q 2034 3584 2315 3537 
Q 2597 3491 2834 3397 
z
" transform="scale(0.015625)"/>
      </defs>
      <use xlink:href="#DejaVuSans-4e"/>
      <use xlink:href="#DejaVuSans-75" x="74.804688"/>
      <use xlink:href="#DejaVuSans-6d" x="138.183594"/>
      <use xlink:href="#DejaVuSans-62" x="235.595703"/>
      <use xlink:href="#DejaVuSans-65" x="299.072266"/>
      <use xlink:href="#DejaVuSans-72" x="360.595703"/>
      <use xlink:href="#DejaVuSans-20" x="401.708984"/>
      <use xlink:href="#DejaVuSans-6f" x="433.496094"/>
      <use xlink:href="#DejaVuSans-66" x="494.677734"/>
      <use xlink:href="#DejaVuSans-20" x="529.882812"/>
      <use xlink:href="#DejaVuSans-47" x="561.669922"/>
      <use xlink:href="#DejaVuSans-61" x="639.160156"/>
      <use xlink:href="#DejaVuSans-6d" x="700.439453"/>
      <use xlink:href="#DejaVuSans-65" x="797.851562"/>
      <use xlink:href="#DejaVuSans-73" x="859.375"/>
     </g>
    </g>
   </g>
   <g id="matplotlib.axis_2">
    <g id="ytick_1">
     <g id="line2d_17">
      <path d="M 57.6 307.584 
L 414.72 307.584 
" clip-path="url(#p06ea8b2ecc)" style="fill: none; stroke: #ffffff; stroke-width: 0.8; stroke-linecap: square"/>
     </g>
     <g id="line2d_18">
      <defs>
       <path id="ma70d56e113" d="M 0 0 
L -3.5 0 
" style="stroke: #555555; stroke-width: 0.8"/>
      </defs>
      <g>
       <use xlink:href="#ma70d56e113" x="57.6" y="307.584" style="fill: #555555; stroke: #555555; stroke-width: 0.8"/>
      </g>
     </g>
     <g id="text_10">
      <!-- 0 -->
      <g style="fill: #555555" transform="translate(44.2375 311.383219) scale(0.1 -0.1)">
       <use xlink:href="#DejaVuSans-30"/>
      </g>
     </g>
    </g>
    <g id="ytick_2">
     <g id="line2d_19">
      <path d="M 57.6 264.629019 
L 414.72 264.629019 
" clip-path="url(#p06ea8b2ecc)" style="fill: none; stroke: #ffffff; stroke-width: 0.8; stroke-linecap: square"/>
     </g>
     <g id="line2d_20">
      <g>
       <use xlink:href="#ma70d56e113" x="57.6" y="264.629019" style="fill: #555555; stroke: #555555; stroke-width: 0.8"/>
      </g>
     </g>
     <g id="text_11">
      <!-- 500 -->
      <g style="fill: #555555" transform="translate(31.5125 268.428237) scale(0.1 -0.1)">
       <defs>
        <path id="DejaVuSans-35" d="M 691 4666 
L 3169 4666 
L 3169 4134 
L 1269 4134 
L 1269 2991 
Q 1406 3038 1543 3061 
Q 1681 3084 1819 3084 
Q 2600 3084 3056 2656 
Q 3513 2228 3513 1497 
Q 3513 744 3044 326 
Q 2575 -91 1722 -91 
Q 1428 -91 1123 -41 
Q 819 9 494 109 
L 494 744 
Q 775 591 1075 516 
Q 1375 441 1709 441 
Q 2250 441 2565 725 
Q 2881 1009 2881 1497 
Q 2881 1984 2565 2268 
Q 2250 2553 1709 2553 
Q 1456 2553 1204 2497 
Q 953 2441 691 2322 
L 691 4666 
z
" transform="scale(0.015625)"/>
       </defs>
       <use xlink:href="#DejaVuSans-35"/>
       <use xlink:href="#DejaVuSans-30" x="63.623047"/>
       <use xlink:href="#DejaVuSans-30" x="127.246094"/>
      </g>
     </g>
    </g>
    <g id="ytick_3">
     <g id="line2d_21">
      <path d="M 57.6 221.674037 
L 414.72 221.674037 
" clip-path="url(#p06ea8b2ecc)" style="fill: none; stroke: #ffffff; stroke-width: 0.8; stroke-linecap: square"/>
     </g>
     <g id="line2d_22">
      <g>
       <use xlink:href="#ma70d56e113" x="57.6" y="221.674037" style="fill: #555555; stroke: #555555; stroke-width: 0.8"/>
      </g>
     </g>
     <g id="text_12">
      <!-- 1000 -->
      <g style="fill: #555555" transform="translate(25.15 225.473256) scale(0.1 -0.1)">
       <use xlink:href="#DejaVuSans-31"/>
       <use xlink:href="#DejaVuSans-30" x="63.623047"/>
       <use xlink:href="#DejaVuSans-30" x="127.246094"/>
       <use xlink:href="#DejaVuSans-30" x="190.869141"/>
      </g>
     </g>
    </g>
    <g id="ytick_4">
     <g id="line2d_23">
      <path d="M 57.6 178.719056 
L 414.72 178.719056 
" clip-path="url(#p06ea8b2ecc)" style="fill: none; stroke: #ffffff; stroke-width: 0.8; stroke-linecap: square"/>
     </g>
     <g id="line2d_24">
      <g>
       <use xlink:href="#ma70d56e113" x="57.6" y="178.719056" style="fill: #555555; stroke: #555555; stroke-width: 0.8"/>
      </g>
     </g>
     <g id="text_13">
      <!-- 1500 -->
      <g style="fill: #555555" transform="translate(25.15 182.518274) scale(0.1 -0.1)">
       <use xlink:href="#DejaVuSans-31"/>
       <use xlink:href="#DejaVuSans-35" x="63.623047"/>
       <use xlink:href="#DejaVuSans-30" x="127.246094"/>
       <use xlink:href="#DejaVuSans-30" x="190.869141"/>
      </g>
     </g>
    </g>
    <g id="ytick_5">
     <g id="line2d_25">
      <path d="M 57.6 135.764074 
L 414.72 135.764074 
" clip-path="url(#p06ea8b2ecc)" style="fill: none; stroke: #ffffff; stroke-width: 0.8; stroke-linecap: square"/>
     </g>
     <g id="line2d_26">
      <g>
       <use xlink:href="#ma70d56e113" x="57.6" y="135.764074" style="fill: #555555; stroke: #555555; stroke-width: 0.8"/>
      </g>
     </g>
     <g id="text_14">
      <!-- 2000 -->
      <g style="fill: #555555" transform="translate(25.15 139.563293) scale(0.1 -0.1)">
       <use xlink:href="#DejaVuSans-32"/>
       <use xlink:href="#DejaVuSans-30" x="63.623047"/>
       <use xlink:href="#DejaVuSans-30" x="127.246094"/>
       <use xlink:href="#DejaVuSans-30" x="190.869141"/>
      </g>
     </g>
    </g>
    <g id="ytick_6">
     <g id="line2d_27">
      <path d="M 57.6 92.809093 
L 414.72 92.809093 
" clip-path="url(#p06ea8b2ecc)" style="fill: none; stroke: #ffffff; stroke-width: 0.8; stroke-linecap: square"/>
     </g>
     <g id="line2d_28">
      <g>
       <use xlink:href="#ma70d56e113" x="57.6" y="92.809093" style="fill: #555555; stroke: #555555; stroke-width: 0.8"/>
      </g>
     </g>
     <g id="text_15">
      <!-- 2500 -->
      <g style="fill: #555555" transform="translate(25.15 96.608312) scale(0.1 -0.1)">
       <use xlink:href="#DejaVuSans-32"/>
       <use xlink:href="#DejaVuSans-35" x="63.623047"/>
       <use xlink:href="#DejaVuSans-30" x="127.246094"/>
       <use xlink:href="#DejaVuSans-30" x="190.869141"/>
      </g>
     </g>
    </g>
    <g id="ytick_7">
     <g id="line2d_29">
      <path d="M 57.6 49.854111 
L 414.72 49.854111 
" clip-path="url(#p06ea8b2ecc)" style="fill: none; stroke: #ffffff; stroke-width: 0.8; stroke-linecap: square"/>
     </g>
     <g id="line2d_30">
      <g>
       <use xlink:href="#ma70d56e113" x="57.6" y="49.854111" style="fill: #555555; stroke: #555555; stroke-width: 0.8"/>
      </g>
     </g>
     <g id="text_16">
      <!-- 3000 -->
      <g style="fill: #555555" transform="translate(25.15 53.65333) scale(0.1 -0.1)">
       <defs>
        <path id="DejaVuSans-33" d="M 2597 2516 
Q 3050 2419 3304 2112 
Q 3559 1806 3559 1356 
Q 3559 666 3084 287 
Q 2609 -91 1734 -91 
Q 1441 -91 1130 -33 
Q 819 25 488 141 
L 488 750 
Q 750 597 1062 519 
Q 1375 441 1716 441 
Q 2309 441 2620 675 
Q 2931 909 2931 1356 
Q 2931 1769 2642 2001 
Q 2353 2234 1838 2234 
L 1294 2234 
L 1294 2753 
L 1863 2753 
Q 2328 2753 2575 2939 
Q 2822 3125 2822 3475 
Q 2822 3834 2567 4026 
Q 2313 4219 1838 4219 
Q 1578 4219 1281 4162 
Q 984 4106 628 3988 
L 628 4550 
Q 988 4650 1302 4700 
Q 1616 4750 1894 4750 
Q 2613 4750 3031 4423 
Q 3450 4097 3450 3541 
Q 3450 3153 3228 2886 
Q 3006 2619 2597 2516 
z
" transform="scale(0.015625)"/>
       </defs>
       <use xlink:href="#DejaVuSans-33"/>
       <use xlink:href="#DejaVuSans-30" x="63.623047"/>
       <use xlink:href="#DejaVuSans-30" x="127.246094"/>
       <use xlink:href="#DejaVuSans-30" x="190.869141"/>
      </g>
     </g>
    </g>
    <g id="text_17">
     <!-- Median reward -->
     <g style="fill: #555555" transform="translate(18.654375 219.03675) rotate(-90) scale(0.12 -0.12)">
      <defs>
       <path id="DejaVuSans-4d" d="M 628 4666 
L 1569 4666 
L 2759 1491 
L 3956 4666 
L 4897 4666 
L 4897 0 
L 4281 0 
L 4281 4097 
L 3078 897 
L 2444 897 
L 1241 4097 
L 1241 0 
L 628 0 
L 628 4666 
z
" transform="scale(0.015625)"/>
       <path id="DejaVuSans-64" d="M 2906 2969 
L 2906 4863 
L 3481 4863 
L 3481 0 
L 2906 0 
L 2906 525 
Q 2725 213 2448 61 
Q 2172 -91 1784 -91 
Q 1150 -91 751 415 
Q 353 922 353 1747 
Q 353 2572 751 3078 
Q 1150 3584 1784 3584 
Q 2172 3584 2448 3432 
Q 2725 3281 2906 2969 
z
M 947 1747 
Q 947 1113 1208 752 
Q 1469 391 1925 391 
Q 2381 391 2643 752 
Q 2906 1113 2906 1747 
Q 2906 2381 2643 2742 
Q 2381 3103 1925 3103 
Q 1469 3103 1208 2742 
Q 947 2381 947 1747 
z
" transform="scale(0.015625)"/>
       <path id="DejaVuSans-69" d="M 603 3500 
L 1178 3500 
L 1178 0 
L 603 0 
L 603 3500 
z
M 603 4863 
L 1178 4863 
L 1178 4134 
L 603 4134 
L 603 4863 
z
" transform="scale(0.015625)"/>
       <path id="DejaVuSans-6e" d="M 3513 2113 
L 3513 0 
L 2938 0 
L 2938 2094 
Q 2938 2591 2744 2837 
Q 2550 3084 2163 3084 
Q 1697 3084 1428 2787 
Q 1159 2491 1159 1978 
L 1159 0 
L 581 0 
L 581 3500 
L 1159 3500 
L 1159 2956 
Q 1366 3272 1645 3428 
Q 1925 3584 2291 3584 
Q 2894 3584 3203 3211 
Q 3513 2838 3513 2113 
z
" transform="scale(0.015625)"/>
       <path id="DejaVuSans-77" d="M 269 3500 
L 844 3500 
L 1563 769 
L 2278 3500 
L 2956 3500 
L 3675 769 
L 4391 3500 
L 4966 3500 
L 4050 0 
L 3372 0 
L 2619 2869 
L 1863 0 
L 1184 0 
L 269 3500 
z
" transform="scale(0.015625)"/>
      </defs>
      <use xlink:href="#DejaVuSans-4d"/>
      <use xlink:href="#DejaVuSans-65" x="86.279297"/>
      <use xlink:href="#DejaVuSans-64" x="147.802734"/>
      <use xlink:href="#DejaVuSans-69" x="211.279297"/>
      <use xlink:href="#DejaVuSans-61" x="239.0625"/>
      <use xlink:href="#DejaVuSans-6e" x="300.341797"/>
      <use xlink:href="#DejaVuSans-20" x="363.720703"/>
      <use xlink:href="#DejaVuSans-72" x="395.507812"/>
      <use xlink:href="#DejaVuSans-65" x="434.371094"/>
      <use xlink:href="#DejaVuSans-77" x="495.894531"/>
      <use xlink:href="#DejaVuSans-61" x="577.681641"/>
      <use xlink:href="#DejaVuSans-72" x="638.960938"/>
      <use xlink:href="#DejaVuSans-64" x="678.324219"/>
     </g>
    </g>
   </g>
   <g id="line2d_31">
    <path d="M 73.832727 306.123531 
L 73.962606 306.111258 
L 74.070839 306.159326 
L 74.114132 306.111258 
L 74.222365 306.096401 
L 74.244011 306.11494 
L 75.088226 306.180319 
L 81.041019 306.203525 
L 85.283738 306.116398 
L 88.44413 306.031521 
L 94.310338 305.786241 
L 104.527496 304.86267 
L 105.155245 304.743928 
L 107.406484 304.267997 
L 107.687889 304.186632 
L 108.164112 304.058173 
L 112.774821 302.400861 
L 113.03458 302.17959 
L 113.337631 302.056498 
L 113.878794 301.521476 
L 114.03032 301.386553 
L 114.116906 301.296286 
L 114.376664 301.010788 
L 114.506543 300.952619 
L 114.723008 300.597111 
L 114.982767 300.490376 
L 115.45899 299.702029 
L 115.632162 299.655071 
L 115.826981 299.240598 
L 116.065093 298.966597 
L 116.216618 298.204816 
L 116.346498 298.141074 
L 116.476377 298.028336 
L 116.757782 297.281256 
L 116.909307 297.066394 
L 117.342238 295.876578 
L 117.45047 295.875103 
L 117.710229 294.691405 
L 117.775168 294.697886 
L 118.099866 292.283839 
L 118.143159 292.291523 
L 118.273038 292.272954 
L 118.489503 291.037966 
L 118.597736 290.650935 
L 118.619382 290.656832 
L 118.662676 290.63345 
L 118.792555 290.406059 
L 118.814201 290.409776 
L 119.182192 287.571815 
L 119.312071 287.609934 
L 119.528536 287.619574 
L 119.723355 287.425294 
L 119.918174 287.466791 
L 119.93982 287.473006 
L 120.134639 285.802773 
L 120.416044 281.077445 
L 120.480983 280.4239 
L 120.545923 280.443535 
L 120.697449 280.427805 
L 120.762388 280.212389 
L 120.848974 279.642862 
L 120.892267 279.654809 
L 121.06544 279.563932 
L 121.195319 279.062599 
L 121.281905 278.460836 
L 121.346844 277.70169 
L 121.411784 277.708586 
L 121.584956 277.69216 
L 122.017887 276.527028 
L 122.191059 276.459378 
L 122.342584 276.332201 
L 122.42917 275.998816 
L 122.948687 274.091717 
L 123.100213 272.547865 
L 123.121859 272.559474 
L 123.143506 272.456136 
L 123.359971 269.82704 
L 123.48985 268.580802 
L 123.511497 268.595507 
L 123.598083 268.524475 
L 123.857841 266.984371 
L 124.095953 267.110385 
L 124.334064 265.457494 
L 124.507237 265.119131 
L 124.702055 265.003865 
L 125.243218 263.694567 
L 125.438037 262.253149 
L 125.524623 262.153201 
L 125.676149 261.973841 
L 125.9792 261.093592 
L 126.174019 260.633442 
L 126.260605 260.279875 
L 126.520363 257.749483 
L 126.54201 257.747087 
L 126.758475 256.584601 
L 126.845061 256.439871 
L 127.169759 254.584105 
L 127.321285 254.127777 
L 127.342931 254.125562 
L 127.559396 252.590414 
L 127.581043 252.600102 
L 127.602689 252.544374 
L 128.100559 250.600826 
L 128.360318 249.958256 
L 128.511843 249.374714 
L 128.663369 248.536496 
L 129.269472 243.550966 
L 129.291118 243.447704 
L 129.420997 242.115893 
L 129.485937 242.09873 
L 129.52923 241.816452 
L 129.615816 241.865544 
L 129.637462 241.880966 
L 129.810635 241.271737 
L 130.048746 241.066376 
L 130.286858 240.245769 
L 130.308505 240.250997 
L 130.654849 238.834274 
L 130.741435 238.70554 
L 130.892961 238.324541 
L 131.499063 236.430854 
L 131.931994 233.53102 
L 131.975287 233.549083 
L 132.667976 230.18064 
L 132.711269 230.160811 
L 132.906087 229.764049 
L 132.94938 229.715235 
L 133.144199 229.350614 
L 133.598776 228.680489 
L 133.728655 228.096086 
L 133.750302 228.088431 
L 134.421344 224.53398 
L 134.44299 224.545473 
L 134.616163 222.846468 
L 135.871661 218.255917 
L 135.893307 218.286195 
L 135.936601 218.198994 
L 135.958247 218.207775 
L 136.023187 218.044356 
L 136.326238 216.745429 
L 136.456117 216.758616 
L 136.629289 216.01961 
L 136.802461 214.75734 
L 136.824108 214.78126 
L 136.910694 214.53626 
L 136.975634 214.598507 
L 137.127159 214.623781 
L 137.451857 213.385391 
L 137.473504 213.411608 
L 137.646676 213.303948 
L 137.668322 213.334684 
L 137.711615 213.225555 
L 137.819848 213.101809 
L 137.971374 212.361125 
L 138.166192 212.041661 
L 138.252778 211.908322 
L 138.447597 211.61699 
L 138.512537 211.565777 
L 139.291812 208.183447 
L 139.421691 207.207066 
L 139.55157 205.943377 
L 139.573216 205.951892 
L 139.703095 204.713565 
L 139.746388 204.731837 
L 139.897914 204.373239 
L 140.006147 204.40355 
L 140.157672 203.982583 
L 140.179319 204.008668 
L 140.222612 204.053898 
L 140.265905 204.006555 
L 140.936947 201.737191 
L 140.958594 201.746997 
L 141.001887 201.774865 
L 141.023533 201.674447 
L 141.04518 201.684786 
L 141.521403 198.905453 
L 142.430557 195.310925 
L 142.53879 195.4334 
L 142.625376 195.524655 
L 142.647023 195.409281 
L 142.820195 194.575911 
L 142.950074 193.754536 
L 143.015013 193.829643 
L 143.188186 193.962968 
L 143.426297 191.692929 
L 143.447944 191.692662 
L 143.577823 191.105337 
L 143.772642 190.927707 
L 143.837581 191.02269 
L 144.09734 191.312234 
L 144.313805 190.769029 
L 144.357098 190.786651 
L 144.616856 190.523521 
L 144.768382 190.333255 
L 144.876614 190.209873 
L 145.482717 186.235023 
L 145.612596 185.377427 
L 145.785768 185.455585 
L 146.629983 182.743416 
L 146.803155 182.362025 
L 146.889741 181.78881 
L 146.954681 181.844638 
L 147.062913 181.665255 
L 147.08456 181.679764 
L 147.149499 181.720047 
L 147.192792 181.648459 
L 147.625723 180.127853 
L 147.647369 180.140915 
L 147.669016 180.168723 
L 147.712309 180.100737 
L 147.907127 179.836939 
L 147.928774 179.854954 
L 147.950421 179.889689 
L 147.972067 179.846919 
L 148.361704 177.421052 
L 148.404998 177.454763 
L 148.686402 175.861599 
L 149.0111 174.652008 
L 150.158366 172.018541 
L 150.288245 170.123293 
L 150.331538 170.188136 
L 150.396478 170.110771 
L 150.439771 170.166622 
L 150.612943 170.108785 
L 150.721175 170.0613 
L 150.786115 170.001514 
L 150.894348 169.526786 
L 150.915994 169.546684 
L 150.959287 169.517241 
L 151.154106 169.041814 
L 151.175752 169.047695 
L 151.348925 169.027851 
L 151.522097 169.115064 
L 151.695269 168.983174 
L 151.976674 167.866898 
L 152.084906 167.79989 
L 152.474544 166.297241 
L 152.49619 166.310986 
L 152.539483 166.336943 
L 152.582776 166.270303 
L 152.799242 165.79428 
L 152.907474 165.880454 
L 153.102293 165.3285 
L 153.210526 165.15643 
L 153.362051 164.58571 
L 153.383698 164.616407 
L 153.426991 164.490773 
L 153.470284 164.447543 
L 153.513577 164.51771 
L 153.621809 164.63341 
L 153.643456 164.579669 
L 153.686749 164.341872 
L 153.838275 163.41781 
L 153.859921 163.416721 
L 154.011447 163.01337 
L 154.141326 162.999755 
L 154.227912 163.048084 
L 154.422731 161.896505 
L 154.466024 161.811878 
L 154.530963 161.428184 
L 154.595903 161.289577 
L 154.660843 161.359792 
L 155.310238 159.76264 
L 155.440117 159.824628 
L 155.505057 159.86084 
L 155.959634 157.547513 
L 155.98128 157.582466 
L 156.002927 157.55914 
L 156.132806 157.33685 
L 156.154453 157.34841 
L 156.176099 157.275793 
L 156.630676 156.157294 
L 156.652323 156.190217 
L 156.738909 156.180035 
L 156.912081 155.350651 
L 156.998667 155.298028 
L 157.193486 154.435106 
L 157.215132 154.470774 
L 157.258425 154.348884 
L 157.431597 153.785574 
L 157.626416 153.025786 
L 157.669709 152.886103 
L 157.907821 151.960723 
L 158.0377 152.091538 
L 158.059347 152.076924 
L 158.124286 151.975009 
L 158.167579 152.042634 
L 158.448984 151.697208 
L 158.60051 151.124433 
L 158.665449 151.103232 
L 158.687096 151.127672 
L 158.730389 151.060844 
L 158.860268 151.238188 
L 159.09838 150.928665 
L 159.314845 150.353195 
L 159.466371 149.432074 
L 159.682836 149.234592 
L 159.726129 149.285813 
L 159.856008 149.328858 
L 160.202352 148.925326 
L 160.397171 148.304717 
L 160.505404 148.237278 
L 160.700222 147.567641 
L 160.721869 147.60358 
L 160.743515 147.631992 
L 160.765162 147.552923 
L 160.938334 146.821466 
L 161.133153 145.307321 
L 161.263032 145.155926 
L 161.306325 145.198867 
L 161.414558 145.204894 
L 161.695962 144.366074 
L 161.717609 144.379314 
L 161.760902 144.436075 
L 161.782548 144.280153 
L 161.977367 143.607424 
L 162.0856 143.563068 
L 162.128893 143.304611 
L 162.215479 143.363341 
L 162.843228 142.104012 
L 162.908168 142.184466 
L 162.929814 142.134787 
L 163.189572 141.06076 
L 163.211219 141.083981 
L 163.232865 141.089411 
L 163.384391 139.969053 
L 163.406038 139.999047 
L 163.51427 140.079537 
L 163.600856 140.053525 
L 163.622503 139.934279 
L 163.709089 139.961292 
L 163.752382 139.952056 
L 163.882261 138.406327 
L 163.903908 138.444973 
L 164.163666 138.273205 
L 164.206959 138.178152 
L 164.250252 138.215593 
L 164.315192 138.284867 
L 164.358485 138.359898 
L 164.380131 138.330491 
L 164.51001 137.766761 
L 164.618243 137.712377 
L 164.748122 137.498756 
L 164.899648 137.390055 
L 165.029527 137.115067 
L 165.051173 137.135087 
L 165.310932 136.94151 
L 165.462457 136.557453 
L 165.635629 136.587753 
L 165.830448 136.012245 
L 165.852095 136.030088 
L 165.873741 135.929329 
L 165.981974 135.627542 
L 166.00362 135.650469 
L 166.025267 135.517557 
L 166.133499 135.543569 
L 166.285025 135.187239 
L 166.523137 133.535109 
L 166.653016 133.32857 
L 166.674663 133.361179 
L 166.761249 133.470054 
L 166.804542 133.369934 
L 166.847835 133.129968 
L 166.99936 132.498139 
L 167.042653 132.434829 
L 167.215826 131.949274 
L 167.367351 131.547708 
L 167.432291 131.569364 
L 167.62711 131.631119 
L 167.821928 131.268627 
L 167.886868 131.155695 
L 168.016747 131.127917 
L 168.384738 130.975081 
L 168.406384 130.869487 
L 168.49297 130.942294 
L 168.55791 130.908326 
L 168.601203 130.96991 
L 168.644496 130.921643 
L 168.904254 129.914042 
L 168.925901 129.921337 
L 168.969194 129.949127 
L 168.99084 129.889118 
L 169.164013 129.4333 
L 169.337185 129.535008 
L 169.358831 129.485446 
L 169.423771 129.577254 
L 169.510357 129.621094 
L 169.683529 128.820788 
L 169.770115 128.880405 
L 169.791762 128.843382 
L 169.943287 128.528912 
L 169.964934 128.561911 
L 170.008227 128.409145 
L 170.138106 128.307978 
L 170.159753 128.343932 
L 170.311278 128.278229 
L 170.484451 127.816172 
L 170.506097 127.812104 
L 170.657623 127.184215 
L 170.895734 126.68229 
L 170.939028 126.720495 
L 171.1122 126.737737 
L 171.133846 126.724707 
L 171.328665 125.292613 
L 171.415251 125.349687 
L 171.675009 125.059989 
L 171.718302 125.133348 
L 171.913121 125.304138 
L 172.346051 122.975021 
L 172.389345 123.037609 
L 172.410991 123.073598 
L 172.432638 122.979801 
L 172.475931 122.982696 
L 172.54087 122.855598 
L 172.584163 122.923764 
L 172.778982 123.146922 
L 172.908861 123.214183 
L 173.168619 122.836777 
L 173.298498 122.846868 
L 173.471671 122.537485 
L 173.60155 122.367673 
L 173.644843 122.389502 
L 173.688136 122.357987 
L 173.839662 121.768596 
L 174.012834 121.84074 
L 174.03448 121.862209 
L 174.056127 121.73463 
L 174.748815 121.189651 
L 174.900341 121.027793 
L 174.921988 121.053662 
L 174.943634 120.963711 
L 175.398211 120.081799 
L 175.549737 118.540498 
L 175.722909 118.453472 
L 175.766202 118.472204 
L 175.917728 118.030051 
L 176.047607 117.834212 
L 176.393951 118.193665 
L 176.502184 118.202151 
L 176.58877 118.304575 
L 176.718649 117.910289 
L 176.783589 117.778678 
L 176.848528 117.821237 
L 176.935114 117.761934 
L 177.043347 117.46781 
L 177.08664 117.479387 
L 177.281459 117.36234 
L 177.303105 117.384805 
L 177.324752 117.410045 
L 177.346398 117.307837 
L 177.432984 117.069191 
L 177.58451 116.699679 
L 177.64945 116.563618 
L 177.671096 116.396194 
L 177.757682 116.454692 
L 177.930854 116.52619 
L 178.190613 115.555439 
L 178.233906 115.521361 
L 178.320492 115.067709 
L 178.363785 115.108171 
L 178.558603 115.228717 
L 178.688483 115.320393 
L 178.710129 115.294829 
L 178.904948 114.603575 
L 178.991534 114.350693 
L 179.034827 114.420901 
L 179.186353 114.489517 
L 179.229646 114.365966 
L 179.316232 114.425936 
L 179.402818 114.330754 
L 179.424464 114.237281 
L 179.51105 114.340262 
L 179.705869 114.470486 
L 179.987274 114.172037 
L 180.117153 114.025932 
L 180.311972 113.529685 
L 180.593377 112.988094 
L 180.63667 113.019468 
L 180.744902 112.82561 
L 180.896428 112.595024 
L 181.026307 112.105879 
L 181.242772 111.274836 
L 181.286065 111.296848 
L 181.459237 111.3918 
L 181.589117 111.0248 
L 181.805582 110.684564 
L 181.827228 110.698767 
L 181.848875 110.733843 
L 181.870521 110.607393 
L 181.913814 110.399889 
L 182.000401 110.451403 
L 182.06534 110.386072 
L 182.13028 110.483317 
L 182.325098 110.47748 
L 182.454978 110.290803 
L 182.779675 110.253935 
L 182.931201 110.099031 
L 183.017787 110.124437 
L 183.039434 110.073829 
L 183.277545 109.703048 
L 183.342485 109.651707 
L 183.472364 109.15822 
L 183.494011 109.183715 
L 183.55895 109.09225 
L 183.883648 108.083597 
L 183.948588 108.18213 
L 184.078467 108.267591 
L 184.273285 107.924516 
L 184.403165 107.901854 
L 184.987621 106.374002 
L 185.095853 106.014011 
L 185.1175 106.019044 
L 185.312318 106.110293 
L 185.420551 105.993056 
L 185.463844 106.039727 
L 185.528784 105.999077 
L 185.853482 105.117952 
L 185.875128 105.132551 
L 186.005007 105.06589 
L 186.0483 105.112112 
L 186.091593 105.06313 
L 186.286412 104.790292 
L 186.329705 104.844619 
L 186.589463 104.906057 
L 186.935808 103.858255 
L 187.000747 103.910191 
L 187.04404 103.839186 
L 187.195566 103.591088 
L 187.390385 103.217641 
L 187.455324 103.096377 
L 187.54191 102.403571 
L 187.585203 102.449364 
L 187.671789 102.152308 
L 187.823315 100.91836 
L 187.974841 100.99499 
L 188.10472 101.003016 
L 188.126366 101.010477 
L 188.148013 100.913532 
L 188.321185 100.420033 
L 188.451064 100.520047 
L 188.667529 100.485826 
L 188.775762 100.391233 
L 189.078813 100.513934 
L 189.251986 100.538734 
L 189.273632 100.483297 
L 189.425158 100.252473 
L 189.684916 99.291885 
L 189.814795 99.297916 
L 189.858088 99.09427 
L 189.923028 99.172036 
L 189.944674 99.202956 
L 189.966321 99.106857 
L 189.987967 99.128926 
L 190.074553 98.626562 
L 190.291019 97.778284 
L 190.377605 97.644811 
L 190.420898 97.533056 
L 190.507484 97.561598 
L 190.745596 97.762036 
L 190.897121 97.413463 
L 190.918768 97.377804 
L 191.005354 97.444645 
L 191.200173 97.567931 
L 191.568164 97.294525 
L 191.58981 97.327932 
L 191.65475 97.248984 
L 191.741336 97.191747 
L 191.957801 96.910861 
L 191.979447 96.936422 
L 192.109327 97.000006 
L 192.130973 97.025125 
L 192.15262 96.974461 
L 192.390731 96.143099 
L 192.434024 96.076478 
L 192.58555 95.280864 
L 192.607197 95.310563 
L 192.65049 95.317554 
L 192.672136 95.353458 
L 193.08342 95.814725 
L 193.278239 95.450883 
L 193.321532 95.49197 
L 193.667876 95.474241 
L 193.776109 95.375479 
L 193.797755 95.389491 
L 193.905988 95.411369 
L 194.1441 95.082716 
L 194.317272 95.141223 
L 194.425504 94.885394 
L 194.447151 94.896614 
L 194.598677 94.712845 
L 194.620323 94.740982 
L 194.750202 94.396051 
L 194.966668 93.554853 
L 195.096547 93.490408 
L 195.291365 92.981632 
L 195.334658 92.999536 
L 195.377951 92.93115 
L 195.486184 92.744534 
L 195.507831 92.778867 
L 195.810882 92.843024 
L 195.984054 92.539018 
L 196.005701 92.512312 
L 196.07064 92.604372 
L 196.13558 92.652491 
L 196.157226 92.537972 
L 196.330398 92.563187 
L 196.525217 92.531905 
L 196.676743 92.565923 
L 197.369432 92.250663 
L 197.391078 92.284454 
L 197.456018 92.209197 
L 197.62919 91.92425 
L 197.780715 92.042999 
L 198.300232 90.234289 
L 198.62493 90.507314 
L 198.646576 90.400903 
L 198.754809 89.875741 
L 198.798102 89.913508 
L 198.971274 89.909758 
L 199.101153 89.595618 
L 199.1228 89.63127 
L 199.231033 89.634917 
L 199.360912 89.25873 
L 199.404205 89.279233 
L 199.469144 89.170417 
L 199.534084 88.854912 
L 199.599023 88.917272 
L 199.62067 88.932753 
L 199.642316 88.878664 
L 199.793842 88.480234 
L 199.837135 88.551385 
L 200.183479 88.75165 
L 200.270066 88.733428 
L 200.464884 88.309458 
L 200.767936 88.207219 
L 201.04934 86.837985 
L 201.070987 86.855338 
L 201.17922 86.699075 
L 201.200866 86.718536 
L 201.374038 86.819902 
L 201.417331 86.765112 
L 201.482271 86.820026 
L 201.763676 85.90749 
L 201.785322 85.934683 
L 201.806969 85.965659 
L 201.958494 85.283162 
L 202.239899 84.995616 
L 202.369778 85.177326 
L 202.391425 85.104343 
L 202.54295 84.874996 
L 202.60789 84.812435 
L 202.781062 84.420024 
L 202.802709 84.371304 
L 202.867648 84.451834 
L 203.062467 84.686076 
L 203.084114 84.64277 
L 203.235639 84.506719 
L 203.257286 84.53365 
L 203.365518 84.376854 
L 203.452104 84.248378 
L 203.495397 84.309972 
L 203.711863 84.027494 
L 203.776802 84.016214 
L 203.949974 83.707695 
L 203.971621 83.713495 
L 204.1015 83.534985 
L 204.317965 83.283347 
L 204.382905 83.347489 
L 204.815835 83.677398 
L 205.205473 82.68754 
L 205.335352 82.795308 
L 205.443584 82.915574 
L 205.486878 82.850175 
L 205.551817 82.790263 
L 205.59511 82.820507 
L 205.616757 82.850958 
L 205.66005 82.720377 
L 205.681696 82.537832 
L 205.768282 82.574603 
L 206.006394 82.636957 
L 206.266152 81.498714 
L 206.65579 81.965035 
L 206.720729 81.880982 
L 206.742376 81.788625 
L 206.828962 81.808969 
L 206.958841 81.774013 
L 207.067074 81.490623 
L 207.110367 81.524126 
L 207.305185 81.533644 
L 207.435065 81.149818 
L 207.456711 81.158692 
L 207.500004 81.126451 
L 207.629883 80.75075 
L 207.65153 80.76508 
L 207.997874 79.347671 
L 208.106107 79.463927 
L 208.365865 79.70271 
L 208.928675 78.840136 
L 209.015261 78.872381 
L 209.036907 78.82945 
L 209.14514 78.908952 
L 209.296665 79.069113 
L 209.339959 78.985684 
L 209.859475 78.756547 
L 209.989354 78.383361 
L 210.054294 78.437669 
L 210.07594 78.441235 
L 210.162526 78.010035 
L 210.205819 78.035074 
L 210.314052 77.963004 
L 210.422285 77.942735 
L 210.530517 77.949594 
L 210.552164 77.921863 
L 210.725336 77.951315 
L 210.985094 77.859078 
L 211.13662 77.823397 
L 211.482964 78.021624 
L 211.547904 78.001067 
L 211.591197 78.060168 
L 212.110713 77.944881 
L 212.13236 77.962144 
L 212.154006 77.759767 
L 212.240593 77.8813 
L 212.413765 78.007127 
L 212.608583 77.133633 
L 212.63023 77.159306 
L 212.651876 77.183472 
L 212.69517 77.096514 
L 212.716816 76.993413 
L 212.803402 77.071916 
L 213.084807 77.467008 
L 213.171393 77.286799 
L 213.301272 77.13783 
L 213.409505 76.785266 
L 213.431151 76.793411 
L 213.517737 76.714565 
L 213.907375 76.62279 
L 213.972314 76.507933 
L 214.037254 76.538345 
L 214.080547 76.584532 
L 214.18878 76.175295 
L 214.232073 76.189865 
L 214.253719 76.211243 
L 214.275366 76.11951 
L 214.361952 76.052667 
L 214.405245 76.110603 
L 214.600064 76.184907 
L 214.816529 75.726265 
L 214.903115 75.621261 
L 214.946408 75.641858 
L 215.206166 75.874335 
L 215.314399 75.785673 
L 215.336045 75.795123 
L 215.422631 75.787824 
L 215.444278 75.664797 
L 215.530864 75.684758 
L 215.639097 75.725676 
L 215.660743 75.653347 
L 215.855562 75.662436 
L 215.985441 75.634556 
L 216.028734 75.596881 
L 216.072027 75.659114 
L 216.245199 75.714551 
L 216.375078 75.590041 
L 217.002828 75.147537 
L 217.132707 74.907239 
L 217.154353 74.931556 
L 217.197646 74.892171 
L 217.284232 74.724255 
L 217.327525 74.766446 
L 217.500698 74.735826 
L 217.630577 74.665928 
L 218.258326 74.379172 
L 218.279972 74.280448 
L 218.366558 74.316542 
L 218.388205 74.31688 
L 218.539731 73.92901 
L 218.647963 73.75444 
L 218.691256 73.776461 
L 218.734549 73.723184 
L 218.756196 73.632054 
L 218.842782 73.702243 
L 219.145833 73.810938 
L 219.275712 73.785137 
L 219.470531 73.778038 
L 219.751936 73.315457 
L 219.795229 73.353416 
L 219.881815 73.334763 
L 219.903462 73.313285 
L 220.011694 73.259857 
L 220.09828 72.956861 
L 220.141573 72.988826 
L 220.59615 73.132417 
L 220.747676 72.684304 
L 220.855909 72.70171 
L 220.985788 72.47556 
L 221.09402 72.473255 
L 221.180606 72.284398 
L 221.223899 72.334667 
L 221.375425 72.419156 
L 221.267192 72.300422 
L 221.397072 72.386639 
L 221.981528 71.468029 
L 222.111407 71.246407 
L 222.133053 71.260963 
L 222.371165 71.376616 
L 222.522691 71.384699 
L 222.609277 71.218209 
L 222.630923 71.248191 
L 222.804096 71.315701 
L 223.063854 71.061836 
L 223.193733 70.593232 
L 223.301966 70.614467 
L 223.431845 70.610963 
L 223.64831 69.917699 
L 223.691603 69.956795 
L 224.21112 70.337468 
L 224.232766 70.308916 
L 224.514171 70.234738 
L 224.557464 70.071227 
L 224.622403 70.143265 
L 224.730636 70.151646 
L 224.860515 70.073461 
L 225.012041 70.068658 
L 225.856255 68.399863 
L 225.877902 68.429692 
L 226.180953 68.439442 
L 226.419065 67.987645 
L 226.440711 67.997989 
L 226.657177 68.095397 
L 226.830349 68.191532 
L 226.960228 68.177547 
L 227.111754 68.069692 
L 227.1334 67.822818 
L 227.219986 67.879663 
L 227.393158 67.899696 
L 227.674563 67.655023 
L 227.826089 67.446516 
L 227.869382 67.476807 
L 227.891028 67.38538 
L 228.042554 67.216207 
L 228.085847 67.263674 
L 228.215726 67.307034 
L 228.237373 67.250337 
L 228.323959 67.328569 
L 228.605364 67.386135 
L 228.778536 67.375664 
L 229.233113 67.518983 
L 229.839215 66.318265 
L 230.077327 66.463367 
L 230.402025 66.299539 
L 230.423672 66.33093 
L 230.791662 66.619668 
L 231.073067 66.44708 
L 231.11636 66.375175 
L 231.354472 66.58114 
L 231.527644 66.303888 
L 231.592584 66.300159 
L 231.852342 65.513706 
L 231.873989 65.545716 
L 232.133747 65.694492 
L 232.566677 65.692048 
L 232.718203 65.823581 
L 232.739849 65.80307 
L 233.042901 65.224859 
L 233.086194 65.121881 
L 233.259366 64.994512 
L 233.281012 65.021879 
L 233.454185 65.029597 
L 233.540771 64.810071 
L 233.584064 64.819136 
L 233.67065 64.718478 
L 233.757236 64.585327 
L 233.800529 64.627196 
L 233.908762 64.535213 
L 234.16852 64.340296 
L 234.276753 64.361584 
L 234.579804 63.58498 
L 234.623097 63.595635 
L 234.709683 63.414733 
L 234.73133 63.434565 
L 234.839562 63.410389 
L 234.947795 63.458076 
L 235.185906 63.590959 
L 235.272493 63.541887 
L 235.294139 63.383618 
L 235.380725 63.464303 
L 235.488958 63.445679 
L 235.705423 63.580729 
L 235.856949 63.508574 
L 236.289879 63.709182 
L 236.527991 63.483875 
L 236.744456 63.543117 
L 236.917628 62.980675 
L 237.004214 62.844783 
L 237.025861 62.738874 
L 237.112447 62.77937 
L 237.285619 62.836367 
L 237.307266 62.864915 
L 237.350559 62.746382 
L 237.415498 62.772615 
L 237.545377 62.638943 
L 237.740196 62.325838 
L 237.826782 62.411808 
L 238.129834 62.685072 
L 238.324652 62.60974 
L 238.367945 62.563836 
L 238.519471 62.371969 
L 238.627704 62.321437 
L 238.670997 62.361873 
L 238.844169 62.373122 
L 238.995694 62.415181 
L 239.103927 62.191012 
L 239.125574 62.2006 
L 239.233806 62.175165 
L 239.385332 61.958656 
L 239.406978 61.980488 
L 239.64509 62.103116 
L 239.731676 62.08732 
L 239.753323 62.106972 
L 239.861555 62.161209 
L 239.904848 62.021573 
L 239.991434 62.073805 
L 240.013081 62.102659 
L 240.078021 62.047499 
L 240.229546 61.795607 
L 240.251193 61.820121 
L 240.272839 61.697621 
L 240.359425 61.743027 
L 240.467658 61.759878 
L 240.532598 61.58187 
L 240.597537 61.598789 
L 240.64083 61.649013 
L 240.684123 61.579378 
L 240.900588 61.1315 
L 241.117054 61.242478 
L 241.225286 61.274927 
L 241.246933 61.238753 
L 241.376812 61.130757 
L 241.463398 61.121472 
L 241.528338 60.987335 
L 241.614924 61.036259 
L 241.939622 61.297391 
L 241.982915 61.20848 
L 242.610664 61.345125 
L 242.63231 61.152191 
L 242.718896 61.213901 
L 242.935362 61.280818 
L 243.173473 61.251335 
L 243.324999 61.353003 
L 243.454878 61.095272 
L 243.519818 61.003504 
L 243.714636 60.766526 
L 243.952748 60.903029 
L 243.974395 60.854346 
L 244.060981 60.932641 
L 244.255799 60.775205 
L 244.299092 60.826699 
L 244.775316 61.011942 
L 244.796963 60.955029 
L 244.948488 60.644961 
L 244.991781 60.676116 
L 245.100014 60.711163 
L 245.229893 60.497953 
L 245.359772 60.524747 
L 245.489651 60.093559 
L 245.532944 60.102099 
L 245.965875 60.12161 
L 246.312219 60.331073 
L 246.485391 60.309689 
L 246.593624 60.280505 
L 246.61527 60.309966 
L 246.766796 60.319052 
L 246.939968 60.283729 
L 246.983261 60.270598 
L 247.004908 60.212409 
L 247.221373 60.149462 
L 247.416192 60.270212 
L 247.437838 60.226457 
L 247.589364 60.129683 
L 247.697597 60.173478 
L 247.74089 59.953327 
L 247.827476 60.013619 
L 248.087234 60.200772 
L 248.10888 60.168727 
L 248.411932 59.666806 
L 248.455225 59.698767 
L 248.714983 59.86999 
L 248.953095 60.023819 
L 249.039681 59.94234 
L 249.147914 59.831387 
L 249.191207 59.858222 
L 249.450965 59.482856 
L 249.624137 59.269757 
L 249.73237 59.224883 
L 250.078714 58.926195 
L 250.381765 59.197718 
L 250.446705 59.199578 
L 250.468351 59.22953 
L 250.554938 59.316665 
L 250.576584 59.268795 
L 250.771403 58.8652 
L 250.793049 58.871989 
L 251.052808 58.92225 
L 251.096101 58.966305 
L 251.117747 58.911199 
L 251.22598 58.865517 
L 251.312566 58.86637 
L 251.507384 58.485504 
L 252.026901 58.320265 
L 252.200073 58.141342 
L 252.265013 58.205792 
L 252.286659 58.144449 
L 252.351599 58.064023 
L 252.394892 58.12345 
L 252.568064 58.154483 
L 252.676297 57.844819 
L 252.697943 57.874031 
L 253.065934 58.114166 
L 253.15252 58.056247 
L 253.21746 58.003244 
L 253.260753 58.048202 
L 253.433925 58.214161 
L 253.455572 58.150774 
L 253.780269 57.870129 
L 253.801916 57.893961 
L 254.083321 58.16491 
L 254.104967 58.130318 
L 254.2132 58.039618 
L 254.321432 58.052141 
L 254.364725 58.065573 
L 254.386372 57.984158 
L 254.451312 57.864194 
L 254.559544 57.556644 
L 254.624484 57.627878 
L 254.862595 57.813222 
L 254.927535 57.684065 
L 254.970828 57.741681 
L 255.187293 57.873267 
L 255.338819 57.829416 
L 255.360466 57.850201 
L 255.685163 57.94703 
L 255.750103 57.911853 
L 255.793396 57.954837 
L 255.879982 57.949422 
L 255.966568 57.685762 
L 256.031508 57.703443 
L 256.226326 57.724634 
L 256.377852 57.671348 
L 256.551024 57.603736 
L 256.767489 57.298506 
L 256.810783 57.345066 
L 257.13548 57.58684 
L 257.308653 57.290446 
L 257.351946 57.139294 
L 257.416885 57.206999 
L 257.849816 57.401972 
L 257.936402 57.325006 
L 257.958048 57.336569 
L 258.044634 57.304325 
L 258.087927 57.194998 
L 258.174513 57.233512 
L 258.672383 57.516998 
L 258.845556 57.553988 
L 258.997081 57.334072 
L 259.278486 57.519169 
L 259.300133 57.481761 
L 259.559891 57.529262 
L 260.014468 57.752135 
L 260.18764 57.762488 
L 260.295873 57.716464 
L 260.598924 57.559286 
L 260.620571 57.567373 
L 260.642217 57.460841 
L 260.793743 57.219155 
L 260.858682 57.244953 
L 260.966915 57.056985 
L 260.988561 57.061408 
L 261.053501 57.006597 
L 261.226673 56.769933 
L 261.486431 56.849095 
L 261.68125 56.687641 
L 261.724543 56.61225 
L 261.811129 56.664135 
L 261.941008 56.564113 
L 261.984301 56.609651 
L 262.352292 56.762752 
L 262.525464 56.386718 
L 262.590404 56.448107 
L 262.828516 56.601664 
L 262.850162 56.578875 
L 263.109921 56.515184 
L 263.326386 56.6058 
L 263.434618 56.505308 
L 263.542851 56.489007 
L 263.759316 56.588229 
L 263.997428 56.665052 
L 264.040721 56.566428 
L 264.105661 56.628695 
L 264.711763 56.956865 
L 264.819996 56.843818 
L 265.123047 56.998276 
L 265.252926 56.843136 
L 265.274573 56.854768 
L 265.339512 56.889096 
L 265.382805 56.827224 
L 265.577624 56.745479 
L 265.902322 56.725379 
L 266.075494 56.627593 
L 266.16208 56.53203 
L 266.530071 56.649374 
L 266.638304 56.702383 
L 266.789829 56.526208 
L 266.854769 56.540407 
L 266.898062 56.493699 
L 266.963002 56.406578 
L 267.027941 56.428312 
L 267.22276 56.508542 
L 267.330992 56.513613 
L 267.937095 56.635241 
L 268.045328 56.499414 
L 268.066974 56.524856 
L 268.283439 56.626444 
L 268.911189 56.50966 
L 269.062714 56.299063 
L 269.21424 56.308313 
L 269.27918 56.203609 
L 269.452352 55.96311 
L 269.495645 56.007546 
L 269.690463 56.075411 
L 269.863636 55.991841 
L 269.971868 55.999594 
L 270.080101 56.019077 
L 270.14504 55.970995 
L 270.188333 55.996844 
L 270.491385 56.196405 
L 270.664557 56.136015 
L 270.77279 56.160794 
L 270.945962 56.17496 
L 271.249013 56.200042 
L 271.335599 55.972219 
L 271.378892 55.998307 
L 271.833469 55.964951 
L 271.920055 55.665134 
L 271.984995 55.712167 
L 272.158167 55.746768 
L 272.374632 55.802775 
L 272.547804 55.618772 
L 272.569451 55.641638 
L 273.024028 55.661748 
L 273.045674 55.602714 
L 273.132261 55.670677 
L 273.305433 55.774274 
L 273.327079 55.737709 
L 273.521898 55.682496 
L 274.019768 55.637071 
L 274.106354 55.573656 
L 274.128001 55.597667 
L 274.214587 55.658676 
L 274.236233 55.617344 
L 274.409405 55.361675 
L 274.604224 55.411669 
L 274.799043 55.513815 
L 274.820689 55.480687 
L 274.972215 55.468618 
L 275.296913 55.715648 
L 275.361852 55.61639 
L 275.513378 55.512819 
L 275.599964 55.395903 
L 275.773136 55.334605 
L 276.18442 55.519188 
L 276.487472 55.281276 
L 276.552411 55.117266 
L 276.617351 55.147225 
L 276.703937 55.131089 
L 276.833816 55.031975 
L 276.855462 55.056527 
L 276.985342 55.015125 
L 277.223453 54.799287 
L 277.266746 54.765805 
L 277.288393 54.622782 
L 277.374979 54.6807 
L 277.764616 54.937589 
L 278.024375 54.908047 
L 278.565538 55.053939 
L 278.803649 54.965691 
L 278.933529 54.975609 
L 279.041761 54.957513 
L 279.17164 54.939163 
L 279.23658 54.871353 
L 279.279873 54.887709 
L 279.496338 54.936488 
L 279.539631 54.899839 
L 279.604571 54.933625 
L 279.864329 54.937582 
L 279.907622 54.786964 
L 279.994208 54.859627 
L 280.253966 54.995278 
L 280.427139 54.963014 
L 280.578664 55.050756 
L 280.621957 54.995464 
L 280.79513 55.053964 
L 281.076534 55.140647 
L 281.444525 55.17726 
L 281.596051 55.233566 
L 281.617697 55.209005 
L 281.747577 55.230567 
L 281.769223 55.184652 
L 281.855809 55.233509 
L 282.310386 55.266528 
L 282.353679 55.188885 
L 282.418619 55.223756 
L 282.613437 55.275666 
L 282.743317 55.201446 
L 282.873196 55.253167 
L 282.894842 55.178448 
L 283.003075 55.110318 
L 283.046368 55.141138 
L 283.176247 55.147327 
L 283.349419 55.241704 
L 283.522591 55.216621 
L 283.78235 54.82441 
L 284.128694 54.926734 
L 284.171987 54.795366 
L 284.236927 54.864127 
L 284.496685 54.827356 
L 284.539978 54.717215 
L 284.604918 54.738469 
L 284.626564 54.7619 
L 284.669857 54.658225 
L 284.691504 54.682477 
L 284.799736 54.604235 
L 284.843029 54.492782 
L 284.929615 54.522934 
L 285.340899 54.540732 
L 285.535718 54.436 
L 285.838769 54.596797 
L 286.250053 54.725838 
L 286.488165 54.864564 
L 286.661337 54.870037 
L 287.375672 54.627905 
L 287.592138 54.457802 
L 287.873542 54.536965 
L 288.025068 54.621481 
L 288.111654 54.677461 
L 288.133301 54.589615 
L 288.241533 54.625844 
L 288.26318 54.475741 
L 288.349766 54.51863 
L 288.371412 54.538865 
L 288.414705 54.470494 
L 288.479645 54.429733 
L 288.522938 54.470349 
L 288.869282 54.586656 
L 288.977515 54.53999 
L 288.999162 54.555048 
L 289.107394 54.611628 
L 289.19398 54.629298 
L 289.302213 54.511726 
L 289.323859 54.522864 
L 289.518678 54.531096 
L 289.886669 54.569425 
L 289.994902 54.591323 
L 290.25466 54.70369 
L 290.449479 54.687165 
L 290.622651 54.410393 
L 290.730883 54.301266 
L 290.968995 54.407417 
L 291.163814 54.341048 
L 291.336986 54.367022 
L 291.445219 54.354284 
L 291.68333 54.512471 
L 291.81321 54.442254 
L 291.899796 54.471139 
L 291.921442 54.384199 
L 292.008028 54.43036 
L 292.094614 54.387498 
L 292.224493 54.252736 
L 292.267786 54.276925 
L 292.376019 54.203426 
L 292.527545 54.251521 
L 292.80895 54.329522 
L 292.938829 54.281322 
L 292.960475 54.304144 
L 293.501638 54.438532 
L 293.631517 54.331522 
L 293.934569 54.460614 
L 294.107741 54.419293 
L 294.194327 54.34817 
L 294.23762 54.378841 
L 294.540671 54.483173 
L 294.757137 54.516286 
L 294.822076 54.527554 
L 294.973602 54.327627 
L 295.190067 54.424778 
L 295.211714 54.39899 
L 295.406532 54.374098 
L 295.493118 54.308905 
L 295.666291 54.07976 
L 296.055928 54.33301 
L 296.467212 54.540096 
L 296.640384 54.528969 
L 297.268133 54.779075 
L 297.398012 54.620314 
L 297.419659 54.642215 
L 297.506245 54.66531 
L 297.527891 54.601969 
L 297.571185 54.531588 
L 297.636124 54.570826 
L 297.960822 54.638637 
L 298.328813 54.626985 
L 298.610218 54.678123 
L 298.71845 54.701873 
L 298.978208 54.823179 
L 299.389492 54.862 
L 299.541018 54.643122 
L 299.584311 54.667194 
L 299.930655 54.860657 
L 300.082181 54.721195 
L 300.298646 54.70187 
L 300.580051 54.854939 
L 301.510852 55.168507 
L 301.619084 55.152684 
L 301.640731 55.172587 
L 301.813903 55.181973 
L 301.943782 55.22789 
L 302.095308 55.206955 
L 302.26848 55.213985 
L 302.549885 55.306447 
L 302.83129 55.241689 
L 303.155987 55.345465 
L 303.394099 55.301788 
L 303.632211 55.360327 
L 303.956909 55.214143 
L 304.25996 55.300485 
L 304.411486 55.279084 
L 304.844416 55.166539 
L 304.995942 55.118743 
L 305.32064 55.321142 
L 305.363933 55.24873 
L 305.645337 55.224679 
L 306.273087 55.703813 
L 306.424612 55.574423 
L 306.489552 55.509839 
L 306.532845 55.543938 
L 306.857543 55.604477 
L 307.095654 55.619206 
L 307.723404 55.862951 
L 307.853283 55.894562 
L 308.459385 56.226293 
L 308.589265 56.286523 
L 308.719144 56.306605 
L 308.80573 56.258748 
L 308.827376 56.280069 
L 309.043841 56.352287 
L 309.108781 56.324902 
L 309.152074 56.353826 
L 310.191107 56.314344 
L 310.320986 56.210206 
L 310.342633 56.225231 
L 310.905442 56.222861 
L 311.056968 56.211864 
L 311.273433 56.20444 
L 311.381666 56.159355 
L 311.403312 56.174912 
L 312.767043 56.601355 
L 313.005155 56.550159 
L 313.22162 56.614495 
L 313.632904 56.485455 
L 314.325593 56.585924 
L 315.039928 56.715376 
L 315.429566 56.989657 
L 315.516152 56.912593 
L 315.559445 56.931514 
L 315.905789 57.013797 
L 318.221967 57.632786 
L 318.351846 57.548578 
L 318.589958 57.600792 
L 318.806423 57.499164 
L 318.957949 57.502169 
L 318.979595 57.430936 
L 319.066181 57.493031 
L 319.412526 57.678119 
L 319.585698 57.543689 
L 319.910396 57.656911 
L 319.953689 57.559013 
L 320.018628 57.618917 
L 320.776257 57.839634 
L 320.797903 57.777141 
L 320.884489 57.808106 
L 321.187541 57.905885 
L 321.274127 57.944738 
L 321.31742 57.875888 
L 321.642118 57.786312 
L 321.793643 57.618674 
L 321.81529 57.630159 
L 322.572918 57.844441 
L 322.659504 57.79686 
L 322.681151 57.817151 
L 322.897616 57.945102 
L 322.919262 57.920003 
L 323.222314 57.863855 
L 323.438779 57.910942 
L 323.590305 57.950636 
L 323.850063 57.965526 
L 324.109821 57.931008 
L 324.369579 57.91703 
L 324.412873 57.860702 
L 324.477812 57.90156 
L 324.867449 58.03061 
L 324.975682 57.984246 
L 325.148854 58.021329 
L 325.278733 57.888346 
L 325.430259 57.92293 
L 325.451906 57.884679 
L 325.646724 57.846825 
L 325.971422 57.920407 
L 326.166241 57.955587 
L 327.85467 58.577999 
L 327.984549 58.603348 
L 329.066875 58.797803 
L 329.240047 58.693468 
L 329.456512 58.643988 
L 329.564745 58.539154 
L 329.608038 58.556884 
L 329.759564 58.545302 
L 330.040968 58.698751 
L 330.322373 58.809641 
L 330.430606 58.877071 
L 330.582131 58.769555 
L 330.928476 58.453541 
L 331.27482 58.606772 
L 331.469639 58.628728 
L 331.599518 58.612412 
L 332.010802 58.853317 
L 332.227267 58.930062 
L 332.313853 58.684256 
L 332.378793 58.711475 
L 332.530318 58.656777 
L 332.790077 58.744672 
L 332.919956 58.810408 
L 333.244654 58.872314 
L 333.396179 58.8041 
L 333.590998 58.820861 
L 334.002282 58.997747 
L 334.132161 58.967175 
L 334.153808 58.985383 
L 334.456859 59.120458 
L 334.586738 59.106244 
L 335.084608 59.252982 
L 335.798943 59.384283 
L 335.928823 59.374573 
L 336.275167 59.507458 
L 336.405046 59.485666 
L 336.902916 59.605613 
L 337.141028 59.68558 
L 337.37914 59.640488 
L 337.855363 59.851572 
L 338.245 59.971824 
L 338.396526 59.969684 
L 338.829457 60.000918 
L 339.154154 60.082723 
L 339.262387 60.091401 
L 339.435559 60.140245 
L 339.457206 60.073295 
L 339.543792 60.128589 
L 340.30142 60.334855 
L 340.474592 60.342101 
L 340.712704 60.312949 
L 341.665151 60.546743 
L 341.903263 60.583041 
L 341.968202 60.566435 
L 342.011495 60.598646 
L 342.249607 60.691043 
L 342.379486 60.624598 
L 342.531012 60.648531 
L 342.769124 60.701584 
L 343.007235 60.601568 
L 343.310287 60.731141 
L 343.873096 60.697035 
L 344.219441 60.870462 
L 344.262734 60.773788 
L 344.760604 60.918844 
L 345.042009 61.023984 
L 345.518232 61.204712 
L 345.734697 61.237551 
L 346.297507 61.228828 
L 346.427386 61.195086 
L 346.449032 61.212568 
L 346.687144 61.270868 
L 346.881963 61.302596 
L 347.033489 61.037986 
L 347.185014 61.046182 
L 347.423126 61.117587 
L 347.76947 61.087206 
L 348.007582 61.204196 
L 348.029229 61.163411 
L 348.462159 60.889919 
L 349.587778 61.252678 
L 349.782597 61.267003 
L 350.042355 61.285818 
L 350.3887 61.413738 
L 350.540225 61.393377 
L 350.951509 61.369522 
L 351.146328 61.364129 
L 351.25456 61.313148 
L 351.427733 61.30736 
L 351.730784 61.35977 
L 352.120421 61.429438 
L 352.336887 61.438042 
L 352.553352 61.545319 
L 352.856403 61.623883 
L 353.484152 61.565548 
L 353.960376 61.644899 
L 354.155195 61.657289 
L 354.30672 61.695246 
L 354.328367 61.640297 
L 354.414953 61.680983 
L 354.826237 61.647322 
L 355.107642 61.705065 
L 355.150935 61.567816 
L 355.215874 61.602907 
L 355.3674 61.648505 
L 355.432339 61.525538 
L 355.475632 61.544786 
L 355.648805 61.561567 
L 355.80033 61.445085 
L 355.821977 61.460212 
L 356.125028 61.603758 
L 356.2982 61.54229 
L 357.943336 61.871106 
L 358.268034 61.879368 
L 358.549439 61.97624 
L 358.874136 62.061311 
L 360.562565 62.255562 
L 360.692444 62.23321 
L 360.822323 62.260109 
L 360.84397 62.224485 
L 360.865617 62.178845 
L 360.952203 62.22534 
L 361.2769 62.362576 
L 361.623245 62.445103 
L 361.883003 62.525108 
L 362.056175 62.481869 
L 362.121115 62.409853 
L 362.164408 62.431553 
L 362.965329 62.740548 
L 363.419906 62.776225 
L 363.549785 62.763121 
L 363.722957 62.742992 
L 364.004362 62.71453 
L 364.307414 62.52747 
L 364.437293 62.486197 
L 364.805284 62.607315 
L 365.043395 62.52115 
L 365.476326 62.658273 
L 365.562912 62.60429 
L 365.606205 62.63383 
L 365.995842 62.708623 
L 366.255601 62.772687 
L 366.580298 62.883944 
L 366.948289 63.022976 
L 367.359573 62.951342 
L 367.705918 63.023279 
L 368.896476 63.284992 
L 369.394346 63.510417 
L 369.783984 63.666584 
L 369.935509 63.690351 
L 369.978803 63.598858 
L 370.043742 63.622487 
L 370.216914 63.571667 
L 370.281854 63.538924 
L 370.325147 63.561849 
L 370.411733 63.59079 
L 370.455026 63.51478 
L 370.606552 63.416363 
L 370.86631 63.474061 
L 371.017836 63.453921 
L 371.212654 63.47569 
L 371.342533 63.507964 
L 371.515706 63.55165 
L 371.710524 63.574211 
L 372.273334 63.67235 
L 372.619678 63.795816 
L 373.896823 63.977113 
L 374.134935 64.034048 
L 374.28646 64.047259 
L 374.524572 64.100379 
L 374.719391 64.089091 
L 375.022442 64.175799 
L 375.152321 64.203118 
L 377.966369 64.451052 
L 378.182835 64.462392 
L 378.356007 64.476355 
L 378.659058 64.528122 
L 378.788937 64.500818 
L 379.546565 64.578418 
L 379.654798 64.442412 
L 379.698091 64.4659 
L 379.871263 64.482259 
L 380.109375 64.526301 
L 381.061822 64.682247 
L 381.191701 64.591016 
L 382.144148 64.743567 
L 382.295674 64.771031 
L 382.685311 64.904653 
L 382.836837 64.891153 
L 383.378 64.986201 
L 383.529526 64.876682 
L 383.659405 64.87868 
L 383.962456 64.896863 
L 384.070689 64.910029 
L 384.43868 65.043472 
L 384.785024 65.087928 
L 384.93655 65.074353 
L 386.43016 65.499004 
L 386.646625 65.47796 
L 388.291761 65.643964 
L 388.681398 65.788118 
L 388.832924 65.812933 
L 389.590552 65.959226 
L 389.720431 65.943357 
L 390.023482 65.940975 
L 390.261594 65.93356 
L 390.781111 65.918418 
L 390.889343 65.88046 
L 391.149102 65.756034 
L 391.560386 65.91502 
L 391.993316 65.910659 
L 392.253074 65.962057 
L 392.621065 66.087787 
L 392.750944 66.078098 
L 393.118935 66.136225 
L 393.248814 66.16089 
L 393.530219 66.217598 
L 393.746684 66.210636 
L 394.049736 66.24094 
L 395.002183 66.113432 
L 395.370173 66.132936 
L 395.608285 66.031976 
L 395.88969 66.098577 
L 396.517439 66.238481 
L 396.625672 66.225112 
L 396.993663 66.232383 
L 397.837877 66.021048 
L 398.011049 65.993488 
L 398.487273 66.045284 
L 398.487273 66.045284 
" clip-path="url(#p06ea8b2ecc)" style="fill: none; stroke: #d62728; stroke-width: 1.5; stroke-linecap: square"/>
   </g>
   <g id="patch_3">
    <path d="M 57.6 307.584 
L 57.6 41.472 
" style="fill: none; stroke: #ffffff; stroke-linejoin: miter; stroke-linecap: square"/>
   </g>
   <g id="patch_4">
    <path d="M 414.72 307.584 
L 414.72 41.472 
" style="fill: none; stroke: #ffffff; stroke-linejoin: miter; stroke-linecap: square"/>
   </g>
   <g id="patch_5">
    <path d="M 57.6 307.584 
L 414.72 307.584 
" style="fill: none; stroke: #ffffff; stroke-linejoin: miter; stroke-linecap: square"/>
   </g>
   <g id="patch_6">
    <path d="M 57.6 41.472 
L 414.72 41.472 
" style="fill: none; stroke: #ffffff; stroke-linejoin: miter; stroke-linecap: square"/>
   </g>
   <g id="text_18">
    <!-- 2811.533235549037 -->
    <g transform="translate(398.487273 66.045284) scale(0.1 -0.1)">
     <defs>
      <path id="DejaVuSans-2e" d="M 684 794 
L 1344 794 
L 1344 0 
L 684 0 
L 684 794 
z
" transform="scale(0.015625)"/>
      <path id="DejaVuSans-39" d="M 703 97 
L 703 672 
Q 941 559 1184 500 
Q 1428 441 1663 441 
Q 2288 441 2617 861 
Q 2947 1281 2994 2138 
Q 2813 1869 2534 1725 
Q 2256 1581 1919 1581 
Q 1219 1581 811 2004 
Q 403 2428 403 3163 
Q 403 3881 828 4315 
Q 1253 4750 1959 4750 
Q 2769 4750 3195 4129 
Q 3622 3509 3622 2328 
Q 3622 1225 3098 567 
Q 2575 -91 1691 -91 
Q 1453 -91 1209 -44 
Q 966 3 703 97 
z
M 1959 2075 
Q 2384 2075 2632 2365 
Q 2881 2656 2881 3163 
Q 2881 3666 2632 3958 
Q 2384 4250 1959 4250 
Q 1534 4250 1286 3958 
Q 1038 3666 1038 3163 
Q 1038 2656 1286 2365 
Q 1534 2075 1959 2075 
z
" transform="scale(0.015625)"/>
      <path id="DejaVuSans-37" d="M 525 4666 
L 3525 4666 
L 3525 4397 
L 1831 0 
L 1172 0 
L 2766 4134 
L 525 4134 
L 525 4666 
z
" transform="scale(0.015625)"/>
     </defs>
     <use xlink:href="#DejaVuSans-32"/>
     <use xlink:href="#DejaVuSans-38" x="63.623047"/>
     <use xlink:href="#DejaVuSans-31" x="127.246094"/>
     <use xlink:href="#DejaVuSans-31" x="190.869141"/>
     <use xlink:href="#DejaVuSans-2e" x="254.492188"/>
     <use xlink:href="#DejaVuSans-35" x="286.279297"/>
     <use xlink:href="#DejaVuSans-33" x="349.902344"/>
     <use xlink:href="#DejaVuSans-33" x="413.525391"/>
     <use xlink:href="#DejaVuSans-32" x="477.148438"/>
     <use xlink:href="#DejaVuSans-33" x="540.771484"/>
     <use xlink:href="#DejaVuSans-35" x="604.394531"/>
     <use xlink:href="#DejaVuSans-35" x="668.017578"/>
     <use xlink:href="#DejaVuSans-34" x="731.640625"/>
     <use xlink:href="#DejaVuSans-39" x="795.263672"/>
     <use xlink:href="#DejaVuSans-30" x="858.886719"/>
     <use xlink:href="#DejaVuSans-33" x="922.509766"/>
     <use xlink:href="#DejaVuSans-37" x="986.132812"/>
    </g>
   </g>
   <g id="text_19">
    <!-- Epoch: 15000 -->
    <g transform="translate(186.4935 35.472) scale(0.144 -0.144)">
     <defs>
      <path id="DejaVuSans-45" d="M 628 4666 
L 3578 4666 
L 3578 4134 
L 1259 4134 
L 1259 2753 
L 3481 2753 
L 3481 2222 
L 1259 2222 
L 1259 531 
L 3634 531 
L 3634 0 
L 628 0 
L 628 4666 
z
" transform="scale(0.015625)"/>
      <path id="DejaVuSans-70" d="M 1159 525 
L 1159 -1331 
L 581 -1331 
L 581 3500 
L 1159 3500 
L 1159 2969 
Q 1341 3281 1617 3432 
Q 1894 3584 2278 3584 
Q 2916 3584 3314 3078 
Q 3713 2572 3713 1747 
Q 3713 922 3314 415 
Q 2916 -91 2278 -91 
Q 1894 -91 1617 61 
Q 1341 213 1159 525 
z
M 3116 1747 
Q 3116 2381 2855 2742 
Q 2594 3103 2138 3103 
Q 1681 3103 1420 2742 
Q 1159 2381 1159 1747 
Q 1159 1113 1420 752 
Q 1681 391 2138 391 
Q 2594 391 2855 752 
Q 3116 1113 3116 1747 
z
" transform="scale(0.015625)"/>
      <path id="DejaVuSans-63" d="M 3122 3366 
L 3122 2828 
Q 2878 2963 2633 3030 
Q 2388 3097 2138 3097 
Q 1578 3097 1268 2742 
Q 959 2388 959 1747 
Q 959 1106 1268 751 
Q 1578 397 2138 397 
Q 2388 397 2633 464 
Q 2878 531 3122 666 
L 3122 134 
Q 2881 22 2623 -34 
Q 2366 -91 2075 -91 
Q 1284 -91 818 406 
Q 353 903 353 1747 
Q 353 2603 823 3093 
Q 1294 3584 2113 3584 
Q 2378 3584 2631 3529 
Q 2884 3475 3122 3366 
z
" transform="scale(0.015625)"/>
      <path id="DejaVuSans-68" d="M 3513 2113 
L 3513 0 
L 2938 0 
L 2938 2094 
Q 2938 2591 2744 2837 
Q 2550 3084 2163 3084 
Q 1697 3084 1428 2787 
Q 1159 2491 1159 1978 
L 1159 0 
L 581 0 
L 581 4863 
L 1159 4863 
L 1159 2956 
Q 1366 3272 1645 3428 
Q 1925 3584 2291 3584 
Q 2894 3584 3203 3211 
Q 3513 2838 3513 2113 
z
" transform="scale(0.015625)"/>
      <path id="DejaVuSans-3a" d="M 750 794 
L 1409 794 
L 1409 0 
L 750 0 
L 750 794 
z
M 750 3309 
L 1409 3309 
L 1409 2516 
L 750 2516 
L 750 3309 
z
" transform="scale(0.015625)"/>
     </defs>
     <use xlink:href="#DejaVuSans-45"/>
     <use xlink:href="#DejaVuSans-70" x="63.183594"/>
     <use xlink:href="#DejaVuSans-6f" x="126.660156"/>
     <use xlink:href="#DejaVuSans-63" x="187.841797"/>
     <use xlink:href="#DejaVuSans-68" x="242.822266"/>
     <use xlink:href="#DejaVuSans-3a" x="306.201172"/>
     <use xlink:href="#DejaVuSans-20" x="339.892578"/>
     <use xlink:href="#DejaVuSans-31" x="371.679688"/>
     <use xlink:href="#DejaVuSans-35" x="435.302734"/>
     <use xlink:href="#DejaVuSans-30" x="498.925781"/>
     <use xlink:href="#DejaVuSans-30" x="562.548828"/>
     <use xlink:href="#DejaVuSans-30" x="626.171875"/>
    </g>
   </g>
  </g>
 </g>
 <defs>
  <clipPath id="p06ea8b2ecc">
   <rect x="57.6" y="41.472" width="357.12" height="266.112"/>
  </clipPath>
 </defs>
</svg>
