<?xml version="1.0" encoding="utf-8" standalone="no"?>
<!DOCTYPE svg PUBLIC "-//W3C//DTD SVG 1.1//EN"
  "http://www.w3.org/Graphics/SVG/1.1/DTD/svg11.dtd">
<svg xmlns:xlink="http://www.w3.org/1999/xlink" width="460.8pt" height="345.6pt" viewBox="0 0 460.8 345.6" xmlns="http://www.w3.org/2000/svg" version="1.1">
 <metadata>
  <rdf:RDF xmlns:dc="http://purl.org/dc/elements/1.1/" xmlns:cc="http://creativecommons.org/ns#" xmlns:rdf="http://www.w3.org/1999/02/22-rdf-syntax-ns#">
   <cc:Work>
    <dc:type rdf:resource="http://purl.org/dc/dcmitype/StillImage"/>
    <dc:date>2024-09-10T00:29:35.455169</dc:date>
    <dc:format>image/svg+xml</dc:format>
    <dc:creator>
     <cc:Agent>
      <dc:title>Matplotlib v3.8.4, https://matplotlib.org/</dc:title>
     </cc:Agent>
    </dc:creator>
   </cc:Work>
  </rdf:RDF>
 </metadata>
 <defs>
  <style type="text/css">*{stroke-linejoin: round; stroke-linecap: butt}</style>
 </defs>
 <g id="figure_1">
  <g id="patch_1">
   <path d="M 0 345.6 
L 460.8 345.6 
L 460.8 0 
L 0 0 
z
" style="fill: #ffffff"/>
  </g>
  <g id="axes_1">
   <g id="patch_2">
    <path d="M 57.6 307.584 
L 414.72 307.584 
L 414.72 41.472 
L 57.6 41.472 
z
" style="fill: #e5e5e5"/>
   </g>
   <g id="matplotlib.axis_1">
    <g id="xtick_1">
     <g id="line2d_1">
      <path d="M 73.832727 307.584 
L 73.832727 41.472 
" clip-path="url(#pd6a56d809e)" style="fill: none; stroke: #ffffff; stroke-width: 0.8; stroke-linecap: square"/>
     </g>
     <g id="line2d_2">
      <defs>
       <path id="m1d1cb354a1" d="M 0 0 
L 0 3.5 
" style="stroke: #555555; stroke-width: 0.8"/>
      </defs>
      <g>
       <use xlink:href="#m1d1cb354a1" x="73.832727" y="307.584" style="fill: #555555; stroke: #555555; stroke-width: 0.8"/>
      </g>
     </g>
     <g id="text_1">
      <!-- 0 -->
      <g style="fill: #555555" transform="translate(70.651477 322.182437) scale(0.1 -0.1)">
       <defs>
        <path id="DejaVuSans-30" d="M 2034 4250 
Q 1547 4250 1301 3770 
Q 1056 3291 1056 2328 
Q 1056 1369 1301 889 
Q 1547 409 2034 409 
Q 2525 409 2770 889 
Q 3016 1369 3016 2328 
Q 3016 3291 2770 3770 
Q 2525 4250 2034 4250 
z
M 2034 4750 
Q 2819 4750 3233 4129 
Q 3647 3509 3647 2328 
Q 3647 1150 3233 529 
Q 2819 -91 2034 -91 
Q 1250 -91 836 529 
Q 422 1150 422 2328 
Q 422 3509 836 4129 
Q 1250 4750 2034 4750 
z
" transform="scale(0.015625)"/>
       </defs>
       <use xlink:href="#DejaVuSans-30"/>
      </g>
     </g>
    </g>
    <g id="xtick_2">
     <g id="line2d_3">
      <path d="M 114.455168 307.584 
L 114.455168 41.472 
" clip-path="url(#pd6a56d809e)" style="fill: none; stroke: #ffffff; stroke-width: 0.8; stroke-linecap: square"/>
     </g>
     <g id="line2d_4">
      <g>
       <use xlink:href="#m1d1cb354a1" x="114.455168" y="307.584" style="fill: #555555; stroke: #555555; stroke-width: 0.8"/>
      </g>
     </g>
     <g id="text_2">
      <!-- 250 -->
      <g style="fill: #555555" transform="translate(104.911418 322.182437) scale(0.1 -0.1)">
       <defs>
        <path id="DejaVuSans-32" d="M 1228 531 
L 3431 531 
L 3431 0 
L 469 0 
L 469 531 
Q 828 903 1448 1529 
Q 2069 2156 2228 2338 
Q 2531 2678 2651 2914 
Q 2772 3150 2772 3378 
Q 2772 3750 2511 3984 
Q 2250 4219 1831 4219 
Q 1534 4219 1204 4116 
Q 875 4013 500 3803 
L 500 4441 
Q 881 4594 1212 4672 
Q 1544 4750 1819 4750 
Q 2544 4750 2975 4387 
Q 3406 4025 3406 3419 
Q 3406 3131 3298 2873 
Q 3191 2616 2906 2266 
Q 2828 2175 2409 1742 
Q 1991 1309 1228 531 
z
" transform="scale(0.015625)"/>
        <path id="DejaVuSans-35" d="M 691 4666 
L 3169 4666 
L 3169 4134 
L 1269 4134 
L 1269 2991 
Q 1406 3038 1543 3061 
Q 1681 3084 1819 3084 
Q 2600 3084 3056 2656 
Q 3513 2228 3513 1497 
Q 3513 744 3044 326 
Q 2575 -91 1722 -91 
Q 1428 -91 1123 -41 
Q 819 9 494 109 
L 494 744 
Q 775 591 1075 516 
Q 1375 441 1709 441 
Q 2250 441 2565 725 
Q 2881 1009 2881 1497 
Q 2881 1984 2565 2268 
Q 2250 2553 1709 2553 
Q 1456 2553 1204 2497 
Q 953 2441 691 2322 
L 691 4666 
z
" transform="scale(0.015625)"/>
       </defs>
       <use xlink:href="#DejaVuSans-32"/>
       <use xlink:href="#DejaVuSans-35" x="63.623047"/>
       <use xlink:href="#DejaVuSans-30" x="127.246094"/>
      </g>
     </g>
    </g>
    <g id="xtick_3">
     <g id="line2d_5">
      <path d="M 155.077609 307.584 
L 155.077609 41.472 
" clip-path="url(#pd6a56d809e)" style="fill: none; stroke: #ffffff; stroke-width: 0.8; stroke-linecap: square"/>
     </g>
     <g id="line2d_6">
      <g>
       <use xlink:href="#m1d1cb354a1" x="155.077609" y="307.584" style="fill: #555555; stroke: #555555; stroke-width: 0.8"/>
      </g>
     </g>
     <g id="text_3">
      <!-- 500 -->
      <g style="fill: #555555" transform="translate(145.533859 322.182437) scale(0.1 -0.1)">
       <use xlink:href="#DejaVuSans-35"/>
       <use xlink:href="#DejaVuSans-30" x="63.623047"/>
       <use xlink:href="#DejaVuSans-30" x="127.246094"/>
      </g>
     </g>
    </g>
    <g id="xtick_4">
     <g id="line2d_7">
      <path d="M 195.700049 307.584 
L 195.700049 41.472 
" clip-path="url(#pd6a56d809e)" style="fill: none; stroke: #ffffff; stroke-width: 0.8; stroke-linecap: square"/>
     </g>
     <g id="line2d_8">
      <g>
       <use xlink:href="#m1d1cb354a1" x="195.700049" y="307.584" style="fill: #555555; stroke: #555555; stroke-width: 0.8"/>
      </g>
     </g>
     <g id="text_4">
      <!-- 750 -->
      <g style="fill: #555555" transform="translate(186.156299 322.182437) scale(0.1 -0.1)">
       <defs>
        <path id="DejaVuSans-37" d="M 525 4666 
L 3525 4666 
L 3525 4397 
L 1831 0 
L 1172 0 
L 2766 4134 
L 525 4134 
L 525 4666 
z
" transform="scale(0.015625)"/>
       </defs>
       <use xlink:href="#DejaVuSans-37"/>
       <use xlink:href="#DejaVuSans-35" x="63.623047"/>
       <use xlink:href="#DejaVuSans-30" x="127.246094"/>
      </g>
     </g>
    </g>
    <g id="xtick_5">
     <g id="line2d_9">
      <path d="M 236.32249 307.584 
L 236.32249 41.472 
" clip-path="url(#pd6a56d809e)" style="fill: none; stroke: #ffffff; stroke-width: 0.8; stroke-linecap: square"/>
     </g>
     <g id="line2d_10">
      <g>
       <use xlink:href="#m1d1cb354a1" x="236.32249" y="307.584" style="fill: #555555; stroke: #555555; stroke-width: 0.8"/>
      </g>
     </g>
     <g id="text_5">
      <!-- 1000 -->
      <g style="fill: #555555" transform="translate(223.59749 322.182437) scale(0.1 -0.1)">
       <defs>
        <path id="DejaVuSans-31" d="M 794 531 
L 1825 531 
L 1825 4091 
L 703 3866 
L 703 4441 
L 1819 4666 
L 2450 4666 
L 2450 531 
L 3481 531 
L 3481 0 
L 794 0 
L 794 531 
z
" transform="scale(0.015625)"/>
       </defs>
       <use xlink:href="#DejaVuSans-31"/>
       <use xlink:href="#DejaVuSans-30" x="63.623047"/>
       <use xlink:href="#DejaVuSans-30" x="127.246094"/>
       <use xlink:href="#DejaVuSans-30" x="190.869141"/>
      </g>
     </g>
    </g>
    <g id="xtick_6">
     <g id="line2d_11">
      <path d="M 276.94493 307.584 
L 276.94493 41.472 
" clip-path="url(#pd6a56d809e)" style="fill: none; stroke: #ffffff; stroke-width: 0.8; stroke-linecap: square"/>
     </g>
     <g id="line2d_12">
      <g>
       <use xlink:href="#m1d1cb354a1" x="276.94493" y="307.584" style="fill: #555555; stroke: #555555; stroke-width: 0.8"/>
      </g>
     </g>
     <g id="text_6">
      <!-- 1250 -->
      <g style="fill: #555555" transform="translate(264.21993 322.182437) scale(0.1 -0.1)">
       <use xlink:href="#DejaVuSans-31"/>
       <use xlink:href="#DejaVuSans-32" x="63.623047"/>
       <use xlink:href="#DejaVuSans-35" x="127.246094"/>
       <use xlink:href="#DejaVuSans-30" x="190.869141"/>
      </g>
     </g>
    </g>
    <g id="xtick_7">
     <g id="line2d_13">
      <path d="M 317.567371 307.584 
L 317.567371 41.472 
" clip-path="url(#pd6a56d809e)" style="fill: none; stroke: #ffffff; stroke-width: 0.8; stroke-linecap: square"/>
     </g>
     <g id="line2d_14">
      <g>
       <use xlink:href="#m1d1cb354a1" x="317.567371" y="307.584" style="fill: #555555; stroke: #555555; stroke-width: 0.8"/>
      </g>
     </g>
     <g id="text_7">
      <!-- 1500 -->
      <g style="fill: #555555" transform="translate(304.842371 322.182437) scale(0.1 -0.1)">
       <use xlink:href="#DejaVuSans-31"/>
       <use xlink:href="#DejaVuSans-35" x="63.623047"/>
       <use xlink:href="#DejaVuSans-30" x="127.246094"/>
       <use xlink:href="#DejaVuSans-30" x="190.869141"/>
      </g>
     </g>
    </g>
    <g id="xtick_8">
     <g id="line2d_15">
      <path d="M 358.189812 307.584 
L 358.189812 41.472 
" clip-path="url(#pd6a56d809e)" style="fill: none; stroke: #ffffff; stroke-width: 0.8; stroke-linecap: square"/>
     </g>
     <g id="line2d_16">
      <g>
       <use xlink:href="#m1d1cb354a1" x="358.189812" y="307.584" style="fill: #555555; stroke: #555555; stroke-width: 0.8"/>
      </g>
     </g>
     <g id="text_8">
      <!-- 1750 -->
      <g style="fill: #555555" transform="translate(345.464812 322.182437) scale(0.1 -0.1)">
       <use xlink:href="#DejaVuSans-31"/>
       <use xlink:href="#DejaVuSans-37" x="63.623047"/>
       <use xlink:href="#DejaVuSans-35" x="127.246094"/>
       <use xlink:href="#DejaVuSans-30" x="190.869141"/>
      </g>
     </g>
    </g>
    <g id="xtick_9">
     <g id="line2d_17">
      <path d="M 398.812252 307.584 
L 398.812252 41.472 
" clip-path="url(#pd6a56d809e)" style="fill: none; stroke: #ffffff; stroke-width: 0.8; stroke-linecap: square"/>
     </g>
     <g id="line2d_18">
      <g>
       <use xlink:href="#m1d1cb354a1" x="398.812252" y="307.584" style="fill: #555555; stroke: #555555; stroke-width: 0.8"/>
      </g>
     </g>
     <g id="text_9">
      <!-- 2000 -->
      <g style="fill: #555555" transform="translate(386.087252 322.182437) scale(0.1 -0.1)">
       <use xlink:href="#DejaVuSans-32"/>
       <use xlink:href="#DejaVuSans-30" x="63.623047"/>
       <use xlink:href="#DejaVuSans-30" x="127.246094"/>
       <use xlink:href="#DejaVuSans-30" x="190.869141"/>
      </g>
     </g>
    </g>
    <g id="text_10">
     <!-- Number of Games -->
     <g style="fill: #555555" transform="translate(181.471875 337.38025) scale(0.12 -0.12)">
      <defs>
       <path id="DejaVuSans-4e" d="M 628 4666 
L 1478 4666 
L 3547 763 
L 3547 4666 
L 4159 4666 
L 4159 0 
L 3309 0 
L 1241 3903 
L 1241 0 
L 628 0 
L 628 4666 
z
" transform="scale(0.015625)"/>
       <path id="DejaVuSans-75" d="M 544 1381 
L 544 3500 
L 1119 3500 
L 1119 1403 
Q 1119 906 1312 657 
Q 1506 409 1894 409 
Q 2359 409 2629 706 
Q 2900 1003 2900 1516 
L 2900 3500 
L 3475 3500 
L 3475 0 
L 2900 0 
L 2900 538 
Q 2691 219 2414 64 
Q 2138 -91 1772 -91 
Q 1169 -91 856 284 
Q 544 659 544 1381 
z
M 1991 3584 
L 1991 3584 
z
" transform="scale(0.015625)"/>
       <path id="DejaVuSans-6d" d="M 3328 2828 
Q 3544 3216 3844 3400 
Q 4144 3584 4550 3584 
Q 5097 3584 5394 3201 
Q 5691 2819 5691 2113 
L 5691 0 
L 5113 0 
L 5113 2094 
Q 5113 2597 4934 2840 
Q 4756 3084 4391 3084 
Q 3944 3084 3684 2787 
Q 3425 2491 3425 1978 
L 3425 0 
L 2847 0 
L 2847 2094 
Q 2847 2600 2669 2842 
Q 2491 3084 2119 3084 
Q 1678 3084 1418 2786 
Q 1159 2488 1159 1978 
L 1159 0 
L 581 0 
L 581 3500 
L 1159 3500 
L 1159 2956 
Q 1356 3278 1631 3431 
Q 1906 3584 2284 3584 
Q 2666 3584 2933 3390 
Q 3200 3197 3328 2828 
z
" transform="scale(0.015625)"/>
       <path id="DejaVuSans-62" d="M 3116 1747 
Q 3116 2381 2855 2742 
Q 2594 3103 2138 3103 
Q 1681 3103 1420 2742 
Q 1159 2381 1159 1747 
Q 1159 1113 1420 752 
Q 1681 391 2138 391 
Q 2594 391 2855 752 
Q 3116 1113 3116 1747 
z
M 1159 2969 
Q 1341 3281 1617 3432 
Q 1894 3584 2278 3584 
Q 2916 3584 3314 3078 
Q 3713 2572 3713 1747 
Q 3713 922 3314 415 
Q 2916 -91 2278 -91 
Q 1894 -91 1617 61 
Q 1341 213 1159 525 
L 1159 0 
L 581 0 
L 581 4863 
L 1159 4863 
L 1159 2969 
z
" transform="scale(0.015625)"/>
       <path id="DejaVuSans-65" d="M 3597 1894 
L 3597 1613 
L 953 1613 
Q 991 1019 1311 708 
Q 1631 397 2203 397 
Q 2534 397 2845 478 
Q 3156 559 3463 722 
L 3463 178 
Q 3153 47 2828 -22 
Q 2503 -91 2169 -91 
Q 1331 -91 842 396 
Q 353 884 353 1716 
Q 353 2575 817 3079 
Q 1281 3584 2069 3584 
Q 2775 3584 3186 3129 
Q 3597 2675 3597 1894 
z
M 3022 2063 
Q 3016 2534 2758 2815 
Q 2500 3097 2075 3097 
Q 1594 3097 1305 2825 
Q 1016 2553 972 2059 
L 3022 2063 
z
" transform="scale(0.015625)"/>
       <path id="DejaVuSans-72" d="M 2631 2963 
Q 2534 3019 2420 3045 
Q 2306 3072 2169 3072 
Q 1681 3072 1420 2755 
Q 1159 2438 1159 1844 
L 1159 0 
L 581 0 
L 581 3500 
L 1159 3500 
L 1159 2956 
Q 1341 3275 1631 3429 
Q 1922 3584 2338 3584 
Q 2397 3584 2469 3576 
Q 2541 3569 2628 3553 
L 2631 2963 
z
" transform="scale(0.015625)"/>
       <path id="DejaVuSans-20" transform="scale(0.015625)"/>
       <path id="DejaVuSans-6f" d="M 1959 3097 
Q 1497 3097 1228 2736 
Q 959 2375 959 1747 
Q 959 1119 1226 758 
Q 1494 397 1959 397 
Q 2419 397 2687 759 
Q 2956 1122 2956 1747 
Q 2956 2369 2687 2733 
Q 2419 3097 1959 3097 
z
M 1959 3584 
Q 2709 3584 3137 3096 
Q 3566 2609 3566 1747 
Q 3566 888 3137 398 
Q 2709 -91 1959 -91 
Q 1206 -91 779 398 
Q 353 888 353 1747 
Q 353 2609 779 3096 
Q 1206 3584 1959 3584 
z
" transform="scale(0.015625)"/>
       <path id="DejaVuSans-66" d="M 2375 4863 
L 2375 4384 
L 1825 4384 
Q 1516 4384 1395 4259 
Q 1275 4134 1275 3809 
L 1275 3500 
L 2222 3500 
L 2222 3053 
L 1275 3053 
L 1275 0 
L 697 0 
L 697 3053 
L 147 3053 
L 147 3500 
L 697 3500 
L 697 3744 
Q 697 4328 969 4595 
Q 1241 4863 1831 4863 
L 2375 4863 
z
" transform="scale(0.015625)"/>
       <path id="DejaVuSans-47" d="M 3809 666 
L 3809 1919 
L 2778 1919 
L 2778 2438 
L 4434 2438 
L 4434 434 
Q 4069 175 3628 42 
Q 3188 -91 2688 -91 
Q 1594 -91 976 548 
Q 359 1188 359 2328 
Q 359 3472 976 4111 
Q 1594 4750 2688 4750 
Q 3144 4750 3555 4637 
Q 3966 4525 4313 4306 
L 4313 3634 
Q 3963 3931 3569 4081 
Q 3175 4231 2741 4231 
Q 1884 4231 1454 3753 
Q 1025 3275 1025 2328 
Q 1025 1384 1454 906 
Q 1884 428 2741 428 
Q 3075 428 3337 486 
Q 3600 544 3809 666 
z
" transform="scale(0.015625)"/>
       <path id="DejaVuSans-61" d="M 2194 1759 
Q 1497 1759 1228 1600 
Q 959 1441 959 1056 
Q 959 750 1161 570 
Q 1363 391 1709 391 
Q 2188 391 2477 730 
Q 2766 1069 2766 1631 
L 2766 1759 
L 2194 1759 
z
M 3341 1997 
L 3341 0 
L 2766 0 
L 2766 531 
Q 2569 213 2275 61 
Q 1981 -91 1556 -91 
Q 1019 -91 701 211 
Q 384 513 384 1019 
Q 384 1609 779 1909 
Q 1175 2209 1959 2209 
L 2766 2209 
L 2766 2266 
Q 2766 2663 2505 2880 
Q 2244 3097 1772 3097 
Q 1472 3097 1187 3025 
Q 903 2953 641 2809 
L 641 3341 
Q 956 3463 1253 3523 
Q 1550 3584 1831 3584 
Q 2591 3584 2966 3190 
Q 3341 2797 3341 1997 
z
" transform="scale(0.015625)"/>
       <path id="DejaVuSans-73" d="M 2834 3397 
L 2834 2853 
Q 2591 2978 2328 3040 
Q 2066 3103 1784 3103 
Q 1356 3103 1142 2972 
Q 928 2841 928 2578 
Q 928 2378 1081 2264 
Q 1234 2150 1697 2047 
L 1894 2003 
Q 2506 1872 2764 1633 
Q 3022 1394 3022 966 
Q 3022 478 2636 193 
Q 2250 -91 1575 -91 
Q 1294 -91 989 -36 
Q 684 19 347 128 
L 347 722 
Q 666 556 975 473 
Q 1284 391 1588 391 
Q 1994 391 2212 530 
Q 2431 669 2431 922 
Q 2431 1156 2273 1281 
Q 2116 1406 1581 1522 
L 1381 1569 
Q 847 1681 609 1914 
Q 372 2147 372 2553 
Q 372 3047 722 3315 
Q 1072 3584 1716 3584 
Q 2034 3584 2315 3537 
Q 2597 3491 2834 3397 
z
" transform="scale(0.015625)"/>
      </defs>
      <use xlink:href="#DejaVuSans-4e"/>
      <use xlink:href="#DejaVuSans-75" x="74.804688"/>
      <use xlink:href="#DejaVuSans-6d" x="138.183594"/>
      <use xlink:href="#DejaVuSans-62" x="235.595703"/>
      <use xlink:href="#DejaVuSans-65" x="299.072266"/>
      <use xlink:href="#DejaVuSans-72" x="360.595703"/>
      <use xlink:href="#DejaVuSans-20" x="401.708984"/>
      <use xlink:href="#DejaVuSans-6f" x="433.496094"/>
      <use xlink:href="#DejaVuSans-66" x="494.677734"/>
      <use xlink:href="#DejaVuSans-20" x="529.882812"/>
      <use xlink:href="#DejaVuSans-47" x="561.669922"/>
      <use xlink:href="#DejaVuSans-61" x="639.160156"/>
      <use xlink:href="#DejaVuSans-6d" x="700.439453"/>
      <use xlink:href="#DejaVuSans-65" x="797.851562"/>
      <use xlink:href="#DejaVuSans-73" x="859.375"/>
     </g>
    </g>
   </g>
   <g id="matplotlib.axis_2">
    <g id="ytick_1">
     <g id="line2d_19">
      <path d="M 57.6 307.584 
L 414.72 307.584 
" clip-path="url(#pd6a56d809e)" style="fill: none; stroke: #ffffff; stroke-width: 0.8; stroke-linecap: square"/>
     </g>
     <g id="line2d_20">
      <defs>
       <path id="mbe40f516c0" d="M 0 0 
L -3.5 0 
" style="stroke: #555555; stroke-width: 0.8"/>
      </defs>
      <g>
       <use xlink:href="#mbe40f516c0" x="57.6" y="307.584" style="fill: #555555; stroke: #555555; stroke-width: 0.8"/>
      </g>
     </g>
     <g id="text_11">
      <!-- 0 -->
      <g style="fill: #555555" transform="translate(44.2375 311.383219) scale(0.1 -0.1)">
       <use xlink:href="#DejaVuSans-30"/>
      </g>
     </g>
    </g>
    <g id="ytick_2">
     <g id="line2d_21">
      <path d="M 57.6 266.987184 
L 414.72 266.987184 
" clip-path="url(#pd6a56d809e)" style="fill: none; stroke: #ffffff; stroke-width: 0.8; stroke-linecap: square"/>
     </g>
     <g id="line2d_22">
      <g>
       <use xlink:href="#mbe40f516c0" x="57.6" y="266.987184" style="fill: #555555; stroke: #555555; stroke-width: 0.8"/>
      </g>
     </g>
     <g id="text_12">
      <!-- 20 -->
      <g style="fill: #555555" transform="translate(37.875 270.786402) scale(0.1 -0.1)">
       <use xlink:href="#DejaVuSans-32"/>
       <use xlink:href="#DejaVuSans-30" x="63.623047"/>
      </g>
     </g>
    </g>
    <g id="ytick_3">
     <g id="line2d_23">
      <path d="M 57.6 226.390367 
L 414.72 226.390367 
" clip-path="url(#pd6a56d809e)" style="fill: none; stroke: #ffffff; stroke-width: 0.8; stroke-linecap: square"/>
     </g>
     <g id="line2d_24">
      <g>
       <use xlink:href="#mbe40f516c0" x="57.6" y="226.390367" style="fill: #555555; stroke: #555555; stroke-width: 0.8"/>
      </g>
     </g>
     <g id="text_13">
      <!-- 40 -->
      <g style="fill: #555555" transform="translate(37.875 230.189586) scale(0.1 -0.1)">
       <defs>
        <path id="DejaVuSans-34" d="M 2419 4116 
L 825 1625 
L 2419 1625 
L 2419 4116 
z
M 2253 4666 
L 3047 4666 
L 3047 1625 
L 3713 1625 
L 3713 1100 
L 3047 1100 
L 3047 0 
L 2419 0 
L 2419 1100 
L 313 1100 
L 313 1709 
L 2253 4666 
z
" transform="scale(0.015625)"/>
       </defs>
       <use xlink:href="#DejaVuSans-34"/>
       <use xlink:href="#DejaVuSans-30" x="63.623047"/>
      </g>
     </g>
    </g>
    <g id="ytick_4">
     <g id="line2d_25">
      <path d="M 57.6 185.793551 
L 414.72 185.793551 
" clip-path="url(#pd6a56d809e)" style="fill: none; stroke: #ffffff; stroke-width: 0.8; stroke-linecap: square"/>
     </g>
     <g id="line2d_26">
      <g>
       <use xlink:href="#mbe40f516c0" x="57.6" y="185.793551" style="fill: #555555; stroke: #555555; stroke-width: 0.8"/>
      </g>
     </g>
     <g id="text_14">
      <!-- 60 -->
      <g style="fill: #555555" transform="translate(37.875 189.59277) scale(0.1 -0.1)">
       <defs>
        <path id="DejaVuSans-36" d="M 2113 2584 
Q 1688 2584 1439 2293 
Q 1191 2003 1191 1497 
Q 1191 994 1439 701 
Q 1688 409 2113 409 
Q 2538 409 2786 701 
Q 3034 994 3034 1497 
Q 3034 2003 2786 2293 
Q 2538 2584 2113 2584 
z
M 3366 4563 
L 3366 3988 
Q 3128 4100 2886 4159 
Q 2644 4219 2406 4219 
Q 1781 4219 1451 3797 
Q 1122 3375 1075 2522 
Q 1259 2794 1537 2939 
Q 1816 3084 2150 3084 
Q 2853 3084 3261 2657 
Q 3669 2231 3669 1497 
Q 3669 778 3244 343 
Q 2819 -91 2113 -91 
Q 1303 -91 875 529 
Q 447 1150 447 2328 
Q 447 3434 972 4092 
Q 1497 4750 2381 4750 
Q 2619 4750 2861 4703 
Q 3103 4656 3366 4563 
z
" transform="scale(0.015625)"/>
       </defs>
       <use xlink:href="#DejaVuSans-36"/>
       <use xlink:href="#DejaVuSans-30" x="63.623047"/>
      </g>
     </g>
    </g>
    <g id="ytick_5">
     <g id="line2d_27">
      <path d="M 57.6 145.196734 
L 414.72 145.196734 
" clip-path="url(#pd6a56d809e)" style="fill: none; stroke: #ffffff; stroke-width: 0.8; stroke-linecap: square"/>
     </g>
     <g id="line2d_28">
      <g>
       <use xlink:href="#mbe40f516c0" x="57.6" y="145.196734" style="fill: #555555; stroke: #555555; stroke-width: 0.8"/>
      </g>
     </g>
     <g id="text_15">
      <!-- 80 -->
      <g style="fill: #555555" transform="translate(37.875 148.995953) scale(0.1 -0.1)">
       <defs>
        <path id="DejaVuSans-38" d="M 2034 2216 
Q 1584 2216 1326 1975 
Q 1069 1734 1069 1313 
Q 1069 891 1326 650 
Q 1584 409 2034 409 
Q 2484 409 2743 651 
Q 3003 894 3003 1313 
Q 3003 1734 2745 1975 
Q 2488 2216 2034 2216 
z
M 1403 2484 
Q 997 2584 770 2862 
Q 544 3141 544 3541 
Q 544 4100 942 4425 
Q 1341 4750 2034 4750 
Q 2731 4750 3128 4425 
Q 3525 4100 3525 3541 
Q 3525 3141 3298 2862 
Q 3072 2584 2669 2484 
Q 3125 2378 3379 2068 
Q 3634 1759 3634 1313 
Q 3634 634 3220 271 
Q 2806 -91 2034 -91 
Q 1263 -91 848 271 
Q 434 634 434 1313 
Q 434 1759 690 2068 
Q 947 2378 1403 2484 
z
M 1172 3481 
Q 1172 3119 1398 2916 
Q 1625 2713 2034 2713 
Q 2441 2713 2670 2916 
Q 2900 3119 2900 3481 
Q 2900 3844 2670 4047 
Q 2441 4250 2034 4250 
Q 1625 4250 1398 4047 
Q 1172 3844 1172 3481 
z
" transform="scale(0.015625)"/>
       </defs>
       <use xlink:href="#DejaVuSans-38"/>
       <use xlink:href="#DejaVuSans-30" x="63.623047"/>
      </g>
     </g>
    </g>
    <g id="ytick_6">
     <g id="line2d_29">
      <path d="M 57.6 104.599918 
L 414.72 104.599918 
" clip-path="url(#pd6a56d809e)" style="fill: none; stroke: #ffffff; stroke-width: 0.8; stroke-linecap: square"/>
     </g>
     <g id="line2d_30">
      <g>
       <use xlink:href="#mbe40f516c0" x="57.6" y="104.599918" style="fill: #555555; stroke: #555555; stroke-width: 0.8"/>
      </g>
     </g>
     <g id="text_16">
      <!-- 100 -->
      <g style="fill: #555555" transform="translate(31.5125 108.399137) scale(0.1 -0.1)">
       <use xlink:href="#DejaVuSans-31"/>
       <use xlink:href="#DejaVuSans-30" x="63.623047"/>
       <use xlink:href="#DejaVuSans-30" x="127.246094"/>
      </g>
     </g>
    </g>
    <g id="ytick_7">
     <g id="line2d_31">
      <path d="M 57.6 64.003102 
L 414.72 64.003102 
" clip-path="url(#pd6a56d809e)" style="fill: none; stroke: #ffffff; stroke-width: 0.8; stroke-linecap: square"/>
     </g>
     <g id="line2d_32">
      <g>
       <use xlink:href="#mbe40f516c0" x="57.6" y="64.003102" style="fill: #555555; stroke: #555555; stroke-width: 0.8"/>
      </g>
     </g>
     <g id="text_17">
      <!-- 120 -->
      <g style="fill: #555555" transform="translate(31.5125 67.80232) scale(0.1 -0.1)">
       <use xlink:href="#DejaVuSans-31"/>
       <use xlink:href="#DejaVuSans-32" x="63.623047"/>
       <use xlink:href="#DejaVuSans-30" x="127.246094"/>
      </g>
     </g>
    </g>
    <g id="text_18">
     <!-- Median reward -->
     <g style="fill: #555555" transform="translate(25.016875 219.03675) rotate(-90) scale(0.12 -0.12)">
      <defs>
       <path id="DejaVuSans-4d" d="M 628 4666 
L 1569 4666 
L 2759 1491 
L 3956 4666 
L 4897 4666 
L 4897 0 
L 4281 0 
L 4281 4097 
L 3078 897 
L 2444 897 
L 1241 4097 
L 1241 0 
L 628 0 
L 628 4666 
z
" transform="scale(0.015625)"/>
       <path id="DejaVuSans-64" d="M 2906 2969 
L 2906 4863 
L 3481 4863 
L 3481 0 
L 2906 0 
L 2906 525 
Q 2725 213 2448 61 
Q 2172 -91 1784 -91 
Q 1150 -91 751 415 
Q 353 922 353 1747 
Q 353 2572 751 3078 
Q 1150 3584 1784 3584 
Q 2172 3584 2448 3432 
Q 2725 3281 2906 2969 
z
M 947 1747 
Q 947 1113 1208 752 
Q 1469 391 1925 391 
Q 2381 391 2643 752 
Q 2906 1113 2906 1747 
Q 2906 2381 2643 2742 
Q 2381 3103 1925 3103 
Q 1469 3103 1208 2742 
Q 947 2381 947 1747 
z
" transform="scale(0.015625)"/>
       <path id="DejaVuSans-69" d="M 603 3500 
L 1178 3500 
L 1178 0 
L 603 0 
L 603 3500 
z
M 603 4863 
L 1178 4863 
L 1178 4134 
L 603 4134 
L 603 4863 
z
" transform="scale(0.015625)"/>
       <path id="DejaVuSans-6e" d="M 3513 2113 
L 3513 0 
L 2938 0 
L 2938 2094 
Q 2938 2591 2744 2837 
Q 2550 3084 2163 3084 
Q 1697 3084 1428 2787 
Q 1159 2491 1159 1978 
L 1159 0 
L 581 0 
L 581 3500 
L 1159 3500 
L 1159 2956 
Q 1366 3272 1645 3428 
Q 1925 3584 2291 3584 
Q 2894 3584 3203 3211 
Q 3513 2838 3513 2113 
z
" transform="scale(0.015625)"/>
       <path id="DejaVuSans-77" d="M 269 3500 
L 844 3500 
L 1563 769 
L 2278 3500 
L 2956 3500 
L 3675 769 
L 4391 3500 
L 4966 3500 
L 4050 0 
L 3372 0 
L 2619 2869 
L 1863 0 
L 1184 0 
L 269 3500 
z
" transform="scale(0.015625)"/>
      </defs>
      <use xlink:href="#DejaVuSans-4d"/>
      <use xlink:href="#DejaVuSans-65" x="86.279297"/>
      <use xlink:href="#DejaVuSans-64" x="147.802734"/>
      <use xlink:href="#DejaVuSans-69" x="211.279297"/>
      <use xlink:href="#DejaVuSans-61" x="239.0625"/>
      <use xlink:href="#DejaVuSans-6e" x="300.341797"/>
      <use xlink:href="#DejaVuSans-20" x="363.720703"/>
      <use xlink:href="#DejaVuSans-72" x="395.507812"/>
      <use xlink:href="#DejaVuSans-65" x="434.371094"/>
      <use xlink:href="#DejaVuSans-77" x="495.894531"/>
      <use xlink:href="#DejaVuSans-61" x="577.681641"/>
      <use xlink:href="#DejaVuSans-72" x="638.960938"/>
      <use xlink:href="#DejaVuSans-64" x="678.324219"/>
     </g>
    </g>
   </g>
   <g id="line2d_33">
    <path d="M 73.832727 273.076706 
L 73.995217 272.061786 
L 74.157707 272.400092 
L 74.482686 273.482674 
L 74.645176 273.415013 
L 74.807666 272.786729 
L 74.970156 273.330436 
L 75.132645 272.851168 
L 75.295135 274.294611 
L 75.457625 274.368423 
L 75.945094 272.786729 
L 76.270074 271.554325 
L 76.595053 272.287324 
L 76.757543 272.435704 
L 76.920033 272.873722 
L 77.245012 273.168972 
L 77.407502 273.341468 
L 77.732482 273.320287 
L 78.057461 273.828499 
L 78.219951 273.584166 
L 78.54493 273.550336 
L 79.194889 274.091626 
L 79.519869 273.922473 
L 79.682359 274.173917 
L 80.007338 274.273792 
L 80.169828 274.04088 
L 80.494808 274.478263 
L 80.982277 274.610364 
L 81.144767 274.797658 
L 81.469746 274.472222 
L 81.794726 274.659982 
L 82.119705 274.364874 
L 82.282195 274.378868 
L 82.607174 274.58986 
L 82.769664 274.454098 
L 82.932154 274.465545 
L 83.094644 274.336607 
L 83.419623 274.429933 
L 83.582113 274.208093 
L 83.907093 274.301055 
L 84.069582 274.218492 
L 85.207011 274.477582 
L 85.3695 274.711856 
L 85.69448 274.612802 
L 86.019459 274.759337 
L 86.344439 274.794264 
L 86.506929 274.926688 
L 86.669419 274.802071 
L 87.156888 275.033179 
L 87.481867 274.724459 
L 88.294316 274.813348 
L 88.456806 274.928099 
L 88.944275 274.739448 
L 91.056642 275.258311 
L 91.544111 275.180359 
L 93.493989 275.056633 
L 94.956396 275.369961 
L 95.281376 275.228643 
L 95.443866 275.242879 
L 95.768845 275.03192 
L 95.931335 274.988016 
L 96.256314 275.150356 
L 96.581294 274.991379 
L 97.068763 274.909201 
L 97.393743 274.925808 
L 100.156069 274.782769 
L 101.455987 275.023454 
L 102.268436 274.933549 
L 103.243374 275.084241 
L 103.568354 275.040356 
L 104.055823 275.193385 
L 104.543292 275.159964 
L 105.193251 275.200715 
L 106.33068 275.288324 
L 106.655659 275.31653 
L 107.305618 275.243831 
L 107.630598 275.252229 
L 107.955577 275.241228 
L 108.605536 275.342575 
L 109.580475 275.180025 
L 110.230434 275.115568 
L 111.205373 275.168057 
L 114.617658 275.235426 
L 115.592596 275.334707 
L 116.080066 275.324308 
L 117.217494 275.197435 
L 119.97982 275.270359 
L 120.304799 275.099474 
L 120.792269 275.085549 
L 121.767207 274.941965 
L 123.229615 274.966787 
L 123.879574 275.021149 
L 125.017002 274.945958 
L 125.666962 274.986025 
L 132.329042 274.904125 
L 133.141491 274.76824 
L 134.116429 274.697305 
L 134.928878 274.600433 
L 135.578837 274.504521 
L 136.228796 274.410601 
L 144.515774 274.198705 
L 144.840753 274.096261 
L 147.603079 273.942177 
L 147.928059 273.845114 
L 151.502834 273.517423 
L 151.827813 273.49449 
L 156.540016 273.25979 
L 157.352465 273.06094 
L 159.952301 272.912331 
L 161.08973 272.891832 
L 162.877117 272.792011 
L 167.101851 272.508351 
L 168.401769 272.390808 
L 169.214218 272.317242 
L 170.026667 272.179879 
L 172.139034 272.051737 
L 172.951482 271.980393 
L 180.588501 271.191854 
L 181.23846 271.117388 
L 182.213399 271.019517 
L 182.700868 270.940987 
L 185.138215 270.588228 
L 185.463194 270.486299 
L 188.38801 270.192952 
L 188.712989 270.060615 
L 189.200459 269.953435 
L 189.525438 269.794229 
L 191.150336 269.688023 
L 193.262703 269.530001 
L 195.862539 269.292349 
L 196.512498 269.202288 
L 197.487437 269.059646 
L 200.087273 268.870918 
L 200.412252 268.722958 
L 200.899722 268.682606 
L 210.649107 267.687876 
L 211.136577 267.589418 
L 212.923964 267.356676 
L 213.573923 267.303094 
L 216.336249 267.112026 
L 216.661229 266.927211 
L 217.311188 266.851708 
L 217.636167 266.760373 
L 218.936085 266.585302 
L 219.748534 266.366265 
L 221.048452 266.127802 
L 222.998329 265.765745 
L 223.648288 265.735852 
L 224.298247 265.478489 
L 224.785717 265.376407 
L 226.248124 265.314024 
L 237.134939 263.750738 
L 237.784898 263.685175 
L 238.434857 263.540057 
L 238.922326 263.432467 
L 239.572285 263.362894 
L 239.897265 263.262832 
L 241.034693 263.162018 
L 241.359672 262.799653 
L 241.847142 262.639206 
L 242.497101 262.552401 
L 243.959509 262.129511 
L 244.609468 261.993621 
L 246.234365 261.752029 
L 247.534283 261.593878 
L 248.834201 261.332627 
L 249.484161 261.10965 
L 250.784079 260.970288 
L 251.271548 260.659949 
L 252.896446 260.430227 
L 253.221425 260.364943 
L 254.033874 260.261279 
L 254.196364 260.212521 
L 254.358853 259.917423 
L 255.008812 259.857277 
L 257.446159 259.526487 
L 257.771138 259.301379 
L 259.721016 258.931641 
L 259.883505 258.694239 
L 260.533464 258.490093 
L 260.858444 258.295166 
L 261.345913 258.214053 
L 261.833382 257.826607 
L 262.158362 257.73041 
L 262.808321 257.563421 
L 263.45828 257.416693 
L 263.945749 257.304271 
L 264.595708 257.171392 
L 265.083178 257.103341 
L 265.408157 257.001399 
L 266.058116 256.899698 
L 266.708075 256.638071 
L 268.495463 256.274229 
L 268.820442 256.160239 
L 269.145422 256.168115 
L 269.470401 255.872752 
L 271.257789 255.394055 
L 271.745258 255.291038 
L 273.045176 255.064557 
L 273.207666 254.988312 
L 273.532645 254.682718 
L 274.507584 254.207069 
L 275.157543 254.187728 
L 275.482523 254.007316 
L 278.732318 253.498875 
L 279.544767 253.231688 
L 279.869746 253.002236 
L 280.032236 252.971692 
L 280.357215 252.339457 
L 281.332154 252.034976 
L 281.819623 251.684941 
L 282.144603 251.507868 
L 282.307093 251.489886 
L 282.632072 251.220403 
L 283.444521 251.04405 
L 284.419459 250.654555 
L 285.719378 250.426482 
L 285.881867 250.443826 
L 286.206847 250.354283 
L 286.531826 250.21543 
L 286.694316 250.003718 
L 287.344275 249.93189 
L 287.994234 249.812791 
L 289.781622 249.22684 
L 290.106601 249.117879 
L 290.431581 249.009246 
L 291.569009 248.857875 
L 293.843866 247.966601 
L 294.493825 247.828414 
L 294.656314 247.538025 
L 295.306274 247.483449 
L 295.631253 247.35152 
L 295.956233 247.270426 
L 296.118722 246.758463 
L 297.74362 246.429709 
L 298.393579 246.092886 
L 298.718559 245.869511 
L 298.881048 245.827631 
L 299.206028 245.57441 
L 299.368518 245.537217 
L 299.693497 245.373976 
L 300.180966 245.20207 
L 301.155905 244.248617 
L 301.643374 244.216218 
L 301.968354 243.780541 
L 302.780803 243.687202 
L 302.943292 243.525331 
L 303.593251 243.451072 
L 304.24321 243.285681 
L 304.4057 243.09367 
L 304.89317 242.962883 
L 306.193088 242.300007 
L 306.518067 241.790527 
L 307.005536 241.535015 
L 307.330516 241.509717 
L 307.655495 241.306878 
L 307.817985 241.24159 
L 307.980475 240.689343 
L 308.305455 240.57395 
L 309.280393 240.38227 
L 310.255332 239.711198 
L 310.580311 239.337912 
L 311.23027 239.023419 
L 311.55525 238.584664 
L 311.880229 238.418489 
L 313.342637 237.662521 
L 313.992596 236.856605 
L 314.155086 236.852277 
L 314.805045 236.093663 
L 315.455004 235.955719 
L 315.779984 235.833895 
L 316.104963 235.679746 
L 316.267453 235.484544 
L 316.592432 235.401774 
L 317.079902 235.07478 
L 318.37982 234.794124 
L 318.54231 234.401975 
L 318.867289 234.311993 
L 319.354758 233.838487 
L 319.842228 233.636162 
L 320.329697 232.708548 
L 320.492187 232.69637 
L 321.467125 232.052625 
L 321.792105 231.964121 
L 322.117084 231.794868 
L 322.767043 231.427233 
L 323.092023 231.215702 
L 324.229451 230.331576 
L 324.554431 230.059594 
L 324.87941 229.768621 
L 325.36688 229.625795 
L 325.529369 229.526799 
L 325.691859 229.260413 
L 325.854349 229.235022 
L 326.179328 228.580871 
L 326.504308 228.42934 
L 326.829287 227.922519 
L 327.316757 227.744028 
L 327.641736 227.394249 
L 327.966716 227.312551 
L 328.129206 227.293815 
L 328.291695 226.829497 
L 328.454185 226.739893 
L 328.616675 225.915573 
L 328.779165 225.914583 
L 328.941654 225.669393 
L 329.591613 225.454707 
L 329.916593 225.201038 
L 330.404062 225.068401 
L 330.729042 224.768548 
L 331.216511 224.575677 
L 331.541491 224.277389 
L 331.86647 224.06033 
L 332.353939 223.79569 
L 332.516429 223.601088 
L 332.841409 223.571497 
L 333.003898 223.456255 
L 333.328878 222.662218 
L 333.978837 221.727562 
L 334.141327 221.716542 
L 334.466306 221.323986 
L 334.791286 221.245662 
L 335.441245 221.191656 
L 336.091204 220.995892 
L 336.416183 219.611678 
L 336.578673 219.550632 
L 337.228632 217.949383 
L 337.391122 217.855781 
L 337.553612 217.262333 
L 338.52855 217.167667 
L 338.69104 217.183278 
L 338.85353 216.936433 
L 339.178509 216.892104 
L 339.990958 215.790363 
L 340.965897 215.087424 
L 342.428305 214.316864 
L 343.240753 212.311176 
L 344.215692 211.298836 
L 344.540672 211.259712 
L 344.703161 210.900053 
L 344.865651 210.887443 
L 345.028141 210.631753 
L 345.190631 210.588949 
L 345.6781 210.167404 
L 346.165569 209.960397 
L 346.490549 209.229206 
L 347.790467 209.066332 
L 348.277936 208.546985 
L 348.602916 207.701916 
L 348.765405 207.26814 
L 348.927895 206.328015 
L 349.090385 206.324283 
L 349.252875 206.05366 
L 349.577854 206.066855 
L 349.902834 205.991661 
L 351.040262 206.115742 
L 351.202752 205.632036 
L 351.365242 205.508781 
L 351.852711 203.591413 
L 352.015201 203.463712 
L 352.17769 203.173915 
L 352.34018 203.118804 
L 352.50267 202.873313 
L 352.990139 201.332047 
L 353.315119 200.805645 
L 354.290057 200.735859 
L 354.452547 200.37011 
L 354.940016 200.317877 
L 355.102506 199.96259 
L 355.264996 199.913419 
L 355.427486 199.214615 
L 355.752465 198.778218 
L 356.077445 198.097563 
L 356.239934 197.757823 
L 356.564914 197.711433 
L 356.727404 197.216358 
L 356.889894 197.223779 
L 357.052383 196.87853 
L 357.214873 196.889626 
L 357.377363 196.42057 
L 358.027322 196.352203 
L 358.677281 194.021697 
L 359.652219 193.43544 
L 359.814709 193.229385 
L 360.789648 193.137508 
L 361.277117 192.622761 
L 361.439607 192.637243 
L 361.602097 191.690628 
L 361.764586 191.699895 
L 361.927076 191.516924 
L 362.089566 190.963641 
L 362.252056 190.899012 
L 362.739525 189.858937 
L 362.902015 189.499721 
L 363.064505 189.432676 
L 363.389484 189.126907 
L 363.551974 189.140968 
L 363.876953 188.441663 
L 364.201933 188.356963 
L 364.689402 188.207599 
L 365.176871 187.680828 
L 365.339361 187.720486 
L 365.664341 186.700597 
L 365.82683 186.523977 
L 365.98932 186.532598 
L 366.3143 184.260745 
L 366.801769 182.835429 
L 366.964259 181.979025 
L 367.126749 181.730497 
L 367.451728 181.049022 
L 368.101687 179.891105 
L 368.751646 179.818039 
L 369.401605 179.91705 
L 369.564095 179.784286 
L 369.726585 179.33527 
L 370.051564 179.243308 
L 370.214054 178.511705 
L 370.376544 176.982752 
L 370.701523 176.050759 
L 371.188993 172.424982 
L 371.351482 172.242812 
L 371.513972 171.516007 
L 371.676462 171.366629 
L 372.001441 170.804127 
L 372.488911 170.578023 
L 372.81389 169.901033 
L 372.97638 169.507439 
L 373.626339 166.138402 
L 373.788829 165.496242 
L 373.951319 165.514914 
L 374.276298 164.708442 
L 374.438788 164.3415 
L 374.763767 161.951411 
L 375.413726 161.215753 
L 375.738706 161.131913 
L 376.063686 159.843001 
L 377.201114 154.621151 
L 377.526093 154.270231 
L 377.851073 153.293327 
L 378.013563 153.254325 
L 378.176052 152.275182 
L 378.338542 152.25192 
L 378.663522 151.834541 
L 378.826011 151.890453 
L 378.988501 151.651391 
L 379.150991 150.900803 
L 379.313481 149.310373 
L 379.475971 149.198174 
L 379.63846 148.105131 
L 379.80095 147.784674 
L 380.288419 143.208846 
L 380.613399 142.472729 
L 381.425848 142.509928 
L 382.238296 142.673062 
L 382.400786 142.709645 
L 382.563276 141.984866 
L 383.050745 137.149866 
L 383.375725 135.559783 
L 383.538215 133.418974 
L 383.863194 132.511558 
L 384.025684 132.453373 
L 384.188174 132.262474 
L 384.513153 129.886451 
L 384.675643 129.845666 
L 384.838133 128.344286 
L 385.000622 125.03605 
L 385.650581 121.500457 
L 385.975561 121.475478 
L 386.138051 121.29148 
L 386.78801 121.425371 
L 386.9505 121.448229 
L 387.275479 120.936456 
L 387.437969 120.944814 
L 387.600459 120.24293 
L 387.762948 117.873166 
L 387.925438 117.324732 
L 388.412907 113.138453 
L 389.062867 110.449959 
L 389.387846 109.924724 
L 389.550336 109.790422 
L 390.037805 109.81787 
L 390.362785 108.634604 
L 390.850254 103.975992 
L 391.012744 94.716786 
L 391.175233 93.882483 
L 391.500213 91.180761 
L 391.662703 90.434596 
L 391.987682 85.976983 
L 392.150172 84.407144 
L 392.475152 84.352204 
L 393.2876 84.424312 
L 393.61258 84.157184 
L 394.262539 77.711986 
L 394.425029 69.793392 
L 394.587518 68.117255 
L 394.750008 67.777209 
L 394.912498 65.043177 
L 395.074988 64.738893 
L 395.237477 64.049258 
L 395.562457 64.069704 
L 396.049926 64.155544 
L 396.212416 63.783245 
L 396.537396 62.148969 
L 396.862375 60.724128 
L 397.674824 55.759546 
L 398.162293 54.964872 
L 398.324783 54.274495 
L 398.487273 52.609998 
L 398.487273 52.609998 
" clip-path="url(#pd6a56d809e)" style="fill: none; stroke: #d62728; stroke-width: 1.5; stroke-linecap: square"/>
   </g>
   <g id="patch_3">
    <path d="M 57.6 307.584 
L 57.6 41.472 
" style="fill: none; stroke: #ffffff; stroke-linejoin: miter; stroke-linecap: square"/>
   </g>
   <g id="patch_4">
    <path d="M 414.72 307.584 
L 414.72 41.472 
" style="fill: none; stroke: #ffffff; stroke-linejoin: miter; stroke-linecap: square"/>
   </g>
   <g id="patch_5">
    <path d="M 57.6 307.584 
L 414.72 307.584 
" style="fill: none; stroke: #ffffff; stroke-linejoin: miter; stroke-linecap: square"/>
   </g>
   <g id="patch_6">
    <path d="M 57.6 41.472 
L 414.72 41.472 
" style="fill: none; stroke: #ffffff; stroke-linejoin: miter; stroke-linecap: square"/>
   </g>
   <g id="text_19">
    <!-- 125.6128064032016 -->
    <g transform="translate(398.487273 52.609998) scale(0.1 -0.1)">
     <defs>
      <path id="DejaVuSans-2e" d="M 684 794 
L 1344 794 
L 1344 0 
L 684 0 
L 684 794 
z
" transform="scale(0.015625)"/>
      <path id="DejaVuSans-33" d="M 2597 2516 
Q 3050 2419 3304 2112 
Q 3559 1806 3559 1356 
Q 3559 666 3084 287 
Q 2609 -91 1734 -91 
Q 1441 -91 1130 -33 
Q 819 25 488 141 
L 488 750 
Q 750 597 1062 519 
Q 1375 441 1716 441 
Q 2309 441 2620 675 
Q 2931 909 2931 1356 
Q 2931 1769 2642 2001 
Q 2353 2234 1838 2234 
L 1294 2234 
L 1294 2753 
L 1863 2753 
Q 2328 2753 2575 2939 
Q 2822 3125 2822 3475 
Q 2822 3834 2567 4026 
Q 2313 4219 1838 4219 
Q 1578 4219 1281 4162 
Q 984 4106 628 3988 
L 628 4550 
Q 988 4650 1302 4700 
Q 1616 4750 1894 4750 
Q 2613 4750 3031 4423 
Q 3450 4097 3450 3541 
Q 3450 3153 3228 2886 
Q 3006 2619 2597 2516 
z
" transform="scale(0.015625)"/>
     </defs>
     <use xlink:href="#DejaVuSans-31"/>
     <use xlink:href="#DejaVuSans-32" x="63.623047"/>
     <use xlink:href="#DejaVuSans-35" x="127.246094"/>
     <use xlink:href="#DejaVuSans-2e" x="190.869141"/>
     <use xlink:href="#DejaVuSans-36" x="222.65625"/>
     <use xlink:href="#DejaVuSans-31" x="286.279297"/>
     <use xlink:href="#DejaVuSans-32" x="349.902344"/>
     <use xlink:href="#DejaVuSans-38" x="413.525391"/>
     <use xlink:href="#DejaVuSans-30" x="477.148438"/>
     <use xlink:href="#DejaVuSans-36" x="540.771484"/>
     <use xlink:href="#DejaVuSans-34" x="604.394531"/>
     <use xlink:href="#DejaVuSans-30" x="668.017578"/>
     <use xlink:href="#DejaVuSans-33" x="731.640625"/>
     <use xlink:href="#DejaVuSans-32" x="795.263672"/>
     <use xlink:href="#DejaVuSans-30" x="858.886719"/>
     <use xlink:href="#DejaVuSans-31" x="922.509766"/>
     <use xlink:href="#DejaVuSans-36" x="986.132812"/>
    </g>
   </g>
   <g id="text_20">
    <!-- Epoch: 2000 -->
    <g transform="translate(191.0745 35.472) scale(0.144 -0.144)">
     <defs>
      <path id="DejaVuSans-45" d="M 628 4666 
L 3578 4666 
L 3578 4134 
L 1259 4134 
L 1259 2753 
L 3481 2753 
L 3481 2222 
L 1259 2222 
L 1259 531 
L 3634 531 
L 3634 0 
L 628 0 
L 628 4666 
z
" transform="scale(0.015625)"/>
      <path id="DejaVuSans-70" d="M 1159 525 
L 1159 -1331 
L 581 -1331 
L 581 3500 
L 1159 3500 
L 1159 2969 
Q 1341 3281 1617 3432 
Q 1894 3584 2278 3584 
Q 2916 3584 3314 3078 
Q 3713 2572 3713 1747 
Q 3713 922 3314 415 
Q 2916 -91 2278 -91 
Q 1894 -91 1617 61 
Q 1341 213 1159 525 
z
M 3116 1747 
Q 3116 2381 2855 2742 
Q 2594 3103 2138 3103 
Q 1681 3103 1420 2742 
Q 1159 2381 1159 1747 
Q 1159 1113 1420 752 
Q 1681 391 2138 391 
Q 2594 391 2855 752 
Q 3116 1113 3116 1747 
z
" transform="scale(0.015625)"/>
      <path id="DejaVuSans-63" d="M 3122 3366 
L 3122 2828 
Q 2878 2963 2633 3030 
Q 2388 3097 2138 3097 
Q 1578 3097 1268 2742 
Q 959 2388 959 1747 
Q 959 1106 1268 751 
Q 1578 397 2138 397 
Q 2388 397 2633 464 
Q 2878 531 3122 666 
L 3122 134 
Q 2881 22 2623 -34 
Q 2366 -91 2075 -91 
Q 1284 -91 818 406 
Q 353 903 353 1747 
Q 353 2603 823 3093 
Q 1294 3584 2113 3584 
Q 2378 3584 2631 3529 
Q 2884 3475 3122 3366 
z
" transform="scale(0.015625)"/>
      <path id="DejaVuSans-68" d="M 3513 2113 
L 3513 0 
L 2938 0 
L 2938 2094 
Q 2938 2591 2744 2837 
Q 2550 3084 2163 3084 
Q 1697 3084 1428 2787 
Q 1159 2491 1159 1978 
L 1159 0 
L 581 0 
L 581 4863 
L 1159 4863 
L 1159 2956 
Q 1366 3272 1645 3428 
Q 1925 3584 2291 3584 
Q 2894 3584 3203 3211 
Q 3513 2838 3513 2113 
z
" transform="scale(0.015625)"/>
      <path id="DejaVuSans-3a" d="M 750 794 
L 1409 794 
L 1409 0 
L 750 0 
L 750 794 
z
M 750 3309 
L 1409 3309 
L 1409 2516 
L 750 2516 
L 750 3309 
z
" transform="scale(0.015625)"/>
     </defs>
     <use xlink:href="#DejaVuSans-45"/>
     <use xlink:href="#DejaVuSans-70" x="63.183594"/>
     <use xlink:href="#DejaVuSans-6f" x="126.660156"/>
     <use xlink:href="#DejaVuSans-63" x="187.841797"/>
     <use xlink:href="#DejaVuSans-68" x="242.822266"/>
     <use xlink:href="#DejaVuSans-3a" x="306.201172"/>
     <use xlink:href="#DejaVuSans-20" x="339.892578"/>
     <use xlink:href="#DejaVuSans-32" x="371.679688"/>
     <use xlink:href="#DejaVuSans-30" x="435.302734"/>
     <use xlink:href="#DejaVuSans-30" x="498.925781"/>
     <use xlink:href="#DejaVuSans-30" x="562.548828"/>
    </g>
   </g>
  </g>
 </g>
 <defs>
  <clipPath id="pd6a56d809e">
   <rect x="57.6" y="41.472" width="357.12" height="266.112"/>
  </clipPath>
 </defs>
</svg>
