<?xml version="1.0" encoding="utf-8" standalone="no"?>
<!DOCTYPE svg PUBLIC "-//W3C//DTD SVG 1.1//EN"
  "http://www.w3.org/Graphics/SVG/1.1/DTD/svg11.dtd">
<svg xmlns:xlink="http://www.w3.org/1999/xlink" width="460.8pt" height="345.6pt" viewBox="0 0 460.8 345.6" xmlns="http://www.w3.org/2000/svg" version="1.1">
 <metadata>
  <rdf:RDF xmlns:dc="http://purl.org/dc/elements/1.1/" xmlns:cc="http://creativecommons.org/ns#" xmlns:rdf="http://www.w3.org/1999/02/22-rdf-syntax-ns#">
   <cc:Work>
    <dc:type rdf:resource="http://purl.org/dc/dcmitype/StillImage"/>
    <dc:date>2024-09-10T05:46:34.585876</dc:date>
    <dc:format>image/svg+xml</dc:format>
    <dc:creator>
     <cc:Agent>
      <dc:title>Matplotlib v3.8.4, https://matplotlib.org/</dc:title>
     </cc:Agent>
    </dc:creator>
   </cc:Work>
  </rdf:RDF>
 </metadata>
 <defs>
  <style type="text/css">*{stroke-linejoin: round; stroke-linecap: butt}</style>
 </defs>
 <g id="figure_1">
  <g id="patch_1">
   <path d="M 0 345.6 
L 460.8 345.6 
L 460.8 0 
L 0 0 
z
" style="fill: #ffffff"/>
  </g>
  <g id="axes_1">
   <g id="patch_2">
    <path d="M 57.6 307.584 
L 414.72 307.584 
L 414.72 41.472 
L 57.6 41.472 
z
" style="fill: #e5e5e5"/>
   </g>
   <g id="matplotlib.axis_1">
    <g id="xtick_1">
     <g id="line2d_1">
      <path d="M 73.832727 307.584 
L 73.832727 41.472 
" clip-path="url(#p762c0cc821)" style="fill: none; stroke: #ffffff; stroke-width: 0.8; stroke-linecap: square"/>
     </g>
     <g id="line2d_2">
      <defs>
       <path id="m000ee05121" d="M 0 0 
L 0 3.5 
" style="stroke: #555555; stroke-width: 0.8"/>
      </defs>
      <g>
       <use xlink:href="#m000ee05121" x="73.832727" y="307.584" style="fill: #555555; stroke: #555555; stroke-width: 0.8"/>
      </g>
     </g>
     <g id="text_1">
      <!-- 0 -->
      <g style="fill: #555555" transform="translate(70.651477 322.182437) scale(0.1 -0.1)">
       <defs>
        <path id="DejaVuSans-30" d="M 2034 4250 
Q 1547 4250 1301 3770 
Q 1056 3291 1056 2328 
Q 1056 1369 1301 889 
Q 1547 409 2034 409 
Q 2525 409 2770 889 
Q 3016 1369 3016 2328 
Q 3016 3291 2770 3770 
Q 2525 4250 2034 4250 
z
M 2034 4750 
Q 2819 4750 3233 4129 
Q 3647 3509 3647 2328 
Q 3647 1150 3233 529 
Q 2819 -91 2034 -91 
Q 1250 -91 836 529 
Q 422 1150 422 2328 
Q 422 3509 836 4129 
Q 1250 4750 2034 4750 
z
" transform="scale(0.015625)"/>
       </defs>
       <use xlink:href="#DejaVuSans-30"/>
      </g>
     </g>
    </g>
    <g id="xtick_2">
     <g id="line2d_3">
      <path d="M 120.218575 307.584 
L 120.218575 41.472 
" clip-path="url(#p762c0cc821)" style="fill: none; stroke: #ffffff; stroke-width: 0.8; stroke-linecap: square"/>
     </g>
     <g id="line2d_4">
      <g>
       <use xlink:href="#m000ee05121" x="120.218575" y="307.584" style="fill: #555555; stroke: #555555; stroke-width: 0.8"/>
      </g>
     </g>
     <g id="text_2">
      <!-- 2000 -->
      <g style="fill: #555555" transform="translate(107.493575 322.182437) scale(0.1 -0.1)">
       <defs>
        <path id="DejaVuSans-32" d="M 1228 531 
L 3431 531 
L 3431 0 
L 469 0 
L 469 531 
Q 828 903 1448 1529 
Q 2069 2156 2228 2338 
Q 2531 2678 2651 2914 
Q 2772 3150 2772 3378 
Q 2772 3750 2511 3984 
Q 2250 4219 1831 4219 
Q 1534 4219 1204 4116 
Q 875 4013 500 3803 
L 500 4441 
Q 881 4594 1212 4672 
Q 1544 4750 1819 4750 
Q 2544 4750 2975 4387 
Q 3406 4025 3406 3419 
Q 3406 3131 3298 2873 
Q 3191 2616 2906 2266 
Q 2828 2175 2409 1742 
Q 1991 1309 1228 531 
z
" transform="scale(0.015625)"/>
       </defs>
       <use xlink:href="#DejaVuSans-32"/>
       <use xlink:href="#DejaVuSans-30" x="63.623047"/>
       <use xlink:href="#DejaVuSans-30" x="127.246094"/>
       <use xlink:href="#DejaVuSans-30" x="190.869141"/>
      </g>
     </g>
    </g>
    <g id="xtick_3">
     <g id="line2d_5">
      <path d="M 166.604422 307.584 
L 166.604422 41.472 
" clip-path="url(#p762c0cc821)" style="fill: none; stroke: #ffffff; stroke-width: 0.8; stroke-linecap: square"/>
     </g>
     <g id="line2d_6">
      <g>
       <use xlink:href="#m000ee05121" x="166.604422" y="307.584" style="fill: #555555; stroke: #555555; stroke-width: 0.8"/>
      </g>
     </g>
     <g id="text_3">
      <!-- 4000 -->
      <g style="fill: #555555" transform="translate(153.879422 322.182437) scale(0.1 -0.1)">
       <defs>
        <path id="DejaVuSans-34" d="M 2419 4116 
L 825 1625 
L 2419 1625 
L 2419 4116 
z
M 2253 4666 
L 3047 4666 
L 3047 1625 
L 3713 1625 
L 3713 1100 
L 3047 1100 
L 3047 0 
L 2419 0 
L 2419 1100 
L 313 1100 
L 313 1709 
L 2253 4666 
z
" transform="scale(0.015625)"/>
       </defs>
       <use xlink:href="#DejaVuSans-34"/>
       <use xlink:href="#DejaVuSans-30" x="63.623047"/>
       <use xlink:href="#DejaVuSans-30" x="127.246094"/>
       <use xlink:href="#DejaVuSans-30" x="190.869141"/>
      </g>
     </g>
    </g>
    <g id="xtick_4">
     <g id="line2d_7">
      <path d="M 212.990269 307.584 
L 212.990269 41.472 
" clip-path="url(#p762c0cc821)" style="fill: none; stroke: #ffffff; stroke-width: 0.8; stroke-linecap: square"/>
     </g>
     <g id="line2d_8">
      <g>
       <use xlink:href="#m000ee05121" x="212.990269" y="307.584" style="fill: #555555; stroke: #555555; stroke-width: 0.8"/>
      </g>
     </g>
     <g id="text_4">
      <!-- 6000 -->
      <g style="fill: #555555" transform="translate(200.265269 322.182437) scale(0.1 -0.1)">
       <defs>
        <path id="DejaVuSans-36" d="M 2113 2584 
Q 1688 2584 1439 2293 
Q 1191 2003 1191 1497 
Q 1191 994 1439 701 
Q 1688 409 2113 409 
Q 2538 409 2786 701 
Q 3034 994 3034 1497 
Q 3034 2003 2786 2293 
Q 2538 2584 2113 2584 
z
M 3366 4563 
L 3366 3988 
Q 3128 4100 2886 4159 
Q 2644 4219 2406 4219 
Q 1781 4219 1451 3797 
Q 1122 3375 1075 2522 
Q 1259 2794 1537 2939 
Q 1816 3084 2150 3084 
Q 2853 3084 3261 2657 
Q 3669 2231 3669 1497 
Q 3669 778 3244 343 
Q 2819 -91 2113 -91 
Q 1303 -91 875 529 
Q 447 1150 447 2328 
Q 447 3434 972 4092 
Q 1497 4750 2381 4750 
Q 2619 4750 2861 4703 
Q 3103 4656 3366 4563 
z
" transform="scale(0.015625)"/>
       </defs>
       <use xlink:href="#DejaVuSans-36"/>
       <use xlink:href="#DejaVuSans-30" x="63.623047"/>
       <use xlink:href="#DejaVuSans-30" x="127.246094"/>
       <use xlink:href="#DejaVuSans-30" x="190.869141"/>
      </g>
     </g>
    </g>
    <g id="xtick_5">
     <g id="line2d_9">
      <path d="M 259.376117 307.584 
L 259.376117 41.472 
" clip-path="url(#p762c0cc821)" style="fill: none; stroke: #ffffff; stroke-width: 0.8; stroke-linecap: square"/>
     </g>
     <g id="line2d_10">
      <g>
       <use xlink:href="#m000ee05121" x="259.376117" y="307.584" style="fill: #555555; stroke: #555555; stroke-width: 0.8"/>
      </g>
     </g>
     <g id="text_5">
      <!-- 8000 -->
      <g style="fill: #555555" transform="translate(246.651117 322.182437) scale(0.1 -0.1)">
       <defs>
        <path id="DejaVuSans-38" d="M 2034 2216 
Q 1584 2216 1326 1975 
Q 1069 1734 1069 1313 
Q 1069 891 1326 650 
Q 1584 409 2034 409 
Q 2484 409 2743 651 
Q 3003 894 3003 1313 
Q 3003 1734 2745 1975 
Q 2488 2216 2034 2216 
z
M 1403 2484 
Q 997 2584 770 2862 
Q 544 3141 544 3541 
Q 544 4100 942 4425 
Q 1341 4750 2034 4750 
Q 2731 4750 3128 4425 
Q 3525 4100 3525 3541 
Q 3525 3141 3298 2862 
Q 3072 2584 2669 2484 
Q 3125 2378 3379 2068 
Q 3634 1759 3634 1313 
Q 3634 634 3220 271 
Q 2806 -91 2034 -91 
Q 1263 -91 848 271 
Q 434 634 434 1313 
Q 434 1759 690 2068 
Q 947 2378 1403 2484 
z
M 1172 3481 
Q 1172 3119 1398 2916 
Q 1625 2713 2034 2713 
Q 2441 2713 2670 2916 
Q 2900 3119 2900 3481 
Q 2900 3844 2670 4047 
Q 2441 4250 2034 4250 
Q 1625 4250 1398 4047 
Q 1172 3844 1172 3481 
z
" transform="scale(0.015625)"/>
       </defs>
       <use xlink:href="#DejaVuSans-38"/>
       <use xlink:href="#DejaVuSans-30" x="63.623047"/>
       <use xlink:href="#DejaVuSans-30" x="127.246094"/>
       <use xlink:href="#DejaVuSans-30" x="190.869141"/>
      </g>
     </g>
    </g>
    <g id="xtick_6">
     <g id="line2d_11">
      <path d="M 305.761964 307.584 
L 305.761964 41.472 
" clip-path="url(#p762c0cc821)" style="fill: none; stroke: #ffffff; stroke-width: 0.8; stroke-linecap: square"/>
     </g>
     <g id="line2d_12">
      <g>
       <use xlink:href="#m000ee05121" x="305.761964" y="307.584" style="fill: #555555; stroke: #555555; stroke-width: 0.8"/>
      </g>
     </g>
     <g id="text_6">
      <!-- 10000 -->
      <g style="fill: #555555" transform="translate(289.855714 322.182437) scale(0.1 -0.1)">
       <defs>
        <path id="DejaVuSans-31" d="M 794 531 
L 1825 531 
L 1825 4091 
L 703 3866 
L 703 4441 
L 1819 4666 
L 2450 4666 
L 2450 531 
L 3481 531 
L 3481 0 
L 794 0 
L 794 531 
z
" transform="scale(0.015625)"/>
       </defs>
       <use xlink:href="#DejaVuSans-31"/>
       <use xlink:href="#DejaVuSans-30" x="63.623047"/>
       <use xlink:href="#DejaVuSans-30" x="127.246094"/>
       <use xlink:href="#DejaVuSans-30" x="190.869141"/>
       <use xlink:href="#DejaVuSans-30" x="254.492188"/>
      </g>
     </g>
    </g>
    <g id="xtick_7">
     <g id="line2d_13">
      <path d="M 352.147811 307.584 
L 352.147811 41.472 
" clip-path="url(#p762c0cc821)" style="fill: none; stroke: #ffffff; stroke-width: 0.8; stroke-linecap: square"/>
     </g>
     <g id="line2d_14">
      <g>
       <use xlink:href="#m000ee05121" x="352.147811" y="307.584" style="fill: #555555; stroke: #555555; stroke-width: 0.8"/>
      </g>
     </g>
     <g id="text_7">
      <!-- 12000 -->
      <g style="fill: #555555" transform="translate(336.241561 322.182437) scale(0.1 -0.1)">
       <use xlink:href="#DejaVuSans-31"/>
       <use xlink:href="#DejaVuSans-32" x="63.623047"/>
       <use xlink:href="#DejaVuSans-30" x="127.246094"/>
       <use xlink:href="#DejaVuSans-30" x="190.869141"/>
       <use xlink:href="#DejaVuSans-30" x="254.492188"/>
      </g>
     </g>
    </g>
    <g id="xtick_8">
     <g id="line2d_15">
      <path d="M 398.533659 307.584 
L 398.533659 41.472 
" clip-path="url(#p762c0cc821)" style="fill: none; stroke: #ffffff; stroke-width: 0.8; stroke-linecap: square"/>
     </g>
     <g id="line2d_16">
      <g>
       <use xlink:href="#m000ee05121" x="398.533659" y="307.584" style="fill: #555555; stroke: #555555; stroke-width: 0.8"/>
      </g>
     </g>
     <g id="text_8">
      <!-- 14000 -->
      <g style="fill: #555555" transform="translate(382.627409 322.182437) scale(0.1 -0.1)">
       <use xlink:href="#DejaVuSans-31"/>
       <use xlink:href="#DejaVuSans-34" x="63.623047"/>
       <use xlink:href="#DejaVuSans-30" x="127.246094"/>
       <use xlink:href="#DejaVuSans-30" x="190.869141"/>
       <use xlink:href="#DejaVuSans-30" x="254.492188"/>
      </g>
     </g>
    </g>
    <g id="text_9">
     <!-- Number of Games -->
     <g style="fill: #555555" transform="translate(181.471875 337.38025) scale(0.12 -0.12)">
      <defs>
       <path id="DejaVuSans-4e" d="M 628 4666 
L 1478 4666 
L 3547 763 
L 3547 4666 
L 4159 4666 
L 4159 0 
L 3309 0 
L 1241 3903 
L 1241 0 
L 628 0 
L 628 4666 
z
" transform="scale(0.015625)"/>
       <path id="DejaVuSans-75" d="M 544 1381 
L 544 3500 
L 1119 3500 
L 1119 1403 
Q 1119 906 1312 657 
Q 1506 409 1894 409 
Q 2359 409 2629 706 
Q 2900 1003 2900 1516 
L 2900 3500 
L 3475 3500 
L 3475 0 
L 2900 0 
L 2900 538 
Q 2691 219 2414 64 
Q 2138 -91 1772 -91 
Q 1169 -91 856 284 
Q 544 659 544 1381 
z
M 1991 3584 
L 1991 3584 
z
" transform="scale(0.015625)"/>
       <path id="DejaVuSans-6d" d="M 3328 2828 
Q 3544 3216 3844 3400 
Q 4144 3584 4550 3584 
Q 5097 3584 5394 3201 
Q 5691 2819 5691 2113 
L 5691 0 
L 5113 0 
L 5113 2094 
Q 5113 2597 4934 2840 
Q 4756 3084 4391 3084 
Q 3944 3084 3684 2787 
Q 3425 2491 3425 1978 
L 3425 0 
L 2847 0 
L 2847 2094 
Q 2847 2600 2669 2842 
Q 2491 3084 2119 3084 
Q 1678 3084 1418 2786 
Q 1159 2488 1159 1978 
L 1159 0 
L 581 0 
L 581 3500 
L 1159 3500 
L 1159 2956 
Q 1356 3278 1631 3431 
Q 1906 3584 2284 3584 
Q 2666 3584 2933 3390 
Q 3200 3197 3328 2828 
z
" transform="scale(0.015625)"/>
       <path id="DejaVuSans-62" d="M 3116 1747 
Q 3116 2381 2855 2742 
Q 2594 3103 2138 3103 
Q 1681 3103 1420 2742 
Q 1159 2381 1159 1747 
Q 1159 1113 1420 752 
Q 1681 391 2138 391 
Q 2594 391 2855 752 
Q 3116 1113 3116 1747 
z
M 1159 2969 
Q 1341 3281 1617 3432 
Q 1894 3584 2278 3584 
Q 2916 3584 3314 3078 
Q 3713 2572 3713 1747 
Q 3713 922 3314 415 
Q 2916 -91 2278 -91 
Q 1894 -91 1617 61 
Q 1341 213 1159 525 
L 1159 0 
L 581 0 
L 581 4863 
L 1159 4863 
L 1159 2969 
z
" transform="scale(0.015625)"/>
       <path id="DejaVuSans-65" d="M 3597 1894 
L 3597 1613 
L 953 1613 
Q 991 1019 1311 708 
Q 1631 397 2203 397 
Q 2534 397 2845 478 
Q 3156 559 3463 722 
L 3463 178 
Q 3153 47 2828 -22 
Q 2503 -91 2169 -91 
Q 1331 -91 842 396 
Q 353 884 353 1716 
Q 353 2575 817 3079 
Q 1281 3584 2069 3584 
Q 2775 3584 3186 3129 
Q 3597 2675 3597 1894 
z
M 3022 2063 
Q 3016 2534 2758 2815 
Q 2500 3097 2075 3097 
Q 1594 3097 1305 2825 
Q 1016 2553 972 2059 
L 3022 2063 
z
" transform="scale(0.015625)"/>
       <path id="DejaVuSans-72" d="M 2631 2963 
Q 2534 3019 2420 3045 
Q 2306 3072 2169 3072 
Q 1681 3072 1420 2755 
Q 1159 2438 1159 1844 
L 1159 0 
L 581 0 
L 581 3500 
L 1159 3500 
L 1159 2956 
Q 1341 3275 1631 3429 
Q 1922 3584 2338 3584 
Q 2397 3584 2469 3576 
Q 2541 3569 2628 3553 
L 2631 2963 
z
" transform="scale(0.015625)"/>
       <path id="DejaVuSans-20" transform="scale(0.015625)"/>
       <path id="DejaVuSans-6f" d="M 1959 3097 
Q 1497 3097 1228 2736 
Q 959 2375 959 1747 
Q 959 1119 1226 758 
Q 1494 397 1959 397 
Q 2419 397 2687 759 
Q 2956 1122 2956 1747 
Q 2956 2369 2687 2733 
Q 2419 3097 1959 3097 
z
M 1959 3584 
Q 2709 3584 3137 3096 
Q 3566 2609 3566 1747 
Q 3566 888 3137 398 
Q 2709 -91 1959 -91 
Q 1206 -91 779 398 
Q 353 888 353 1747 
Q 353 2609 779 3096 
Q 1206 3584 1959 3584 
z
" transform="scale(0.015625)"/>
       <path id="DejaVuSans-66" d="M 2375 4863 
L 2375 4384 
L 1825 4384 
Q 1516 4384 1395 4259 
Q 1275 4134 1275 3809 
L 1275 3500 
L 2222 3500 
L 2222 3053 
L 1275 3053 
L 1275 0 
L 697 0 
L 697 3053 
L 147 3053 
L 147 3500 
L 697 3500 
L 697 3744 
Q 697 4328 969 4595 
Q 1241 4863 1831 4863 
L 2375 4863 
z
" transform="scale(0.015625)"/>
       <path id="DejaVuSans-47" d="M 3809 666 
L 3809 1919 
L 2778 1919 
L 2778 2438 
L 4434 2438 
L 4434 434 
Q 4069 175 3628 42 
Q 3188 -91 2688 -91 
Q 1594 -91 976 548 
Q 359 1188 359 2328 
Q 359 3472 976 4111 
Q 1594 4750 2688 4750 
Q 3144 4750 3555 4637 
Q 3966 4525 4313 4306 
L 4313 3634 
Q 3963 3931 3569 4081 
Q 3175 4231 2741 4231 
Q 1884 4231 1454 3753 
Q 1025 3275 1025 2328 
Q 1025 1384 1454 906 
Q 1884 428 2741 428 
Q 3075 428 3337 486 
Q 3600 544 3809 666 
z
" transform="scale(0.015625)"/>
       <path id="DejaVuSans-61" d="M 2194 1759 
Q 1497 1759 1228 1600 
Q 959 1441 959 1056 
Q 959 750 1161 570 
Q 1363 391 1709 391 
Q 2188 391 2477 730 
Q 2766 1069 2766 1631 
L 2766 1759 
L 2194 1759 
z
M 3341 1997 
L 3341 0 
L 2766 0 
L 2766 531 
Q 2569 213 2275 61 
Q 1981 -91 1556 -91 
Q 1019 -91 701 211 
Q 384 513 384 1019 
Q 384 1609 779 1909 
Q 1175 2209 1959 2209 
L 2766 2209 
L 2766 2266 
Q 2766 2663 2505 2880 
Q 2244 3097 1772 3097 
Q 1472 3097 1187 3025 
Q 903 2953 641 2809 
L 641 3341 
Q 956 3463 1253 3523 
Q 1550 3584 1831 3584 
Q 2591 3584 2966 3190 
Q 3341 2797 3341 1997 
z
" transform="scale(0.015625)"/>
       <path id="DejaVuSans-73" d="M 2834 3397 
L 2834 2853 
Q 2591 2978 2328 3040 
Q 2066 3103 1784 3103 
Q 1356 3103 1142 2972 
Q 928 2841 928 2578 
Q 928 2378 1081 2264 
Q 1234 2150 1697 2047 
L 1894 2003 
Q 2506 1872 2764 1633 
Q 3022 1394 3022 966 
Q 3022 478 2636 193 
Q 2250 -91 1575 -91 
Q 1294 -91 989 -36 
Q 684 19 347 128 
L 347 722 
Q 666 556 975 473 
Q 1284 391 1588 391 
Q 1994 391 2212 530 
Q 2431 669 2431 922 
Q 2431 1156 2273 1281 
Q 2116 1406 1581 1522 
L 1381 1569 
Q 847 1681 609 1914 
Q 372 2147 372 2553 
Q 372 3047 722 3315 
Q 1072 3584 1716 3584 
Q 2034 3584 2315 3537 
Q 2597 3491 2834 3397 
z
" transform="scale(0.015625)"/>
      </defs>
      <use xlink:href="#DejaVuSans-4e"/>
      <use xlink:href="#DejaVuSans-75" x="74.804688"/>
      <use xlink:href="#DejaVuSans-6d" x="138.183594"/>
      <use xlink:href="#DejaVuSans-62" x="235.595703"/>
      <use xlink:href="#DejaVuSans-65" x="299.072266"/>
      <use xlink:href="#DejaVuSans-72" x="360.595703"/>
      <use xlink:href="#DejaVuSans-20" x="401.708984"/>
      <use xlink:href="#DejaVuSans-6f" x="433.496094"/>
      <use xlink:href="#DejaVuSans-66" x="494.677734"/>
      <use xlink:href="#DejaVuSans-20" x="529.882812"/>
      <use xlink:href="#DejaVuSans-47" x="561.669922"/>
      <use xlink:href="#DejaVuSans-61" x="639.160156"/>
      <use xlink:href="#DejaVuSans-6d" x="700.439453"/>
      <use xlink:href="#DejaVuSans-65" x="797.851562"/>
      <use xlink:href="#DejaVuSans-73" x="859.375"/>
     </g>
    </g>
   </g>
   <g id="matplotlib.axis_2">
    <g id="ytick_1">
     <g id="line2d_17">
      <path d="M 57.6 307.584 
L 414.72 307.584 
" clip-path="url(#p762c0cc821)" style="fill: none; stroke: #ffffff; stroke-width: 0.8; stroke-linecap: square"/>
     </g>
     <g id="line2d_18">
      <defs>
       <path id="mbb3a4312db" d="M 0 0 
L -3.5 0 
" style="stroke: #555555; stroke-width: 0.8"/>
      </defs>
      <g>
       <use xlink:href="#mbb3a4312db" x="57.6" y="307.584" style="fill: #555555; stroke: #555555; stroke-width: 0.8"/>
      </g>
     </g>
     <g id="text_10">
      <!-- 0 -->
      <g style="fill: #555555" transform="translate(44.2375 311.383219) scale(0.1 -0.1)">
       <use xlink:href="#DejaVuSans-30"/>
      </g>
     </g>
    </g>
    <g id="ytick_2">
     <g id="line2d_19">
      <path d="M 57.6 264.629019 
L 414.72 264.629019 
" clip-path="url(#p762c0cc821)" style="fill: none; stroke: #ffffff; stroke-width: 0.8; stroke-linecap: square"/>
     </g>
     <g id="line2d_20">
      <g>
       <use xlink:href="#mbb3a4312db" x="57.6" y="264.629019" style="fill: #555555; stroke: #555555; stroke-width: 0.8"/>
      </g>
     </g>
     <g id="text_11">
      <!-- 500 -->
      <g style="fill: #555555" transform="translate(31.5125 268.428237) scale(0.1 -0.1)">
       <defs>
        <path id="DejaVuSans-35" d="M 691 4666 
L 3169 4666 
L 3169 4134 
L 1269 4134 
L 1269 2991 
Q 1406 3038 1543 3061 
Q 1681 3084 1819 3084 
Q 2600 3084 3056 2656 
Q 3513 2228 3513 1497 
Q 3513 744 3044 326 
Q 2575 -91 1722 -91 
Q 1428 -91 1123 -41 
Q 819 9 494 109 
L 494 744 
Q 775 591 1075 516 
Q 1375 441 1709 441 
Q 2250 441 2565 725 
Q 2881 1009 2881 1497 
Q 2881 1984 2565 2268 
Q 2250 2553 1709 2553 
Q 1456 2553 1204 2497 
Q 953 2441 691 2322 
L 691 4666 
z
" transform="scale(0.015625)"/>
       </defs>
       <use xlink:href="#DejaVuSans-35"/>
       <use xlink:href="#DejaVuSans-30" x="63.623047"/>
       <use xlink:href="#DejaVuSans-30" x="127.246094"/>
      </g>
     </g>
    </g>
    <g id="ytick_3">
     <g id="line2d_21">
      <path d="M 57.6 221.674037 
L 414.72 221.674037 
" clip-path="url(#p762c0cc821)" style="fill: none; stroke: #ffffff; stroke-width: 0.8; stroke-linecap: square"/>
     </g>
     <g id="line2d_22">
      <g>
       <use xlink:href="#mbb3a4312db" x="57.6" y="221.674037" style="fill: #555555; stroke: #555555; stroke-width: 0.8"/>
      </g>
     </g>
     <g id="text_12">
      <!-- 1000 -->
      <g style="fill: #555555" transform="translate(25.15 225.473256) scale(0.1 -0.1)">
       <use xlink:href="#DejaVuSans-31"/>
       <use xlink:href="#DejaVuSans-30" x="63.623047"/>
       <use xlink:href="#DejaVuSans-30" x="127.246094"/>
       <use xlink:href="#DejaVuSans-30" x="190.869141"/>
      </g>
     </g>
    </g>
    <g id="ytick_4">
     <g id="line2d_23">
      <path d="M 57.6 178.719056 
L 414.72 178.719056 
" clip-path="url(#p762c0cc821)" style="fill: none; stroke: #ffffff; stroke-width: 0.8; stroke-linecap: square"/>
     </g>
     <g id="line2d_24">
      <g>
       <use xlink:href="#mbb3a4312db" x="57.6" y="178.719056" style="fill: #555555; stroke: #555555; stroke-width: 0.8"/>
      </g>
     </g>
     <g id="text_13">
      <!-- 1500 -->
      <g style="fill: #555555" transform="translate(25.15 182.518274) scale(0.1 -0.1)">
       <use xlink:href="#DejaVuSans-31"/>
       <use xlink:href="#DejaVuSans-35" x="63.623047"/>
       <use xlink:href="#DejaVuSans-30" x="127.246094"/>
       <use xlink:href="#DejaVuSans-30" x="190.869141"/>
      </g>
     </g>
    </g>
    <g id="ytick_5">
     <g id="line2d_25">
      <path d="M 57.6 135.764074 
L 414.72 135.764074 
" clip-path="url(#p762c0cc821)" style="fill: none; stroke: #ffffff; stroke-width: 0.8; stroke-linecap: square"/>
     </g>
     <g id="line2d_26">
      <g>
       <use xlink:href="#mbb3a4312db" x="57.6" y="135.764074" style="fill: #555555; stroke: #555555; stroke-width: 0.8"/>
      </g>
     </g>
     <g id="text_14">
      <!-- 2000 -->
      <g style="fill: #555555" transform="translate(25.15 139.563293) scale(0.1 -0.1)">
       <use xlink:href="#DejaVuSans-32"/>
       <use xlink:href="#DejaVuSans-30" x="63.623047"/>
       <use xlink:href="#DejaVuSans-30" x="127.246094"/>
       <use xlink:href="#DejaVuSans-30" x="190.869141"/>
      </g>
     </g>
    </g>
    <g id="ytick_6">
     <g id="line2d_27">
      <path d="M 57.6 92.809093 
L 414.72 92.809093 
" clip-path="url(#p762c0cc821)" style="fill: none; stroke: #ffffff; stroke-width: 0.8; stroke-linecap: square"/>
     </g>
     <g id="line2d_28">
      <g>
       <use xlink:href="#mbb3a4312db" x="57.6" y="92.809093" style="fill: #555555; stroke: #555555; stroke-width: 0.8"/>
      </g>
     </g>
     <g id="text_15">
      <!-- 2500 -->
      <g style="fill: #555555" transform="translate(25.15 96.608312) scale(0.1 -0.1)">
       <use xlink:href="#DejaVuSans-32"/>
       <use xlink:href="#DejaVuSans-35" x="63.623047"/>
       <use xlink:href="#DejaVuSans-30" x="127.246094"/>
       <use xlink:href="#DejaVuSans-30" x="190.869141"/>
      </g>
     </g>
    </g>
    <g id="ytick_7">
     <g id="line2d_29">
      <path d="M 57.6 49.854111 
L 414.72 49.854111 
" clip-path="url(#p762c0cc821)" style="fill: none; stroke: #ffffff; stroke-width: 0.8; stroke-linecap: square"/>
     </g>
     <g id="line2d_30">
      <g>
       <use xlink:href="#mbb3a4312db" x="57.6" y="49.854111" style="fill: #555555; stroke: #555555; stroke-width: 0.8"/>
      </g>
     </g>
     <g id="text_16">
      <!-- 3000 -->
      <g style="fill: #555555" transform="translate(25.15 53.65333) scale(0.1 -0.1)">
       <defs>
        <path id="DejaVuSans-33" d="M 2597 2516 
Q 3050 2419 3304 2112 
Q 3559 1806 3559 1356 
Q 3559 666 3084 287 
Q 2609 -91 1734 -91 
Q 1441 -91 1130 -33 
Q 819 25 488 141 
L 488 750 
Q 750 597 1062 519 
Q 1375 441 1716 441 
Q 2309 441 2620 675 
Q 2931 909 2931 1356 
Q 2931 1769 2642 2001 
Q 2353 2234 1838 2234 
L 1294 2234 
L 1294 2753 
L 1863 2753 
Q 2328 2753 2575 2939 
Q 2822 3125 2822 3475 
Q 2822 3834 2567 4026 
Q 2313 4219 1838 4219 
Q 1578 4219 1281 4162 
Q 984 4106 628 3988 
L 628 4550 
Q 988 4650 1302 4700 
Q 1616 4750 1894 4750 
Q 2613 4750 3031 4423 
Q 3450 4097 3450 3541 
Q 3450 3153 3228 2886 
Q 3006 2619 2597 2516 
z
" transform="scale(0.015625)"/>
       </defs>
       <use xlink:href="#DejaVuSans-33"/>
       <use xlink:href="#DejaVuSans-30" x="63.623047"/>
       <use xlink:href="#DejaVuSans-30" x="127.246094"/>
       <use xlink:href="#DejaVuSans-30" x="190.869141"/>
      </g>
     </g>
    </g>
    <g id="text_17">
     <!-- Median reward -->
     <g style="fill: #555555" transform="translate(18.654375 219.03675) rotate(-90) scale(0.12 -0.12)">
      <defs>
       <path id="DejaVuSans-4d" d="M 628 4666 
L 1569 4666 
L 2759 1491 
L 3956 4666 
L 4897 4666 
L 4897 0 
L 4281 0 
L 4281 4097 
L 3078 897 
L 2444 897 
L 1241 4097 
L 1241 0 
L 628 0 
L 628 4666 
z
" transform="scale(0.015625)"/>
       <path id="DejaVuSans-64" d="M 2906 2969 
L 2906 4863 
L 3481 4863 
L 3481 0 
L 2906 0 
L 2906 525 
Q 2725 213 2448 61 
Q 2172 -91 1784 -91 
Q 1150 -91 751 415 
Q 353 922 353 1747 
Q 353 2572 751 3078 
Q 1150 3584 1784 3584 
Q 2172 3584 2448 3432 
Q 2725 3281 2906 2969 
z
M 947 1747 
Q 947 1113 1208 752 
Q 1469 391 1925 391 
Q 2381 391 2643 752 
Q 2906 1113 2906 1747 
Q 2906 2381 2643 2742 
Q 2381 3103 1925 3103 
Q 1469 3103 1208 2742 
Q 947 2381 947 1747 
z
" transform="scale(0.015625)"/>
       <path id="DejaVuSans-69" d="M 603 3500 
L 1178 3500 
L 1178 0 
L 603 0 
L 603 3500 
z
M 603 4863 
L 1178 4863 
L 1178 4134 
L 603 4134 
L 603 4863 
z
" transform="scale(0.015625)"/>
       <path id="DejaVuSans-6e" d="M 3513 2113 
L 3513 0 
L 2938 0 
L 2938 2094 
Q 2938 2591 2744 2837 
Q 2550 3084 2163 3084 
Q 1697 3084 1428 2787 
Q 1159 2491 1159 1978 
L 1159 0 
L 581 0 
L 581 3500 
L 1159 3500 
L 1159 2956 
Q 1366 3272 1645 3428 
Q 1925 3584 2291 3584 
Q 2894 3584 3203 3211 
Q 3513 2838 3513 2113 
z
" transform="scale(0.015625)"/>
       <path id="DejaVuSans-77" d="M 269 3500 
L 844 3500 
L 1563 769 
L 2278 3500 
L 2956 3500 
L 3675 769 
L 4391 3500 
L 4966 3500 
L 4050 0 
L 3372 0 
L 2619 2869 
L 1863 0 
L 1184 0 
L 269 3500 
z
" transform="scale(0.015625)"/>
      </defs>
      <use xlink:href="#DejaVuSans-4d"/>
      <use xlink:href="#DejaVuSans-65" x="86.279297"/>
      <use xlink:href="#DejaVuSans-64" x="147.802734"/>
      <use xlink:href="#DejaVuSans-69" x="211.279297"/>
      <use xlink:href="#DejaVuSans-61" x="239.0625"/>
      <use xlink:href="#DejaVuSans-6e" x="300.341797"/>
      <use xlink:href="#DejaVuSans-20" x="363.720703"/>
      <use xlink:href="#DejaVuSans-72" x="395.507812"/>
      <use xlink:href="#DejaVuSans-65" x="434.371094"/>
      <use xlink:href="#DejaVuSans-77" x="495.894531"/>
      <use xlink:href="#DejaVuSans-61" x="577.681641"/>
      <use xlink:href="#DejaVuSans-72" x="638.960938"/>
      <use xlink:href="#DejaVuSans-64" x="678.324219"/>
     </g>
    </g>
   </g>
   <g id="line2d_31">
    <path d="M 73.832727 306.123531 
L 73.85592 306.080576 
L 73.948692 306.137849 
L 74.018271 306.113985 
L 74.041464 306.175077 
L 74.157428 306.083439 
L 74.273393 306.11494 
L 75.177917 306.180319 
L 81.555971 306.203525 
L 86.101784 306.116398 
L 89.487951 306.031521 
L 95.773233 305.786241 
L 106.720293 304.86267 
L 107.392888 304.743928 
L 109.804952 304.267997 
L 110.10646 304.186632 
L 110.616704 304.058173 
L 115.556797 302.400861 
L 115.811919 302.184481 
L 116.206199 302.017053 
L 116.414935 301.791929 
L 116.577286 301.670702 
L 116.832408 301.398436 
L 116.994758 301.296286 
L 117.273073 301.010788 
L 117.412231 300.952619 
L 117.64416 300.597111 
L 117.922475 300.490376 
L 118.409527 299.699449 
L 118.618263 299.655071 
L 118.826999 299.240598 
L 119.082121 298.966597 
L 119.221279 298.252151 
L 119.383629 298.141074 
L 119.522787 298.028336 
L 119.824295 297.281256 
L 119.986645 297.066394 
L 120.450504 295.876578 
L 120.566468 295.875103 
L 120.821591 294.707423 
L 120.937555 294.501587 
L 121.076713 293.497295 
L 121.21587 292.3515 
L 121.355028 292.303593 
L 121.4478 292.272954 
L 121.679729 291.037966 
L 121.795693 290.650935 
L 121.818886 290.656832 
L 121.865272 290.63345 
L 122.00443 290.406059 
L 122.027623 290.409776 
L 122.421902 287.571815 
L 122.537867 287.601981 
L 122.792989 287.619574 
L 123.001725 287.425294 
L 123.210462 287.466791 
L 123.233655 287.473006 
L 123.442391 285.802773 
L 123.697513 281.275342 
L 123.720706 281.282417 
L 123.813478 280.4239 
L 123.906249 280.450253 
L 124.045407 280.427805 
L 124.114986 280.212389 
L 124.207757 279.642862 
L 124.254143 279.654809 
L 124.439687 279.563932 
L 124.555651 279.302896 
L 124.741195 277.70169 
L 124.810773 277.708586 
L 124.996317 277.69216 
L 125.460175 276.527028 
L 125.645719 276.459378 
L 125.808069 276.332201 
L 125.877648 276.056421 
L 126.341506 274.619152 
L 126.457471 274.091717 
L 126.596629 272.592563 
L 126.735786 272.156681 
L 127.222838 267.738415 
L 127.385188 267.205983 
L 127.431574 266.984371 
L 127.501153 267.028152 
L 127.686696 267.110385 
L 127.941818 265.457494 
L 128.127362 265.119131 
L 128.336098 265.003865 
L 128.915921 263.694567 
L 129.101464 262.28563 
L 129.565323 261.544622 
L 129.727673 260.978397 
L 129.797252 260.912719 
L 130.353882 257.195693 
L 130.49304 256.677602 
L 130.539426 256.584601 
L 130.632197 256.439871 
L 130.956898 254.776568 
L 131.142442 254.127777 
L 131.165635 254.125562 
L 131.397564 252.590414 
L 131.420757 252.600102 
L 131.44395 252.544374 
L 131.745458 251.647225 
L 131.791844 251.398644 
L 131.931001 250.657919 
L 132.116544 250.294323 
L 132.603596 248.322257 
L 132.905104 245.339366 
L 133.50812 241.816452 
L 133.531313 241.83522 
L 133.624084 241.880966 
L 133.809628 241.271737 
L 134.06475 241.066376 
L 134.319872 240.245769 
L 134.343065 240.250997 
L 134.690959 238.845459 
L 134.806924 238.70554 
L 134.946081 238.422015 
L 135.17801 237.876344 
L 135.502711 237.2728 
L 135.850605 234.100504 
L 135.989763 233.576909 
L 136.105727 233.556831 
L 136.12892 233.549083 
L 136.847901 230.194738 
L 136.963865 230.031471 
L 137.126216 229.764049 
L 137.172602 229.715235 
L 137.358145 229.415904 
L 137.543689 229.205258 
L 137.729232 228.896428 
L 138.309055 226.730863 
L 138.517791 224.910718 
L 138.564177 224.956155 
L 138.656949 224.604685 
L 138.703335 224.614135 
L 138.842492 223.882695 
L 139.051229 222.544559 
L 139.190386 221.944384 
L 139.37593 221.463471 
L 139.445508 221.364033 
L 139.584666 220.545999 
L 139.770209 220.007976 
L 140.118103 218.548796 
L 140.280454 218.252207 
L 140.419611 218.194115 
L 140.88347 216.735462 
L 140.976241 216.715318 
L 141.277749 214.771265 
L 141.393714 214.618777 
L 141.416907 214.53626 
L 141.509679 214.611644 
L 141.648836 214.623781 
L 141.99673 213.385391 
L 142.066309 213.386659 
L 142.089502 213.337006 
L 142.251852 213.308573 
L 142.646132 212.233985 
L 142.692518 212.272913 
L 142.715711 212.147978 
L 142.94764 211.723929 
L 143.272341 211.383859 
L 143.411498 210.87048 
L 143.550656 210.465315 
L 143.620235 210.252151 
L 143.968128 208.183447 
L 144.107286 207.207066 
L 144.246444 205.943377 
L 144.269636 205.951892 
L 144.408794 204.713565 
L 144.45518 204.731837 
L 144.61753 204.373239 
L 144.733495 204.40355 
L 144.895845 203.982583 
L 144.919038 204.008668 
L 144.965424 204.053898 
L 145.01181 204.006555 
L 145.730791 201.737191 
L 145.753984 201.746997 
L 145.800369 201.774865 
L 145.823562 201.674447 
L 145.846755 201.684786 
L 146.171456 200.079026 
L 146.194649 200.047876 
L 146.380192 198.823854 
L 146.681701 197.822211 
L 146.774472 197.386422 
L 146.960016 196.518843 
L 147.006401 196.536717 
L 147.029594 196.434223 
L 147.052787 196.463163 
L 147.215138 195.766877 
L 147.331102 195.310925 
L 147.400681 195.40465 
L 147.539839 195.524655 
L 147.563032 195.409281 
L 147.748575 194.575911 
L 147.887733 193.754536 
L 147.934118 193.801093 
L 148.142855 193.962968 
L 148.397977 191.692929 
L 148.42117 191.692662 
L 148.560327 191.105337 
L 148.769064 190.927707 
L 148.838642 191.02269 
L 149.116957 191.312234 
L 149.348887 190.769029 
L 149.395273 190.786651 
L 149.673588 190.523521 
L 149.812745 190.334334 
L 149.92871 190.225049 
L 149.998289 190.094502 
L 150.438954 187.437955 
L 150.624498 185.72837 
L 150.740462 185.377427 
L 150.926006 185.455585 
L 151.691372 183.156313 
L 151.737758 183.050759 
L 151.853722 182.701142 
L 151.876915 182.716319 
L 151.923301 182.72823 
L 151.946494 182.647097 
L 152.108845 181.78881 
L 152.132038 181.819701 
L 152.271195 181.821566 
L 152.294388 181.665255 
L 152.38716 181.720047 
L 152.572703 181.224915 
L 152.804632 180.163483 
L 152.827825 180.168077 
L 152.94379 180.168723 
L 153.198912 179.836939 
L 153.222105 179.854954 
L 153.245298 179.889689 
L 153.268491 179.846919 
L 153.685963 177.421052 
L 153.709156 177.456192 
L 153.755542 177.367176 
L 154.033857 175.861599 
L 154.381751 174.652008 
L 155.541397 172.324054 
L 155.750134 170.123293 
L 155.842905 170.151425 
L 155.866098 170.110771 
L 155.935677 170.16911 
L 156.005256 170.096473 
L 156.074835 170.179528 
L 156.213992 170.0613 
L 156.283571 170.001514 
L 156.399536 169.526786 
L 156.422728 169.546684 
L 156.469114 169.517241 
L 156.701044 169.047695 
L 156.886587 169.027851 
L 157.025744 169.137389 
L 157.048937 169.110545 
L 157.188095 169.04428 
L 157.30406 168.77166 
L 157.443217 168.094738 
L 157.46641 168.096874 
L 157.698339 167.695385 
L 157.837497 167.343467 
L 158.02304 166.361862 
L 158.139005 166.335073 
L 158.208584 166.270303 
L 158.440513 165.79428 
L 158.556477 165.880454 
L 158.742021 165.382859 
L 159.159493 164.447543 
L 159.205879 164.51771 
L 159.321844 164.63341 
L 159.345037 164.579669 
L 159.391423 164.341872 
L 159.553773 163.41781 
L 159.576966 163.416721 
L 159.739317 163.01337 
L 159.878474 162.999755 
L 159.971246 163.048084 
L 160.179982 161.896505 
L 160.226368 161.811878 
L 160.295947 161.428184 
L 160.365525 161.289577 
L 160.411911 161.322955 
L 160.551069 161.38571 
L 161.130892 159.76264 
L 161.339628 159.86084 
L 161.82668 157.547513 
L 161.849873 157.582466 
L 161.873066 157.55914 
L 162.012223 157.33685 
L 162.035416 157.34841 
L 162.058609 157.275793 
L 162.54566 156.157294 
L 162.615239 156.220719 
L 162.661625 156.180035 
L 162.823975 155.442067 
L 163.195062 154.375908 
L 163.380606 154.006394 
L 163.542956 153.281025 
L 163.566149 153.312061 
L 163.589342 153.219798 
L 163.774885 152.469121 
L 163.867657 152.078914 
L 163.914043 151.960723 
L 163.983622 152.043349 
L 164.215551 152.01492 
L 164.238744 152.044133 
L 164.308322 151.953655 
L 164.725795 151.103232 
L 164.748988 151.127672 
L 164.795374 151.060844 
L 164.934531 151.238188 
L 165.143268 150.960364 
L 165.259232 150.923708 
L 165.352004 150.847618 
L 165.421583 150.353195 
L 165.583933 149.432074 
L 165.815863 149.234592 
L 165.862248 149.285813 
L 166.001406 149.328858 
L 166.372493 148.925326 
L 166.534843 148.347477 
L 166.558036 148.375072 
L 166.743579 148.116328 
L 166.789965 148.093322 
L 166.998702 147.489608 
L 167.06828 147.526005 
L 167.416174 145.137243 
L 167.439367 145.172503 
L 167.787261 145.057594 
L 168.274312 143.607424 
L 168.297505 143.615874 
L 168.390277 143.563068 
L 168.436663 143.304611 
L 168.529435 143.363341 
L 169.132451 142.085062 
L 169.178836 142.13284 
L 169.36438 141.765365 
L 169.573116 141.06076 
L 169.619502 141.089411 
L 169.781852 139.969053 
L 169.805045 139.999047 
L 169.92101 140.079537 
L 170.013782 140.053525 
L 170.036975 139.934279 
L 170.129746 139.961292 
L 170.176132 139.952056 
L 170.31529 138.406327 
L 170.338483 138.444973 
L 170.616798 138.273205 
L 170.663184 138.178152 
L 170.709569 138.215593 
L 170.779148 138.284867 
L 170.825534 138.359898 
L 170.848727 138.330491 
L 170.987885 137.766761 
L 171.103849 137.712377 
L 171.243007 137.498756 
L 171.405357 137.390055 
L 171.544515 137.115067 
L 171.567708 137.135087 
L 171.846023 136.94151 
L 172.008373 136.557453 
L 172.193917 136.587753 
L 172.37946 136.096576 
L 172.611389 135.517557 
L 172.634582 135.556991 
L 172.704161 135.585767 
L 172.727354 135.543569 
L 172.889704 135.187239 
L 173.144826 133.535109 
L 173.283984 133.32857 
L 173.307177 133.361179 
L 173.399949 133.470054 
L 173.446334 133.369934 
L 173.49272 133.129968 
L 173.655071 132.498139 
L 173.701457 132.434829 
L 173.863807 131.948808 
L 173.910193 131.87221 
L 174.118929 131.569364 
L 174.142122 131.59333 
L 174.327666 131.631119 
L 174.536402 131.268627 
L 174.605981 131.155695 
L 174.745138 131.127917 
L 175.139418 130.975081 
L 175.162611 130.869487 
L 175.255382 130.942294 
L 175.324961 130.908326 
L 175.348154 130.939027 
L 175.39454 130.966395 
L 175.417733 130.921643 
L 175.696048 129.914042 
L 175.719241 129.921337 
L 175.765627 129.949127 
L 175.78882 129.889118 
L 175.835206 129.688254 
L 175.904784 129.75832 
L 175.927977 129.718105 
L 175.974363 129.4333 
L 176.043942 129.489139 
L 176.275871 129.613423 
L 176.438222 129.359462 
L 176.530993 128.820788 
L 176.577379 128.866383 
L 176.646958 128.843382 
L 176.809308 128.528912 
L 176.832501 128.561911 
L 176.878887 128.409145 
L 177.018045 128.307978 
L 177.041238 128.343932 
L 177.203588 128.278229 
L 177.365939 127.821934 
L 177.412324 127.812104 
L 177.574675 127.184215 
L 177.829797 126.68229 
L 177.876183 126.720495 
L 178.061726 126.737737 
L 178.084919 126.724707 
L 178.293655 125.292613 
L 178.386427 125.349687 
L 178.664742 125.059989 
L 178.711128 125.133348 
L 178.919864 125.304138 
L 179.383723 122.975021 
L 179.406916 123.001265 
L 179.453302 123.073598 
L 179.52288 122.982696 
L 179.592459 122.855598 
L 179.638845 122.923764 
L 179.847581 123.146922 
L 179.986739 123.214183 
L 180.265054 122.836777 
L 180.404212 122.846868 
L 180.566562 122.565837 
L 180.914456 122.047315 
L 180.984035 121.768596 
L 181.053613 121.870776 
L 181.865366 121.419895 
L 181.888559 121.424245 
L 182.050909 121.04665 
L 182.097295 121.092478 
L 182.143681 121.053662 
L 182.352417 120.663838 
L 182.37561 120.69039 
L 182.421996 120.620274 
L 182.746697 119.15982 
L 182.862661 118.437449 
L 182.885854 118.47131 
L 183.025012 118.461545 
L 183.048205 118.472204 
L 183.187362 118.038076 
L 183.210555 118.030051 
L 183.32652 117.831707 
L 183.512063 117.957881 
L 183.88315 118.275677 
L 183.929536 118.304575 
L 184.068693 117.910289 
L 184.138272 117.778678 
L 184.184658 117.811004 
L 184.300623 117.761934 
L 184.416587 117.46781 
L 184.462973 117.479387 
L 184.694902 117.384805 
L 184.718095 117.410045 
L 184.741288 117.307837 
L 184.83406 117.069191 
L 184.973217 116.713894 
L 185.065989 116.563618 
L 185.089182 116.396194 
L 185.181954 116.454692 
L 185.367497 116.52619 
L 185.645812 115.555439 
L 185.692198 115.521361 
L 185.78497 115.067709 
L 185.831356 115.108171 
L 185.970513 115.223492 
L 185.993706 115.188576 
L 186.272021 115.186113 
L 186.457565 114.420817 
L 187.153352 114.401359 
L 187.315703 114.440288 
L 187.547632 114.164673 
L 187.663597 114.099468 
L 187.825947 113.803489 
L 188.081069 113.073051 
L 188.197034 113.021972 
L 188.660892 112.257759 
L 188.823243 111.826257 
L 188.846436 111.82826 
L 189.008786 111.286982 
L 189.031979 111.301939 
L 189.147944 111.3918 
L 189.287101 111.0248 
L 189.519031 110.684564 
L 189.542223 110.698767 
L 189.565416 110.733843 
L 189.588609 110.607393 
L 189.634995 110.399889 
L 189.704574 110.438532 
L 189.936503 110.498155 
L 190.006082 110.468546 
L 190.052468 110.500957 
L 190.46994 110.234776 
L 190.562712 110.253935 
L 190.70187 110.134081 
L 191.096149 109.703048 
L 191.165728 109.651707 
L 191.304886 109.15822 
L 191.351271 109.189807 
L 191.374464 109.12802 
L 191.467236 108.826602 
L 191.606394 108.398461 
L 191.629587 108.403239 
L 191.745551 108.083597 
L 191.791937 108.150413 
L 191.954287 108.267591 
L 192.163024 107.924516 
L 192.302181 107.901854 
L 192.92839 106.374002 
L 193.044355 106.014011 
L 193.067548 106.019044 
L 193.276284 106.110293 
L 193.392249 105.993056 
L 193.438635 106.039727 
L 193.508213 105.999077 
L 193.856107 105.117952 
L 193.972072 105.103619 
L 194.111229 105.06313 
L 194.319966 104.790292 
L 194.366352 104.844619 
L 194.644667 104.906057 
L 195.015753 103.858255 
L 195.085332 103.910191 
L 195.131718 103.839186 
L 195.247683 103.623707 
L 195.270876 103.635717 
L 195.317261 103.500579 
L 195.340454 103.258991 
L 195.433226 103.304787 
L 195.804313 102.152308 
L 195.966663 100.91836 
L 196.129014 100.99499 
L 196.244978 100.977472 
L 196.291364 101.010477 
L 196.314557 100.913532 
L 196.500101 100.420033 
L 196.639258 100.520047 
L 196.871187 100.485826 
L 196.987152 100.391233 
L 197.28866 100.517802 
L 197.613361 100.3997 
L 197.984448 99.287352 
L 198.100412 99.297916 
L 198.146798 99.09427 
L 198.216377 99.172036 
L 198.23957 99.202956 
L 198.262763 99.106857 
L 198.285956 99.128926 
L 198.378727 98.626562 
L 198.610657 97.778284 
L 198.703428 97.644811 
L 198.749814 97.533056 
L 198.819393 97.569206 
L 198.935358 97.646469 
L 199.097708 97.762036 
L 199.213673 97.466328 
L 199.236866 97.47538 
L 199.283251 97.377804 
L 199.35283 97.420123 
L 199.584759 97.567931 
L 199.607952 97.543961 
L 199.723917 97.544363 
L 199.886267 97.334775 
L 200.048618 97.291547 
L 200.373319 96.906685 
L 200.651634 96.873911 
L 201.069106 95.280864 
L 201.138685 95.317554 
L 201.556158 95.765016 
L 201.695315 95.740174 
L 201.81128 95.450883 
L 201.880859 95.496058 
L 202.112788 95.564517 
L 202.182367 95.602276 
L 202.20556 95.506116 
L 202.36791 95.389491 
L 202.391103 95.415974 
L 202.483875 95.411369 
L 202.692611 95.15618 
L 202.92454 95.141223 
L 203.040505 94.885394 
L 203.063698 94.896614 
L 203.226048 94.712845 
L 203.249241 94.740982 
L 203.388399 94.396051 
L 203.620328 93.554853 
L 203.759486 93.490408 
L 203.968222 92.981632 
L 204.014608 92.999536 
L 204.060994 92.93115 
L 204.176958 92.744534 
L 204.200151 92.778867 
L 204.524852 92.843024 
L 204.710396 92.539018 
L 204.733588 92.512312 
L 204.779974 92.571156 
L 204.872746 92.652491 
L 204.895939 92.537972 
L 204.988711 92.572385 
L 205.081482 92.563187 
L 205.104675 92.54376 
L 205.127868 92.494934 
L 205.197447 92.544433 
L 205.406183 92.602237 
L 205.591727 92.455338 
L 205.661305 92.446276 
L 205.800463 92.338528 
L 205.893235 92.313953 
L 206.032392 92.211822 
L 206.17155 92.250595 
L 206.287514 92.209197 
L 206.473058 91.92425 
L 206.635408 92.042999 
L 207.192038 90.234289 
L 207.539932 90.507314 
L 207.563125 90.400903 
L 207.67909 89.875741 
L 207.725476 89.913508 
L 207.911019 89.909758 
L 208.050177 89.595618 
L 208.189334 89.634917 
L 208.328492 89.25873 
L 208.351685 89.2836 
L 208.444456 89.170417 
L 208.514035 88.854912 
L 208.583614 88.917272 
L 208.606807 88.932753 
L 208.63 88.878664 
L 208.79235 88.480234 
L 208.815543 88.515749 
L 209.117051 88.823527 
L 209.209823 88.75165 
L 209.233016 88.765307 
L 209.302594 88.733428 
L 209.511331 88.309458 
L 209.836032 88.207219 
L 210.13754 86.837985 
L 210.183925 86.774868 
L 210.230311 86.8191 
L 210.346276 86.684123 
L 210.578205 86.810284 
L 210.647784 86.758512 
L 210.902906 85.90749 
L 210.926099 85.934683 
L 210.949292 85.965659 
L 211.08845 85.415321 
L 211.273993 84.950701 
L 211.552308 85.177326 
L 211.761044 84.882296 
L 212.039359 84.384309 
L 212.132131 84.515497 
L 212.294482 84.686076 
L 212.317674 84.64277 
L 212.480025 84.506719 
L 212.572797 84.507948 
L 212.711954 84.248378 
L 212.827919 84.266699 
L 212.943883 84.031183 
L 213.059848 84.016214 
L 213.222198 83.709311 
L 213.268584 83.713495 
L 213.384549 83.538083 
L 213.523707 83.453834 
L 213.570092 83.251431 
L 213.639671 83.283347 
L 213.8716 83.427366 
L 214.173108 83.677398 
L 214.590581 82.68754 
L 214.729739 82.795308 
L 214.845703 82.915574 
L 214.892089 82.850175 
L 214.961668 82.790263 
L 215.008054 82.820507 
L 215.031247 82.850958 
L 215.054439 82.789438 
L 215.100825 82.537832 
L 215.21679 82.589104 
L 215.448719 82.636957 
L 215.727034 81.498714 
L 216.144507 81.965035 
L 216.214086 81.880982 
L 216.33005 81.808969 
L 216.469208 81.774013 
L 216.585172 81.490623 
L 216.631558 81.524126 
L 216.840295 81.533644 
L 216.979452 81.149818 
L 217.049031 81.126451 
L 217.188188 80.75075 
L 217.211381 80.76508 
L 217.536082 79.422984 
L 217.559275 79.443232 
L 217.605661 79.348872 
L 217.67524 79.431999 
L 217.976748 79.70271 
L 218.579764 78.840136 
L 218.672536 78.872381 
L 218.695728 78.82945 
L 218.811693 78.908952 
L 218.974044 79.069113 
L 218.997236 78.987744 
L 219.18278 78.882043 
L 219.321937 78.792939 
L 219.34513 78.817803 
L 219.437902 78.890092 
L 219.461095 78.794155 
L 219.553867 78.806617 
L 219.57706 78.756547 
L 219.716217 78.383361 
L 219.762603 78.406157 
L 219.808989 78.441235 
L 219.901761 78.010035 
L 219.948146 78.035074 
L 220.064111 77.963004 
L 220.180076 77.942735 
L 220.319233 77.921863 
L 220.504777 77.951315 
L 220.783092 77.859078 
L 220.899056 77.795697 
L 220.922249 77.817472 
L 221.873159 77.97326 
L 221.919545 77.891983 
L 221.989124 77.944881 
L 222.012317 77.962144 
L 222.035509 77.759767 
L 222.128281 77.8813 
L 222.313825 78.007127 
L 222.522561 77.133633 
L 222.545754 77.159306 
L 222.568947 77.183472 
L 222.615333 77.096514 
L 222.638526 76.993413 
L 222.731297 77.071916 
L 223.032805 77.467008 
L 223.125577 77.286799 
L 223.264734 77.13783 
L 223.380699 76.785266 
L 223.403892 76.793411 
L 223.473471 76.727595 
L 223.7054 76.707468 
L 223.821365 76.704163 
L 224.006908 76.518874 
L 224.09968 76.584532 
L 224.215644 76.175295 
L 224.238837 76.200522 
L 224.586731 76.15896 
L 224.65631 76.184907 
L 224.679503 76.090116 
L 224.888239 75.726265 
L 225.027397 75.641858 
L 225.305712 75.874335 
L 225.421676 75.785673 
L 225.444869 75.795123 
L 225.537641 75.787824 
L 225.560834 75.664797 
L 225.653606 75.684758 
L 225.76957 75.725676 
L 225.792763 75.653347 
L 226.001499 75.662436 
L 226.140657 75.634556 
L 226.187043 75.596881 
L 226.233429 75.659114 
L 226.418972 75.714551 
L 226.55813 75.590041 
L 227.230724 75.147537 
L 227.300303 74.909068 
L 227.346689 74.949554 
L 227.532232 74.724255 
L 227.555425 74.747097 
L 227.717776 74.781516 
L 227.880126 74.658347 
L 228.042477 74.626036 
L 228.181634 74.472453 
L 228.320792 74.516757 
L 228.436756 74.573347 
L 228.459949 74.488213 
L 228.575914 74.379172 
L 228.599107 74.280448 
L 228.691879 74.316542 
L 228.715072 74.31688 
L 228.854229 73.936557 
L 228.970194 73.842947 
L 229.109351 73.632054 
L 229.132544 73.659676 
L 229.294895 73.771899 
L 229.318088 73.752879 
L 229.480438 73.773393 
L 229.642788 73.821866 
L 229.758753 73.754802 
L 229.781946 73.783313 
L 229.921104 73.720463 
L 230.176226 73.315457 
L 230.315383 73.334763 
L 230.454541 73.259857 
L 230.547312 72.956861 
L 230.593698 72.988826 
L 231.057557 73.152716 
L 231.08075 73.132417 
L 231.2431 72.684304 
L 231.359065 72.70171 
L 231.498222 72.47556 
L 231.614187 72.473255 
L 231.706959 72.284398 
L 231.753345 72.334667 
L 231.915695 72.419156 
L 232.449132 71.861845 
L 232.472325 71.850641 
L 232.681061 71.25718 
L 232.843412 71.303475 
L 233.14492 71.384699 
L 233.237692 71.218209 
L 233.260885 71.248191 
L 233.446428 71.315701 
L 233.724743 71.061836 
L 233.863901 70.593232 
L 233.979865 70.614467 
L 234.119023 70.610963 
L 234.350952 69.917699 
L 234.397338 69.956795 
L 234.953968 70.337468 
L 234.977161 70.308916 
L 235.278669 70.234738 
L 235.325055 70.071227 
L 235.394634 70.143265 
L 235.510598 70.151646 
L 235.649756 70.073461 
L 235.812106 70.068658 
L 236.299158 68.901133 
L 236.507894 68.481951 
L 236.878981 68.495229 
L 237.018138 68.499931 
L 237.064524 68.439442 
L 237.319646 67.987645 
L 237.922662 68.170052 
L 238.131399 67.827409 
L 238.247363 67.937371 
L 238.293749 67.891182 
L 238.363328 67.899696 
L 238.664836 67.655023 
L 238.827186 67.446516 
L 238.873572 67.476807 
L 238.896765 67.38538 
L 239.059115 67.216207 
L 239.105501 67.263674 
L 239.244659 67.307034 
L 239.267852 67.250337 
L 239.337431 67.306244 
L 239.546167 67.481667 
L 239.56936 67.449066 
L 239.685324 67.36575 
L 239.708517 67.377846 
L 239.847675 67.375664 
L 240.334726 67.518983 
L 240.914549 66.303121 
L 240.960935 66.326664 
L 241.100093 66.361092 
L 241.285636 66.449392 
L 241.63353 66.355936 
L 242.02781 66.596214 
L 242.143774 66.385624 
L 242.166967 66.402519 
L 242.398896 66.430125 
L 242.607633 66.58114 
L 242.74679 66.308051 
L 242.769983 66.323446 
L 242.885948 66.212841 
L 243.048298 65.694957 
L 243.14107 65.513706 
L 243.187456 65.570741 
L 243.442578 65.694492 
L 243.906437 65.692048 
L 244.068787 65.823581 
L 244.09198 65.80307 
L 244.161559 65.680072 
L 244.231137 65.709737 
L 244.300716 65.548989 
L 244.439874 65.226658 
L 244.532645 65.025419 
L 244.579031 65.041086 
L 245.066083 64.795429 
L 245.182047 64.585327 
L 245.228433 64.627196 
L 245.344398 64.535213 
L 245.622713 64.340296 
L 245.738677 64.361584 
L 246.040185 63.608162 
L 246.388079 63.391217 
L 246.735973 63.599371 
L 246.828745 63.383618 
L 246.875131 63.418664 
L 247.060674 63.47674 
L 247.246218 63.558198 
L 247.385375 63.543791 
L 247.478147 63.487798 
L 247.50134 63.513669 
L 247.733269 63.639848 
L 247.872426 63.688947 
L 247.965198 63.659313 
L 248.104356 63.495745 
L 248.266706 63.528826 
L 248.382671 63.543117 
L 248.568214 62.980675 
L 248.660986 62.844783 
L 248.684179 62.738874 
L 248.77695 62.77937 
L 248.962494 62.836367 
L 248.985687 62.864915 
L 249.032073 62.746382 
L 249.101651 62.772615 
L 249.124844 62.64199 
L 249.217616 62.730144 
L 249.379966 62.284784 
L 249.426352 62.315435 
L 249.704667 62.561106 
L 249.867018 62.685072 
L 249.890211 62.65963 
L 250.075754 62.60974 
L 250.12214 62.563836 
L 250.261298 62.369718 
L 250.794735 62.415181 
L 250.910699 62.191012 
L 250.933892 62.2006 
L 251.049857 62.175165 
L 251.212207 61.958656 
L 251.490523 62.103116 
L 251.606487 62.106972 
L 251.722452 62.161209 
L 251.768838 62.021573 
L 251.861609 62.073805 
L 251.954381 62.047499 
L 252.139924 61.820121 
L 252.163117 61.697621 
L 252.255889 61.743027 
L 252.371854 61.759878 
L 252.441432 61.58187 
L 252.511011 61.598789 
L 252.557397 61.649013 
L 252.603783 61.579378 
L 252.719747 61.131225 
L 252.812519 61.176595 
L 252.882098 61.145035 
L 252.928484 61.173492 
L 253.183606 61.274927 
L 253.415535 61.099941 
L 253.438728 61.121472 
L 253.461921 61.080523 
L 253.508307 60.987335 
L 253.577886 61.025399 
L 253.786622 61.239993 
L 253.948972 61.297391 
L 254.08813 61.215248 
L 254.111323 61.242663 
L 254.320059 61.369225 
L 254.459217 61.375598 
L 254.667953 61.345125 
L 254.691146 61.152191 
L 254.783918 61.213901 
L 255.015847 61.280818 
L 255.270969 61.251335 
L 255.43332 61.353003 
L 255.572477 61.095272 
L 255.642056 61.003504 
L 255.850792 60.766526 
L 256.105914 60.903029 
L 256.129107 60.854346 
L 256.198686 60.926544 
L 256.291458 60.943605 
L 256.337844 60.743412 
L 256.407422 60.790789 
L 256.500194 60.837194 
L 256.917667 61.009305 
L 257.033631 60.898859 
L 257.590261 60.506838 
L 257.613454 60.524747 
L 257.636647 60.404963 
L 257.938155 60.042498 
L 258.123699 60.133622 
L 258.262856 60.12161 
L 258.633943 60.331073 
L 258.819486 60.309689 
L 258.935451 60.280505 
L 259.074609 60.29599 
L 259.213766 60.259835 
L 259.584853 60.155617 
L 259.72401 60.23357 
L 259.886361 60.215326 
L 260.002326 60.129683 
L 260.025518 60.144828 
L 260.11829 60.173478 
L 260.164676 59.953327 
L 260.234255 59.984764 
L 260.535763 60.200772 
L 260.999621 59.722996 
L 261.370708 60.010354 
L 261.486673 60.021734 
L 261.533058 60.025908 
L 261.556251 59.94234 
L 261.672216 59.831387 
L 261.718602 59.858222 
L 261.996917 59.482856 
L 262.18246 59.269757 
L 262.298425 59.224883 
L 262.669512 58.926195 
L 262.994213 59.197718 
L 263.063791 59.199578 
L 263.086984 59.22953 
L 263.179756 59.316665 
L 263.202949 59.268795 
L 263.411685 58.8652 
L 263.782772 58.911199 
L 263.898737 58.865517 
L 263.991508 58.86637 
L 264.200245 58.485504 
L 264.756875 58.320265 
L 264.919225 58.16174 
L 265.104769 58.064023 
L 265.127962 58.093667 
L 265.313505 58.165206 
L 265.336698 58.154483 
L 265.452663 57.844819 
L 265.475856 57.874031 
L 265.870135 58.114166 
L 265.962907 58.056247 
L 266.032486 58.003244 
L 266.078872 58.048202 
L 266.264415 58.214161 
L 266.287608 58.150774 
L 266.635502 57.870129 
L 266.658695 57.893961 
L 266.960203 58.16491 
L 266.983396 58.130318 
L 267.09936 58.039618 
L 267.215325 58.052141 
L 267.261711 58.065573 
L 267.284904 57.984158 
L 267.354482 57.864194 
L 267.470447 57.556644 
L 267.540026 57.627878 
L 267.795148 57.813222 
L 267.864727 57.684065 
L 267.911112 57.741681 
L 268.143042 57.873267 
L 268.305392 57.829416 
L 268.560514 57.996272 
L 268.583707 57.946394 
L 268.792444 57.954837 
L 268.885215 57.949422 
L 269.047566 57.703443 
L 269.233109 57.72511 
L 269.534617 57.61944 
L 269.812932 57.422463 
L 269.836125 57.298506 
L 269.928897 57.372666 
L 270.323177 57.443815 
L 270.462334 57.139294 
L 270.531913 57.206999 
L 270.995771 57.401972 
L 271.088543 57.325006 
L 271.111736 57.336569 
L 271.204508 57.304325 
L 271.250894 57.194998 
L 271.343665 57.233512 
L 271.877102 57.516998 
L 272.062646 57.553988 
L 272.224996 57.334072 
L 272.526504 57.519169 
L 272.549697 57.481761 
L 272.828012 57.529262 
L 273.315064 57.752135 
L 273.500607 57.762488 
L 273.616572 57.716464 
L 273.941273 57.559286 
L 273.964466 57.567373 
L 273.987658 57.460841 
L 274.150009 57.219155 
L 274.219588 57.244953 
L 274.335552 57.056985 
L 274.428324 57.006597 
L 274.613867 56.769933 
L 274.892183 56.849095 
L 275.03134 56.784459 
L 275.054533 56.791957 
L 275.077726 56.69018 
L 275.564777 56.738819 
L 275.750321 56.773341 
L 276.005443 56.386718 
L 276.098215 56.470932 
L 276.353337 56.578875 
L 276.631652 56.515184 
L 276.863581 56.6058 
L 276.979546 56.505308 
L 277.09551 56.489007 
L 277.281054 56.555402 
L 277.605755 56.61068 
L 277.628948 56.566428 
L 277.698526 56.628695 
L 278.347928 56.956865 
L 278.463893 56.843818 
L 278.788594 56.998276 
L 278.927751 56.843136 
L 278.950944 56.854768 
L 279.020523 56.889096 
L 279.066909 56.827224 
L 279.275645 56.745479 
L 279.623539 56.725379 
L 279.809082 56.627593 
L 279.855468 56.655542 
L 279.878661 56.528808 
L 280.644028 56.540407 
L 280.806378 56.418316 
L 281.641323 56.698272 
L 281.780481 56.618608 
L 281.826867 56.552579 
L 281.896445 56.570821 
L 281.919638 56.499414 
L 282.01241 56.572219 
L 282.847355 56.50966 
L 282.940127 56.296577 
L 282.986513 56.348358 
L 283.12567 56.313046 
L 283.218442 56.264332 
L 283.403986 55.953215 
L 283.427178 55.96311 
L 283.682301 56.075411 
L 283.844651 55.993752 
L 284.285317 56.060522 
L 284.540439 56.196405 
L 284.702789 56.138416 
L 285.120262 56.195174 
L 285.305805 56.185842 
L 285.352191 56.200042 
L 285.444963 55.972219 
L 285.468156 55.99642 
L 285.9784 55.964951 
L 286.071172 55.665134 
L 286.14075 55.712167 
L 286.303101 55.749821 
L 287.416361 55.709598 
L 287.555519 55.774274 
L 287.578712 55.737709 
L 287.787448 55.682496 
L 288.320885 55.637071 
L 288.413657 55.573656 
L 288.43685 55.597667 
L 288.529622 55.658676 
L 288.552815 55.617344 
L 288.738358 55.361675 
L 288.947094 55.411669 
L 289.155831 55.513815 
L 289.318181 55.454365 
L 289.758847 55.61639 
L 289.874811 55.56611 
L 289.990776 55.493247 
L 290.129933 55.289512 
L 290.477827 55.44626 
L 290.616985 55.515604 
L 290.686564 55.443431 
L 290.732949 55.38458 
L 290.802528 55.449094 
L 290.8953 55.397149 
L 291.034457 55.117266 
L 291.05765 55.138899 
L 291.220001 55.084721 
L 291.61428 54.944535 
L 291.823017 54.622782 
L 291.84621 54.641392 
L 292.00856 54.764868 
L 292.310068 54.929483 
L 292.518805 54.892826 
L 292.634769 54.918674 
L 292.866698 55.006835 
L 293.237785 54.973286 
L 293.260978 54.892592 
L 293.35375 54.954373 
L 293.562486 54.973801 
L 293.840801 54.939163 
L 293.91038 54.871353 
L 293.956766 54.887709 
L 294.188695 54.936488 
L 294.30466 54.933625 
L 294.582975 54.937582 
L 294.629361 54.786964 
L 294.698939 54.855336 
L 297.203775 55.266528 
L 297.250161 55.188885 
L 297.31974 55.223756 
L 297.528476 55.275666 
L 297.667634 55.201446 
L 297.806791 55.253167 
L 297.945949 55.110318 
L 298.363421 55.255436 
L 298.82728 54.764864 
L 298.850473 54.788494 
L 299.128788 54.939044 
L 299.801383 54.698996 
L 299.870961 54.604235 
L 299.917347 54.492782 
L 299.986926 54.525281 
L 300.868257 54.53523 
L 301.239344 54.717766 
L 301.424887 54.725838 
L 301.680009 54.864564 
L 301.865553 54.870037 
L 302.630919 54.627905 
L 302.862848 54.457802 
L 303.164356 54.536965 
L 303.326707 54.621481 
L 303.419479 54.677461 
L 303.442672 54.589615 
L 303.558636 54.625844 
L 303.581829 54.475741 
L 303.674601 54.51863 
L 303.720987 54.515063 
L 303.74418 54.470494 
L 303.813758 54.429733 
L 303.860144 54.470349 
L 304.231231 54.586656 
L 304.347196 54.53999 
L 304.370388 54.555048 
L 304.486353 54.611628 
L 304.579125 54.629298 
L 304.695089 54.511726 
L 304.718282 54.522864 
L 304.903826 54.540903 
L 305.066176 54.571233 
L 305.274913 54.594818 
L 305.41407 54.569894 
L 305.715578 54.70369 
L 305.924314 54.687165 
L 306.109858 54.410393 
L 306.225822 54.301266 
L 306.480945 54.407417 
L 306.689681 54.341048 
L 306.875224 54.367022 
L 306.991189 54.354284 
L 307.246311 54.512471 
L 307.385469 54.442254 
L 307.47824 54.471139 
L 307.524626 54.39028 
L 307.594205 54.43036 
L 307.686977 54.387498 
L 307.87252 54.276925 
L 307.965292 54.247398 
L 308.058063 54.185462 
L 308.104449 54.216836 
L 308.545115 54.343626 
L 308.591501 54.281322 
L 308.661079 54.324645 
L 308.916202 54.410755 
L 310.678864 54.377789 
L 311.421037 54.244827 
L 311.513809 54.07976 
L 311.537002 54.102657 
L 312.047246 54.40928 
L 312.39514 54.521853 
L 312.511105 54.500269 
L 312.719841 54.553197 
L 312.928577 54.711432 
L 313.137314 54.795279 
L 313.34605 54.627446 
L 313.763523 54.614467 
L 314.412924 54.662452 
L 315.387027 54.814307 
L 315.642149 54.762325 
L 315.665342 54.643122 
L 315.758114 54.694354 
L 316.036429 54.849754 
L 316.082815 54.860657 
L 316.129201 54.798416 
L 316.477095 54.70187 
L 316.778603 54.854939 
L 317.775898 55.168507 
L 317.891863 55.152684 
L 317.915056 55.172587 
L 318.077406 55.178392 
L 319.584946 55.34481 
L 319.724104 55.297528 
L 319.956033 55.321856 
L 320.118384 55.344704 
L 320.280734 55.264903 
L 320.419892 55.22689 
L 320.7214 55.300485 
L 320.860557 55.280109 
L 321.347609 55.166539 
L 321.509959 55.118743 
L 321.904239 55.24873 
L 322.205747 55.224679 
L 322.878342 55.703813 
L 323.040692 55.574423 
L 323.110271 55.509839 
L 323.156657 55.543938 
L 323.504551 55.604477 
L 323.759673 55.619206 
L 324.432267 55.862951 
L 324.571425 55.894562 
L 325.220827 56.226293 
L 325.359984 56.286523 
L 325.499142 56.306605 
L 325.591914 56.258748 
L 325.615107 56.280069 
L 325.847036 56.352287 
L 325.916615 56.324902 
L 325.963 56.353826 
L 327.076261 56.314344 
L 327.215418 56.210206 
L 327.238611 56.225231 
L 327.841627 56.222861 
L 328.003978 56.211864 
L 328.235907 56.20444 
L 328.375064 56.174912 
L 329.836219 56.601355 
L 330.091341 56.550159 
L 330.32327 56.614495 
L 330.740743 56.480485 
L 331.529302 56.586516 
L 331.645267 56.555127 
L 331.877196 56.623572 
L 332.062739 56.60395 
L 332.22509 56.679142 
L 332.688948 56.989657 
L 332.78172 56.912593 
L 332.804913 56.923924 
L 335.031434 57.561378 
L 335.147398 57.562022 
L 335.588064 57.668866 
L 335.750414 57.592945 
L 336.098308 57.575183 
L 336.376623 57.514053 
L 336.469395 57.502169 
L 336.492588 57.430936 
L 336.585359 57.493031 
L 336.956446 57.678119 
L 337.14199 57.543689 
L 337.489883 57.656911 
L 337.536269 57.559013 
L 337.605848 57.618917 
L 338.4176 57.839634 
L 338.533565 57.808106 
L 338.858266 57.905885 
L 338.951038 57.944738 
L 338.997424 57.875888 
L 339.345317 57.786312 
L 339.507668 57.618674 
L 339.530861 57.630159 
L 340.342613 57.844441 
L 340.435385 57.79686 
L 340.458578 57.817151 
L 340.7137 57.920003 
L 341.038401 57.863855 
L 341.27033 57.910942 
L 341.432681 57.950636 
L 341.710996 57.965526 
L 341.966118 57.92623 
L 342.267626 57.91703 
L 342.314012 57.860702 
L 342.38359 57.90156 
L 342.801063 58.03061 
L 342.917028 57.984246 
L 343.102571 58.021329 
L 343.241729 57.888346 
L 343.427272 57.884679 
L 343.612815 57.852009 
L 343.937516 57.889256 
L 344.447761 58.069869 
L 344.749269 58.100115 
L 345.305899 58.425168 
L 345.468249 58.451709 
L 345.676986 58.500581 
L 345.885722 58.586558 
L 346.511931 58.770386 
L 346.720667 58.815411 
L 346.929403 58.823094 
L 346.998982 58.769777 
L 347.045368 58.796091 
L 347.207719 58.865832 
L 347.230911 58.813087 
L 347.555612 58.710684 
L 347.717963 58.643988 
L 347.85712 58.547544 
L 348.854416 58.841587 
L 349.039959 58.682263 
L 349.341467 58.473802 
L 349.666168 58.606772 
L 349.874905 58.628728 
L 350.014062 58.612412 
L 350.454728 58.853317 
L 350.686657 58.930062 
L 350.779429 58.684256 
L 350.849008 58.711475 
L 351.011358 58.656777 
L 351.289673 58.744672 
L 351.428831 58.810408 
L 351.776724 58.872314 
L 351.939075 58.8041 
L 352.124618 58.81737 
L 352.402933 58.961755 
L 352.588477 58.997747 
L 352.727634 58.967175 
L 353.075528 59.120458 
L 353.191493 59.099688 
L 354.513489 59.384283 
L 354.652647 59.374573 
L 355.023734 59.507458 
L 355.162891 59.485666 
L 355.696329 59.605613 
L 355.951451 59.68558 
L 356.206573 59.640488 
L 356.624046 59.795516 
L 357.412605 60.0194 
L 357.574955 59.928229 
L 357.969235 60.079585 
L 358.0852 60.072056 
L 358.409901 60.140245 
L 358.433094 60.073295 
L 358.525865 60.128589 
L 359.337618 60.334855 
L 359.499968 60.349808 
L 359.987019 60.295329 
L 360.218949 60.329742 
L 360.450878 60.394949 
L 360.984315 60.59031 
L 362.190347 60.638347 
L 362.306312 60.648951 
L 362.561434 60.731141 
L 363.16445 60.697035 
L 363.581923 60.773788 
L 364.11536 60.918844 
L 364.416868 61.023984 
L 364.927112 61.204712 
L 365.135848 61.239606 
L 366.086758 61.252466 
L 366.318688 61.315871 
L 366.411459 61.16754 
L 366.57381 61.021712 
L 367.408755 61.140355 
L 367.594298 61.204196 
L 367.849421 60.955504 
L 367.918999 60.917629 
L 367.988578 60.857624 
L 368.034964 60.894476 
L 368.174121 60.948735 
L 368.846716 61.094844 
L 369.009067 61.127222 
L 369.542504 61.276869 
L 369.635276 61.247045 
L 369.658469 61.264485 
L 369.890398 61.310171 
L 370.14552 61.413738 
L 370.284678 61.395422 
L 371.676253 61.373612 
L 371.977761 61.458786 
L 372.163304 61.396854 
L 372.789513 61.623883 
L 373.462108 61.565548 
L 373.972352 61.644899 
L 374.181089 61.657289 
L 374.343439 61.695246 
L 374.436211 61.667275 
L 374.459404 61.680983 
L 374.900069 61.647322 
L 375.201577 61.705065 
L 375.247963 61.567816 
L 375.317542 61.602907 
L 375.479892 61.648505 
L 375.549471 61.525538 
L 375.595857 61.544786 
L 375.7814 61.561567 
L 375.966944 61.460212 
L 376.291645 61.603758 
L 376.477188 61.54229 
L 378.23985 61.871106 
L 378.587744 61.879368 
L 378.889252 61.97624 
L 379.237146 62.061311 
L 381.046194 62.255562 
L 381.185352 62.23321 
L 381.347702 62.224485 
L 381.463667 62.22534 
L 381.811561 62.362576 
L 382.182647 62.445103 
L 382.460962 62.525108 
L 382.646506 62.481869 
L 382.716085 62.409853 
L 382.76247 62.431553 
L 383.597416 62.762435 
L 383.759766 62.752357 
L 384.10766 62.776225 
L 384.223625 62.757096 
L 384.617904 62.771211 
L 384.757062 62.706542 
L 384.896219 62.709856 
L 385.151342 62.471984 
L 385.545621 62.587302 
L 385.661586 62.523371 
L 385.800743 62.485852 
L 386.241409 62.684944 
L 386.890811 62.725224 
L 387.145933 62.772687 
L 387.493827 62.883944 
L 387.864914 63.024868 
L 388.792631 63.048581 
L 388.954981 63.084492 
L 388.978174 63.034207 
L 389.140524 63.044652 
L 389.488418 63.171456 
L 390.601679 63.507676 
L 390.717643 63.540372 
L 391.08873 63.690351 
L 391.135116 63.598858 
L 391.204695 63.622487 
L 391.390238 63.571667 
L 391.506203 63.561849 
L 391.64536 63.51478 
L 391.807711 63.416363 
L 392.062833 63.47754 
L 392.642656 63.490042 
L 392.920971 63.577127 
L 393.245672 63.603467 
L 393.431215 63.639665 
L 393.54718 63.651023 
L 393.918267 63.783215 
L 394.150196 63.805648 
L 394.312546 63.707598 
L 394.590862 63.800849 
L 394.730019 63.803494 
L 394.938755 63.811471 
L 395.077913 63.841118 
L 395.541771 64.057081 
L 395.657736 64.031496 
L 395.889665 64.069807 
L 396.052016 64.078925 
L 396.95654 64.238724 
L 397.049311 64.146344 
L 397.095697 64.167387 
L 397.466784 64.286597 
L 397.652327 64.243461 
L 397.814678 64.228336 
L 398.487273 64.30793 
L 398.487273 64.30793 
" clip-path="url(#p762c0cc821)" style="fill: none; stroke: #d62728; stroke-width: 1.5; stroke-linecap: square"/>
   </g>
   <g id="patch_3">
    <path d="M 57.6 307.584 
L 57.6 41.472 
" style="fill: none; stroke: #ffffff; stroke-linejoin: miter; stroke-linecap: square"/>
   </g>
   <g id="patch_4">
    <path d="M 414.72 307.584 
L 414.72 41.472 
" style="fill: none; stroke: #ffffff; stroke-linejoin: miter; stroke-linecap: square"/>
   </g>
   <g id="patch_5">
    <path d="M 57.6 307.584 
L 414.72 307.584 
" style="fill: none; stroke: #ffffff; stroke-linejoin: miter; stroke-linecap: square"/>
   </g>
   <g id="patch_6">
    <path d="M 57.6 41.472 
L 414.72 41.472 
" style="fill: none; stroke: #ffffff; stroke-linejoin: miter; stroke-linecap: square"/>
   </g>
   <g id="text_18">
    <!-- 2831.7561968712052 -->
    <g transform="translate(398.487273 64.30793) scale(0.1 -0.1)">
     <defs>
      <path id="DejaVuSans-2e" d="M 684 794 
L 1344 794 
L 1344 0 
L 684 0 
L 684 794 
z
" transform="scale(0.015625)"/>
      <path id="DejaVuSans-37" d="M 525 4666 
L 3525 4666 
L 3525 4397 
L 1831 0 
L 1172 0 
L 2766 4134 
L 525 4134 
L 525 4666 
z
" transform="scale(0.015625)"/>
      <path id="DejaVuSans-39" d="M 703 97 
L 703 672 
Q 941 559 1184 500 
Q 1428 441 1663 441 
Q 2288 441 2617 861 
Q 2947 1281 2994 2138 
Q 2813 1869 2534 1725 
Q 2256 1581 1919 1581 
Q 1219 1581 811 2004 
Q 403 2428 403 3163 
Q 403 3881 828 4315 
Q 1253 4750 1959 4750 
Q 2769 4750 3195 4129 
Q 3622 3509 3622 2328 
Q 3622 1225 3098 567 
Q 2575 -91 1691 -91 
Q 1453 -91 1209 -44 
Q 966 3 703 97 
z
M 1959 2075 
Q 2384 2075 2632 2365 
Q 2881 2656 2881 3163 
Q 2881 3666 2632 3958 
Q 2384 4250 1959 4250 
Q 1534 4250 1286 3958 
Q 1038 3666 1038 3163 
Q 1038 2656 1286 2365 
Q 1534 2075 1959 2075 
z
" transform="scale(0.015625)"/>
     </defs>
     <use xlink:href="#DejaVuSans-32"/>
     <use xlink:href="#DejaVuSans-38" x="63.623047"/>
     <use xlink:href="#DejaVuSans-33" x="127.246094"/>
     <use xlink:href="#DejaVuSans-31" x="190.869141"/>
     <use xlink:href="#DejaVuSans-2e" x="254.492188"/>
     <use xlink:href="#DejaVuSans-37" x="286.279297"/>
     <use xlink:href="#DejaVuSans-35" x="349.902344"/>
     <use xlink:href="#DejaVuSans-36" x="413.525391"/>
     <use xlink:href="#DejaVuSans-31" x="477.148438"/>
     <use xlink:href="#DejaVuSans-39" x="540.771484"/>
     <use xlink:href="#DejaVuSans-36" x="604.394531"/>
     <use xlink:href="#DejaVuSans-38" x="668.017578"/>
     <use xlink:href="#DejaVuSans-37" x="731.640625"/>
     <use xlink:href="#DejaVuSans-31" x="795.263672"/>
     <use xlink:href="#DejaVuSans-32" x="858.886719"/>
     <use xlink:href="#DejaVuSans-30" x="922.509766"/>
     <use xlink:href="#DejaVuSans-35" x="986.132812"/>
     <use xlink:href="#DejaVuSans-32" x="1049.755859"/>
    </g>
   </g>
   <g id="text_19">
    <!-- Epoch: 14000 -->
    <g transform="translate(186.4935 35.472) scale(0.144 -0.144)">
     <defs>
      <path id="DejaVuSans-45" d="M 628 4666 
L 3578 4666 
L 3578 4134 
L 1259 4134 
L 1259 2753 
L 3481 2753 
L 3481 2222 
L 1259 2222 
L 1259 531 
L 3634 531 
L 3634 0 
L 628 0 
L 628 4666 
z
" transform="scale(0.015625)"/>
      <path id="DejaVuSans-70" d="M 1159 525 
L 1159 -1331 
L 581 -1331 
L 581 3500 
L 1159 3500 
L 1159 2969 
Q 1341 3281 1617 3432 
Q 1894 3584 2278 3584 
Q 2916 3584 3314 3078 
Q 3713 2572 3713 1747 
Q 3713 922 3314 415 
Q 2916 -91 2278 -91 
Q 1894 -91 1617 61 
Q 1341 213 1159 525 
z
M 3116 1747 
Q 3116 2381 2855 2742 
Q 2594 3103 2138 3103 
Q 1681 3103 1420 2742 
Q 1159 2381 1159 1747 
Q 1159 1113 1420 752 
Q 1681 391 2138 391 
Q 2594 391 2855 752 
Q 3116 1113 3116 1747 
z
" transform="scale(0.015625)"/>
      <path id="DejaVuSans-63" d="M 3122 3366 
L 3122 2828 
Q 2878 2963 2633 3030 
Q 2388 3097 2138 3097 
Q 1578 3097 1268 2742 
Q 959 2388 959 1747 
Q 959 1106 1268 751 
Q 1578 397 2138 397 
Q 2388 397 2633 464 
Q 2878 531 3122 666 
L 3122 134 
Q 2881 22 2623 -34 
Q 2366 -91 2075 -91 
Q 1284 -91 818 406 
Q 353 903 353 1747 
Q 353 2603 823 3093 
Q 1294 3584 2113 3584 
Q 2378 3584 2631 3529 
Q 2884 3475 3122 3366 
z
" transform="scale(0.015625)"/>
      <path id="DejaVuSans-68" d="M 3513 2113 
L 3513 0 
L 2938 0 
L 2938 2094 
Q 2938 2591 2744 2837 
Q 2550 3084 2163 3084 
Q 1697 3084 1428 2787 
Q 1159 2491 1159 1978 
L 1159 0 
L 581 0 
L 581 4863 
L 1159 4863 
L 1159 2956 
Q 1366 3272 1645 3428 
Q 1925 3584 2291 3584 
Q 2894 3584 3203 3211 
Q 3513 2838 3513 2113 
z
" transform="scale(0.015625)"/>
      <path id="DejaVuSans-3a" d="M 750 794 
L 1409 794 
L 1409 0 
L 750 0 
L 750 794 
z
M 750 3309 
L 1409 3309 
L 1409 2516 
L 750 2516 
L 750 3309 
z
" transform="scale(0.015625)"/>
     </defs>
     <use xlink:href="#DejaVuSans-45"/>
     <use xlink:href="#DejaVuSans-70" x="63.183594"/>
     <use xlink:href="#DejaVuSans-6f" x="126.660156"/>
     <use xlink:href="#DejaVuSans-63" x="187.841797"/>
     <use xlink:href="#DejaVuSans-68" x="242.822266"/>
     <use xlink:href="#DejaVuSans-3a" x="306.201172"/>
     <use xlink:href="#DejaVuSans-20" x="339.892578"/>
     <use xlink:href="#DejaVuSans-31" x="371.679688"/>
     <use xlink:href="#DejaVuSans-34" x="435.302734"/>
     <use xlink:href="#DejaVuSans-30" x="498.925781"/>
     <use xlink:href="#DejaVuSans-30" x="562.548828"/>
     <use xlink:href="#DejaVuSans-30" x="626.171875"/>
    </g>
   </g>
  </g>
 </g>
 <defs>
  <clipPath id="p762c0cc821">
   <rect x="57.6" y="41.472" width="357.12" height="266.112"/>
  </clipPath>
 </defs>
</svg>
