<?xml version="1.0" encoding="utf-8" standalone="no"?>
<!DOCTYPE svg PUBLIC "-//W3C//DTD SVG 1.1//EN"
  "http://www.w3.org/Graphics/SVG/1.1/DTD/svg11.dtd">
<svg xmlns:xlink="http://www.w3.org/1999/xlink" width="460.8pt" height="345.6pt" viewBox="0 0 460.8 345.6" xmlns="http://www.w3.org/2000/svg" version="1.1">
 <metadata>
  <rdf:RDF xmlns:dc="http://purl.org/dc/elements/1.1/" xmlns:cc="http://creativecommons.org/ns#" xmlns:rdf="http://www.w3.org/1999/02/22-rdf-syntax-ns#">
   <cc:Work>
    <dc:type rdf:resource="http://purl.org/dc/dcmitype/StillImage"/>
    <dc:date>2024-07-24T12:31:16.890394</dc:date>
    <dc:format>image/svg+xml</dc:format>
    <dc:creator>
     <cc:Agent>
      <dc:title>Matplotlib v3.9.1, https://matplotlib.org/</dc:title>
     </cc:Agent>
    </dc:creator>
   </cc:Work>
  </rdf:RDF>
 </metadata>
 <defs>
  <style type="text/css">*{stroke-linejoin: round; stroke-linecap: butt}</style>
 </defs>
 <g id="figure_1">
  <g id="patch_1">
   <path d="M 0 345.6 
L 460.8 345.6 
L 460.8 0 
L 0 0 
z
" style="fill: #ffffff"/>
  </g>
  <g id="axes_1">
   <g id="patch_2">
    <path d="M 57.6 307.584 
L 414.72 307.584 
L 414.72 41.472 
L 57.6 41.472 
z
" style="fill: #e5e5e5"/>
   </g>
   <g id="matplotlib.axis_1">
    <g id="xtick_1">
     <g id="line2d_1">
      <path d="M 73.832727 307.584 
L 73.832727 41.472 
" clip-path="url(#p7bbc50f438)" style="fill: none; stroke: #ffffff; stroke-width: 0.8; stroke-linecap: square"/>
     </g>
     <g id="line2d_2">
      <defs>
       <path id="m23860f2a8d" d="M 0 0 
L 0 3.5 
" style="stroke: #555555; stroke-width: 0.8"/>
      </defs>
      <g>
       <use xlink:href="#m23860f2a8d" x="73.832727" y="307.584" style="fill: #555555; stroke: #555555; stroke-width: 0.8"/>
      </g>
     </g>
     <g id="text_1">
      <!-- 0 -->
      <g style="fill: #555555" transform="translate(70.651477 322.182437) scale(0.1 -0.1)">
       <defs>
        <path id="DejaVuSans-30" d="M 2034 4250 
Q 1547 4250 1301 3770 
Q 1056 3291 1056 2328 
Q 1056 1369 1301 889 
Q 1547 409 2034 409 
Q 2525 409 2770 889 
Q 3016 1369 3016 2328 
Q 3016 3291 2770 3770 
Q 2525 4250 2034 4250 
z
M 2034 4750 
Q 2819 4750 3233 4129 
Q 3647 3509 3647 2328 
Q 3647 1150 3233 529 
Q 2819 -91 2034 -91 
Q 1250 -91 836 529 
Q 422 1150 422 2328 
Q 422 3509 836 4129 
Q 1250 4750 2034 4750 
z
" transform="scale(0.015625)"/>
       </defs>
       <use xlink:href="#DejaVuSans-30"/>
      </g>
     </g>
    </g>
    <g id="xtick_2">
     <g id="line2d_3">
      <path d="M 114.455168 307.584 
L 114.455168 41.472 
" clip-path="url(#p7bbc50f438)" style="fill: none; stroke: #ffffff; stroke-width: 0.8; stroke-linecap: square"/>
     </g>
     <g id="line2d_4">
      <g>
       <use xlink:href="#m23860f2a8d" x="114.455168" y="307.584" style="fill: #555555; stroke: #555555; stroke-width: 0.8"/>
      </g>
     </g>
     <g id="text_2">
      <!-- 250 -->
      <g style="fill: #555555" transform="translate(104.911418 322.182437) scale(0.1 -0.1)">
       <defs>
        <path id="DejaVuSans-32" d="M 1228 531 
L 3431 531 
L 3431 0 
L 469 0 
L 469 531 
Q 828 903 1448 1529 
Q 2069 2156 2228 2338 
Q 2531 2678 2651 2914 
Q 2772 3150 2772 3378 
Q 2772 3750 2511 3984 
Q 2250 4219 1831 4219 
Q 1534 4219 1204 4116 
Q 875 4013 500 3803 
L 500 4441 
Q 881 4594 1212 4672 
Q 1544 4750 1819 4750 
Q 2544 4750 2975 4387 
Q 3406 4025 3406 3419 
Q 3406 3131 3298 2873 
Q 3191 2616 2906 2266 
Q 2828 2175 2409 1742 
Q 1991 1309 1228 531 
z
" transform="scale(0.015625)"/>
        <path id="DejaVuSans-35" d="M 691 4666 
L 3169 4666 
L 3169 4134 
L 1269 4134 
L 1269 2991 
Q 1406 3038 1543 3061 
Q 1681 3084 1819 3084 
Q 2600 3084 3056 2656 
Q 3513 2228 3513 1497 
Q 3513 744 3044 326 
Q 2575 -91 1722 -91 
Q 1428 -91 1123 -41 
Q 819 9 494 109 
L 494 744 
Q 775 591 1075 516 
Q 1375 441 1709 441 
Q 2250 441 2565 725 
Q 2881 1009 2881 1497 
Q 2881 1984 2565 2268 
Q 2250 2553 1709 2553 
Q 1456 2553 1204 2497 
Q 953 2441 691 2322 
L 691 4666 
z
" transform="scale(0.015625)"/>
       </defs>
       <use xlink:href="#DejaVuSans-32"/>
       <use xlink:href="#DejaVuSans-35" x="63.623047"/>
       <use xlink:href="#DejaVuSans-30" x="127.246094"/>
      </g>
     </g>
    </g>
    <g id="xtick_3">
     <g id="line2d_5">
      <path d="M 155.077609 307.584 
L 155.077609 41.472 
" clip-path="url(#p7bbc50f438)" style="fill: none; stroke: #ffffff; stroke-width: 0.8; stroke-linecap: square"/>
     </g>
     <g id="line2d_6">
      <g>
       <use xlink:href="#m23860f2a8d" x="155.077609" y="307.584" style="fill: #555555; stroke: #555555; stroke-width: 0.8"/>
      </g>
     </g>
     <g id="text_3">
      <!-- 500 -->
      <g style="fill: #555555" transform="translate(145.533859 322.182437) scale(0.1 -0.1)">
       <use xlink:href="#DejaVuSans-35"/>
       <use xlink:href="#DejaVuSans-30" x="63.623047"/>
       <use xlink:href="#DejaVuSans-30" x="127.246094"/>
      </g>
     </g>
    </g>
    <g id="xtick_4">
     <g id="line2d_7">
      <path d="M 195.700049 307.584 
L 195.700049 41.472 
" clip-path="url(#p7bbc50f438)" style="fill: none; stroke: #ffffff; stroke-width: 0.8; stroke-linecap: square"/>
     </g>
     <g id="line2d_8">
      <g>
       <use xlink:href="#m23860f2a8d" x="195.700049" y="307.584" style="fill: #555555; stroke: #555555; stroke-width: 0.8"/>
      </g>
     </g>
     <g id="text_4">
      <!-- 750 -->
      <g style="fill: #555555" transform="translate(186.156299 322.182437) scale(0.1 -0.1)">
       <defs>
        <path id="DejaVuSans-37" d="M 525 4666 
L 3525 4666 
L 3525 4397 
L 1831 0 
L 1172 0 
L 2766 4134 
L 525 4134 
L 525 4666 
z
" transform="scale(0.015625)"/>
       </defs>
       <use xlink:href="#DejaVuSans-37"/>
       <use xlink:href="#DejaVuSans-35" x="63.623047"/>
       <use xlink:href="#DejaVuSans-30" x="127.246094"/>
      </g>
     </g>
    </g>
    <g id="xtick_5">
     <g id="line2d_9">
      <path d="M 236.32249 307.584 
L 236.32249 41.472 
" clip-path="url(#p7bbc50f438)" style="fill: none; stroke: #ffffff; stroke-width: 0.8; stroke-linecap: square"/>
     </g>
     <g id="line2d_10">
      <g>
       <use xlink:href="#m23860f2a8d" x="236.32249" y="307.584" style="fill: #555555; stroke: #555555; stroke-width: 0.8"/>
      </g>
     </g>
     <g id="text_5">
      <!-- 1000 -->
      <g style="fill: #555555" transform="translate(223.59749 322.182437) scale(0.1 -0.1)">
       <defs>
        <path id="DejaVuSans-31" d="M 794 531 
L 1825 531 
L 1825 4091 
L 703 3866 
L 703 4441 
L 1819 4666 
L 2450 4666 
L 2450 531 
L 3481 531 
L 3481 0 
L 794 0 
L 794 531 
z
" transform="scale(0.015625)"/>
       </defs>
       <use xlink:href="#DejaVuSans-31"/>
       <use xlink:href="#DejaVuSans-30" x="63.623047"/>
       <use xlink:href="#DejaVuSans-30" x="127.246094"/>
       <use xlink:href="#DejaVuSans-30" x="190.869141"/>
      </g>
     </g>
    </g>
    <g id="xtick_6">
     <g id="line2d_11">
      <path d="M 276.94493 307.584 
L 276.94493 41.472 
" clip-path="url(#p7bbc50f438)" style="fill: none; stroke: #ffffff; stroke-width: 0.8; stroke-linecap: square"/>
     </g>
     <g id="line2d_12">
      <g>
       <use xlink:href="#m23860f2a8d" x="276.94493" y="307.584" style="fill: #555555; stroke: #555555; stroke-width: 0.8"/>
      </g>
     </g>
     <g id="text_6">
      <!-- 1250 -->
      <g style="fill: #555555" transform="translate(264.21993 322.182437) scale(0.1 -0.1)">
       <use xlink:href="#DejaVuSans-31"/>
       <use xlink:href="#DejaVuSans-32" x="63.623047"/>
       <use xlink:href="#DejaVuSans-35" x="127.246094"/>
       <use xlink:href="#DejaVuSans-30" x="190.869141"/>
      </g>
     </g>
    </g>
    <g id="xtick_7">
     <g id="line2d_13">
      <path d="M 317.567371 307.584 
L 317.567371 41.472 
" clip-path="url(#p7bbc50f438)" style="fill: none; stroke: #ffffff; stroke-width: 0.8; stroke-linecap: square"/>
     </g>
     <g id="line2d_14">
      <g>
       <use xlink:href="#m23860f2a8d" x="317.567371" y="307.584" style="fill: #555555; stroke: #555555; stroke-width: 0.8"/>
      </g>
     </g>
     <g id="text_7">
      <!-- 1500 -->
      <g style="fill: #555555" transform="translate(304.842371 322.182437) scale(0.1 -0.1)">
       <use xlink:href="#DejaVuSans-31"/>
       <use xlink:href="#DejaVuSans-35" x="63.623047"/>
       <use xlink:href="#DejaVuSans-30" x="127.246094"/>
       <use xlink:href="#DejaVuSans-30" x="190.869141"/>
      </g>
     </g>
    </g>
    <g id="xtick_8">
     <g id="line2d_15">
      <path d="M 358.189812 307.584 
L 358.189812 41.472 
" clip-path="url(#p7bbc50f438)" style="fill: none; stroke: #ffffff; stroke-width: 0.8; stroke-linecap: square"/>
     </g>
     <g id="line2d_16">
      <g>
       <use xlink:href="#m23860f2a8d" x="358.189812" y="307.584" style="fill: #555555; stroke: #555555; stroke-width: 0.8"/>
      </g>
     </g>
     <g id="text_8">
      <!-- 1750 -->
      <g style="fill: #555555" transform="translate(345.464812 322.182437) scale(0.1 -0.1)">
       <use xlink:href="#DejaVuSans-31"/>
       <use xlink:href="#DejaVuSans-37" x="63.623047"/>
       <use xlink:href="#DejaVuSans-35" x="127.246094"/>
       <use xlink:href="#DejaVuSans-30" x="190.869141"/>
      </g>
     </g>
    </g>
    <g id="xtick_9">
     <g id="line2d_17">
      <path d="M 398.812252 307.584 
L 398.812252 41.472 
" clip-path="url(#p7bbc50f438)" style="fill: none; stroke: #ffffff; stroke-width: 0.8; stroke-linecap: square"/>
     </g>
     <g id="line2d_18">
      <g>
       <use xlink:href="#m23860f2a8d" x="398.812252" y="307.584" style="fill: #555555; stroke: #555555; stroke-width: 0.8"/>
      </g>
     </g>
     <g id="text_9">
      <!-- 2000 -->
      <g style="fill: #555555" transform="translate(386.087252 322.182437) scale(0.1 -0.1)">
       <use xlink:href="#DejaVuSans-32"/>
       <use xlink:href="#DejaVuSans-30" x="63.623047"/>
       <use xlink:href="#DejaVuSans-30" x="127.246094"/>
       <use xlink:href="#DejaVuSans-30" x="190.869141"/>
      </g>
     </g>
    </g>
    <g id="text_10">
     <!-- Number of Games -->
     <g style="fill: #555555" transform="translate(181.471875 337.38025) scale(0.12 -0.12)">
      <defs>
       <path id="DejaVuSans-4e" d="M 628 4666 
L 1478 4666 
L 3547 763 
L 3547 4666 
L 4159 4666 
L 4159 0 
L 3309 0 
L 1241 3903 
L 1241 0 
L 628 0 
L 628 4666 
z
" transform="scale(0.015625)"/>
       <path id="DejaVuSans-75" d="M 544 1381 
L 544 3500 
L 1119 3500 
L 1119 1403 
Q 1119 906 1312 657 
Q 1506 409 1894 409 
Q 2359 409 2629 706 
Q 2900 1003 2900 1516 
L 2900 3500 
L 3475 3500 
L 3475 0 
L 2900 0 
L 2900 538 
Q 2691 219 2414 64 
Q 2138 -91 1772 -91 
Q 1169 -91 856 284 
Q 544 659 544 1381 
z
M 1991 3584 
L 1991 3584 
z
" transform="scale(0.015625)"/>
       <path id="DejaVuSans-6d" d="M 3328 2828 
Q 3544 3216 3844 3400 
Q 4144 3584 4550 3584 
Q 5097 3584 5394 3201 
Q 5691 2819 5691 2113 
L 5691 0 
L 5113 0 
L 5113 2094 
Q 5113 2597 4934 2840 
Q 4756 3084 4391 3084 
Q 3944 3084 3684 2787 
Q 3425 2491 3425 1978 
L 3425 0 
L 2847 0 
L 2847 2094 
Q 2847 2600 2669 2842 
Q 2491 3084 2119 3084 
Q 1678 3084 1418 2786 
Q 1159 2488 1159 1978 
L 1159 0 
L 581 0 
L 581 3500 
L 1159 3500 
L 1159 2956 
Q 1356 3278 1631 3431 
Q 1906 3584 2284 3584 
Q 2666 3584 2933 3390 
Q 3200 3197 3328 2828 
z
" transform="scale(0.015625)"/>
       <path id="DejaVuSans-62" d="M 3116 1747 
Q 3116 2381 2855 2742 
Q 2594 3103 2138 3103 
Q 1681 3103 1420 2742 
Q 1159 2381 1159 1747 
Q 1159 1113 1420 752 
Q 1681 391 2138 391 
Q 2594 391 2855 752 
Q 3116 1113 3116 1747 
z
M 1159 2969 
Q 1341 3281 1617 3432 
Q 1894 3584 2278 3584 
Q 2916 3584 3314 3078 
Q 3713 2572 3713 1747 
Q 3713 922 3314 415 
Q 2916 -91 2278 -91 
Q 1894 -91 1617 61 
Q 1341 213 1159 525 
L 1159 0 
L 581 0 
L 581 4863 
L 1159 4863 
L 1159 2969 
z
" transform="scale(0.015625)"/>
       <path id="DejaVuSans-65" d="M 3597 1894 
L 3597 1613 
L 953 1613 
Q 991 1019 1311 708 
Q 1631 397 2203 397 
Q 2534 397 2845 478 
Q 3156 559 3463 722 
L 3463 178 
Q 3153 47 2828 -22 
Q 2503 -91 2169 -91 
Q 1331 -91 842 396 
Q 353 884 353 1716 
Q 353 2575 817 3079 
Q 1281 3584 2069 3584 
Q 2775 3584 3186 3129 
Q 3597 2675 3597 1894 
z
M 3022 2063 
Q 3016 2534 2758 2815 
Q 2500 3097 2075 3097 
Q 1594 3097 1305 2825 
Q 1016 2553 972 2059 
L 3022 2063 
z
" transform="scale(0.015625)"/>
       <path id="DejaVuSans-72" d="M 2631 2963 
Q 2534 3019 2420 3045 
Q 2306 3072 2169 3072 
Q 1681 3072 1420 2755 
Q 1159 2438 1159 1844 
L 1159 0 
L 581 0 
L 581 3500 
L 1159 3500 
L 1159 2956 
Q 1341 3275 1631 3429 
Q 1922 3584 2338 3584 
Q 2397 3584 2469 3576 
Q 2541 3569 2628 3553 
L 2631 2963 
z
" transform="scale(0.015625)"/>
       <path id="DejaVuSans-20" transform="scale(0.015625)"/>
       <path id="DejaVuSans-6f" d="M 1959 3097 
Q 1497 3097 1228 2736 
Q 959 2375 959 1747 
Q 959 1119 1226 758 
Q 1494 397 1959 397 
Q 2419 397 2687 759 
Q 2956 1122 2956 1747 
Q 2956 2369 2687 2733 
Q 2419 3097 1959 3097 
z
M 1959 3584 
Q 2709 3584 3137 3096 
Q 3566 2609 3566 1747 
Q 3566 888 3137 398 
Q 2709 -91 1959 -91 
Q 1206 -91 779 398 
Q 353 888 353 1747 
Q 353 2609 779 3096 
Q 1206 3584 1959 3584 
z
" transform="scale(0.015625)"/>
       <path id="DejaVuSans-66" d="M 2375 4863 
L 2375 4384 
L 1825 4384 
Q 1516 4384 1395 4259 
Q 1275 4134 1275 3809 
L 1275 3500 
L 2222 3500 
L 2222 3053 
L 1275 3053 
L 1275 0 
L 697 0 
L 697 3053 
L 147 3053 
L 147 3500 
L 697 3500 
L 697 3744 
Q 697 4328 969 4595 
Q 1241 4863 1831 4863 
L 2375 4863 
z
" transform="scale(0.015625)"/>
       <path id="DejaVuSans-47" d="M 3809 666 
L 3809 1919 
L 2778 1919 
L 2778 2438 
L 4434 2438 
L 4434 434 
Q 4069 175 3628 42 
Q 3188 -91 2688 -91 
Q 1594 -91 976 548 
Q 359 1188 359 2328 
Q 359 3472 976 4111 
Q 1594 4750 2688 4750 
Q 3144 4750 3555 4637 
Q 3966 4525 4313 4306 
L 4313 3634 
Q 3963 3931 3569 4081 
Q 3175 4231 2741 4231 
Q 1884 4231 1454 3753 
Q 1025 3275 1025 2328 
Q 1025 1384 1454 906 
Q 1884 428 2741 428 
Q 3075 428 3337 486 
Q 3600 544 3809 666 
z
" transform="scale(0.015625)"/>
       <path id="DejaVuSans-61" d="M 2194 1759 
Q 1497 1759 1228 1600 
Q 959 1441 959 1056 
Q 959 750 1161 570 
Q 1363 391 1709 391 
Q 2188 391 2477 730 
Q 2766 1069 2766 1631 
L 2766 1759 
L 2194 1759 
z
M 3341 1997 
L 3341 0 
L 2766 0 
L 2766 531 
Q 2569 213 2275 61 
Q 1981 -91 1556 -91 
Q 1019 -91 701 211 
Q 384 513 384 1019 
Q 384 1609 779 1909 
Q 1175 2209 1959 2209 
L 2766 2209 
L 2766 2266 
Q 2766 2663 2505 2880 
Q 2244 3097 1772 3097 
Q 1472 3097 1187 3025 
Q 903 2953 641 2809 
L 641 3341 
Q 956 3463 1253 3523 
Q 1550 3584 1831 3584 
Q 2591 3584 2966 3190 
Q 3341 2797 3341 1997 
z
" transform="scale(0.015625)"/>
       <path id="DejaVuSans-73" d="M 2834 3397 
L 2834 2853 
Q 2591 2978 2328 3040 
Q 2066 3103 1784 3103 
Q 1356 3103 1142 2972 
Q 928 2841 928 2578 
Q 928 2378 1081 2264 
Q 1234 2150 1697 2047 
L 1894 2003 
Q 2506 1872 2764 1633 
Q 3022 1394 3022 966 
Q 3022 478 2636 193 
Q 2250 -91 1575 -91 
Q 1294 -91 989 -36 
Q 684 19 347 128 
L 347 722 
Q 666 556 975 473 
Q 1284 391 1588 391 
Q 1994 391 2212 530 
Q 2431 669 2431 922 
Q 2431 1156 2273 1281 
Q 2116 1406 1581 1522 
L 1381 1569 
Q 847 1681 609 1914 
Q 372 2147 372 2553 
Q 372 3047 722 3315 
Q 1072 3584 1716 3584 
Q 2034 3584 2315 3537 
Q 2597 3491 2834 3397 
z
" transform="scale(0.015625)"/>
      </defs>
      <use xlink:href="#DejaVuSans-4e"/>
      <use xlink:href="#DejaVuSans-75" x="74.804688"/>
      <use xlink:href="#DejaVuSans-6d" x="138.183594"/>
      <use xlink:href="#DejaVuSans-62" x="235.595703"/>
      <use xlink:href="#DejaVuSans-65" x="299.072266"/>
      <use xlink:href="#DejaVuSans-72" x="360.595703"/>
      <use xlink:href="#DejaVuSans-20" x="401.708984"/>
      <use xlink:href="#DejaVuSans-6f" x="433.496094"/>
      <use xlink:href="#DejaVuSans-66" x="494.677734"/>
      <use xlink:href="#DejaVuSans-20" x="529.882812"/>
      <use xlink:href="#DejaVuSans-47" x="561.669922"/>
      <use xlink:href="#DejaVuSans-61" x="639.160156"/>
      <use xlink:href="#DejaVuSans-6d" x="700.439453"/>
      <use xlink:href="#DejaVuSans-65" x="797.851562"/>
      <use xlink:href="#DejaVuSans-73" x="859.375"/>
     </g>
    </g>
   </g>
   <g id="matplotlib.axis_2">
    <g id="ytick_1">
     <g id="line2d_19">
      <path d="M 57.6 307.584 
L 414.72 307.584 
" clip-path="url(#p7bbc50f438)" style="fill: none; stroke: #ffffff; stroke-width: 0.8; stroke-linecap: square"/>
     </g>
     <g id="line2d_20">
      <defs>
       <path id="mfb10b2e5b1" d="M 0 0 
L -3.5 0 
" style="stroke: #555555; stroke-width: 0.8"/>
      </defs>
      <g>
       <use xlink:href="#mfb10b2e5b1" x="57.6" y="307.584" style="fill: #555555; stroke: #555555; stroke-width: 0.8"/>
      </g>
     </g>
     <g id="text_11">
      <!-- 0 -->
      <g style="fill: #555555" transform="translate(44.2375 311.383219) scale(0.1 -0.1)">
       <use xlink:href="#DejaVuSans-30"/>
      </g>
     </g>
    </g>
    <g id="ytick_2">
     <g id="line2d_21">
      <path d="M 57.6 265.792102 
L 414.72 265.792102 
" clip-path="url(#p7bbc50f438)" style="fill: none; stroke: #ffffff; stroke-width: 0.8; stroke-linecap: square"/>
     </g>
     <g id="line2d_22">
      <g>
       <use xlink:href="#mfb10b2e5b1" x="57.6" y="265.792102" style="fill: #555555; stroke: #555555; stroke-width: 0.8"/>
      </g>
     </g>
     <g id="text_12">
      <!-- 2000 -->
      <g style="fill: #555555" transform="translate(25.15 269.591321) scale(0.1 -0.1)">
       <use xlink:href="#DejaVuSans-32"/>
       <use xlink:href="#DejaVuSans-30" x="63.623047"/>
       <use xlink:href="#DejaVuSans-30" x="127.246094"/>
       <use xlink:href="#DejaVuSans-30" x="190.869141"/>
      </g>
     </g>
    </g>
    <g id="ytick_3">
     <g id="line2d_23">
      <path d="M 57.6 224.000204 
L 414.72 224.000204 
" clip-path="url(#p7bbc50f438)" style="fill: none; stroke: #ffffff; stroke-width: 0.8; stroke-linecap: square"/>
     </g>
     <g id="line2d_24">
      <g>
       <use xlink:href="#mfb10b2e5b1" x="57.6" y="224.000204" style="fill: #555555; stroke: #555555; stroke-width: 0.8"/>
      </g>
     </g>
     <g id="text_13">
      <!-- 4000 -->
      <g style="fill: #555555" transform="translate(25.15 227.799423) scale(0.1 -0.1)">
       <defs>
        <path id="DejaVuSans-34" d="M 2419 4116 
L 825 1625 
L 2419 1625 
L 2419 4116 
z
M 2253 4666 
L 3047 4666 
L 3047 1625 
L 3713 1625 
L 3713 1100 
L 3047 1100 
L 3047 0 
L 2419 0 
L 2419 1100 
L 313 1100 
L 313 1709 
L 2253 4666 
z
" transform="scale(0.015625)"/>
       </defs>
       <use xlink:href="#DejaVuSans-34"/>
       <use xlink:href="#DejaVuSans-30" x="63.623047"/>
       <use xlink:href="#DejaVuSans-30" x="127.246094"/>
       <use xlink:href="#DejaVuSans-30" x="190.869141"/>
      </g>
     </g>
    </g>
    <g id="ytick_4">
     <g id="line2d_25">
      <path d="M 57.6 182.208306 
L 414.72 182.208306 
" clip-path="url(#p7bbc50f438)" style="fill: none; stroke: #ffffff; stroke-width: 0.8; stroke-linecap: square"/>
     </g>
     <g id="line2d_26">
      <g>
       <use xlink:href="#mfb10b2e5b1" x="57.6" y="182.208306" style="fill: #555555; stroke: #555555; stroke-width: 0.8"/>
      </g>
     </g>
     <g id="text_14">
      <!-- 6000 -->
      <g style="fill: #555555" transform="translate(25.15 186.007525) scale(0.1 -0.1)">
       <defs>
        <path id="DejaVuSans-36" d="M 2113 2584 
Q 1688 2584 1439 2293 
Q 1191 2003 1191 1497 
Q 1191 994 1439 701 
Q 1688 409 2113 409 
Q 2538 409 2786 701 
Q 3034 994 3034 1497 
Q 3034 2003 2786 2293 
Q 2538 2584 2113 2584 
z
M 3366 4563 
L 3366 3988 
Q 3128 4100 2886 4159 
Q 2644 4219 2406 4219 
Q 1781 4219 1451 3797 
Q 1122 3375 1075 2522 
Q 1259 2794 1537 2939 
Q 1816 3084 2150 3084 
Q 2853 3084 3261 2657 
Q 3669 2231 3669 1497 
Q 3669 778 3244 343 
Q 2819 -91 2113 -91 
Q 1303 -91 875 529 
Q 447 1150 447 2328 
Q 447 3434 972 4092 
Q 1497 4750 2381 4750 
Q 2619 4750 2861 4703 
Q 3103 4656 3366 4563 
z
" transform="scale(0.015625)"/>
       </defs>
       <use xlink:href="#DejaVuSans-36"/>
       <use xlink:href="#DejaVuSans-30" x="63.623047"/>
       <use xlink:href="#DejaVuSans-30" x="127.246094"/>
       <use xlink:href="#DejaVuSans-30" x="190.869141"/>
      </g>
     </g>
    </g>
    <g id="ytick_5">
     <g id="line2d_27">
      <path d="M 57.6 140.416408 
L 414.72 140.416408 
" clip-path="url(#p7bbc50f438)" style="fill: none; stroke: #ffffff; stroke-width: 0.8; stroke-linecap: square"/>
     </g>
     <g id="line2d_28">
      <g>
       <use xlink:href="#mfb10b2e5b1" x="57.6" y="140.416408" style="fill: #555555; stroke: #555555; stroke-width: 0.8"/>
      </g>
     </g>
     <g id="text_15">
      <!-- 8000 -->
      <g style="fill: #555555" transform="translate(25.15 144.215627) scale(0.1 -0.1)">
       <defs>
        <path id="DejaVuSans-38" d="M 2034 2216 
Q 1584 2216 1326 1975 
Q 1069 1734 1069 1313 
Q 1069 891 1326 650 
Q 1584 409 2034 409 
Q 2484 409 2743 651 
Q 3003 894 3003 1313 
Q 3003 1734 2745 1975 
Q 2488 2216 2034 2216 
z
M 1403 2484 
Q 997 2584 770 2862 
Q 544 3141 544 3541 
Q 544 4100 942 4425 
Q 1341 4750 2034 4750 
Q 2731 4750 3128 4425 
Q 3525 4100 3525 3541 
Q 3525 3141 3298 2862 
Q 3072 2584 2669 2484 
Q 3125 2378 3379 2068 
Q 3634 1759 3634 1313 
Q 3634 634 3220 271 
Q 2806 -91 2034 -91 
Q 1263 -91 848 271 
Q 434 634 434 1313 
Q 434 1759 690 2068 
Q 947 2378 1403 2484 
z
M 1172 3481 
Q 1172 3119 1398 2916 
Q 1625 2713 2034 2713 
Q 2441 2713 2670 2916 
Q 2900 3119 2900 3481 
Q 2900 3844 2670 4047 
Q 2441 4250 2034 4250 
Q 1625 4250 1398 4047 
Q 1172 3844 1172 3481 
z
" transform="scale(0.015625)"/>
       </defs>
       <use xlink:href="#DejaVuSans-38"/>
       <use xlink:href="#DejaVuSans-30" x="63.623047"/>
       <use xlink:href="#DejaVuSans-30" x="127.246094"/>
       <use xlink:href="#DejaVuSans-30" x="190.869141"/>
      </g>
     </g>
    </g>
    <g id="ytick_6">
     <g id="line2d_29">
      <path d="M 57.6 98.62451 
L 414.72 98.62451 
" clip-path="url(#p7bbc50f438)" style="fill: none; stroke: #ffffff; stroke-width: 0.8; stroke-linecap: square"/>
     </g>
     <g id="line2d_30">
      <g>
       <use xlink:href="#mfb10b2e5b1" x="57.6" y="98.62451" style="fill: #555555; stroke: #555555; stroke-width: 0.8"/>
      </g>
     </g>
     <g id="text_16">
      <!-- 10000 -->
      <g style="fill: #555555" transform="translate(18.7875 102.423729) scale(0.1 -0.1)">
       <use xlink:href="#DejaVuSans-31"/>
       <use xlink:href="#DejaVuSans-30" x="63.623047"/>
       <use xlink:href="#DejaVuSans-30" x="127.246094"/>
       <use xlink:href="#DejaVuSans-30" x="190.869141"/>
       <use xlink:href="#DejaVuSans-30" x="254.492188"/>
      </g>
     </g>
    </g>
    <g id="ytick_7">
     <g id="line2d_31">
      <path d="M 57.6 56.832612 
L 414.72 56.832612 
" clip-path="url(#p7bbc50f438)" style="fill: none; stroke: #ffffff; stroke-width: 0.8; stroke-linecap: square"/>
     </g>
     <g id="line2d_32">
      <g>
       <use xlink:href="#mfb10b2e5b1" x="57.6" y="56.832612" style="fill: #555555; stroke: #555555; stroke-width: 0.8"/>
      </g>
     </g>
     <g id="text_17">
      <!-- 12000 -->
      <g style="fill: #555555" transform="translate(18.7875 60.631831) scale(0.1 -0.1)">
       <use xlink:href="#DejaVuSans-31"/>
       <use xlink:href="#DejaVuSans-32" x="63.623047"/>
       <use xlink:href="#DejaVuSans-30" x="127.246094"/>
       <use xlink:href="#DejaVuSans-30" x="190.869141"/>
       <use xlink:href="#DejaVuSans-30" x="254.492188"/>
      </g>
     </g>
    </g>
    <g id="text_18">
     <!-- Reward -->
     <g style="fill: #555555" transform="translate(12.291875 196.873312) rotate(-90) scale(0.12 -0.12)">
      <defs>
       <path id="DejaVuSans-52" d="M 2841 2188 
Q 3044 2119 3236 1894 
Q 3428 1669 3622 1275 
L 4263 0 
L 3584 0 
L 2988 1197 
Q 2756 1666 2539 1819 
Q 2322 1972 1947 1972 
L 1259 1972 
L 1259 0 
L 628 0 
L 628 4666 
L 2053 4666 
Q 2853 4666 3247 4331 
Q 3641 3997 3641 3322 
Q 3641 2881 3436 2590 
Q 3231 2300 2841 2188 
z
M 1259 4147 
L 1259 2491 
L 2053 2491 
Q 2509 2491 2742 2702 
Q 2975 2913 2975 3322 
Q 2975 3731 2742 3939 
Q 2509 4147 2053 4147 
L 1259 4147 
z
" transform="scale(0.015625)"/>
       <path id="DejaVuSans-77" d="M 269 3500 
L 844 3500 
L 1563 769 
L 2278 3500 
L 2956 3500 
L 3675 769 
L 4391 3500 
L 4966 3500 
L 4050 0 
L 3372 0 
L 2619 2869 
L 1863 0 
L 1184 0 
L 269 3500 
z
" transform="scale(0.015625)"/>
       <path id="DejaVuSans-64" d="M 2906 2969 
L 2906 4863 
L 3481 4863 
L 3481 0 
L 2906 0 
L 2906 525 
Q 2725 213 2448 61 
Q 2172 -91 1784 -91 
Q 1150 -91 751 415 
Q 353 922 353 1747 
Q 353 2572 751 3078 
Q 1150 3584 1784 3584 
Q 2172 3584 2448 3432 
Q 2725 3281 2906 2969 
z
M 947 1747 
Q 947 1113 1208 752 
Q 1469 391 1925 391 
Q 2381 391 2643 752 
Q 2906 1113 2906 1747 
Q 2906 2381 2643 2742 
Q 2381 3103 1925 3103 
Q 1469 3103 1208 2742 
Q 947 2381 947 1747 
z
" transform="scale(0.015625)"/>
      </defs>
      <use xlink:href="#DejaVuSans-52"/>
      <use xlink:href="#DejaVuSans-65" x="64.982422"/>
      <use xlink:href="#DejaVuSans-77" x="126.505859"/>
      <use xlink:href="#DejaVuSans-61" x="208.292969"/>
      <use xlink:href="#DejaVuSans-72" x="269.572266"/>
      <use xlink:href="#DejaVuSans-64" x="308.935547"/>
     </g>
    </g>
   </g>
   <g id="line2d_33">
    <path d="M 73.832727 307.186977 
L 74.320197 307.228769 
L 74.482686 307.166081 
L 74.807666 307.270561 
L 75.132645 307.186977 
L 75.295135 307.333249 
L 75.945094 307.186977 
L 76.107584 307.333249 
L 76.432563 307.207873 
L 76.595053 307.249665 
L 76.920033 307.186977 
L 77.082523 307.145185 
L 77.245012 307.291457 
L 77.407502 307.124289 
L 77.894971 307.249665 
L 78.057461 307.333249 
L 78.219951 307.207873 
L 78.382441 306.894434 
L 78.54493 307.333249 
L 78.70742 307.103393 
L 79.0324 307.291457 
L 79.357379 307.145185 
L 79.682359 307.354145 
L 79.844848 307.019809 
L 80.007338 307.249665 
L 80.169828 307.145185 
L 80.332318 307.375041 
L 80.819787 307.145185 
L 80.982277 307.416832 
L 81.144767 307.416832 
L 81.469746 307.145185 
L 82.444685 307.312353 
L 82.769664 307.166081 
L 83.094644 307.312353 
L 83.257133 307.228769 
L 83.419623 307.270561 
L 83.582113 307.186977 
L 83.744603 307.333249 
L 83.907093 307.270561 
L 84.069582 307.082497 
L 84.394562 307.291457 
L 85.044521 307.166081 
L 85.3695 307.437728 
L 85.69448 307.249665 
L 86.019459 307.291457 
L 86.994398 307.186977 
L 87.156888 307.375041 
L 87.319378 307.249665 
L 87.644357 307.270561 
L 87.806847 307.124289 
L 87.969337 307.333249 
L 88.294316 307.186977 
L 88.456806 307.124289 
L 88.781785 307.291457 
L 88.944275 307.186977 
L 89.594234 307.249665 
L 90.081704 307.270561 
L 90.244193 307.333249 
L 90.569173 307.061601 
L 90.894152 307.416832 
L 91.219132 307.061601 
L 91.381622 307.354145 
L 91.706601 307.145185 
L 92.35656 307.228769 
L 92.51905 307.186977 
L 92.68154 307.291457 
L 92.844029 307.186977 
L 93.006519 307.291457 
L 93.169009 307.061601 
L 93.331499 307.375041 
L 93.656478 307.228769 
L 93.818968 307.270561 
L 93.981458 307.166081 
L 94.143948 307.333249 
L 94.306437 307.249665 
L 94.468927 307.333249 
L 94.793907 307.249665 
L 94.956396 307.312353 
L 95.118886 307.207873 
L 95.281376 307.312353 
L 95.443866 307.207873 
L 95.768845 307.333249 
L 95.931335 307.186977 
L 96.093825 307.312353 
L 96.256314 307.040705 
L 96.581294 307.375041 
L 96.743784 307.291457 
L 96.906274 307.354145 
L 97.068763 307.186977 
L 97.718722 307.270561 
L 97.881212 307.186977 
L 98.043702 307.291457 
L 98.206192 307.207873 
L 98.368681 307.333249 
L 98.693661 307.291457 
L 99.01864 307.375041 
L 99.34362 307.186977 
L 99.50611 307.249665 
L 99.6686 307.186977 
L 99.831089 307.333249 
L 100.156069 307.249665 
L 100.318559 307.124289 
L 100.481048 307.228769 
L 100.806028 307.145185 
L 101.131007 307.354145 
L 101.455987 307.291457 
L 101.618477 307.228769 
L 101.780966 307.312353 
L 101.943456 307.207873 
L 102.105946 307.270561 
L 102.268436 307.103393 
L 102.430925 307.312353 
L 103.080885 307.354145 
L 103.243374 307.124289 
L 103.405864 307.312353 
L 104.055823 307.166081 
L 104.218313 307.291457 
L 104.705782 307.186977 
L 104.868272 307.333249 
L 105.030762 307.124289 
L 105.193251 307.312353 
L 105.355741 307.312353 
L 105.680721 307.145185 
L 106.0057 307.375041 
L 106.49317 307.103393 
L 106.655659 307.312353 
L 106.818149 307.249665 
L 106.980639 307.312353 
L 107.305618 307.228769 
L 107.955577 307.103393 
L 108.280557 307.375041 
L 108.443047 307.145185 
L 108.768026 307.228769 
L 109.093006 307.207873 
L 109.255495 307.333249 
L 109.580475 307.207873 
L 109.742965 307.124289 
L 110.067944 307.228769 
L 110.230434 307.124289 
L 110.555414 307.270561 
L 110.717903 307.207873 
L 111.205373 307.375041 
L 111.367862 307.186977 
L 111.530352 307.291457 
L 111.692842 307.082497 
L 111.855332 307.354145 
L 112.83027 307.166081 
L 112.99276 307.333249 
L 113.31774 307.166081 
L 113.967699 307.437728 
L 114.130188 306.894434 
L 114.292678 307.166081 
L 114.942637 307.270561 
L 115.430106 307.166081 
L 115.592596 307.270561 
L 115.755086 307.186977 
L 115.917576 307.291457 
L 116.080066 307.040705 
L 116.242555 307.270561 
L 116.730025 307.312353 
L 117.055004 307.166081 
L 117.217494 307.312353 
L 117.379984 307.186977 
L 117.542473 307.333249 
L 117.867453 307.103393 
L 118.029943 307.270561 
L 118.192432 307.228769 
L 118.517412 306.91533 
L 118.679902 307.333249 
L 118.842391 307.103393 
L 119.004881 307.333249 
L 119.65484 307.145185 
L 119.81733 307.270561 
L 119.97982 307.249665 
L 120.14231 307.061601 
L 120.304799 307.249665 
L 120.629779 307.103393 
L 120.792269 307.312353 
L 120.954758 307.166081 
L 121.117248 307.291457 
L 121.279738 307.186977 
L 121.604717 307.312353 
L 121.929697 307.124289 
L 122.092187 307.354145 
L 122.417166 307.270561 
L 122.742146 307.291457 
L 123.067125 307.186977 
L 123.229615 307.375041 
L 123.392105 307.166081 
L 123.554595 307.333249 
L 123.717084 307.228769 
L 123.879574 307.354145 
L 124.042064 307.145185 
L 124.204554 307.333249 
L 124.854513 307.186977 
L 125.017002 307.249665 
L 125.179492 307.103393 
L 125.504472 307.186977 
L 125.666962 307.395936 
L 126.316921 307.124289 
L 126.6419 307.207873 
L 126.80439 307.228769 
L 126.96688 307.375041 
L 127.291859 306.789954 
L 127.454349 307.186977 
L 127.779328 307.124289 
L 128.916757 307.354145 
L 129.079247 307.166081 
L 129.241736 307.291457 
L 129.566716 307.124289 
L 130.054185 307.270561 
L 130.216675 307.249665 
L 130.379165 307.375041 
L 131.029124 307.395936 
L 131.191613 307.124289 
L 131.516593 307.270561 
L 131.679083 307.354145 
L 131.841572 307.124289 
L 132.166552 307.207873 
L 132.491532 307.207873 
L 132.654021 307.354145 
L 133.141491 306.978017 
L 133.30398 307.228769 
L 133.46647 307.061601 
L 133.62896 307.291457 
L 133.79145 307.312353 
L 133.953939 307.103393 
L 134.116429 307.333249 
L 134.278919 307.186977 
L 134.766388 307.354145 
L 134.928878 307.040705 
L 135.091368 307.228769 
L 135.253857 306.873538 
L 135.416347 307.145185 
L 135.741327 307.228769 
L 136.066306 307.228769 
L 136.228796 307.207873 
L 136.391286 307.061601 
L 136.553776 307.249665 
L 137.041245 307.103393 
L 137.691204 307.186977 
L 137.853694 307.166081 
L 138.016183 307.354145 
L 138.178673 307.228769 
L 138.503653 307.395936 
L 138.828632 306.852642 
L 138.991122 307.354145 
L 139.153612 307.082497 
L 139.316102 307.207873 
L 139.478591 307.186977 
L 139.641081 307.333249 
L 139.966061 307.166081 
L 140.12855 307.145185 
L 140.29104 307.312353 
L 140.45353 307.145185 
L 140.61602 307.291457 
L 140.940999 307.124289 
L 141.103489 307.312353 
L 141.265979 307.103393 
L 141.590958 307.291457 
L 141.753448 307.166081 
L 141.915938 307.291457 
L 142.890876 307.249665 
L 143.053366 307.333249 
L 143.378346 306.894434 
L 143.540835 307.186977 
L 143.703325 306.769058 
L 143.865815 307.186977 
L 144.190794 307.186977 
L 144.515774 307.207873 
L 144.678264 306.998913 
L 144.840753 307.270561 
L 145.003243 307.061601 
L 145.165733 307.207873 
L 145.328223 307.186977 
L 145.490713 307.291457 
L 145.815692 307.166081 
L 145.978182 307.186977 
L 146.140672 306.91533 
L 146.303161 307.207873 
L 146.465651 307.207873 
L 146.628141 307.333249 
L 147.765569 307.124289 
L 147.928059 307.207873 
L 148.578018 307.145185 
L 148.740508 307.395936 
L 149.065487 307.207873 
L 149.552957 307.103393 
L 149.715446 306.831746 
L 149.877936 307.312353 
L 150.040426 307.291457 
L 150.202916 307.061601 
L 150.690385 307.166081 
L 150.852875 307.333249 
L 151.015364 307.186977 
L 151.177854 307.207873 
L 151.340344 306.81085 
L 151.502834 307.270561 
L 151.990303 307.270561 
L 152.152793 307.061601 
L 152.315283 307.103393 
L 152.477772 306.978017 
L 152.640262 307.166081 
L 152.965242 307.082497 
L 153.290221 307.145185 
L 153.615201 307.166081 
L 154.26516 307.186977 
L 154.427649 307.333249 
L 154.590139 307.228769 
L 154.752629 306.936226 
L 154.915119 307.166081 
L 155.402588 307.124289 
L 155.565078 307.291457 
L 156.215037 306.998913 
L 156.377527 307.124289 
L 156.540016 306.957122 
L 156.702506 307.166081 
L 156.864996 307.186977 
L 157.027486 307.019809 
L 157.352465 307.270561 
L 157.677445 307.103393 
L 157.839934 307.249665 
L 158.002424 307.186977 
L 158.164914 307.270561 
L 158.327404 307.145185 
L 158.489894 306.81085 
L 158.652383 307.228769 
L 158.814873 307.145185 
L 158.977363 306.748162 
L 159.139853 307.228769 
L 159.302342 307.249665 
L 159.464832 307.145185 
L 159.627322 307.207873 
L 159.789812 307.040705 
L 159.952301 307.186977 
L 160.277281 307.103393 
L 160.439771 307.228769 
L 160.60226 307.124289 
L 160.76475 307.312353 
L 161.08973 307.166081 
L 161.252219 307.103393 
L 161.414709 306.81085 
L 161.577199 307.166081 
L 161.739689 307.103393 
L 161.902179 307.228769 
L 162.227158 307.103393 
L 162.389648 307.375041 
L 162.714627 306.873538 
L 163.039607 307.249665 
L 163.527076 306.894434 
L 163.689566 307.061601 
L 163.852056 307.019809 
L 164.014545 306.434723 
L 164.177035 307.249665 
L 164.339525 307.270561 
L 164.502015 307.103393 
L 164.989484 307.312353 
L 165.151974 306.685474 
L 165.314464 307.103393 
L 165.476953 307.166081 
L 165.639443 306.894434 
L 165.801933 307.249665 
L 165.964423 306.91533 
L 166.451892 307.186977 
L 166.614382 307.145185 
L 166.776871 307.312353 
L 166.939361 307.124289 
L 167.264341 307.228769 
L 167.42683 307.228769 
L 167.58932 307.061601 
L 168.07679 307.228769 
L 168.239279 307.166081 
L 168.401769 307.270561 
L 168.726749 307.145185 
L 169.051728 307.166081 
L 169.864177 307.124289 
L 170.189156 307.270561 
L 170.514136 307.124289 
L 170.676626 307.207873 
L 170.839115 307.103393 
L 171.001605 307.166081 
L 171.164095 307.103393 
L 171.326585 307.354145 
L 171.489075 306.936226 
L 171.651564 306.998913 
L 171.814054 307.249665 
L 171.976544 307.103393 
L 172.139034 307.270561 
L 172.301523 306.664578 
L 172.464013 307.103393 
L 172.788993 307.124289 
L 173.113972 307.291457 
L 173.276462 306.81085 
L 173.438952 307.270561 
L 173.601441 307.186977 
L 173.763931 307.249665 
L 173.926421 307.082497 
L 174.088911 307.207873 
L 174.2514 307.061601 
L 174.57638 307.291457 
L 175.063849 307.019809 
L 175.226339 307.186977 
L 175.388829 306.769058 
L 175.551319 307.312353 
L 175.713808 307.186977 
L 175.876298 307.291457 
L 176.201278 306.998913 
L 176.526257 307.291457 
L 176.688747 307.145185 
L 176.851237 307.291457 
L 177.013726 307.186977 
L 177.338706 307.186977 
L 177.826175 307.103393 
L 178.151155 307.166081 
L 178.313645 307.166081 
L 178.476134 306.748162 
L 178.638624 306.727266 
L 178.801114 307.124289 
L 178.963604 306.70637 
L 179.451073 307.207873 
L 179.613563 307.019809 
L 179.938542 307.124289 
L 180.426011 307.103393 
L 180.588501 307.186977 
L 180.750991 307.082497 
L 180.913481 307.166081 
L 181.23846 307.124289 
L 181.40095 307.228769 
L 181.56344 307.186977 
L 181.72593 306.998913 
L 182.538378 307.249665 
L 182.700868 306.831746 
L 183.025848 307.186977 
L 183.838296 307.019809 
L 184.000786 307.124289 
L 184.163276 306.91533 
L 184.325766 307.103393 
L 184.488256 306.936226 
L 184.650745 307.124289 
L 184.813235 307.061601 
L 184.975725 307.186977 
L 185.300704 307.124289 
L 185.463194 306.894434 
L 185.788174 307.249665 
L 185.950663 306.580994 
L 186.113153 307.207873 
L 186.275643 306.81085 
L 186.438133 307.395936 
L 186.600622 307.103393 
L 186.763112 306.580994 
L 186.925602 307.019809 
L 187.088092 307.124289 
L 187.250581 307.019809 
L 187.413071 307.166081 
L 187.575561 307.082497 
L 187.738051 307.249665 
L 187.900541 307.207873 
L 188.06303 306.769058 
L 188.22552 307.124289 
L 188.5505 307.103393 
L 188.712989 306.873538 
L 188.875479 306.936226 
L 189.200459 306.560098 
L 189.362948 307.124289 
L 190.662867 307.061601 
L 190.825356 307.249665 
L 190.987846 306.936226 
L 191.150336 307.145185 
L 191.312826 306.978017 
L 191.800295 307.270561 
L 192.125274 306.957122 
L 192.450254 307.145185 
L 192.612744 306.727266 
L 192.775233 307.166081 
L 192.937723 307.061601 
L 193.262703 307.291457 
L 193.425192 307.103393 
L 193.750172 307.186977 
L 194.075152 307.040705 
L 194.400131 307.207873 
L 194.562621 307.061601 
L 194.725111 307.103393 
L 194.8876 306.936226 
L 195.05009 307.249665 
L 195.21258 307.082497 
L 195.537559 307.103393 
L 195.700049 306.936226 
L 195.862539 307.124289 
L 196.025029 306.518307 
L 196.187518 307.019809 
L 196.350008 306.936226 
L 196.512498 307.228769 
L 196.674988 307.019809 
L 197.487437 307.249665 
L 197.812416 306.81085 
L 198.462375 307.186977 
L 198.624865 307.082497 
L 198.787355 307.186977 
L 198.949844 307.103393 
L 199.112334 307.166081 
L 199.437314 306.873538 
L 199.599803 307.124289 
L 199.762293 307.040705 
L 199.924783 307.207873 
L 200.087273 307.166081 
L 200.249762 306.497411 
L 200.412252 306.539203 
L 200.737232 307.186977 
L 201.062211 307.145185 
L 201.224701 306.852642 
L 201.387191 307.186977 
L 201.71217 307.061601 
L 201.87466 307.124289 
L 202.19964 306.91533 
L 202.362129 307.207873 
L 202.524619 306.957122 
L 202.687109 307.270561 
L 203.012088 307.082497 
L 203.174578 307.166081 
L 203.662048 307.019809 
L 204.149517 307.082497 
L 204.312007 306.789954 
L 204.636986 307.145185 
L 204.799476 307.145185 
L 204.961966 307.291457 
L 205.449435 306.789954 
L 205.774414 307.145185 
L 206.099394 306.998913 
L 206.261884 307.186977 
L 206.424373 306.267555 
L 206.586863 307.040705 
L 206.749353 306.91533 
L 206.911843 306.622786 
L 207.074333 307.082497 
L 207.236822 307.019809 
L 207.561802 306.727266 
L 207.724292 307.040705 
L 207.886781 307.103393 
L 208.049271 306.978017 
L 208.211761 307.228769 
L 208.69923 306.998913 
L 209.02421 307.291457 
L 209.349189 306.873538 
L 209.674169 307.124289 
L 210.161638 306.789954 
L 210.324128 307.082497 
L 210.486618 306.789954 
L 210.649107 307.082497 
L 211.136577 307.145185 
L 211.299066 307.249665 
L 211.461556 307.061601 
L 211.786536 307.145185 
L 211.949025 306.91533 
L 212.111515 306.183971 
L 212.274005 307.103393 
L 212.598984 307.061601 
L 212.923964 307.186977 
L 213.086454 306.70637 
L 213.248943 307.061601 
L 213.411433 306.497411 
L 213.573923 307.186977 
L 213.898903 306.70637 
L 214.061392 306.664578 
L 214.548862 307.082497 
L 214.711351 306.978017 
L 215.036331 305.954116 
L 215.198821 307.040705 
L 215.84878 307.166081 
L 216.011269 306.91533 
L 216.173759 307.207873 
L 216.336249 306.727266 
L 216.498739 306.643682 
L 216.661229 307.166081 
L 216.823718 307.082497 
L 216.986208 306.81085 
L 217.148698 307.228769 
L 217.311188 307.103393 
L 217.473677 306.81085 
L 217.636167 306.894434 
L 217.798657 307.166081 
L 218.123636 306.70637 
L 218.286126 307.124289 
L 218.448616 306.831746 
L 218.611106 305.995908 
L 218.773595 306.372035 
L 218.936085 307.354145 
L 219.098575 307.228769 
L 219.261065 306.727266 
L 219.423554 307.040705 
L 219.911024 307.040705 
L 220.073514 306.163075 
L 220.236003 306.957122 
L 220.398493 307.040705 
L 220.560983 306.831746 
L 220.723473 306.852642 
L 220.885962 306.998913 
L 221.048452 306.978017 
L 221.210942 306.748162 
L 221.373432 307.270561 
L 221.698411 307.103393 
L 221.860901 307.333249 
L 222.023391 307.145185 
L 222.18588 307.166081 
L 222.34837 306.664578 
L 222.51086 306.789954 
L 222.67335 307.061601 
L 222.998329 306.727266 
L 223.160819 306.748162 
L 223.323309 307.207873 
L 223.485799 306.936226 
L 223.810778 307.124289 
L 223.973268 306.434723 
L 224.135758 306.978017 
L 224.460737 307.082497 
L 224.623227 306.748162 
L 224.785717 307.061601 
L 224.948206 307.082497 
L 225.110696 306.560098 
L 225.435676 307.061601 
L 225.598165 306.727266 
L 225.760655 306.789954 
L 225.923145 307.082497 
L 226.085635 306.81085 
L 226.248124 307.019809 
L 226.410614 306.852642 
L 226.573104 307.061601 
L 226.735594 306.413827 
L 227.060573 307.082497 
L 227.385553 307.207873 
L 227.548043 307.103393 
L 227.710532 307.145185 
L 227.873022 306.957122 
L 228.035512 306.957122 
L 228.360491 306.539203 
L 228.522981 307.061601 
L 228.685471 307.019809 
L 228.847961 306.0377 
L 229.33543 307.124289 
L 229.49792 307.228769 
L 229.822899 306.978017 
L 229.985389 306.70637 
L 230.147879 306.769058 
L 230.310369 307.145185 
L 230.960328 306.998913 
L 231.122817 306.727266 
L 231.285307 307.061601 
L 231.447797 307.082497 
L 231.610287 306.831746 
L 231.772776 307.082497 
L 231.935266 306.580994 
L 232.097756 306.957122 
L 232.260246 306.183971 
L 232.585225 307.124289 
L 233.072695 306.727266 
L 233.235184 307.145185 
L 233.397674 306.246659 
L 233.560164 307.103393 
L 233.722654 306.748162 
L 233.885143 307.061601 
L 234.047633 306.998913 
L 234.210123 306.60189 
L 234.372613 307.103393 
L 234.535102 306.957122 
L 234.697592 306.518307 
L 234.860082 306.978017 
L 235.022572 307.103393 
L 235.185061 306.978017 
L 235.347551 306.497411 
L 235.510041 307.103393 
L 235.672531 307.124289 
L 235.83502 306.664578 
L 236.16 307.103393 
L 236.48498 306.643682 
L 236.647469 306.748162 
L 236.809959 307.061601 
L 236.972449 306.789954 
L 237.134939 307.040705 
L 237.297428 306.769058 
L 237.622408 307.103393 
L 237.947387 307.103393 
L 238.109877 306.831746 
L 238.272367 307.061601 
L 238.434857 306.560098 
L 238.759836 307.040705 
L 238.922326 306.225763 
L 239.084816 307.061601 
L 239.897265 307.061601 
L 240.059754 307.249665 
L 240.384734 306.70637 
L 240.872203 307.103393 
L 241.034693 306.831746 
L 241.197183 307.019809 
L 241.359672 306.643682 
L 241.522162 307.082497 
L 241.684652 307.061601 
L 242.172121 306.476515 
L 242.334611 307.145185 
L 242.497101 306.685474 
L 242.82208 306.70637 
L 242.98457 307.082497 
L 243.14706 307.019809 
L 243.30955 307.166081 
L 243.472039 307.145185 
L 243.797019 306.664578 
L 243.959509 307.019809 
L 244.121998 306.957122 
L 244.284488 306.769058 
L 244.609468 307.061601 
L 244.771957 307.103393 
L 245.096937 306.476515 
L 245.259427 307.061601 
L 245.584406 307.124289 
L 245.746896 306.789954 
L 245.909386 307.082497 
L 246.071876 306.664578 
L 246.234365 307.207873 
L 246.396855 306.727266 
L 246.559345 306.998913 
L 246.721835 306.392931 
L 246.884324 307.061601 
L 247.209304 306.873538 
L 247.371794 306.476515 
L 247.534283 307.082497 
L 247.859263 305.912324 
L 248.184242 307.145185 
L 248.346732 307.061601 
L 248.509222 306.288451 
L 248.671712 307.061601 
L 248.834201 306.998913 
L 248.996691 306.664578 
L 249.159181 307.040705 
L 249.321671 306.769058 
L 249.484161 306.957122 
L 249.64665 306.351139 
L 249.97163 307.019809 
L 250.621589 306.978017 
L 250.784079 306.70637 
L 250.946568 306.873538 
L 251.109058 307.270561 
L 251.271548 307.082497 
L 251.434038 307.082497 
L 251.596527 306.769058 
L 251.759017 307.019809 
L 252.246486 307.145185 
L 252.408976 306.789954 
L 252.571466 307.040705 
L 252.896446 306.748162 
L 253.058935 306.998913 
L 253.221425 306.727266 
L 253.383915 306.685474 
L 253.546405 306.769058 
L 253.708894 307.207873 
L 254.033874 306.727266 
L 254.358853 307.166081 
L 254.521343 307.124289 
L 254.683833 306.60189 
L 254.846323 307.103393 
L 255.008812 306.622786 
L 255.171302 307.103393 
L 255.333792 305.93322 
L 255.496282 307.082497 
L 255.658771 307.061601 
L 255.821261 307.166081 
L 255.983751 307.103393 
L 256.146241 306.225763 
L 256.308731 306.434723 
L 256.47122 307.186977 
L 256.63371 306.748162 
L 256.7962 307.082497 
L 256.95869 306.936226 
L 257.121179 306.476515 
L 257.283669 306.998913 
L 257.446159 305.661573 
L 257.608649 306.894434 
L 257.771138 306.413827 
L 257.933628 306.664578 
L 258.096118 306.267555 
L 258.258608 307.103393 
L 258.421097 307.103393 
L 258.583587 306.769058 
L 258.746077 306.70637 
L 259.071057 306.183971 
L 259.233546 305.82874 
L 259.396036 306.748162 
L 259.558526 306.204867 
L 259.721016 307.082497 
L 259.883505 306.392931 
L 260.045995 307.040705 
L 260.208485 306.748162 
L 260.533464 307.103393 
L 260.695954 307.124289 
L 260.858444 306.81085 
L 261.020934 305.745156 
L 261.183423 305.891428 
L 261.345913 307.103393 
L 261.508403 306.936226 
L 261.670893 306.580994 
L 261.833382 306.957122 
L 261.995872 306.81085 
L 262.158362 307.019809 
L 262.483342 306.392931 
L 262.645831 306.998913 
L 262.808321 306.204867 
L 262.970811 307.166081 
L 263.133301 306.789954 
L 263.29579 306.831746 
L 263.45828 306.748162 
L 263.62077 306.455619 
L 263.78326 307.082497 
L 263.945749 306.392931 
L 264.108239 306.288451 
L 264.270729 306.664578 
L 264.758198 306.204867 
L 264.920688 306.998913 
L 265.083178 307.061601 
L 265.245667 306.70637 
L 265.408157 307.103393 
L 265.570647 306.560098 
L 265.733137 307.019809 
L 265.895627 307.040705 
L 266.058116 307.186977 
L 266.383096 306.413827 
L 266.545586 307.082497 
L 266.708075 307.186977 
L 267.033055 306.0377 
L 267.195545 306.873538 
L 267.520524 307.061601 
L 267.683014 306.936226 
L 267.845504 306.978017 
L 268.007993 306.392931 
L 268.170483 306.81085 
L 268.332973 306.330243 
L 268.657952 306.894434 
L 268.820442 306.518307 
L 268.982932 305.598885 
L 269.145422 307.186977 
L 269.470401 306.769058 
L 269.632891 306.91533 
L 269.957871 306.539203 
L 270.12036 307.040705 
L 270.28285 307.103393 
L 270.60783 305.473509 
L 270.770319 306.622786 
L 270.932809 306.518307 
L 271.257789 306.936226 
L 271.420278 306.100388 
L 271.582768 306.267555 
L 271.745258 306.14218 
L 271.907748 306.998913 
L 272.070238 307.061601 
L 272.232727 305.703365 
L 272.395217 307.082497 
L 272.557707 306.769058 
L 272.720197 306.14218 
L 272.882686 306.560098 
L 273.045176 306.476515 
L 273.207666 306.831746 
L 273.370156 306.852642 
L 273.532645 306.497411 
L 273.695135 306.580994 
L 273.857625 306.789954 
L 274.020115 306.14218 
L 274.182604 307.040705 
L 274.345094 306.789954 
L 274.507584 306.246659 
L 274.670074 306.204867 
L 274.832563 306.560098 
L 274.995053 305.912324 
L 275.157543 306.748162 
L 275.320033 305.682469 
L 275.645012 307.103393 
L 275.807502 307.103393 
L 276.132482 305.891428 
L 276.294971 306.831746 
L 276.457461 307.103393 
L 276.619951 306.998913 
L 276.782441 306.392931 
L 276.94493 306.957122 
L 277.10742 306.518307 
L 277.594889 306.998913 
L 277.757379 304.825735 
L 278.082359 307.103393 
L 278.244848 306.163075 
L 278.407338 307.040705 
L 278.569828 307.019809 
L 278.732318 307.124289 
L 278.894808 306.413827 
L 279.057297 307.228769 
L 279.544767 306.497411 
L 279.707256 306.91533 
L 279.869746 306.978017 
L 280.032236 306.852642 
L 280.194726 307.061601 
L 280.519705 307.040705 
L 280.682195 306.372035 
L 280.844685 307.061601 
L 281.169664 305.619781 
L 281.332154 306.998913 
L 281.494644 304.345128 
L 281.657133 304.930214 
L 281.819623 306.392931 
L 281.982113 305.995908 
L 282.144603 306.789954 
L 282.307093 306.727266 
L 282.469582 306.978017 
L 282.632072 306.894434 
L 282.794562 305.076486 
L 283.282031 307.061601 
L 283.444521 304.909319 
L 283.607011 306.685474 
L 283.7695 307.186977 
L 284.09448 306.748162 
L 284.25697 306.81085 
L 284.419459 306.225763 
L 284.581949 306.204867 
L 284.744439 306.727266 
L 284.906929 306.497411 
L 285.069419 306.957122 
L 285.231908 306.831746 
L 285.394398 306.518307 
L 285.556888 306.789954 
L 285.719378 305.912324 
L 285.881867 306.518307 
L 286.044357 306.434723 
L 286.531826 307.103393 
L 286.694316 305.577989 
L 286.856806 306.936226 
L 287.019296 307.019809 
L 287.181785 306.789954 
L 287.344275 305.891428 
L 287.506765 306.91533 
L 287.831744 306.246659 
L 288.156724 307.249665 
L 288.319214 306.413827 
L 288.481704 306.434723 
L 288.644193 307.019809 
L 288.969173 305.306342 
L 289.131663 306.476515 
L 289.619132 307.019809 
L 289.781622 307.040705 
L 289.944111 306.873538 
L 290.106601 306.434723 
L 290.431581 306.100388 
L 290.59407 307.061601 
L 290.75656 306.957122 
L 290.91905 304.345128 
L 291.08154 305.93322 
L 291.406519 305.870532 
L 291.569009 306.372035 
L 291.731499 305.766052 
L 291.893989 306.789954 
L 292.056478 306.14218 
L 292.218968 306.81085 
L 292.381458 306.518307 
L 292.706437 307.228769 
L 293.031417 305.327238 
L 293.193907 306.183971 
L 293.356396 306.330243 
L 293.518886 305.786948 
L 293.681376 306.998913 
L 293.843866 306.497411 
L 294.006355 306.81085 
L 294.168845 306.434723 
L 294.331335 306.957122 
L 294.493825 305.16007 
L 294.656314 305.285446 
L 294.818804 306.936226 
L 294.981294 304.595879 
L 295.143784 306.957122 
L 295.793743 306.936226 
L 295.956233 305.598885 
L 296.118722 306.580994 
L 296.281212 305.598885 
L 296.443702 306.580994 
L 296.606192 305.82874 
L 296.768681 306.622786 
L 296.931171 306.685474 
L 297.256151 306.518307 
L 297.41864 306.643682 
L 297.74362 303.279435 
L 297.90611 306.748162 
L 298.231089 305.598885 
L 298.393579 306.434723 
L 298.556069 304.616775 
L 298.718559 307.145185 
L 299.043538 306.664578 
L 299.368518 305.912324 
L 299.531007 306.434723 
L 299.693497 305.912324 
L 299.855987 306.998913 
L 300.018477 306.643682 
L 300.180966 305.849636 
L 300.505946 305.682469 
L 300.668436 305.494405 
L 300.830925 305.807844 
L 300.993415 306.748162 
L 301.155905 303.718249 
L 301.643374 306.100388 
L 301.968354 306.163075 
L 302.130844 304.031689 
L 302.293333 306.163075 
L 302.455823 306.100388 
L 302.780803 306.560098 
L 302.943292 306.246659 
L 303.105782 306.978017 
L 303.268272 306.664578 
L 303.430762 305.389925 
L 303.593251 302.694348 
L 303.755741 305.975012 
L 303.918231 306.183971 
L 304.080721 306.685474 
L 304.24321 306.643682 
L 304.4057 306.14218 
L 304.56819 307.228769 
L 304.73068 305.222758 
L 304.89317 306.894434 
L 305.055659 305.327238 
L 305.218149 306.14218 
L 305.705618 305.577989 
L 305.868108 306.998913 
L 306.030598 306.60189 
L 306.193088 307.019809 
L 306.355577 305.598885 
L 306.518067 305.912324 
L 306.680557 306.894434 
L 306.843047 306.14218 
L 307.005536 306.978017 
L 307.168026 306.873538 
L 307.330516 304.240648 
L 307.493006 306.643682 
L 307.655495 306.852642 
L 307.817985 305.93322 
L 307.980475 305.93322 
L 308.142965 304.846631 
L 308.305455 306.392931 
L 308.792924 304.052585 
L 308.955414 306.497411 
L 309.117903 306.685474 
L 309.442883 306.163075 
L 309.605373 306.183971 
L 309.767862 306.455619 
L 309.930352 305.849636 
L 310.092842 306.580994 
L 310.255332 305.849636 
L 310.417821 306.434723 
L 310.580311 305.640677 
L 310.742801 306.246659 
L 310.905291 306.183971 
L 311.23027 305.05559 
L 311.39276 306.622786 
L 311.55525 306.643682 
L 311.71774 306.497411 
L 311.880229 306.894434 
L 312.205209 306.497411 
L 312.367699 306.14218 
L 312.530188 306.664578 
L 312.855168 305.912324 
L 313.017658 307.103393 
L 313.180147 306.70637 
L 313.342637 305.431717 
L 313.505127 305.410821 
L 313.667617 306.70637 
L 313.830106 304.867527 
L 313.992596 305.118278 
L 314.155086 304.930214 
L 314.317576 305.348133 
L 314.480066 304.28244 
L 314.642555 306.14218 
L 314.805045 304.825735 
L 314.967535 306.455619 
L 315.292514 304.094377 
L 315.617494 306.91533 
L 315.779984 306.413827 
L 315.942473 307.040705 
L 316.104963 306.372035 
L 316.267453 304.574983 
L 316.429943 306.769058 
L 316.754922 305.139174 
L 316.917412 306.183971 
L 317.079902 303.551082 
L 317.242391 305.577989 
L 317.404881 305.912324 
L 317.729861 306.998913 
L 317.892351 306.685474 
L 318.05484 306.748162 
L 318.21733 305.93322 
L 318.37982 306.936226 
L 318.54231 305.849636 
L 318.704799 306.560098 
L 318.867289 305.995908 
L 319.029779 304.407816 
L 319.192269 306.539203 
L 319.354758 306.560098 
L 319.517248 301.482383 
L 319.679738 304.554087 
L 319.842228 304.052585 
L 320.004717 305.619781 
L 320.167207 305.619781 
L 320.329697 305.076486 
L 320.492187 306.372035 
L 320.654676 304.115272 
L 320.979656 306.455619 
L 321.142146 305.05559 
L 321.304636 306.309347 
L 321.629615 305.076486 
L 321.792105 305.076486 
L 322.117084 306.183971 
L 322.279574 306.058596 
L 322.442064 307.019809 
L 322.604554 306.643682 
L 322.767043 305.849636 
L 322.929533 305.661573 
L 323.092023 306.748162 
L 323.254513 306.121284 
L 323.417002 304.783943 
L 323.741982 306.664578 
L 323.904472 306.831746 
L 324.229451 304.783943 
L 324.391941 306.309347 
L 324.554431 301.670446 
L 324.716921 305.097382 
L 324.87941 306.14218 
L 325.0419 305.473509 
L 325.20439 305.348133 
L 325.36688 305.703365 
L 325.529369 302.965995 
L 325.691859 306.246659 
L 325.854349 303.195851 
L 326.016839 304.324232 
L 326.179328 304.345128 
L 326.341818 306.70637 
L 326.504308 305.619781 
L 326.666798 305.577989 
L 326.829287 301.210736 
L 326.991777 305.995908 
L 327.316757 300.959984 
L 327.479247 306.434723 
L 327.641736 306.873538 
L 327.966716 303.739145 
L 328.129206 306.016804 
L 328.454185 304.763047 
L 328.616675 303.091371 
L 328.779165 303.50929 
L 328.941654 303.321226 
L 329.266634 306.936226 
L 329.429124 303.760041 
L 329.591613 304.637671 
L 329.754103 304.512295 
L 329.916593 306.455619 
L 330.241572 304.324232 
L 330.404062 306.497411 
L 330.729042 303.279435 
L 330.891532 306.664578 
L 331.054021 305.348133 
L 331.216511 306.852642 
L 331.541491 304.366024 
L 331.70398 305.431717 
L 331.86647 304.574983 
L 332.02896 305.139174 
L 332.19145 300.31221 
L 332.353939 303.467498 
L 332.516429 302.004782 
L 332.841409 305.097382 
L 333.003898 306.246659 
L 333.166388 304.763047 
L 333.328878 305.410821 
L 333.491368 305.536197 
L 333.653857 306.769058 
L 333.816347 304.804839 
L 333.978837 306.079492 
L 334.141327 305.82874 
L 334.303817 306.079492 
L 334.466306 305.682469 
L 334.628796 305.619781 
L 334.791286 306.225763 
L 334.953776 302.485388 
L 335.116265 304.303336 
L 335.278755 303.906313 
L 335.603735 305.201862 
L 335.766224 304.010793 
L 335.928714 304.616775 
L 336.091204 303.739145 
L 336.253694 304.010793 
L 336.416183 302.757036 
L 336.741163 305.577989 
L 336.903653 305.369029 
L 337.066143 303.467498 
L 337.228632 303.718249 
L 337.553612 305.912324 
L 337.716102 305.536197 
L 337.878591 302.777932 
L 338.041081 305.05559 
L 338.203571 305.097382 
L 338.366061 305.954116 
L 338.52855 305.348133 
L 338.85353 307.103393 
L 339.01602 306.497411 
L 339.178509 307.040705 
L 339.340999 306.957122 
L 339.503489 306.748162 
L 339.665979 305.139174 
L 339.828468 306.372035 
L 339.990958 305.327238 
L 340.153448 305.661573 
L 340.315938 304.052585 
L 340.478428 306.60189 
L 340.640917 306.978017 
L 340.803407 306.873538 
L 340.965897 306.455619 
L 341.128387 306.873538 
L 341.453366 306.978017 
L 341.615856 306.852642 
L 341.778346 307.040705 
L 341.940835 306.643682 
L 342.103325 306.978017 
L 342.265815 302.025678 
L 342.590794 307.040705 
L 342.753284 306.497411 
L 343.078264 306.727266 
L 343.240753 305.891428 
L 343.403243 306.664578 
L 343.565733 306.497411 
L 343.728223 306.91533 
L 343.890713 306.852642 
L 344.053202 306.246659 
L 344.378182 306.852642 
L 344.540672 306.622786 
L 344.703161 303.216747 
L 344.865651 305.515301 
L 345.028141 304.700359 
L 345.190631 304.554087 
L 345.35312 300.792817 
L 345.51561 305.05559 
L 345.6781 305.139174 
L 345.84059 302.673452 
L 346.003079 306.058596 
L 346.165569 304.303336 
L 346.328059 306.058596 
L 346.653038 306.978017 
L 346.815528 306.727266 
L 346.978018 306.978017 
L 347.140508 306.894434 
L 347.302998 306.518307 
L 347.627977 302.443597 
L 347.952957 304.073481 
L 348.115446 302.673452 
L 348.440426 305.306342 
L 348.602916 300.771921 
L 348.765405 306.664578 
L 348.927895 303.174955 
L 349.090385 303.801833 
L 349.252875 306.70637 
L 349.415364 300.939088 
L 349.740344 306.998913 
L 349.902834 306.204867 
L 350.065324 304.240648 
L 350.390303 306.372035 
L 350.552793 302.234637 
L 350.715283 303.780937 
L 350.877772 306.685474 
L 351.202752 301.64955 
L 351.365242 305.577989 
L 351.527731 305.097382 
L 351.690221 301.210736 
L 351.852711 303.530186 
L 352.015201 303.133163 
L 352.17769 304.825735 
L 352.34018 303.446602 
L 352.50267 305.26455 
L 352.66516 304.470504 
L 352.827649 305.786948 
L 352.990139 306.163075 
L 353.152629 306.100388 
L 353.315119 305.410821 
L 353.477609 305.807844 
L 353.640098 306.957122 
L 353.802588 304.554087 
L 353.965078 306.163075 
L 354.290057 298.515158 
L 354.615037 302.73614 
L 354.777527 302.506284 
L 355.102506 299.246516 
L 355.264996 303.30033 
L 355.427486 303.091371 
L 355.589975 302.548076 
L 355.752465 306.14218 
L 356.077445 300.061458 
L 356.239934 300.10325 
L 356.402424 304.595879 
L 356.564914 298.055447 
L 356.727404 305.327238 
L 356.889894 305.05559 
L 357.052383 305.703365 
L 357.214873 306.873538 
L 357.377363 305.849636 
L 357.702342 298.76591 
L 357.864832 300.145042 
L 358.027322 307.166081 
L 358.189812 302.422701 
L 358.352301 305.536197 
L 358.514791 304.28244 
L 358.677281 299.810707 
L 358.839771 304.28244 
L 359.16475 298.640534 
L 359.32724 298.243511 
L 359.48973 305.82874 
L 359.652219 301.127152 
L 359.814709 306.330243 
L 359.977199 304.742151 
L 360.139689 300.771921 
L 360.302179 300.228626 
L 360.627158 306.70637 
L 360.789648 300.31221 
L 361.114627 305.180966 
L 361.277117 301.08536 
L 361.439607 304.595879 
L 361.764586 298.201719 
L 361.927076 303.216747 
L 362.414545 304.763047 
L 362.577035 306.14218 
L 362.739525 306.100388 
L 362.902015 305.912324 
L 363.226994 304.470504 
L 363.389484 302.485388 
L 363.714464 292.016518 
L 363.876953 304.637671 
L 364.039443 304.867527 
L 364.201933 290.532906 
L 364.364423 291.723975 
L 364.526912 306.936226 
L 364.689402 306.957122 
L 364.851892 305.118278 
L 365.014382 306.81085 
L 365.176871 306.936226 
L 365.339361 303.676458 
L 365.501851 306.455619 
L 365.664341 298.619638 
L 365.82683 301.440591 
L 365.98932 306.643682 
L 366.15181 298.870389 
L 366.3143 303.342122 
L 366.47679 295.589725 
L 366.639279 306.894434 
L 366.801769 305.891428 
L 367.126749 306.434723 
L 367.289238 306.121284 
L 367.614218 306.936226 
L 367.776708 306.91533 
L 367.939197 306.204867 
L 368.101687 306.163075 
L 368.264177 305.619781 
L 368.589156 302.819724 
L 368.751646 294.356864 
L 368.914136 296.091228 
L 369.076626 295.568829 
L 369.239115 296.091228 
L 369.401605 298.891285 
L 369.564095 306.016804 
L 369.726585 305.201862 
L 370.051564 305.870532 
L 370.214054 305.285446 
L 370.376544 306.70637 
L 370.701523 306.058596 
L 370.864013 306.413827 
L 371.026503 301.461487 
L 371.188993 303.50929 
L 371.513972 289.613484 
L 371.676462 302.380909 
L 371.838952 280.293891 
L 372.163931 305.076486 
L 372.326421 304.470504 
L 372.488911 302.652556 
L 372.6514 303.049579 
L 372.81389 302.986891 
L 372.97638 306.121284 
L 373.13887 281.881983 
L 373.463849 302.380909 
L 373.788829 290.971721 
L 373.951319 293.249379 
L 374.113808 303.697353 
L 374.276298 305.598885 
L 374.438788 291.264264 
L 374.601278 289.132877 
L 374.763767 288.485103 
L 374.926257 301.294319 
L 375.088747 288.422415 
L 375.251237 289.697068 
L 375.413726 299.601747 
L 375.576216 279.416261 
L 375.901196 303.40481 
L 376.063686 305.118278 
L 376.226175 305.118278 
L 376.388665 306.267555 
L 376.551155 306.267555 
L 376.713645 306.685474 
L 376.876134 306.643682 
L 377.038624 304.073481 
L 377.201114 307.082497 
L 377.363604 294.37776 
L 377.526093 302.360013 
L 377.688583 289.676172 
L 377.851073 296.404667 
L 378.013563 294.900159 
L 378.176052 305.870532 
L 378.501032 294.837471 
L 378.663522 302.673452 
L 378.988501 306.163075 
L 379.313481 306.936226 
L 379.63846 306.957122 
L 379.80095 306.70637 
L 379.96344 305.766052 
L 380.288419 306.957122 
L 380.450909 306.873538 
L 380.613399 307.019809 
L 380.775889 306.852642 
L 380.938378 305.807844 
L 381.100868 305.849636 
L 381.263358 296.112124 
L 381.425848 298.515158 
L 381.588337 291.306056 
L 381.913317 295.673309 
L 382.075807 282.36259 
L 382.400786 299.852499 
L 382.563276 295.192702 
L 382.725766 300.897296 
L 383.050745 299.037557 
L 383.213235 305.598885 
L 383.375725 305.076486 
L 383.700704 306.957122 
L 383.863194 306.664578 
L 384.025684 306.14218 
L 384.188174 306.392931 
L 384.350663 304.240648 
L 384.675643 266.210021 
L 384.838133 284.47308 
L 385.325602 301.670446 
L 385.488092 279.186405 
L 385.650581 272.123575 
L 385.813071 280.210307 
L 385.975561 295.192702 
L 386.138051 299.622643 
L 386.300541 290.073195 
L 386.46303 306.936226 
L 386.62552 306.622786 
L 386.78801 306.998913 
L 386.9505 306.873538 
L 387.112989 305.577989 
L 387.275479 302.673452 
L 387.437969 295.965852 
L 387.762948 267.819009 
L 387.925438 292.05831 
L 388.087928 253.338116 
L 388.250418 265.374183 
L 388.412907 296.195708 
L 388.575397 288.380623 
L 388.900377 305.494405 
L 389.062867 306.852642 
L 389.225356 306.91533 
L 389.387846 306.852642 
L 389.550336 307.166081 
L 389.712826 307.061601 
L 389.875315 306.434723 
L 390.037805 203.459486 
L 390.200295 287.273138 
L 390.362785 239.275143 
L 390.525274 290.010507 
L 390.687764 266.293605 
L 390.850254 276.219181 
L 391.175233 54.137035 
L 391.337723 280.043139 
L 391.500213 273.251956 
L 391.825192 306.434723 
L 391.987682 306.831746 
L 392.150172 306.789954 
L 392.312662 306.978017 
L 392.475152 306.978017 
L 392.637641 307.186977 
L 392.800131 307.082497 
L 392.962621 307.207873 
L 393.125111 307.186977 
L 393.2876 307.291457 
L 393.45009 307.166081 
L 394.100049 307.333249 
L 394.262539 307.166081 
L 394.425029 307.291457 
L 394.750008 307.207873 
L 394.912498 307.395936 
L 395.074988 307.249665 
L 395.399967 307.354145 
L 395.724947 307.228769 
L 395.887437 306.748162 
L 396.049926 294.419552 
L 396.212416 248.615632 
L 396.374906 263.556235 
L 396.699885 305.536197 
L 397.187355 306.852642 
L 397.674824 306.894434 
L 397.837314 306.351139 
L 398.162293 303.50929 
L 398.324783 286.249236 
L 398.487273 298.703222 
L 398.487273 298.703222 
" clip-path="url(#p7bbc50f438)" style="fill: none; stroke: #1f77b4; stroke-width: 1.5; stroke-linecap: square"/>
   </g>
   <g id="line2d_34">
    <path d="M 73.832727 307.186977 
L 74.970156 307.231381 
L 78.86991 307.22028 
L 88.456806 307.237265 
L 153.615201 307.220232 
L 291.893989 307.015888 
L 356.402424 306.650972 
L 362.577035 306.573649 
L 371.676462 306.459185 
L 373.463849 306.411279 
L 379.475971 306.269465 
L 384.675643 306.170346 
L 389.062867 305.967336 
L 390.525274 305.865153 
L 391.012744 305.765271 
L 391.337723 305.623404 
L 392.475152 305.603677 
L 398.487273 305.5478 
L 398.487273 305.5478 
" clip-path="url(#p7bbc50f438)" style="fill: none; stroke: #d62728; stroke-width: 1.5; stroke-linecap: square"/>
   </g>
   <g id="patch_3">
    <path d="M 57.6 307.584 
L 57.6 41.472 
" style="fill: none; stroke: #ffffff; stroke-linejoin: miter; stroke-linecap: square"/>
   </g>
   <g id="patch_4">
    <path d="M 414.72 307.584 
L 414.72 41.472 
" style="fill: none; stroke: #ffffff; stroke-linejoin: miter; stroke-linecap: square"/>
   </g>
   <g id="patch_5">
    <path d="M 57.6 307.584 
L 414.72 307.584 
" style="fill: none; stroke: #ffffff; stroke-linejoin: miter; stroke-linecap: square"/>
   </g>
   <g id="patch_6">
    <path d="M 57.6 41.472 
L 414.72 41.472 
" style="fill: none; stroke: #ffffff; stroke-linejoin: miter; stroke-linecap: square"/>
   </g>
   <g id="text_19">
    <!-- 425 -->
    <g transform="translate(398.487273 298.703222) scale(0.1 -0.1)">
     <use xlink:href="#DejaVuSans-34"/>
     <use xlink:href="#DejaVuSans-32" x="63.623047"/>
     <use xlink:href="#DejaVuSans-35" x="127.246094"/>
    </g>
   </g>
   <g id="text_20">
    <!-- 97.4447223611806 -->
    <g transform="translate(398.487273 305.5478) scale(0.1 -0.1)">
     <defs>
      <path id="DejaVuSans-39" d="M 703 97 
L 703 672 
Q 941 559 1184 500 
Q 1428 441 1663 441 
Q 2288 441 2617 861 
Q 2947 1281 2994 2138 
Q 2813 1869 2534 1725 
Q 2256 1581 1919 1581 
Q 1219 1581 811 2004 
Q 403 2428 403 3163 
Q 403 3881 828 4315 
Q 1253 4750 1959 4750 
Q 2769 4750 3195 4129 
Q 3622 3509 3622 2328 
Q 3622 1225 3098 567 
Q 2575 -91 1691 -91 
Q 1453 -91 1209 -44 
Q 966 3 703 97 
z
M 1959 2075 
Q 2384 2075 2632 2365 
Q 2881 2656 2881 3163 
Q 2881 3666 2632 3958 
Q 2384 4250 1959 4250 
Q 1534 4250 1286 3958 
Q 1038 3666 1038 3163 
Q 1038 2656 1286 2365 
Q 1534 2075 1959 2075 
z
" transform="scale(0.015625)"/>
      <path id="DejaVuSans-2e" d="M 684 794 
L 1344 794 
L 1344 0 
L 684 0 
L 684 794 
z
" transform="scale(0.015625)"/>
      <path id="DejaVuSans-33" d="M 2597 2516 
Q 3050 2419 3304 2112 
Q 3559 1806 3559 1356 
Q 3559 666 3084 287 
Q 2609 -91 1734 -91 
Q 1441 -91 1130 -33 
Q 819 25 488 141 
L 488 750 
Q 750 597 1062 519 
Q 1375 441 1716 441 
Q 2309 441 2620 675 
Q 2931 909 2931 1356 
Q 2931 1769 2642 2001 
Q 2353 2234 1838 2234 
L 1294 2234 
L 1294 2753 
L 1863 2753 
Q 2328 2753 2575 2939 
Q 2822 3125 2822 3475 
Q 2822 3834 2567 4026 
Q 2313 4219 1838 4219 
Q 1578 4219 1281 4162 
Q 984 4106 628 3988 
L 628 4550 
Q 988 4650 1302 4700 
Q 1616 4750 1894 4750 
Q 2613 4750 3031 4423 
Q 3450 4097 3450 3541 
Q 3450 3153 3228 2886 
Q 3006 2619 2597 2516 
z
" transform="scale(0.015625)"/>
     </defs>
     <use xlink:href="#DejaVuSans-39"/>
     <use xlink:href="#DejaVuSans-37" x="63.623047"/>
     <use xlink:href="#DejaVuSans-2e" x="127.246094"/>
     <use xlink:href="#DejaVuSans-34" x="159.033203"/>
     <use xlink:href="#DejaVuSans-34" x="222.65625"/>
     <use xlink:href="#DejaVuSans-34" x="286.279297"/>
     <use xlink:href="#DejaVuSans-37" x="349.902344"/>
     <use xlink:href="#DejaVuSans-32" x="413.525391"/>
     <use xlink:href="#DejaVuSans-32" x="477.148438"/>
     <use xlink:href="#DejaVuSans-33" x="540.771484"/>
     <use xlink:href="#DejaVuSans-36" x="604.394531"/>
     <use xlink:href="#DejaVuSans-31" x="668.017578"/>
     <use xlink:href="#DejaVuSans-31" x="731.640625"/>
     <use xlink:href="#DejaVuSans-38" x="795.263672"/>
     <use xlink:href="#DejaVuSans-30" x="858.886719"/>
     <use xlink:href="#DejaVuSans-36" x="922.509766"/>
    </g>
   </g>
   <g id="text_21">
    <!-- 31 -->
    <g transform="translate(398.487273 306.936226) scale(0.1 -0.1)">
     <use xlink:href="#DejaVuSans-33"/>
     <use xlink:href="#DejaVuSans-31" x="63.623047"/>
    </g>
   </g>
   <g id="text_22">
    <!-- Epoch 2000... -->
    <g transform="translate(200.890125 35.472) scale(0.144 -0.144)">
     <defs>
      <path id="DejaVuSans-54" d="M -19 4666 
L 3928 4666 
L 3928 4134 
L 2272 4134 
L 2272 0 
L 1638 0 
L 1638 4134 
L -19 4134 
L -19 4666 
z
" transform="scale(0.015625)"/>
      <path id="DejaVuSans-69" d="M 603 3500 
L 1178 3500 
L 1178 0 
L 603 0 
L 603 3500 
z
M 603 4863 
L 1178 4863 
L 1178 4134 
L 603 4134 
L 603 4863 
z
" transform="scale(0.015625)"/>
      <path id="DejaVuSans-6e" d="M 3513 2113 
L 3513 0 
L 2938 0 
L 2938 2094 
Q 2938 2591 2744 2837 
Q 2550 3084 2163 3084 
Q 1697 3084 1428 2787 
Q 1159 2491 1159 1978 
L 1159 0 
L 581 0 
L 581 3500 
L 1159 3500 
L 1159 2956 
Q 1366 3272 1645 3428 
Q 1925 3584 2291 3584 
Q 2894 3584 3203 3211 
Q 3513 2838 3513 2113 
z
" transform="scale(0.015625)"/>
      <path id="DejaVuSans-67" d="M 2906 1791 
Q 2906 2416 2648 2759 
Q 2391 3103 1925 3103 
Q 1463 3103 1205 2759 
Q 947 2416 947 1791 
Q 947 1169 1205 825 
Q 1463 481 1925 481 
Q 2391 481 2648 825 
Q 2906 1169 2906 1791 
z
M 3481 434 
Q 3481 -459 3084 -895 
Q 2688 -1331 1869 -1331 
Q 1566 -1331 1297 -1286 
Q 1028 -1241 775 -1147 
L 775 -588 
Q 1028 -725 1275 -790 
Q 1522 -856 1778 -856 
Q 2344 -856 2625 -561 
Q 2906 -266 2906 331 
L 2906 616 
Q 2728 306 2450 153 
Q 2172 0 1784 0 
Q 1141 0 747 490 
Q 353 981 353 1791 
Q 353 2603 747 3093 
Q 1141 3584 1784 3584 
Q 2172 3584 2450 3431 
Q 2728 3278 2906 2969 
L 2906 3500 
L 3481 3500 
L 3481 434 
z
" transform="scale(0.015625)"/>
     </defs>
     <use xlink:href="#DejaVuSans-54"/>
     <use xlink:href="#DejaVuSans-72" x="46.333984"/>
     <use xlink:href="#DejaVuSans-61" x="87.447266"/>
     <use xlink:href="#DejaVuSans-69" x="148.726562"/>
     <use xlink:href="#DejaVuSans-6e" x="176.509766"/>
     <use xlink:href="#DejaVuSans-69" x="239.888672"/>
     <use xlink:href="#DejaVuSans-6e" x="267.671875"/>
     <use xlink:href="#DejaVuSans-67" x="331.050781"/>
     <use xlink:href="#DejaVuSans-2e" x="394.527344"/>
     <use xlink:href="#DejaVuSans-2e" x="426.314453"/>
     <use xlink:href="#DejaVuSans-2e" x="458.101562"/>
    </g>
   </g>
  </g>
 </g>
 <defs>
  <clipPath id="p7bbc50f438">
   <rect x="57.6" y="41.472" width="357.12" height="266.112"/>
  </clipPath>
 </defs>
</svg>
