<?xml version="1.0" encoding="utf-8" standalone="no"?>
<!DOCTYPE svg PUBLIC "-//W3C//DTD SVG 1.1//EN"
  "http://www.w3.org/Graphics/SVG/1.1/DTD/svg11.dtd">
<svg xmlns:xlink="http://www.w3.org/1999/xlink" width="460.8pt" height="345.6pt" viewBox="0 0 460.8 345.6" xmlns="http://www.w3.org/2000/svg" version="1.1">
 <metadata>
  <rdf:RDF xmlns:dc="http://purl.org/dc/elements/1.1/" xmlns:cc="http://creativecommons.org/ns#" xmlns:rdf="http://www.w3.org/1999/02/22-rdf-syntax-ns#">
   <cc:Work>
    <dc:type rdf:resource="http://purl.org/dc/dcmitype/StillImage"/>
    <dc:date>2024-09-04T20:32:57.710229</dc:date>
    <dc:format>image/svg+xml</dc:format>
    <dc:creator>
     <cc:Agent>
      <dc:title>Matplotlib v3.8.4, https://matplotlib.org/</dc:title>
     </cc:Agent>
    </dc:creator>
   </cc:Work>
  </rdf:RDF>
 </metadata>
 <defs>
  <style type="text/css">*{stroke-linejoin: round; stroke-linecap: butt}</style>
 </defs>
 <g id="figure_1">
  <g id="patch_1">
   <path d="M 0 345.6 
L 460.8 345.6 
L 460.8 0 
L 0 0 
z
" style="fill: #ffffff"/>
  </g>
  <g id="axes_1">
   <g id="patch_2">
    <path d="M 57.6 307.584 
L 414.72 307.584 
L 414.72 41.472 
L 57.6 41.472 
z
" style="fill: #e5e5e5"/>
   </g>
   <g id="matplotlib.axis_1">
    <g id="xtick_1">
     <g id="line2d_1">
      <path d="M 73.832727 307.584 
L 73.832727 41.472 
" clip-path="url(#p1e76dcd1b1)" style="fill: none; stroke: #ffffff; stroke-width: 0.8; stroke-linecap: square"/>
     </g>
     <g id="line2d_2">
      <defs>
       <path id="m9272aee1f1" d="M 0 0 
L 0 3.5 
" style="stroke: #555555; stroke-width: 0.8"/>
      </defs>
      <g>
       <use xlink:href="#m9272aee1f1" x="73.832727" y="307.584" style="fill: #555555; stroke: #555555; stroke-width: 0.8"/>
      </g>
     </g>
     <g id="text_1">
      <!-- 0 -->
      <g style="fill: #555555" transform="translate(70.651477 322.182437) scale(0.1 -0.1)">
       <defs>
        <path id="DejaVuSans-30" d="M 2034 4250 
Q 1547 4250 1301 3770 
Q 1056 3291 1056 2328 
Q 1056 1369 1301 889 
Q 1547 409 2034 409 
Q 2525 409 2770 889 
Q 3016 1369 3016 2328 
Q 3016 3291 2770 3770 
Q 2525 4250 2034 4250 
z
M 2034 4750 
Q 2819 4750 3233 4129 
Q 3647 3509 3647 2328 
Q 3647 1150 3233 529 
Q 2819 -91 2034 -91 
Q 1250 -91 836 529 
Q 422 1150 422 2328 
Q 422 3509 836 4129 
Q 1250 4750 2034 4750 
z
" transform="scale(0.015625)"/>
       </defs>
       <use xlink:href="#DejaVuSans-30"/>
      </g>
     </g>
    </g>
    <g id="xtick_2">
     <g id="line2d_3">
      <path d="M 120.225203 307.584 
L 120.225203 41.472 
" clip-path="url(#p1e76dcd1b1)" style="fill: none; stroke: #ffffff; stroke-width: 0.8; stroke-linecap: square"/>
     </g>
     <g id="line2d_4">
      <g>
       <use xlink:href="#m9272aee1f1" x="120.225203" y="307.584" style="fill: #555555; stroke: #555555; stroke-width: 0.8"/>
      </g>
     </g>
     <g id="text_2">
      <!-- 1000 -->
      <g style="fill: #555555" transform="translate(107.500203 322.182437) scale(0.1 -0.1)">
       <defs>
        <path id="DejaVuSans-31" d="M 794 531 
L 1825 531 
L 1825 4091 
L 703 3866 
L 703 4441 
L 1819 4666 
L 2450 4666 
L 2450 531 
L 3481 531 
L 3481 0 
L 794 0 
L 794 531 
z
" transform="scale(0.015625)"/>
       </defs>
       <use xlink:href="#DejaVuSans-31"/>
       <use xlink:href="#DejaVuSans-30" x="63.623047"/>
       <use xlink:href="#DejaVuSans-30" x="127.246094"/>
       <use xlink:href="#DejaVuSans-30" x="190.869141"/>
      </g>
     </g>
    </g>
    <g id="xtick_3">
     <g id="line2d_5">
      <path d="M 166.617679 307.584 
L 166.617679 41.472 
" clip-path="url(#p1e76dcd1b1)" style="fill: none; stroke: #ffffff; stroke-width: 0.8; stroke-linecap: square"/>
     </g>
     <g id="line2d_6">
      <g>
       <use xlink:href="#m9272aee1f1" x="166.617679" y="307.584" style="fill: #555555; stroke: #555555; stroke-width: 0.8"/>
      </g>
     </g>
     <g id="text_3">
      <!-- 2000 -->
      <g style="fill: #555555" transform="translate(153.892679 322.182437) scale(0.1 -0.1)">
       <defs>
        <path id="DejaVuSans-32" d="M 1228 531 
L 3431 531 
L 3431 0 
L 469 0 
L 469 531 
Q 828 903 1448 1529 
Q 2069 2156 2228 2338 
Q 2531 2678 2651 2914 
Q 2772 3150 2772 3378 
Q 2772 3750 2511 3984 
Q 2250 4219 1831 4219 
Q 1534 4219 1204 4116 
Q 875 4013 500 3803 
L 500 4441 
Q 881 4594 1212 4672 
Q 1544 4750 1819 4750 
Q 2544 4750 2975 4387 
Q 3406 4025 3406 3419 
Q 3406 3131 3298 2873 
Q 3191 2616 2906 2266 
Q 2828 2175 2409 1742 
Q 1991 1309 1228 531 
z
" transform="scale(0.015625)"/>
       </defs>
       <use xlink:href="#DejaVuSans-32"/>
       <use xlink:href="#DejaVuSans-30" x="63.623047"/>
       <use xlink:href="#DejaVuSans-30" x="127.246094"/>
       <use xlink:href="#DejaVuSans-30" x="190.869141"/>
      </g>
     </g>
    </g>
    <g id="xtick_4">
     <g id="line2d_7">
      <path d="M 213.010155 307.584 
L 213.010155 41.472 
" clip-path="url(#p1e76dcd1b1)" style="fill: none; stroke: #ffffff; stroke-width: 0.8; stroke-linecap: square"/>
     </g>
     <g id="line2d_8">
      <g>
       <use xlink:href="#m9272aee1f1" x="213.010155" y="307.584" style="fill: #555555; stroke: #555555; stroke-width: 0.8"/>
      </g>
     </g>
     <g id="text_4">
      <!-- 3000 -->
      <g style="fill: #555555" transform="translate(200.285155 322.182437) scale(0.1 -0.1)">
       <defs>
        <path id="DejaVuSans-33" d="M 2597 2516 
Q 3050 2419 3304 2112 
Q 3559 1806 3559 1356 
Q 3559 666 3084 287 
Q 2609 -91 1734 -91 
Q 1441 -91 1130 -33 
Q 819 25 488 141 
L 488 750 
Q 750 597 1062 519 
Q 1375 441 1716 441 
Q 2309 441 2620 675 
Q 2931 909 2931 1356 
Q 2931 1769 2642 2001 
Q 2353 2234 1838 2234 
L 1294 2234 
L 1294 2753 
L 1863 2753 
Q 2328 2753 2575 2939 
Q 2822 3125 2822 3475 
Q 2822 3834 2567 4026 
Q 2313 4219 1838 4219 
Q 1578 4219 1281 4162 
Q 984 4106 628 3988 
L 628 4550 
Q 988 4650 1302 4700 
Q 1616 4750 1894 4750 
Q 2613 4750 3031 4423 
Q 3450 4097 3450 3541 
Q 3450 3153 3228 2886 
Q 3006 2619 2597 2516 
z
" transform="scale(0.015625)"/>
       </defs>
       <use xlink:href="#DejaVuSans-33"/>
       <use xlink:href="#DejaVuSans-30" x="63.623047"/>
       <use xlink:href="#DejaVuSans-30" x="127.246094"/>
       <use xlink:href="#DejaVuSans-30" x="190.869141"/>
      </g>
     </g>
    </g>
    <g id="xtick_5">
     <g id="line2d_9">
      <path d="M 259.40263 307.584 
L 259.40263 41.472 
" clip-path="url(#p1e76dcd1b1)" style="fill: none; stroke: #ffffff; stroke-width: 0.8; stroke-linecap: square"/>
     </g>
     <g id="line2d_10">
      <g>
       <use xlink:href="#m9272aee1f1" x="259.40263" y="307.584" style="fill: #555555; stroke: #555555; stroke-width: 0.8"/>
      </g>
     </g>
     <g id="text_5">
      <!-- 4000 -->
      <g style="fill: #555555" transform="translate(246.67763 322.182437) scale(0.1 -0.1)">
       <defs>
        <path id="DejaVuSans-34" d="M 2419 4116 
L 825 1625 
L 2419 1625 
L 2419 4116 
z
M 2253 4666 
L 3047 4666 
L 3047 1625 
L 3713 1625 
L 3713 1100 
L 3047 1100 
L 3047 0 
L 2419 0 
L 2419 1100 
L 313 1100 
L 313 1709 
L 2253 4666 
z
" transform="scale(0.015625)"/>
       </defs>
       <use xlink:href="#DejaVuSans-34"/>
       <use xlink:href="#DejaVuSans-30" x="63.623047"/>
       <use xlink:href="#DejaVuSans-30" x="127.246094"/>
       <use xlink:href="#DejaVuSans-30" x="190.869141"/>
      </g>
     </g>
    </g>
    <g id="xtick_6">
     <g id="line2d_11">
      <path d="M 305.795106 307.584 
L 305.795106 41.472 
" clip-path="url(#p1e76dcd1b1)" style="fill: none; stroke: #ffffff; stroke-width: 0.8; stroke-linecap: square"/>
     </g>
     <g id="line2d_12">
      <g>
       <use xlink:href="#m9272aee1f1" x="305.795106" y="307.584" style="fill: #555555; stroke: #555555; stroke-width: 0.8"/>
      </g>
     </g>
     <g id="text_6">
      <!-- 5000 -->
      <g style="fill: #555555" transform="translate(293.070106 322.182437) scale(0.1 -0.1)">
       <defs>
        <path id="DejaVuSans-35" d="M 691 4666 
L 3169 4666 
L 3169 4134 
L 1269 4134 
L 1269 2991 
Q 1406 3038 1543 3061 
Q 1681 3084 1819 3084 
Q 2600 3084 3056 2656 
Q 3513 2228 3513 1497 
Q 3513 744 3044 326 
Q 2575 -91 1722 -91 
Q 1428 -91 1123 -41 
Q 819 9 494 109 
L 494 744 
Q 775 591 1075 516 
Q 1375 441 1709 441 
Q 2250 441 2565 725 
Q 2881 1009 2881 1497 
Q 2881 1984 2565 2268 
Q 2250 2553 1709 2553 
Q 1456 2553 1204 2497 
Q 953 2441 691 2322 
L 691 4666 
z
" transform="scale(0.015625)"/>
       </defs>
       <use xlink:href="#DejaVuSans-35"/>
       <use xlink:href="#DejaVuSans-30" x="63.623047"/>
       <use xlink:href="#DejaVuSans-30" x="127.246094"/>
       <use xlink:href="#DejaVuSans-30" x="190.869141"/>
      </g>
     </g>
    </g>
    <g id="xtick_7">
     <g id="line2d_13">
      <path d="M 352.187582 307.584 
L 352.187582 41.472 
" clip-path="url(#p1e76dcd1b1)" style="fill: none; stroke: #ffffff; stroke-width: 0.8; stroke-linecap: square"/>
     </g>
     <g id="line2d_14">
      <g>
       <use xlink:href="#m9272aee1f1" x="352.187582" y="307.584" style="fill: #555555; stroke: #555555; stroke-width: 0.8"/>
      </g>
     </g>
     <g id="text_7">
      <!-- 6000 -->
      <g style="fill: #555555" transform="translate(339.462582 322.182437) scale(0.1 -0.1)">
       <defs>
        <path id="DejaVuSans-36" d="M 2113 2584 
Q 1688 2584 1439 2293 
Q 1191 2003 1191 1497 
Q 1191 994 1439 701 
Q 1688 409 2113 409 
Q 2538 409 2786 701 
Q 3034 994 3034 1497 
Q 3034 2003 2786 2293 
Q 2538 2584 2113 2584 
z
M 3366 4563 
L 3366 3988 
Q 3128 4100 2886 4159 
Q 2644 4219 2406 4219 
Q 1781 4219 1451 3797 
Q 1122 3375 1075 2522 
Q 1259 2794 1537 2939 
Q 1816 3084 2150 3084 
Q 2853 3084 3261 2657 
Q 3669 2231 3669 1497 
Q 3669 778 3244 343 
Q 2819 -91 2113 -91 
Q 1303 -91 875 529 
Q 447 1150 447 2328 
Q 447 3434 972 4092 
Q 1497 4750 2381 4750 
Q 2619 4750 2861 4703 
Q 3103 4656 3366 4563 
z
" transform="scale(0.015625)"/>
       </defs>
       <use xlink:href="#DejaVuSans-36"/>
       <use xlink:href="#DejaVuSans-30" x="63.623047"/>
       <use xlink:href="#DejaVuSans-30" x="127.246094"/>
       <use xlink:href="#DejaVuSans-30" x="190.869141"/>
      </g>
     </g>
    </g>
    <g id="xtick_8">
     <g id="line2d_15">
      <path d="M 398.580058 307.584 
L 398.580058 41.472 
" clip-path="url(#p1e76dcd1b1)" style="fill: none; stroke: #ffffff; stroke-width: 0.8; stroke-linecap: square"/>
     </g>
     <g id="line2d_16">
      <g>
       <use xlink:href="#m9272aee1f1" x="398.580058" y="307.584" style="fill: #555555; stroke: #555555; stroke-width: 0.8"/>
      </g>
     </g>
     <g id="text_8">
      <!-- 7000 -->
      <g style="fill: #555555" transform="translate(385.855058 322.182437) scale(0.1 -0.1)">
       <defs>
        <path id="DejaVuSans-37" d="M 525 4666 
L 3525 4666 
L 3525 4397 
L 1831 0 
L 1172 0 
L 2766 4134 
L 525 4134 
L 525 4666 
z
" transform="scale(0.015625)"/>
       </defs>
       <use xlink:href="#DejaVuSans-37"/>
       <use xlink:href="#DejaVuSans-30" x="63.623047"/>
       <use xlink:href="#DejaVuSans-30" x="127.246094"/>
       <use xlink:href="#DejaVuSans-30" x="190.869141"/>
      </g>
     </g>
    </g>
    <g id="text_9">
     <!-- Number of Games -->
     <g style="fill: #555555" transform="translate(181.471875 337.38025) scale(0.12 -0.12)">
      <defs>
       <path id="DejaVuSans-4e" d="M 628 4666 
L 1478 4666 
L 3547 763 
L 3547 4666 
L 4159 4666 
L 4159 0 
L 3309 0 
L 1241 3903 
L 1241 0 
L 628 0 
L 628 4666 
z
" transform="scale(0.015625)"/>
       <path id="DejaVuSans-75" d="M 544 1381 
L 544 3500 
L 1119 3500 
L 1119 1403 
Q 1119 906 1312 657 
Q 1506 409 1894 409 
Q 2359 409 2629 706 
Q 2900 1003 2900 1516 
L 2900 3500 
L 3475 3500 
L 3475 0 
L 2900 0 
L 2900 538 
Q 2691 219 2414 64 
Q 2138 -91 1772 -91 
Q 1169 -91 856 284 
Q 544 659 544 1381 
z
M 1991 3584 
L 1991 3584 
z
" transform="scale(0.015625)"/>
       <path id="DejaVuSans-6d" d="M 3328 2828 
Q 3544 3216 3844 3400 
Q 4144 3584 4550 3584 
Q 5097 3584 5394 3201 
Q 5691 2819 5691 2113 
L 5691 0 
L 5113 0 
L 5113 2094 
Q 5113 2597 4934 2840 
Q 4756 3084 4391 3084 
Q 3944 3084 3684 2787 
Q 3425 2491 3425 1978 
L 3425 0 
L 2847 0 
L 2847 2094 
Q 2847 2600 2669 2842 
Q 2491 3084 2119 3084 
Q 1678 3084 1418 2786 
Q 1159 2488 1159 1978 
L 1159 0 
L 581 0 
L 581 3500 
L 1159 3500 
L 1159 2956 
Q 1356 3278 1631 3431 
Q 1906 3584 2284 3584 
Q 2666 3584 2933 3390 
Q 3200 3197 3328 2828 
z
" transform="scale(0.015625)"/>
       <path id="DejaVuSans-62" d="M 3116 1747 
Q 3116 2381 2855 2742 
Q 2594 3103 2138 3103 
Q 1681 3103 1420 2742 
Q 1159 2381 1159 1747 
Q 1159 1113 1420 752 
Q 1681 391 2138 391 
Q 2594 391 2855 752 
Q 3116 1113 3116 1747 
z
M 1159 2969 
Q 1341 3281 1617 3432 
Q 1894 3584 2278 3584 
Q 2916 3584 3314 3078 
Q 3713 2572 3713 1747 
Q 3713 922 3314 415 
Q 2916 -91 2278 -91 
Q 1894 -91 1617 61 
Q 1341 213 1159 525 
L 1159 0 
L 581 0 
L 581 4863 
L 1159 4863 
L 1159 2969 
z
" transform="scale(0.015625)"/>
       <path id="DejaVuSans-65" d="M 3597 1894 
L 3597 1613 
L 953 1613 
Q 991 1019 1311 708 
Q 1631 397 2203 397 
Q 2534 397 2845 478 
Q 3156 559 3463 722 
L 3463 178 
Q 3153 47 2828 -22 
Q 2503 -91 2169 -91 
Q 1331 -91 842 396 
Q 353 884 353 1716 
Q 353 2575 817 3079 
Q 1281 3584 2069 3584 
Q 2775 3584 3186 3129 
Q 3597 2675 3597 1894 
z
M 3022 2063 
Q 3016 2534 2758 2815 
Q 2500 3097 2075 3097 
Q 1594 3097 1305 2825 
Q 1016 2553 972 2059 
L 3022 2063 
z
" transform="scale(0.015625)"/>
       <path id="DejaVuSans-72" d="M 2631 2963 
Q 2534 3019 2420 3045 
Q 2306 3072 2169 3072 
Q 1681 3072 1420 2755 
Q 1159 2438 1159 1844 
L 1159 0 
L 581 0 
L 581 3500 
L 1159 3500 
L 1159 2956 
Q 1341 3275 1631 3429 
Q 1922 3584 2338 3584 
Q 2397 3584 2469 3576 
Q 2541 3569 2628 3553 
L 2631 2963 
z
" transform="scale(0.015625)"/>
       <path id="DejaVuSans-20" transform="scale(0.015625)"/>
       <path id="DejaVuSans-6f" d="M 1959 3097 
Q 1497 3097 1228 2736 
Q 959 2375 959 1747 
Q 959 1119 1226 758 
Q 1494 397 1959 397 
Q 2419 397 2687 759 
Q 2956 1122 2956 1747 
Q 2956 2369 2687 2733 
Q 2419 3097 1959 3097 
z
M 1959 3584 
Q 2709 3584 3137 3096 
Q 3566 2609 3566 1747 
Q 3566 888 3137 398 
Q 2709 -91 1959 -91 
Q 1206 -91 779 398 
Q 353 888 353 1747 
Q 353 2609 779 3096 
Q 1206 3584 1959 3584 
z
" transform="scale(0.015625)"/>
       <path id="DejaVuSans-66" d="M 2375 4863 
L 2375 4384 
L 1825 4384 
Q 1516 4384 1395 4259 
Q 1275 4134 1275 3809 
L 1275 3500 
L 2222 3500 
L 2222 3053 
L 1275 3053 
L 1275 0 
L 697 0 
L 697 3053 
L 147 3053 
L 147 3500 
L 697 3500 
L 697 3744 
Q 697 4328 969 4595 
Q 1241 4863 1831 4863 
L 2375 4863 
z
" transform="scale(0.015625)"/>
       <path id="DejaVuSans-47" d="M 3809 666 
L 3809 1919 
L 2778 1919 
L 2778 2438 
L 4434 2438 
L 4434 434 
Q 4069 175 3628 42 
Q 3188 -91 2688 -91 
Q 1594 -91 976 548 
Q 359 1188 359 2328 
Q 359 3472 976 4111 
Q 1594 4750 2688 4750 
Q 3144 4750 3555 4637 
Q 3966 4525 4313 4306 
L 4313 3634 
Q 3963 3931 3569 4081 
Q 3175 4231 2741 4231 
Q 1884 4231 1454 3753 
Q 1025 3275 1025 2328 
Q 1025 1384 1454 906 
Q 1884 428 2741 428 
Q 3075 428 3337 486 
Q 3600 544 3809 666 
z
" transform="scale(0.015625)"/>
       <path id="DejaVuSans-61" d="M 2194 1759 
Q 1497 1759 1228 1600 
Q 959 1441 959 1056 
Q 959 750 1161 570 
Q 1363 391 1709 391 
Q 2188 391 2477 730 
Q 2766 1069 2766 1631 
L 2766 1759 
L 2194 1759 
z
M 3341 1997 
L 3341 0 
L 2766 0 
L 2766 531 
Q 2569 213 2275 61 
Q 1981 -91 1556 -91 
Q 1019 -91 701 211 
Q 384 513 384 1019 
Q 384 1609 779 1909 
Q 1175 2209 1959 2209 
L 2766 2209 
L 2766 2266 
Q 2766 2663 2505 2880 
Q 2244 3097 1772 3097 
Q 1472 3097 1187 3025 
Q 903 2953 641 2809 
L 641 3341 
Q 956 3463 1253 3523 
Q 1550 3584 1831 3584 
Q 2591 3584 2966 3190 
Q 3341 2797 3341 1997 
z
" transform="scale(0.015625)"/>
       <path id="DejaVuSans-73" d="M 2834 3397 
L 2834 2853 
Q 2591 2978 2328 3040 
Q 2066 3103 1784 3103 
Q 1356 3103 1142 2972 
Q 928 2841 928 2578 
Q 928 2378 1081 2264 
Q 1234 2150 1697 2047 
L 1894 2003 
Q 2506 1872 2764 1633 
Q 3022 1394 3022 966 
Q 3022 478 2636 193 
Q 2250 -91 1575 -91 
Q 1294 -91 989 -36 
Q 684 19 347 128 
L 347 722 
Q 666 556 975 473 
Q 1284 391 1588 391 
Q 1994 391 2212 530 
Q 2431 669 2431 922 
Q 2431 1156 2273 1281 
Q 2116 1406 1581 1522 
L 1381 1569 
Q 847 1681 609 1914 
Q 372 2147 372 2553 
Q 372 3047 722 3315 
Q 1072 3584 1716 3584 
Q 2034 3584 2315 3537 
Q 2597 3491 2834 3397 
z
" transform="scale(0.015625)"/>
      </defs>
      <use xlink:href="#DejaVuSans-4e"/>
      <use xlink:href="#DejaVuSans-75" x="74.804688"/>
      <use xlink:href="#DejaVuSans-6d" x="138.183594"/>
      <use xlink:href="#DejaVuSans-62" x="235.595703"/>
      <use xlink:href="#DejaVuSans-65" x="299.072266"/>
      <use xlink:href="#DejaVuSans-72" x="360.595703"/>
      <use xlink:href="#DejaVuSans-20" x="401.708984"/>
      <use xlink:href="#DejaVuSans-6f" x="433.496094"/>
      <use xlink:href="#DejaVuSans-66" x="494.677734"/>
      <use xlink:href="#DejaVuSans-20" x="529.882812"/>
      <use xlink:href="#DejaVuSans-47" x="561.669922"/>
      <use xlink:href="#DejaVuSans-61" x="639.160156"/>
      <use xlink:href="#DejaVuSans-6d" x="700.439453"/>
      <use xlink:href="#DejaVuSans-65" x="797.851562"/>
      <use xlink:href="#DejaVuSans-73" x="859.375"/>
     </g>
    </g>
   </g>
   <g id="matplotlib.axis_2">
    <g id="ytick_1">
     <g id="line2d_17">
      <path d="M 57.6 307.584 
L 414.72 307.584 
" clip-path="url(#p1e76dcd1b1)" style="fill: none; stroke: #ffffff; stroke-width: 0.8; stroke-linecap: square"/>
     </g>
     <g id="line2d_18">
      <defs>
       <path id="m7fa28c05ba" d="M 0 0 
L -3.5 0 
" style="stroke: #555555; stroke-width: 0.8"/>
      </defs>
      <g>
       <use xlink:href="#m7fa28c05ba" x="57.6" y="307.584" style="fill: #555555; stroke: #555555; stroke-width: 0.8"/>
      </g>
     </g>
     <g id="text_10">
      <!-- 0 -->
      <g style="fill: #555555" transform="translate(44.2375 311.383219) scale(0.1 -0.1)">
       <use xlink:href="#DejaVuSans-30"/>
      </g>
     </g>
    </g>
    <g id="ytick_2">
     <g id="line2d_19">
      <path d="M 57.6 263.879671 
L 414.72 263.879671 
" clip-path="url(#p1e76dcd1b1)" style="fill: none; stroke: #ffffff; stroke-width: 0.8; stroke-linecap: square"/>
     </g>
     <g id="line2d_20">
      <g>
       <use xlink:href="#m7fa28c05ba" x="57.6" y="263.879671" style="fill: #555555; stroke: #555555; stroke-width: 0.8"/>
      </g>
     </g>
     <g id="text_11">
      <!-- 500 -->
      <g style="fill: #555555" transform="translate(31.5125 267.67889) scale(0.1 -0.1)">
       <use xlink:href="#DejaVuSans-35"/>
       <use xlink:href="#DejaVuSans-30" x="63.623047"/>
       <use xlink:href="#DejaVuSans-30" x="127.246094"/>
      </g>
     </g>
    </g>
    <g id="ytick_3">
     <g id="line2d_21">
      <path d="M 57.6 220.175343 
L 414.72 220.175343 
" clip-path="url(#p1e76dcd1b1)" style="fill: none; stroke: #ffffff; stroke-width: 0.8; stroke-linecap: square"/>
     </g>
     <g id="line2d_22">
      <g>
       <use xlink:href="#m7fa28c05ba" x="57.6" y="220.175343" style="fill: #555555; stroke: #555555; stroke-width: 0.8"/>
      </g>
     </g>
     <g id="text_12">
      <!-- 1000 -->
      <g style="fill: #555555" transform="translate(25.15 223.974562) scale(0.1 -0.1)">
       <use xlink:href="#DejaVuSans-31"/>
       <use xlink:href="#DejaVuSans-30" x="63.623047"/>
       <use xlink:href="#DejaVuSans-30" x="127.246094"/>
       <use xlink:href="#DejaVuSans-30" x="190.869141"/>
      </g>
     </g>
    </g>
    <g id="ytick_4">
     <g id="line2d_23">
      <path d="M 57.6 176.471014 
L 414.72 176.471014 
" clip-path="url(#p1e76dcd1b1)" style="fill: none; stroke: #ffffff; stroke-width: 0.8; stroke-linecap: square"/>
     </g>
     <g id="line2d_24">
      <g>
       <use xlink:href="#m7fa28c05ba" x="57.6" y="176.471014" style="fill: #555555; stroke: #555555; stroke-width: 0.8"/>
      </g>
     </g>
     <g id="text_13">
      <!-- 1500 -->
      <g style="fill: #555555" transform="translate(25.15 180.270233) scale(0.1 -0.1)">
       <use xlink:href="#DejaVuSans-31"/>
       <use xlink:href="#DejaVuSans-35" x="63.623047"/>
       <use xlink:href="#DejaVuSans-30" x="127.246094"/>
       <use xlink:href="#DejaVuSans-30" x="190.869141"/>
      </g>
     </g>
    </g>
    <g id="ytick_5">
     <g id="line2d_25">
      <path d="M 57.6 132.766686 
L 414.72 132.766686 
" clip-path="url(#p1e76dcd1b1)" style="fill: none; stroke: #ffffff; stroke-width: 0.8; stroke-linecap: square"/>
     </g>
     <g id="line2d_26">
      <g>
       <use xlink:href="#m7fa28c05ba" x="57.6" y="132.766686" style="fill: #555555; stroke: #555555; stroke-width: 0.8"/>
      </g>
     </g>
     <g id="text_14">
      <!-- 2000 -->
      <g style="fill: #555555" transform="translate(25.15 136.565904) scale(0.1 -0.1)">
       <use xlink:href="#DejaVuSans-32"/>
       <use xlink:href="#DejaVuSans-30" x="63.623047"/>
       <use xlink:href="#DejaVuSans-30" x="127.246094"/>
       <use xlink:href="#DejaVuSans-30" x="190.869141"/>
      </g>
     </g>
    </g>
    <g id="ytick_6">
     <g id="line2d_27">
      <path d="M 57.6 89.062357 
L 414.72 89.062357 
" clip-path="url(#p1e76dcd1b1)" style="fill: none; stroke: #ffffff; stroke-width: 0.8; stroke-linecap: square"/>
     </g>
     <g id="line2d_28">
      <g>
       <use xlink:href="#m7fa28c05ba" x="57.6" y="89.062357" style="fill: #555555; stroke: #555555; stroke-width: 0.8"/>
      </g>
     </g>
     <g id="text_15">
      <!-- 2500 -->
      <g style="fill: #555555" transform="translate(25.15 92.861576) scale(0.1 -0.1)">
       <use xlink:href="#DejaVuSans-32"/>
       <use xlink:href="#DejaVuSans-35" x="63.623047"/>
       <use xlink:href="#DejaVuSans-30" x="127.246094"/>
       <use xlink:href="#DejaVuSans-30" x="190.869141"/>
      </g>
     </g>
    </g>
    <g id="ytick_7">
     <g id="line2d_29">
      <path d="M 57.6 45.358029 
L 414.72 45.358029 
" clip-path="url(#p1e76dcd1b1)" style="fill: none; stroke: #ffffff; stroke-width: 0.8; stroke-linecap: square"/>
     </g>
     <g id="line2d_30">
      <g>
       <use xlink:href="#m7fa28c05ba" x="57.6" y="45.358029" style="fill: #555555; stroke: #555555; stroke-width: 0.8"/>
      </g>
     </g>
     <g id="text_16">
      <!-- 3000 -->
      <g style="fill: #555555" transform="translate(25.15 49.157247) scale(0.1 -0.1)">
       <use xlink:href="#DejaVuSans-33"/>
       <use xlink:href="#DejaVuSans-30" x="63.623047"/>
       <use xlink:href="#DejaVuSans-30" x="127.246094"/>
       <use xlink:href="#DejaVuSans-30" x="190.869141"/>
      </g>
     </g>
    </g>
    <g id="text_17">
     <!-- Median reward -->
     <g style="fill: #555555" transform="translate(18.654375 219.03675) rotate(-90) scale(0.12 -0.12)">
      <defs>
       <path id="DejaVuSans-4d" d="M 628 4666 
L 1569 4666 
L 2759 1491 
L 3956 4666 
L 4897 4666 
L 4897 0 
L 4281 0 
L 4281 4097 
L 3078 897 
L 2444 897 
L 1241 4097 
L 1241 0 
L 628 0 
L 628 4666 
z
" transform="scale(0.015625)"/>
       <path id="DejaVuSans-64" d="M 2906 2969 
L 2906 4863 
L 3481 4863 
L 3481 0 
L 2906 0 
L 2906 525 
Q 2725 213 2448 61 
Q 2172 -91 1784 -91 
Q 1150 -91 751 415 
Q 353 922 353 1747 
Q 353 2572 751 3078 
Q 1150 3584 1784 3584 
Q 2172 3584 2448 3432 
Q 2725 3281 2906 2969 
z
M 947 1747 
Q 947 1113 1208 752 
Q 1469 391 1925 391 
Q 2381 391 2643 752 
Q 2906 1113 2906 1747 
Q 2906 2381 2643 2742 
Q 2381 3103 1925 3103 
Q 1469 3103 1208 2742 
Q 947 2381 947 1747 
z
" transform="scale(0.015625)"/>
       <path id="DejaVuSans-69" d="M 603 3500 
L 1178 3500 
L 1178 0 
L 603 0 
L 603 3500 
z
M 603 4863 
L 1178 4863 
L 1178 4134 
L 603 4134 
L 603 4863 
z
" transform="scale(0.015625)"/>
       <path id="DejaVuSans-6e" d="M 3513 2113 
L 3513 0 
L 2938 0 
L 2938 2094 
Q 2938 2591 2744 2837 
Q 2550 3084 2163 3084 
Q 1697 3084 1428 2787 
Q 1159 2491 1159 1978 
L 1159 0 
L 581 0 
L 581 3500 
L 1159 3500 
L 1159 2956 
Q 1366 3272 1645 3428 
Q 1925 3584 2291 3584 
Q 2894 3584 3203 3211 
Q 3513 2838 3513 2113 
z
" transform="scale(0.015625)"/>
       <path id="DejaVuSans-77" d="M 269 3500 
L 844 3500 
L 1563 769 
L 2278 3500 
L 2956 3500 
L 3675 769 
L 4391 3500 
L 4966 3500 
L 4050 0 
L 3372 0 
L 2619 2869 
L 1863 0 
L 1184 0 
L 269 3500 
z
" transform="scale(0.015625)"/>
      </defs>
      <use xlink:href="#DejaVuSans-4d"/>
      <use xlink:href="#DejaVuSans-65" x="86.279297"/>
      <use xlink:href="#DejaVuSans-64" x="147.802734"/>
      <use xlink:href="#DejaVuSans-69" x="211.279297"/>
      <use xlink:href="#DejaVuSans-61" x="239.0625"/>
      <use xlink:href="#DejaVuSans-6e" x="300.341797"/>
      <use xlink:href="#DejaVuSans-20" x="363.720703"/>
      <use xlink:href="#DejaVuSans-72" x="395.507812"/>
      <use xlink:href="#DejaVuSans-65" x="434.371094"/>
      <use xlink:href="#DejaVuSans-77" x="495.894531"/>
      <use xlink:href="#DejaVuSans-61" x="577.681641"/>
      <use xlink:href="#DejaVuSans-72" x="638.960938"/>
      <use xlink:href="#DejaVuSans-64" x="678.324219"/>
     </g>
    </g>
   </g>
   <g id="line2d_31">
    <path d="M 73.832727 306.27287 
L 73.971905 305.704714 
L 74.018297 305.783382 
L 74.06469 305.894099 
L 74.111082 305.873288 
L 74.25026 305.853309 
L 75.410071 306.10055 
L 103.616697 305.947705 
L 107.23531 305.875106 
L 131.127435 305.052473 
L 134.699655 304.818944 
L 139.710043 304.550655 
L 141.844097 304.367993 
L 145.323532 304.096327 
L 146.622522 303.945183 
L 149.869995 303.587292 
L 153.442216 303.001689 
L 153.766963 302.955448 
L 154.416458 302.817211 
L 156.040194 302.521348 
L 156.736081 302.206021 
L 158.035071 301.83794 
L 158.313426 301.679166 
L 158.638173 301.508549 
L 159.51963 301.10961 
L 159.797985 300.867159 
L 160.169125 300.766923 
L 162.488748 299.664099 
L 163.184636 299.550568 
L 163.416598 299.146712 
L 164.57641 298.689711 
L 164.715587 298.213034 
L 164.808372 298.059842 
L 165.225905 297.636442 
L 166.292931 297.447314 
L 166.339324 297.372697 
L 166.664071 295.542169 
L 166.710464 295.524485 
L 166.896034 295.247882 
L 167.452743 295.162186 
L 167.545528 294.933403 
L 167.777491 292.677416 
L 167.916668 290.996904 
L 168.241415 290.987732 
L 168.89091 291.060395 
L 169.030088 290.57614 
L 169.215657 288.315512 
L 169.63319 288.368607 
L 170.375469 288.390537 
L 171.071356 288.081991 
L 171.720851 284.963252 
L 172.834271 283.59755 
L 173.01984 283.368615 
L 173.530158 282.965413 
L 173.76212 282.735524 
L 174.226045 282.088207 
L 174.5044 280.910308 
L 174.68997 280.623915 
L 174.829147 280.109268 
L 174.87554 280.10559 
L 175.246679 278.454855 
L 175.293072 278.460858 
L 175.478642 277.277122 
L 175.664212 276.976243 
L 175.803389 275.882601 
L 175.849781 275.780837 
L 176.267314 272.990154 
L 176.870416 273.128231 
L 176.916808 273.042639 
L 177.148771 270.136609 
L 177.195163 270.092549 
L 177.473518 268.735721 
L 177.705481 268.522944 
L 178.26219 267.460515 
L 178.308583 267.452602 
L 178.726115 265.993438 
L 179.00447 266.010007 
L 179.282825 266.02718 
L 179.607572 265.687931 
L 179.793142 265.243017 
L 180.117889 264.957559 
L 180.257067 264.854459 
L 180.396244 264.153194 
L 180.581814 263.20702 
L 180.767384 262.618273 
L 181.184916 261.780504 
L 181.370486 260.956966 
L 181.695233 260.739499 
L 181.834411 260.533335 
L 182.066373 260.396021 
L 182.251943 259.897643 
L 182.437513 259.722722 
L 182.669475 258.541561 
L 183.087008 255.593917 
L 183.179793 255.553126 
L 183.411755 253.5582 
L 183.736502 252.657543 
L 183.968465 252.412281 
L 184.154035 252.072522 
L 184.989099 252.337827 
L 185.453024 250.933894 
L 185.684986 249.414227 
L 185.870556 249.273417 
L 186.288089 248.050342 
L 186.891191 246.233412 
L 187.030368 246.136394 
L 187.262331 245.95375 
L 187.401508 245.683288 
L 187.587078 244.608468 
L 188.051003 243.989145 
L 188.143788 243.888301 
L 188.607712 241.909973 
L 188.654105 241.886227 
L 188.74689 240.756907 
L 188.886067 240.083026 
L 189.11803 240.028922 
L 189.581954 240.149412 
L 189.674739 240.029355 
L 189.721132 239.981606 
L 189.999487 238.907384 
L 190.092272 238.491518 
L 190.277841 235.85317 
L 190.324234 235.874209 
L 190.463411 235.641636 
L 190.509804 235.667416 
L 190.695374 235.627667 
L 190.741766 235.613321 
L 190.973729 234.331981 
L 191.159299 233.546276 
L 191.298476 233.429884 
L 191.716008 233.479202 
L 192.411895 230.508878 
L 192.458288 230.524145 
L 192.551073 230.476009 
L 192.69025 230.227782 
L 192.736643 230.192975 
L 193.014998 228.951648 
L 193.339745 228.121288 
L 193.43253 228.049816 
L 193.571707 227.668181 
L 194.128417 225.936059 
L 194.313987 224.78768 
L 194.406772 224.162085 
L 194.453164 224.168047 
L 194.777912 223.471501 
L 194.917089 222.146641 
L 195.102659 222.160171 
L 195.381014 221.796322 
L 195.705761 220.155353 
L 195.798546 220.192426 
L 195.984116 220.245031 
L 196.448041 218.843485 
L 196.494433 218.863222 
L 196.680003 218.437267 
L 197.00475 218.274106 
L 197.74703 216.386609 
L 197.9326 216.248355 
L 198.071777 216.231513 
L 198.628487 215.310179 
L 198.767665 215.074071 
L 198.906842 214.291998 
L 198.953234 214.307559 
L 199.277982 213.876749 
L 199.556337 212.856585 
L 199.695514 212.594816 
L 199.881084 211.408878 
L 200.437794 208.406968 
L 200.576971 208.353778 
L 200.948111 208.43165 
L 201.319251 208.377082 
L 201.504821 207.337923 
L 201.736783 207.147301 
L 201.968745 207.123171 
L 202.06153 207.016531 
L 202.2471 206.967576 
L 202.525455 207.048547 
L 202.711025 206.748222 
L 202.850202 206.672968 
L 203.035772 206.461847 
L 203.082165 206.430982 
L 203.267735 205.74615 
L 203.499697 205.5202 
L 203.638874 204.820649 
L 203.685267 204.816299 
L 204.102799 203.568103 
L 204.381154 202.914602 
L 204.520332 202.540414 
L 204.937864 201.452823 
L 204.984256 201.479132 
L 205.123434 201.546492 
L 206.283246 198.352376 
L 206.376031 197.771262 
L 206.422423 197.786131 
L 206.5616 197.791733 
L 206.74717 197.726567 
L 207.11831 197.881756 
L 207.396665 197.338496 
L 207.628627 195.413879 
L 207.67502 195.44999 
L 207.86059 194.583631 
L 207.999767 194.058857 
L 208.092552 194.10211 
L 208.602869 193.126575 
L 208.742047 193.085871 
L 208.881224 192.698107 
L 209.205972 192.001577 
L 209.530719 191.98632 
L 209.809074 192.078021 
L 210.272999 191.464897 
L 210.319391 191.477563 
L 210.597746 190.138717 
L 210.644138 190.131624 
L 210.783316 189.627926 
L 211.015278 189.12689 
L 211.200848 188.895674 
L 211.293633 188.690178 
L 211.850343 183.919724 
L 211.98952 183.737464 
L 212.035913 183.772482 
L 212.407052 183.577473 
L 212.824585 182.009608 
L 212.91737 181.84261 
L 213.613257 179.86638 
L 213.938004 179.699984 
L 214.123574 179.467643 
L 214.401929 179.568095 
L 214.958639 178.52562 
L 215.051424 178.530557 
L 215.236993 177.65182 
L 215.329778 177.708716 
L 215.793703 178.049025 
L 215.979273 176.900215 
L 216.072058 176.864909 
L 216.211235 176.474773 
L 216.257628 176.497997 
L 216.443198 175.89227 
L 216.48959 175.900272 
L 216.767945 175.083281 
L 216.814338 175.11954 
L 217.0463 175.229319 
L 217.139085 174.980654 
L 217.324655 174.659785 
L 217.742187 174.240756 
L 217.927757 173.389177 
L 218.113327 173.414212 
L 218.298897 173.093252 
L 218.484467 172.235268 
L 218.623644 172.278982 
L 218.994784 170.373269 
L 219.180354 170.375585 
L 219.365924 169.146932 
L 219.412316 169.144002 
L 219.597886 168.22323 
L 219.644279 168.136554 
L 219.783456 167.678764 
L 219.922633 167.643572 
L 220.340166 166.923106 
L 220.479343 166.587202 
L 220.804091 166.490319 
L 220.896875 166.536528 
L 221.499978 165.532167 
L 221.824725 165.699178 
L 222.28865 165.623657 
L 222.752575 164.426586 
L 223.262892 162.222698 
L 223.494854 162.062238 
L 223.912386 162.330206 
L 224.051564 162.177311 
L 224.144349 162.108054 
L 224.469096 160.88189 
L 224.515489 160.90544 
L 224.701058 160.488128 
L 224.793843 160.045061 
L 224.979413 159.590201 
L 225.164983 159.306102 
L 225.257768 158.704703 
L 225.304161 158.739368 
L 225.396946 158.594553 
L 225.628908 157.97304 
L 225.907263 158.010221 
L 226.000048 157.814741 
L 226.23201 156.032391 
L 226.278403 155.961173 
L 226.463973 153.907204 
L 226.60315 153.874045 
L 226.78872 153.775534 
L 227.391822 154.262985 
L 227.531 154.103577 
L 227.577392 154.095479 
L 227.855747 153.26266 
L 227.948532 153.189352 
L 228.180494 152.600204 
L 228.366064 152.628414 
L 228.505241 152.378934 
L 228.644419 151.047612 
L 228.922774 149.769604 
L 229.386699 148.900281 
L 229.618661 148.469356 
L 230.175371 148.707396 
L 230.314548 148.410556 
L 230.407333 148.432306 
L 230.54651 147.957917 
L 231.196005 146.799292 
L 231.242398 146.815194 
L 231.381575 146.580907 
L 231.520752 146.530259 
L 231.706322 146.645506 
L 231.891892 146.380712 
L 232.03107 146.287711 
L 232.170247 146.24846 
L 232.402209 145.865943 
L 232.587779 145.76052 
L 232.912527 145.98634 
L 232.958919 145.91332 
L 233.190882 145.708255 
L 233.283667 145.703752 
L 233.701199 145.230192 
L 233.747591 145.195041 
L 233.933161 144.711008 
L 234.072339 144.614164 
L 234.165124 144.15459 
L 234.443478 143.092013 
L 234.629048 142.843994 
L 235.139366 143.047859 
L 235.324935 142.494099 
L 235.371328 142.497857 
L 235.60329 141.387941 
L 236.067215 140.170034 
L 236.16 140.249092 
L 236.252785 140.331104 
L 236.484747 139.775928 
L 236.623925 139.77046 
L 236.855887 139.485987 
L 236.90228 139.253248 
L 236.995065 139.275426 
L 237.273419 139.434299 
L 237.690952 139.712124 
L 238.108484 138.546515 
L 238.247661 137.522826 
L 238.340446 137.39141 
L 238.433231 136.810906 
L 238.479624 136.835842 
L 238.757979 136.655216 
L 238.804371 136.45655 
L 238.897156 136.534222 
L 239.036333 136.346711 
L 239.221903 136.368947 
L 239.268296 136.368231 
L 239.500258 135.467961 
L 239.639436 135.352075 
L 239.917791 134.166664 
L 240.381715 132.412548 
L 240.4745 132.385644 
L 240.520893 132.176544 
L 240.613678 132.206429 
L 240.66007 132.249062 
L 240.799248 131.796862 
L 240.84564 131.82507 
L 240.938425 131.730154 
L 240.984817 131.754331 
L 241.123995 131.837324 
L 241.263172 131.567759 
L 241.355957 131.5948 
L 241.912667 130.547919 
L 242.191022 130.25707 
L 242.747732 130.178434 
L 242.840517 130.051045 
L 242.933301 129.813587 
L 242.979694 129.826428 
L 243.072479 129.800588 
L 243.258049 129.928118 
L 243.304441 129.850887 
L 243.490011 129.658063 
L 243.582796 129.616081 
L 243.953936 129.436864 
L 244.139506 128.899638 
L 244.232291 128.877119 
L 244.325076 128.687036 
L 244.371468 128.730983 
L 244.603431 128.697625 
L 244.649823 128.743063 
L 245.34571 125.598774 
L 246.551915 126.284386 
L 246.737484 126.216687 
L 246.783877 126.233187 
L 247.155017 125.501101 
L 247.294194 125.423167 
L 247.572549 124.497141 
L 247.897296 124.529381 
L 247.943689 124.533647 
L 248.082866 124.371313 
L 248.222044 124.383731 
L 248.268436 124.395907 
L 248.314829 124.204215 
L 248.407614 124.242298 
L 248.500399 124.155749 
L 248.546791 124.190126 
L 248.685968 124.169384 
L 248.871538 123.988091 
L 249.057108 123.783237 
L 249.242678 123.462078 
L 249.289071 123.487666 
L 249.938565 122.889554 
L 250.03135 122.962053 
L 250.263313 121.789615 
L 250.309705 121.830427 
L 250.356098 121.754114 
L 250.58806 121.446473 
L 250.680845 121.439069 
L 250.912807 121.163885 
L 251.051985 120.891324 
L 251.655087 121.314852 
L 251.701479 121.298579 
L 252.072619 120.025788 
L 252.211797 119.987863 
L 252.258189 119.871125 
L 252.304582 119.898464 
L 252.536544 120.012644 
L 253.000469 119.876794 
L 253.418001 118.984156 
L 253.510786 118.965594 
L 253.835533 118.536462 
L 254.113888 117.917918 
L 254.299458 117.277067 
L 254.392243 117.255163 
L 254.53142 117.099851 
L 254.71699 116.081561 
L 254.809775 115.995514 
L 255.08813 115.441834 
L 255.505662 115.463811 
L 255.923195 115.696305 
L 256.340727 114.229475 
L 256.479904 114.111974 
L 256.711867 114.1885 
L 256.897437 114.174286 
L 257.036614 114.233218 
L 257.314969 113.289116 
L 257.407754 113.082976 
L 257.454146 113.00681 
L 257.593324 112.58828 
L 257.964464 112.425106 
L 258.428388 112.811816 
L 258.613958 112.688803 
L 259.634593 112.478408 
L 259.820163 112.096369 
L 259.912948 112.104778 
L 260.14491 111.175246 
L 260.237695 111.07953 
L 260.423265 110.743506 
L 261.119152 111.336087 
L 261.397507 111.0283 
L 261.954217 110.841659 
L 262.093394 110.586034 
L 262.371749 110.592475 
L 262.557319 110.370779 
L 262.789281 110.267002 
L 262.974851 110.229913 
L 263.067636 110.271339 
L 263.206813 109.960776 
L 263.531561 109.64171 
L 263.763523 109.316405 
L 263.995485 109.161274 
L 264.041878 109.128708 
L 264.181055 108.841164 
L 264.366625 108.864312 
L 264.691373 108.613454 
L 264.876943 108.414621 
L 265.062512 107.88528 
L 265.20169 107.858735 
L 265.38726 107.491848 
L 265.526437 107.473395 
L 265.57283 107.481966 
L 265.665615 107.192109 
L 265.7584 107.258672 
L 266.083147 107.186105 
L 266.268717 106.715872 
L 266.454287 105.832549 
L 266.639857 105.06344 
L 267.242959 104.81107 
L 267.382136 104.69751 
L 267.660491 104.341114 
L 268.031631 104.546403 
L 268.356378 104.688978 
L 268.588341 104.661628 
L 268.77391 104.582 
L 268.866695 104.196111 
L 268.913088 104.206167 
L 269.098658 104.193834 
L 269.237835 104.211566 
L 269.423405 104.24431 
L 269.51619 103.948845 
L 269.562583 103.976242 
L 269.70176 103.897198 
L 269.840937 103.673233 
L 270.212077 102.859981 
L 270.397647 102.865913 
L 271.047142 103.123331 
L 271.279104 102.312068 
L 271.325497 102.335889 
L 271.789421 102.482453 
L 272.021384 102.103696 
L 272.160561 101.993667 
L 272.531701 101.744386 
L 272.624486 101.658911 
L 272.763663 101.532143 
L 273.227588 101.343711 
L 273.459551 101.126702 
L 273.64512 101.050856 
L 273.691513 101.05347 
L 273.877083 100.702766 
L 274.433793 100.343187 
L 274.480185 100.363169 
L 274.57297 100.167983 
L 274.619362 100.207839 
L 274.897717 100.294239 
L 275.036895 100.323647 
L 275.31525 100.514441 
L 275.593604 100.686181 
L 275.825567 100.468434 
L 276.103922 100.009024 
L 276.846201 100.328488 
L 277.170949 99.677465 
L 277.356518 99.559723 
L 277.588481 99.076827 
L 277.820443 98.625079 
L 277.959621 98.272759 
L 278.237976 98.35094 
L 278.377153 98.150677 
L 278.51633 98.195502 
L 278.655508 98.018162 
L 278.933863 98.041195 
L 279.305002 97.4982 
L 279.722535 97.663101 
L 279.81532 97.594808 
L 280.093675 97.175874 
L 280.279244 96.597883 
L 280.418422 96.579855 
L 280.557599 96.605134 
L 280.743169 96.653508 
L 280.789562 96.652336 
L 280.882347 96.411538 
L 280.928739 96.430917 
L 281.439056 96.534606 
L 281.810196 96.711901 
L 282.227728 96.462094 
L 282.274121 96.498784 
L 282.506083 95.996201 
L 282.552476 96.011443 
L 282.738046 95.561067 
L 282.784438 95.533062 
L 282.877223 95.171964 
L 282.923616 95.184298 
L 283.20197 94.790006 
L 283.248363 94.818958 
L 283.480325 94.847766 
L 283.665895 94.712678 
L 283.75868 94.66862 
L 284.222605 93.550106 
L 284.361782 92.941461 
L 284.408175 92.985427 
L 284.547352 92.931234 
L 284.8721 93.114853 
L 285.011277 93.039557 
L 285.196847 92.949098 
L 285.428809 92.946045 
L 285.799949 92.931577 
L 285.985519 92.884604 
L 286.078304 92.746987 
L 286.124696 92.769328 
L 286.263874 92.701115 
L 286.403051 92.534348 
L 286.913368 92.210439 
L 287.145331 92.119189 
L 287.330901 92.059147 
L 287.377293 92.0921 
L 287.702041 91.446598 
L 287.934003 91.470659 
L 288.07318 91.449622 
L 288.397928 91.016203 
L 288.490713 90.995603 
L 288.676283 90.722763 
L 288.722675 90.736838 
L 288.861852 90.531053 
L 288.954637 90.584451 
L 289.140207 90.393089 
L 289.232992 90.329952 
L 289.37217 89.869237 
L 289.418562 89.881983 
L 289.464955 89.843771 
L 289.604132 89.252488 
L 289.789702 89.193282 
L 289.882487 89.085363 
L 289.928879 89.115583 
L 290.068057 89.080056 
L 290.253627 89.150815 
L 290.531982 88.840131 
L 290.903121 88.28104 
L 290.995906 88.372124 
L 291.088691 88.343065 
L 291.459831 88.208148 
L 291.506224 88.247723 
L 291.691793 87.566938 
L 292.062933 87.707309 
L 292.248503 87.803888 
L 292.573251 88.01805 
L 292.94439 87.547582 
L 293.083568 87.392255 
L 293.222745 87.321631 
L 293.269138 86.983912 
L 293.361923 87.007838 
L 293.640277 87.055444 
L 293.68667 87.016497 
L 293.87224 86.50956 
L 293.965025 86.558337 
L 294.05781 86.305358 
L 294.104202 86.338093 
L 294.753697 86.219695 
L 294.892874 86.139229 
L 295.032052 86.177688 
L 295.078444 86.047656 
L 295.171229 86.103798 
L 295.264014 86.138268 
L 295.310407 85.787471 
L 295.403192 85.831842 
L 295.913509 86.234245 
L 295.959901 86.076153 
L 296.052686 86.110659 
L 296.238256 85.862125 
L 296.284649 85.882348 
L 296.423826 85.691833 
L 296.655788 85.729402 
L 296.702181 85.454936 
L 296.794966 85.521134 
L 296.980536 85.524042 
L 297.119713 85.525902 
L 297.212498 85.53218 
L 297.398068 85.383015 
L 297.954778 84.696809 
L 298.140348 84.378999 
L 298.37231 84.344366 
L 299.068197 84.792077 
L 299.11459 84.587977 
L 299.207375 84.628225 
L 299.392944 84.617008 
L 299.532122 84.459158 
L 299.624907 84.376872 
L 299.764084 83.931015 
L 300.413579 84.21183 
L 300.552756 84.245886 
L 300.738326 84.142476 
L 300.877504 84.150116 
L 301.016681 83.417378 
L 301.063074 83.445883 
L 301.295036 83.265883 
L 301.387821 83.125392 
L 301.434213 83.148779 
L 301.573391 83.1039 
L 302.408455 83.466607 
L 302.733203 83.311204 
L 303.104343 83.259717 
L 303.336305 83.302537 
L 303.61466 83.142758 
L 303.753837 82.911059 
L 303.80023 82.929489 
L 303.846622 82.727318 
L 303.939407 82.753905 
L 304.124977 82.744287 
L 304.403332 82.547643 
L 304.496117 82.345934 
L 304.542509 82.378055 
L 304.774472 82.435556 
L 305.284789 82.710165 
L 305.377574 82.654017 
L 305.516751 82.629185 
L 305.702321 82.572452 
L 305.748714 82.371539 
L 305.841499 82.416346 
L 306.212638 82.555018 
L 306.444601 82.599154 
L 306.537386 82.344539 
L 306.583778 82.355232 
L 306.862133 82.397412 
L 307.326058 81.992292 
L 307.37245 82.022132 
L 307.511628 81.792934 
L 307.650805 81.852452 
L 307.789983 81.863776 
L 308.021945 81.304627 
L 308.3003 81.134366 
L 308.393085 80.653254 
L 308.439477 80.680631 
L 308.48587 80.719798 
L 308.532262 80.656771 
L 308.625047 80.393359 
L 308.717832 80.450792 
L 308.903402 80.470973 
L 308.949794 80.494688 
L 309.042579 80.320216 
L 309.088972 80.360077 
L 309.320934 80.273578 
L 309.506504 80.305992 
L 309.784859 79.693634 
L 309.877644 79.701988 
L 309.924036 79.428206 
L 310.016821 79.500156 
L 310.202391 79.159313 
L 310.387961 78.849684 
L 310.944671 78.799569 
L 311.269418 78.723752 
L 311.315811 78.624142 
L 311.408596 78.671563 
L 311.686951 78.774607 
L 311.826128 78.69243 
L 312.05809 78.80588 
L 312.382838 78.576853 
L 312.707585 78.499793 
L 312.893155 78.110056 
L 313.217902 77.888326 
L 313.867397 78.287919 
L 313.913789 78.329364 
L 313.960182 78.226014 
L 314.238537 78.202333 
L 314.470499 77.960177 
L 314.609677 77.853978 
L 314.748854 77.385729 
L 314.934424 77.438301 
L 315.398349 77.218702 
L 315.630311 77.348004 
L 315.815881 77.200766 
L 316.001451 77.160248 
L 316.233413 77.080162 
L 316.279806 76.951785 
L 316.372591 76.991889 
L 316.697338 76.775247 
L 317.161263 77.06731 
L 317.393225 76.925821 
L 317.67158 76.875808 
L 317.810757 76.79535 
L 318.367467 77.049718 
L 318.506644 76.70622 
L 318.553037 76.725079 
L 318.692214 76.648805 
L 318.784999 76.617142 
L 318.970569 76.660549 
L 319.109747 76.686131 
L 319.341709 76.598969 
L 319.388102 76.572809 
L 319.573671 76.14282 
L 319.712849 75.81692 
L 319.805634 75.87227 
L 319.944811 75.897141 
L 320.037596 75.679924 
L 320.083989 75.718666 
L 320.269559 75.789271 
L 320.455128 75.697085 
L 320.640698 75.743404 
L 321.011838 75.606 
L 321.98608 75.423764 
L 322.125258 75.202786 
L 322.589182 75.418017 
L 322.821145 75.523118 
L 322.91393 75.464744 
L 323.006715 75.362873 
L 323.053107 75.257174 
L 323.192285 74.474721 
L 323.238677 74.483757 
L 323.424247 74.480397 
L 323.609817 73.52337 
L 324.073742 73.086874 
L 324.630451 73.408804 
L 324.862414 73.420181 
L 325.187161 72.415807 
L 325.419123 72.120178 
L 325.651086 72.144153 
L 325.743871 71.953903 
L 325.790263 71.979227 
L 325.975833 72.090381 
L 326.068618 72.013361 
L 326.115011 72.045648 
L 326.346973 72.050792 
L 326.903683 71.892772 
L 327.089253 71.899363 
L 327.22843 71.948885 
L 327.460392 72.051334 
L 328.063495 71.776334 
L 328.434634 71.408245 
L 328.527419 71.401622 
L 328.666597 71.387289 
L 328.759382 71.382016 
L 328.852167 71.238336 
L 328.898559 71.268266 
L 329.037736 71.268754 
L 329.176914 70.9325 
L 329.316091 70.871279 
L 329.455269 70.849746 
L 329.640839 70.347997 
L 329.826409 70.231786 
L 330.058371 70.271363 
L 330.151156 70.080648 
L 330.197548 70.101368 
L 330.336726 70.131128 
L 330.568688 69.990767 
L 330.847043 70.118341 
L 331.079005 69.956647 
L 331.17179 69.965047 
L 331.310968 69.671996 
L 331.35736 69.6986 
L 331.635715 69.810231 
L 331.821285 69.81592 
L 331.91407 69.586706 
L 332.146032 68.852703 
L 332.238817 68.839264 
L 332.28521 68.727954 
L 332.377995 68.783204 
L 332.795527 69.02907 
L 332.934704 68.903411 
L 333.305844 69.047759 
L 333.676984 69.281663 
L 333.723377 69.264601 
L 333.862554 69.12584 
L 334.048124 69.035195 
L 334.187301 68.827681 
L 334.372871 68.497825 
L 334.558441 68.440632 
L 334.744011 68.499459 
L 334.790403 68.514984 
L 334.836796 68.400206 
L 334.929581 68.459365 
L 335.022366 68.419214 
L 335.161543 68.394445 
L 335.254328 68.466111 
L 335.300721 68.390791 
L 335.393506 68.26322 
L 335.439898 68.286652 
L 336.41414 68.175703 
L 336.553318 68.093832 
L 336.692495 67.853534 
L 336.924457 67.865265 
L 337.295597 67.876592 
L 337.388382 67.726476 
L 337.434775 67.74738 
L 337.52756 67.756755 
L 337.666737 67.616671 
L 337.898699 67.618172 
L 338.037877 67.467938 
L 338.316232 67.531851 
L 338.455409 67.4453 
L 338.640979 67.444492 
L 338.826549 67.439325 
L 338.965726 67.38579 
L 339.104904 67.339663 
L 339.290474 67.130482 
L 339.568828 67.17649 
L 339.615221 67.162111 
L 339.661613 66.91696 
L 339.754398 66.937188 
L 339.939968 66.685619 
L 340.171931 66.421977 
L 340.264716 66.432448 
L 340.450286 66.287992 
L 340.682248 66.369806 
L 340.775033 66.379044 
L 341.192565 66.630966 
L 341.47092 66.535344 
L 341.610097 66.486668 
L 341.795667 66.580675 
L 342.074022 66.596503 
L 342.955479 66.441654 
L 343.094657 66.252221 
L 343.373012 66.06475 
L 343.697759 66.192403 
L 343.883329 65.975407 
L 344.022506 66.033605 
L 344.161684 65.77074 
L 344.300861 65.664809 
L 344.672001 65.734156 
L 345.089533 65.934621 
L 345.321495 66.022492 
L 345.553458 66.038845 
L 346.063775 66.252198 
L 346.71327 66.382359 
L 346.852447 66.294273 
L 347.177195 66.264687 
L 347.687512 66.114002 
L 347.826689 66.036975 
L 348.012259 65.69995 
L 348.708146 65.491623 
L 348.847324 65.390533 
L 349.032894 65.40854 
L 349.218463 65.444411 
L 349.450426 65.213769 
L 349.682388 65.283263 
L 349.960743 65.346155 
L 350.09992 65.202509 
L 350.517453 65.245967 
L 350.703023 65.16273 
L 350.8422 65.014702 
L 351.02777 65.035815 
L 351.166947 64.819371 
L 351.352517 64.801422 
L 351.723657 64.410315 
L 351.862835 64.270118 
L 352.002012 64.216931 
L 352.141189 64.096434 
L 352.651507 64.308257 
L 352.929862 64.243456 
L 353.069039 64.298947 
L 353.254609 64.225631 
L 353.904104 64.368427 
L 354.136066 64.489734 
L 354.321636 64.388499 
L 354.785561 64.449251 
L 355.667018 64.426135 
L 356.409297 64.257195 
L 357.105184 64.559723 
L 357.754679 64.538952 
L 358.125819 64.168417 
L 358.172211 64.169127 
L 358.404174 63.558021 
L 358.496959 63.342591 
L 358.636136 63.233327 
L 358.960883 63.24451 
L 360.538228 63.035747 
L 361.002152 62.631241 
L 361.14133 62.578776 
L 361.234115 62.528582 
L 361.280507 62.567548 
L 361.466077 62.368027 
L 361.605254 62.251583 
L 361.790824 62.18932 
L 362.161964 61.899836 
L 362.765066 62.226103 
L 363.321776 62.359622 
L 363.368169 62.395407 
L 363.414561 62.315504 
L 363.646523 62.350437 
L 364.017663 62.51174 
L 364.342411 62.599627 
L 364.435196 62.338608 
L 364.481588 62.356125 
L 365.82697 62.410479 
L 366.337287 61.94107 
L 366.476464 61.942121 
L 366.708427 61.766201 
L 367.033174 61.76172 
L 367.172352 61.721568 
L 367.497099 61.418455 
L 367.636276 61.199392 
L 367.775454 61.064814 
L 367.821846 61.10051 
L 368.100201 61.144812 
L 368.192986 61.066835 
L 368.239379 61.098734 
L 368.378556 61.091931 
L 368.981658 61.200563 
L 369.306405 61.354005 
L 369.445583 61.305726 
L 369.677545 61.287112 
L 369.863115 60.858657 
L 369.9559 60.845572 
L 370.32704 60.181591 
L 371.022927 60.486152 
L 371.301282 60.420586 
L 371.626029 60.29384 
L 371.997169 59.608631 
L 372.461094 59.496617 
L 372.600271 59.547842 
L 372.646664 59.418855 
L 372.739449 59.453312 
L 372.785841 59.484203 
L 372.925019 59.234072 
L 373.156981 59.028984 
L 373.388943 58.27931 
L 373.574513 58.339486 
L 374.45597 58.819029 
L 374.687933 58.420973 
L 374.82711 58.37816 
L 375.01268 58.317611 
L 375.708567 58.509472 
L 375.94053 58.380066 
L 376.218884 57.821412 
L 376.543632 57.769281 
L 376.729202 57.797378 
L 376.821987 57.638825 
L 377.007556 57.342777 
L 377.053949 57.367392 
L 377.193126 57.133031 
L 377.332304 57.180186 
L 377.517874 57.126355 
L 377.657051 57.218062 
L 377.703444 57.116514 
L 377.889013 57.133502 
L 378.028191 57.144775 
L 378.167368 57.089147 
L 378.399331 57.122294 
L 378.584901 57.026246 
L 378.816863 57.06236 
L 378.95604 57.013371 
L 379.14161 56.902133 
L 379.188003 56.723796 
L 379.280788 56.780966 
L 380.208637 57.205349 
L 380.347815 57.059148 
L 380.718955 57.101598 
L 380.858132 57.034592 
L 381.229272 57.156258 
L 381.693196 57.360948 
L 381.832374 57.341532 
L 381.971551 57.27908 
L 382.110729 57.245343 
L 382.389084 56.622379 
L 382.899401 56.885555 
L 383.038578 56.909359 
L 383.177756 56.881633 
L 384.19839 56.62383 
L 384.708707 55.592849 
L 385.079847 55.646653 
L 385.31181 55.553679 
L 385.590164 55.551223 
L 385.775734 55.241693 
L 385.868519 55.250098 
L 386.007697 55.153435 
L 386.239659 55.173495 
L 386.378837 55.155737 
L 386.471622 55.05624 
L 386.518014 55.090291 
L 386.889154 55.270072 
L 387.445863 55.56382 
L 387.817003 55.639955 
L 388.002573 55.658609 
L 388.559283 55.657216 
L 388.652068 55.632467 
L 388.88403 55.529323 
L 389.0696 55.513935 
L 389.25517 55.481545 
L 389.44074 55.488414 
L 389.81188 55.477467 
L 389.904665 55.270009 
L 389.951057 55.30026 
L 390.414982 55.235898 
L 390.693337 55.356064 
L 390.878907 55.230092 
L 391.667579 55.224976 
L 391.899541 55.098402 
L 391.992326 54.948857 
L 392.038719 54.98399 
L 392.177896 55.012947 
L 392.317073 54.817005 
L 392.641821 54.825176 
L 392.827391 54.688029 
L 393.012961 54.757743 
L 393.105746 54.658244 
L 393.152138 54.692648 
L 393.3841 54.750786 
L 394.172772 54.378967 
L 394.822267 54.558927 
L 395.425369 54.362658 
L 396.306826 54.64325 
L 396.724359 54.294556 
L 396.909929 54.345333 
L 397.141891 54.323586 
L 397.605816 54.210234 
L 397.930563 54.0911 
L 398.348095 54.237141 
L 398.487273 54.212305 
L 398.487273 54.212305 
" clip-path="url(#p1e76dcd1b1)" style="fill: none; stroke: #d62728; stroke-width: 1.5; stroke-linecap: square"/>
   </g>
   <g id="patch_3">
    <path d="M 57.6 307.584 
L 57.6 41.472 
" style="fill: none; stroke: #ffffff; stroke-linejoin: miter; stroke-linecap: square"/>
   </g>
   <g id="patch_4">
    <path d="M 414.72 307.584 
L 414.72 41.472 
" style="fill: none; stroke: #ffffff; stroke-linejoin: miter; stroke-linecap: square"/>
   </g>
   <g id="patch_5">
    <path d="M 57.6 307.584 
L 414.72 307.584 
" style="fill: none; stroke: #ffffff; stroke-linejoin: miter; stroke-linecap: square"/>
   </g>
   <g id="patch_6">
    <path d="M 57.6 41.472 
L 414.72 41.472 
" style="fill: none; stroke: #ffffff; stroke-linejoin: miter; stroke-linecap: square"/>
   </g>
   <g id="text_18">
    <!-- 2898.702528932705 -->
    <g transform="translate(398.487273 54.212305) scale(0.1 -0.1)">
     <defs>
      <path id="DejaVuSans-38" d="M 2034 2216 
Q 1584 2216 1326 1975 
Q 1069 1734 1069 1313 
Q 1069 891 1326 650 
Q 1584 409 2034 409 
Q 2484 409 2743 651 
Q 3003 894 3003 1313 
Q 3003 1734 2745 1975 
Q 2488 2216 2034 2216 
z
M 1403 2484 
Q 997 2584 770 2862 
Q 544 3141 544 3541 
Q 544 4100 942 4425 
Q 1341 4750 2034 4750 
Q 2731 4750 3128 4425 
Q 3525 4100 3525 3541 
Q 3525 3141 3298 2862 
Q 3072 2584 2669 2484 
Q 3125 2378 3379 2068 
Q 3634 1759 3634 1313 
Q 3634 634 3220 271 
Q 2806 -91 2034 -91 
Q 1263 -91 848 271 
Q 434 634 434 1313 
Q 434 1759 690 2068 
Q 947 2378 1403 2484 
z
M 1172 3481 
Q 1172 3119 1398 2916 
Q 1625 2713 2034 2713 
Q 2441 2713 2670 2916 
Q 2900 3119 2900 3481 
Q 2900 3844 2670 4047 
Q 2441 4250 2034 4250 
Q 1625 4250 1398 4047 
Q 1172 3844 1172 3481 
z
" transform="scale(0.015625)"/>
      <path id="DejaVuSans-39" d="M 703 97 
L 703 672 
Q 941 559 1184 500 
Q 1428 441 1663 441 
Q 2288 441 2617 861 
Q 2947 1281 2994 2138 
Q 2813 1869 2534 1725 
Q 2256 1581 1919 1581 
Q 1219 1581 811 2004 
Q 403 2428 403 3163 
Q 403 3881 828 4315 
Q 1253 4750 1959 4750 
Q 2769 4750 3195 4129 
Q 3622 3509 3622 2328 
Q 3622 1225 3098 567 
Q 2575 -91 1691 -91 
Q 1453 -91 1209 -44 
Q 966 3 703 97 
z
M 1959 2075 
Q 2384 2075 2632 2365 
Q 2881 2656 2881 3163 
Q 2881 3666 2632 3958 
Q 2384 4250 1959 4250 
Q 1534 4250 1286 3958 
Q 1038 3666 1038 3163 
Q 1038 2656 1286 2365 
Q 1534 2075 1959 2075 
z
" transform="scale(0.015625)"/>
      <path id="DejaVuSans-2e" d="M 684 794 
L 1344 794 
L 1344 0 
L 684 0 
L 684 794 
z
" transform="scale(0.015625)"/>
     </defs>
     <use xlink:href="#DejaVuSans-32"/>
     <use xlink:href="#DejaVuSans-38" x="63.623047"/>
     <use xlink:href="#DejaVuSans-39" x="127.246094"/>
     <use xlink:href="#DejaVuSans-38" x="190.869141"/>
     <use xlink:href="#DejaVuSans-2e" x="254.492188"/>
     <use xlink:href="#DejaVuSans-37" x="286.279297"/>
     <use xlink:href="#DejaVuSans-30" x="349.902344"/>
     <use xlink:href="#DejaVuSans-32" x="413.525391"/>
     <use xlink:href="#DejaVuSans-35" x="477.148438"/>
     <use xlink:href="#DejaVuSans-32" x="540.771484"/>
     <use xlink:href="#DejaVuSans-38" x="604.394531"/>
     <use xlink:href="#DejaVuSans-39" x="668.017578"/>
     <use xlink:href="#DejaVuSans-33" x="731.640625"/>
     <use xlink:href="#DejaVuSans-32" x="795.263672"/>
     <use xlink:href="#DejaVuSans-37" x="858.886719"/>
     <use xlink:href="#DejaVuSans-30" x="922.509766"/>
     <use xlink:href="#DejaVuSans-35" x="986.132812"/>
    </g>
   </g>
   <g id="text_19">
    <!-- Epoch: 7000 -->
    <g transform="translate(191.0745 35.472) scale(0.144 -0.144)">
     <defs>
      <path id="DejaVuSans-45" d="M 628 4666 
L 3578 4666 
L 3578 4134 
L 1259 4134 
L 1259 2753 
L 3481 2753 
L 3481 2222 
L 1259 2222 
L 1259 531 
L 3634 531 
L 3634 0 
L 628 0 
L 628 4666 
z
" transform="scale(0.015625)"/>
      <path id="DejaVuSans-70" d="M 1159 525 
L 1159 -1331 
L 581 -1331 
L 581 3500 
L 1159 3500 
L 1159 2969 
Q 1341 3281 1617 3432 
Q 1894 3584 2278 3584 
Q 2916 3584 3314 3078 
Q 3713 2572 3713 1747 
Q 3713 922 3314 415 
Q 2916 -91 2278 -91 
Q 1894 -91 1617 61 
Q 1341 213 1159 525 
z
M 3116 1747 
Q 3116 2381 2855 2742 
Q 2594 3103 2138 3103 
Q 1681 3103 1420 2742 
Q 1159 2381 1159 1747 
Q 1159 1113 1420 752 
Q 1681 391 2138 391 
Q 2594 391 2855 752 
Q 3116 1113 3116 1747 
z
" transform="scale(0.015625)"/>
      <path id="DejaVuSans-63" d="M 3122 3366 
L 3122 2828 
Q 2878 2963 2633 3030 
Q 2388 3097 2138 3097 
Q 1578 3097 1268 2742 
Q 959 2388 959 1747 
Q 959 1106 1268 751 
Q 1578 397 2138 397 
Q 2388 397 2633 464 
Q 2878 531 3122 666 
L 3122 134 
Q 2881 22 2623 -34 
Q 2366 -91 2075 -91 
Q 1284 -91 818 406 
Q 353 903 353 1747 
Q 353 2603 823 3093 
Q 1294 3584 2113 3584 
Q 2378 3584 2631 3529 
Q 2884 3475 3122 3366 
z
" transform="scale(0.015625)"/>
      <path id="DejaVuSans-68" d="M 3513 2113 
L 3513 0 
L 2938 0 
L 2938 2094 
Q 2938 2591 2744 2837 
Q 2550 3084 2163 3084 
Q 1697 3084 1428 2787 
Q 1159 2491 1159 1978 
L 1159 0 
L 581 0 
L 581 4863 
L 1159 4863 
L 1159 2956 
Q 1366 3272 1645 3428 
Q 1925 3584 2291 3584 
Q 2894 3584 3203 3211 
Q 3513 2838 3513 2113 
z
" transform="scale(0.015625)"/>
      <path id="DejaVuSans-3a" d="M 750 794 
L 1409 794 
L 1409 0 
L 750 0 
L 750 794 
z
M 750 3309 
L 1409 3309 
L 1409 2516 
L 750 2516 
L 750 3309 
z
" transform="scale(0.015625)"/>
     </defs>
     <use xlink:href="#DejaVuSans-45"/>
     <use xlink:href="#DejaVuSans-70" x="63.183594"/>
     <use xlink:href="#DejaVuSans-6f" x="126.660156"/>
     <use xlink:href="#DejaVuSans-63" x="187.841797"/>
     <use xlink:href="#DejaVuSans-68" x="242.822266"/>
     <use xlink:href="#DejaVuSans-3a" x="306.201172"/>
     <use xlink:href="#DejaVuSans-20" x="339.892578"/>
     <use xlink:href="#DejaVuSans-37" x="371.679688"/>
     <use xlink:href="#DejaVuSans-30" x="435.302734"/>
     <use xlink:href="#DejaVuSans-30" x="498.925781"/>
     <use xlink:href="#DejaVuSans-30" x="562.548828"/>
    </g>
   </g>
  </g>
 </g>
 <defs>
  <clipPath id="p1e76dcd1b1">
   <rect x="57.6" y="41.472" width="357.12" height="266.112"/>
  </clipPath>
 </defs>
</svg>
