<?xml version="1.0" encoding="utf-8" standalone="no"?>
<!DOCTYPE svg PUBLIC "-//W3C//DTD SVG 1.1//EN"
  "http://www.w3.org/Graphics/SVG/1.1/DTD/svg11.dtd">
<svg xmlns:xlink="http://www.w3.org/1999/xlink" width="460.8pt" height="345.6pt" viewBox="0 0 460.8 345.6" xmlns="http://www.w3.org/2000/svg" version="1.1">
 <metadata>
  <rdf:RDF xmlns:dc="http://purl.org/dc/elements/1.1/" xmlns:cc="http://creativecommons.org/ns#" xmlns:rdf="http://www.w3.org/1999/02/22-rdf-syntax-ns#">
   <cc:Work>
    <dc:type rdf:resource="http://purl.org/dc/dcmitype/StillImage"/>
    <dc:date>2024-09-04T18:50:44.167683</dc:date>
    <dc:format>image/svg+xml</dc:format>
    <dc:creator>
     <cc:Agent>
      <dc:title>Matplotlib v3.8.4, https://matplotlib.org/</dc:title>
     </cc:Agent>
    </dc:creator>
   </cc:Work>
  </rdf:RDF>
 </metadata>
 <defs>
  <style type="text/css">*{stroke-linejoin: round; stroke-linecap: butt}</style>
 </defs>
 <g id="figure_1">
  <g id="patch_1">
   <path d="M 0 345.6 
L 460.8 345.6 
L 460.8 0 
L 0 0 
z
" style="fill: #ffffff"/>
  </g>
  <g id="axes_1">
   <g id="patch_2">
    <path d="M 57.6 307.584 
L 414.72 307.584 
L 414.72 41.472 
L 57.6 41.472 
z
" style="fill: #e5e5e5"/>
   </g>
   <g id="matplotlib.axis_1">
    <g id="xtick_1">
     <g id="line2d_1">
      <path d="M 73.832727 307.584 
L 73.832727 41.472 
" clip-path="url(#pd6d10d39dd)" style="fill: none; stroke: #ffffff; stroke-width: 0.8; stroke-linecap: square"/>
     </g>
     <g id="line2d_2">
      <defs>
       <path id="m4abdb20a62" d="M 0 0 
L 0 3.5 
" style="stroke: #555555; stroke-width: 0.8"/>
      </defs>
      <g>
       <use xlink:href="#m4abdb20a62" x="73.832727" y="307.584" style="fill: #555555; stroke: #555555; stroke-width: 0.8"/>
      </g>
     </g>
     <g id="text_1">
      <!-- 0 -->
      <g style="fill: #555555" transform="translate(70.651477 322.182437) scale(0.1 -0.1)">
       <defs>
        <path id="DejaVuSans-30" d="M 2034 4250 
Q 1547 4250 1301 3770 
Q 1056 3291 1056 2328 
Q 1056 1369 1301 889 
Q 1547 409 2034 409 
Q 2525 409 2770 889 
Q 3016 1369 3016 2328 
Q 3016 3291 2770 3770 
Q 2525 4250 2034 4250 
z
M 2034 4750 
Q 2819 4750 3233 4129 
Q 3647 3509 3647 2328 
Q 3647 1150 3233 529 
Q 2819 -91 2034 -91 
Q 1250 -91 836 529 
Q 422 1150 422 2328 
Q 422 3509 836 4129 
Q 1250 4750 2034 4750 
z
" transform="scale(0.015625)"/>
       </defs>
       <use xlink:href="#DejaVuSans-30"/>
      </g>
     </g>
    </g>
    <g id="xtick_2">
     <g id="line2d_3">
      <path d="M 114.434847 307.584 
L 114.434847 41.472 
" clip-path="url(#pd6d10d39dd)" style="fill: none; stroke: #ffffff; stroke-width: 0.8; stroke-linecap: square"/>
     </g>
     <g id="line2d_4">
      <g>
       <use xlink:href="#m4abdb20a62" x="114.434847" y="307.584" style="fill: #555555; stroke: #555555; stroke-width: 0.8"/>
      </g>
     </g>
     <g id="text_2">
      <!-- 500 -->
      <g style="fill: #555555" transform="translate(104.891097 322.182437) scale(0.1 -0.1)">
       <defs>
        <path id="DejaVuSans-35" d="M 691 4666 
L 3169 4666 
L 3169 4134 
L 1269 4134 
L 1269 2991 
Q 1406 3038 1543 3061 
Q 1681 3084 1819 3084 
Q 2600 3084 3056 2656 
Q 3513 2228 3513 1497 
Q 3513 744 3044 326 
Q 2575 -91 1722 -91 
Q 1428 -91 1123 -41 
Q 819 9 494 109 
L 494 744 
Q 775 591 1075 516 
Q 1375 441 1709 441 
Q 2250 441 2565 725 
Q 2881 1009 2881 1497 
Q 2881 1984 2565 2268 
Q 2250 2553 1709 2553 
Q 1456 2553 1204 2497 
Q 953 2441 691 2322 
L 691 4666 
z
" transform="scale(0.015625)"/>
       </defs>
       <use xlink:href="#DejaVuSans-35"/>
       <use xlink:href="#DejaVuSans-30" x="63.623047"/>
       <use xlink:href="#DejaVuSans-30" x="127.246094"/>
      </g>
     </g>
    </g>
    <g id="xtick_3">
     <g id="line2d_5">
      <path d="M 155.036966 307.584 
L 155.036966 41.472 
" clip-path="url(#pd6d10d39dd)" style="fill: none; stroke: #ffffff; stroke-width: 0.8; stroke-linecap: square"/>
     </g>
     <g id="line2d_6">
      <g>
       <use xlink:href="#m4abdb20a62" x="155.036966" y="307.584" style="fill: #555555; stroke: #555555; stroke-width: 0.8"/>
      </g>
     </g>
     <g id="text_3">
      <!-- 1000 -->
      <g style="fill: #555555" transform="translate(142.311966 322.182437) scale(0.1 -0.1)">
       <defs>
        <path id="DejaVuSans-31" d="M 794 531 
L 1825 531 
L 1825 4091 
L 703 3866 
L 703 4441 
L 1819 4666 
L 2450 4666 
L 2450 531 
L 3481 531 
L 3481 0 
L 794 0 
L 794 531 
z
" transform="scale(0.015625)"/>
       </defs>
       <use xlink:href="#DejaVuSans-31"/>
       <use xlink:href="#DejaVuSans-30" x="63.623047"/>
       <use xlink:href="#DejaVuSans-30" x="127.246094"/>
       <use xlink:href="#DejaVuSans-30" x="190.869141"/>
      </g>
     </g>
    </g>
    <g id="xtick_4">
     <g id="line2d_7">
      <path d="M 195.639085 307.584 
L 195.639085 41.472 
" clip-path="url(#pd6d10d39dd)" style="fill: none; stroke: #ffffff; stroke-width: 0.8; stroke-linecap: square"/>
     </g>
     <g id="line2d_8">
      <g>
       <use xlink:href="#m4abdb20a62" x="195.639085" y="307.584" style="fill: #555555; stroke: #555555; stroke-width: 0.8"/>
      </g>
     </g>
     <g id="text_4">
      <!-- 1500 -->
      <g style="fill: #555555" transform="translate(182.914085 322.182437) scale(0.1 -0.1)">
       <use xlink:href="#DejaVuSans-31"/>
       <use xlink:href="#DejaVuSans-35" x="63.623047"/>
       <use xlink:href="#DejaVuSans-30" x="127.246094"/>
       <use xlink:href="#DejaVuSans-30" x="190.869141"/>
      </g>
     </g>
    </g>
    <g id="xtick_5">
     <g id="line2d_9">
      <path d="M 236.241204 307.584 
L 236.241204 41.472 
" clip-path="url(#pd6d10d39dd)" style="fill: none; stroke: #ffffff; stroke-width: 0.8; stroke-linecap: square"/>
     </g>
     <g id="line2d_10">
      <g>
       <use xlink:href="#m4abdb20a62" x="236.241204" y="307.584" style="fill: #555555; stroke: #555555; stroke-width: 0.8"/>
      </g>
     </g>
     <g id="text_5">
      <!-- 2000 -->
      <g style="fill: #555555" transform="translate(223.516204 322.182437) scale(0.1 -0.1)">
       <defs>
        <path id="DejaVuSans-32" d="M 1228 531 
L 3431 531 
L 3431 0 
L 469 0 
L 469 531 
Q 828 903 1448 1529 
Q 2069 2156 2228 2338 
Q 2531 2678 2651 2914 
Q 2772 3150 2772 3378 
Q 2772 3750 2511 3984 
Q 2250 4219 1831 4219 
Q 1534 4219 1204 4116 
Q 875 4013 500 3803 
L 500 4441 
Q 881 4594 1212 4672 
Q 1544 4750 1819 4750 
Q 2544 4750 2975 4387 
Q 3406 4025 3406 3419 
Q 3406 3131 3298 2873 
Q 3191 2616 2906 2266 
Q 2828 2175 2409 1742 
Q 1991 1309 1228 531 
z
" transform="scale(0.015625)"/>
       </defs>
       <use xlink:href="#DejaVuSans-32"/>
       <use xlink:href="#DejaVuSans-30" x="63.623047"/>
       <use xlink:href="#DejaVuSans-30" x="127.246094"/>
       <use xlink:href="#DejaVuSans-30" x="190.869141"/>
      </g>
     </g>
    </g>
    <g id="xtick_6">
     <g id="line2d_11">
      <path d="M 276.843323 307.584 
L 276.843323 41.472 
" clip-path="url(#pd6d10d39dd)" style="fill: none; stroke: #ffffff; stroke-width: 0.8; stroke-linecap: square"/>
     </g>
     <g id="line2d_12">
      <g>
       <use xlink:href="#m4abdb20a62" x="276.843323" y="307.584" style="fill: #555555; stroke: #555555; stroke-width: 0.8"/>
      </g>
     </g>
     <g id="text_6">
      <!-- 2500 -->
      <g style="fill: #555555" transform="translate(264.118323 322.182437) scale(0.1 -0.1)">
       <use xlink:href="#DejaVuSans-32"/>
       <use xlink:href="#DejaVuSans-35" x="63.623047"/>
       <use xlink:href="#DejaVuSans-30" x="127.246094"/>
       <use xlink:href="#DejaVuSans-30" x="190.869141"/>
      </g>
     </g>
    </g>
    <g id="xtick_7">
     <g id="line2d_13">
      <path d="M 317.445443 307.584 
L 317.445443 41.472 
" clip-path="url(#pd6d10d39dd)" style="fill: none; stroke: #ffffff; stroke-width: 0.8; stroke-linecap: square"/>
     </g>
     <g id="line2d_14">
      <g>
       <use xlink:href="#m4abdb20a62" x="317.445443" y="307.584" style="fill: #555555; stroke: #555555; stroke-width: 0.8"/>
      </g>
     </g>
     <g id="text_7">
      <!-- 3000 -->
      <g style="fill: #555555" transform="translate(304.720443 322.182437) scale(0.1 -0.1)">
       <defs>
        <path id="DejaVuSans-33" d="M 2597 2516 
Q 3050 2419 3304 2112 
Q 3559 1806 3559 1356 
Q 3559 666 3084 287 
Q 2609 -91 1734 -91 
Q 1441 -91 1130 -33 
Q 819 25 488 141 
L 488 750 
Q 750 597 1062 519 
Q 1375 441 1716 441 
Q 2309 441 2620 675 
Q 2931 909 2931 1356 
Q 2931 1769 2642 2001 
Q 2353 2234 1838 2234 
L 1294 2234 
L 1294 2753 
L 1863 2753 
Q 2328 2753 2575 2939 
Q 2822 3125 2822 3475 
Q 2822 3834 2567 4026 
Q 2313 4219 1838 4219 
Q 1578 4219 1281 4162 
Q 984 4106 628 3988 
L 628 4550 
Q 988 4650 1302 4700 
Q 1616 4750 1894 4750 
Q 2613 4750 3031 4423 
Q 3450 4097 3450 3541 
Q 3450 3153 3228 2886 
Q 3006 2619 2597 2516 
z
" transform="scale(0.015625)"/>
       </defs>
       <use xlink:href="#DejaVuSans-33"/>
       <use xlink:href="#DejaVuSans-30" x="63.623047"/>
       <use xlink:href="#DejaVuSans-30" x="127.246094"/>
       <use xlink:href="#DejaVuSans-30" x="190.869141"/>
      </g>
     </g>
    </g>
    <g id="xtick_8">
     <g id="line2d_15">
      <path d="M 358.047562 307.584 
L 358.047562 41.472 
" clip-path="url(#pd6d10d39dd)" style="fill: none; stroke: #ffffff; stroke-width: 0.8; stroke-linecap: square"/>
     </g>
     <g id="line2d_16">
      <g>
       <use xlink:href="#m4abdb20a62" x="358.047562" y="307.584" style="fill: #555555; stroke: #555555; stroke-width: 0.8"/>
      </g>
     </g>
     <g id="text_8">
      <!-- 3500 -->
      <g style="fill: #555555" transform="translate(345.322562 322.182437) scale(0.1 -0.1)">
       <use xlink:href="#DejaVuSans-33"/>
       <use xlink:href="#DejaVuSans-35" x="63.623047"/>
       <use xlink:href="#DejaVuSans-30" x="127.246094"/>
       <use xlink:href="#DejaVuSans-30" x="190.869141"/>
      </g>
     </g>
    </g>
    <g id="xtick_9">
     <g id="line2d_17">
      <path d="M 398.649681 307.584 
L 398.649681 41.472 
" clip-path="url(#pd6d10d39dd)" style="fill: none; stroke: #ffffff; stroke-width: 0.8; stroke-linecap: square"/>
     </g>
     <g id="line2d_18">
      <g>
       <use xlink:href="#m4abdb20a62" x="398.649681" y="307.584" style="fill: #555555; stroke: #555555; stroke-width: 0.8"/>
      </g>
     </g>
     <g id="text_9">
      <!-- 4000 -->
      <g style="fill: #555555" transform="translate(385.924681 322.182437) scale(0.1 -0.1)">
       <defs>
        <path id="DejaVuSans-34" d="M 2419 4116 
L 825 1625 
L 2419 1625 
L 2419 4116 
z
M 2253 4666 
L 3047 4666 
L 3047 1625 
L 3713 1625 
L 3713 1100 
L 3047 1100 
L 3047 0 
L 2419 0 
L 2419 1100 
L 313 1100 
L 313 1709 
L 2253 4666 
z
" transform="scale(0.015625)"/>
       </defs>
       <use xlink:href="#DejaVuSans-34"/>
       <use xlink:href="#DejaVuSans-30" x="63.623047"/>
       <use xlink:href="#DejaVuSans-30" x="127.246094"/>
       <use xlink:href="#DejaVuSans-30" x="190.869141"/>
      </g>
     </g>
    </g>
    <g id="text_10">
     <!-- Number of Games -->
     <g style="fill: #555555" transform="translate(181.471875 337.38025) scale(0.12 -0.12)">
      <defs>
       <path id="DejaVuSans-4e" d="M 628 4666 
L 1478 4666 
L 3547 763 
L 3547 4666 
L 4159 4666 
L 4159 0 
L 3309 0 
L 1241 3903 
L 1241 0 
L 628 0 
L 628 4666 
z
" transform="scale(0.015625)"/>
       <path id="DejaVuSans-75" d="M 544 1381 
L 544 3500 
L 1119 3500 
L 1119 1403 
Q 1119 906 1312 657 
Q 1506 409 1894 409 
Q 2359 409 2629 706 
Q 2900 1003 2900 1516 
L 2900 3500 
L 3475 3500 
L 3475 0 
L 2900 0 
L 2900 538 
Q 2691 219 2414 64 
Q 2138 -91 1772 -91 
Q 1169 -91 856 284 
Q 544 659 544 1381 
z
M 1991 3584 
L 1991 3584 
z
" transform="scale(0.015625)"/>
       <path id="DejaVuSans-6d" d="M 3328 2828 
Q 3544 3216 3844 3400 
Q 4144 3584 4550 3584 
Q 5097 3584 5394 3201 
Q 5691 2819 5691 2113 
L 5691 0 
L 5113 0 
L 5113 2094 
Q 5113 2597 4934 2840 
Q 4756 3084 4391 3084 
Q 3944 3084 3684 2787 
Q 3425 2491 3425 1978 
L 3425 0 
L 2847 0 
L 2847 2094 
Q 2847 2600 2669 2842 
Q 2491 3084 2119 3084 
Q 1678 3084 1418 2786 
Q 1159 2488 1159 1978 
L 1159 0 
L 581 0 
L 581 3500 
L 1159 3500 
L 1159 2956 
Q 1356 3278 1631 3431 
Q 1906 3584 2284 3584 
Q 2666 3584 2933 3390 
Q 3200 3197 3328 2828 
z
" transform="scale(0.015625)"/>
       <path id="DejaVuSans-62" d="M 3116 1747 
Q 3116 2381 2855 2742 
Q 2594 3103 2138 3103 
Q 1681 3103 1420 2742 
Q 1159 2381 1159 1747 
Q 1159 1113 1420 752 
Q 1681 391 2138 391 
Q 2594 391 2855 752 
Q 3116 1113 3116 1747 
z
M 1159 2969 
Q 1341 3281 1617 3432 
Q 1894 3584 2278 3584 
Q 2916 3584 3314 3078 
Q 3713 2572 3713 1747 
Q 3713 922 3314 415 
Q 2916 -91 2278 -91 
Q 1894 -91 1617 61 
Q 1341 213 1159 525 
L 1159 0 
L 581 0 
L 581 4863 
L 1159 4863 
L 1159 2969 
z
" transform="scale(0.015625)"/>
       <path id="DejaVuSans-65" d="M 3597 1894 
L 3597 1613 
L 953 1613 
Q 991 1019 1311 708 
Q 1631 397 2203 397 
Q 2534 397 2845 478 
Q 3156 559 3463 722 
L 3463 178 
Q 3153 47 2828 -22 
Q 2503 -91 2169 -91 
Q 1331 -91 842 396 
Q 353 884 353 1716 
Q 353 2575 817 3079 
Q 1281 3584 2069 3584 
Q 2775 3584 3186 3129 
Q 3597 2675 3597 1894 
z
M 3022 2063 
Q 3016 2534 2758 2815 
Q 2500 3097 2075 3097 
Q 1594 3097 1305 2825 
Q 1016 2553 972 2059 
L 3022 2063 
z
" transform="scale(0.015625)"/>
       <path id="DejaVuSans-72" d="M 2631 2963 
Q 2534 3019 2420 3045 
Q 2306 3072 2169 3072 
Q 1681 3072 1420 2755 
Q 1159 2438 1159 1844 
L 1159 0 
L 581 0 
L 581 3500 
L 1159 3500 
L 1159 2956 
Q 1341 3275 1631 3429 
Q 1922 3584 2338 3584 
Q 2397 3584 2469 3576 
Q 2541 3569 2628 3553 
L 2631 2963 
z
" transform="scale(0.015625)"/>
       <path id="DejaVuSans-20" transform="scale(0.015625)"/>
       <path id="DejaVuSans-6f" d="M 1959 3097 
Q 1497 3097 1228 2736 
Q 959 2375 959 1747 
Q 959 1119 1226 758 
Q 1494 397 1959 397 
Q 2419 397 2687 759 
Q 2956 1122 2956 1747 
Q 2956 2369 2687 2733 
Q 2419 3097 1959 3097 
z
M 1959 3584 
Q 2709 3584 3137 3096 
Q 3566 2609 3566 1747 
Q 3566 888 3137 398 
Q 2709 -91 1959 -91 
Q 1206 -91 779 398 
Q 353 888 353 1747 
Q 353 2609 779 3096 
Q 1206 3584 1959 3584 
z
" transform="scale(0.015625)"/>
       <path id="DejaVuSans-66" d="M 2375 4863 
L 2375 4384 
L 1825 4384 
Q 1516 4384 1395 4259 
Q 1275 4134 1275 3809 
L 1275 3500 
L 2222 3500 
L 2222 3053 
L 1275 3053 
L 1275 0 
L 697 0 
L 697 3053 
L 147 3053 
L 147 3500 
L 697 3500 
L 697 3744 
Q 697 4328 969 4595 
Q 1241 4863 1831 4863 
L 2375 4863 
z
" transform="scale(0.015625)"/>
       <path id="DejaVuSans-47" d="M 3809 666 
L 3809 1919 
L 2778 1919 
L 2778 2438 
L 4434 2438 
L 4434 434 
Q 4069 175 3628 42 
Q 3188 -91 2688 -91 
Q 1594 -91 976 548 
Q 359 1188 359 2328 
Q 359 3472 976 4111 
Q 1594 4750 2688 4750 
Q 3144 4750 3555 4637 
Q 3966 4525 4313 4306 
L 4313 3634 
Q 3963 3931 3569 4081 
Q 3175 4231 2741 4231 
Q 1884 4231 1454 3753 
Q 1025 3275 1025 2328 
Q 1025 1384 1454 906 
Q 1884 428 2741 428 
Q 3075 428 3337 486 
Q 3600 544 3809 666 
z
" transform="scale(0.015625)"/>
       <path id="DejaVuSans-61" d="M 2194 1759 
Q 1497 1759 1228 1600 
Q 959 1441 959 1056 
Q 959 750 1161 570 
Q 1363 391 1709 391 
Q 2188 391 2477 730 
Q 2766 1069 2766 1631 
L 2766 1759 
L 2194 1759 
z
M 3341 1997 
L 3341 0 
L 2766 0 
L 2766 531 
Q 2569 213 2275 61 
Q 1981 -91 1556 -91 
Q 1019 -91 701 211 
Q 384 513 384 1019 
Q 384 1609 779 1909 
Q 1175 2209 1959 2209 
L 2766 2209 
L 2766 2266 
Q 2766 2663 2505 2880 
Q 2244 3097 1772 3097 
Q 1472 3097 1187 3025 
Q 903 2953 641 2809 
L 641 3341 
Q 956 3463 1253 3523 
Q 1550 3584 1831 3584 
Q 2591 3584 2966 3190 
Q 3341 2797 3341 1997 
z
" transform="scale(0.015625)"/>
       <path id="DejaVuSans-73" d="M 2834 3397 
L 2834 2853 
Q 2591 2978 2328 3040 
Q 2066 3103 1784 3103 
Q 1356 3103 1142 2972 
Q 928 2841 928 2578 
Q 928 2378 1081 2264 
Q 1234 2150 1697 2047 
L 1894 2003 
Q 2506 1872 2764 1633 
Q 3022 1394 3022 966 
Q 3022 478 2636 193 
Q 2250 -91 1575 -91 
Q 1294 -91 989 -36 
Q 684 19 347 128 
L 347 722 
Q 666 556 975 473 
Q 1284 391 1588 391 
Q 1994 391 2212 530 
Q 2431 669 2431 922 
Q 2431 1156 2273 1281 
Q 2116 1406 1581 1522 
L 1381 1569 
Q 847 1681 609 1914 
Q 372 2147 372 2553 
Q 372 3047 722 3315 
Q 1072 3584 1716 3584 
Q 2034 3584 2315 3537 
Q 2597 3491 2834 3397 
z
" transform="scale(0.015625)"/>
      </defs>
      <use xlink:href="#DejaVuSans-4e"/>
      <use xlink:href="#DejaVuSans-75" x="74.804688"/>
      <use xlink:href="#DejaVuSans-6d" x="138.183594"/>
      <use xlink:href="#DejaVuSans-62" x="235.595703"/>
      <use xlink:href="#DejaVuSans-65" x="299.072266"/>
      <use xlink:href="#DejaVuSans-72" x="360.595703"/>
      <use xlink:href="#DejaVuSans-20" x="401.708984"/>
      <use xlink:href="#DejaVuSans-6f" x="433.496094"/>
      <use xlink:href="#DejaVuSans-66" x="494.677734"/>
      <use xlink:href="#DejaVuSans-20" x="529.882812"/>
      <use xlink:href="#DejaVuSans-47" x="561.669922"/>
      <use xlink:href="#DejaVuSans-61" x="639.160156"/>
      <use xlink:href="#DejaVuSans-6d" x="700.439453"/>
      <use xlink:href="#DejaVuSans-65" x="797.851562"/>
      <use xlink:href="#DejaVuSans-73" x="859.375"/>
     </g>
    </g>
   </g>
   <g id="matplotlib.axis_2">
    <g id="ytick_1">
     <g id="line2d_19">
      <path d="M 57.6 307.584 
L 414.72 307.584 
" clip-path="url(#pd6d10d39dd)" style="fill: none; stroke: #ffffff; stroke-width: 0.8; stroke-linecap: square"/>
     </g>
     <g id="line2d_20">
      <defs>
       <path id="md25ccd7c2f" d="M 0 0 
L -3.5 0 
" style="stroke: #555555; stroke-width: 0.8"/>
      </defs>
      <g>
       <use xlink:href="#md25ccd7c2f" x="57.6" y="307.584" style="fill: #555555; stroke: #555555; stroke-width: 0.8"/>
      </g>
     </g>
     <g id="text_11">
      <!-- 0 -->
      <g style="fill: #555555" transform="translate(44.2375 311.383219) scale(0.1 -0.1)">
       <use xlink:href="#DejaVuSans-30"/>
      </g>
     </g>
    </g>
    <g id="ytick_2">
     <g id="line2d_21">
      <path d="M 57.6 250.809904 
L 414.72 250.809904 
" clip-path="url(#pd6d10d39dd)" style="fill: none; stroke: #ffffff; stroke-width: 0.8; stroke-linecap: square"/>
     </g>
     <g id="line2d_22">
      <g>
       <use xlink:href="#md25ccd7c2f" x="57.6" y="250.809904" style="fill: #555555; stroke: #555555; stroke-width: 0.8"/>
      </g>
     </g>
     <g id="text_12">
      <!-- 500 -->
      <g style="fill: #555555" transform="translate(31.5125 254.609123) scale(0.1 -0.1)">
       <use xlink:href="#DejaVuSans-35"/>
       <use xlink:href="#DejaVuSans-30" x="63.623047"/>
       <use xlink:href="#DejaVuSans-30" x="127.246094"/>
      </g>
     </g>
    </g>
    <g id="ytick_3">
     <g id="line2d_23">
      <path d="M 57.6 194.035809 
L 414.72 194.035809 
" clip-path="url(#pd6d10d39dd)" style="fill: none; stroke: #ffffff; stroke-width: 0.8; stroke-linecap: square"/>
     </g>
     <g id="line2d_24">
      <g>
       <use xlink:href="#md25ccd7c2f" x="57.6" y="194.035809" style="fill: #555555; stroke: #555555; stroke-width: 0.8"/>
      </g>
     </g>
     <g id="text_13">
      <!-- 1000 -->
      <g style="fill: #555555" transform="translate(25.15 197.835028) scale(0.1 -0.1)">
       <use xlink:href="#DejaVuSans-31"/>
       <use xlink:href="#DejaVuSans-30" x="63.623047"/>
       <use xlink:href="#DejaVuSans-30" x="127.246094"/>
       <use xlink:href="#DejaVuSans-30" x="190.869141"/>
      </g>
     </g>
    </g>
    <g id="ytick_4">
     <g id="line2d_25">
      <path d="M 57.6 137.261713 
L 414.72 137.261713 
" clip-path="url(#pd6d10d39dd)" style="fill: none; stroke: #ffffff; stroke-width: 0.8; stroke-linecap: square"/>
     </g>
     <g id="line2d_26">
      <g>
       <use xlink:href="#md25ccd7c2f" x="57.6" y="137.261713" style="fill: #555555; stroke: #555555; stroke-width: 0.8"/>
      </g>
     </g>
     <g id="text_14">
      <!-- 1500 -->
      <g style="fill: #555555" transform="translate(25.15 141.060932) scale(0.1 -0.1)">
       <use xlink:href="#DejaVuSans-31"/>
       <use xlink:href="#DejaVuSans-35" x="63.623047"/>
       <use xlink:href="#DejaVuSans-30" x="127.246094"/>
       <use xlink:href="#DejaVuSans-30" x="190.869141"/>
      </g>
     </g>
    </g>
    <g id="ytick_5">
     <g id="line2d_27">
      <path d="M 57.6 80.487618 
L 414.72 80.487618 
" clip-path="url(#pd6d10d39dd)" style="fill: none; stroke: #ffffff; stroke-width: 0.8; stroke-linecap: square"/>
     </g>
     <g id="line2d_28">
      <g>
       <use xlink:href="#md25ccd7c2f" x="57.6" y="80.487618" style="fill: #555555; stroke: #555555; stroke-width: 0.8"/>
      </g>
     </g>
     <g id="text_15">
      <!-- 2000 -->
      <g style="fill: #555555" transform="translate(25.15 84.286836) scale(0.1 -0.1)">
       <use xlink:href="#DejaVuSans-32"/>
       <use xlink:href="#DejaVuSans-30" x="63.623047"/>
       <use xlink:href="#DejaVuSans-30" x="127.246094"/>
       <use xlink:href="#DejaVuSans-30" x="190.869141"/>
      </g>
     </g>
    </g>
    <g id="text_16">
     <!-- Median reward -->
     <g style="fill: #555555" transform="translate(18.654375 219.03675) rotate(-90) scale(0.12 -0.12)">
      <defs>
       <path id="DejaVuSans-4d" d="M 628 4666 
L 1569 4666 
L 2759 1491 
L 3956 4666 
L 4897 4666 
L 4897 0 
L 4281 0 
L 4281 4097 
L 3078 897 
L 2444 897 
L 1241 4097 
L 1241 0 
L 628 0 
L 628 4666 
z
" transform="scale(0.015625)"/>
       <path id="DejaVuSans-64" d="M 2906 2969 
L 2906 4863 
L 3481 4863 
L 3481 0 
L 2906 0 
L 2906 525 
Q 2725 213 2448 61 
Q 2172 -91 1784 -91 
Q 1150 -91 751 415 
Q 353 922 353 1747 
Q 353 2572 751 3078 
Q 1150 3584 1784 3584 
Q 2172 3584 2448 3432 
Q 2725 3281 2906 2969 
z
M 947 1747 
Q 947 1113 1208 752 
Q 1469 391 1925 391 
Q 2381 391 2643 752 
Q 2906 1113 2906 1747 
Q 2906 2381 2643 2742 
Q 2381 3103 1925 3103 
Q 1469 3103 1208 2742 
Q 947 2381 947 1747 
z
" transform="scale(0.015625)"/>
       <path id="DejaVuSans-69" d="M 603 3500 
L 1178 3500 
L 1178 0 
L 603 0 
L 603 3500 
z
M 603 4863 
L 1178 4863 
L 1178 4134 
L 603 4134 
L 603 4863 
z
" transform="scale(0.015625)"/>
       <path id="DejaVuSans-6e" d="M 3513 2113 
L 3513 0 
L 2938 0 
L 2938 2094 
Q 2938 2591 2744 2837 
Q 2550 3084 2163 3084 
Q 1697 3084 1428 2787 
Q 1159 2491 1159 1978 
L 1159 0 
L 581 0 
L 581 3500 
L 1159 3500 
L 1159 2956 
Q 1366 3272 1645 3428 
Q 1925 3584 2291 3584 
Q 2894 3584 3203 3211 
Q 3513 2838 3513 2113 
z
" transform="scale(0.015625)"/>
       <path id="DejaVuSans-77" d="M 269 3500 
L 844 3500 
L 1563 769 
L 2278 3500 
L 2956 3500 
L 3675 769 
L 4391 3500 
L 4966 3500 
L 4050 0 
L 3372 0 
L 2619 2869 
L 1863 0 
L 1184 0 
L 269 3500 
z
" transform="scale(0.015625)"/>
      </defs>
      <use xlink:href="#DejaVuSans-4d"/>
      <use xlink:href="#DejaVuSans-65" x="86.279297"/>
      <use xlink:href="#DejaVuSans-64" x="147.802734"/>
      <use xlink:href="#DejaVuSans-69" x="211.279297"/>
      <use xlink:href="#DejaVuSans-61" x="239.0625"/>
      <use xlink:href="#DejaVuSans-6e" x="300.341797"/>
      <use xlink:href="#DejaVuSans-20" x="363.720703"/>
      <use xlink:href="#DejaVuSans-72" x="395.507812"/>
      <use xlink:href="#DejaVuSans-65" x="434.371094"/>
      <use xlink:href="#DejaVuSans-77" x="495.894531"/>
      <use xlink:href="#DejaVuSans-61" x="577.681641"/>
      <use xlink:href="#DejaVuSans-72" x="638.960938"/>
      <use xlink:href="#DejaVuSans-64" x="678.324219"/>
     </g>
    </g>
   </g>
   <g id="line2d_29">
    <path d="M 73.832727 305.880777 
L 74.07634 305.142714 
L 74.319953 305.3617 
L 74.482361 305.313036 
L 75.862833 305.605641 
L 76.593671 305.656925 
L 97.138344 305.741996 
L 99.330858 305.72974 
L 107.776099 305.67238 
L 109.725001 305.648811 
L 137.984076 305.278297 
L 140.17659 305.246684 
L 163.238594 304.689758 
L 164.050636 304.658296 
L 172.73949 304.359474 
L 175.906455 304.181074 
L 184.026879 303.862245 
L 184.920126 303.8389 
L 187.437457 303.74672 
L 194.177409 303.358905 
L 201.323382 302.852416 
L 204.16553 302.63122 
L 205.627206 302.521946 
L 207.332495 302.365477 
L 207.576108 302.272177 
L 209.118989 302.134709 
L 211.473912 301.881149 
L 218.132659 300.825392 
L 220.081561 300.419374 
L 220.64999 300.340391 
L 222.355279 299.670125 
L 222.680096 299.573404 
L 223.086118 299.474473 
L 223.654547 299.341607 
L 223.89816 299.093555 
L 224.141773 298.996642 
L 224.385385 298.858173 
L 225.603449 298.591348 
L 226.00947 298.235744 
L 226.983921 297.966101 
L 227.389942 297.702187 
L 227.958372 297.549365 
L 228.201985 297.399408 
L 230.232091 297.148173 
L 230.475703 296.794804 
L 231.287746 296.25312 
L 232.668218 296.029877 
L 232.830626 295.502565 
L 233.561464 294.802963 
L 233.723873 294.733227 
L 233.967486 294.637837 
L 235.104345 294.530015 
L 235.347958 294.484419 
L 235.672775 294.41594 
L 235.753979 294.31901 
L 236.241204 292.05122 
L 236.72843 291.558769 
L 237.540472 291.469389 
L 237.702881 291.447447 
L 237.865289 291.150245 
L 238.27131 288.219606 
L 238.433719 286.230333 
L 238.596127 286.014318 
L 238.920944 286.009565 
L 240.220212 286.119016 
L 240.463825 285.489944 
L 240.707437 282.97243 
L 240.869846 282.546238 
L 242.818748 282.650737 
L 243.793198 282.364155 
L 243.955607 282.281985 
L 244.036811 282.24992 
L 244.19922 281.721466 
L 244.361628 280.469492 
L 244.605241 279.825083 
L 244.686445 279.836922 
L 245.17367 278.198524 
L 245.417283 278.040952 
L 245.660896 277.94052 
L 246.229326 277.179226 
L 246.554143 276.905072 
L 246.797755 276.735178 
L 247.041368 276.466634 
L 247.366185 276.193661 
L 248.015819 275.759394 
L 248.259432 275.641821 
L 248.584248 275.391954 
L 248.99027 275.121109 
L 249.152678 274.934795 
L 249.558699 274.463697 
L 249.721108 274.063809 
L 249.802312 273.926965 
L 249.964721 273.081205 
L 250.370742 272.561509 
L 250.451946 271.884104 
L 250.53315 271.89753 
L 250.695559 271.88818 
L 251.263988 269.736715 
L 251.426397 269.75159 
L 251.588805 268.837624 
L 251.67001 268.739739 
L 251.832418 268.038836 
L 251.994827 268.011188 
L 252.076031 267.823002 
L 252.238439 266.658349 
L 252.482052 265.781499 
L 252.64446 264.337138 
L 252.969277 262.675407 
L 254.187341 262.824243 
L 254.268545 262.713055 
L 254.593362 259.008318 
L 254.755771 258.880741 
L 254.999383 258.209004 
L 255.080588 257.987137 
L 255.3242 257.08004 
L 255.730221 256.697436 
L 255.973834 256.181331 
L 256.136243 256.133879 
L 256.379855 255.668343 
L 256.623468 255.461599 
L 256.704672 255.451319 
L 257.191898 254.07963 
L 257.354306 253.932856 
L 257.516715 253.540329 
L 257.760327 253.544231 
L 258.328757 253.660049 
L 258.978391 253.158923 
L 259.222004 252.634133 
L 260.196455 251.868435 
L 260.521272 250.481651 
L 261.008497 249.171285 
L 261.576927 248.454651 
L 262.064152 247.013164 
L 262.632582 246.730664 
L 262.79499 246.512242 
L 263.282216 246.284469 
L 263.525828 245.774817 
L 263.688237 245.598484 
L 263.850645 245.547981 
L 264.175462 244.853491 
L 264.256667 244.618963 
L 264.500279 243.16597 
L 264.581483 242.932172 
L 264.825096 240.872628 
L 264.9063 240.774637 
L 265.068709 240.046297 
L 265.231117 239.993308 
L 265.47473 237.869306 
L 265.718343 237.172978 
L 265.799547 237.109799 
L 265.961956 236.720718 
L 266.04316 236.679005 
L 266.367977 236.20101 
L 266.692794 235.712965 
L 266.773998 235.671165 
L 266.936406 235.47183 
L 268.398083 235.816474 
L 269.210125 233.992696 
L 269.453738 232.731949 
L 269.616146 232.018573 
L 269.940963 231.835654 
L 270.184576 231.62134 
L 270.26578 231.585304 
L 270.509393 230.886719 
L 270.83421 229.798623 
L 271.40264 228.639737 
L 271.565048 228.136904 
L 271.646252 228.13796 
L 271.808661 227.884017 
L 272.214682 227.657828 
L 272.295886 227.67482 
L 272.620703 227.171897 
L 272.701907 226.346711 
L 272.783112 226.362576 
L 273.026724 225.66828 
L 273.432745 225.388547 
L 273.595154 225.03751 
L 273.919971 224.84012 
L 274.569605 222.760058 
L 274.650809 222.642472 
L 274.975626 220.772284 
L 275.138034 220.184263 
L 275.300443 219.859879 
L 276.599711 219.827158 
L 276.680915 219.765129 
L 277.005732 218.717411 
L 277.086936 218.639262 
L 277.330549 217.829431 
L 277.492957 215.799544 
L 277.655366 214.402085 
L 277.73657 214.429417 
L 277.980183 214.127292 
L 278.223796 214.186284 
L 278.548612 213.851364 
L 278.629817 213.646927 
L 278.792225 212.544209 
L 278.873429 212.425986 
L 278.954634 211.794935 
L 279.035838 211.813422 
L 279.279451 211.236588 
L 279.84788 211.288512 
L 280.172697 211.318183 
L 280.335106 211.055183 
L 280.497514 210.873275 
L 280.741127 209.158789 
L 280.903535 208.694831 
L 280.98474 208.610556 
L 281.147148 208.216884 
L 281.309557 207.763456 
L 281.471965 207.479417 
L 281.634374 207.416887 
L 281.796782 207.112864 
L 281.959191 207.049211 
L 282.365212 205.4297 
L 282.446416 205.436666 
L 282.852437 204.666168 
L 282.933641 204.595835 
L 283.09605 204.362836 
L 283.339663 204.019735 
L 283.66448 203.134247 
L 283.745684 203.157821 
L 283.908092 202.799948 
L 284.070501 202.456394 
L 284.151705 202.349544 
L 284.395318 201.519265 
L 284.557726 200.251216 
L 284.63893 200.215681 
L 284.720135 200.027464 
L 284.882543 199.214785 
L 284.963747 199.22253 
L 285.532177 198.317681 
L 285.694585 196.671867 
L 285.938198 196.593098 
L 286.425424 196.553552 
L 286.831445 194.903648 
L 287.075058 194.476775 
L 287.156262 194.009841 
L 287.237466 194.030799 
L 287.643487 194.126337 
L 288.049508 193.199967 
L 288.211917 193.122393 
L 288.374325 192.458249 
L 288.861551 191.777962 
L 289.105163 191.626506 
L 289.348776 191.575598 
L 289.42998 191.566007 
L 290.648044 189.105921 
L 290.810452 189.014965 
L 290.972861 188.904916 
L 291.297678 188.912577 
L 291.541291 188.424318 
L 291.703699 188.113365 
L 292.515742 187.409003 
L 292.759354 186.393051 
L 293.002967 186.363021 
L 293.571397 185.48232 
L 293.733805 184.873069 
L 294.058622 184.173104 
L 294.139826 184.188327 
L 294.383439 182.697163 
L 294.464643 182.647736 
L 295.276686 179.187801 
L 295.35789 179.089513 
L 295.520298 178.627515 
L 295.92632 178.722449 
L 296.981975 178.709281 
L 297.225587 177.380616 
L 297.631609 177.234589 
L 297.794017 177.134249 
L 298.03763 177.178671 
L 298.362447 176.891674 
L 299.093285 176.983448 
L 299.255693 176.728726 
L 299.336898 176.744152 
L 299.499306 176.592642 
L 299.661714 176.495552 
L 299.905327 176.238628 
L 300.067736 176.181201 
L 300.311348 175.292543 
L 300.473757 175.240452 
L 300.798574 174.998049 
L 300.879778 174.302781 
L 300.960982 174.345384 
L 301.285799 173.65711 
L 301.367004 173.534102 
L 301.529412 173.097441 
L 301.610616 173.085034 
L 301.854229 172.462178 
L 302.179046 172.136064 
L 302.422659 171.185647 
L 302.666271 170.95443 
L 302.909884 170.50188 
L 303.072293 169.942322 
L 303.234701 169.722875 
L 303.478314 169.782252 
L 303.640722 169.836006 
L 303.721926 169.680123 
L 303.803131 169.722989 
L 303.965539 169.522056 
L 304.209152 168.74741 
L 304.37156 168.558473 
L 304.777582 167.577284 
L 304.858786 167.58295 
L 305.102398 167.28407 
L 305.264807 166.68571 
L 305.50842 166.546484 
L 305.670828 165.68669 
L 305.833237 164.931794 
L 306.158054 164.958386 
L 306.401666 164.878337 
L 306.645279 164.960702 
L 307.132504 165.075331 
L 307.376117 164.973984 
L 307.457321 164.939499 
L 307.61973 164.369609 
L 308.025751 161.869436 
L 308.106955 161.916346 
L 308.350568 160.864448 
L 308.431772 160.790902 
L 308.594181 160.231586 
L 308.756589 160.145283 
L 308.837793 160.165384 
L 309.649836 158.951255 
L 309.974653 158.845238 
L 310.137061 158.373563 
L 310.218265 158.341514 
L 310.624287 157.632383 
L 310.705491 157.623379 
L 310.867899 157.411734 
L 311.436329 157.452382 
L 311.84235 157.535991 
L 312.248371 157.156926 
L 312.329576 157.105709 
L 312.491984 156.846536 
L 312.735597 156.755966 
L 313.060414 155.083655 
L 313.141618 155.10357 
L 313.304027 155.007525 
L 313.466435 154.441993 
L 313.872456 153.868242 
L 314.116069 153.494194 
L 314.197273 153.504703 
L 314.440886 153.135015 
L 314.928111 150.147521 
L 315.009316 149.835599 
L 315.252928 147.085235 
L 315.577745 146.710272 
L 315.983766 146.741255 
L 316.146175 146.522757 
L 316.308583 146.482419 
L 316.389788 146.493356 
L 316.795809 145.285735 
L 316.877013 145.160215 
L 317.039422 144.484682 
L 317.20183 144.422748 
L 317.77026 143.177026 
L 317.932668 142.373647 
L 318.095077 142.256098 
L 318.338689 141.664231 
L 318.582302 141.652356 
L 318.744711 141.565668 
L 319.069527 141.456306 
L 319.31314 141.178525 
L 319.475549 141.194736 
L 319.800366 141.277085 
L 319.88157 141.284975 
L 320.693612 139.95558 
L 320.937225 139.944382 
L 321.018429 139.937162 
L 321.42445 138.820004 
L 322.317697 139.311627 
L 322.56131 137.963681 
L 322.723718 137.832269 
L 322.804922 137.773402 
L 322.967331 137.346773 
L 323.129739 137.296765 
L 323.292148 136.795622 
L 323.373352 136.745723 
L 323.860578 135.518122 
L 324.510211 135.648689 
L 324.591416 135.579884 
L 324.835028 135.092142 
L 325.565867 134.366326 
L 325.728275 134.364496 
L 325.971888 133.328946 
L 326.134296 133.280585 
L 326.377909 133.290775 
L 326.540317 133.019833 
L 326.702726 132.873832 
L 326.865134 131.973289 
L 326.946339 131.953463 
L 327.108747 131.763797 
L 327.271156 131.816055 
L 327.677177 130.240571 
L 327.758381 130.209601 
L 327.920789 129.340439 
L 328.245606 129.343448 
L 328.489219 127.851438 
L 328.651628 127.74356 
L 328.814036 127.197027 
L 329.057649 126.434835 
L 329.138853 125.85346 
L 329.220057 125.897257 
L 329.626078 125.705635 
L 329.788487 125.68185 
L 329.869691 125.336201 
L 329.950895 125.365066 
L 330.194508 125.225389 
L 330.438121 124.435617 
L 331.331368 124.240256 
L 331.493776 124.000973 
L 331.57498 123.993813 
L 331.737389 123.61999 
L 331.981001 123.516955 
L 332.224614 123.024596 
L 333.199065 123.268063 
L 333.605086 123.154096 
L 333.68629 123.170457 
L 334.011107 122.730875 
L 334.173516 122.234936 
L 334.25472 122.26068 
L 334.660741 121.223075 
L 334.741946 121.271662 
L 334.904354 120.125257 
L 335.229171 119.154197 
L 335.472784 118.680325 
L 335.635192 118.682553 
L 335.797601 118.543996 
L 336.447235 118.875611 
L 336.528439 118.8921 
L 336.609643 118.722524 
L 336.690847 118.770015 
L 336.93446 118.603514 
L 337.421685 117.112417 
L 337.990115 116.334754 
L 338.152524 115.557688 
L 338.233728 115.582271 
L 338.558545 115.144225 
L 338.720953 114.963639 
L 338.883362 114.182391 
L 339.04577 114.170557 
L 339.208179 113.744073 
L 339.532996 113.231925 
L 340.020221 113.280224 
L 340.182629 113.026286 
L 340.426242 111.544431 
L 340.994672 107.950202 
L 341.15708 107.967418 
L 341.563102 107.779156 
L 342.618757 108.412379 
L 342.699961 108.197627 
L 342.781165 108.254177 
L 342.943574 108.194781 
L 343.268391 107.314721 
L 343.430799 107.112908 
L 343.593208 107.017676 
L 343.918024 106.295787 
L 344.080433 106.293755 
L 344.324046 106.28899 
L 344.567658 105.964904 
L 344.730067 104.60737 
L 345.217292 102.628462 
L 345.460905 102.471749 
L 345.623313 102.166199 
L 346.029335 101.699727 
L 346.354152 100.949259 
L 347.491011 101.195392 
L 347.734624 100.809782 
L 347.897032 100.838037 
L 348.059441 100.282045 
L 348.465462 99.937184 
L 348.546666 99.779301 
L 348.709075 99.278804 
L 349.1963 98.698846 
L 349.358708 98.737328 
L 349.521117 98.438664 
L 350.008342 98.486641 
L 350.170751 98.516895 
L 350.333159 98.268678 
L 350.495568 98.172915 
L 350.657976 98.045531 
L 350.982793 98.001112 
L 351.30761 97.506226 
L 351.470019 97.444878 
L 351.632427 97.325865 
L 352.282061 97.660606 
L 352.688082 97.339557 
L 353.094103 97.020729 
L 353.175308 96.973059 
L 353.337716 96.612186 
L 353.743737 96.632669 
L 353.906146 96.19673 
L 353.98735 96.162894 
L 354.149759 96.00929 
L 354.393371 95.708923 
L 354.799392 93.933744 
L 355.205414 93.70753 
L 355.367822 93.60561 
L 355.611435 93.641215 
L 356.017456 93.837729 
L 356.179864 93.843373 
L 356.423477 93.194577 
L 356.585886 93.128892 
L 356.829498 92.002368 
L 356.910703 91.935665 
L 357.073111 91.53092 
L 357.154315 91.553816 
L 357.23552 91.451312 
L 357.397928 90.812084 
L 357.479132 90.782968 
L 357.803949 90.104935 
L 358.128766 90.314173 
L 358.453583 89.663063 
L 358.615992 89.626046 
L 358.859604 89.522186 
L 359.022013 89.458119 
L 359.184421 89.216324 
L 359.265626 88.913985 
L 359.34683 88.96683 
L 359.590442 88.977151 
L 360.158872 89.331145 
L 360.483689 89.488989 
L 360.808506 89.39137 
L 360.970915 88.843731 
L 361.052119 88.831227 
L 361.295732 88.369196 
L 361.376936 87.995904 
L 361.539344 86.885276 
L 361.945365 85.741261 
L 362.02657 85.773654 
L 362.188978 85.812874 
L 362.351387 85.565656 
L 362.513795 85.539011 
L 362.594999 85.280935 
L 362.676204 85.332277 
L 362.757408 85.381835 
L 363.001021 85.138248 
L 363.163429 85.245172 
L 363.325837 85.167134 
L 363.407042 85.166204 
L 363.650654 84.393644 
L 363.731859 84.435476 
L 363.894267 83.971446 
L 364.056676 83.846167 
L 364.381493 82.684659 
L 364.543901 82.306259 
L 364.787514 81.765035 
L 364.868718 81.786438 
L 364.949922 81.082115 
L 365.031126 81.093123 
L 365.355943 80.027575 
L 365.518352 79.992626 
L 365.599556 79.720994 
L 365.68076 79.781724 
L 365.843169 79.815199 
L 366.005577 79.42164 
L 366.24919 79.125039 
L 366.655211 79.28033 
L 366.736415 78.916291 
L 366.81762 78.976694 
L 366.980028 78.945582 
L 367.061232 78.96528 
L 367.223641 78.6355 
L 367.304845 78.222433 
L 367.386049 78.244727 
L 367.629662 78.096705 
L 367.710866 78.113708 
L 367.873275 77.772117 
L 368.116888 77.514378 
L 368.766521 77.252791 
L 369.334951 77.323865 
L 369.49736 77.12535 
L 369.659768 76.959865 
L 369.822177 76.651395 
L 370.47181 76.69985 
L 370.634219 76.582846 
L 371.202649 76.264325 
L 371.365057 76.304118 
L 371.771078 75.803956 
L 372.258304 75.18795 
L 372.420712 75.208676 
L 372.826733 75.260732 
L 372.989142 74.802998 
L 373.15155 73.55662 
L 373.395163 73.318665 
L 373.476367 73.177557 
L 373.71998 71.365646 
L 373.801184 71.383573 
L 373.882388 71.187603 
L 373.963593 71.221631 
L 374.207205 71.155122 
L 375.993699 72.035294 
L 376.480924 71.978844 
L 376.562128 72.000279 
L 376.724537 71.601764 
L 376.805741 71.653952 
L 376.886945 71.619939 
L 377.130558 71.044183 
L 377.374171 70.95619 
L 377.455375 70.948021 
L 377.780192 69.849814 
L 378.105009 69.729654 
L 378.51103 69.786949 
L 378.592234 69.792491 
L 378.754643 69.605402 
L 379.07946 69.597742 
L 379.160664 69.613559 
L 379.241868 69.364543 
L 379.323072 69.405036 
L 379.485481 69.326539 
L 379.647889 69.34624 
L 379.891502 69.319295 
L 380.053911 69.169223 
L 380.865953 68.40047 
L 381.028361 68.365118 
L 381.19077 68.203629 
L 381.353178 68.244796 
L 381.596791 67.921628 
L 381.7592 67.901491 
L 381.840404 67.557579 
L 381.921608 67.609428 
L 382.246425 67.750912 
L 382.571242 66.304723 
L 382.896059 66.051995 
L 382.977263 66.107997 
L 383.220876 65.782099 
L 383.383284 65.772481 
L 383.626897 65.540022 
L 383.87051 65.153498 
L 383.951714 65.197373 
L 384.032918 65.060932 
L 384.114123 65.114613 
L 384.601348 65.345871 
L 385.088573 65.611116 
L 385.169778 65.589976 
L 385.332186 65.326552 
L 385.494595 65.135896 
L 385.900616 63.947539 
L 386.144228 63.735644 
L 386.712658 63.904249 
L 387.199884 63.900492 
L 387.362292 63.890588 
L 387.687109 63.364868 
L 387.768313 63.393256 
L 388.011926 62.697198 
L 388.823968 62.318414 
L 388.986377 61.877414 
L 389.148785 61.884483 
L 389.392398 61.19833 
L 389.554806 60.499457 
L 389.636011 60.514432 
L 389.798419 60.402425 
L 390.123236 60.13562 
L 390.285645 58.954563 
L 390.366849 58.985976 
L 390.77287 58.275596 
L 390.935279 58.23441 
L 391.097687 57.981773 
L 391.666117 57.980597 
L 392.396955 58.28721 
L 392.559363 58.312344 
L 393.208997 56.477428 
L 393.533814 56.254219 
L 393.777427 56.402695 
L 394.02104 56.303465 
L 394.508265 56.411721 
L 394.751878 55.749709 
L 394.914286 55.47265 
L 395.157899 54.9175 
L 395.239103 54.818556 
L 395.401512 54.310961 
L 396.13235 54.062894 
L 396.944392 54.56525 
L 397.106801 54.398053 
L 397.269209 54.40545 
L 397.512822 54.276212 
L 397.67523 54.29425 
L 397.918843 54.322212 
L 398.162456 54.197673 
L 398.487273 54.274454 
L 398.487273 54.274454 
" clip-path="url(#pd6d10d39dd)" style="fill: none; stroke: #d62728; stroke-width: 1.5; stroke-linecap: square"/>
   </g>
   <g id="patch_3">
    <path d="M 57.6 307.584 
L 57.6 41.472 
" style="fill: none; stroke: #ffffff; stroke-linejoin: miter; stroke-linecap: square"/>
   </g>
   <g id="patch_4">
    <path d="M 414.72 307.584 
L 414.72 41.472 
" style="fill: none; stroke: #ffffff; stroke-linejoin: miter; stroke-linecap: square"/>
   </g>
   <g id="patch_5">
    <path d="M 57.6 307.584 
L 414.72 307.584 
" style="fill: none; stroke: #ffffff; stroke-linejoin: miter; stroke-linecap: square"/>
   </g>
   <g id="patch_6">
    <path d="M 57.6 41.472 
L 414.72 41.472 
" style="fill: none; stroke: #ffffff; stroke-linejoin: miter; stroke-linecap: square"/>
   </g>
   <g id="text_17">
    <!-- 2230.854963740935 -->
    <g transform="translate(398.487273 54.274454) scale(0.1 -0.1)">
     <defs>
      <path id="DejaVuSans-2e" d="M 684 794 
L 1344 794 
L 1344 0 
L 684 0 
L 684 794 
z
" transform="scale(0.015625)"/>
      <path id="DejaVuSans-38" d="M 2034 2216 
Q 1584 2216 1326 1975 
Q 1069 1734 1069 1313 
Q 1069 891 1326 650 
Q 1584 409 2034 409 
Q 2484 409 2743 651 
Q 3003 894 3003 1313 
Q 3003 1734 2745 1975 
Q 2488 2216 2034 2216 
z
M 1403 2484 
Q 997 2584 770 2862 
Q 544 3141 544 3541 
Q 544 4100 942 4425 
Q 1341 4750 2034 4750 
Q 2731 4750 3128 4425 
Q 3525 4100 3525 3541 
Q 3525 3141 3298 2862 
Q 3072 2584 2669 2484 
Q 3125 2378 3379 2068 
Q 3634 1759 3634 1313 
Q 3634 634 3220 271 
Q 2806 -91 2034 -91 
Q 1263 -91 848 271 
Q 434 634 434 1313 
Q 434 1759 690 2068 
Q 947 2378 1403 2484 
z
M 1172 3481 
Q 1172 3119 1398 2916 
Q 1625 2713 2034 2713 
Q 2441 2713 2670 2916 
Q 2900 3119 2900 3481 
Q 2900 3844 2670 4047 
Q 2441 4250 2034 4250 
Q 1625 4250 1398 4047 
Q 1172 3844 1172 3481 
z
" transform="scale(0.015625)"/>
      <path id="DejaVuSans-39" d="M 703 97 
L 703 672 
Q 941 559 1184 500 
Q 1428 441 1663 441 
Q 2288 441 2617 861 
Q 2947 1281 2994 2138 
Q 2813 1869 2534 1725 
Q 2256 1581 1919 1581 
Q 1219 1581 811 2004 
Q 403 2428 403 3163 
Q 403 3881 828 4315 
Q 1253 4750 1959 4750 
Q 2769 4750 3195 4129 
Q 3622 3509 3622 2328 
Q 3622 1225 3098 567 
Q 2575 -91 1691 -91 
Q 1453 -91 1209 -44 
Q 966 3 703 97 
z
M 1959 2075 
Q 2384 2075 2632 2365 
Q 2881 2656 2881 3163 
Q 2881 3666 2632 3958 
Q 2384 4250 1959 4250 
Q 1534 4250 1286 3958 
Q 1038 3666 1038 3163 
Q 1038 2656 1286 2365 
Q 1534 2075 1959 2075 
z
" transform="scale(0.015625)"/>
      <path id="DejaVuSans-36" d="M 2113 2584 
Q 1688 2584 1439 2293 
Q 1191 2003 1191 1497 
Q 1191 994 1439 701 
Q 1688 409 2113 409 
Q 2538 409 2786 701 
Q 3034 994 3034 1497 
Q 3034 2003 2786 2293 
Q 2538 2584 2113 2584 
z
M 3366 4563 
L 3366 3988 
Q 3128 4100 2886 4159 
Q 2644 4219 2406 4219 
Q 1781 4219 1451 3797 
Q 1122 3375 1075 2522 
Q 1259 2794 1537 2939 
Q 1816 3084 2150 3084 
Q 2853 3084 3261 2657 
Q 3669 2231 3669 1497 
Q 3669 778 3244 343 
Q 2819 -91 2113 -91 
Q 1303 -91 875 529 
Q 447 1150 447 2328 
Q 447 3434 972 4092 
Q 1497 4750 2381 4750 
Q 2619 4750 2861 4703 
Q 3103 4656 3366 4563 
z
" transform="scale(0.015625)"/>
      <path id="DejaVuSans-37" d="M 525 4666 
L 3525 4666 
L 3525 4397 
L 1831 0 
L 1172 0 
L 2766 4134 
L 525 4134 
L 525 4666 
z
" transform="scale(0.015625)"/>
     </defs>
     <use xlink:href="#DejaVuSans-32"/>
     <use xlink:href="#DejaVuSans-32" x="63.623047"/>
     <use xlink:href="#DejaVuSans-33" x="127.246094"/>
     <use xlink:href="#DejaVuSans-30" x="190.869141"/>
     <use xlink:href="#DejaVuSans-2e" x="254.492188"/>
     <use xlink:href="#DejaVuSans-38" x="286.279297"/>
     <use xlink:href="#DejaVuSans-35" x="349.902344"/>
     <use xlink:href="#DejaVuSans-34" x="413.525391"/>
     <use xlink:href="#DejaVuSans-39" x="477.148438"/>
     <use xlink:href="#DejaVuSans-36" x="540.771484"/>
     <use xlink:href="#DejaVuSans-33" x="604.394531"/>
     <use xlink:href="#DejaVuSans-37" x="668.017578"/>
     <use xlink:href="#DejaVuSans-34" x="731.640625"/>
     <use xlink:href="#DejaVuSans-30" x="795.263672"/>
     <use xlink:href="#DejaVuSans-39" x="858.886719"/>
     <use xlink:href="#DejaVuSans-33" x="922.509766"/>
     <use xlink:href="#DejaVuSans-35" x="986.132812"/>
    </g>
   </g>
   <g id="text_18">
    <!-- Epoch: 4000 -->
    <g transform="translate(191.0745 35.472) scale(0.144 -0.144)">
     <defs>
      <path id="DejaVuSans-45" d="M 628 4666 
L 3578 4666 
L 3578 4134 
L 1259 4134 
L 1259 2753 
L 3481 2753 
L 3481 2222 
L 1259 2222 
L 1259 531 
L 3634 531 
L 3634 0 
L 628 0 
L 628 4666 
z
" transform="scale(0.015625)"/>
      <path id="DejaVuSans-70" d="M 1159 525 
L 1159 -1331 
L 581 -1331 
L 581 3500 
L 1159 3500 
L 1159 2969 
Q 1341 3281 1617 3432 
Q 1894 3584 2278 3584 
Q 2916 3584 3314 3078 
Q 3713 2572 3713 1747 
Q 3713 922 3314 415 
Q 2916 -91 2278 -91 
Q 1894 -91 1617 61 
Q 1341 213 1159 525 
z
M 3116 1747 
Q 3116 2381 2855 2742 
Q 2594 3103 2138 3103 
Q 1681 3103 1420 2742 
Q 1159 2381 1159 1747 
Q 1159 1113 1420 752 
Q 1681 391 2138 391 
Q 2594 391 2855 752 
Q 3116 1113 3116 1747 
z
" transform="scale(0.015625)"/>
      <path id="DejaVuSans-63" d="M 3122 3366 
L 3122 2828 
Q 2878 2963 2633 3030 
Q 2388 3097 2138 3097 
Q 1578 3097 1268 2742 
Q 959 2388 959 1747 
Q 959 1106 1268 751 
Q 1578 397 2138 397 
Q 2388 397 2633 464 
Q 2878 531 3122 666 
L 3122 134 
Q 2881 22 2623 -34 
Q 2366 -91 2075 -91 
Q 1284 -91 818 406 
Q 353 903 353 1747 
Q 353 2603 823 3093 
Q 1294 3584 2113 3584 
Q 2378 3584 2631 3529 
Q 2884 3475 3122 3366 
z
" transform="scale(0.015625)"/>
      <path id="DejaVuSans-68" d="M 3513 2113 
L 3513 0 
L 2938 0 
L 2938 2094 
Q 2938 2591 2744 2837 
Q 2550 3084 2163 3084 
Q 1697 3084 1428 2787 
Q 1159 2491 1159 1978 
L 1159 0 
L 581 0 
L 581 4863 
L 1159 4863 
L 1159 2956 
Q 1366 3272 1645 3428 
Q 1925 3584 2291 3584 
Q 2894 3584 3203 3211 
Q 3513 2838 3513 2113 
z
" transform="scale(0.015625)"/>
      <path id="DejaVuSans-3a" d="M 750 794 
L 1409 794 
L 1409 0 
L 750 0 
L 750 794 
z
M 750 3309 
L 1409 3309 
L 1409 2516 
L 750 2516 
L 750 3309 
z
" transform="scale(0.015625)"/>
     </defs>
     <use xlink:href="#DejaVuSans-45"/>
     <use xlink:href="#DejaVuSans-70" x="63.183594"/>
     <use xlink:href="#DejaVuSans-6f" x="126.660156"/>
     <use xlink:href="#DejaVuSans-63" x="187.841797"/>
     <use xlink:href="#DejaVuSans-68" x="242.822266"/>
     <use xlink:href="#DejaVuSans-3a" x="306.201172"/>
     <use xlink:href="#DejaVuSans-20" x="339.892578"/>
     <use xlink:href="#DejaVuSans-34" x="371.679688"/>
     <use xlink:href="#DejaVuSans-30" x="435.302734"/>
     <use xlink:href="#DejaVuSans-30" x="498.925781"/>
     <use xlink:href="#DejaVuSans-30" x="562.548828"/>
    </g>
   </g>
  </g>
 </g>
 <defs>
  <clipPath id="pd6d10d39dd">
   <rect x="57.6" y="41.472" width="357.12" height="266.112"/>
  </clipPath>
 </defs>
</svg>
