<?xml version="1.0" encoding="utf-8" standalone="no"?>
<!DOCTYPE svg PUBLIC "-//W3C//DTD SVG 1.1//EN"
  "http://www.w3.org/Graphics/SVG/1.1/DTD/svg11.dtd">
<svg xmlns:xlink="http://www.w3.org/1999/xlink" width="460.8pt" height="345.6pt" viewBox="0 0 460.8 345.6" xmlns="http://www.w3.org/2000/svg" version="1.1">
 <metadata>
  <rdf:RDF xmlns:dc="http://purl.org/dc/elements/1.1/" xmlns:cc="http://creativecommons.org/ns#" xmlns:rdf="http://www.w3.org/1999/02/22-rdf-syntax-ns#">
   <cc:Work>
    <dc:type rdf:resource="http://purl.org/dc/dcmitype/StillImage"/>
    <dc:date>2024-09-04T17:22:21.838991</dc:date>
    <dc:format>image/svg+xml</dc:format>
    <dc:creator>
     <cc:Agent>
      <dc:title>Matplotlib v3.8.4, https://matplotlib.org/</dc:title>
     </cc:Agent>
    </dc:creator>
   </cc:Work>
  </rdf:RDF>
 </metadata>
 <defs>
  <style type="text/css">*{stroke-linejoin: round; stroke-linecap: butt}</style>
 </defs>
 <g id="figure_1">
  <g id="patch_1">
   <path d="M 0 345.6 
L 460.8 345.6 
L 460.8 0 
L 0 0 
z
" style="fill: #ffffff"/>
  </g>
  <g id="axes_1">
   <g id="patch_2">
    <path d="M 57.6 307.584 
L 414.72 307.584 
L 414.72 41.472 
L 57.6 41.472 
z
" style="fill: #e5e5e5"/>
   </g>
   <g id="matplotlib.axis_1">
    <g id="xtick_1">
     <g id="line2d_1">
      <path d="M 73.832727 307.584 
L 73.832727 41.472 
" clip-path="url(#p703c225146)" style="fill: none; stroke: #ffffff; stroke-width: 0.8; stroke-linecap: square"/>
     </g>
     <g id="line2d_2">
      <defs>
       <path id="md4c25560b8" d="M 0 0 
L 0 3.5 
" style="stroke: #555555; stroke-width: 0.8"/>
      </defs>
      <g>
       <use xlink:href="#md4c25560b8" x="73.832727" y="307.584" style="fill: #555555; stroke: #555555; stroke-width: 0.8"/>
      </g>
     </g>
     <g id="text_1">
      <!-- 0 -->
      <g style="fill: #555555" transform="translate(70.651477 322.182437) scale(0.1 -0.1)">
       <defs>
        <path id="DejaVuSans-30" d="M 2034 4250 
Q 1547 4250 1301 3770 
Q 1056 3291 1056 2328 
Q 1056 1369 1301 889 
Q 1547 409 2034 409 
Q 2525 409 2770 889 
Q 3016 1369 3016 2328 
Q 3016 3291 2770 3770 
Q 2525 4250 2034 4250 
z
M 2034 4750 
Q 2819 4750 3233 4129 
Q 3647 3509 3647 2328 
Q 3647 1150 3233 529 
Q 2819 -91 2034 -91 
Q 1250 -91 836 529 
Q 422 1150 422 2328 
Q 422 3509 836 4129 
Q 1250 4750 2034 4750 
z
" transform="scale(0.015625)"/>
       </defs>
       <use xlink:href="#DejaVuSans-30"/>
      </g>
     </g>
    </g>
    <g id="xtick_2">
     <g id="line2d_3">
      <path d="M 138.893758 307.584 
L 138.893758 41.472 
" clip-path="url(#p703c225146)" style="fill: none; stroke: #ffffff; stroke-width: 0.8; stroke-linecap: square"/>
     </g>
     <g id="line2d_4">
      <g>
       <use xlink:href="#md4c25560b8" x="138.893758" y="307.584" style="fill: #555555; stroke: #555555; stroke-width: 0.8"/>
      </g>
     </g>
     <g id="text_2">
      <!-- 200 -->
      <g style="fill: #555555" transform="translate(129.350008 322.182437) scale(0.1 -0.1)">
       <defs>
        <path id="DejaVuSans-32" d="M 1228 531 
L 3431 531 
L 3431 0 
L 469 0 
L 469 531 
Q 828 903 1448 1529 
Q 2069 2156 2228 2338 
Q 2531 2678 2651 2914 
Q 2772 3150 2772 3378 
Q 2772 3750 2511 3984 
Q 2250 4219 1831 4219 
Q 1534 4219 1204 4116 
Q 875 4013 500 3803 
L 500 4441 
Q 881 4594 1212 4672 
Q 1544 4750 1819 4750 
Q 2544 4750 2975 4387 
Q 3406 4025 3406 3419 
Q 3406 3131 3298 2873 
Q 3191 2616 2906 2266 
Q 2828 2175 2409 1742 
Q 1991 1309 1228 531 
z
" transform="scale(0.015625)"/>
       </defs>
       <use xlink:href="#DejaVuSans-32"/>
       <use xlink:href="#DejaVuSans-30" x="63.623047"/>
       <use xlink:href="#DejaVuSans-30" x="127.246094"/>
      </g>
     </g>
    </g>
    <g id="xtick_3">
     <g id="line2d_5">
      <path d="M 203.95479 307.584 
L 203.95479 41.472 
" clip-path="url(#p703c225146)" style="fill: none; stroke: #ffffff; stroke-width: 0.8; stroke-linecap: square"/>
     </g>
     <g id="line2d_6">
      <g>
       <use xlink:href="#md4c25560b8" x="203.95479" y="307.584" style="fill: #555555; stroke: #555555; stroke-width: 0.8"/>
      </g>
     </g>
     <g id="text_3">
      <!-- 400 -->
      <g style="fill: #555555" transform="translate(194.41104 322.182437) scale(0.1 -0.1)">
       <defs>
        <path id="DejaVuSans-34" d="M 2419 4116 
L 825 1625 
L 2419 1625 
L 2419 4116 
z
M 2253 4666 
L 3047 4666 
L 3047 1625 
L 3713 1625 
L 3713 1100 
L 3047 1100 
L 3047 0 
L 2419 0 
L 2419 1100 
L 313 1100 
L 313 1709 
L 2253 4666 
z
" transform="scale(0.015625)"/>
       </defs>
       <use xlink:href="#DejaVuSans-34"/>
       <use xlink:href="#DejaVuSans-30" x="63.623047"/>
       <use xlink:href="#DejaVuSans-30" x="127.246094"/>
      </g>
     </g>
    </g>
    <g id="xtick_4">
     <g id="line2d_7">
      <path d="M 269.015821 307.584 
L 269.015821 41.472 
" clip-path="url(#p703c225146)" style="fill: none; stroke: #ffffff; stroke-width: 0.8; stroke-linecap: square"/>
     </g>
     <g id="line2d_8">
      <g>
       <use xlink:href="#md4c25560b8" x="269.015821" y="307.584" style="fill: #555555; stroke: #555555; stroke-width: 0.8"/>
      </g>
     </g>
     <g id="text_4">
      <!-- 600 -->
      <g style="fill: #555555" transform="translate(259.472071 322.182437) scale(0.1 -0.1)">
       <defs>
        <path id="DejaVuSans-36" d="M 2113 2584 
Q 1688 2584 1439 2293 
Q 1191 2003 1191 1497 
Q 1191 994 1439 701 
Q 1688 409 2113 409 
Q 2538 409 2786 701 
Q 3034 994 3034 1497 
Q 3034 2003 2786 2293 
Q 2538 2584 2113 2584 
z
M 3366 4563 
L 3366 3988 
Q 3128 4100 2886 4159 
Q 2644 4219 2406 4219 
Q 1781 4219 1451 3797 
Q 1122 3375 1075 2522 
Q 1259 2794 1537 2939 
Q 1816 3084 2150 3084 
Q 2853 3084 3261 2657 
Q 3669 2231 3669 1497 
Q 3669 778 3244 343 
Q 2819 -91 2113 -91 
Q 1303 -91 875 529 
Q 447 1150 447 2328 
Q 447 3434 972 4092 
Q 1497 4750 2381 4750 
Q 2619 4750 2861 4703 
Q 3103 4656 3366 4563 
z
" transform="scale(0.015625)"/>
       </defs>
       <use xlink:href="#DejaVuSans-36"/>
       <use xlink:href="#DejaVuSans-30" x="63.623047"/>
       <use xlink:href="#DejaVuSans-30" x="127.246094"/>
      </g>
     </g>
    </g>
    <g id="xtick_5">
     <g id="line2d_9">
      <path d="M 334.076852 307.584 
L 334.076852 41.472 
" clip-path="url(#p703c225146)" style="fill: none; stroke: #ffffff; stroke-width: 0.8; stroke-linecap: square"/>
     </g>
     <g id="line2d_10">
      <g>
       <use xlink:href="#md4c25560b8" x="334.076852" y="307.584" style="fill: #555555; stroke: #555555; stroke-width: 0.8"/>
      </g>
     </g>
     <g id="text_5">
      <!-- 800 -->
      <g style="fill: #555555" transform="translate(324.533102 322.182437) scale(0.1 -0.1)">
       <defs>
        <path id="DejaVuSans-38" d="M 2034 2216 
Q 1584 2216 1326 1975 
Q 1069 1734 1069 1313 
Q 1069 891 1326 650 
Q 1584 409 2034 409 
Q 2484 409 2743 651 
Q 3003 894 3003 1313 
Q 3003 1734 2745 1975 
Q 2488 2216 2034 2216 
z
M 1403 2484 
Q 997 2584 770 2862 
Q 544 3141 544 3541 
Q 544 4100 942 4425 
Q 1341 4750 2034 4750 
Q 2731 4750 3128 4425 
Q 3525 4100 3525 3541 
Q 3525 3141 3298 2862 
Q 3072 2584 2669 2484 
Q 3125 2378 3379 2068 
Q 3634 1759 3634 1313 
Q 3634 634 3220 271 
Q 2806 -91 2034 -91 
Q 1263 -91 848 271 
Q 434 634 434 1313 
Q 434 1759 690 2068 
Q 947 2378 1403 2484 
z
M 1172 3481 
Q 1172 3119 1398 2916 
Q 1625 2713 2034 2713 
Q 2441 2713 2670 2916 
Q 2900 3119 2900 3481 
Q 2900 3844 2670 4047 
Q 2441 4250 2034 4250 
Q 1625 4250 1398 4047 
Q 1172 3844 1172 3481 
z
" transform="scale(0.015625)"/>
       </defs>
       <use xlink:href="#DejaVuSans-38"/>
       <use xlink:href="#DejaVuSans-30" x="63.623047"/>
       <use xlink:href="#DejaVuSans-30" x="127.246094"/>
      </g>
     </g>
    </g>
    <g id="xtick_6">
     <g id="line2d_11">
      <path d="M 399.137883 307.584 
L 399.137883 41.472 
" clip-path="url(#p703c225146)" style="fill: none; stroke: #ffffff; stroke-width: 0.8; stroke-linecap: square"/>
     </g>
     <g id="line2d_12">
      <g>
       <use xlink:href="#md4c25560b8" x="399.137883" y="307.584" style="fill: #555555; stroke: #555555; stroke-width: 0.8"/>
      </g>
     </g>
     <g id="text_6">
      <!-- 1000 -->
      <g style="fill: #555555" transform="translate(386.412883 322.182437) scale(0.1 -0.1)">
       <defs>
        <path id="DejaVuSans-31" d="M 794 531 
L 1825 531 
L 1825 4091 
L 703 3866 
L 703 4441 
L 1819 4666 
L 2450 4666 
L 2450 531 
L 3481 531 
L 3481 0 
L 794 0 
L 794 531 
z
" transform="scale(0.015625)"/>
       </defs>
       <use xlink:href="#DejaVuSans-31"/>
       <use xlink:href="#DejaVuSans-30" x="63.623047"/>
       <use xlink:href="#DejaVuSans-30" x="127.246094"/>
       <use xlink:href="#DejaVuSans-30" x="190.869141"/>
      </g>
     </g>
    </g>
    <g id="text_7">
     <!-- Number of Games -->
     <g style="fill: #555555" transform="translate(181.471875 337.38025) scale(0.12 -0.12)">
      <defs>
       <path id="DejaVuSans-4e" d="M 628 4666 
L 1478 4666 
L 3547 763 
L 3547 4666 
L 4159 4666 
L 4159 0 
L 3309 0 
L 1241 3903 
L 1241 0 
L 628 0 
L 628 4666 
z
" transform="scale(0.015625)"/>
       <path id="DejaVuSans-75" d="M 544 1381 
L 544 3500 
L 1119 3500 
L 1119 1403 
Q 1119 906 1312 657 
Q 1506 409 1894 409 
Q 2359 409 2629 706 
Q 2900 1003 2900 1516 
L 2900 3500 
L 3475 3500 
L 3475 0 
L 2900 0 
L 2900 538 
Q 2691 219 2414 64 
Q 2138 -91 1772 -91 
Q 1169 -91 856 284 
Q 544 659 544 1381 
z
M 1991 3584 
L 1991 3584 
z
" transform="scale(0.015625)"/>
       <path id="DejaVuSans-6d" d="M 3328 2828 
Q 3544 3216 3844 3400 
Q 4144 3584 4550 3584 
Q 5097 3584 5394 3201 
Q 5691 2819 5691 2113 
L 5691 0 
L 5113 0 
L 5113 2094 
Q 5113 2597 4934 2840 
Q 4756 3084 4391 3084 
Q 3944 3084 3684 2787 
Q 3425 2491 3425 1978 
L 3425 0 
L 2847 0 
L 2847 2094 
Q 2847 2600 2669 2842 
Q 2491 3084 2119 3084 
Q 1678 3084 1418 2786 
Q 1159 2488 1159 1978 
L 1159 0 
L 581 0 
L 581 3500 
L 1159 3500 
L 1159 2956 
Q 1356 3278 1631 3431 
Q 1906 3584 2284 3584 
Q 2666 3584 2933 3390 
Q 3200 3197 3328 2828 
z
" transform="scale(0.015625)"/>
       <path id="DejaVuSans-62" d="M 3116 1747 
Q 3116 2381 2855 2742 
Q 2594 3103 2138 3103 
Q 1681 3103 1420 2742 
Q 1159 2381 1159 1747 
Q 1159 1113 1420 752 
Q 1681 391 2138 391 
Q 2594 391 2855 752 
Q 3116 1113 3116 1747 
z
M 1159 2969 
Q 1341 3281 1617 3432 
Q 1894 3584 2278 3584 
Q 2916 3584 3314 3078 
Q 3713 2572 3713 1747 
Q 3713 922 3314 415 
Q 2916 -91 2278 -91 
Q 1894 -91 1617 61 
Q 1341 213 1159 525 
L 1159 0 
L 581 0 
L 581 4863 
L 1159 4863 
L 1159 2969 
z
" transform="scale(0.015625)"/>
       <path id="DejaVuSans-65" d="M 3597 1894 
L 3597 1613 
L 953 1613 
Q 991 1019 1311 708 
Q 1631 397 2203 397 
Q 2534 397 2845 478 
Q 3156 559 3463 722 
L 3463 178 
Q 3153 47 2828 -22 
Q 2503 -91 2169 -91 
Q 1331 -91 842 396 
Q 353 884 353 1716 
Q 353 2575 817 3079 
Q 1281 3584 2069 3584 
Q 2775 3584 3186 3129 
Q 3597 2675 3597 1894 
z
M 3022 2063 
Q 3016 2534 2758 2815 
Q 2500 3097 2075 3097 
Q 1594 3097 1305 2825 
Q 1016 2553 972 2059 
L 3022 2063 
z
" transform="scale(0.015625)"/>
       <path id="DejaVuSans-72" d="M 2631 2963 
Q 2534 3019 2420 3045 
Q 2306 3072 2169 3072 
Q 1681 3072 1420 2755 
Q 1159 2438 1159 1844 
L 1159 0 
L 581 0 
L 581 3500 
L 1159 3500 
L 1159 2956 
Q 1341 3275 1631 3429 
Q 1922 3584 2338 3584 
Q 2397 3584 2469 3576 
Q 2541 3569 2628 3553 
L 2631 2963 
z
" transform="scale(0.015625)"/>
       <path id="DejaVuSans-20" transform="scale(0.015625)"/>
       <path id="DejaVuSans-6f" d="M 1959 3097 
Q 1497 3097 1228 2736 
Q 959 2375 959 1747 
Q 959 1119 1226 758 
Q 1494 397 1959 397 
Q 2419 397 2687 759 
Q 2956 1122 2956 1747 
Q 2956 2369 2687 2733 
Q 2419 3097 1959 3097 
z
M 1959 3584 
Q 2709 3584 3137 3096 
Q 3566 2609 3566 1747 
Q 3566 888 3137 398 
Q 2709 -91 1959 -91 
Q 1206 -91 779 398 
Q 353 888 353 1747 
Q 353 2609 779 3096 
Q 1206 3584 1959 3584 
z
" transform="scale(0.015625)"/>
       <path id="DejaVuSans-66" d="M 2375 4863 
L 2375 4384 
L 1825 4384 
Q 1516 4384 1395 4259 
Q 1275 4134 1275 3809 
L 1275 3500 
L 2222 3500 
L 2222 3053 
L 1275 3053 
L 1275 0 
L 697 0 
L 697 3053 
L 147 3053 
L 147 3500 
L 697 3500 
L 697 3744 
Q 697 4328 969 4595 
Q 1241 4863 1831 4863 
L 2375 4863 
z
" transform="scale(0.015625)"/>
       <path id="DejaVuSans-47" d="M 3809 666 
L 3809 1919 
L 2778 1919 
L 2778 2438 
L 4434 2438 
L 4434 434 
Q 4069 175 3628 42 
Q 3188 -91 2688 -91 
Q 1594 -91 976 548 
Q 359 1188 359 2328 
Q 359 3472 976 4111 
Q 1594 4750 2688 4750 
Q 3144 4750 3555 4637 
Q 3966 4525 4313 4306 
L 4313 3634 
Q 3963 3931 3569 4081 
Q 3175 4231 2741 4231 
Q 1884 4231 1454 3753 
Q 1025 3275 1025 2328 
Q 1025 1384 1454 906 
Q 1884 428 2741 428 
Q 3075 428 3337 486 
Q 3600 544 3809 666 
z
" transform="scale(0.015625)"/>
       <path id="DejaVuSans-61" d="M 2194 1759 
Q 1497 1759 1228 1600 
Q 959 1441 959 1056 
Q 959 750 1161 570 
Q 1363 391 1709 391 
Q 2188 391 2477 730 
Q 2766 1069 2766 1631 
L 2766 1759 
L 2194 1759 
z
M 3341 1997 
L 3341 0 
L 2766 0 
L 2766 531 
Q 2569 213 2275 61 
Q 1981 -91 1556 -91 
Q 1019 -91 701 211 
Q 384 513 384 1019 
Q 384 1609 779 1909 
Q 1175 2209 1959 2209 
L 2766 2209 
L 2766 2266 
Q 2766 2663 2505 2880 
Q 2244 3097 1772 3097 
Q 1472 3097 1187 3025 
Q 903 2953 641 2809 
L 641 3341 
Q 956 3463 1253 3523 
Q 1550 3584 1831 3584 
Q 2591 3584 2966 3190 
Q 3341 2797 3341 1997 
z
" transform="scale(0.015625)"/>
       <path id="DejaVuSans-73" d="M 2834 3397 
L 2834 2853 
Q 2591 2978 2328 3040 
Q 2066 3103 1784 3103 
Q 1356 3103 1142 2972 
Q 928 2841 928 2578 
Q 928 2378 1081 2264 
Q 1234 2150 1697 2047 
L 1894 2003 
Q 2506 1872 2764 1633 
Q 3022 1394 3022 966 
Q 3022 478 2636 193 
Q 2250 -91 1575 -91 
Q 1294 -91 989 -36 
Q 684 19 347 128 
L 347 722 
Q 666 556 975 473 
Q 1284 391 1588 391 
Q 1994 391 2212 530 
Q 2431 669 2431 922 
Q 2431 1156 2273 1281 
Q 2116 1406 1581 1522 
L 1381 1569 
Q 847 1681 609 1914 
Q 372 2147 372 2553 
Q 372 3047 722 3315 
Q 1072 3584 1716 3584 
Q 2034 3584 2315 3537 
Q 2597 3491 2834 3397 
z
" transform="scale(0.015625)"/>
      </defs>
      <use xlink:href="#DejaVuSans-4e"/>
      <use xlink:href="#DejaVuSans-75" x="74.804688"/>
      <use xlink:href="#DejaVuSans-6d" x="138.183594"/>
      <use xlink:href="#DejaVuSans-62" x="235.595703"/>
      <use xlink:href="#DejaVuSans-65" x="299.072266"/>
      <use xlink:href="#DejaVuSans-72" x="360.595703"/>
      <use xlink:href="#DejaVuSans-20" x="401.708984"/>
      <use xlink:href="#DejaVuSans-6f" x="433.496094"/>
      <use xlink:href="#DejaVuSans-66" x="494.677734"/>
      <use xlink:href="#DejaVuSans-20" x="529.882812"/>
      <use xlink:href="#DejaVuSans-47" x="561.669922"/>
      <use xlink:href="#DejaVuSans-61" x="639.160156"/>
      <use xlink:href="#DejaVuSans-6d" x="700.439453"/>
      <use xlink:href="#DejaVuSans-65" x="797.851562"/>
      <use xlink:href="#DejaVuSans-73" x="859.375"/>
     </g>
    </g>
   </g>
   <g id="matplotlib.axis_2">
    <g id="ytick_1">
     <g id="line2d_13">
      <path d="M 57.6 307.584 
L 414.72 307.584 
" clip-path="url(#p703c225146)" style="fill: none; stroke: #ffffff; stroke-width: 0.8; stroke-linecap: square"/>
     </g>
     <g id="line2d_14">
      <defs>
       <path id="mf60eca1d10" d="M 0 0 
L -3.5 0 
" style="stroke: #555555; stroke-width: 0.8"/>
      </defs>
      <g>
       <use xlink:href="#mf60eca1d10" x="57.6" y="307.584" style="fill: #555555; stroke: #555555; stroke-width: 0.8"/>
      </g>
     </g>
     <g id="text_8">
      <!-- 0 -->
      <g style="fill: #555555" transform="translate(44.2375 311.383219) scale(0.1 -0.1)">
       <use xlink:href="#DejaVuSans-30"/>
      </g>
     </g>
    </g>
    <g id="ytick_2">
     <g id="line2d_15">
      <path d="M 57.6 251.600062 
L 414.72 251.600062 
" clip-path="url(#p703c225146)" style="fill: none; stroke: #ffffff; stroke-width: 0.8; stroke-linecap: square"/>
     </g>
     <g id="line2d_16">
      <g>
       <use xlink:href="#mf60eca1d10" x="57.6" y="251.600062" style="fill: #555555; stroke: #555555; stroke-width: 0.8"/>
      </g>
     </g>
     <g id="text_9">
      <!-- 5 -->
      <g style="fill: #555555" transform="translate(44.2375 255.399281) scale(0.1 -0.1)">
       <defs>
        <path id="DejaVuSans-35" d="M 691 4666 
L 3169 4666 
L 3169 4134 
L 1269 4134 
L 1269 2991 
Q 1406 3038 1543 3061 
Q 1681 3084 1819 3084 
Q 2600 3084 3056 2656 
Q 3513 2228 3513 1497 
Q 3513 744 3044 326 
Q 2575 -91 1722 -91 
Q 1428 -91 1123 -41 
Q 819 9 494 109 
L 494 744 
Q 775 591 1075 516 
Q 1375 441 1709 441 
Q 2250 441 2565 725 
Q 2881 1009 2881 1497 
Q 2881 1984 2565 2268 
Q 2250 2553 1709 2553 
Q 1456 2553 1204 2497 
Q 953 2441 691 2322 
L 691 4666 
z
" transform="scale(0.015625)"/>
       </defs>
       <use xlink:href="#DejaVuSans-35"/>
      </g>
     </g>
    </g>
    <g id="ytick_3">
     <g id="line2d_17">
      <path d="M 57.6 195.616124 
L 414.72 195.616124 
" clip-path="url(#p703c225146)" style="fill: none; stroke: #ffffff; stroke-width: 0.8; stroke-linecap: square"/>
     </g>
     <g id="line2d_18">
      <g>
       <use xlink:href="#mf60eca1d10" x="57.6" y="195.616124" style="fill: #555555; stroke: #555555; stroke-width: 0.8"/>
      </g>
     </g>
     <g id="text_10">
      <!-- 10 -->
      <g style="fill: #555555" transform="translate(37.875 199.415343) scale(0.1 -0.1)">
       <use xlink:href="#DejaVuSans-31"/>
       <use xlink:href="#DejaVuSans-30" x="63.623047"/>
      </g>
     </g>
    </g>
    <g id="ytick_4">
     <g id="line2d_19">
      <path d="M 57.6 139.632186 
L 414.72 139.632186 
" clip-path="url(#p703c225146)" style="fill: none; stroke: #ffffff; stroke-width: 0.8; stroke-linecap: square"/>
     </g>
     <g id="line2d_20">
      <g>
       <use xlink:href="#mf60eca1d10" x="57.6" y="139.632186" style="fill: #555555; stroke: #555555; stroke-width: 0.8"/>
      </g>
     </g>
     <g id="text_11">
      <!-- 15 -->
      <g style="fill: #555555" transform="translate(37.875 143.431405) scale(0.1 -0.1)">
       <use xlink:href="#DejaVuSans-31"/>
       <use xlink:href="#DejaVuSans-35" x="63.623047"/>
      </g>
     </g>
    </g>
    <g id="ytick_5">
     <g id="line2d_21">
      <path d="M 57.6 83.648248 
L 414.72 83.648248 
" clip-path="url(#p703c225146)" style="fill: none; stroke: #ffffff; stroke-width: 0.8; stroke-linecap: square"/>
     </g>
     <g id="line2d_22">
      <g>
       <use xlink:href="#mf60eca1d10" x="57.6" y="83.648248" style="fill: #555555; stroke: #555555; stroke-width: 0.8"/>
      </g>
     </g>
     <g id="text_12">
      <!-- 20 -->
      <g style="fill: #555555" transform="translate(37.875 87.447467) scale(0.1 -0.1)">
       <use xlink:href="#DejaVuSans-32"/>
       <use xlink:href="#DejaVuSans-30" x="63.623047"/>
      </g>
     </g>
    </g>
    <g id="text_13">
     <!-- Median reward -->
     <g style="fill: #555555" transform="translate(31.379375 219.03675) rotate(-90) scale(0.12 -0.12)">
      <defs>
       <path id="DejaVuSans-4d" d="M 628 4666 
L 1569 4666 
L 2759 1491 
L 3956 4666 
L 4897 4666 
L 4897 0 
L 4281 0 
L 4281 4097 
L 3078 897 
L 2444 897 
L 1241 4097 
L 1241 0 
L 628 0 
L 628 4666 
z
" transform="scale(0.015625)"/>
       <path id="DejaVuSans-64" d="M 2906 2969 
L 2906 4863 
L 3481 4863 
L 3481 0 
L 2906 0 
L 2906 525 
Q 2725 213 2448 61 
Q 2172 -91 1784 -91 
Q 1150 -91 751 415 
Q 353 922 353 1747 
Q 353 2572 751 3078 
Q 1150 3584 1784 3584 
Q 2172 3584 2448 3432 
Q 2725 3281 2906 2969 
z
M 947 1747 
Q 947 1113 1208 752 
Q 1469 391 1925 391 
Q 2381 391 2643 752 
Q 2906 1113 2906 1747 
Q 2906 2381 2643 2742 
Q 2381 3103 1925 3103 
Q 1469 3103 1208 2742 
Q 947 2381 947 1747 
z
" transform="scale(0.015625)"/>
       <path id="DejaVuSans-69" d="M 603 3500 
L 1178 3500 
L 1178 0 
L 603 0 
L 603 3500 
z
M 603 4863 
L 1178 4863 
L 1178 4134 
L 603 4134 
L 603 4863 
z
" transform="scale(0.015625)"/>
       <path id="DejaVuSans-6e" d="M 3513 2113 
L 3513 0 
L 2938 0 
L 2938 2094 
Q 2938 2591 2744 2837 
Q 2550 3084 2163 3084 
Q 1697 3084 1428 2787 
Q 1159 2491 1159 1978 
L 1159 0 
L 581 0 
L 581 3500 
L 1159 3500 
L 1159 2956 
Q 1366 3272 1645 3428 
Q 1925 3584 2291 3584 
Q 2894 3584 3203 3211 
Q 3513 2838 3513 2113 
z
" transform="scale(0.015625)"/>
       <path id="DejaVuSans-77" d="M 269 3500 
L 844 3500 
L 1563 769 
L 2278 3500 
L 2956 3500 
L 3675 769 
L 4391 3500 
L 4966 3500 
L 4050 0 
L 3372 0 
L 2619 2869 
L 1863 0 
L 1184 0 
L 269 3500 
z
" transform="scale(0.015625)"/>
      </defs>
      <use xlink:href="#DejaVuSans-4d"/>
      <use xlink:href="#DejaVuSans-65" x="86.279297"/>
      <use xlink:href="#DejaVuSans-64" x="147.802734"/>
      <use xlink:href="#DejaVuSans-69" x="211.279297"/>
      <use xlink:href="#DejaVuSans-61" x="239.0625"/>
      <use xlink:href="#DejaVuSans-6e" x="300.341797"/>
      <use xlink:href="#DejaVuSans-20" x="363.720703"/>
      <use xlink:href="#DejaVuSans-72" x="395.507812"/>
      <use xlink:href="#DejaVuSans-65" x="434.371094"/>
      <use xlink:href="#DejaVuSans-77" x="495.894531"/>
      <use xlink:href="#DejaVuSans-61" x="577.681641"/>
      <use xlink:href="#DejaVuSans-72" x="638.960938"/>
      <use xlink:href="#DejaVuSans-64" x="678.324219"/>
     </g>
    </g>
   </g>
   <g id="line2d_23">
    <path d="M 73.832727 139.632186 
L 74.158032 111.640217 
L 74.483338 72.45146 
L 74.808643 66.853066 
L 75.133948 76.930175 
L 75.459253 91.112773 
L 75.784558 88.446871 
L 76.109863 79.449453 
L 76.435169 83.648248 
L 77.085779 87.719807 
L 77.411084 92.978904 
L 78.061694 96.444577 
L 78.386999 102.309561 
L 79.03761 109.334996 
L 79.362915 107.907954 
L 79.68822 111.345565 
L 80.013525 111.640217 
L 80.33883 110.307266 
L 80.664136 110.113382 
L 80.989441 109.449541 
L 81.640051 111.864153 
L 81.965356 112.501508 
L 82.290661 111.847565 
L 82.615966 113.639643 
L 82.941272 112.605457 
L 83.266577 112.386669 
L 83.591882 112.90437 
L 83.917187 113.739615 
L 84.242492 113.845645 
L 84.567797 116.579976 
L 84.893103 117.558519 
L 85.218408 117.549633 
L 85.869018 115.176045 
L 86.194323 115.228931 
L 86.519628 113.599655 
L 86.844934 113.68841 
L 87.170239 114.039529 
L 87.495544 114.113926 
L 87.820849 114.693886 
L 88.146154 114.750436 
L 88.471459 115.047935 
L 88.796764 115.571004 
L 89.12207 115.372479 
L 89.447375 114.725046 
L 89.77268 115.223189 
L 90.097985 114.604072 
L 90.748595 115.54853 
L 91.073901 115.787175 
L 91.399206 115.609987 
L 91.724511 115.839012 
L 92.049816 115.863567 
L 92.375121 115.694226 
L 92.700426 115.720402 
L 93.025731 116.492158 
L 93.351037 116.320841 
L 93.676342 117.419204 
L 94.326952 118.28831 
L 94.652257 118.099902 
L 94.977562 117.747556 
L 95.302868 118.742657 
L 95.628173 119.214514 
L 95.953478 119.99724 
L 96.278783 118.838152 
L 96.604088 119.288727 
L 96.929393 118.79372 
L 97.580004 120.113462 
L 97.905309 120.07513 
L 98.230614 119.006525 
L 98.555919 118.692739 
L 98.881224 119.391839 
L 99.85714 118.344466 
L 100.182445 117.648249 
L 100.50775 117.238611 
L 100.833055 117.505201 
L 101.15836 116.053068 
L 101.483666 115.676268 
L 101.808971 115.565527 
L 102.134276 115.075595 
L 102.459581 115.728931 
L 102.784886 116.118932 
L 103.110191 116.008194 
L 103.435496 116.751794 
L 104.086107 116.047463 
L 104.411412 116.413584 
L 104.736717 116.538811 
L 105.062022 117.469472 
L 105.387327 117.695622 
L 105.712633 118.595797 
L 106.037938 118.918129 
L 107.339158 118.099902 
L 107.989769 118.611802 
L 109.290989 119.783335 
L 110.59221 119.694047 
L 111.24282 120.134332 
L 111.568125 120.396679 
L 111.89343 120.464804 
L 112.218736 120.719965 
L 112.544041 120.411034 
L 113.194651 120.542581 
L 113.519956 120.333658 
L 114.170567 120.642434 
L 114.495872 120.526556 
L 114.821177 120.941485 
L 115.471787 121.144467 
L 115.797092 121.200551 
L 116.447703 120.970873 
L 117.098313 121.583633 
L 118.074228 121.978857 
L 118.399534 121.782235 
L 118.724839 121.991204 
L 119.050144 121.957257 
L 119.375449 122.47966 
L 119.700754 122.758154 
L 120.351365 122.448227 
L 120.67667 122.798395 
L 121.001975 122.530243 
L 121.32728 122.494246 
L 121.652585 123.063966 
L 121.97789 122.724285 
L 122.303195 122.837004 
L 122.628501 123.096533 
L 122.953806 123.20532 
L 123.279111 123.53223 
L 124.255026 123.482973 
L 125.230942 124.280615 
L 125.881552 124.401773 
L 126.206857 124.703136 
L 126.532163 124.382573 
L 126.857468 124.543832 
L 127.182773 124.092402 
L 127.508078 124.186015 
L 127.833383 124.010321 
L 128.158688 123.970013 
L 128.483993 124.327701 
L 128.809299 124.022547 
L 129.134604 124.310266 
L 129.459909 124.204054 
L 129.785214 124.357955 
L 130.110519 124.188341 
L 131.086435 124.00729 
L 131.41174 123.906361 
L 131.737045 123.994214 
L 132.06235 123.77007 
L 132.71296 124.0059 
L 133.038266 123.96892 
L 133.363571 124.236603 
L 133.688876 123.89616 
L 134.014181 123.980762 
L 134.664791 123.84948 
L 134.990097 123.932986 
L 135.315402 124.133475 
L 135.640707 124.097376 
L 135.966012 124.178286 
L 136.291317 124.026301 
L 136.616622 124.164459 
L 137.267233 124.03666 
L 137.592538 124.058989 
L 137.917843 124.30729 
L 138.568453 124.292587 
L 138.893758 124.368903 
L 139.219064 124.832472 
L 140.520284 125.228551 
L 141.4962 125.167436 
L 142.472115 125.266496 
L 142.79742 125.071105 
L 143.122725 125.139148 
L 143.448031 125.41487 
L 143.773336 125.48069 
L 144.098641 125.700699 
L 144.423946 125.250991 
L 146.050472 125.021131 
L 146.375777 124.786445 
L 147.026387 124.57102 
L 147.676998 124.850462 
L 148.002303 124.768328 
L 148.327608 124.978999 
L 148.978218 124.815747 
L 149.628829 124.607437 
L 149.954134 124.433142 
L 150.279439 124.497545 
L 150.930049 124.248364 
L 151.58066 124.283256 
L 151.905965 124.579243 
L 153.207185 124.505097 
L 153.857796 124.672915 
L 154.833711 125.031575 
L 155.159016 124.866701 
L 155.484321 124.925294 
L 155.809627 124.762144 
L 156.134932 124.864769 
L 156.460237 124.703136 
L 157.436152 124.833331 
L 158.086763 125.593137 
L 158.412068 125.389529 
L 159.062678 125.753278 
L 159.387983 125.466553 
L 160.038594 125.404689 
L 160.363899 125.374104 
L 160.689204 125.469085 
L 161.339814 125.28371 
L 161.990424 125.471543 
L 162.96634 125.46316 
L 163.942255 126.220206 
L 164.267561 126.268278 
L 164.592866 126.156052 
L 164.918171 125.925086 
L 165.243476 125.933988 
L 165.568781 125.665875 
L 165.894086 125.715052 
L 166.219392 125.646023 
L 167.195307 125.947223 
L 167.520612 126.304522 
L 168.171222 126.165259 
L 168.496528 126.288069 
L 169.147138 125.769496 
L 169.472443 125.702623 
L 169.797748 125.333585 
L 170.448359 125.279257 
L 170.773664 125.439602 
L 171.098969 125.374943 
L 171.424274 124.789933 
L 172.400189 124.604918 
L 172.725495 124.433923 
L 173.376105 124.42352 
L 173.70141 124.218426 
L 174.026715 124.34078 
L 174.677326 124.295107 
L 175.653241 124.762567 
L 176.303851 124.785812 
L 176.629156 124.514757 
L 177.279767 124.574437 
L 178.255682 124.262682 
L 178.580987 123.998281 
L 178.906293 123.493606 
L 179.556903 123.523924 
L 179.882208 123.128052 
L 180.532818 123.09225 
L 181.183429 122.887745 
L 181.508734 122.971906 
L 182.484649 122.151828 
L 183.13526 122.155894 
L 183.460565 122.306979 
L 183.78587 122.159913 
L 184.761785 122.182222 
L 185.087091 122.396315 
L 185.412396 122.381321 
L 186.063006 122.61048 
L 186.713616 122.25786 
L 187.038921 121.633911 
L 188.014837 121.501024 
L 188.340142 121.742701 
L 188.990752 121.465004 
L 189.316058 121.358777 
L 189.641363 121.47269 
L 189.966668 121.429587 
L 190.291973 121.199591 
L 191.267889 121.53793 
L 191.593194 121.526086 
L 192.243804 121.748002 
L 192.894414 121.479356 
L 193.87033 121.475233 
L 194.195635 121.312913 
L 194.52094 121.422357 
L 195.496856 121.030589 
L 197.773992 121.16628 
L 199.400517 121.752044 
L 200.376433 121.401519 
L 200.701738 121.075873 
L 201.027043 121.12321 
L 201.352348 120.856911 
L 201.677653 120.790891 
L 202.328264 121.083972 
L 203.629484 120.821583 
L 203.95479 120.477582 
L 204.6054 120.350373 
L 205.581315 120.548006 
L 205.906621 120.567385 
L 206.231926 120.14758 
L 206.557231 119.976212 
L 206.882536 119.942225 
L 207.207841 119.663219 
L 207.533146 119.548628 
L 207.858451 119.705699 
L 208.183757 119.591559 
L 208.834367 119.607162 
L 209.159672 119.19872 
L 209.810282 119.082473 
L 210.135588 118.544903 
L 210.460893 118.435417 
L 211.111503 118.032709 
L 211.762113 117.976281 
L 213.063334 117.995503 
L 213.388639 117.941665 
L 213.713944 117.238611 
L 214.68986 117.187013 
L 215.665775 117.136123 
L 215.99108 116.931849 
L 216.641691 116.984138 
L 216.966996 116.857768 
L 217.292301 116.909293 
L 217.942911 116.683815 
L 218.593522 116.636093 
L 218.918827 116.361905 
L 220.220047 116.195894 
L 220.545353 116.322059 
L 220.870658 116.175781 
L 221.521268 116.180453 
L 222.171878 116.185084 
L 222.822489 116.067705 
L 224.123709 115.956905 
L 224.449014 115.959667 
L 224.77432 116.082813 
L 225.42493 115.871979 
L 228.352676 115.192139 
L 228.677981 114.773909 
L 229.003287 114.825914 
L 230.304507 114.404569 
L 230.629812 114.248164 
L 231.280423 114.422099 
L 231.931033 114.341701 
L 232.581643 114.193268 
L 233.232254 114.205672 
L 233.882864 114.217976 
L 234.208169 114.110763 
L 234.533474 114.207561 
L 234.858779 113.197835 
L 235.834695 112.907989 
L 236.485305 112.500649 
L 237.135915 112.430447 
L 237.461221 112.195613 
L 237.786526 111.762162 
L 238.111831 111.772985 
L 238.437136 111.629175 
L 238.762441 111.662258 
L 240.388967 111.25826 
L 241.039577 111.324968 
L 241.364882 111.249631 
L 241.690188 111.391159 
L 242.015493 111.315986 
L 242.340798 111.090086 
L 242.666103 110.714329 
L 243.316713 110.439029 
L 243.642019 110.088081 
L 244.617934 109.745703 
L 244.943239 109.866153 
L 245.59385 109.76703 
L 245.919155 109.379733 
L 247.220375 109.480537 
L 247.870986 109.321479 
L 248.196291 109.461326 
L 249.172206 109.069103 
L 250.148122 108.804935 
L 250.473427 108.429373 
L 251.449342 108.436748 
L 251.774647 108.0646 
L 252.099953 108.20368 
L 253.075868 108.191931 
L 254.377089 107.632734 
L 255.027699 107.566834 
L 257.304835 107.627209 
L 257.63014 107.208979 
L 257.955445 107.127931 
L 258.280751 106.475501 
L 258.606056 106.396027 
L 259.256666 105.786905 
L 259.907276 105.592388 
L 260.232582 105.300572 
L 260.883192 105.40034 
L 261.859107 105.384326 
L 262.184412 105.520593 
L 265.112159 105.110342 
L 265.762769 105.075603 
L 266.413379 104.814519 
L 267.06399 104.76219 
L 267.7146 104.091294 
L 268.039905 104.150727 
L 269.015821 103.824822 
L 269.341126 103.456518 
L 269.666431 103.460806 
L 269.991736 103.1314 
L 270.967652 102.850646 
L 271.943567 102.792919 
L 272.268872 102.450055 
L 272.594177 102.455924 
L 273.244788 101.628757 
L 273.570093 101.617727 
L 273.895398 101.443142 
L 274.220703 101.432449 
L 274.871314 100.995129 
L 275.196619 101.003269 
L 275.521924 101.137594 
L 275.847229 100.87546 
L 276.497839 100.874075 
L 276.823144 100.72111 
L 277.79906 100.67521 
L 278.124365 100.381126 
L 279.100281 100.14225 
L 279.750891 99.931273 
L 280.401501 99.968094 
L 280.726806 98.905409 
L 281.052111 98.705997 
L 281.377417 98.717477 
L 281.702722 98.379022 
L 282.028027 98.216299 
L 282.353332 98.193607 
L 283.654553 97.323581 
L 284.955773 97.01549 
L 285.281079 96.564972 
L 286.582299 96.041639 
L 287.232909 96.037996 
L 288.859435 95.62306 
L 289.18474 95.672551 
L 289.510046 95.199151 
L 291.136571 94.376411 
L 291.461876 94.360398 
L 292.112487 93.778675 
L 292.437792 93.863445 
L 292.763097 93.100729 
L 293.739013 93.108458 
L 294.389623 92.998143 
L 294.714928 92.737405 
L 296.016149 92.438708 
L 296.341454 92.393184 
L 296.992064 92.155851 
L 297.96798 92.021498 
L 298.293285 91.539472 
L 298.61859 91.398625 
L 299.2692 90.747076 
L 299.919811 90.662327 
L 300.245116 90.347043 
L 300.895726 90.263803 
L 301.221031 90.078403 
L 301.871641 89.996284 
L 302.847557 89.286347 
L 304.148778 89.017652 
L 306.100608 88.39318 
L 307.076524 88.420138 
L 307.401829 88.615946 
L 308.70305 88.51103 
L 310.00427 88.284057 
L 311.630796 88.221799 
L 312.606712 87.578549 
L 313.582627 87.198449 
L 313.907932 87.072435 
L 314.883848 86.99823 
L 315.209153 86.797815 
L 315.859763 86.759302 
L 316.835679 85.998376 
L 317.486289 85.917463 
L 317.811594 85.646077 
L 318.136899 85.19674 
L 318.78751 85.118383 
L 319.112815 84.62704 
L 319.43812 84.344344 
L 320.08873 84.224336 
L 320.414035 84.046553 
L 320.73934 84.001831 
L 321.064646 83.751241 
L 321.715256 83.648248 
L 322.040561 83.223239 
L 322.691171 83.107411 
L 323.016477 82.801555 
L 323.992392 82.892101 
L 324.317697 82.210528 
L 324.643002 82.096361 
L 324.968308 81.750733 
L 326.269528 81.601988 
L 326.920138 81.736601 
L 327.245444 81.509374 
L 327.570749 81.583795 
L 328.221359 80.845476 
L 328.546664 80.849051 
L 329.197275 80.485796 
L 329.847885 80.408568 
L 330.8238 80.222682 
L 331.149105 79.703925 
L 332.125021 79.648389 
L 332.450326 79.442419 
L 333.751547 79.239513 
L 334.076852 78.811683 
L 335.378073 78.599262 
L 335.703378 78.369365 
L 336.353988 78.327002 
L 336.679293 77.932212 
L 337.004598 78.022208 
L 337.329903 77.780634 
L 337.655209 77.760282 
L 337.980514 77.368131 
L 338.631124 77.177466 
L 339.281734 77.302945 
L 339.932345 76.949315 
L 341.233565 76.723382 
L 341.55887 75.889309 
L 342.209481 75.74543 
L 342.534786 75.430049 
L 342.860091 75.426452 
L 343.185396 75.13923 
L 343.510701 75.149481 
L 343.836007 74.9576 
L 345.137227 74.784683 
L 345.462532 74.594386 
L 345.787837 74.725599 
L 346.438448 74.466615 
L 347.414363 74.499329 
L 347.739668 74.24454 
L 348.064974 74.229149 
L 348.390279 73.922281 
L 348.715584 73.880837 
L 350.016805 73.123268 
L 350.34211 72.254102 
L 350.667415 72.175483 
L 350.99272 71.952658 
L 351.318025 71.192805 
L 351.968635 70.99954 
L 352.619246 70.872426 
L 352.944551 70.691779 
L 353.269856 70.355317 
L 354.245772 70.206913 
L 354.571077 70.002163 
L 355.221687 69.891456 
L 355.872297 69.47167 
L 356.522908 69.362691 
L 356.848213 69.186266 
L 357.173518 69.202851 
L 357.498823 68.962885 
L 357.824128 68.416005 
L 358.149433 68.16469 
L 358.474739 68.118457 
L 358.800044 67.944657 
L 359.450654 66.604674 
L 360.101264 66.528982 
L 360.42657 65.126578 
L 360.751875 64.526214 
L 361.07718 64.345189 
L 361.72779 64.24975 
L 362.053095 63.8803 
L 362.3784 63.839517 
L 362.703706 63.622497 
L 363.029011 63.607256 
L 363.354316 63.416118 
L 363.679621 63.451352 
L 364.004926 63.248278 
L 364.330231 62.832743 
L 364.655537 62.605793 
L 365.306147 62.540368 
L 365.956757 62.599782 
L 366.607367 62.571942 
L 367.257978 62.581424 
L 369.209809 62.313995 
L 370.511029 62.00276 
L 370.836334 61.756936 
L 371.486945 61.743615 
L 371.81225 61.694241 
L 372.46286 61.766387 
L 372.788165 61.546763 
L 373.113471 61.011528 
L 373.764081 59.39865 
L 374.089386 59.206775 
L 374.739996 59.22329 
L 375.065302 58.838969 
L 375.390607 58.817441 
L 375.715912 58.663382 
L 376.041217 58.798603 
L 376.691827 57.482364 
L 377.342438 57.418514 
L 377.667743 57.530394 
L 377.993048 57.295125 
L 378.318353 57.371048 
L 378.968963 56.973899 
L 379.294269 57.03801 
L 379.619574 55.995395 
L 380.270184 55.935308 
L 380.595489 55.940943 
L 380.920794 55.828081 
L 381.571405 55.201077 
L 381.89671 54.735024 
L 382.872625 54.425927 
L 383.19793 53.915602 
L 384.499151 53.138173 
L 384.824456 53.064755 
L 385.149761 53.155118 
L 385.475066 52.486385 
L 386.125677 52.376471 
L 386.776287 52.336774 
L 387.426897 52.401669 
L 388.402813 52.03583 
L 389.053423 52.031752 
L 389.378728 51.706846 
L 389.704034 51.612994 
L 390.354644 51.172966 
L 391.005254 51.159208 
L 391.330559 51.192462 
L 391.98117 50.709792 
L 392.306475 50.080736 
L 392.63178 50.114953 
L 392.957085 49.943865 
L 393.28239 49.12387 
L 393.607695 49.147577 
L 395.234221 47.623801 
L 395.559526 47.626259 
L 395.884831 47.188073 
L 397.186052 46.715728 
L 397.511357 46.291897 
L 398.487273 46.146295 
L 398.487273 46.146295 
" clip-path="url(#p703c225146)" style="fill: none; stroke: #d62728; stroke-width: 1.5; stroke-linecap: square"/>
   </g>
   <g id="patch_3">
    <path d="M 57.6 307.584 
L 57.6 41.472 
" style="fill: none; stroke: #ffffff; stroke-linejoin: miter; stroke-linecap: square"/>
   </g>
   <g id="patch_4">
    <path d="M 414.72 307.584 
L 414.72 41.472 
" style="fill: none; stroke: #ffffff; stroke-linejoin: miter; stroke-linecap: square"/>
   </g>
   <g id="patch_5">
    <path d="M 57.6 307.584 
L 414.72 307.584 
" style="fill: none; stroke: #ffffff; stroke-linejoin: miter; stroke-linecap: square"/>
   </g>
   <g id="patch_6">
    <path d="M 57.6 41.472 
L 414.72 41.472 
" style="fill: none; stroke: #ffffff; stroke-linejoin: miter; stroke-linecap: square"/>
   </g>
   <g id="text_14">
    <!-- 23.34934934934935 -->
    <g transform="translate(398.487273 46.146295) scale(0.1 -0.1)">
     <defs>
      <path id="DejaVuSans-33" d="M 2597 2516 
Q 3050 2419 3304 2112 
Q 3559 1806 3559 1356 
Q 3559 666 3084 287 
Q 2609 -91 1734 -91 
Q 1441 -91 1130 -33 
Q 819 25 488 141 
L 488 750 
Q 750 597 1062 519 
Q 1375 441 1716 441 
Q 2309 441 2620 675 
Q 2931 909 2931 1356 
Q 2931 1769 2642 2001 
Q 2353 2234 1838 2234 
L 1294 2234 
L 1294 2753 
L 1863 2753 
Q 2328 2753 2575 2939 
Q 2822 3125 2822 3475 
Q 2822 3834 2567 4026 
Q 2313 4219 1838 4219 
Q 1578 4219 1281 4162 
Q 984 4106 628 3988 
L 628 4550 
Q 988 4650 1302 4700 
Q 1616 4750 1894 4750 
Q 2613 4750 3031 4423 
Q 3450 4097 3450 3541 
Q 3450 3153 3228 2886 
Q 3006 2619 2597 2516 
z
" transform="scale(0.015625)"/>
      <path id="DejaVuSans-2e" d="M 684 794 
L 1344 794 
L 1344 0 
L 684 0 
L 684 794 
z
" transform="scale(0.015625)"/>
      <path id="DejaVuSans-39" d="M 703 97 
L 703 672 
Q 941 559 1184 500 
Q 1428 441 1663 441 
Q 2288 441 2617 861 
Q 2947 1281 2994 2138 
Q 2813 1869 2534 1725 
Q 2256 1581 1919 1581 
Q 1219 1581 811 2004 
Q 403 2428 403 3163 
Q 403 3881 828 4315 
Q 1253 4750 1959 4750 
Q 2769 4750 3195 4129 
Q 3622 3509 3622 2328 
Q 3622 1225 3098 567 
Q 2575 -91 1691 -91 
Q 1453 -91 1209 -44 
Q 966 3 703 97 
z
M 1959 2075 
Q 2384 2075 2632 2365 
Q 2881 2656 2881 3163 
Q 2881 3666 2632 3958 
Q 2384 4250 1959 4250 
Q 1534 4250 1286 3958 
Q 1038 3666 1038 3163 
Q 1038 2656 1286 2365 
Q 1534 2075 1959 2075 
z
" transform="scale(0.015625)"/>
     </defs>
     <use xlink:href="#DejaVuSans-32"/>
     <use xlink:href="#DejaVuSans-33" x="63.623047"/>
     <use xlink:href="#DejaVuSans-2e" x="127.246094"/>
     <use xlink:href="#DejaVuSans-33" x="159.033203"/>
     <use xlink:href="#DejaVuSans-34" x="222.65625"/>
     <use xlink:href="#DejaVuSans-39" x="286.279297"/>
     <use xlink:href="#DejaVuSans-33" x="349.902344"/>
     <use xlink:href="#DejaVuSans-34" x="413.525391"/>
     <use xlink:href="#DejaVuSans-39" x="477.148438"/>
     <use xlink:href="#DejaVuSans-33" x="540.771484"/>
     <use xlink:href="#DejaVuSans-34" x="604.394531"/>
     <use xlink:href="#DejaVuSans-39" x="668.017578"/>
     <use xlink:href="#DejaVuSans-33" x="731.640625"/>
     <use xlink:href="#DejaVuSans-34" x="795.263672"/>
     <use xlink:href="#DejaVuSans-39" x="858.886719"/>
     <use xlink:href="#DejaVuSans-33" x="922.509766"/>
     <use xlink:href="#DejaVuSans-35" x="986.132812"/>
    </g>
   </g>
   <g id="text_15">
    <!-- Epoch: 1000 -->
    <g transform="translate(191.0745 35.472) scale(0.144 -0.144)">
     <defs>
      <path id="DejaVuSans-45" d="M 628 4666 
L 3578 4666 
L 3578 4134 
L 1259 4134 
L 1259 2753 
L 3481 2753 
L 3481 2222 
L 1259 2222 
L 1259 531 
L 3634 531 
L 3634 0 
L 628 0 
L 628 4666 
z
" transform="scale(0.015625)"/>
      <path id="DejaVuSans-70" d="M 1159 525 
L 1159 -1331 
L 581 -1331 
L 581 3500 
L 1159 3500 
L 1159 2969 
Q 1341 3281 1617 3432 
Q 1894 3584 2278 3584 
Q 2916 3584 3314 3078 
Q 3713 2572 3713 1747 
Q 3713 922 3314 415 
Q 2916 -91 2278 -91 
Q 1894 -91 1617 61 
Q 1341 213 1159 525 
z
M 3116 1747 
Q 3116 2381 2855 2742 
Q 2594 3103 2138 3103 
Q 1681 3103 1420 2742 
Q 1159 2381 1159 1747 
Q 1159 1113 1420 752 
Q 1681 391 2138 391 
Q 2594 391 2855 752 
Q 3116 1113 3116 1747 
z
" transform="scale(0.015625)"/>
      <path id="DejaVuSans-63" d="M 3122 3366 
L 3122 2828 
Q 2878 2963 2633 3030 
Q 2388 3097 2138 3097 
Q 1578 3097 1268 2742 
Q 959 2388 959 1747 
Q 959 1106 1268 751 
Q 1578 397 2138 397 
Q 2388 397 2633 464 
Q 2878 531 3122 666 
L 3122 134 
Q 2881 22 2623 -34 
Q 2366 -91 2075 -91 
Q 1284 -91 818 406 
Q 353 903 353 1747 
Q 353 2603 823 3093 
Q 1294 3584 2113 3584 
Q 2378 3584 2631 3529 
Q 2884 3475 3122 3366 
z
" transform="scale(0.015625)"/>
      <path id="DejaVuSans-68" d="M 3513 2113 
L 3513 0 
L 2938 0 
L 2938 2094 
Q 2938 2591 2744 2837 
Q 2550 3084 2163 3084 
Q 1697 3084 1428 2787 
Q 1159 2491 1159 1978 
L 1159 0 
L 581 0 
L 581 4863 
L 1159 4863 
L 1159 2956 
Q 1366 3272 1645 3428 
Q 1925 3584 2291 3584 
Q 2894 3584 3203 3211 
Q 3513 2838 3513 2113 
z
" transform="scale(0.015625)"/>
      <path id="DejaVuSans-3a" d="M 750 794 
L 1409 794 
L 1409 0 
L 750 0 
L 750 794 
z
M 750 3309 
L 1409 3309 
L 1409 2516 
L 750 2516 
L 750 3309 
z
" transform="scale(0.015625)"/>
     </defs>
     <use xlink:href="#DejaVuSans-45"/>
     <use xlink:href="#DejaVuSans-70" x="63.183594"/>
     <use xlink:href="#DejaVuSans-6f" x="126.660156"/>
     <use xlink:href="#DejaVuSans-63" x="187.841797"/>
     <use xlink:href="#DejaVuSans-68" x="242.822266"/>
     <use xlink:href="#DejaVuSans-3a" x="306.201172"/>
     <use xlink:href="#DejaVuSans-20" x="339.892578"/>
     <use xlink:href="#DejaVuSans-31" x="371.679688"/>
     <use xlink:href="#DejaVuSans-30" x="435.302734"/>
     <use xlink:href="#DejaVuSans-30" x="498.925781"/>
     <use xlink:href="#DejaVuSans-30" x="562.548828"/>
    </g>
   </g>
  </g>
 </g>
 <defs>
  <clipPath id="p703c225146">
   <rect x="57.6" y="41.472" width="357.12" height="266.112"/>
  </clipPath>
 </defs>
</svg>
