<?xml version="1.0" encoding="utf-8" standalone="no"?>
<!DOCTYPE svg PUBLIC "-//W3C//DTD SVG 1.1//EN"
  "http://www.w3.org/Graphics/SVG/1.1/DTD/svg11.dtd">
<svg xmlns:xlink="http://www.w3.org/1999/xlink" width="460.8pt" height="345.6pt" viewBox="0 0 460.8 345.6" xmlns="http://www.w3.org/2000/svg" version="1.1">
 <metadata>
  <rdf:RDF xmlns:dc="http://purl.org/dc/elements/1.1/" xmlns:cc="http://creativecommons.org/ns#" xmlns:rdf="http://www.w3.org/1999/02/22-rdf-syntax-ns#">
   <cc:Work>
    <dc:type rdf:resource="http://purl.org/dc/dcmitype/StillImage"/>
    <dc:date>2024-09-04T20:00:45.118130</dc:date>
    <dc:format>image/svg+xml</dc:format>
    <dc:creator>
     <cc:Agent>
      <dc:title>Matplotlib v3.8.4, https://matplotlib.org/</dc:title>
     </cc:Agent>
    </dc:creator>
   </cc:Work>
  </rdf:RDF>
 </metadata>
 <defs>
  <style type="text/css">*{stroke-linejoin: round; stroke-linecap: butt}</style>
 </defs>
 <g id="figure_1">
  <g id="patch_1">
   <path d="M 0 345.6 
L 460.8 345.6 
L 460.8 0 
L 0 0 
z
" style="fill: #ffffff"/>
  </g>
  <g id="axes_1">
   <g id="patch_2">
    <path d="M 57.6 307.584 
L 414.72 307.584 
L 414.72 41.472 
L 57.6 41.472 
z
" style="fill: #e5e5e5"/>
   </g>
   <g id="matplotlib.axis_1">
    <g id="xtick_1">
     <g id="line2d_1">
      <path d="M 73.832727 307.584 
L 73.832727 41.472 
" clip-path="url(#p79543d5ee5)" style="fill: none; stroke: #ffffff; stroke-width: 0.8; stroke-linecap: square"/>
     </g>
     <g id="line2d_2">
      <defs>
       <path id="m90bcc1dd4d" d="M 0 0 
L 0 3.5 
" style="stroke: #555555; stroke-width: 0.8"/>
      </defs>
      <g>
       <use xlink:href="#m90bcc1dd4d" x="73.832727" y="307.584" style="fill: #555555; stroke: #555555; stroke-width: 0.8"/>
      </g>
     </g>
     <g id="text_1">
      <!-- 0 -->
      <g style="fill: #555555" transform="translate(70.651477 322.182437) scale(0.1 -0.1)">
       <defs>
        <path id="DejaVuSans-30" d="M 2034 4250 
Q 1547 4250 1301 3770 
Q 1056 3291 1056 2328 
Q 1056 1369 1301 889 
Q 1547 409 2034 409 
Q 2525 409 2770 889 
Q 3016 1369 3016 2328 
Q 3016 3291 2770 3770 
Q 2525 4250 2034 4250 
z
M 2034 4750 
Q 2819 4750 3233 4129 
Q 3647 3509 3647 2328 
Q 3647 1150 3233 529 
Q 2819 -91 2034 -91 
Q 1250 -91 836 529 
Q 422 1150 422 2328 
Q 422 3509 836 4129 
Q 1250 4750 2034 4750 
z
" transform="scale(0.015625)"/>
       </defs>
       <use xlink:href="#DejaVuSans-30"/>
      </g>
     </g>
    </g>
    <g id="xtick_2">
     <g id="line2d_3">
      <path d="M 127.959861 307.584 
L 127.959861 41.472 
" clip-path="url(#p79543d5ee5)" style="fill: none; stroke: #ffffff; stroke-width: 0.8; stroke-linecap: square"/>
     </g>
     <g id="line2d_4">
      <g>
       <use xlink:href="#m90bcc1dd4d" x="127.959861" y="307.584" style="fill: #555555; stroke: #555555; stroke-width: 0.8"/>
      </g>
     </g>
     <g id="text_2">
      <!-- 1000 -->
      <g style="fill: #555555" transform="translate(115.234861 322.182437) scale(0.1 -0.1)">
       <defs>
        <path id="DejaVuSans-31" d="M 794 531 
L 1825 531 
L 1825 4091 
L 703 3866 
L 703 4441 
L 1819 4666 
L 2450 4666 
L 2450 531 
L 3481 531 
L 3481 0 
L 794 0 
L 794 531 
z
" transform="scale(0.015625)"/>
       </defs>
       <use xlink:href="#DejaVuSans-31"/>
       <use xlink:href="#DejaVuSans-30" x="63.623047"/>
       <use xlink:href="#DejaVuSans-30" x="127.246094"/>
       <use xlink:href="#DejaVuSans-30" x="190.869141"/>
      </g>
     </g>
    </g>
    <g id="xtick_3">
     <g id="line2d_5">
      <path d="M 182.086994 307.584 
L 182.086994 41.472 
" clip-path="url(#p79543d5ee5)" style="fill: none; stroke: #ffffff; stroke-width: 0.8; stroke-linecap: square"/>
     </g>
     <g id="line2d_6">
      <g>
       <use xlink:href="#m90bcc1dd4d" x="182.086994" y="307.584" style="fill: #555555; stroke: #555555; stroke-width: 0.8"/>
      </g>
     </g>
     <g id="text_3">
      <!-- 2000 -->
      <g style="fill: #555555" transform="translate(169.361994 322.182437) scale(0.1 -0.1)">
       <defs>
        <path id="DejaVuSans-32" d="M 1228 531 
L 3431 531 
L 3431 0 
L 469 0 
L 469 531 
Q 828 903 1448 1529 
Q 2069 2156 2228 2338 
Q 2531 2678 2651 2914 
Q 2772 3150 2772 3378 
Q 2772 3750 2511 3984 
Q 2250 4219 1831 4219 
Q 1534 4219 1204 4116 
Q 875 4013 500 3803 
L 500 4441 
Q 881 4594 1212 4672 
Q 1544 4750 1819 4750 
Q 2544 4750 2975 4387 
Q 3406 4025 3406 3419 
Q 3406 3131 3298 2873 
Q 3191 2616 2906 2266 
Q 2828 2175 2409 1742 
Q 1991 1309 1228 531 
z
" transform="scale(0.015625)"/>
       </defs>
       <use xlink:href="#DejaVuSans-32"/>
       <use xlink:href="#DejaVuSans-30" x="63.623047"/>
       <use xlink:href="#DejaVuSans-30" x="127.246094"/>
       <use xlink:href="#DejaVuSans-30" x="190.869141"/>
      </g>
     </g>
    </g>
    <g id="xtick_4">
     <g id="line2d_7">
      <path d="M 236.214127 307.584 
L 236.214127 41.472 
" clip-path="url(#p79543d5ee5)" style="fill: none; stroke: #ffffff; stroke-width: 0.8; stroke-linecap: square"/>
     </g>
     <g id="line2d_8">
      <g>
       <use xlink:href="#m90bcc1dd4d" x="236.214127" y="307.584" style="fill: #555555; stroke: #555555; stroke-width: 0.8"/>
      </g>
     </g>
     <g id="text_4">
      <!-- 3000 -->
      <g style="fill: #555555" transform="translate(223.489127 322.182437) scale(0.1 -0.1)">
       <defs>
        <path id="DejaVuSans-33" d="M 2597 2516 
Q 3050 2419 3304 2112 
Q 3559 1806 3559 1356 
Q 3559 666 3084 287 
Q 2609 -91 1734 -91 
Q 1441 -91 1130 -33 
Q 819 25 488 141 
L 488 750 
Q 750 597 1062 519 
Q 1375 441 1716 441 
Q 2309 441 2620 675 
Q 2931 909 2931 1356 
Q 2931 1769 2642 2001 
Q 2353 2234 1838 2234 
L 1294 2234 
L 1294 2753 
L 1863 2753 
Q 2328 2753 2575 2939 
Q 2822 3125 2822 3475 
Q 2822 3834 2567 4026 
Q 2313 4219 1838 4219 
Q 1578 4219 1281 4162 
Q 984 4106 628 3988 
L 628 4550 
Q 988 4650 1302 4700 
Q 1616 4750 1894 4750 
Q 2613 4750 3031 4423 
Q 3450 4097 3450 3541 
Q 3450 3153 3228 2886 
Q 3006 2619 2597 2516 
z
" transform="scale(0.015625)"/>
       </defs>
       <use xlink:href="#DejaVuSans-33"/>
       <use xlink:href="#DejaVuSans-30" x="63.623047"/>
       <use xlink:href="#DejaVuSans-30" x="127.246094"/>
       <use xlink:href="#DejaVuSans-30" x="190.869141"/>
      </g>
     </g>
    </g>
    <g id="xtick_5">
     <g id="line2d_9">
      <path d="M 290.34126 307.584 
L 290.34126 41.472 
" clip-path="url(#p79543d5ee5)" style="fill: none; stroke: #ffffff; stroke-width: 0.8; stroke-linecap: square"/>
     </g>
     <g id="line2d_10">
      <g>
       <use xlink:href="#m90bcc1dd4d" x="290.34126" y="307.584" style="fill: #555555; stroke: #555555; stroke-width: 0.8"/>
      </g>
     </g>
     <g id="text_5">
      <!-- 4000 -->
      <g style="fill: #555555" transform="translate(277.61626 322.182437) scale(0.1 -0.1)">
       <defs>
        <path id="DejaVuSans-34" d="M 2419 4116 
L 825 1625 
L 2419 1625 
L 2419 4116 
z
M 2253 4666 
L 3047 4666 
L 3047 1625 
L 3713 1625 
L 3713 1100 
L 3047 1100 
L 3047 0 
L 2419 0 
L 2419 1100 
L 313 1100 
L 313 1709 
L 2253 4666 
z
" transform="scale(0.015625)"/>
       </defs>
       <use xlink:href="#DejaVuSans-34"/>
       <use xlink:href="#DejaVuSans-30" x="63.623047"/>
       <use xlink:href="#DejaVuSans-30" x="127.246094"/>
       <use xlink:href="#DejaVuSans-30" x="190.869141"/>
      </g>
     </g>
    </g>
    <g id="xtick_6">
     <g id="line2d_11">
      <path d="M 344.468394 307.584 
L 344.468394 41.472 
" clip-path="url(#p79543d5ee5)" style="fill: none; stroke: #ffffff; stroke-width: 0.8; stroke-linecap: square"/>
     </g>
     <g id="line2d_12">
      <g>
       <use xlink:href="#m90bcc1dd4d" x="344.468394" y="307.584" style="fill: #555555; stroke: #555555; stroke-width: 0.8"/>
      </g>
     </g>
     <g id="text_6">
      <!-- 5000 -->
      <g style="fill: #555555" transform="translate(331.743394 322.182437) scale(0.1 -0.1)">
       <defs>
        <path id="DejaVuSans-35" d="M 691 4666 
L 3169 4666 
L 3169 4134 
L 1269 4134 
L 1269 2991 
Q 1406 3038 1543 3061 
Q 1681 3084 1819 3084 
Q 2600 3084 3056 2656 
Q 3513 2228 3513 1497 
Q 3513 744 3044 326 
Q 2575 -91 1722 -91 
Q 1428 -91 1123 -41 
Q 819 9 494 109 
L 494 744 
Q 775 591 1075 516 
Q 1375 441 1709 441 
Q 2250 441 2565 725 
Q 2881 1009 2881 1497 
Q 2881 1984 2565 2268 
Q 2250 2553 1709 2553 
Q 1456 2553 1204 2497 
Q 953 2441 691 2322 
L 691 4666 
z
" transform="scale(0.015625)"/>
       </defs>
       <use xlink:href="#DejaVuSans-35"/>
       <use xlink:href="#DejaVuSans-30" x="63.623047"/>
       <use xlink:href="#DejaVuSans-30" x="127.246094"/>
       <use xlink:href="#DejaVuSans-30" x="190.869141"/>
      </g>
     </g>
    </g>
    <g id="xtick_7">
     <g id="line2d_13">
      <path d="M 398.595527 307.584 
L 398.595527 41.472 
" clip-path="url(#p79543d5ee5)" style="fill: none; stroke: #ffffff; stroke-width: 0.8; stroke-linecap: square"/>
     </g>
     <g id="line2d_14">
      <g>
       <use xlink:href="#m90bcc1dd4d" x="398.595527" y="307.584" style="fill: #555555; stroke: #555555; stroke-width: 0.8"/>
      </g>
     </g>
     <g id="text_7">
      <!-- 6000 -->
      <g style="fill: #555555" transform="translate(385.870527 322.182437) scale(0.1 -0.1)">
       <defs>
        <path id="DejaVuSans-36" d="M 2113 2584 
Q 1688 2584 1439 2293 
Q 1191 2003 1191 1497 
Q 1191 994 1439 701 
Q 1688 409 2113 409 
Q 2538 409 2786 701 
Q 3034 994 3034 1497 
Q 3034 2003 2786 2293 
Q 2538 2584 2113 2584 
z
M 3366 4563 
L 3366 3988 
Q 3128 4100 2886 4159 
Q 2644 4219 2406 4219 
Q 1781 4219 1451 3797 
Q 1122 3375 1075 2522 
Q 1259 2794 1537 2939 
Q 1816 3084 2150 3084 
Q 2853 3084 3261 2657 
Q 3669 2231 3669 1497 
Q 3669 778 3244 343 
Q 2819 -91 2113 -91 
Q 1303 -91 875 529 
Q 447 1150 447 2328 
Q 447 3434 972 4092 
Q 1497 4750 2381 4750 
Q 2619 4750 2861 4703 
Q 3103 4656 3366 4563 
z
" transform="scale(0.015625)"/>
       </defs>
       <use xlink:href="#DejaVuSans-36"/>
       <use xlink:href="#DejaVuSans-30" x="63.623047"/>
       <use xlink:href="#DejaVuSans-30" x="127.246094"/>
       <use xlink:href="#DejaVuSans-30" x="190.869141"/>
      </g>
     </g>
    </g>
    <g id="text_8">
     <!-- Number of Games -->
     <g style="fill: #555555" transform="translate(181.471875 337.38025) scale(0.12 -0.12)">
      <defs>
       <path id="DejaVuSans-4e" d="M 628 4666 
L 1478 4666 
L 3547 763 
L 3547 4666 
L 4159 4666 
L 4159 0 
L 3309 0 
L 1241 3903 
L 1241 0 
L 628 0 
L 628 4666 
z
" transform="scale(0.015625)"/>
       <path id="DejaVuSans-75" d="M 544 1381 
L 544 3500 
L 1119 3500 
L 1119 1403 
Q 1119 906 1312 657 
Q 1506 409 1894 409 
Q 2359 409 2629 706 
Q 2900 1003 2900 1516 
L 2900 3500 
L 3475 3500 
L 3475 0 
L 2900 0 
L 2900 538 
Q 2691 219 2414 64 
Q 2138 -91 1772 -91 
Q 1169 -91 856 284 
Q 544 659 544 1381 
z
M 1991 3584 
L 1991 3584 
z
" transform="scale(0.015625)"/>
       <path id="DejaVuSans-6d" d="M 3328 2828 
Q 3544 3216 3844 3400 
Q 4144 3584 4550 3584 
Q 5097 3584 5394 3201 
Q 5691 2819 5691 2113 
L 5691 0 
L 5113 0 
L 5113 2094 
Q 5113 2597 4934 2840 
Q 4756 3084 4391 3084 
Q 3944 3084 3684 2787 
Q 3425 2491 3425 1978 
L 3425 0 
L 2847 0 
L 2847 2094 
Q 2847 2600 2669 2842 
Q 2491 3084 2119 3084 
Q 1678 3084 1418 2786 
Q 1159 2488 1159 1978 
L 1159 0 
L 581 0 
L 581 3500 
L 1159 3500 
L 1159 2956 
Q 1356 3278 1631 3431 
Q 1906 3584 2284 3584 
Q 2666 3584 2933 3390 
Q 3200 3197 3328 2828 
z
" transform="scale(0.015625)"/>
       <path id="DejaVuSans-62" d="M 3116 1747 
Q 3116 2381 2855 2742 
Q 2594 3103 2138 3103 
Q 1681 3103 1420 2742 
Q 1159 2381 1159 1747 
Q 1159 1113 1420 752 
Q 1681 391 2138 391 
Q 2594 391 2855 752 
Q 3116 1113 3116 1747 
z
M 1159 2969 
Q 1341 3281 1617 3432 
Q 1894 3584 2278 3584 
Q 2916 3584 3314 3078 
Q 3713 2572 3713 1747 
Q 3713 922 3314 415 
Q 2916 -91 2278 -91 
Q 1894 -91 1617 61 
Q 1341 213 1159 525 
L 1159 0 
L 581 0 
L 581 4863 
L 1159 4863 
L 1159 2969 
z
" transform="scale(0.015625)"/>
       <path id="DejaVuSans-65" d="M 3597 1894 
L 3597 1613 
L 953 1613 
Q 991 1019 1311 708 
Q 1631 397 2203 397 
Q 2534 397 2845 478 
Q 3156 559 3463 722 
L 3463 178 
Q 3153 47 2828 -22 
Q 2503 -91 2169 -91 
Q 1331 -91 842 396 
Q 353 884 353 1716 
Q 353 2575 817 3079 
Q 1281 3584 2069 3584 
Q 2775 3584 3186 3129 
Q 3597 2675 3597 1894 
z
M 3022 2063 
Q 3016 2534 2758 2815 
Q 2500 3097 2075 3097 
Q 1594 3097 1305 2825 
Q 1016 2553 972 2059 
L 3022 2063 
z
" transform="scale(0.015625)"/>
       <path id="DejaVuSans-72" d="M 2631 2963 
Q 2534 3019 2420 3045 
Q 2306 3072 2169 3072 
Q 1681 3072 1420 2755 
Q 1159 2438 1159 1844 
L 1159 0 
L 581 0 
L 581 3500 
L 1159 3500 
L 1159 2956 
Q 1341 3275 1631 3429 
Q 1922 3584 2338 3584 
Q 2397 3584 2469 3576 
Q 2541 3569 2628 3553 
L 2631 2963 
z
" transform="scale(0.015625)"/>
       <path id="DejaVuSans-20" transform="scale(0.015625)"/>
       <path id="DejaVuSans-6f" d="M 1959 3097 
Q 1497 3097 1228 2736 
Q 959 2375 959 1747 
Q 959 1119 1226 758 
Q 1494 397 1959 397 
Q 2419 397 2687 759 
Q 2956 1122 2956 1747 
Q 2956 2369 2687 2733 
Q 2419 3097 1959 3097 
z
M 1959 3584 
Q 2709 3584 3137 3096 
Q 3566 2609 3566 1747 
Q 3566 888 3137 398 
Q 2709 -91 1959 -91 
Q 1206 -91 779 398 
Q 353 888 353 1747 
Q 353 2609 779 3096 
Q 1206 3584 1959 3584 
z
" transform="scale(0.015625)"/>
       <path id="DejaVuSans-66" d="M 2375 4863 
L 2375 4384 
L 1825 4384 
Q 1516 4384 1395 4259 
Q 1275 4134 1275 3809 
L 1275 3500 
L 2222 3500 
L 2222 3053 
L 1275 3053 
L 1275 0 
L 697 0 
L 697 3053 
L 147 3053 
L 147 3500 
L 697 3500 
L 697 3744 
Q 697 4328 969 4595 
Q 1241 4863 1831 4863 
L 2375 4863 
z
" transform="scale(0.015625)"/>
       <path id="DejaVuSans-47" d="M 3809 666 
L 3809 1919 
L 2778 1919 
L 2778 2438 
L 4434 2438 
L 4434 434 
Q 4069 175 3628 42 
Q 3188 -91 2688 -91 
Q 1594 -91 976 548 
Q 359 1188 359 2328 
Q 359 3472 976 4111 
Q 1594 4750 2688 4750 
Q 3144 4750 3555 4637 
Q 3966 4525 4313 4306 
L 4313 3634 
Q 3963 3931 3569 4081 
Q 3175 4231 2741 4231 
Q 1884 4231 1454 3753 
Q 1025 3275 1025 2328 
Q 1025 1384 1454 906 
Q 1884 428 2741 428 
Q 3075 428 3337 486 
Q 3600 544 3809 666 
z
" transform="scale(0.015625)"/>
       <path id="DejaVuSans-61" d="M 2194 1759 
Q 1497 1759 1228 1600 
Q 959 1441 959 1056 
Q 959 750 1161 570 
Q 1363 391 1709 391 
Q 2188 391 2477 730 
Q 2766 1069 2766 1631 
L 2766 1759 
L 2194 1759 
z
M 3341 1997 
L 3341 0 
L 2766 0 
L 2766 531 
Q 2569 213 2275 61 
Q 1981 -91 1556 -91 
Q 1019 -91 701 211 
Q 384 513 384 1019 
Q 384 1609 779 1909 
Q 1175 2209 1959 2209 
L 2766 2209 
L 2766 2266 
Q 2766 2663 2505 2880 
Q 2244 3097 1772 3097 
Q 1472 3097 1187 3025 
Q 903 2953 641 2809 
L 641 3341 
Q 956 3463 1253 3523 
Q 1550 3584 1831 3584 
Q 2591 3584 2966 3190 
Q 3341 2797 3341 1997 
z
" transform="scale(0.015625)"/>
       <path id="DejaVuSans-73" d="M 2834 3397 
L 2834 2853 
Q 2591 2978 2328 3040 
Q 2066 3103 1784 3103 
Q 1356 3103 1142 2972 
Q 928 2841 928 2578 
Q 928 2378 1081 2264 
Q 1234 2150 1697 2047 
L 1894 2003 
Q 2506 1872 2764 1633 
Q 3022 1394 3022 966 
Q 3022 478 2636 193 
Q 2250 -91 1575 -91 
Q 1294 -91 989 -36 
Q 684 19 347 128 
L 347 722 
Q 666 556 975 473 
Q 1284 391 1588 391 
Q 1994 391 2212 530 
Q 2431 669 2431 922 
Q 2431 1156 2273 1281 
Q 2116 1406 1581 1522 
L 1381 1569 
Q 847 1681 609 1914 
Q 372 2147 372 2553 
Q 372 3047 722 3315 
Q 1072 3584 1716 3584 
Q 2034 3584 2315 3537 
Q 2597 3491 2834 3397 
z
" transform="scale(0.015625)"/>
      </defs>
      <use xlink:href="#DejaVuSans-4e"/>
      <use xlink:href="#DejaVuSans-75" x="74.804688"/>
      <use xlink:href="#DejaVuSans-6d" x="138.183594"/>
      <use xlink:href="#DejaVuSans-62" x="235.595703"/>
      <use xlink:href="#DejaVuSans-65" x="299.072266"/>
      <use xlink:href="#DejaVuSans-72" x="360.595703"/>
      <use xlink:href="#DejaVuSans-20" x="401.708984"/>
      <use xlink:href="#DejaVuSans-6f" x="433.496094"/>
      <use xlink:href="#DejaVuSans-66" x="494.677734"/>
      <use xlink:href="#DejaVuSans-20" x="529.882812"/>
      <use xlink:href="#DejaVuSans-47" x="561.669922"/>
      <use xlink:href="#DejaVuSans-61" x="639.160156"/>
      <use xlink:href="#DejaVuSans-6d" x="700.439453"/>
      <use xlink:href="#DejaVuSans-65" x="797.851562"/>
      <use xlink:href="#DejaVuSans-73" x="859.375"/>
     </g>
    </g>
   </g>
   <g id="matplotlib.axis_2">
    <g id="ytick_1">
     <g id="line2d_15">
      <path d="M 57.6 307.584 
L 414.72 307.584 
" clip-path="url(#p79543d5ee5)" style="fill: none; stroke: #ffffff; stroke-width: 0.8; stroke-linecap: square"/>
     </g>
     <g id="line2d_16">
      <defs>
       <path id="m8f4ba667fc" d="M 0 0 
L -3.5 0 
" style="stroke: #555555; stroke-width: 0.8"/>
      </defs>
      <g>
       <use xlink:href="#m8f4ba667fc" x="57.6" y="307.584" style="fill: #555555; stroke: #555555; stroke-width: 0.8"/>
      </g>
     </g>
     <g id="text_9">
      <!-- 0 -->
      <g style="fill: #555555" transform="translate(44.2375 311.383219) scale(0.1 -0.1)">
       <use xlink:href="#DejaVuSans-30"/>
      </g>
     </g>
    </g>
    <g id="ytick_2">
     <g id="line2d_17">
      <path d="M 57.6 262.077783 
L 414.72 262.077783 
" clip-path="url(#p79543d5ee5)" style="fill: none; stroke: #ffffff; stroke-width: 0.8; stroke-linecap: square"/>
     </g>
     <g id="line2d_18">
      <g>
       <use xlink:href="#m8f4ba667fc" x="57.6" y="262.077783" style="fill: #555555; stroke: #555555; stroke-width: 0.8"/>
      </g>
     </g>
     <g id="text_10">
      <!-- 500 -->
      <g style="fill: #555555" transform="translate(31.5125 265.877002) scale(0.1 -0.1)">
       <use xlink:href="#DejaVuSans-35"/>
       <use xlink:href="#DejaVuSans-30" x="63.623047"/>
       <use xlink:href="#DejaVuSans-30" x="127.246094"/>
      </g>
     </g>
    </g>
    <g id="ytick_3">
     <g id="line2d_19">
      <path d="M 57.6 216.571566 
L 414.72 216.571566 
" clip-path="url(#p79543d5ee5)" style="fill: none; stroke: #ffffff; stroke-width: 0.8; stroke-linecap: square"/>
     </g>
     <g id="line2d_20">
      <g>
       <use xlink:href="#m8f4ba667fc" x="57.6" y="216.571566" style="fill: #555555; stroke: #555555; stroke-width: 0.8"/>
      </g>
     </g>
     <g id="text_11">
      <!-- 1000 -->
      <g style="fill: #555555" transform="translate(25.15 220.370784) scale(0.1 -0.1)">
       <use xlink:href="#DejaVuSans-31"/>
       <use xlink:href="#DejaVuSans-30" x="63.623047"/>
       <use xlink:href="#DejaVuSans-30" x="127.246094"/>
       <use xlink:href="#DejaVuSans-30" x="190.869141"/>
      </g>
     </g>
    </g>
    <g id="ytick_4">
     <g id="line2d_21">
      <path d="M 57.6 171.065349 
L 414.72 171.065349 
" clip-path="url(#p79543d5ee5)" style="fill: none; stroke: #ffffff; stroke-width: 0.8; stroke-linecap: square"/>
     </g>
     <g id="line2d_22">
      <g>
       <use xlink:href="#m8f4ba667fc" x="57.6" y="171.065349" style="fill: #555555; stroke: #555555; stroke-width: 0.8"/>
      </g>
     </g>
     <g id="text_12">
      <!-- 1500 -->
      <g style="fill: #555555" transform="translate(25.15 174.864567) scale(0.1 -0.1)">
       <use xlink:href="#DejaVuSans-31"/>
       <use xlink:href="#DejaVuSans-35" x="63.623047"/>
       <use xlink:href="#DejaVuSans-30" x="127.246094"/>
       <use xlink:href="#DejaVuSans-30" x="190.869141"/>
      </g>
     </g>
    </g>
    <g id="ytick_5">
     <g id="line2d_23">
      <path d="M 57.6 125.559131 
L 414.72 125.559131 
" clip-path="url(#p79543d5ee5)" style="fill: none; stroke: #ffffff; stroke-width: 0.8; stroke-linecap: square"/>
     </g>
     <g id="line2d_24">
      <g>
       <use xlink:href="#m8f4ba667fc" x="57.6" y="125.559131" style="fill: #555555; stroke: #555555; stroke-width: 0.8"/>
      </g>
     </g>
     <g id="text_13">
      <!-- 2000 -->
      <g style="fill: #555555" transform="translate(25.15 129.35835) scale(0.1 -0.1)">
       <use xlink:href="#DejaVuSans-32"/>
       <use xlink:href="#DejaVuSans-30" x="63.623047"/>
       <use xlink:href="#DejaVuSans-30" x="127.246094"/>
       <use xlink:href="#DejaVuSans-30" x="190.869141"/>
      </g>
     </g>
    </g>
    <g id="ytick_6">
     <g id="line2d_25">
      <path d="M 57.6 80.052914 
L 414.72 80.052914 
" clip-path="url(#p79543d5ee5)" style="fill: none; stroke: #ffffff; stroke-width: 0.8; stroke-linecap: square"/>
     </g>
     <g id="line2d_26">
      <g>
       <use xlink:href="#m8f4ba667fc" x="57.6" y="80.052914" style="fill: #555555; stroke: #555555; stroke-width: 0.8"/>
      </g>
     </g>
     <g id="text_14">
      <!-- 2500 -->
      <g style="fill: #555555" transform="translate(25.15 83.852133) scale(0.1 -0.1)">
       <use xlink:href="#DejaVuSans-32"/>
       <use xlink:href="#DejaVuSans-35" x="63.623047"/>
       <use xlink:href="#DejaVuSans-30" x="127.246094"/>
       <use xlink:href="#DejaVuSans-30" x="190.869141"/>
      </g>
     </g>
    </g>
    <g id="text_15">
     <!-- Median reward -->
     <g style="fill: #555555" transform="translate(18.654375 219.03675) rotate(-90) scale(0.12 -0.12)">
      <defs>
       <path id="DejaVuSans-4d" d="M 628 4666 
L 1569 4666 
L 2759 1491 
L 3956 4666 
L 4897 4666 
L 4897 0 
L 4281 0 
L 4281 4097 
L 3078 897 
L 2444 897 
L 1241 4097 
L 1241 0 
L 628 0 
L 628 4666 
z
" transform="scale(0.015625)"/>
       <path id="DejaVuSans-64" d="M 2906 2969 
L 2906 4863 
L 3481 4863 
L 3481 0 
L 2906 0 
L 2906 525 
Q 2725 213 2448 61 
Q 2172 -91 1784 -91 
Q 1150 -91 751 415 
Q 353 922 353 1747 
Q 353 2572 751 3078 
Q 1150 3584 1784 3584 
Q 2172 3584 2448 3432 
Q 2725 3281 2906 2969 
z
M 947 1747 
Q 947 1113 1208 752 
Q 1469 391 1925 391 
Q 2381 391 2643 752 
Q 2906 1113 2906 1747 
Q 2906 2381 2643 2742 
Q 2381 3103 1925 3103 
Q 1469 3103 1208 2742 
Q 947 2381 947 1747 
z
" transform="scale(0.015625)"/>
       <path id="DejaVuSans-69" d="M 603 3500 
L 1178 3500 
L 1178 0 
L 603 0 
L 603 3500 
z
M 603 4863 
L 1178 4863 
L 1178 4134 
L 603 4134 
L 603 4863 
z
" transform="scale(0.015625)"/>
       <path id="DejaVuSans-6e" d="M 3513 2113 
L 3513 0 
L 2938 0 
L 2938 2094 
Q 2938 2591 2744 2837 
Q 2550 3084 2163 3084 
Q 1697 3084 1428 2787 
Q 1159 2491 1159 1978 
L 1159 0 
L 581 0 
L 581 3500 
L 1159 3500 
L 1159 2956 
Q 1366 3272 1645 3428 
Q 1925 3584 2291 3584 
Q 2894 3584 3203 3211 
Q 3513 2838 3513 2113 
z
" transform="scale(0.015625)"/>
       <path id="DejaVuSans-77" d="M 269 3500 
L 844 3500 
L 1563 769 
L 2278 3500 
L 2956 3500 
L 3675 769 
L 4391 3500 
L 4966 3500 
L 4050 0 
L 3372 0 
L 2619 2869 
L 1863 0 
L 1184 0 
L 269 3500 
z
" transform="scale(0.015625)"/>
      </defs>
      <use xlink:href="#DejaVuSans-4d"/>
      <use xlink:href="#DejaVuSans-65" x="86.279297"/>
      <use xlink:href="#DejaVuSans-64" x="147.802734"/>
      <use xlink:href="#DejaVuSans-69" x="211.279297"/>
      <use xlink:href="#DejaVuSans-61" x="239.0625"/>
      <use xlink:href="#DejaVuSans-6e" x="300.341797"/>
      <use xlink:href="#DejaVuSans-20" x="363.720703"/>
      <use xlink:href="#DejaVuSans-72" x="395.507812"/>
      <use xlink:href="#DejaVuSans-65" x="434.371094"/>
      <use xlink:href="#DejaVuSans-77" x="495.894531"/>
      <use xlink:href="#DejaVuSans-61" x="577.681641"/>
      <use xlink:href="#DejaVuSans-72" x="638.960938"/>
      <use xlink:href="#DejaVuSans-64" x="678.324219"/>
     </g>
    </g>
   </g>
   <g id="line2d_27">
    <path d="M 73.832727 306.218813 
L 73.995109 305.627233 
L 74.049236 305.709144 
L 74.15749 305.802757 
L 74.265744 305.763751 
L 75.29416 306.007535 
L 75.997813 306.007931 
L 78.379406 306.027152 
L 79.786712 306.057287 
L 91.586427 306.08437 
L 98.89359 306.026393 
L 102.195345 305.976634 
L 123.683817 305.572744 
L 124.982868 305.535258 
L 129.150657 305.433776 
L 131.640506 305.322567 
L 140.896245 304.935098 
L 142.465932 304.820779 
L 143.710856 304.733874 
L 144.793399 304.706634 
L 150.855638 304.414863 
L 151.072146 304.359496 
L 156.593114 304.027198 
L 159.191216 303.748962 
L 160.057251 303.652765 
L 162.33059 303.47125 
L 164.441548 303.186605 
L 164.98282 303.094305 
L 165.253455 303.034671 
L 166.065362 302.93169 
L 169.800135 302.282808 
L 170.341406 302.042853 
L 172.181728 301.543438 
L 172.668873 301.294827 
L 173.534907 301.059105 
L 173.967924 300.724534 
L 177.594442 299.252661 
L 178.081586 299.219357 
L 178.352222 298.79885 
L 179.7054 298.323008 
L 179.867781 297.826678 
L 179.921909 297.806823 
L 180.192544 297.412134 
L 180.625561 297.206369 
L 181.166833 297.123579 
L 181.762231 296.951695 
L 182.086994 295.13399 
L 182.411757 294.739275 
L 183.061282 294.650047 
L 183.169537 294.41183 
L 183.440172 292.062831 
L 183.602554 290.313034 
L 183.981444 290.303483 
L 184.739223 290.379143 
L 184.901605 289.874922 
L 185.118113 287.52109 
L 185.605258 287.576374 
L 186.471292 287.599208 
L 187.120817 287.369504 
L 187.283199 287.277941 
L 187.391453 286.854368 
L 187.553834 285.575401 
L 187.770343 285.06175 
L 187.932724 284.15216 
L 188.473996 283.669033 
L 188.636377 283.304053 
L 190.909717 281.158052 
L 191.126225 280.606831 
L 191.288607 279.810577 
L 191.505115 279.512376 
L 191.667496 278.97651 
L 191.721624 278.972681 
L 192.154641 277.253888 
L 192.208768 277.260138 
L 192.371149 276.449107 
L 192.479403 275.887312 
L 192.533531 275.898938 
L 192.641785 275.714313 
L 192.804166 274.575582 
L 192.858293 274.469622 
L 193.345438 271.563882 
L 194.04909 271.707652 
L 194.103217 271.618531 
L 194.373853 268.592688 
L 194.42798 268.546811 
L 194.752743 267.134043 
L 195.023379 266.912493 
L 195.618777 265.883485 
L 195.889413 265.311589 
L 196.268303 264.266304 
L 196.484811 264.287213 
L 196.917828 264.281164 
L 197.242591 263.960595 
L 197.404973 263.539959 
L 198.054498 262.926228 
L 198.325134 261.594282 
L 198.649897 260.686243 
L 198.812278 260.531202 
L 199.461804 258.962234 
L 199.624185 258.97377 
L 199.840694 258.59348 
L 200.111329 258.450505 
L 200.327838 257.931579 
L 200.544346 257.749446 
L 200.814982 256.519587 
L 201.302126 253.450414 
L 201.41038 253.407941 
L 201.626889 251.422123 
L 202.005779 250.60307 
L 202.16816 250.368296 
L 202.492923 249.796309 
L 202.763559 249.847438 
L 203.521339 250.060079 
L 204.06261 248.598263 
L 204.279118 247.167711 
L 204.4415 246.928963 
L 204.549754 246.869326 
L 204.982771 245.828309 
L 205.307534 244.797668 
L 205.361661 244.761984 
L 205.632297 243.904662 
L 205.686424 243.905509 
L 205.848805 243.649145 
L 206.33595 243.131179 
L 206.498331 242.210347 
L 206.714839 241.796425 
L 206.877221 241.701768 
L 207.039602 241.387167 
L 207.201984 241.262187 
L 207.743255 239.202295 
L 207.797382 239.177569 
L 207.905636 238.001688 
L 208.068018 237.300024 
L 208.338653 237.243689 
L 208.879925 237.369147 
L 208.988179 237.24414 
L 209.042306 237.194422 
L 209.312942 236.292005 
L 209.475323 235.6429 
L 209.637705 233.52914 
L 209.800086 232.801404 
L 209.854213 232.829847 
L 209.90834 232.675519 
L 209.962467 232.702362 
L 210.124849 232.6756 
L 210.233103 232.646037 
L 210.341357 232.290492 
L 210.557866 230.806062 
L 210.611993 230.82088 
L 210.774374 230.358529 
L 211.261519 230.435124 
L 211.369773 230.42393 
L 211.532154 230.092795 
L 211.586281 230.067323 
L 211.80279 228.358533 
L 211.911044 228.253682 
L 212.18168 227.331143 
L 212.344061 227.296919 
L 212.506443 227.038457 
L 212.56057 227.002215 
L 212.885333 225.70971 
L 213.264223 224.845115 
L 213.372477 224.770696 
L 213.480731 224.573995 
L 213.805494 223.772665 
L 214.184384 222.56979 
L 214.346765 221.524927 
L 214.400892 221.374066 
L 214.509147 220.722678 
L 214.563274 220.728885 
L 214.942164 220.003621 
L 215.104545 218.624138 
L 215.321054 218.638227 
L 215.483435 218.580966 
L 215.537562 218.589616 
L 215.862325 217.159974 
L 215.916452 217.15008 
L 216.024706 216.550752 
L 216.132961 216.589353 
L 216.349469 216.644127 
L 216.674232 215.892006 
L 216.728359 215.839434 
L 216.890741 215.184796 
L 216.944868 215.205347 
L 217.107249 214.875119 
L 217.323758 214.640434 
L 217.702648 214.338458 
L 217.865029 213.633389 
L 218.135665 213.140394 
L 218.298046 212.622103 
L 218.460427 212.547202 
L 218.568682 212.458995 
L 218.78519 212.465135 
L 219.434716 211.505816 
L 219.597097 211.259973 
L 219.759479 210.445656 
L 219.813606 210.461858 
L 220.192496 210.013287 
L 220.463131 209.068917 
L 220.67964 208.678501 
L 220.842021 207.483286 
L 220.896148 207.443668 
L 221.545674 204.317992 
L 221.653928 204.251107 
L 222.465835 204.341211 
L 222.57409 204.286874 
L 222.790598 203.204871 
L 222.952979 203.108429 
L 223.385997 202.976369 
L 223.602505 202.782787 
L 223.927268 202.910776 
L 223.981395 202.903564 
L 224.197904 202.590857 
L 224.360285 202.5125 
L 224.522666 202.306568 
L 224.630921 202.260538 
L 224.793302 201.548251 
L 224.901556 201.506498 
L 225.118065 201.312205 
L 225.280446 200.583812 
L 225.334573 200.579283 
L 225.821718 199.279624 
L 226.038226 199.018234 
L 226.254735 198.226341 
L 226.308862 198.209565 
L 226.796006 197.077134 
L 226.850133 197.104527 
L 227.012514 197.174665 
L 228.365693 193.848858 
L 228.473947 193.243786 
L 228.528074 193.259267 
L 228.690456 193.2651 
L 228.852837 193.200939 
L 229.069346 193.29094 
L 229.339981 193.358835 
L 229.664744 192.793177 
L 229.93538 190.78921 
L 229.989507 190.82681 
L 230.151888 189.98368 
L 230.206015 189.924731 
L 230.368397 189.378321 
L 230.476651 189.423358 
L 231.072049 188.407602 
L 231.234431 188.36522 
L 231.396812 187.961469 
L 231.667448 187.393079 
L 231.721575 187.385862 
L 231.883956 187.21116 
L 232.154592 187.220336 
L 232.479355 187.315817 
L 233.020626 186.677415 
L 233.074753 186.690603 
L 233.399516 185.296558 
L 233.453643 185.289173 
L 233.616025 184.764708 
L 233.832533 184.376002 
L 234.103169 184.002265 
L 234.211423 183.788297 
L 234.860949 178.821162 
L 235.02333 178.631387 
L 235.077457 178.667849 
L 235.510474 178.4648 
L 235.943491 176.854784 
L 236.051746 176.805143 
L 236.430636 175.806657 
L 236.593017 175.11159 
L 236.647144 175.068504 
L 236.809526 174.594105 
L 236.863653 174.612598 
L 237.188416 174.54613 
L 237.404924 174.218299 
L 237.729687 174.250363 
L 237.837941 174.290119 
L 238.487467 173.204664 
L 238.595721 173.209805 
L 238.81223 172.294837 
L 238.920484 172.35408 
L 239.461755 172.708419 
L 239.678264 171.512245 
L 239.786518 171.475483 
L 239.948899 171.069262 
L 240.003026 171.093444 
L 240.219535 170.462743 
L 240.273662 170.471075 
L 240.598425 169.620401 
L 240.652552 169.658154 
L 240.923188 169.772459 
L 241.031442 169.513542 
L 241.193823 169.246424 
L 241.735095 168.743138 
L 241.951603 167.85645 
L 242.168112 167.882517 
L 242.38462 167.548324 
L 242.547002 166.810619 
L 242.709383 166.660621 
L 242.76351 166.700483 
L 243.196527 164.716199 
L 243.413036 164.718611 
L 243.629544 163.439301 
L 243.683672 163.436251 
L 243.90018 162.477516 
L 243.954307 162.387267 
L 244.116689 161.910602 
L 244.27907 161.873959 
L 244.766214 161.123789 
L 244.928596 160.774036 
L 245.307486 160.673159 
L 245.41574 160.721273 
L 246.119393 159.675503 
L 246.498282 159.849399 
L 247.039554 159.770765 
L 247.580825 158.52434 
L 248.176224 156.229587 
L 248.446859 156.062511 
L 248.934003 156.341528 
L 249.096385 156.182329 
L 249.204639 156.110217 
L 249.583529 154.833499 
L 249.637656 154.85802 
L 249.854165 154.423503 
L 249.962419 153.962169 
L 250.1248 153.55892 
L 250.395436 153.192743 
L 250.50369 152.566549 
L 250.557817 152.602643 
L 250.666072 152.451858 
L 250.88258 151.87338 
L 250.990835 151.823947 
L 251.26147 151.843434 
L 251.369724 151.639894 
L 251.586233 150.003243 
L 251.694487 149.709905 
L 251.910996 147.571253 
L 252.073377 147.536728 
L 252.289886 147.434155 
L 252.993538 147.941703 
L 253.15592 147.775723 
L 253.210047 147.767291 
L 253.480683 146.905604 
L 253.643064 146.823805 
L 253.9137 146.210367 
L 254.130208 146.23974 
L 254.29259 145.979975 
L 254.454971 144.593763 
L 254.779734 143.263064 
L 255.266878 142.561302 
L 255.483387 141.959778 
L 255.537514 141.974761 
L 255.645768 141.927149 
L 256.024658 142.046519 
L 256.187039 142.114563 
L 256.241166 142.157062 
L 256.403548 141.847983 
L 256.511802 141.87063 
L 256.674184 141.376683 
L 257.377836 140.156002 
L 257.486091 140.186846 
L 257.648472 139.942901 
L 257.810853 139.890163 
L 258.027362 140.010163 
L 258.189743 139.793375 
L 258.514506 139.590806 
L 258.568633 139.596746 
L 258.839269 139.198459 
L 259.055777 139.088689 
L 259.488794 139.247789 
L 259.75943 139.034269 
L 259.867684 139.029581 
L 260.354829 138.536496 
L 260.408956 138.499896 
L 260.625464 137.995907 
L 260.733719 137.946493 
L 260.841973 137.759485 
L 261.166736 136.310061 
L 261.220863 136.310162 
L 261.437371 136.051917 
L 262.03277 136.264188 
L 262.249278 135.687597 
L 262.303405 135.691509 
L 262.519914 134.735101 
L 262.844677 133.834515 
L 262.898804 133.811177 
L 263.115312 133.267713 
L 263.16944 133.316153 
L 263.331821 133.435423 
L 263.602457 132.857358 
L 263.764838 132.851665 
L 264.035474 132.555463 
L 264.197855 132.33622 
L 264.522618 132.501645 
L 265.009762 132.790923 
L 265.442779 131.876464 
L 265.875796 129.770091 
L 265.929923 129.796055 
L 266.092305 129.664374 
L 266.795957 129.309911 
L 266.850085 129.309165 
L 267.12072 128.371777 
L 267.283102 128.251114 
L 267.553737 127.208821 
L 268.203263 125.159837 
L 268.25739 125.16238 
L 268.311517 124.944658 
L 268.365644 124.993335 
L 268.473899 125.020167 
L 268.63628 124.549323 
L 268.690407 124.578694 
L 268.798661 124.479865 
L 269.01517 124.591453 
L 269.177551 124.310774 
L 269.285806 124.33893 
L 269.881204 123.250335 
L 270.097713 123.174842 
L 270.314221 122.948195 
L 270.638984 123.048069 
L 270.801365 123.023285 
L 271.072001 122.535196 
L 271.28851 122.470745 
L 271.559145 122.523117 
L 271.721527 122.380764 
L 272.046289 122.17403 
L 272.208671 122.147084 
L 272.425179 121.80503 
L 272.749942 121.311282 
L 272.912324 121.337283 
L 273.128832 121.369619 
L 273.832485 118.104878 
L 273.886612 118.132152 
L 274.10312 118.114186 
L 274.644392 118.526821 
L 275.077409 118.804364 
L 275.61868 118.756263 
L 275.99757 117.989923 
L 276.214079 117.912846 
L 276.484714 116.983281 
L 276.75535 116.930861 
L 276.971858 116.986652 
L 277.13424 116.817626 
L 277.296621 116.830555 
L 277.350748 116.843233 
L 277.404876 116.643639 
L 277.459003 116.676095 
L 277.729638 116.650396 
L 278.000274 116.421874 
L 278.054401 116.418604 
L 278.216783 116.198007 
L 278.27091 116.205303 
L 278.487418 115.870904 
L 278.595672 115.842568 
L 278.758054 115.73933 
L 278.812181 115.746127 
L 278.974562 115.487097 
L 279.082817 115.470956 
L 279.136944 115.1953 
L 279.191071 115.236858 
L 279.407579 115.350263 
L 279.678215 114.129487 
L 279.732342 114.171981 
L 279.786469 114.092521 
L 280.057105 113.772197 
L 280.165359 113.764488 
L 280.327741 113.578165 
L 280.598376 113.19416 
L 281.302029 113.635149 
L 281.356156 113.618205 
L 281.518538 113.372737 
L 281.680919 112.8154 
L 281.897428 112.220851 
L 281.951555 112.25345 
L 282.005682 112.131899 
L 282.059809 112.160365 
L 282.330445 112.279253 
L 282.871716 112.137801 
L 283.304733 111.274458 
L 283.521242 111.145557 
L 283.791877 110.995946 
L 283.900132 110.64247 
L 283.954259 110.655898 
L 284.008386 110.648136 
L 284.224894 109.712457 
L 284.387276 109.430891 
L 284.49553 109.408083 
L 284.657911 109.246367 
L 284.766166 108.299714 
L 284.820293 108.324892 
L 285.145056 107.745865 
L 285.199183 107.722488 
L 285.361564 107.512593 
L 285.523946 107.474644 
L 286.119344 107.786257 
L 286.281725 107.784955 
L 286.76887 106.257649 
L 286.931251 106.135303 
L 287.14776 106.201465 
L 287.580777 106.261546 
L 287.851412 105.508851 
L 288.176175 104.577721 
L 288.663319 104.378887 
L 289.204591 104.781541 
L 289.421099 104.653456 
L 290.611896 104.434387 
L 290.828405 104.036597 
L 290.936659 104.045353 
L 291.207295 103.077497 
L 291.315549 102.977835 
L 291.47793 102.716753 
L 291.640312 102.654524 
L 292.343964 103.24497 
L 292.398091 103.153173 
L 292.506346 103.122618 
L 292.668727 102.924492 
L 293.318253 102.730157 
L 293.480634 102.463992 
L 293.805397 102.470699 
L 293.967778 102.22885 
L 294.238414 102.187482 
L 294.454923 102.052854 
L 294.617304 102.136323 
L 294.779685 101.812955 
L 295.158575 101.480735 
L 295.320957 101.166487 
L 295.375084 101.197566 
L 295.970482 100.685799 
L 296.295245 100.65615 
L 296.511754 100.410085 
L 296.728262 100.203054 
L 296.944771 99.651889 
L 297.107152 99.624249 
L 297.323661 99.242236 
L 297.486042 99.223022 
L 297.540169 99.231947 
L 297.702551 98.953031 
L 297.756678 98.999446 
L 298.135568 98.923887 
L 298.297949 98.434464 
L 298.352076 98.434267 
L 298.568585 97.514525 
L 298.730966 96.741892 
L 299.542873 96.43932 
L 299.597 96.482513 
L 299.813509 96.057569 
L 299.921763 96.007102 
L 300.030017 95.976193 
L 300.571289 96.300762 
L 301.220814 96.344941 
L 301.49145 95.837157 
L 301.653831 95.808248 
L 301.816213 95.826711 
L 301.978594 95.84912 
L 302.032721 95.860805 
L 302.140975 95.553158 
L 302.195103 95.581684 
L 302.303357 95.504118 
L 302.465738 95.475354 
L 302.736374 94.584631 
L 302.790501 94.604729 
L 303.00701 94.456884 
L 303.494154 94.683485 
L 303.710662 94.825017 
L 303.873044 94.7567 
L 303.981298 94.515032 
L 304.197807 93.848898 
L 304.251934 93.873702 
L 304.793205 94.026308 
L 304.955586 93.833744 
L 306.038129 93.022748 
L 306.308765 93.068942 
L 306.904163 92.502663 
L 307.012417 92.538409 
L 307.174799 92.261646 
L 307.499562 91.854538 
L 307.71607 91.90144 
L 308.09496 91.657914 
L 308.257342 91.708977 
L 308.365596 91.699524 
L 308.744486 91.890275 
L 308.906867 91.977156 
L 309.23163 92.155978 
L 309.502266 91.929253 
L 309.772901 91.452723 
L 310.097664 91.51798 
L 310.584808 91.825742 
L 310.693063 91.783538 
L 310.909571 91.534317 
L 310.963698 91.467207 
L 311.12608 91.085219 
L 311.234334 91.12303 
L 311.613224 90.412341 
L 311.829732 90.009898 
L 311.992114 89.643052 
L 312.316877 89.724457 
L 312.479258 89.515937 
L 312.641639 89.56261 
L 312.804021 89.377958 
L 313.128784 89.401941 
L 313.561801 88.836559 
L 314.048945 89.008259 
L 314.157199 88.93715 
L 314.481962 88.500943 
L 314.644343 88.009221 
L 314.806725 87.83273 
L 315.131487 87.990366 
L 315.293869 87.955821 
L 315.402123 87.705095 
L 315.45625 87.725273 
L 315.618632 87.730428 
L 315.726886 87.644654 
L 316.322284 87.98696 
L 316.538793 87.976556 
L 316.701174 87.844921 
L 316.755301 87.878382 
L 316.863556 87.775251 
L 317.025937 87.795938 
L 317.188319 87.502293 
L 317.242446 87.519131 
L 317.458954 87.032023 
L 317.72959 86.414415 
L 317.837844 86.344439 
L 318.216734 86.08005 
L 318.433243 86.07685 
L 318.595624 85.954999 
L 318.86626 85.790899 
L 319.082768 85.420399 
L 319.191022 85.364696 
L 319.407531 84.379414 
L 319.569912 84.052431 
L 320.057057 84.272491 
L 320.219438 84.19409 
L 320.435947 84.099902 
L 320.706582 84.096723 
L 321.085472 84.073218 
L 321.356108 84.032748 
L 321.464362 83.889458 
L 321.572616 83.893011 
L 322.059761 83.442716 
L 322.330396 83.415142 
L 322.655159 83.212459 
L 322.871668 83.185348 
L 323.088176 83.024433 
L 323.19643 82.925712 
L 323.358812 82.535456 
L 323.521193 82.594359 
L 323.629447 82.560508 
L 323.791829 82.538604 
L 324.170719 82.087316 
L 324.278973 82.065866 
L 324.495482 81.781777 
L 324.549609 81.796432 
L 324.71199 81.582163 
L 324.820244 81.637763 
L 324.982626 81.455714 
L 325.145007 81.372771 
L 325.307389 80.893061 
L 325.415643 80.866545 
L 325.578024 80.250884 
L 325.794533 80.189237 
L 325.902787 80.076869 
L 326.065168 80.05598 
L 326.389931 80.048761 
L 326.60644 79.834551 
L 326.822948 79.72122 
L 326.98533 79.380068 
L 327.201838 79.334223 
L 327.310092 79.303966 
L 327.526601 79.214447 
L 327.634855 79.233065 
L 327.797237 79.204693 
L 327.959618 78.675305 
L 328.013745 78.49584 
L 328.067872 78.529861 
L 328.717398 78.790605 
L 329.042161 78.965551 
L 329.421051 78.538057 
L 330.070576 77.953535 
L 330.287085 77.963258 
L 330.341212 77.922705 
L 330.503593 77.481712 
L 330.611848 77.424352 
L 330.665975 77.445655 
L 330.774229 77.182246 
L 330.828356 77.216331 
L 331.586136 77.093052 
L 331.748517 77.009268 
L 331.910899 77.049313 
L 331.965026 76.91392 
L 332.019153 76.945539 
L 332.181534 77.008268 
L 332.235662 76.643007 
L 332.289789 76.686369 
L 332.45217 76.763631 
L 332.939314 77.108202 
L 332.993441 76.943592 
L 333.047569 76.985263 
L 333.101696 76.979521 
L 333.318204 76.720739 
L 333.372331 76.741796 
L 333.534713 76.543426 
L 333.805348 76.582544 
L 333.859476 76.296762 
L 333.913603 76.319662 
L 334.130111 76.397582 
L 334.34662 76.370654 
L 334.454874 76.377191 
L 334.617255 76.289506 
L 335.1044 75.844626 
L 335.212654 75.827262 
L 335.699798 75.097655 
L 335.916307 75.192779 
L 336.619959 75.606575 
L 336.674087 75.39406 
L 336.728214 75.421547 
L 336.998849 75.424287 
L 337.161231 75.259929 
L 337.215358 75.276005 
L 337.269485 75.174251 
L 337.431866 74.710012 
L 338.189646 75.002404 
L 338.352028 75.037865 
L 338.568536 74.93019 
L 338.730918 74.938146 
L 338.893299 74.175198 
L 338.947426 74.204878 
L 339.109808 74.052276 
L 339.651079 73.920877 
L 340.19235 74.162272 
L 340.896003 74.064647 
L 341.32902 74.011036 
L 341.599656 74.055622 
L 341.924418 73.889256 
L 342.0868 73.648004 
L 342.140927 73.667193 
L 342.195054 73.456688 
L 342.249181 73.473027 
L 342.573944 73.436387 
L 342.736325 73.228758 
L 342.84458 73.269604 
L 342.952834 73.05958 
L 343.656487 73.369451 
L 343.98125 73.380365 
L 344.143631 73.354508 
L 344.360139 73.295437 
L 344.414267 73.08624 
L 344.468394 73.100591 
L 344.955538 73.277284 
L 345.226174 73.323239 
L 345.388555 73.069261 
L 345.713318 73.11318 
L 346.254589 72.691357 
L 346.308716 72.722428 
L 346.471098 72.48378 
L 346.633479 72.545752 
L 346.79586 72.557542 
L 347.012369 71.996313 
L 347.391259 71.798059 
L 347.499513 71.297111 
L 347.55364 71.325617 
L 347.661895 71.300774 
L 347.770149 71.026502 
L 347.878403 71.086302 
L 348.094912 71.107315 
L 348.149039 71.132008 
L 348.257293 70.950343 
L 348.31142 70.991848 
L 348.527929 70.879019 
L 348.798564 70.935532 
L 349.015073 70.580784 
L 349.0692 70.574719 
L 349.285709 70.021556 
L 349.44809 70.04185 
L 349.718726 69.520948 
L 349.772853 69.560817 
L 349.881107 69.404923 
L 349.935234 69.445114 
L 350.476506 69.367001 
L 350.855395 69.288058 
L 350.909523 69.184341 
L 350.96365 69.222612 
L 351.883811 69.316441 
L 352.262701 69.133456 
L 352.533337 69.054866 
L 352.749845 68.64906 
L 353.074608 68.41477 
L 353.453498 68.526463 
L 353.940642 68.87741 
L 354.048896 68.781346 
L 354.211278 68.8063 
L 354.752549 68.382424 
L 354.91493 67.894869 
L 355.131439 67.949609 
L 355.402075 67.693625 
L 355.456202 67.592885 
L 355.510329 67.623921 
L 355.943346 67.85559 
L 356.159854 67.702281 
L 356.322236 67.670812 
L 356.646999 67.576705 
L 356.701126 67.443034 
L 356.755253 67.466354 
L 356.917634 67.435609 
L 356.971761 67.320776 
L 357.025889 67.353314 
L 357.134143 67.337391 
L 357.18827 67.259219 
L 357.242397 67.300677 
L 357.783668 67.500119 
L 358.487321 67.28015 
L 359.136847 67.545006 
L 359.299228 67.187345 
L 359.46161 67.195916 
L 359.623991 67.094595 
L 359.8405 67.139791 
L 360.002881 67.166428 
L 360.273517 67.075673 
L 360.327644 67.048434 
L 360.381771 66.819174 
L 360.435898 66.832843 
L 360.490025 66.865046 
L 360.706534 66.26138 
L 360.977169 66.344908 
L 361.085424 66.118736 
L 361.139551 66.159075 
L 361.356059 66.232591 
L 361.518441 66.115976 
L 361.897331 66.179135 
L 361.951458 66.084813 
L 362.005585 66.118441 
L 362.113839 66.089348 
L 362.330348 66.040926 
L 362.546856 66.097748 
L 362.65511 65.94128 
L 362.709238 65.982815 
L 362.979873 65.97382 
L 363.142255 65.869667 
L 363.304636 65.828108 
L 363.358763 65.852015 
L 363.521145 65.621926 
L 363.954162 65.790361 
L 364.495433 65.898896 
L 364.603687 65.678556 
L 364.766069 64.863843 
L 364.820196 64.873252 
L 365.036704 64.869754 
L 365.144959 63.969768 
L 365.199086 63.979026 
L 365.361467 63.815194 
L 365.469721 63.769626 
L 365.632103 63.458809 
L 365.794484 63.418777 
L 366.44401 63.753979 
L 366.714645 63.765825 
L 367.039408 62.786471 
L 367.472425 62.401836 
L 367.905442 62.342019 
L 368.013697 62.381199 
L 368.121951 62.301004 
L 368.392587 62.349282 
L 369.475129 62.233869 
L 369.745765 62.340543 
L 370.449418 62.054205 
L 370.828308 61.67152 
L 371.261325 61.643629 
L 371.369579 61.494026 
L 371.586087 61.525697 
L 371.748469 61.17558 
L 371.91085 61.111835 
L 372.073232 61.089414 
L 372.28974 60.566979 
L 372.397994 60.499709 
L 372.452122 60.533485 
L 372.506249 60.445976 
L 372.776884 60.487185 
L 372.939266 60.310182 
L 373.101647 60.341168 
L 373.318156 60.186433 
L 373.859427 60.221774 
L 374.021808 60.182227 
L 374.130063 60.060833 
L 374.238317 59.863107 
L 374.292444 59.890808 
L 374.56308 60.016683 
L 374.887843 59.938659 
L 375.212605 59.010035 
L 375.266733 59.028584 
L 375.537368 58.963154 
L 375.753877 59.070299 
L 375.970385 59.193673 
L 376.132767 59.062834 
L 376.565784 59.213133 
L 376.998801 59.45668 
L 377.052928 59.438915 
L 377.215309 59.294433 
L 377.431818 59.200051 
L 377.594199 58.983982 
L 377.756581 58.687486 
L 377.918962 58.666839 
L 377.973089 58.703551 
L 378.081343 58.570175 
L 378.135471 58.601916 
L 378.297852 58.658392 
L 378.351979 58.538882 
L 378.406106 58.56798 
L 378.568488 58.558674 
L 378.730869 58.532884 
L 378.89325 58.529079 
L 379.001505 58.396248 
L 379.055632 58.420646 
L 380.192302 58.305123 
L 380.354683 58.219877 
L 380.517064 57.969671 
L 380.7877 57.981886 
L 381.220717 57.993679 
L 381.328971 57.837375 
L 381.383099 57.859141 
L 381.491353 57.868902 
L 381.653734 57.723042 
L 381.92437 57.724605 
L 382.086751 57.568177 
L 382.411514 57.634726 
L 382.573896 57.544606 
L 382.790404 57.543765 
L 383.006913 57.538385 
L 383.06104 57.436834 
L 383.115167 57.476177 
L 383.331675 57.434614 
L 383.548184 57.216808 
L 383.81882 57.256778 
L 383.927074 57.249741 
L 384.089455 57.015545 
L 384.305964 56.753604 
L 384.522472 56.496801 
L 385.117871 56.414539 
L 385.550888 56.59664 
L 385.875651 56.718832 
L 386.092159 56.597133 
L 386.254541 56.54645 
L 386.471049 56.644333 
L 386.795812 56.660814 
L 387.39121 56.459158 
L 387.661846 56.457623 
L 387.824227 56.49958 
L 387.986609 56.302338 
L 388.257245 56.080552 
L 388.690262 56.240054 
L 388.90677 56.01411 
L 389.069152 56.074708 
L 389.231533 55.801005 
L 389.393914 55.690707 
L 389.826931 55.762913 
L 390.314076 55.971644 
L 390.584711 56.063138 
L 390.855347 56.080165 
L 391.288364 56.216438 
L 392.208525 56.437841 
L 392.370907 56.346123 
L 392.749797 56.315318 
L 393.345195 56.15842 
L 393.507576 56.078218 
L 393.724085 55.727297 
L 394.535992 55.510381 
L 394.698373 55.405123 
L 394.914882 55.423873 
L 395.13139 55.461223 
L 395.347899 55.258544 
L 395.51028 55.243513 
L 395.997425 55.358915 
L 396.159806 55.209347 
L 396.484569 55.273764 
L 396.64695 55.254597 
L 396.863459 55.167928 
L 397.02584 55.013796 
L 397.242349 55.03578 
L 397.40473 54.810412 
L 397.621239 54.791723 
L 398.054256 54.384491 
L 398.216637 54.238514 
L 398.379018 54.183134 
L 398.487273 54.078991 
L 398.487273 54.078991 
" clip-path="url(#p79543d5ee5)" style="fill: none; stroke: #d62728; stroke-width: 1.5; stroke-linecap: square"/>
   </g>
   <g id="patch_3">
    <path d="M 57.6 307.584 
L 57.6 41.472 
" style="fill: none; stroke: #ffffff; stroke-linejoin: miter; stroke-linecap: square"/>
   </g>
   <g id="patch_4">
    <path d="M 414.72 307.584 
L 414.72 41.472 
" style="fill: none; stroke: #ffffff; stroke-linejoin: miter; stroke-linecap: square"/>
   </g>
   <g id="patch_5">
    <path d="M 57.6 307.584 
L 414.72 307.584 
" style="fill: none; stroke: #ffffff; stroke-linejoin: miter; stroke-linecap: square"/>
   </g>
   <g id="patch_6">
    <path d="M 57.6 41.472 
L 414.72 41.472 
" style="fill: none; stroke: #ffffff; stroke-linejoin: miter; stroke-linecap: square"/>
   </g>
   <g id="text_16">
    <!-- 2785.3887314552426 -->
    <g transform="translate(398.487273 54.078991) scale(0.1 -0.1)">
     <defs>
      <path id="DejaVuSans-37" d="M 525 4666 
L 3525 4666 
L 3525 4397 
L 1831 0 
L 1172 0 
L 2766 4134 
L 525 4134 
L 525 4666 
z
" transform="scale(0.015625)"/>
      <path id="DejaVuSans-38" d="M 2034 2216 
Q 1584 2216 1326 1975 
Q 1069 1734 1069 1313 
Q 1069 891 1326 650 
Q 1584 409 2034 409 
Q 2484 409 2743 651 
Q 3003 894 3003 1313 
Q 3003 1734 2745 1975 
Q 2488 2216 2034 2216 
z
M 1403 2484 
Q 997 2584 770 2862 
Q 544 3141 544 3541 
Q 544 4100 942 4425 
Q 1341 4750 2034 4750 
Q 2731 4750 3128 4425 
Q 3525 4100 3525 3541 
Q 3525 3141 3298 2862 
Q 3072 2584 2669 2484 
Q 3125 2378 3379 2068 
Q 3634 1759 3634 1313 
Q 3634 634 3220 271 
Q 2806 -91 2034 -91 
Q 1263 -91 848 271 
Q 434 634 434 1313 
Q 434 1759 690 2068 
Q 947 2378 1403 2484 
z
M 1172 3481 
Q 1172 3119 1398 2916 
Q 1625 2713 2034 2713 
Q 2441 2713 2670 2916 
Q 2900 3119 2900 3481 
Q 2900 3844 2670 4047 
Q 2441 4250 2034 4250 
Q 1625 4250 1398 4047 
Q 1172 3844 1172 3481 
z
" transform="scale(0.015625)"/>
      <path id="DejaVuSans-2e" d="M 684 794 
L 1344 794 
L 1344 0 
L 684 0 
L 684 794 
z
" transform="scale(0.015625)"/>
     </defs>
     <use xlink:href="#DejaVuSans-32"/>
     <use xlink:href="#DejaVuSans-37" x="63.623047"/>
     <use xlink:href="#DejaVuSans-38" x="127.246094"/>
     <use xlink:href="#DejaVuSans-35" x="190.869141"/>
     <use xlink:href="#DejaVuSans-2e" x="254.492188"/>
     <use xlink:href="#DejaVuSans-33" x="286.279297"/>
     <use xlink:href="#DejaVuSans-38" x="349.902344"/>
     <use xlink:href="#DejaVuSans-38" x="413.525391"/>
     <use xlink:href="#DejaVuSans-37" x="477.148438"/>
     <use xlink:href="#DejaVuSans-33" x="540.771484"/>
     <use xlink:href="#DejaVuSans-31" x="604.394531"/>
     <use xlink:href="#DejaVuSans-34" x="668.017578"/>
     <use xlink:href="#DejaVuSans-35" x="731.640625"/>
     <use xlink:href="#DejaVuSans-35" x="795.263672"/>
     <use xlink:href="#DejaVuSans-32" x="858.886719"/>
     <use xlink:href="#DejaVuSans-34" x="922.509766"/>
     <use xlink:href="#DejaVuSans-32" x="986.132812"/>
     <use xlink:href="#DejaVuSans-36" x="1049.755859"/>
    </g>
   </g>
   <g id="text_17">
    <!-- Epoch: 6000 -->
    <g transform="translate(191.0745 35.472) scale(0.144 -0.144)">
     <defs>
      <path id="DejaVuSans-45" d="M 628 4666 
L 3578 4666 
L 3578 4134 
L 1259 4134 
L 1259 2753 
L 3481 2753 
L 3481 2222 
L 1259 2222 
L 1259 531 
L 3634 531 
L 3634 0 
L 628 0 
L 628 4666 
z
" transform="scale(0.015625)"/>
      <path id="DejaVuSans-70" d="M 1159 525 
L 1159 -1331 
L 581 -1331 
L 581 3500 
L 1159 3500 
L 1159 2969 
Q 1341 3281 1617 3432 
Q 1894 3584 2278 3584 
Q 2916 3584 3314 3078 
Q 3713 2572 3713 1747 
Q 3713 922 3314 415 
Q 2916 -91 2278 -91 
Q 1894 -91 1617 61 
Q 1341 213 1159 525 
z
M 3116 1747 
Q 3116 2381 2855 2742 
Q 2594 3103 2138 3103 
Q 1681 3103 1420 2742 
Q 1159 2381 1159 1747 
Q 1159 1113 1420 752 
Q 1681 391 2138 391 
Q 2594 391 2855 752 
Q 3116 1113 3116 1747 
z
" transform="scale(0.015625)"/>
      <path id="DejaVuSans-63" d="M 3122 3366 
L 3122 2828 
Q 2878 2963 2633 3030 
Q 2388 3097 2138 3097 
Q 1578 3097 1268 2742 
Q 959 2388 959 1747 
Q 959 1106 1268 751 
Q 1578 397 2138 397 
Q 2388 397 2633 464 
Q 2878 531 3122 666 
L 3122 134 
Q 2881 22 2623 -34 
Q 2366 -91 2075 -91 
Q 1284 -91 818 406 
Q 353 903 353 1747 
Q 353 2603 823 3093 
Q 1294 3584 2113 3584 
Q 2378 3584 2631 3529 
Q 2884 3475 3122 3366 
z
" transform="scale(0.015625)"/>
      <path id="DejaVuSans-68" d="M 3513 2113 
L 3513 0 
L 2938 0 
L 2938 2094 
Q 2938 2591 2744 2837 
Q 2550 3084 2163 3084 
Q 1697 3084 1428 2787 
Q 1159 2491 1159 1978 
L 1159 0 
L 581 0 
L 581 4863 
L 1159 4863 
L 1159 2956 
Q 1366 3272 1645 3428 
Q 1925 3584 2291 3584 
Q 2894 3584 3203 3211 
Q 3513 2838 3513 2113 
z
" transform="scale(0.015625)"/>
      <path id="DejaVuSans-3a" d="M 750 794 
L 1409 794 
L 1409 0 
L 750 0 
L 750 794 
z
M 750 3309 
L 1409 3309 
L 1409 2516 
L 750 2516 
L 750 3309 
z
" transform="scale(0.015625)"/>
     </defs>
     <use xlink:href="#DejaVuSans-45"/>
     <use xlink:href="#DejaVuSans-70" x="63.183594"/>
     <use xlink:href="#DejaVuSans-6f" x="126.660156"/>
     <use xlink:href="#DejaVuSans-63" x="187.841797"/>
     <use xlink:href="#DejaVuSans-68" x="242.822266"/>
     <use xlink:href="#DejaVuSans-3a" x="306.201172"/>
     <use xlink:href="#DejaVuSans-20" x="339.892578"/>
     <use xlink:href="#DejaVuSans-36" x="371.679688"/>
     <use xlink:href="#DejaVuSans-30" x="435.302734"/>
     <use xlink:href="#DejaVuSans-30" x="498.925781"/>
     <use xlink:href="#DejaVuSans-30" x="562.548828"/>
    </g>
   </g>
  </g>
 </g>
 <defs>
  <clipPath id="p79543d5ee5">
   <rect x="57.6" y="41.472" width="357.12" height="266.112"/>
  </clipPath>
 </defs>
</svg>
