<?xml version="1.0" encoding="utf-8" standalone="no"?>
<!DOCTYPE svg PUBLIC "-//W3C//DTD SVG 1.1//EN"
  "http://www.w3.org/Graphics/SVG/1.1/DTD/svg11.dtd">
<svg xmlns:xlink="http://www.w3.org/1999/xlink" width="460.8pt" height="345.6pt" viewBox="0 0 460.8 345.6" xmlns="http://www.w3.org/2000/svg" version="1.1">
 <metadata>
  <rdf:RDF xmlns:dc="http://purl.org/dc/elements/1.1/" xmlns:cc="http://creativecommons.org/ns#" xmlns:rdf="http://www.w3.org/1999/02/22-rdf-syntax-ns#">
   <cc:Work>
    <dc:type rdf:resource="http://purl.org/dc/dcmitype/StillImage"/>
    <dc:date>2024-09-04T18:10:11.079335</dc:date>
    <dc:format>image/svg+xml</dc:format>
    <dc:creator>
     <cc:Agent>
      <dc:title>Matplotlib v3.8.4, https://matplotlib.org/</dc:title>
     </cc:Agent>
    </dc:creator>
   </cc:Work>
  </rdf:RDF>
 </metadata>
 <defs>
  <style type="text/css">*{stroke-linejoin: round; stroke-linecap: butt}</style>
 </defs>
 <g id="figure_1">
  <g id="patch_1">
   <path d="M 0 345.6 
L 460.8 345.6 
L 460.8 0 
L 0 0 
z
" style="fill: #ffffff"/>
  </g>
  <g id="axes_1">
   <g id="patch_2">
    <path d="M 57.6 307.584 
L 414.72 307.584 
L 414.72 41.472 
L 57.6 41.472 
z
" style="fill: #e5e5e5"/>
   </g>
   <g id="matplotlib.axis_1">
    <g id="xtick_1">
     <g id="line2d_1">
      <path d="M 73.832727 307.584 
L 73.832727 41.472 
" clip-path="url(#p111f925f02)" style="fill: none; stroke: #ffffff; stroke-width: 0.8; stroke-linecap: square"/>
     </g>
     <g id="line2d_2">
      <defs>
       <path id="m894015b3b4" d="M 0 0 
L 0 3.5 
" style="stroke: #555555; stroke-width: 0.8"/>
      </defs>
      <g>
       <use xlink:href="#m894015b3b4" x="73.832727" y="307.584" style="fill: #555555; stroke: #555555; stroke-width: 0.8"/>
      </g>
     </g>
     <g id="text_1">
      <!-- 0 -->
      <g style="fill: #555555" transform="translate(70.651477 322.182437) scale(0.1 -0.1)">
       <defs>
        <path id="DejaVuSans-30" d="M 2034 4250 
Q 1547 4250 1301 3770 
Q 1056 3291 1056 2328 
Q 1056 1369 1301 889 
Q 1547 409 2034 409 
Q 2525 409 2770 889 
Q 3016 1369 3016 2328 
Q 3016 3291 2770 3770 
Q 2525 4250 2034 4250 
z
M 2034 4750 
Q 2819 4750 3233 4129 
Q 3647 3509 3647 2328 
Q 3647 1150 3233 529 
Q 2819 -91 2034 -91 
Q 1250 -91 836 529 
Q 422 1150 422 2328 
Q 422 3509 836 4129 
Q 1250 4750 2034 4750 
z
" transform="scale(0.015625)"/>
       </defs>
       <use xlink:href="#DejaVuSans-30"/>
      </g>
     </g>
    </g>
    <g id="xtick_2">
     <g id="line2d_3">
      <path d="M 127.977915 307.584 
L 127.977915 41.472 
" clip-path="url(#p111f925f02)" style="fill: none; stroke: #ffffff; stroke-width: 0.8; stroke-linecap: square"/>
     </g>
     <g id="line2d_4">
      <g>
       <use xlink:href="#m894015b3b4" x="127.977915" y="307.584" style="fill: #555555; stroke: #555555; stroke-width: 0.8"/>
      </g>
     </g>
     <g id="text_2">
      <!-- 500 -->
      <g style="fill: #555555" transform="translate(118.434165 322.182437) scale(0.1 -0.1)">
       <defs>
        <path id="DejaVuSans-35" d="M 691 4666 
L 3169 4666 
L 3169 4134 
L 1269 4134 
L 1269 2991 
Q 1406 3038 1543 3061 
Q 1681 3084 1819 3084 
Q 2600 3084 3056 2656 
Q 3513 2228 3513 1497 
Q 3513 744 3044 326 
Q 2575 -91 1722 -91 
Q 1428 -91 1123 -41 
Q 819 9 494 109 
L 494 744 
Q 775 591 1075 516 
Q 1375 441 1709 441 
Q 2250 441 2565 725 
Q 2881 1009 2881 1497 
Q 2881 1984 2565 2268 
Q 2250 2553 1709 2553 
Q 1456 2553 1204 2497 
Q 953 2441 691 2322 
L 691 4666 
z
" transform="scale(0.015625)"/>
       </defs>
       <use xlink:href="#DejaVuSans-35"/>
       <use xlink:href="#DejaVuSans-30" x="63.623047"/>
       <use xlink:href="#DejaVuSans-30" x="127.246094"/>
      </g>
     </g>
    </g>
    <g id="xtick_3">
     <g id="line2d_5">
      <path d="M 182.123103 307.584 
L 182.123103 41.472 
" clip-path="url(#p111f925f02)" style="fill: none; stroke: #ffffff; stroke-width: 0.8; stroke-linecap: square"/>
     </g>
     <g id="line2d_6">
      <g>
       <use xlink:href="#m894015b3b4" x="182.123103" y="307.584" style="fill: #555555; stroke: #555555; stroke-width: 0.8"/>
      </g>
     </g>
     <g id="text_3">
      <!-- 1000 -->
      <g style="fill: #555555" transform="translate(169.398103 322.182437) scale(0.1 -0.1)">
       <defs>
        <path id="DejaVuSans-31" d="M 794 531 
L 1825 531 
L 1825 4091 
L 703 3866 
L 703 4441 
L 1819 4666 
L 2450 4666 
L 2450 531 
L 3481 531 
L 3481 0 
L 794 0 
L 794 531 
z
" transform="scale(0.015625)"/>
       </defs>
       <use xlink:href="#DejaVuSans-31"/>
       <use xlink:href="#DejaVuSans-30" x="63.623047"/>
       <use xlink:href="#DejaVuSans-30" x="127.246094"/>
       <use xlink:href="#DejaVuSans-30" x="190.869141"/>
      </g>
     </g>
    </g>
    <g id="xtick_4">
     <g id="line2d_7">
      <path d="M 236.26829 307.584 
L 236.26829 41.472 
" clip-path="url(#p111f925f02)" style="fill: none; stroke: #ffffff; stroke-width: 0.8; stroke-linecap: square"/>
     </g>
     <g id="line2d_8">
      <g>
       <use xlink:href="#m894015b3b4" x="236.26829" y="307.584" style="fill: #555555; stroke: #555555; stroke-width: 0.8"/>
      </g>
     </g>
     <g id="text_4">
      <!-- 1500 -->
      <g style="fill: #555555" transform="translate(223.54329 322.182437) scale(0.1 -0.1)">
       <use xlink:href="#DejaVuSans-31"/>
       <use xlink:href="#DejaVuSans-35" x="63.623047"/>
       <use xlink:href="#DejaVuSans-30" x="127.246094"/>
       <use xlink:href="#DejaVuSans-30" x="190.869141"/>
      </g>
     </g>
    </g>
    <g id="xtick_5">
     <g id="line2d_9">
      <path d="M 290.413478 307.584 
L 290.413478 41.472 
" clip-path="url(#p111f925f02)" style="fill: none; stroke: #ffffff; stroke-width: 0.8; stroke-linecap: square"/>
     </g>
     <g id="line2d_10">
      <g>
       <use xlink:href="#m894015b3b4" x="290.413478" y="307.584" style="fill: #555555; stroke: #555555; stroke-width: 0.8"/>
      </g>
     </g>
     <g id="text_5">
      <!-- 2000 -->
      <g style="fill: #555555" transform="translate(277.688478 322.182437) scale(0.1 -0.1)">
       <defs>
        <path id="DejaVuSans-32" d="M 1228 531 
L 3431 531 
L 3431 0 
L 469 0 
L 469 531 
Q 828 903 1448 1529 
Q 2069 2156 2228 2338 
Q 2531 2678 2651 2914 
Q 2772 3150 2772 3378 
Q 2772 3750 2511 3984 
Q 2250 4219 1831 4219 
Q 1534 4219 1204 4116 
Q 875 4013 500 3803 
L 500 4441 
Q 881 4594 1212 4672 
Q 1544 4750 1819 4750 
Q 2544 4750 2975 4387 
Q 3406 4025 3406 3419 
Q 3406 3131 3298 2873 
Q 3191 2616 2906 2266 
Q 2828 2175 2409 1742 
Q 1991 1309 1228 531 
z
" transform="scale(0.015625)"/>
       </defs>
       <use xlink:href="#DejaVuSans-32"/>
       <use xlink:href="#DejaVuSans-30" x="63.623047"/>
       <use xlink:href="#DejaVuSans-30" x="127.246094"/>
       <use xlink:href="#DejaVuSans-30" x="190.869141"/>
      </g>
     </g>
    </g>
    <g id="xtick_6">
     <g id="line2d_11">
      <path d="M 344.558666 307.584 
L 344.558666 41.472 
" clip-path="url(#p111f925f02)" style="fill: none; stroke: #ffffff; stroke-width: 0.8; stroke-linecap: square"/>
     </g>
     <g id="line2d_12">
      <g>
       <use xlink:href="#m894015b3b4" x="344.558666" y="307.584" style="fill: #555555; stroke: #555555; stroke-width: 0.8"/>
      </g>
     </g>
     <g id="text_6">
      <!-- 2500 -->
      <g style="fill: #555555" transform="translate(331.833666 322.182437) scale(0.1 -0.1)">
       <use xlink:href="#DejaVuSans-32"/>
       <use xlink:href="#DejaVuSans-35" x="63.623047"/>
       <use xlink:href="#DejaVuSans-30" x="127.246094"/>
       <use xlink:href="#DejaVuSans-30" x="190.869141"/>
      </g>
     </g>
    </g>
    <g id="xtick_7">
     <g id="line2d_13">
      <path d="M 398.703853 307.584 
L 398.703853 41.472 
" clip-path="url(#p111f925f02)" style="fill: none; stroke: #ffffff; stroke-width: 0.8; stroke-linecap: square"/>
     </g>
     <g id="line2d_14">
      <g>
       <use xlink:href="#m894015b3b4" x="398.703853" y="307.584" style="fill: #555555; stroke: #555555; stroke-width: 0.8"/>
      </g>
     </g>
     <g id="text_7">
      <!-- 3000 -->
      <g style="fill: #555555" transform="translate(385.978853 322.182437) scale(0.1 -0.1)">
       <defs>
        <path id="DejaVuSans-33" d="M 2597 2516 
Q 3050 2419 3304 2112 
Q 3559 1806 3559 1356 
Q 3559 666 3084 287 
Q 2609 -91 1734 -91 
Q 1441 -91 1130 -33 
Q 819 25 488 141 
L 488 750 
Q 750 597 1062 519 
Q 1375 441 1716 441 
Q 2309 441 2620 675 
Q 2931 909 2931 1356 
Q 2931 1769 2642 2001 
Q 2353 2234 1838 2234 
L 1294 2234 
L 1294 2753 
L 1863 2753 
Q 2328 2753 2575 2939 
Q 2822 3125 2822 3475 
Q 2822 3834 2567 4026 
Q 2313 4219 1838 4219 
Q 1578 4219 1281 4162 
Q 984 4106 628 3988 
L 628 4550 
Q 988 4650 1302 4700 
Q 1616 4750 1894 4750 
Q 2613 4750 3031 4423 
Q 3450 4097 3450 3541 
Q 3450 3153 3228 2886 
Q 3006 2619 2597 2516 
z
" transform="scale(0.015625)"/>
       </defs>
       <use xlink:href="#DejaVuSans-33"/>
       <use xlink:href="#DejaVuSans-30" x="63.623047"/>
       <use xlink:href="#DejaVuSans-30" x="127.246094"/>
       <use xlink:href="#DejaVuSans-30" x="190.869141"/>
      </g>
     </g>
    </g>
    <g id="text_8">
     <!-- Number of Games -->
     <g style="fill: #555555" transform="translate(181.471875 337.38025) scale(0.12 -0.12)">
      <defs>
       <path id="DejaVuSans-4e" d="M 628 4666 
L 1478 4666 
L 3547 763 
L 3547 4666 
L 4159 4666 
L 4159 0 
L 3309 0 
L 1241 3903 
L 1241 0 
L 628 0 
L 628 4666 
z
" transform="scale(0.015625)"/>
       <path id="DejaVuSans-75" d="M 544 1381 
L 544 3500 
L 1119 3500 
L 1119 1403 
Q 1119 906 1312 657 
Q 1506 409 1894 409 
Q 2359 409 2629 706 
Q 2900 1003 2900 1516 
L 2900 3500 
L 3475 3500 
L 3475 0 
L 2900 0 
L 2900 538 
Q 2691 219 2414 64 
Q 2138 -91 1772 -91 
Q 1169 -91 856 284 
Q 544 659 544 1381 
z
M 1991 3584 
L 1991 3584 
z
" transform="scale(0.015625)"/>
       <path id="DejaVuSans-6d" d="M 3328 2828 
Q 3544 3216 3844 3400 
Q 4144 3584 4550 3584 
Q 5097 3584 5394 3201 
Q 5691 2819 5691 2113 
L 5691 0 
L 5113 0 
L 5113 2094 
Q 5113 2597 4934 2840 
Q 4756 3084 4391 3084 
Q 3944 3084 3684 2787 
Q 3425 2491 3425 1978 
L 3425 0 
L 2847 0 
L 2847 2094 
Q 2847 2600 2669 2842 
Q 2491 3084 2119 3084 
Q 1678 3084 1418 2786 
Q 1159 2488 1159 1978 
L 1159 0 
L 581 0 
L 581 3500 
L 1159 3500 
L 1159 2956 
Q 1356 3278 1631 3431 
Q 1906 3584 2284 3584 
Q 2666 3584 2933 3390 
Q 3200 3197 3328 2828 
z
" transform="scale(0.015625)"/>
       <path id="DejaVuSans-62" d="M 3116 1747 
Q 3116 2381 2855 2742 
Q 2594 3103 2138 3103 
Q 1681 3103 1420 2742 
Q 1159 2381 1159 1747 
Q 1159 1113 1420 752 
Q 1681 391 2138 391 
Q 2594 391 2855 752 
Q 3116 1113 3116 1747 
z
M 1159 2969 
Q 1341 3281 1617 3432 
Q 1894 3584 2278 3584 
Q 2916 3584 3314 3078 
Q 3713 2572 3713 1747 
Q 3713 922 3314 415 
Q 2916 -91 2278 -91 
Q 1894 -91 1617 61 
Q 1341 213 1159 525 
L 1159 0 
L 581 0 
L 581 4863 
L 1159 4863 
L 1159 2969 
z
" transform="scale(0.015625)"/>
       <path id="DejaVuSans-65" d="M 3597 1894 
L 3597 1613 
L 953 1613 
Q 991 1019 1311 708 
Q 1631 397 2203 397 
Q 2534 397 2845 478 
Q 3156 559 3463 722 
L 3463 178 
Q 3153 47 2828 -22 
Q 2503 -91 2169 -91 
Q 1331 -91 842 396 
Q 353 884 353 1716 
Q 353 2575 817 3079 
Q 1281 3584 2069 3584 
Q 2775 3584 3186 3129 
Q 3597 2675 3597 1894 
z
M 3022 2063 
Q 3016 2534 2758 2815 
Q 2500 3097 2075 3097 
Q 1594 3097 1305 2825 
Q 1016 2553 972 2059 
L 3022 2063 
z
" transform="scale(0.015625)"/>
       <path id="DejaVuSans-72" d="M 2631 2963 
Q 2534 3019 2420 3045 
Q 2306 3072 2169 3072 
Q 1681 3072 1420 2755 
Q 1159 2438 1159 1844 
L 1159 0 
L 581 0 
L 581 3500 
L 1159 3500 
L 1159 2956 
Q 1341 3275 1631 3429 
Q 1922 3584 2338 3584 
Q 2397 3584 2469 3576 
Q 2541 3569 2628 3553 
L 2631 2963 
z
" transform="scale(0.015625)"/>
       <path id="DejaVuSans-20" transform="scale(0.015625)"/>
       <path id="DejaVuSans-6f" d="M 1959 3097 
Q 1497 3097 1228 2736 
Q 959 2375 959 1747 
Q 959 1119 1226 758 
Q 1494 397 1959 397 
Q 2419 397 2687 759 
Q 2956 1122 2956 1747 
Q 2956 2369 2687 2733 
Q 2419 3097 1959 3097 
z
M 1959 3584 
Q 2709 3584 3137 3096 
Q 3566 2609 3566 1747 
Q 3566 888 3137 398 
Q 2709 -91 1959 -91 
Q 1206 -91 779 398 
Q 353 888 353 1747 
Q 353 2609 779 3096 
Q 1206 3584 1959 3584 
z
" transform="scale(0.015625)"/>
       <path id="DejaVuSans-66" d="M 2375 4863 
L 2375 4384 
L 1825 4384 
Q 1516 4384 1395 4259 
Q 1275 4134 1275 3809 
L 1275 3500 
L 2222 3500 
L 2222 3053 
L 1275 3053 
L 1275 0 
L 697 0 
L 697 3053 
L 147 3053 
L 147 3500 
L 697 3500 
L 697 3744 
Q 697 4328 969 4595 
Q 1241 4863 1831 4863 
L 2375 4863 
z
" transform="scale(0.015625)"/>
       <path id="DejaVuSans-47" d="M 3809 666 
L 3809 1919 
L 2778 1919 
L 2778 2438 
L 4434 2438 
L 4434 434 
Q 4069 175 3628 42 
Q 3188 -91 2688 -91 
Q 1594 -91 976 548 
Q 359 1188 359 2328 
Q 359 3472 976 4111 
Q 1594 4750 2688 4750 
Q 3144 4750 3555 4637 
Q 3966 4525 4313 4306 
L 4313 3634 
Q 3963 3931 3569 4081 
Q 3175 4231 2741 4231 
Q 1884 4231 1454 3753 
Q 1025 3275 1025 2328 
Q 1025 1384 1454 906 
Q 1884 428 2741 428 
Q 3075 428 3337 486 
Q 3600 544 3809 666 
z
" transform="scale(0.015625)"/>
       <path id="DejaVuSans-61" d="M 2194 1759 
Q 1497 1759 1228 1600 
Q 959 1441 959 1056 
Q 959 750 1161 570 
Q 1363 391 1709 391 
Q 2188 391 2477 730 
Q 2766 1069 2766 1631 
L 2766 1759 
L 2194 1759 
z
M 3341 1997 
L 3341 0 
L 2766 0 
L 2766 531 
Q 2569 213 2275 61 
Q 1981 -91 1556 -91 
Q 1019 -91 701 211 
Q 384 513 384 1019 
Q 384 1609 779 1909 
Q 1175 2209 1959 2209 
L 2766 2209 
L 2766 2266 
Q 2766 2663 2505 2880 
Q 2244 3097 1772 3097 
Q 1472 3097 1187 3025 
Q 903 2953 641 2809 
L 641 3341 
Q 956 3463 1253 3523 
Q 1550 3584 1831 3584 
Q 2591 3584 2966 3190 
Q 3341 2797 3341 1997 
z
" transform="scale(0.015625)"/>
       <path id="DejaVuSans-73" d="M 2834 3397 
L 2834 2853 
Q 2591 2978 2328 3040 
Q 2066 3103 1784 3103 
Q 1356 3103 1142 2972 
Q 928 2841 928 2578 
Q 928 2378 1081 2264 
Q 1234 2150 1697 2047 
L 1894 2003 
Q 2506 1872 2764 1633 
Q 3022 1394 3022 966 
Q 3022 478 2636 193 
Q 2250 -91 1575 -91 
Q 1294 -91 989 -36 
Q 684 19 347 128 
L 347 722 
Q 666 556 975 473 
Q 1284 391 1588 391 
Q 1994 391 2212 530 
Q 2431 669 2431 922 
Q 2431 1156 2273 1281 
Q 2116 1406 1581 1522 
L 1381 1569 
Q 847 1681 609 1914 
Q 372 2147 372 2553 
Q 372 3047 722 3315 
Q 1072 3584 1716 3584 
Q 2034 3584 2315 3537 
Q 2597 3491 2834 3397 
z
" transform="scale(0.015625)"/>
      </defs>
      <use xlink:href="#DejaVuSans-4e"/>
      <use xlink:href="#DejaVuSans-75" x="74.804688"/>
      <use xlink:href="#DejaVuSans-6d" x="138.183594"/>
      <use xlink:href="#DejaVuSans-62" x="235.595703"/>
      <use xlink:href="#DejaVuSans-65" x="299.072266"/>
      <use xlink:href="#DejaVuSans-72" x="360.595703"/>
      <use xlink:href="#DejaVuSans-20" x="401.708984"/>
      <use xlink:href="#DejaVuSans-6f" x="433.496094"/>
      <use xlink:href="#DejaVuSans-66" x="494.677734"/>
      <use xlink:href="#DejaVuSans-20" x="529.882812"/>
      <use xlink:href="#DejaVuSans-47" x="561.669922"/>
      <use xlink:href="#DejaVuSans-61" x="639.160156"/>
      <use xlink:href="#DejaVuSans-6d" x="700.439453"/>
      <use xlink:href="#DejaVuSans-65" x="797.851562"/>
      <use xlink:href="#DejaVuSans-73" x="859.375"/>
     </g>
    </g>
   </g>
   <g id="matplotlib.axis_2">
    <g id="ytick_1">
     <g id="line2d_15">
      <path d="M 57.6 307.584 
L 414.72 307.584 
" clip-path="url(#p111f925f02)" style="fill: none; stroke: #ffffff; stroke-width: 0.8; stroke-linecap: square"/>
     </g>
     <g id="line2d_16">
      <defs>
       <path id="m69593bcdb5" d="M 0 0 
L -3.5 0 
" style="stroke: #555555; stroke-width: 0.8"/>
      </defs>
      <g>
       <use xlink:href="#m69593bcdb5" x="57.6" y="307.584" style="fill: #555555; stroke: #555555; stroke-width: 0.8"/>
      </g>
     </g>
     <g id="text_9">
      <!-- 0 -->
      <g style="fill: #555555" transform="translate(44.2375 311.383219) scale(0.1 -0.1)">
       <use xlink:href="#DejaVuSans-30"/>
      </g>
     </g>
    </g>
    <g id="ytick_2">
     <g id="line2d_17">
      <path d="M 57.6 272.330922 
L 414.72 272.330922 
" clip-path="url(#p111f925f02)" style="fill: none; stroke: #ffffff; stroke-width: 0.8; stroke-linecap: square"/>
     </g>
     <g id="line2d_18">
      <g>
       <use xlink:href="#m69593bcdb5" x="57.6" y="272.330922" style="fill: #555555; stroke: #555555; stroke-width: 0.8"/>
      </g>
     </g>
     <g id="text_10">
      <!-- 200 -->
      <g style="fill: #555555" transform="translate(31.5125 276.130141) scale(0.1 -0.1)">
       <use xlink:href="#DejaVuSans-32"/>
       <use xlink:href="#DejaVuSans-30" x="63.623047"/>
       <use xlink:href="#DejaVuSans-30" x="127.246094"/>
      </g>
     </g>
    </g>
    <g id="ytick_3">
     <g id="line2d_19">
      <path d="M 57.6 237.077844 
L 414.72 237.077844 
" clip-path="url(#p111f925f02)" style="fill: none; stroke: #ffffff; stroke-width: 0.8; stroke-linecap: square"/>
     </g>
     <g id="line2d_20">
      <g>
       <use xlink:href="#m69593bcdb5" x="57.6" y="237.077844" style="fill: #555555; stroke: #555555; stroke-width: 0.8"/>
      </g>
     </g>
     <g id="text_11">
      <!-- 400 -->
      <g style="fill: #555555" transform="translate(31.5125 240.877063) scale(0.1 -0.1)">
       <defs>
        <path id="DejaVuSans-34" d="M 2419 4116 
L 825 1625 
L 2419 1625 
L 2419 4116 
z
M 2253 4666 
L 3047 4666 
L 3047 1625 
L 3713 1625 
L 3713 1100 
L 3047 1100 
L 3047 0 
L 2419 0 
L 2419 1100 
L 313 1100 
L 313 1709 
L 2253 4666 
z
" transform="scale(0.015625)"/>
       </defs>
       <use xlink:href="#DejaVuSans-34"/>
       <use xlink:href="#DejaVuSans-30" x="63.623047"/>
       <use xlink:href="#DejaVuSans-30" x="127.246094"/>
      </g>
     </g>
    </g>
    <g id="ytick_4">
     <g id="line2d_21">
      <path d="M 57.6 201.824766 
L 414.72 201.824766 
" clip-path="url(#p111f925f02)" style="fill: none; stroke: #ffffff; stroke-width: 0.8; stroke-linecap: square"/>
     </g>
     <g id="line2d_22">
      <g>
       <use xlink:href="#m69593bcdb5" x="57.6" y="201.824766" style="fill: #555555; stroke: #555555; stroke-width: 0.8"/>
      </g>
     </g>
     <g id="text_12">
      <!-- 600 -->
      <g style="fill: #555555" transform="translate(31.5125 205.623985) scale(0.1 -0.1)">
       <defs>
        <path id="DejaVuSans-36" d="M 2113 2584 
Q 1688 2584 1439 2293 
Q 1191 2003 1191 1497 
Q 1191 994 1439 701 
Q 1688 409 2113 409 
Q 2538 409 2786 701 
Q 3034 994 3034 1497 
Q 3034 2003 2786 2293 
Q 2538 2584 2113 2584 
z
M 3366 4563 
L 3366 3988 
Q 3128 4100 2886 4159 
Q 2644 4219 2406 4219 
Q 1781 4219 1451 3797 
Q 1122 3375 1075 2522 
Q 1259 2794 1537 2939 
Q 1816 3084 2150 3084 
Q 2853 3084 3261 2657 
Q 3669 2231 3669 1497 
Q 3669 778 3244 343 
Q 2819 -91 2113 -91 
Q 1303 -91 875 529 
Q 447 1150 447 2328 
Q 447 3434 972 4092 
Q 1497 4750 2381 4750 
Q 2619 4750 2861 4703 
Q 3103 4656 3366 4563 
z
" transform="scale(0.015625)"/>
       </defs>
       <use xlink:href="#DejaVuSans-36"/>
       <use xlink:href="#DejaVuSans-30" x="63.623047"/>
       <use xlink:href="#DejaVuSans-30" x="127.246094"/>
      </g>
     </g>
    </g>
    <g id="ytick_5">
     <g id="line2d_23">
      <path d="M 57.6 166.571688 
L 414.72 166.571688 
" clip-path="url(#p111f925f02)" style="fill: none; stroke: #ffffff; stroke-width: 0.8; stroke-linecap: square"/>
     </g>
     <g id="line2d_24">
      <g>
       <use xlink:href="#m69593bcdb5" x="57.6" y="166.571688" style="fill: #555555; stroke: #555555; stroke-width: 0.8"/>
      </g>
     </g>
     <g id="text_13">
      <!-- 800 -->
      <g style="fill: #555555" transform="translate(31.5125 170.370907) scale(0.1 -0.1)">
       <defs>
        <path id="DejaVuSans-38" d="M 2034 2216 
Q 1584 2216 1326 1975 
Q 1069 1734 1069 1313 
Q 1069 891 1326 650 
Q 1584 409 2034 409 
Q 2484 409 2743 651 
Q 3003 894 3003 1313 
Q 3003 1734 2745 1975 
Q 2488 2216 2034 2216 
z
M 1403 2484 
Q 997 2584 770 2862 
Q 544 3141 544 3541 
Q 544 4100 942 4425 
Q 1341 4750 2034 4750 
Q 2731 4750 3128 4425 
Q 3525 4100 3525 3541 
Q 3525 3141 3298 2862 
Q 3072 2584 2669 2484 
Q 3125 2378 3379 2068 
Q 3634 1759 3634 1313 
Q 3634 634 3220 271 
Q 2806 -91 2034 -91 
Q 1263 -91 848 271 
Q 434 634 434 1313 
Q 434 1759 690 2068 
Q 947 2378 1403 2484 
z
M 1172 3481 
Q 1172 3119 1398 2916 
Q 1625 2713 2034 2713 
Q 2441 2713 2670 2916 
Q 2900 3119 2900 3481 
Q 2900 3844 2670 4047 
Q 2441 4250 2034 4250 
Q 1625 4250 1398 4047 
Q 1172 3844 1172 3481 
z
" transform="scale(0.015625)"/>
       </defs>
       <use xlink:href="#DejaVuSans-38"/>
       <use xlink:href="#DejaVuSans-30" x="63.623047"/>
       <use xlink:href="#DejaVuSans-30" x="127.246094"/>
      </g>
     </g>
    </g>
    <g id="ytick_6">
     <g id="line2d_25">
      <path d="M 57.6 131.31861 
L 414.72 131.31861 
" clip-path="url(#p111f925f02)" style="fill: none; stroke: #ffffff; stroke-width: 0.8; stroke-linecap: square"/>
     </g>
     <g id="line2d_26">
      <g>
       <use xlink:href="#m69593bcdb5" x="57.6" y="131.31861" style="fill: #555555; stroke: #555555; stroke-width: 0.8"/>
      </g>
     </g>
     <g id="text_14">
      <!-- 1000 -->
      <g style="fill: #555555" transform="translate(25.15 135.117829) scale(0.1 -0.1)">
       <use xlink:href="#DejaVuSans-31"/>
       <use xlink:href="#DejaVuSans-30" x="63.623047"/>
       <use xlink:href="#DejaVuSans-30" x="127.246094"/>
       <use xlink:href="#DejaVuSans-30" x="190.869141"/>
      </g>
     </g>
    </g>
    <g id="ytick_7">
     <g id="line2d_27">
      <path d="M 57.6 96.065532 
L 414.72 96.065532 
" clip-path="url(#p111f925f02)" style="fill: none; stroke: #ffffff; stroke-width: 0.8; stroke-linecap: square"/>
     </g>
     <g id="line2d_28">
      <g>
       <use xlink:href="#m69593bcdb5" x="57.6" y="96.065532" style="fill: #555555; stroke: #555555; stroke-width: 0.8"/>
      </g>
     </g>
     <g id="text_15">
      <!-- 1200 -->
      <g style="fill: #555555" transform="translate(25.15 99.864751) scale(0.1 -0.1)">
       <use xlink:href="#DejaVuSans-31"/>
       <use xlink:href="#DejaVuSans-32" x="63.623047"/>
       <use xlink:href="#DejaVuSans-30" x="127.246094"/>
       <use xlink:href="#DejaVuSans-30" x="190.869141"/>
      </g>
     </g>
    </g>
    <g id="ytick_8">
     <g id="line2d_29">
      <path d="M 57.6 60.812454 
L 414.72 60.812454 
" clip-path="url(#p111f925f02)" style="fill: none; stroke: #ffffff; stroke-width: 0.8; stroke-linecap: square"/>
     </g>
     <g id="line2d_30">
      <g>
       <use xlink:href="#m69593bcdb5" x="57.6" y="60.812454" style="fill: #555555; stroke: #555555; stroke-width: 0.8"/>
      </g>
     </g>
     <g id="text_16">
      <!-- 1400 -->
      <g style="fill: #555555" transform="translate(25.15 64.611673) scale(0.1 -0.1)">
       <use xlink:href="#DejaVuSans-31"/>
       <use xlink:href="#DejaVuSans-34" x="63.623047"/>
       <use xlink:href="#DejaVuSans-30" x="127.246094"/>
       <use xlink:href="#DejaVuSans-30" x="190.869141"/>
      </g>
     </g>
    </g>
    <g id="text_17">
     <!-- Median reward -->
     <g style="fill: #555555" transform="translate(18.654375 219.03675) rotate(-90) scale(0.12 -0.12)">
      <defs>
       <path id="DejaVuSans-4d" d="M 628 4666 
L 1569 4666 
L 2759 1491 
L 3956 4666 
L 4897 4666 
L 4897 0 
L 4281 0 
L 4281 4097 
L 3078 897 
L 2444 897 
L 1241 4097 
L 1241 0 
L 628 0 
L 628 4666 
z
" transform="scale(0.015625)"/>
       <path id="DejaVuSans-64" d="M 2906 2969 
L 2906 4863 
L 3481 4863 
L 3481 0 
L 2906 0 
L 2906 525 
Q 2725 213 2448 61 
Q 2172 -91 1784 -91 
Q 1150 -91 751 415 
Q 353 922 353 1747 
Q 353 2572 751 3078 
Q 1150 3584 1784 3584 
Q 2172 3584 2448 3432 
Q 2725 3281 2906 2969 
z
M 947 1747 
Q 947 1113 1208 752 
Q 1469 391 1925 391 
Q 2381 391 2643 752 
Q 2906 1113 2906 1747 
Q 2906 2381 2643 2742 
Q 2381 3103 1925 3103 
Q 1469 3103 1208 2742 
Q 947 2381 947 1747 
z
" transform="scale(0.015625)"/>
       <path id="DejaVuSans-69" d="M 603 3500 
L 1178 3500 
L 1178 0 
L 603 0 
L 603 3500 
z
M 603 4863 
L 1178 4863 
L 1178 4134 
L 603 4134 
L 603 4863 
z
" transform="scale(0.015625)"/>
       <path id="DejaVuSans-6e" d="M 3513 2113 
L 3513 0 
L 2938 0 
L 2938 2094 
Q 2938 2591 2744 2837 
Q 2550 3084 2163 3084 
Q 1697 3084 1428 2787 
Q 1159 2491 1159 1978 
L 1159 0 
L 581 0 
L 581 3500 
L 1159 3500 
L 1159 2956 
Q 1366 3272 1645 3428 
Q 1925 3584 2291 3584 
Q 2894 3584 3203 3211 
Q 3513 2838 3513 2113 
z
" transform="scale(0.015625)"/>
       <path id="DejaVuSans-77" d="M 269 3500 
L 844 3500 
L 1563 769 
L 2278 3500 
L 2956 3500 
L 3675 769 
L 4391 3500 
L 4966 3500 
L 4050 0 
L 3372 0 
L 2619 2869 
L 1863 0 
L 1184 0 
L 269 3500 
z
" transform="scale(0.015625)"/>
      </defs>
      <use xlink:href="#DejaVuSans-4d"/>
      <use xlink:href="#DejaVuSans-65" x="86.279297"/>
      <use xlink:href="#DejaVuSans-64" x="147.802734"/>
      <use xlink:href="#DejaVuSans-69" x="211.279297"/>
      <use xlink:href="#DejaVuSans-61" x="239.0625"/>
      <use xlink:href="#DejaVuSans-6e" x="300.341797"/>
      <use xlink:href="#DejaVuSans-20" x="363.720703"/>
      <use xlink:href="#DejaVuSans-72" x="395.507812"/>
      <use xlink:href="#DejaVuSans-65" x="434.371094"/>
      <use xlink:href="#DejaVuSans-77" x="495.894531"/>
      <use xlink:href="#DejaVuSans-61" x="577.681641"/>
      <use xlink:href="#DejaVuSans-72" x="638.960938"/>
      <use xlink:href="#DejaVuSans-64" x="678.324219"/>
     </g>
    </g>
   </g>
   <g id="line2d_31">
    <path d="M 73.832727 304.940019 
L 74.157598 303.794294 
L 74.48247 304.134235 
L 74.59076 303.992593 
L 75.565373 304.463066 
L 75.998535 304.478372 
L 77.298019 304.534075 
L 77.62289 304.592385 
L 78.489213 304.547428 
L 108.810519 304.685958 
L 127.544753 304.522586 
L 186.563008 303.351601 
L 187.10446 303.305482 
L 190.244881 303.186867 
L 192.627269 303.102075 
L 197.933497 302.854647 
L 227.929931 301.446276 
L 228.146512 301.36601 
L 229.879158 301.272672 
L 231.503514 301.127267 
L 232.586418 301.098707 
L 239.08384 300.74578 
L 240.166744 300.608271 
L 246.014424 300.033283 
L 246.664166 299.934391 
L 248.396812 299.827558 
L 248.829974 299.765425 
L 250.346039 299.664486 
L 251.862104 299.483078 
L 252.078685 299.339981 
L 253.703041 299.238544 
L 254.244493 299.124847 
L 255.110816 299.067488 
L 255.760558 298.943326 
L 259.767302 298.294978 
L 260.200463 298.251863 
L 260.850206 298.143091 
L 261.283367 298.0387 
L 262.582852 297.803292 
L 263.340884 297.721695 
L 264.640369 297.573866 
L 264.96524 297.446943 
L 266.156434 297.12433 
L 268.755403 296.460783 
L 269.405145 296.357933 
L 269.946597 296.207587 
L 270.921211 295.729015 
L 272.545566 295.05226 
L 273.303599 294.94712 
L 273.52018 294.816176 
L 273.62847 294.789004 
L 273.953341 294.403944 
L 274.278212 294.253502 
L 274.494793 294.039041 
L 274.927954 293.961664 
L 275.577697 293.74537 
L 276.227439 293.624347 
L 276.768891 293.072329 
L 277.960085 292.736211 
L 278.718118 292.229916 
L 278.934698 292.231982 
L 279.151279 292.095968 
L 279.36786 292.006836 
L 279.584441 291.820441 
L 280.234183 291.637759 
L 280.992215 291.546152 
L 282.39999 291.384049 
L 282.724861 290.8355 
L 283.374604 290.316729 
L 284.349217 289.916861 
L 285.648702 289.648073 
L 285.865282 288.829506 
L 286.731605 287.80464 
L 287.489638 287.485459 
L 288.464251 287.44379 
L 288.680832 287.311171 
L 289.547155 287.272001 
L 289.763736 286.992227 
L 290.305188 283.833473 
L 290.521768 283.300845 
L 290.630059 283.265184 
L 290.84664 282.777174 
L 291.06322 282.707394 
L 292.037834 282.649442 
L 292.470995 282.345065 
L 292.579286 282.073226 
L 293.120737 277.523878 
L 293.337318 274.435851 
L 293.553899 274.100522 
L 293.87877 274.080744 
L 295.719706 274.263049 
L 295.936287 273.913016 
L 296.044578 273.286516 
L 296.261158 270.886832 
L 296.477739 268.727807 
L 297.019191 268.773302 
L 298.968418 268.931203 
L 299.61816 268.74807 
L 300.051321 268.404336 
L 300.592773 268.446773 
L 300.809354 268.256897 
L 301.025935 267.436555 
L 301.242516 265.493067 
L 301.459096 264.751426 
L 301.783967 263.964761 
L 302.000548 262.690844 
L 302.217129 262.112709 
L 302.542 261.741818 
L 302.975162 261.567243 
L 303.624904 260.465845 
L 303.949775 260.147883 
L 304.166356 259.959875 
L 304.382937 259.754428 
L 304.491227 259.696143 
L 304.816098 259.279271 
L 305.140969 259.024988 
L 305.46584 258.650339 
L 305.574131 258.601239 
L 305.790711 258.325103 
L 306.332163 258.165602 
L 306.548744 257.938976 
L 306.657034 257.88642 
L 306.873615 257.611002 
L 307.306777 257.254061 
L 307.523357 257.123358 
L 307.739938 256.780579 
L 307.956519 256.61421 
L 308.1731 256.170032 
L 308.38968 255.549269 
L 308.497971 255.336841 
L 308.714552 254.023934 
L 308.931132 253.646547 
L 309.039423 253.666583 
L 309.256003 253.217189 
L 309.364294 252.165627 
L 309.472584 252.186468 
L 309.689165 252.171953 
L 310.230617 250.092832 
L 310.338907 249.831068 
L 310.555488 248.843136 
L 310.663778 248.85524 
L 310.880359 247.436454 
L 310.988649 247.284503 
L 311.20523 246.196463 
L 311.421811 246.153544 
L 311.530101 245.861415 
L 311.746682 244.053479 
L 312.071553 242.692309 
L 312.288134 240.45017 
L 312.721295 237.870599 
L 314.345651 238.101643 
L 314.453941 237.92904 
L 314.562232 236.243516 
L 314.778813 232.605407 
L 314.995393 232.068837 
L 315.103684 231.979986 
L 315.320264 231.068861 
L 315.428555 230.937222 
L 315.536845 230.592809 
L 315.753426 229.243853 
L 315.970007 229.099727 
L 316.186587 228.81376 
L 316.294878 228.814774 
L 317.269491 226.993254 
L 317.594362 226.672316 
L 317.702653 226.656358 
L 318.352395 224.52703 
L 318.568976 224.299188 
L 318.785556 223.689853 
L 319.002137 223.666032 
L 319.86846 223.875698 
L 320.734783 223.097781 
L 320.951364 222.360958 
L 322.250848 221.417029 
L 322.359139 221.094504 
L 322.68401 218.94965 
L 322.7923 218.941745 
L 323.333752 217.111143 
L 323.658623 216.717435 
L 324.200075 215.795151 
L 324.633237 214.108569 
L 324.741527 214.059926 
L 324.958108 213.512529 
L 325.174689 213.417366 
L 325.49956 213.439708 
L 325.824431 212.779872 
L 326.041012 212.678705 
L 326.149302 212.711252 
L 326.365883 212.432422 
L 326.474173 212.426291 
L 326.690754 211.819225 
L 327.015625 211.361409 
L 327.232206 211.283012 
L 327.665367 210.204926 
L 327.773658 209.840859 
L 327.990238 207.83971 
L 328.206819 207.222387 
L 328.53169 204.025274 
L 328.639981 203.873159 
L 328.856561 202.742528 
L 329.073142 202.66027 
L 329.398013 199.363098 
L 329.722884 198.28216 
L 329.831175 198.184084 
L 330.047755 197.580099 
L 330.156046 197.515345 
L 330.480917 196.759236 
L 330.589207 196.773336 
L 330.697498 196.512738 
L 330.805788 196.547496 
L 331.34724 195.6414 
L 333.188176 196.197074 
L 333.296467 196.176405 
L 333.621338 195.569034 
L 333.729628 195.425987 
L 333.946209 194.374087 
L 334.37937 193.34528 
L 334.595951 191.705494 
L 334.704242 191.388173 
L 334.920822 190.280771 
L 335.245693 190.083666 
L 335.787145 189.608191 
L 336.112016 188.523749 
L 336.545178 186.834655 
L 337.303211 185.035669 
L 337.519791 184.255101 
L 337.628082 184.256741 
L 337.844663 183.862535 
L 338.277824 183.581623 
L 338.602695 183.302487 
L 338.927566 182.757083 
L 339.035857 181.476114 
L 339.144147 181.500741 
L 339.469018 180.422958 
L 340.01047 179.988717 
L 340.227051 179.443789 
L 340.660212 179.137372 
L 341.418245 176.171449 
L 341.851406 175.100057 
L 341.959697 174.51708 
L 342.176278 171.930824 
L 342.284568 171.9099 
L 342.501149 171.406345 
L 343.908924 171.55629 
L 344.125504 171.57418 
L 344.450375 170.680082 
L 344.666956 169.804981 
L 345.100118 168.908365 
L 345.208408 168.2544 
L 345.424989 165.103325 
L 345.64157 162.933994 
L 345.74986 162.976421 
L 345.85815 162.751225 
L 345.966441 162.806311 
L 346.074731 162.507422 
L 346.399602 162.598996 
L 346.724473 162.450322 
L 346.941054 161.761732 
L 347.157635 160.049938 
L 347.265925 159.866416 
L 347.374216 158.88681 
L 347.482506 158.915509 
L 347.807377 158.020066 
L 348.240539 158.066101 
L 348.56541 158.100671 
L 348.998571 158.146729 
L 349.215152 157.738464 
L 349.431733 157.456081 
L 349.756604 154.794615 
L 349.973185 154.074396 
L 350.081475 153.943571 
L 350.298056 153.332459 
L 350.514636 152.628585 
L 350.622927 152.156874 
L 350.839508 152.221867 
L 350.947798 152.090591 
L 351.164379 151.618645 
L 351.380959 151.519834 
L 351.814121 149.437429 
L 352.030702 149.016615 
L 352.247282 148.585559 
L 352.355573 148.506643 
L 352.788734 147.342139 
L 352.897025 147.349667 
L 353.221896 146.817057 
L 353.655057 145.44248 
L 353.763348 145.479073 
L 353.979928 144.923533 
L 354.196509 144.39022 
L 354.3048 144.224352 
L 354.629671 142.935478 
L 354.846251 140.967035 
L 354.954542 140.911872 
L 355.062832 140.619696 
L 355.279413 139.358142 
L 355.387703 139.370164 
L 356.145736 137.965532 
L 356.362317 135.410668 
L 356.578897 135.336341 
L 356.795478 135.285458 
L 356.903769 135.321149 
L 357.120349 135.164725 
L 357.33693 135.227004 
L 357.553511 134.587422 
L 358.311543 131.2783 
L 358.961286 131.45914 
L 359.502738 130.021099 
L 359.719318 129.900678 
L 359.935899 128.869701 
L 360.044189 128.632829 
L 360.15248 128.67263 
L 360.369061 128.051674 
L 360.477351 128.033071 
L 360.802222 127.619497 
L 361.343674 127.484639 
L 361.560255 127.158535 
L 361.668545 126.993711 
L 361.885126 125.938177 
L 362.209997 125.207084 
L 362.426578 125.045651 
L 362.859739 123.669616 
L 363.07632 123.678376 
L 363.401191 123.353721 
L 363.726062 123.49086 
L 363.942643 123.173373 
L 364.375804 122.124964 
L 365.350418 121.15694 
L 365.458708 121.031555 
L 365.783579 119.454453 
L 365.89187 119.485832 
L 366.325031 119.235233 
L 366.541612 118.782842 
L 366.649902 118.617076 
L 366.974773 117.197071 
L 367.083064 117.094923 
L 367.516225 116.00834 
L 367.624516 116.031971 
L 367.841096 113.815509 
L 368.057677 113.640449 
L 368.274258 112.906977 
L 368.382548 112.571513 
L 368.707419 110.259231 
L 369.032291 108.416972 
L 369.248871 108.116879 
L 369.465452 107.3997 
L 369.898614 107.569056 
L 370.331775 107.565964 
L 370.548356 107.63667 
L 370.764937 107.639543 
L 370.873227 107.701938 
L 371.089808 107.5828 
L 371.198098 107.631865 
L 371.414679 107.52663 
L 371.73955 105.46409 
L 372.281002 105.237406 
L 372.389292 105.046695 
L 372.822454 105.150602 
L 373.255615 104.705085 
L 373.363906 104.73993 
L 373.472196 104.613639 
L 373.905358 104.768095 
L 374.230229 104.84755 
L 374.446809 104.452134 
L 374.5551 104.476081 
L 374.771681 104.240886 
L 374.879971 104.222354 
L 375.529713 103.60219 
L 375.746294 102.784473 
L 375.962875 102.221179 
L 376.287746 101.848727 
L 376.396036 101.705078 
L 376.504327 101.765536 
L 376.612617 100.686244 
L 376.720907 100.752377 
L 376.937488 100.346074 
L 377.47894 98.815146 
L 377.58723 98.795887 
L 377.803811 97.826554 
L 377.912101 97.829002 
L 378.345263 97.322762 
L 378.670134 95.847391 
L 378.886715 95.756598 
L 379.319876 94.785953 
L 379.536457 93.917329 
L 379.753038 93.576672 
L 379.969619 93.616453 
L 380.29449 93.75229 
L 380.40278 93.510306 
L 380.51107 93.576849 
L 380.619361 93.504646 
L 380.727651 93.264933 
L 380.944232 92.188066 
L 381.269103 91.769125 
L 381.593974 90.735534 
L 381.702265 90.627336 
L 381.918845 90.254782 
L 382.243716 89.790818 
L 382.460297 88.861959 
L 382.785168 88.645834 
L 383.001749 87.311141 
L 383.21833 86.139287 
L 383.434911 86.233991 
L 383.543201 86.106815 
L 383.651491 86.180566 
L 383.868072 85.986401 
L 384.626105 86.359516 
L 384.734395 86.407269 
L 384.842685 86.299951 
L 384.950976 86.362104 
L 385.167557 86.198164 
L 385.384137 86.151247 
L 385.600718 85.266584 
L 385.925589 83.201766 
L 386.358751 80.462473 
L 386.467041 80.363142 
L 386.791912 78.882918 
L 386.900203 78.842965 
L 387.008493 78.652973 
L 387.225074 78.740197 
L 387.658235 78.055636 
L 387.766526 77.981919 
L 388.091397 77.084184 
L 388.632849 76.729376 
L 388.741139 76.690881 
L 388.849429 75.940386 
L 388.95772 75.958683 
L 389.06601 75.908931 
L 389.390881 75.080336 
L 389.499172 75.086505 
L 389.824043 74.504332 
L 390.257204 74.446458 
L 390.906946 74.654553 
L 391.015237 74.575893 
L 391.231818 74.658485 
L 391.664979 74.199858 
L 391.88156 73.990542 
L 392.098141 73.588217 
L 392.206431 73.566972 
L 392.423012 73.447622 
L 392.856173 70.851626 
L 392.964464 70.882541 
L 393.181044 70.733447 
L 393.397625 69.855549 
L 393.830787 69.443137 
L 394.155658 68.397704 
L 394.372238 68.400557 
L 394.69711 67.826675 
L 395.238561 63.311279 
L 395.346852 63.189069 
L 395.455142 62.70486 
L 395.563433 60.38217 
L 395.671723 60.442967 
L 395.888304 58.250177 
L 396.104884 58.043838 
L 396.321465 57.839196 
L 396.646336 57.931206 
L 396.754627 57.901386 
L 396.862917 57.532169 
L 396.971207 57.562203 
L 397.187788 57.499585 
L 397.296079 57.516563 
L 397.62095 56.377827 
L 397.72924 56.177004 
L 398.162402 54.398418 
L 398.378982 54.302276 
L 398.487273 54.018096 
L 398.487273 54.018096 
" clip-path="url(#p111f925f02)" style="fill: none; stroke: #d62728; stroke-width: 1.5; stroke-linecap: square"/>
   </g>
   <g id="patch_3">
    <path d="M 57.6 307.584 
L 57.6 41.472 
" style="fill: none; stroke: #ffffff; stroke-linejoin: miter; stroke-linecap: square"/>
   </g>
   <g id="patch_4">
    <path d="M 414.72 307.584 
L 414.72 41.472 
" style="fill: none; stroke: #ffffff; stroke-linejoin: miter; stroke-linecap: square"/>
   </g>
   <g id="patch_5">
    <path d="M 57.6 307.584 
L 414.72 307.584 
" style="fill: none; stroke: #ffffff; stroke-linejoin: miter; stroke-linecap: square"/>
   </g>
   <g id="patch_6">
    <path d="M 57.6 41.472 
L 414.72 41.472 
" style="fill: none; stroke: #ffffff; stroke-linejoin: miter; stroke-linecap: square"/>
   </g>
   <g id="text_18">
    <!-- 1438.546182060687 -->
    <g transform="translate(398.487273 54.018096) scale(0.1 -0.1)">
     <defs>
      <path id="DejaVuSans-2e" d="M 684 794 
L 1344 794 
L 1344 0 
L 684 0 
L 684 794 
z
" transform="scale(0.015625)"/>
      <path id="DejaVuSans-37" d="M 525 4666 
L 3525 4666 
L 3525 4397 
L 1831 0 
L 1172 0 
L 2766 4134 
L 525 4134 
L 525 4666 
z
" transform="scale(0.015625)"/>
     </defs>
     <use xlink:href="#DejaVuSans-31"/>
     <use xlink:href="#DejaVuSans-34" x="63.623047"/>
     <use xlink:href="#DejaVuSans-33" x="127.246094"/>
     <use xlink:href="#DejaVuSans-38" x="190.869141"/>
     <use xlink:href="#DejaVuSans-2e" x="254.492188"/>
     <use xlink:href="#DejaVuSans-35" x="286.279297"/>
     <use xlink:href="#DejaVuSans-34" x="349.902344"/>
     <use xlink:href="#DejaVuSans-36" x="413.525391"/>
     <use xlink:href="#DejaVuSans-31" x="477.148438"/>
     <use xlink:href="#DejaVuSans-38" x="540.771484"/>
     <use xlink:href="#DejaVuSans-32" x="604.394531"/>
     <use xlink:href="#DejaVuSans-30" x="668.017578"/>
     <use xlink:href="#DejaVuSans-36" x="731.640625"/>
     <use xlink:href="#DejaVuSans-30" x="795.263672"/>
     <use xlink:href="#DejaVuSans-36" x="858.886719"/>
     <use xlink:href="#DejaVuSans-38" x="922.509766"/>
     <use xlink:href="#DejaVuSans-37" x="986.132812"/>
    </g>
   </g>
   <g id="text_19">
    <!-- Epoch: 3000 -->
    <g transform="translate(191.0745 35.472) scale(0.144 -0.144)">
     <defs>
      <path id="DejaVuSans-45" d="M 628 4666 
L 3578 4666 
L 3578 4134 
L 1259 4134 
L 1259 2753 
L 3481 2753 
L 3481 2222 
L 1259 2222 
L 1259 531 
L 3634 531 
L 3634 0 
L 628 0 
L 628 4666 
z
" transform="scale(0.015625)"/>
      <path id="DejaVuSans-70" d="M 1159 525 
L 1159 -1331 
L 581 -1331 
L 581 3500 
L 1159 3500 
L 1159 2969 
Q 1341 3281 1617 3432 
Q 1894 3584 2278 3584 
Q 2916 3584 3314 3078 
Q 3713 2572 3713 1747 
Q 3713 922 3314 415 
Q 2916 -91 2278 -91 
Q 1894 -91 1617 61 
Q 1341 213 1159 525 
z
M 3116 1747 
Q 3116 2381 2855 2742 
Q 2594 3103 2138 3103 
Q 1681 3103 1420 2742 
Q 1159 2381 1159 1747 
Q 1159 1113 1420 752 
Q 1681 391 2138 391 
Q 2594 391 2855 752 
Q 3116 1113 3116 1747 
z
" transform="scale(0.015625)"/>
      <path id="DejaVuSans-63" d="M 3122 3366 
L 3122 2828 
Q 2878 2963 2633 3030 
Q 2388 3097 2138 3097 
Q 1578 3097 1268 2742 
Q 959 2388 959 1747 
Q 959 1106 1268 751 
Q 1578 397 2138 397 
Q 2388 397 2633 464 
Q 2878 531 3122 666 
L 3122 134 
Q 2881 22 2623 -34 
Q 2366 -91 2075 -91 
Q 1284 -91 818 406 
Q 353 903 353 1747 
Q 353 2603 823 3093 
Q 1294 3584 2113 3584 
Q 2378 3584 2631 3529 
Q 2884 3475 3122 3366 
z
" transform="scale(0.015625)"/>
      <path id="DejaVuSans-68" d="M 3513 2113 
L 3513 0 
L 2938 0 
L 2938 2094 
Q 2938 2591 2744 2837 
Q 2550 3084 2163 3084 
Q 1697 3084 1428 2787 
Q 1159 2491 1159 1978 
L 1159 0 
L 581 0 
L 581 4863 
L 1159 4863 
L 1159 2956 
Q 1366 3272 1645 3428 
Q 1925 3584 2291 3584 
Q 2894 3584 3203 3211 
Q 3513 2838 3513 2113 
z
" transform="scale(0.015625)"/>
      <path id="DejaVuSans-3a" d="M 750 794 
L 1409 794 
L 1409 0 
L 750 0 
L 750 794 
z
M 750 3309 
L 1409 3309 
L 1409 2516 
L 750 2516 
L 750 3309 
z
" transform="scale(0.015625)"/>
     </defs>
     <use xlink:href="#DejaVuSans-45"/>
     <use xlink:href="#DejaVuSans-70" x="63.183594"/>
     <use xlink:href="#DejaVuSans-6f" x="126.660156"/>
     <use xlink:href="#DejaVuSans-63" x="187.841797"/>
     <use xlink:href="#DejaVuSans-68" x="242.822266"/>
     <use xlink:href="#DejaVuSans-3a" x="306.201172"/>
     <use xlink:href="#DejaVuSans-20" x="339.892578"/>
     <use xlink:href="#DejaVuSans-33" x="371.679688"/>
     <use xlink:href="#DejaVuSans-30" x="435.302734"/>
     <use xlink:href="#DejaVuSans-30" x="498.925781"/>
     <use xlink:href="#DejaVuSans-30" x="562.548828"/>
    </g>
   </g>
  </g>
 </g>
 <defs>
  <clipPath id="p111f925f02">
   <rect x="57.6" y="41.472" width="357.12" height="266.112"/>
  </clipPath>
 </defs>
</svg>
