<?xml version="1.0" encoding="utf-8" standalone="no"?>
<!DOCTYPE svg PUBLIC "-//W3C//DTD SVG 1.1//EN"
  "http://www.w3.org/Graphics/SVG/1.1/DTD/svg11.dtd">
<svg xmlns:xlink="http://www.w3.org/1999/xlink" width="460.8pt" height="345.6pt" viewBox="0 0 460.8 345.6" xmlns="http://www.w3.org/2000/svg" version="1.1">
 <metadata>
  <rdf:RDF xmlns:dc="http://purl.org/dc/elements/1.1/" xmlns:cc="http://creativecommons.org/ns#" xmlns:rdf="http://www.w3.org/1999/02/22-rdf-syntax-ns#">
   <cc:Work>
    <dc:type rdf:resource="http://purl.org/dc/dcmitype/StillImage"/>
    <dc:date>2024-09-04T21:58:09.675328</dc:date>
    <dc:format>image/svg+xml</dc:format>
    <dc:creator>
     <cc:Agent>
      <dc:title>Matplotlib v3.8.4, https://matplotlib.org/</dc:title>
     </cc:Agent>
    </dc:creator>
   </cc:Work>
  </rdf:RDF>
 </metadata>
 <defs>
  <style type="text/css">*{stroke-linejoin: round; stroke-linecap: butt}</style>
 </defs>
 <g id="figure_1">
  <g id="patch_1">
   <path d="M 0 345.6 
L 460.8 345.6 
L 460.8 0 
L 0 0 
z
" style="fill: #ffffff"/>
  </g>
  <g id="axes_1">
   <g id="patch_2">
    <path d="M 57.6 307.584 
L 414.72 307.584 
L 414.72 41.472 
L 57.6 41.472 
z
" style="fill: #e5e5e5"/>
   </g>
   <g id="matplotlib.axis_1">
    <g id="xtick_1">
     <g id="line2d_1">
      <path d="M 73.832727 307.584 
L 73.832727 41.472 
" clip-path="url(#p32def6777b)" style="fill: none; stroke: #ffffff; stroke-width: 0.8; stroke-linecap: square"/>
     </g>
     <g id="line2d_2">
      <defs>
       <path id="mc374990de4" d="M 0 0 
L 0 3.5 
" style="stroke: #555555; stroke-width: 0.8"/>
      </defs>
      <g>
       <use xlink:href="#mc374990de4" x="73.832727" y="307.584" style="fill: #555555; stroke: #555555; stroke-width: 0.8"/>
      </g>
     </g>
     <g id="text_1">
      <!-- 0 -->
      <g style="fill: #555555" transform="translate(70.651477 322.182437) scale(0.1 -0.1)">
       <defs>
        <path id="DejaVuSans-30" d="M 2034 4250 
Q 1547 4250 1301 3770 
Q 1056 3291 1056 2328 
Q 1056 1369 1301 889 
Q 1547 409 2034 409 
Q 2525 409 2770 889 
Q 3016 1369 3016 2328 
Q 3016 3291 2770 3770 
Q 2525 4250 2034 4250 
z
M 2034 4750 
Q 2819 4750 3233 4129 
Q 3647 3509 3647 2328 
Q 3647 1150 3233 529 
Q 2819 -91 2034 -91 
Q 1250 -91 836 529 
Q 422 1150 422 2328 
Q 422 3509 836 4129 
Q 1250 4750 2034 4750 
z
" transform="scale(0.015625)"/>
       </defs>
       <use xlink:href="#DejaVuSans-30"/>
      </g>
     </g>
    </g>
    <g id="xtick_2">
     <g id="line2d_3">
      <path d="M 138.776625 307.584 
L 138.776625 41.472 
" clip-path="url(#p32def6777b)" style="fill: none; stroke: #ffffff; stroke-width: 0.8; stroke-linecap: square"/>
     </g>
     <g id="line2d_4">
      <g>
       <use xlink:href="#mc374990de4" x="138.776625" y="307.584" style="fill: #555555; stroke: #555555; stroke-width: 0.8"/>
      </g>
     </g>
     <g id="text_2">
      <!-- 2000 -->
      <g style="fill: #555555" transform="translate(126.051625 322.182437) scale(0.1 -0.1)">
       <defs>
        <path id="DejaVuSans-32" d="M 1228 531 
L 3431 531 
L 3431 0 
L 469 0 
L 469 531 
Q 828 903 1448 1529 
Q 2069 2156 2228 2338 
Q 2531 2678 2651 2914 
Q 2772 3150 2772 3378 
Q 2772 3750 2511 3984 
Q 2250 4219 1831 4219 
Q 1534 4219 1204 4116 
Q 875 4013 500 3803 
L 500 4441 
Q 881 4594 1212 4672 
Q 1544 4750 1819 4750 
Q 2544 4750 2975 4387 
Q 3406 4025 3406 3419 
Q 3406 3131 3298 2873 
Q 3191 2616 2906 2266 
Q 2828 2175 2409 1742 
Q 1991 1309 1228 531 
z
" transform="scale(0.015625)"/>
       </defs>
       <use xlink:href="#DejaVuSans-32"/>
       <use xlink:href="#DejaVuSans-30" x="63.623047"/>
       <use xlink:href="#DejaVuSans-30" x="127.246094"/>
       <use xlink:href="#DejaVuSans-30" x="190.869141"/>
      </g>
     </g>
    </g>
    <g id="xtick_3">
     <g id="line2d_5">
      <path d="M 203.720523 307.584 
L 203.720523 41.472 
" clip-path="url(#p32def6777b)" style="fill: none; stroke: #ffffff; stroke-width: 0.8; stroke-linecap: square"/>
     </g>
     <g id="line2d_6">
      <g>
       <use xlink:href="#mc374990de4" x="203.720523" y="307.584" style="fill: #555555; stroke: #555555; stroke-width: 0.8"/>
      </g>
     </g>
     <g id="text_3">
      <!-- 4000 -->
      <g style="fill: #555555" transform="translate(190.995523 322.182437) scale(0.1 -0.1)">
       <defs>
        <path id="DejaVuSans-34" d="M 2419 4116 
L 825 1625 
L 2419 1625 
L 2419 4116 
z
M 2253 4666 
L 3047 4666 
L 3047 1625 
L 3713 1625 
L 3713 1100 
L 3047 1100 
L 3047 0 
L 2419 0 
L 2419 1100 
L 313 1100 
L 313 1709 
L 2253 4666 
z
" transform="scale(0.015625)"/>
       </defs>
       <use xlink:href="#DejaVuSans-34"/>
       <use xlink:href="#DejaVuSans-30" x="63.623047"/>
       <use xlink:href="#DejaVuSans-30" x="127.246094"/>
       <use xlink:href="#DejaVuSans-30" x="190.869141"/>
      </g>
     </g>
    </g>
    <g id="xtick_4">
     <g id="line2d_7">
      <path d="M 268.664421 307.584 
L 268.664421 41.472 
" clip-path="url(#p32def6777b)" style="fill: none; stroke: #ffffff; stroke-width: 0.8; stroke-linecap: square"/>
     </g>
     <g id="line2d_8">
      <g>
       <use xlink:href="#mc374990de4" x="268.664421" y="307.584" style="fill: #555555; stroke: #555555; stroke-width: 0.8"/>
      </g>
     </g>
     <g id="text_4">
      <!-- 6000 -->
      <g style="fill: #555555" transform="translate(255.939421 322.182437) scale(0.1 -0.1)">
       <defs>
        <path id="DejaVuSans-36" d="M 2113 2584 
Q 1688 2584 1439 2293 
Q 1191 2003 1191 1497 
Q 1191 994 1439 701 
Q 1688 409 2113 409 
Q 2538 409 2786 701 
Q 3034 994 3034 1497 
Q 3034 2003 2786 2293 
Q 2538 2584 2113 2584 
z
M 3366 4563 
L 3366 3988 
Q 3128 4100 2886 4159 
Q 2644 4219 2406 4219 
Q 1781 4219 1451 3797 
Q 1122 3375 1075 2522 
Q 1259 2794 1537 2939 
Q 1816 3084 2150 3084 
Q 2853 3084 3261 2657 
Q 3669 2231 3669 1497 
Q 3669 778 3244 343 
Q 2819 -91 2113 -91 
Q 1303 -91 875 529 
Q 447 1150 447 2328 
Q 447 3434 972 4092 
Q 1497 4750 2381 4750 
Q 2619 4750 2861 4703 
Q 3103 4656 3366 4563 
z
" transform="scale(0.015625)"/>
       </defs>
       <use xlink:href="#DejaVuSans-36"/>
       <use xlink:href="#DejaVuSans-30" x="63.623047"/>
       <use xlink:href="#DejaVuSans-30" x="127.246094"/>
       <use xlink:href="#DejaVuSans-30" x="190.869141"/>
      </g>
     </g>
    </g>
    <g id="xtick_5">
     <g id="line2d_9">
      <path d="M 333.608319 307.584 
L 333.608319 41.472 
" clip-path="url(#p32def6777b)" style="fill: none; stroke: #ffffff; stroke-width: 0.8; stroke-linecap: square"/>
     </g>
     <g id="line2d_10">
      <g>
       <use xlink:href="#mc374990de4" x="333.608319" y="307.584" style="fill: #555555; stroke: #555555; stroke-width: 0.8"/>
      </g>
     </g>
     <g id="text_5">
      <!-- 8000 -->
      <g style="fill: #555555" transform="translate(320.883319 322.182437) scale(0.1 -0.1)">
       <defs>
        <path id="DejaVuSans-38" d="M 2034 2216 
Q 1584 2216 1326 1975 
Q 1069 1734 1069 1313 
Q 1069 891 1326 650 
Q 1584 409 2034 409 
Q 2484 409 2743 651 
Q 3003 894 3003 1313 
Q 3003 1734 2745 1975 
Q 2488 2216 2034 2216 
z
M 1403 2484 
Q 997 2584 770 2862 
Q 544 3141 544 3541 
Q 544 4100 942 4425 
Q 1341 4750 2034 4750 
Q 2731 4750 3128 4425 
Q 3525 4100 3525 3541 
Q 3525 3141 3298 2862 
Q 3072 2584 2669 2484 
Q 3125 2378 3379 2068 
Q 3634 1759 3634 1313 
Q 3634 634 3220 271 
Q 2806 -91 2034 -91 
Q 1263 -91 848 271 
Q 434 634 434 1313 
Q 434 1759 690 2068 
Q 947 2378 1403 2484 
z
M 1172 3481 
Q 1172 3119 1398 2916 
Q 1625 2713 2034 2713 
Q 2441 2713 2670 2916 
Q 2900 3119 2900 3481 
Q 2900 3844 2670 4047 
Q 2441 4250 2034 4250 
Q 1625 4250 1398 4047 
Q 1172 3844 1172 3481 
z
" transform="scale(0.015625)"/>
       </defs>
       <use xlink:href="#DejaVuSans-38"/>
       <use xlink:href="#DejaVuSans-30" x="63.623047"/>
       <use xlink:href="#DejaVuSans-30" x="127.246094"/>
       <use xlink:href="#DejaVuSans-30" x="190.869141"/>
      </g>
     </g>
    </g>
    <g id="xtick_6">
     <g id="line2d_11">
      <path d="M 398.552217 307.584 
L 398.552217 41.472 
" clip-path="url(#p32def6777b)" style="fill: none; stroke: #ffffff; stroke-width: 0.8; stroke-linecap: square"/>
     </g>
     <g id="line2d_12">
      <g>
       <use xlink:href="#mc374990de4" x="398.552217" y="307.584" style="fill: #555555; stroke: #555555; stroke-width: 0.8"/>
      </g>
     </g>
     <g id="text_6">
      <!-- 10000 -->
      <g style="fill: #555555" transform="translate(382.645967 322.182437) scale(0.1 -0.1)">
       <defs>
        <path id="DejaVuSans-31" d="M 794 531 
L 1825 531 
L 1825 4091 
L 703 3866 
L 703 4441 
L 1819 4666 
L 2450 4666 
L 2450 531 
L 3481 531 
L 3481 0 
L 794 0 
L 794 531 
z
" transform="scale(0.015625)"/>
       </defs>
       <use xlink:href="#DejaVuSans-31"/>
       <use xlink:href="#DejaVuSans-30" x="63.623047"/>
       <use xlink:href="#DejaVuSans-30" x="127.246094"/>
       <use xlink:href="#DejaVuSans-30" x="190.869141"/>
       <use xlink:href="#DejaVuSans-30" x="254.492188"/>
      </g>
     </g>
    </g>
    <g id="text_7">
     <!-- Number of Games -->
     <g style="fill: #555555" transform="translate(181.471875 337.38025) scale(0.12 -0.12)">
      <defs>
       <path id="DejaVuSans-4e" d="M 628 4666 
L 1478 4666 
L 3547 763 
L 3547 4666 
L 4159 4666 
L 4159 0 
L 3309 0 
L 1241 3903 
L 1241 0 
L 628 0 
L 628 4666 
z
" transform="scale(0.015625)"/>
       <path id="DejaVuSans-75" d="M 544 1381 
L 544 3500 
L 1119 3500 
L 1119 1403 
Q 1119 906 1312 657 
Q 1506 409 1894 409 
Q 2359 409 2629 706 
Q 2900 1003 2900 1516 
L 2900 3500 
L 3475 3500 
L 3475 0 
L 2900 0 
L 2900 538 
Q 2691 219 2414 64 
Q 2138 -91 1772 -91 
Q 1169 -91 856 284 
Q 544 659 544 1381 
z
M 1991 3584 
L 1991 3584 
z
" transform="scale(0.015625)"/>
       <path id="DejaVuSans-6d" d="M 3328 2828 
Q 3544 3216 3844 3400 
Q 4144 3584 4550 3584 
Q 5097 3584 5394 3201 
Q 5691 2819 5691 2113 
L 5691 0 
L 5113 0 
L 5113 2094 
Q 5113 2597 4934 2840 
Q 4756 3084 4391 3084 
Q 3944 3084 3684 2787 
Q 3425 2491 3425 1978 
L 3425 0 
L 2847 0 
L 2847 2094 
Q 2847 2600 2669 2842 
Q 2491 3084 2119 3084 
Q 1678 3084 1418 2786 
Q 1159 2488 1159 1978 
L 1159 0 
L 581 0 
L 581 3500 
L 1159 3500 
L 1159 2956 
Q 1356 3278 1631 3431 
Q 1906 3584 2284 3584 
Q 2666 3584 2933 3390 
Q 3200 3197 3328 2828 
z
" transform="scale(0.015625)"/>
       <path id="DejaVuSans-62" d="M 3116 1747 
Q 3116 2381 2855 2742 
Q 2594 3103 2138 3103 
Q 1681 3103 1420 2742 
Q 1159 2381 1159 1747 
Q 1159 1113 1420 752 
Q 1681 391 2138 391 
Q 2594 391 2855 752 
Q 3116 1113 3116 1747 
z
M 1159 2969 
Q 1341 3281 1617 3432 
Q 1894 3584 2278 3584 
Q 2916 3584 3314 3078 
Q 3713 2572 3713 1747 
Q 3713 922 3314 415 
Q 2916 -91 2278 -91 
Q 1894 -91 1617 61 
Q 1341 213 1159 525 
L 1159 0 
L 581 0 
L 581 4863 
L 1159 4863 
L 1159 2969 
z
" transform="scale(0.015625)"/>
       <path id="DejaVuSans-65" d="M 3597 1894 
L 3597 1613 
L 953 1613 
Q 991 1019 1311 708 
Q 1631 397 2203 397 
Q 2534 397 2845 478 
Q 3156 559 3463 722 
L 3463 178 
Q 3153 47 2828 -22 
Q 2503 -91 2169 -91 
Q 1331 -91 842 396 
Q 353 884 353 1716 
Q 353 2575 817 3079 
Q 1281 3584 2069 3584 
Q 2775 3584 3186 3129 
Q 3597 2675 3597 1894 
z
M 3022 2063 
Q 3016 2534 2758 2815 
Q 2500 3097 2075 3097 
Q 1594 3097 1305 2825 
Q 1016 2553 972 2059 
L 3022 2063 
z
" transform="scale(0.015625)"/>
       <path id="DejaVuSans-72" d="M 2631 2963 
Q 2534 3019 2420 3045 
Q 2306 3072 2169 3072 
Q 1681 3072 1420 2755 
Q 1159 2438 1159 1844 
L 1159 0 
L 581 0 
L 581 3500 
L 1159 3500 
L 1159 2956 
Q 1341 3275 1631 3429 
Q 1922 3584 2338 3584 
Q 2397 3584 2469 3576 
Q 2541 3569 2628 3553 
L 2631 2963 
z
" transform="scale(0.015625)"/>
       <path id="DejaVuSans-20" transform="scale(0.015625)"/>
       <path id="DejaVuSans-6f" d="M 1959 3097 
Q 1497 3097 1228 2736 
Q 959 2375 959 1747 
Q 959 1119 1226 758 
Q 1494 397 1959 397 
Q 2419 397 2687 759 
Q 2956 1122 2956 1747 
Q 2956 2369 2687 2733 
Q 2419 3097 1959 3097 
z
M 1959 3584 
Q 2709 3584 3137 3096 
Q 3566 2609 3566 1747 
Q 3566 888 3137 398 
Q 2709 -91 1959 -91 
Q 1206 -91 779 398 
Q 353 888 353 1747 
Q 353 2609 779 3096 
Q 1206 3584 1959 3584 
z
" transform="scale(0.015625)"/>
       <path id="DejaVuSans-66" d="M 2375 4863 
L 2375 4384 
L 1825 4384 
Q 1516 4384 1395 4259 
Q 1275 4134 1275 3809 
L 1275 3500 
L 2222 3500 
L 2222 3053 
L 1275 3053 
L 1275 0 
L 697 0 
L 697 3053 
L 147 3053 
L 147 3500 
L 697 3500 
L 697 3744 
Q 697 4328 969 4595 
Q 1241 4863 1831 4863 
L 2375 4863 
z
" transform="scale(0.015625)"/>
       <path id="DejaVuSans-47" d="M 3809 666 
L 3809 1919 
L 2778 1919 
L 2778 2438 
L 4434 2438 
L 4434 434 
Q 4069 175 3628 42 
Q 3188 -91 2688 -91 
Q 1594 -91 976 548 
Q 359 1188 359 2328 
Q 359 3472 976 4111 
Q 1594 4750 2688 4750 
Q 3144 4750 3555 4637 
Q 3966 4525 4313 4306 
L 4313 3634 
Q 3963 3931 3569 4081 
Q 3175 4231 2741 4231 
Q 1884 4231 1454 3753 
Q 1025 3275 1025 2328 
Q 1025 1384 1454 906 
Q 1884 428 2741 428 
Q 3075 428 3337 486 
Q 3600 544 3809 666 
z
" transform="scale(0.015625)"/>
       <path id="DejaVuSans-61" d="M 2194 1759 
Q 1497 1759 1228 1600 
Q 959 1441 959 1056 
Q 959 750 1161 570 
Q 1363 391 1709 391 
Q 2188 391 2477 730 
Q 2766 1069 2766 1631 
L 2766 1759 
L 2194 1759 
z
M 3341 1997 
L 3341 0 
L 2766 0 
L 2766 531 
Q 2569 213 2275 61 
Q 1981 -91 1556 -91 
Q 1019 -91 701 211 
Q 384 513 384 1019 
Q 384 1609 779 1909 
Q 1175 2209 1959 2209 
L 2766 2209 
L 2766 2266 
Q 2766 2663 2505 2880 
Q 2244 3097 1772 3097 
Q 1472 3097 1187 3025 
Q 903 2953 641 2809 
L 641 3341 
Q 956 3463 1253 3523 
Q 1550 3584 1831 3584 
Q 2591 3584 2966 3190 
Q 3341 2797 3341 1997 
z
" transform="scale(0.015625)"/>
       <path id="DejaVuSans-73" d="M 2834 3397 
L 2834 2853 
Q 2591 2978 2328 3040 
Q 2066 3103 1784 3103 
Q 1356 3103 1142 2972 
Q 928 2841 928 2578 
Q 928 2378 1081 2264 
Q 1234 2150 1697 2047 
L 1894 2003 
Q 2506 1872 2764 1633 
Q 3022 1394 3022 966 
Q 3022 478 2636 193 
Q 2250 -91 1575 -91 
Q 1294 -91 989 -36 
Q 684 19 347 128 
L 347 722 
Q 666 556 975 473 
Q 1284 391 1588 391 
Q 1994 391 2212 530 
Q 2431 669 2431 922 
Q 2431 1156 2273 1281 
Q 2116 1406 1581 1522 
L 1381 1569 
Q 847 1681 609 1914 
Q 372 2147 372 2553 
Q 372 3047 722 3315 
Q 1072 3584 1716 3584 
Q 2034 3584 2315 3537 
Q 2597 3491 2834 3397 
z
" transform="scale(0.015625)"/>
      </defs>
      <use xlink:href="#DejaVuSans-4e"/>
      <use xlink:href="#DejaVuSans-75" x="74.804688"/>
      <use xlink:href="#DejaVuSans-6d" x="138.183594"/>
      <use xlink:href="#DejaVuSans-62" x="235.595703"/>
      <use xlink:href="#DejaVuSans-65" x="299.072266"/>
      <use xlink:href="#DejaVuSans-72" x="360.595703"/>
      <use xlink:href="#DejaVuSans-20" x="401.708984"/>
      <use xlink:href="#DejaVuSans-6f" x="433.496094"/>
      <use xlink:href="#DejaVuSans-66" x="494.677734"/>
      <use xlink:href="#DejaVuSans-20" x="529.882812"/>
      <use xlink:href="#DejaVuSans-47" x="561.669922"/>
      <use xlink:href="#DejaVuSans-61" x="639.160156"/>
      <use xlink:href="#DejaVuSans-6d" x="700.439453"/>
      <use xlink:href="#DejaVuSans-65" x="797.851562"/>
      <use xlink:href="#DejaVuSans-73" x="859.375"/>
     </g>
    </g>
   </g>
   <g id="matplotlib.axis_2">
    <g id="ytick_1">
     <g id="line2d_13">
      <path d="M 57.6 307.584 
L 414.72 307.584 
" clip-path="url(#p32def6777b)" style="fill: none; stroke: #ffffff; stroke-width: 0.8; stroke-linecap: square"/>
     </g>
     <g id="line2d_14">
      <defs>
       <path id="mbf4414f79b" d="M 0 0 
L -3.5 0 
" style="stroke: #555555; stroke-width: 0.8"/>
      </defs>
      <g>
       <use xlink:href="#mbf4414f79b" x="57.6" y="307.584" style="fill: #555555; stroke: #555555; stroke-width: 0.8"/>
      </g>
     </g>
     <g id="text_8">
      <!-- 0 -->
      <g style="fill: #555555" transform="translate(44.2375 311.383219) scale(0.1 -0.1)">
       <use xlink:href="#DejaVuSans-30"/>
      </g>
     </g>
    </g>
    <g id="ytick_2">
     <g id="line2d_15">
      <path d="M 57.6 265.130319 
L 414.72 265.130319 
" clip-path="url(#p32def6777b)" style="fill: none; stroke: #ffffff; stroke-width: 0.8; stroke-linecap: square"/>
     </g>
     <g id="line2d_16">
      <g>
       <use xlink:href="#mbf4414f79b" x="57.6" y="265.130319" style="fill: #555555; stroke: #555555; stroke-width: 0.8"/>
      </g>
     </g>
     <g id="text_9">
      <!-- 500 -->
      <g style="fill: #555555" transform="translate(31.5125 268.929538) scale(0.1 -0.1)">
       <defs>
        <path id="DejaVuSans-35" d="M 691 4666 
L 3169 4666 
L 3169 4134 
L 1269 4134 
L 1269 2991 
Q 1406 3038 1543 3061 
Q 1681 3084 1819 3084 
Q 2600 3084 3056 2656 
Q 3513 2228 3513 1497 
Q 3513 744 3044 326 
Q 2575 -91 1722 -91 
Q 1428 -91 1123 -41 
Q 819 9 494 109 
L 494 744 
Q 775 591 1075 516 
Q 1375 441 1709 441 
Q 2250 441 2565 725 
Q 2881 1009 2881 1497 
Q 2881 1984 2565 2268 
Q 2250 2553 1709 2553 
Q 1456 2553 1204 2497 
Q 953 2441 691 2322 
L 691 4666 
z
" transform="scale(0.015625)"/>
       </defs>
       <use xlink:href="#DejaVuSans-35"/>
       <use xlink:href="#DejaVuSans-30" x="63.623047"/>
       <use xlink:href="#DejaVuSans-30" x="127.246094"/>
      </g>
     </g>
    </g>
    <g id="ytick_3">
     <g id="line2d_17">
      <path d="M 57.6 222.676639 
L 414.72 222.676639 
" clip-path="url(#p32def6777b)" style="fill: none; stroke: #ffffff; stroke-width: 0.8; stroke-linecap: square"/>
     </g>
     <g id="line2d_18">
      <g>
       <use xlink:href="#mbf4414f79b" x="57.6" y="222.676639" style="fill: #555555; stroke: #555555; stroke-width: 0.8"/>
      </g>
     </g>
     <g id="text_10">
      <!-- 1000 -->
      <g style="fill: #555555" transform="translate(25.15 226.475857) scale(0.1 -0.1)">
       <use xlink:href="#DejaVuSans-31"/>
       <use xlink:href="#DejaVuSans-30" x="63.623047"/>
       <use xlink:href="#DejaVuSans-30" x="127.246094"/>
       <use xlink:href="#DejaVuSans-30" x="190.869141"/>
      </g>
     </g>
    </g>
    <g id="ytick_4">
     <g id="line2d_19">
      <path d="M 57.6 180.222958 
L 414.72 180.222958 
" clip-path="url(#p32def6777b)" style="fill: none; stroke: #ffffff; stroke-width: 0.8; stroke-linecap: square"/>
     </g>
     <g id="line2d_20">
      <g>
       <use xlink:href="#mbf4414f79b" x="57.6" y="180.222958" style="fill: #555555; stroke: #555555; stroke-width: 0.8"/>
      </g>
     </g>
     <g id="text_11">
      <!-- 1500 -->
      <g style="fill: #555555" transform="translate(25.15 184.022177) scale(0.1 -0.1)">
       <use xlink:href="#DejaVuSans-31"/>
       <use xlink:href="#DejaVuSans-35" x="63.623047"/>
       <use xlink:href="#DejaVuSans-30" x="127.246094"/>
       <use xlink:href="#DejaVuSans-30" x="190.869141"/>
      </g>
     </g>
    </g>
    <g id="ytick_5">
     <g id="line2d_21">
      <path d="M 57.6 137.769277 
L 414.72 137.769277 
" clip-path="url(#p32def6777b)" style="fill: none; stroke: #ffffff; stroke-width: 0.8; stroke-linecap: square"/>
     </g>
     <g id="line2d_22">
      <g>
       <use xlink:href="#mbf4414f79b" x="57.6" y="137.769277" style="fill: #555555; stroke: #555555; stroke-width: 0.8"/>
      </g>
     </g>
     <g id="text_12">
      <!-- 2000 -->
      <g style="fill: #555555" transform="translate(25.15 141.568496) scale(0.1 -0.1)">
       <use xlink:href="#DejaVuSans-32"/>
       <use xlink:href="#DejaVuSans-30" x="63.623047"/>
       <use xlink:href="#DejaVuSans-30" x="127.246094"/>
       <use xlink:href="#DejaVuSans-30" x="190.869141"/>
      </g>
     </g>
    </g>
    <g id="ytick_6">
     <g id="line2d_23">
      <path d="M 57.6 95.315597 
L 414.72 95.315597 
" clip-path="url(#p32def6777b)" style="fill: none; stroke: #ffffff; stroke-width: 0.8; stroke-linecap: square"/>
     </g>
     <g id="line2d_24">
      <g>
       <use xlink:href="#mbf4414f79b" x="57.6" y="95.315597" style="fill: #555555; stroke: #555555; stroke-width: 0.8"/>
      </g>
     </g>
     <g id="text_13">
      <!-- 2500 -->
      <g style="fill: #555555" transform="translate(25.15 99.114816) scale(0.1 -0.1)">
       <use xlink:href="#DejaVuSans-32"/>
       <use xlink:href="#DejaVuSans-35" x="63.623047"/>
       <use xlink:href="#DejaVuSans-30" x="127.246094"/>
       <use xlink:href="#DejaVuSans-30" x="190.869141"/>
      </g>
     </g>
    </g>
    <g id="ytick_7">
     <g id="line2d_25">
      <path d="M 57.6 52.861916 
L 414.72 52.861916 
" clip-path="url(#p32def6777b)" style="fill: none; stroke: #ffffff; stroke-width: 0.8; stroke-linecap: square"/>
     </g>
     <g id="line2d_26">
      <g>
       <use xlink:href="#mbf4414f79b" x="57.6" y="52.861916" style="fill: #555555; stroke: #555555; stroke-width: 0.8"/>
      </g>
     </g>
     <g id="text_14">
      <!-- 3000 -->
      <g style="fill: #555555" transform="translate(25.15 56.661135) scale(0.1 -0.1)">
       <defs>
        <path id="DejaVuSans-33" d="M 2597 2516 
Q 3050 2419 3304 2112 
Q 3559 1806 3559 1356 
Q 3559 666 3084 287 
Q 2609 -91 1734 -91 
Q 1441 -91 1130 -33 
Q 819 25 488 141 
L 488 750 
Q 750 597 1062 519 
Q 1375 441 1716 441 
Q 2309 441 2620 675 
Q 2931 909 2931 1356 
Q 2931 1769 2642 2001 
Q 2353 2234 1838 2234 
L 1294 2234 
L 1294 2753 
L 1863 2753 
Q 2328 2753 2575 2939 
Q 2822 3125 2822 3475 
Q 2822 3834 2567 4026 
Q 2313 4219 1838 4219 
Q 1578 4219 1281 4162 
Q 984 4106 628 3988 
L 628 4550 
Q 988 4650 1302 4700 
Q 1616 4750 1894 4750 
Q 2613 4750 3031 4423 
Q 3450 4097 3450 3541 
Q 3450 3153 3228 2886 
Q 3006 2619 2597 2516 
z
" transform="scale(0.015625)"/>
       </defs>
       <use xlink:href="#DejaVuSans-33"/>
       <use xlink:href="#DejaVuSans-30" x="63.623047"/>
       <use xlink:href="#DejaVuSans-30" x="127.246094"/>
       <use xlink:href="#DejaVuSans-30" x="190.869141"/>
      </g>
     </g>
    </g>
    <g id="text_15">
     <!-- Median reward -->
     <g style="fill: #555555" transform="translate(18.654375 219.03675) rotate(-90) scale(0.12 -0.12)">
      <defs>
       <path id="DejaVuSans-4d" d="M 628 4666 
L 1569 4666 
L 2759 1491 
L 3956 4666 
L 4897 4666 
L 4897 0 
L 4281 0 
L 4281 4097 
L 3078 897 
L 2444 897 
L 1241 4097 
L 1241 0 
L 628 0 
L 628 4666 
z
" transform="scale(0.015625)"/>
       <path id="DejaVuSans-64" d="M 2906 2969 
L 2906 4863 
L 3481 4863 
L 3481 0 
L 2906 0 
L 2906 525 
Q 2725 213 2448 61 
Q 2172 -91 1784 -91 
Q 1150 -91 751 415 
Q 353 922 353 1747 
Q 353 2572 751 3078 
Q 1150 3584 1784 3584 
Q 2172 3584 2448 3432 
Q 2725 3281 2906 2969 
z
M 947 1747 
Q 947 1113 1208 752 
Q 1469 391 1925 391 
Q 2381 391 2643 752 
Q 2906 1113 2906 1747 
Q 2906 2381 2643 2742 
Q 2381 3103 1925 3103 
Q 1469 3103 1208 2742 
Q 947 2381 947 1747 
z
" transform="scale(0.015625)"/>
       <path id="DejaVuSans-69" d="M 603 3500 
L 1178 3500 
L 1178 0 
L 603 0 
L 603 3500 
z
M 603 4863 
L 1178 4863 
L 1178 4134 
L 603 4134 
L 603 4863 
z
" transform="scale(0.015625)"/>
       <path id="DejaVuSans-6e" d="M 3513 2113 
L 3513 0 
L 2938 0 
L 2938 2094 
Q 2938 2591 2744 2837 
Q 2550 3084 2163 3084 
Q 1697 3084 1428 2787 
Q 1159 2491 1159 1978 
L 1159 0 
L 581 0 
L 581 3500 
L 1159 3500 
L 1159 2956 
Q 1366 3272 1645 3428 
Q 1925 3584 2291 3584 
Q 2894 3584 3203 3211 
Q 3513 2838 3513 2113 
z
" transform="scale(0.015625)"/>
       <path id="DejaVuSans-77" d="M 269 3500 
L 844 3500 
L 1563 769 
L 2278 3500 
L 2956 3500 
L 3675 769 
L 4391 3500 
L 4966 3500 
L 4050 0 
L 3372 0 
L 2619 2869 
L 1863 0 
L 1184 0 
L 269 3500 
z
" transform="scale(0.015625)"/>
      </defs>
      <use xlink:href="#DejaVuSans-4d"/>
      <use xlink:href="#DejaVuSans-65" x="86.279297"/>
      <use xlink:href="#DejaVuSans-64" x="147.802734"/>
      <use xlink:href="#DejaVuSans-69" x="211.279297"/>
      <use xlink:href="#DejaVuSans-61" x="239.0625"/>
      <use xlink:href="#DejaVuSans-6e" x="300.341797"/>
      <use xlink:href="#DejaVuSans-20" x="363.720703"/>
      <use xlink:href="#DejaVuSans-72" x="395.507812"/>
      <use xlink:href="#DejaVuSans-65" x="434.371094"/>
      <use xlink:href="#DejaVuSans-77" x="495.894531"/>
      <use xlink:href="#DejaVuSans-61" x="577.681641"/>
      <use xlink:href="#DejaVuSans-72" x="638.960938"/>
      <use xlink:href="#DejaVuSans-64" x="678.324219"/>
     </g>
    </g>
   </g>
   <g id="line2d_27">
    <path d="M 73.832727 306.31039 
L 73.930143 305.758492 
L 73.995087 305.942458 
L 74.157447 305.916728 
L 74.417222 306.095887 
L 76.527899 306.142596 
L 76.88509 306.134319 
L 83.217121 306.208501 
L 93.770504 306.022119 
L 114.227832 305.090315 
L 114.455135 305.0557 
L 115.948845 304.916744 
L 118.091994 304.786601 
L 120.137726 304.58279 
L 121.209301 304.461561 
L 123.384921 304.290017 
L 124.03436 304.165532 
L 126.469756 303.810491 
L 127.216611 303.681771 
L 127.378971 303.609975 
L 127.930994 303.509211 
L 129.327288 303.213952 
L 129.587064 303.109461 
L 130.041671 302.986011 
L 131.145717 302.700961 
L 131.665268 302.441196 
L 132.217291 302.227757 
L 132.606955 302.11936 
L 133.02909 301.827057 
L 133.256394 301.66432 
L 133.808417 301.294882 
L 134.068193 301.048741 
L 135.074823 300.392072 
L 135.302127 300.186525 
L 135.432014 300.110452 
L 135.789206 299.906444 
L 136.048981 299.822351 
L 136.438645 299.595886 
L 136.69842 299.239583 
L 137.02314 299.025713 
L 137.347859 298.944231 
L 137.510219 298.332387 
L 137.834939 297.917306 
L 138.127186 297.907647 
L 138.322018 297.822687 
L 138.484378 297.795912 
L 138.549322 297.737386 
L 138.581793 297.664905 
L 138.841569 295.869582 
L 139.003929 295.602379 
L 139.36112 295.51765 
L 139.426064 295.295413 
L 139.750784 291.433374 
L 139.848199 291.451393 
L 140.367751 291.533237 
L 140.465166 291.062839 
L 140.627526 288.861638 
L 141.406853 288.939779 
L 141.893932 288.640062 
L 142.413483 285.501737 
L 142.543371 285.417644 
L 142.900563 284.643372 
L 142.997979 284.516331 
L 143.225282 284.111404 
L 143.874721 283.309387 
L 144.037081 283.031759 
L 144.199441 282.416448 
L 144.329328 281.60223 
L 144.3618 281.611881 
L 145.271015 276.325554 
L 145.433375 274.035316 
L 145.595734 274.005577 
L 145.985398 274.031078 
L 146.212701 270.855741 
L 146.86214 268.688013 
L 146.959556 268.601007 
L 147.284276 267.172036 
L 147.414164 267.191542 
L 147.673939 267.185899 
L 147.868771 266.886833 
L 148.031131 266.392007 
L 148.323378 266.077212 
L 148.420794 265.396015 
L 148.615626 263.998369 
L 148.68057 263.905017 
L 148.972817 263.091222 
L 149.135177 262.2696 
L 149.6872 261.365257 
L 149.979448 260.50095 
L 150.271695 257.13886 
L 150.369111 257.042047 
L 150.563943 254.933103 
L 150.628887 254.668089 
L 151.051022 253.661044 
L 151.148438 253.71003 
L 151.700461 253.78986 
L 152.057652 251.612257 
L 152.220012 250.983874 
L 152.414844 250.620384 
L 152.772035 248.751194 
L 153.096755 247.864814 
L 153.226642 247.717368 
L 153.811138 245.763963 
L 153.876081 245.480876 
L 154.233273 243.485421 
L 154.395633 241.986974 
L 154.915184 241.962506 
L 154.947656 241.916124 
L 155.467207 237.700346 
L 155.532151 237.744305 
L 155.662039 237.672841 
L 155.824398 236.428169 
L 155.986758 235.538779 
L 156.34395 235.599793 
L 156.960917 232.488163 
L 157.058332 232.407605 
L 157.318108 230.99416 
L 157.383052 230.802379 
L 157.675299 229.805636 
L 157.837659 229.230155 
L 158.389682 226.187534 
L 158.487098 225.878473 
L 158.584514 224.591526 
L 158.616986 224.611987 
L 158.84429 224.559319 
L 159.136537 222.657221 
L 159.331369 222.744333 
L 159.753504 221.10295 
L 159.85092 220.97218 
L 160.01328 220.836979 
L 160.045752 220.829808 
L 160.630247 218.824245 
L 160.792607 218.845665 
L 161.864181 215.471066 
L 162.156428 213.646128 
L 162.383732 211.573818 
L 162.643508 211.225845 
L 163.065643 211.215998 
L 163.228003 210.137172 
L 163.52025 209.997969 
L 163.585194 209.894381 
L 163.68261 209.812805 
L 163.715082 209.846827 
L 163.909914 209.925481 
L 164.072273 209.633249 
L 164.137217 209.560649 
L 164.526881 208.480942 
L 164.559353 208.411746 
L 164.591825 208.440869 
L 164.754184 207.582438 
L 165.403623 205.100604 
L 165.436095 205.078791 
L 165.565983 204.496278 
L 165.695871 204.556058 
L 165.728343 204.580874 
L 166.540141 201.47816 
L 166.605085 200.913676 
L 166.670029 200.959295 
L 166.799917 200.840031 
L 166.832389 200.873703 
L 166.962277 200.957667 
L 167.124637 201.021007 
L 167.319468 200.493293 
L 167.579244 198.131296 
L 167.741604 197.307505 
L 167.774076 197.334491 
L 167.806547 197.349521 
L 167.839019 197.245565 
L 168.163739 196.401901 
L 168.261155 196.362362 
L 168.423515 195.649116 
L 168.715762 195.281219 
L 169.00801 195.383353 
L 169.462617 194.165202 
L 169.624977 193.096134 
L 169.787336 192.87111 
L 169.917224 192.361039 
L 169.949696 192.368897 
L 170.047112 192.092457 
L 170.469247 187.380047 
L 170.599135 187.289637 
L 170.664079 187.311428 
L 170.761495 187.099089 
L 170.793967 187.117879 
L 170.826439 187.126057 
L 171.18363 185.44084 
L 171.735653 183.418273 
L 171.833069 183.47025 
L 172.027901 183.133835 
L 172.222733 183.231413 
L 172.612396 182.218769 
L 172.644868 182.228964 
L 172.67734 182.223565 
L 172.807228 181.369973 
L 172.904643 181.464937 
L 173.196891 181.755812 
L 173.326779 180.639877 
L 173.359251 180.6496 
L 173.391723 180.605581 
L 173.554082 179.956517 
L 173.748914 179.164485 
L 173.878802 178.874937 
L 173.943746 178.943318 
L 174.073634 179.016795 
L 174.106106 178.965345 
L 174.300937 178.424294 
L 174.528241 178.061735 
L 174.560713 178.056521 
L 174.690601 177.229311 
L 174.723073 177.24601 
L 174.820488 177.253629 
L 174.950376 176.941854 
L 175.080264 176.108422 
L 175.112736 176.111809 
L 175.17768 176.150886 
L 175.437455 174.299707 
L 175.469927 174.311578 
L 175.567343 174.301957 
L 175.762175 172.693 
L 175.794647 172.696938 
L 176.086894 171.648123 
L 176.379142 170.948274 
L 176.50903 170.596992 
L 176.573974 170.653 
L 176.606446 170.576318 
L 176.703861 170.527872 
L 176.736333 170.565857 
L 176.801277 170.485968 
L 176.996109 170.023735 
L 177.061053 169.945109 
L 177.158469 169.576941 
L 177.223413 169.639262 
L 177.450716 169.757408 
L 177.580604 169.727813 
L 177.67802 169.695879 
L 177.807908 169.487227 
L 178.002739 168.875138 
L 178.294987 167.20915 
L 178.327459 167.147673 
L 178.457347 166.328447 
L 178.489819 166.331887 
L 178.522291 166.330113 
L 178.554763 166.211506 
L 178.619706 166.268744 
L 178.879482 166.486805 
L 179.723753 163.607301 
L 179.756225 163.549239 
L 179.886112 162.9562 
L 180.080944 162.254324 
L 180.17836 162.33801 
L 180.275776 162.290441 
L 180.34072 162.100554 
L 180.632967 158.382152 
L 180.827799 158.136997 
L 181.314878 158.650436 
L 181.607126 157.683839 
L 181.704542 157.607526 
L 181.866901 157.035237 
L 181.899373 157.066203 
L 181.996789 157.062641 
L 182.094205 156.8203 
L 182.256565 154.898422 
L 182.386453 154.285638 
L 182.776116 153.323668 
L 182.873532 153.022598 
L 182.906004 153.039336 
L 183.263195 153.253826 
L 183.360611 152.965481 
L 183.393083 152.988802 
L 183.425555 152.986608 
L 183.587915 152.419476 
L 184.139938 151.143711 
L 184.17241 151.101332 
L 184.237354 151.183842 
L 184.334769 151.25094 
L 184.497129 150.907926 
L 184.691961 150.737901 
L 184.919265 150.360329 
L 184.951737 150.391279 
L 185.17904 150.610637 
L 185.211512 150.539706 
L 185.633647 149.831029 
L 185.666119 149.865261 
L 185.763535 149.841981 
L 185.925895 149.375841 
L 186.023311 149.151237 
L 186.283086 147.667628 
L 186.34803 147.654665 
L 186.445446 147.565492 
L 186.477918 147.6096 
L 186.575334 147.686252 
L 186.737694 147.756243 
L 187.094885 146.027072 
L 187.127357 146.044193 
L 187.159829 145.967544 
L 187.289717 145.327903 
L 187.354661 145.163818 
L 187.387133 144.960771 
L 187.452077 145.037566 
L 187.51702 145.117231 
L 187.67938 144.577942 
L 187.711852 144.602674 
L 187.906684 144.436269 
L 187.971628 144.07022 
L 188.069044 144.102319 
L 188.263875 144.29103 
L 188.523651 144.515964 
L 188.815898 143.383711 
L 188.978258 142.26166 
L 189.043202 141.697768 
L 189.108146 141.710452 
L 189.140618 141.751318 
L 189.302978 141.353552 
L 189.367922 141.429002 
L 189.400394 141.320337 
L 189.627697 141.267761 
L 189.855001 140.331655 
L 189.887473 140.280683 
L 190.147248 138.883974 
L 190.50444 137.196023 
L 190.569384 137.225053 
L 190.601856 137.266466 
L 190.764215 136.750389 
L 190.926575 136.86651 
L 190.959047 136.594294 
L 191.056463 136.616197 
L 191.088935 136.630926 
L 191.121407 136.525207 
L 191.413654 135.738721 
L 191.543542 135.5101 
L 191.576014 135.544925 
L 191.705902 135.333481 
L 191.738374 135.364333 
L 191.868262 135.389606 
L 191.998149 135.403534 
L 192.192981 134.900685 
L 192.452757 134.936918 
L 192.582645 134.749611 
L 192.68006 134.680792 
L 193.00478 134.168474 
L 193.134668 133.798894 
L 193.16714 133.806372 
L 193.329499 133.859733 
L 193.459387 133.518518 
L 193.589275 132.414268 
L 193.654219 132.30307 
L 193.816579 130.815052 
L 194.725793 131.472475 
L 194.758265 131.416885 
L 194.888153 131.422742 
L 195.1804 130.692278 
L 195.277816 130.386854 
L 195.440176 129.736375 
L 195.699952 129.771836 
L 195.829839 129.575175 
L 195.927255 129.638037 
L 196.057143 129.423414 
L 196.381863 129.1121 
L 196.544222 128.845514 
L 197.063773 128.147502 
L 197.128717 128.218384 
L 197.161189 128.245215 
L 197.388493 127.071842 
L 197.550853 126.773005 
L 197.583325 126.805158 
L 197.778156 126.498503 
L 197.875572 126.233742 
L 197.908044 126.273883 
L 198.297708 126.645151 
L 198.330179 126.629343 
L 198.654899 125.325723 
L 198.719843 125.242738 
L 198.784787 125.313374 
L 198.882203 125.341326 
L 198.979618 125.357121 
L 199.044562 125.290449 
L 199.109506 125.358237 
L 199.206922 125.3586 
L 199.596585 124.36312 
L 199.823889 123.946267 
L 200.051193 122.985591 
L 200.213553 122.701634 
L 200.310968 122.550766 
L 200.440856 121.561616 
L 200.473328 121.564421 
L 200.798048 120.884827 
L 200.83052 120.89789 
L 201.220183 121.16859 
L 201.350071 120.999101 
L 201.577374 119.76253 
L 201.67479 119.648391 
L 201.707262 119.692826 
L 201.934566 119.746797 
L 201.99951 119.714871 
L 202.031982 119.756274 
L 202.064454 119.766165 
L 202.324229 118.648839 
L 202.713893 118.009795 
L 203.038612 118.385439 
L 203.071084 118.312311 
L 203.298388 118.152207 
L 203.428275 118.203703 
L 203.460747 118.158569 
L 203.688051 118.188748 
L 203.817939 118.06356 
L 203.882883 118.061571 
L 204.045243 117.691809 
L 204.077714 117.698633 
L 204.305018 116.702724 
L 204.434906 116.376316 
L 204.467378 116.416469 
L 204.564794 116.485656 
L 204.921985 116.95194 
L 205.019401 116.837795 
L 205.149289 116.632361 
L 205.246705 116.628561 
L 205.441536 116.530164 
L 205.50648 116.47166 
L 205.603896 116.223349 
L 205.636368 116.231961 
L 205.798728 116.229606 
L 205.961087 116.010775 
L 206.285807 115.91766 
L 206.415695 115.579371 
L 206.545583 115.474324 
L 206.707942 115.012881 
L 206.83783 115.008426 
L 207.065134 114.528411 
L 207.097606 114.564437 
L 207.292437 114.536777 
L 207.454797 114.279169 
L 207.519741 114.163629 
L 207.584685 113.862167 
L 207.941876 113.165278 
L 207.974348 113.181651 
L 208.039292 113.208108 
L 208.104236 112.926545 
L 208.201652 112.990011 
L 208.33154 113.009365 
L 208.364012 113.047323 
L 208.396484 112.920713 
L 208.753675 110.885086 
L 209.240754 110.60281 
L 209.273226 110.643105 
L 209.468058 110.199585 
L 209.597946 110.173431 
L 209.987609 110.495045 
L 210.182441 110.461271 
L 210.247385 110.514762 
L 210.344801 110.016282 
L 210.474688 110.054478 
L 210.539632 109.978076 
L 210.604576 110.031294 
L 210.734464 110.063101 
L 210.799408 109.776091 
L 210.864352 109.813876 
L 211.286487 108.718386 
L 211.383903 108.763905 
L 211.448847 108.750109 
L 211.481319 108.790635 
L 211.741094 109.096793 
L 211.773566 109.002568 
L 211.83851 109.033059 
L 211.870982 108.9742 
L 212.033342 108.186153 
L 212.098286 108.22957 
L 212.358061 108.342658 
L 212.390533 108.351662 
L 212.585365 107.976508 
L 212.910085 107.634715 
L 212.975028 107.551687 
L 213.104916 107.42018 
L 213.364692 107.360036 
L 213.49458 106.996458 
L 213.559524 107.034706 
L 214.014131 106.325572 
L 214.079075 106.379223 
L 214.111547 106.42392 
L 214.144019 106.369329 
L 214.33885 106.103422 
L 214.371322 106.142139 
L 214.566154 106.226065 
L 214.66357 106.254632 
L 214.858401 106.439966 
L 215.053233 106.606792 
L 215.085705 106.581404 
L 215.215593 106.395276 
L 215.280537 105.906002 
L 215.442897 105.97077 
L 215.50784 105.925301 
L 215.540312 105.967648 
L 215.897504 106.293637 
L 216.092336 105.964224 
L 216.189751 105.60786 
L 216.222223 105.622897 
L 216.254695 105.643134 
L 216.709303 104.262433 
L 216.904134 104.338377 
L 217.00155 104.143844 
L 217.034022 104.176799 
L 217.488629 103.853018 
L 217.586045 103.480184 
L 217.618517 103.505524 
L 217.910765 103.64396 
L 217.975709 103.684154 
L 218.008181 103.603882 
L 218.203012 103.196936 
L 218.3329 102.635485 
L 218.365372 102.675493 
L 218.397844 102.573546 
L 218.430316 102.617973 
L 218.527732 102.642529 
L 218.690091 102.68838 
L 218.755035 102.454472 
L 218.819979 102.475382 
L 218.884923 102.478107 
L 218.917395 102.374326 
L 218.982339 102.437826 
L 219.404474 102.746241 
L 219.696722 102.503582 
L 219.729194 102.539222 
L 219.956497 101.858029 
L 220.086385 101.601135 
L 220.216273 101.185089 
L 220.508521 100.885636 
L 220.573465 100.93545 
L 220.605936 100.847346 
L 220.768296 100.76143 
L 221.093016 99.674923 
L 221.255375 99.046827 
L 221.547623 99.252126 
L 221.677511 99.116031 
L 221.872342 99.146837 
L 222.00223 99.059185 
L 222.262006 99.090074 
L 222.391894 98.894787 
L 222.424366 98.916489 
L 222.521781 98.850227 
L 222.651669 98.648192 
L 223.268636 98.22663 
L 223.301108 98.25864 
L 223.33358 98.139094 
L 223.463468 97.761294 
L 223.528412 97.63161 
L 223.593356 97.679732 
L 223.788187 97.634548 
L 224.015491 97.213531 
L 224.047963 97.244886 
L 224.080435 97.193521 
L 224.275267 96.804316 
L 224.405154 96.794135 
L 224.567514 96.574833 
L 224.599986 96.546918 
L 224.794818 95.653218 
L 224.82729 95.638577 
L 224.892234 95.501013 
L 224.957178 95.555563 
L 225.119537 95.30962 
L 225.346841 95.311722 
L 225.574145 95.023707 
L 225.606617 95.006153 
L 225.768976 94.556637 
L 225.866392 94.665565 
L 225.898864 94.616888 
L 226.15864 94.485832 
L 226.191112 94.524274 
L 226.320999 93.86297 
L 226.353471 93.894709 
L 226.743135 94.137962 
L 226.937967 94.301173 
L 227.230214 93.828253 
L 227.262686 93.837695 
L 227.425046 93.296629 
L 227.48999 93.31987 
L 227.652349 93.4226 
L 227.684821 93.366114 
L 227.717293 93.328281 
L 227.847181 92.835851 
L 227.879653 92.863358 
L 227.912125 92.883232 
L 227.977069 92.637492 
L 228.042013 92.665861 
L 228.464148 92.55428 
L 228.529092 92.455511 
L 228.594036 92.488593 
L 228.82134 92.475184 
L 228.853811 92.134425 
L 228.951227 92.216016 
L 229.275947 92.568415 
L 229.340891 92.453722 
L 229.470779 92.322196 
L 229.633138 92.041524 
L 229.795498 92.078018 
L 229.82797 91.811405 
L 229.925386 91.906128 
L 230.282577 91.804636 
L 230.542353 91.371705 
L 230.607297 91.412021 
L 230.672241 91.277339 
L 230.867072 90.742799 
L 231.32168 90.982538 
L 231.484039 91.167515 
L 231.516511 90.969256 
L 231.613927 91.024735 
L 232.101006 90.374041 
L 232.620558 90.588803 
L 232.782917 90.241185 
L 232.945277 89.785687 
L 233.172581 89.50029 
L 233.399884 89.634802 
L 233.692132 89.839607 
L 233.919436 89.836825 
L 234.146739 89.753236 
L 234.406515 89.74486 
L 234.568875 89.682797 
L 234.601346 89.719941 
L 234.633818 89.668409 
L 234.82865 89.161842 
L 234.893594 89.187668 
L 235.023482 89.178325 
L 235.445617 88.839799 
L 235.835281 89.14518 
L 235.867752 89.164075 
L 235.900224 89.090639 
L 236.030112 89.066391 
L 236.095056 89.088717 
L 236.127528 89.011408 
L 236.16 88.816244 
L 236.257416 88.892337 
L 236.387304 88.935827 
L 236.614607 89.044357 
L 236.647079 89.037345 
L 236.712023 88.790017 
L 236.776967 88.817908 
L 236.809439 88.774905 
L 236.874383 88.845037 
L 237.036743 88.784385 
L 237.16663 88.429291 
L 237.296518 88.476836 
L 237.426406 88.239135 
L 237.588766 88.323011 
L 237.783597 87.740448 
L 238.335621 86.951208 
L 238.400564 86.993101 
L 238.562924 86.721412 
L 238.692812 86.805047 
L 238.790228 86.809804 
L 239.017532 86.22098 
L 239.050003 86.223085 
L 239.082475 85.957137 
L 239.179891 85.97607 
L 239.439667 85.381868 
L 239.602027 85.402654 
L 240.024162 85.272842 
L 240.056634 85.176082 
L 240.121578 85.222147 
L 240.316409 85.322242 
L 240.348881 85.220593 
L 240.413825 85.242416 
L 240.576185 85.352621 
L 240.835961 85.11544 
L 240.965848 85.131496 
L 241.290568 84.457595 
L 241.32304 84.483152 
L 241.4854 84.492457 
L 241.842591 84.849481 
L 241.875063 84.889741 
L 241.907535 84.789347 
L 241.940007 84.80012 
L 242.037423 84.8234 
L 242.069895 84.782021 
L 242.134839 84.688287 
L 242.297198 84.515999 
L 242.362142 84.427957 
L 242.459558 83.973108 
L 242.49203 84.004433 
L 242.621918 83.990598 
L 242.784278 83.691381 
L 242.849221 83.760987 
L 243.076525 83.936463 
L 243.141469 83.803624 
L 243.401245 83.747144 
L 243.66102 83.544654 
L 243.82338 83.380096 
L 244.148099 83.663801 
L 244.375403 83.477122 
L 244.505291 83.477779 
L 244.602707 83.399623 
L 244.635179 83.426436 
L 244.862482 83.602862 
L 244.959898 83.688153 
L 244.99237 83.646713 
L 245.089786 83.313044 
L 245.15473 83.343241 
L 245.479449 83.253484 
L 245.641809 83.313543 
L 245.934057 82.449192 
L 245.999001 82.502959 
L 246.096416 82.527118 
L 246.16136 82.316117 
L 246.226304 82.382815 
L 246.356192 82.357126 
L 246.518552 82.317204 
L 246.64844 82.372464 
L 246.810799 82.244819 
L 247.297878 82.180922 
L 247.427766 82.01501 
L 247.525182 82.067287 
L 247.622598 81.852633 
L 247.65507 81.885929 
L 248.142149 82.187423 
L 248.304509 81.52485 
L 248.369453 81.145402 
L 248.434397 81.1747 
L 248.531813 81.150916 
L 248.694172 80.167767 
L 248.791588 80.124584 
L 248.921476 79.796112 
L 249.181252 79.932398 
L 249.538443 80.121039 
L 249.830691 78.997987 
L 250.025522 78.831506 
L 250.090466 78.881526 
L 250.15541 78.69672 
L 250.220354 78.752895 
L 250.31777 78.829293 
L 250.350242 78.744263 
L 250.674961 78.771475 
L 250.934737 78.640025 
L 251.194512 78.691845 
L 251.421816 78.808348 
L 251.551704 78.746594 
L 251.876423 78.419914 
L 252.136199 78.106504 
L 252.266087 78.141198 
L 252.395974 78.000624 
L 252.460918 78.031177 
L 252.590806 77.633354 
L 252.753166 77.62416 
L 252.915526 77.054419 
L 253.142829 77.074473 
L 253.207773 76.950634 
L 253.240245 76.877071 
L 253.305189 76.937469 
L 253.337661 76.967314 
L 253.370133 76.926106 
L 253.532493 76.789762 
L 253.727324 76.913685 
L 253.889684 76.756617 
L 253.954628 76.764777 
L 254.052044 76.480112 
L 254.116988 76.54685 
L 254.376763 76.692134 
L 254.539123 76.077032 
L 254.733955 75.563085 
L 255.091146 75.855584 
L 255.221034 75.74119 
L 255.253506 75.683869 
L 255.31845 75.763254 
L 255.415866 75.835073 
L 255.740585 76.084375 
L 255.870473 75.88603 
L 256.032833 75.842293 
L 256.195192 75.339542 
L 256.227664 75.349097 
L 256.292608 75.398339 
L 256.32508 75.283985 
L 256.454968 75.341129 
L 256.48744 75.356209 
L 256.519912 75.244716 
L 256.584856 75.302182 
L 256.617328 75.321557 
L 256.6498 75.26318 
L 256.714744 75.212223 
L 256.779688 75.273662 
L 256.81216 75.308735 
L 256.844631 75.235571 
L 256.909575 75.11165 
L 256.974519 75.13373 
L 257.169351 75.120531 
L 257.331711 75.183133 
L 257.396655 75.19539 
L 257.429127 75.138214 
L 257.49407 75.082399 
L 257.526542 75.120475 
L 257.559014 75.157143 
L 257.591486 75.113135 
L 257.883734 74.644691 
L 258.111037 74.750588 
L 258.240925 74.736085 
L 258.305869 74.590266 
L 258.370813 74.635366 
L 258.695533 74.364474 
L 258.82542 74.34935 
L 258.955308 74.40121 
L 258.98778 74.290611 
L 259.085196 74.343568 
L 259.507331 74.214522 
L 259.637219 74.011327 
L 259.669691 74.03893 
L 259.702163 73.972215 
L 259.767107 74.037859 
L 259.864523 74.04205 
L 259.994411 73.789286 
L 260.059354 73.808914 
L 260.221714 73.339616 
L 260.578906 73.262873 
L 260.838681 73.432759 
L 261.065985 73.535732 
L 261.098457 73.570554 
L 261.130929 73.534864 
L 261.293288 73.385219 
L 261.585536 73.492628 
L 262.202503 73.34221 
L 262.364863 73.003062 
L 262.462279 72.95129 
L 262.494751 72.976092 
L 262.689582 73.147536 
L 262.722054 73.100092 
L 262.851942 72.889305 
L 262.884414 72.90889 
L 262.949358 72.945838 
L 263.079246 72.599345 
L 263.241605 72.60867 
L 263.371493 72.623574 
L 263.8261 72.919046 
L 264.800259 73.336644 
L 264.995091 73.203516 
L 265.060035 73.251201 
L 265.092507 73.153709 
L 265.417226 73.183567 
L 265.839361 72.62147 
L 265.904305 72.526395 
L 266.066665 72.450422 
L 266.196553 72.496238 
L 266.229025 72.419365 
L 266.358913 72.30606 
L 266.586216 72.373505 
L 266.781048 72.141845 
L 267.073295 72.291123 
L 267.852622 71.976601 
L 267.950038 71.766351 
L 267.98251 71.78399 
L 268.079926 71.748915 
L 268.339701 71.369 
L 268.502061 71.178484 
L 268.599477 71.083993 
L 268.696893 71.130976 
L 268.956668 71.332559 
L 269.119028 71.21941 
L 269.281388 71.260819 
L 269.443748 71.192478 
L 269.865883 71.328311 
L 270.028243 71.446147 
L 270.060715 71.385306 
L 270.190602 71.364842 
L 270.515322 71.410404 
L 270.742626 71.445373 
L 270.904985 71.52268 
L 271.132289 71.36936 
L 271.619368 71.220262 
L 272.138919 71.515916 
L 272.398695 71.499193 
L 272.885774 70.946492 
L 273.178022 70.225693 
L 273.437797 70.233205 
L 274.249596 70.191119 
L 274.444428 70.176051 
L 274.4769 70.211636 
L 274.639259 69.899646 
L 274.671731 69.905401 
L 274.801619 69.644412 
L 275.093867 69.509649 
L 275.710834 68.945948 
L 276.425217 69.373472 
L 277.009712 69.542359 
L 277.172072 69.610127 
L 277.237015 69.356577 
L 277.301959 69.377624 
L 277.561735 69.355134 
L 277.691623 69.363112 
L 277.918926 69.399104 
L 278.243646 69.374011 
L 278.373534 69.160787 
L 278.730725 68.940486 
L 278.828141 68.80055 
L 278.860613 68.815989 
L 278.958029 68.83806 
L 278.990501 68.80464 
L 279.15286 68.757194 
L 279.380164 68.462755 
L 279.542524 68.093528 
L 279.802299 68.196943 
L 279.834771 68.109137 
L 279.899715 68.152184 
L 280.062075 68.181239 
L 280.679042 68.352145 
L 280.776458 68.368593 
L 280.873874 68.388659 
L 281.198593 67.658317 
L 281.360953 67.261285 
L 281.848032 67.557131 
L 282.14028 67.393673 
L 282.270167 67.370323 
L 282.594887 66.573742 
L 282.854663 66.595913 
L 282.952078 66.645673 
L 283.114438 66.399042 
L 283.374214 65.894144 
L 283.536573 65.40411 
L 283.601517 65.438561 
L 284.218484 65.945328 
L 284.250956 65.937715 
L 284.413316 65.55105 
L 284.445788 65.570966 
L 284.608148 65.421091 
L 284.64062 65.450645 
L 285.192643 65.631305 
L 285.614778 64.947333 
L 285.64725 64.880004 
L 285.712194 64.918007 
L 285.874554 64.918475 
L 286.134329 64.315502 
L 286.394105 64.293479 
L 286.491521 64.382562 
L 286.523993 64.28392 
L 286.653881 64.300421 
L 286.751296 64.311372 
L 286.848712 64.257336 
L 286.881184 64.274866 
L 287.043544 64.227064 
L 287.205904 64.161882 
L 287.433207 64.159616 
L 287.563095 63.90244 
L 287.628039 63.957974 
L 288.277478 64.370212 
L 288.439838 64.210177 
L 288.602198 64.261323 
L 289.608828 64.409062 
L 289.80366 63.803925 
L 289.836132 63.837568 
L 289.933547 63.844586 
L 290.290739 64.113218 
L 290.420627 64.068237 
L 290.518043 64.028023 
L 290.745346 63.89892 
L 290.907706 63.900495 
L 291.264897 63.10557 
L 291.427257 62.803856 
L 291.687033 62.85612 
L 291.81692 62.73664 
L 291.849392 62.765807 
L 292.044224 62.763421 
L 292.174112 62.462748 
L 292.206584 62.481695 
L 292.823551 62.388723 
L 292.985911 62.525317 
L 293.408046 62.814746 
L 293.602878 62.849613 
L 293.765237 62.858987 
L 294.154901 62.893071 
L 294.349732 62.742148 
L 294.447148 62.783057 
L 294.47962 62.7272 
L 294.609508 62.695737 
L 294.80434 62.736707 
L 295.388835 62.44031 
L 295.616139 62.573847 
L 295.64861 62.497883 
L 295.778498 62.457144 
L 296.038274 62.485255 
L 296.362993 62.427324 
L 296.525353 62.178292 
L 296.557825 62.21242 
L 296.655241 62.240548 
L 296.752657 62.050213 
L 296.785129 62.059806 
L 296.97996 62.058151 
L 297.077376 61.890411 
L 297.14232 61.948164 
L 297.239736 61.992647 
L 297.30468 61.895995 
L 297.337152 61.929415 
L 297.499512 61.985889 
L 298.051535 61.62471 
L 298.506142 61.79952 
L 298.928277 61.608868 
L 299.577716 61.833985 
L 299.837492 61.542715 
L 299.999852 61.566786 
L 300.486931 61.429338 
L 300.616819 61.385801 
L 300.746706 61.355726 
L 301.006482 61.482641 
L 301.168842 61.417515 
L 301.201314 61.440433 
L 301.233786 61.144348 
L 301.331202 61.161159 
L 301.590977 60.905554 
L 301.623449 60.93027 
L 301.818281 60.887802 
L 302.532664 61.228232 
L 302.727495 60.821445 
L 302.857383 60.899059 
L 303.344462 61.033694 
L 303.47435 60.985845 
L 303.669182 61.033797 
L 303.79907 61.022481 
L 304.221205 60.946231 
L 304.64334 61.138634 
L 304.675812 61.031963 
L 304.773228 60.879699 
L 304.8057 60.894924 
L 304.903116 60.848553 
L 305.033004 60.841563 
L 305.097948 60.805433 
L 305.260307 60.548165 
L 305.487611 60.355886 
L 305.649971 60.260499 
L 306.494241 60.223204 
L 306.624129 60.176632 
L 306.851433 60.278208 
L 307.241096 60.333835 
L 308.117839 60.375241 
L 308.410086 60.279317 
L 308.47503 60.263636 
L 308.604918 60.173519 
L 308.96211 60.039683 
L 309.286829 59.946986 
L 309.416717 59.909531 
L 309.611548 59.991691 
L 309.773908 59.800379 
L 310.098628 59.866219 
L 310.196044 59.718909 
L 310.228516 59.740462 
L 310.358403 59.783189 
L 310.390875 59.736755 
L 310.585707 59.659559 
L 310.618179 59.687988 
L 310.650651 59.552195 
L 310.715595 59.613145 
L 311.040314 59.766072 
L 311.267618 59.837532 
L 311.494922 59.633997 
L 311.689753 59.67109 
L 311.754697 59.533192 
L 311.819641 59.590205 
L 311.949529 59.587519 
L 312.046945 59.510219 
L 312.079417 59.536597 
L 312.111889 59.525079 
L 312.209304 59.345822 
L 312.241776 59.375443 
L 312.30672 59.432752 
L 312.436608 59.27557 
L 312.728856 59.415511 
L 312.988631 59.233057 
L 313.150991 59.000427 
L 313.378295 59.13704 
L 313.80043 59.479107 
L 313.832902 59.439514 
L 314.027734 59.380306 
L 314.092677 59.207514 
L 314.157621 59.236438 
L 314.417397 59.291294 
L 314.449869 59.221238 
L 314.514813 59.279048 
L 314.96942 59.28043 
L 315.001892 59.197802 
L 315.066836 59.241179 
L 315.424027 59.399737 
L 315.553915 59.28511 
L 315.586387 59.316552 
L 315.683803 59.332555 
L 315.781219 59.182524 
L 315.813691 59.196327 
L 315.911107 59.133764 
L 316.105938 58.995455 
L 316.365714 58.90208 
L 316.495602 58.949788 
L 316.625489 58.648004 
L 316.657961 58.637024 
L 316.787849 58.037521 
L 317.372344 58.265594 
L 318.930998 58.51799 
L 319.028414 58.445059 
L 319.060886 58.474705 
L 319.320661 58.467172 
L 319.450549 58.292126 
L 319.775269 58.22823 
L 320.587067 58.401652 
L 320.684483 58.465199 
L 320.716955 58.380571 
L 321.171562 58.250156 
L 321.528754 58.277969 
L 321.691113 58.143835 
L 321.950889 58.225301 
L 322.080777 58.169948 
L 322.178193 58.215509 
L 322.210665 58.164009 
L 322.697744 57.941282 
L 322.79516 57.852936 
L 322.989991 57.718431 
L 323.087407 57.675877 
L 323.217295 57.469807 
L 323.282239 57.512724 
L 323.314711 57.41309 
L 323.412127 57.329886 
L 323.542015 57.216027 
L 323.574487 57.246445 
L 323.606958 57.239849 
L 323.63943 57.070492 
L 323.736846 57.147328 
L 323.866734 57.051892 
L 324.256397 57.381744 
L 324.386285 57.399173 
L 324.678533 56.95802 
L 324.840893 56.965399 
L 325.035724 57.099163 
L 325.360444 57.247189 
L 325.392916 57.183688 
L 325.490332 57.112312 
L 325.522803 57.134853 
L 325.652691 57.054157 
L 325.685163 57.078475 
L 326.561906 56.982356 
L 326.724266 56.859397 
L 326.951569 56.84838 
L 327.503592 56.700516 
L 327.536064 56.615747 
L 327.63348 56.663554 
L 327.763368 56.674062 
L 328.250447 56.940894 
L 328.477751 56.826634 
L 328.575167 56.788692 
L 328.607639 56.706466 
L 328.705054 56.745244 
L 328.867414 56.719261 
L 328.932358 56.746712 
L 328.96483 56.692937 
L 329.451909 56.644041 
L 329.679213 56.744693 
L 329.809101 56.68307 
L 330.166292 56.871383 
L 330.29618 56.866106 
L 330.523484 56.584222 
L 330.653371 56.63234 
L 330.913147 56.711336 
L 331.205395 56.850056 
L 331.692474 56.652342 
L 331.854834 56.649231 
L 332.017193 56.523012 
L 332.114609 56.577069 
L 332.147081 56.486679 
L 332.309441 56.361782 
L 332.439329 56.362924 
L 332.569216 56.238798 
L 332.601688 56.265636 
L 332.861464 56.224218 
L 333.088768 56.224301 
L 333.381015 56.33461 
L 333.543375 56.299576 
L 333.608319 56.344402 
L 333.640791 56.259282 
L 334.160342 56.222047 
L 334.842253 56.447174 
L 335.037085 56.440458 
L 335.686523 56.539431 
L 336.011243 56.60765 
L 336.400906 56.540892 
L 336.693154 56.717755 
L 336.823042 56.566372 
L 336.887986 56.518623 
L 337.050345 56.269229 
L 337.440009 56.270676 
L 337.537425 56.037422 
L 337.569897 56.055271 
L 337.667312 55.978411 
L 337.7972 55.897809 
L 337.927088 55.722169 
L 338.251807 55.696262 
L 338.544055 55.809617 
L 338.706415 55.796965 
L 338.96619 55.632167 
L 339.096078 55.4243 
L 339.12855 55.442389 
L 339.29091 55.374742 
L 339.45327 55.258689 
L 339.680573 55.3778 
L 340.29754 55.349121 
L 340.719676 55.125276 
L 341.239227 55.419044 
L 341.563946 55.422924 
L 341.726306 55.335354 
L 342.180913 55.347817 
L 342.310801 55.337044 
L 342.538105 55.360056 
L 343.28496 55.223914 
L 343.512263 55.256343 
L 343.609679 55.16773 
L 343.642151 55.188143 
L 344.161702 55.011553 
L 344.811141 55.38409 
L 345.135861 54.987435 
L 345.168333 54.996691 
L 345.265748 54.895854 
L 345.29822 54.912163 
L 345.525524 54.862597 
L 345.7853 54.688154 
L 345.915187 54.67788 
L 346.077547 54.547487 
L 346.239907 54.563565 
L 346.402267 54.33274 
L 346.62957 54.344228 
L 346.759458 54.167627 
L 347.051706 54.265859 
L 347.506313 54.494527 
L 347.701145 54.461617 
L 347.993392 54.495066 
L 349.000023 54.851423 
L 350.136541 54.769279 
L 350.331372 54.732839 
L 352.506993 55.035972 
L 352.701825 55.058406 
L 352.929128 55.155946 
L 353.221376 55.218404 
L 353.513623 55.128255 
L 353.870815 55.170766 
L 354.000703 55.156009 
L 354.13059 55.165834 
L 354.260478 55.053228 
L 354.715086 55.124107 
L 354.877445 55.117788 
L 355.202165 55.202688 
L 355.299581 55.160566 
L 355.332053 55.186341 
L 355.656772 55.282265 
L 355.78666 55.031522 
L 355.819132 55.041274 
L 355.981492 55.084906 
L 356.078907 55.133425 
L 356.111379 55.086091 
L 356.176323 54.913177 
L 356.241267 54.9498 
L 356.338683 54.887817 
L 356.501043 54.885561 
L 356.728346 54.921219 
L 356.79329 54.819598 
L 356.858234 54.870559 
L 357.28037 55.028639 
L 357.442729 55.019584 
L 357.637561 54.94863 
L 357.767449 54.648388 
L 357.864865 54.645281 
L 358.027224 54.370014 
L 358.351944 54.222973 
L 358.44936 54.095155 
L 358.481832 54.110452 
L 359.391046 54.559474 
L 359.520934 54.452711 
L 359.878125 54.57105 
L 360.008013 54.579542 
L 360.137901 54.57521 
L 360.202845 54.462766 
L 360.267789 54.506859 
L 360.397677 54.542661 
L 360.560036 54.609194 
L 360.78734 54.631309 
L 361.274419 54.641882 
L 361.664083 54.852972 
L 361.826442 54.751636 
L 362.11869 54.805366 
L 362.378466 54.806913 
L 362.508353 54.764286 
L 362.638241 54.735892 
L 364.196895 54.74542 
L 364.716446 55.003849 
L 365.073637 54.867774 
L 365.430829 54.968869 
L 365.658132 55.004278 
L 365.78802 55.037327 
L 366.11274 55.070422 
L 366.599819 54.990193 
L 366.827123 55.027524 
L 367.11937 54.91273 
L 367.249258 54.880892 
L 367.379146 54.715904 
L 367.509033 54.723279 
L 367.898697 54.849894 
L 368.093529 54.941392 
L 368.223416 54.903879 
L 368.385776 54.918477 
L 368.483192 54.892021 
L 368.515664 54.916336 
L 368.807911 55.018152 
L 369.100159 54.88748 
L 369.262519 54.614466 
L 369.489822 54.629082 
L 369.61971 54.633684 
L 370.463981 54.730352 
L 370.691284 54.586753 
L 370.821172 54.548061 
L 371.470611 54.510871 
L 371.665443 54.567737 
L 371.827803 54.519377 
L 372.574657 54.835235 
L 372.769489 54.871556 
L 372.964321 54.716432 
L 373.256568 54.734353 
L 373.581288 54.775183 
L 373.743648 54.782769 
L 374.068367 54.791692 
L 374.198255 54.729933 
L 375.367245 55.015978 
L 375.594549 55.112948 
L 375.756908 55.133149 
L 376.049156 55.081549 
L 376.308932 55.126425 
L 376.731067 55.22496 
L 377.315562 54.696504 
L 377.705225 54.955143 
L 377.737697 54.905843 
L 377.867585 54.889365 
L 377.965001 54.943456 
L 377.997473 54.836783 
L 378.192305 54.739987 
L 378.711856 54.901031 
L 378.809272 54.791518 
L 378.841744 54.812553 
L 379.133991 54.85169 
L 379.263879 54.814867 
L 379.913318 54.725564 
L 380.757589 55.019334 
L 380.887476 54.933873 
L 381.147252 54.983452 
L 381.342084 55.004969 
L 381.374556 55.002492 
L 381.504443 54.802626 
L 381.536915 54.814579 
L 381.926579 54.808021 
L 382.868265 54.82053 
L 382.998153 54.771137 
L 383.77748 55.03642 
L 383.972312 54.978262 
L 384.037255 54.980325 
L 384.167143 54.902758 
L 384.491863 54.894333 
L 385.043886 55.030486 
L 385.336133 54.80267 
L 385.9531 55.073615 
L 386.147932 55.019917 
L 386.310292 55.019017 
L 386.667483 54.989103 
L 387.057147 55.081926 
L 387.414338 54.798697 
L 387.641642 54.823535 
L 388.226137 55.086571 
L 388.583328 54.787125 
L 388.810632 54.819232 
L 390.369285 54.685356 
L 390.726477 54.583387 
L 390.888837 54.575045 
L 391.213556 54.515182 
L 393.324233 55.013032 
L 393.421649 55.042301 
L 393.454121 54.94865 
L 393.551536 55.000155 
L 394.136032 55.311035 
L 394.298391 55.357057 
L 396.214236 55.45995 
L 397.480642 55.707233 
L 397.643002 55.65927 
L 398.487273 55.87704 
L 398.487273 55.87704 
" clip-path="url(#p32def6777b)" style="fill: none; stroke: #d62728; stroke-width: 1.5; stroke-linecap: square"/>
   </g>
   <g id="patch_3">
    <path d="M 57.6 307.584 
L 57.6 41.472 
" style="fill: none; stroke: #ffffff; stroke-linejoin: miter; stroke-linecap: square"/>
   </g>
   <g id="patch_4">
    <path d="M 414.72 307.584 
L 414.72 41.472 
" style="fill: none; stroke: #ffffff; stroke-linejoin: miter; stroke-linecap: square"/>
   </g>
   <g id="patch_5">
    <path d="M 57.6 307.584 
L 414.72 307.584 
" style="fill: none; stroke: #ffffff; stroke-linejoin: miter; stroke-linecap: square"/>
   </g>
   <g id="patch_6">
    <path d="M 57.6 41.472 
L 414.72 41.472 
" style="fill: none; stroke: #ffffff; stroke-linejoin: miter; stroke-linecap: square"/>
   </g>
   <g id="text_16">
    <!-- 2964.4892489248923 -->
    <g transform="translate(398.487273 55.87704) scale(0.1 -0.1)">
     <defs>
      <path id="DejaVuSans-39" d="M 703 97 
L 703 672 
Q 941 559 1184 500 
Q 1428 441 1663 441 
Q 2288 441 2617 861 
Q 2947 1281 2994 2138 
Q 2813 1869 2534 1725 
Q 2256 1581 1919 1581 
Q 1219 1581 811 2004 
Q 403 2428 403 3163 
Q 403 3881 828 4315 
Q 1253 4750 1959 4750 
Q 2769 4750 3195 4129 
Q 3622 3509 3622 2328 
Q 3622 1225 3098 567 
Q 2575 -91 1691 -91 
Q 1453 -91 1209 -44 
Q 966 3 703 97 
z
M 1959 2075 
Q 2384 2075 2632 2365 
Q 2881 2656 2881 3163 
Q 2881 3666 2632 3958 
Q 2384 4250 1959 4250 
Q 1534 4250 1286 3958 
Q 1038 3666 1038 3163 
Q 1038 2656 1286 2365 
Q 1534 2075 1959 2075 
z
" transform="scale(0.015625)"/>
      <path id="DejaVuSans-2e" d="M 684 794 
L 1344 794 
L 1344 0 
L 684 0 
L 684 794 
z
" transform="scale(0.015625)"/>
     </defs>
     <use xlink:href="#DejaVuSans-32"/>
     <use xlink:href="#DejaVuSans-39" x="63.623047"/>
     <use xlink:href="#DejaVuSans-36" x="127.246094"/>
     <use xlink:href="#DejaVuSans-34" x="190.869141"/>
     <use xlink:href="#DejaVuSans-2e" x="254.492188"/>
     <use xlink:href="#DejaVuSans-34" x="286.279297"/>
     <use xlink:href="#DejaVuSans-38" x="349.902344"/>
     <use xlink:href="#DejaVuSans-39" x="413.525391"/>
     <use xlink:href="#DejaVuSans-32" x="477.148438"/>
     <use xlink:href="#DejaVuSans-34" x="540.771484"/>
     <use xlink:href="#DejaVuSans-38" x="604.394531"/>
     <use xlink:href="#DejaVuSans-39" x="668.017578"/>
     <use xlink:href="#DejaVuSans-32" x="731.640625"/>
     <use xlink:href="#DejaVuSans-34" x="795.263672"/>
     <use xlink:href="#DejaVuSans-38" x="858.886719"/>
     <use xlink:href="#DejaVuSans-39" x="922.509766"/>
     <use xlink:href="#DejaVuSans-32" x="986.132812"/>
     <use xlink:href="#DejaVuSans-33" x="1049.755859"/>
    </g>
   </g>
   <g id="text_17">
    <!-- Epoch: 10000 -->
    <g transform="translate(186.4935 35.472) scale(0.144 -0.144)">
     <defs>
      <path id="DejaVuSans-45" d="M 628 4666 
L 3578 4666 
L 3578 4134 
L 1259 4134 
L 1259 2753 
L 3481 2753 
L 3481 2222 
L 1259 2222 
L 1259 531 
L 3634 531 
L 3634 0 
L 628 0 
L 628 4666 
z
" transform="scale(0.015625)"/>
      <path id="DejaVuSans-70" d="M 1159 525 
L 1159 -1331 
L 581 -1331 
L 581 3500 
L 1159 3500 
L 1159 2969 
Q 1341 3281 1617 3432 
Q 1894 3584 2278 3584 
Q 2916 3584 3314 3078 
Q 3713 2572 3713 1747 
Q 3713 922 3314 415 
Q 2916 -91 2278 -91 
Q 1894 -91 1617 61 
Q 1341 213 1159 525 
z
M 3116 1747 
Q 3116 2381 2855 2742 
Q 2594 3103 2138 3103 
Q 1681 3103 1420 2742 
Q 1159 2381 1159 1747 
Q 1159 1113 1420 752 
Q 1681 391 2138 391 
Q 2594 391 2855 752 
Q 3116 1113 3116 1747 
z
" transform="scale(0.015625)"/>
      <path id="DejaVuSans-63" d="M 3122 3366 
L 3122 2828 
Q 2878 2963 2633 3030 
Q 2388 3097 2138 3097 
Q 1578 3097 1268 2742 
Q 959 2388 959 1747 
Q 959 1106 1268 751 
Q 1578 397 2138 397 
Q 2388 397 2633 464 
Q 2878 531 3122 666 
L 3122 134 
Q 2881 22 2623 -34 
Q 2366 -91 2075 -91 
Q 1284 -91 818 406 
Q 353 903 353 1747 
Q 353 2603 823 3093 
Q 1294 3584 2113 3584 
Q 2378 3584 2631 3529 
Q 2884 3475 3122 3366 
z
" transform="scale(0.015625)"/>
      <path id="DejaVuSans-68" d="M 3513 2113 
L 3513 0 
L 2938 0 
L 2938 2094 
Q 2938 2591 2744 2837 
Q 2550 3084 2163 3084 
Q 1697 3084 1428 2787 
Q 1159 2491 1159 1978 
L 1159 0 
L 581 0 
L 581 4863 
L 1159 4863 
L 1159 2956 
Q 1366 3272 1645 3428 
Q 1925 3584 2291 3584 
Q 2894 3584 3203 3211 
Q 3513 2838 3513 2113 
z
" transform="scale(0.015625)"/>
      <path id="DejaVuSans-3a" d="M 750 794 
L 1409 794 
L 1409 0 
L 750 0 
L 750 794 
z
M 750 3309 
L 1409 3309 
L 1409 2516 
L 750 2516 
L 750 3309 
z
" transform="scale(0.015625)"/>
     </defs>
     <use xlink:href="#DejaVuSans-45"/>
     <use xlink:href="#DejaVuSans-70" x="63.183594"/>
     <use xlink:href="#DejaVuSans-6f" x="126.660156"/>
     <use xlink:href="#DejaVuSans-63" x="187.841797"/>
     <use xlink:href="#DejaVuSans-68" x="242.822266"/>
     <use xlink:href="#DejaVuSans-3a" x="306.201172"/>
     <use xlink:href="#DejaVuSans-20" x="339.892578"/>
     <use xlink:href="#DejaVuSans-31" x="371.679688"/>
     <use xlink:href="#DejaVuSans-30" x="435.302734"/>
     <use xlink:href="#DejaVuSans-30" x="498.925781"/>
     <use xlink:href="#DejaVuSans-30" x="562.548828"/>
     <use xlink:href="#DejaVuSans-30" x="626.171875"/>
    </g>
   </g>
  </g>
 </g>
 <defs>
  <clipPath id="p32def6777b">
   <rect x="57.6" y="41.472" width="357.12" height="266.112"/>
  </clipPath>
 </defs>
</svg>
